#define i0_width 16
#define i0_height 16
static unsigned char i0_bits[] = {
   0xf0, 0x0f, 0xf8, 0x1f, 0xfc, 0x3f, 0x3c, 0x3c, 0x1e, 0x78, 0x0e, 0x70,
   0x8e, 0x71, 0xce, 0x73, 0xce, 0x73, 0x8e, 0x71, 0x0e, 0x70, 0x1e, 0x78,
   0x3c, 0x3c, 0xfc, 0x3f, 0xf8, 0x1f, 0xf0, 0x0f};
