#define i1_width 16
#define i1_height 16
static unsigned char i1_bits[] = {
   0xc0, 0x01, 0xe0, 0x01, 0xf0, 0x01, 0xf8, 0x01, 0xf8, 0x01, 0xc0, 0x01,
   0xc0, 0x01, 0xc0, 0x01, 0xc0, 0x01, 0xc0, 0x01, 0xc0, 0x01, 0xc0, 0x01,
   0xc0, 0x01, 0xc0, 0x01, 0xf8, 0x0f, 0xf8, 0x0f};
