#define i2_width 16
#define i2_height 16
static unsigned char i2_bits[] = {
   0xc0, 0x03, 0xf0, 0x0f, 0xf8, 0x1f, 0x3c, 0x3e, 0x1c, 0x38, 0x00, 0x38,
   0x00, 0x3c, 0x00, 0x1e, 0x80, 0x1f, 0xe0, 0x0f, 0xf8, 0x03, 0xf8, 0x00,
   0x3c, 0x00, 0xfc, 0x3f, 0xfc, 0x3f, 0xfc, 0x3f};
