#define i3_width 16
#define i3_height 16
static unsigned char i3_bits[] = {
   0xe0, 0x03, 0xf8, 0x0f, 0xf8, 0x1e, 0x3c, 0x38, 0x1c, 0x38, 0x00, 0x3c,
   0x80, 0x1f, 0xc0, 0x0f, 0x80, 0x1f, 0x00, 0x3c, 0x00, 0x38, 0x1c, 0x38,
   0x3c, 0x3c, 0xf8, 0x1e, 0xf0, 0x0f, 0xc0, 0x03};
