#define i4.xbm_width 16
#define i4.xbm_height 16
static unsigned char i4.xbm_bits[] = {
   0x00, 0x0f, 0x80, 0x0f, 0xc0, 0x0f, 0xc0, 0x0f, 0xe0, 0x0e, 0xf0, 0x0e,
   0x70, 0x0e, 0x78, 0x0e, 0x3c, 0x0e, 0xfc, 0x7f, 0xfc, 0x7f, 0xfc, 0x7f,
   0x00, 0x0e, 0x00, 0x0e, 0x00, 0x0e, 0x00, 0x0e};
