#define i5.xbm_width 16
#define i5.xbm_height 16
static unsigned char i5.xbm_bits[] = {
   0xfc, 0x3f, 0xfc, 0x3f, 0xfc, 0x3f, 0x1c, 0x00, 0x1c, 0x00, 0xfc, 0x07,
   0xfc, 0x1f, 0xe0, 0x3f, 0x00, 0x3e, 0x00, 0x78, 0x00, 0x70, 0x1c, 0x70,
   0x3c, 0x78, 0xf8, 0x3e, 0xf0, 0x1f, 0xc0, 0x07};
