#define 6_width 16
#define 6_height 16
static unsigned char 6_bits[] = {
   0x80, 0x0f, 0xc0, 0x07, 0xe0, 0x03, 0xf0, 0x01, 0xf8, 0x00, 0x78, 0x00,
   0xfc, 0x03, 0xfc, 0x0f, 0xfc, 0x1f, 0x3c, 0x3c, 0x1c, 0x38, 0x1c, 0x38,
   0x3c, 0x38, 0x78, 0x1c, 0xf0, 0x0f, 0xe0, 0x07};
