#define i7_width 16
#define i7_height 16
static unsigned char i7_bits[] = {
   0xfc, 0x7f, 0xfc, 0x7f, 0xfc, 0x7f, 0x00, 0x3c, 0x00, 0x1e, 0x00, 0x1e,
   0x00, 0x0f, 0x80, 0x07, 0x80, 0x07, 0xc0, 0x03, 0xe0, 0x01, 0xe0, 0x01,
   0xf0, 0x00, 0x78, 0x00, 0x78, 0x00, 0x3c, 0x00};
