#define i8_width 16
#define i8_height 16
static unsigned char i8_bits[] = {
   0xc0, 0x03, 0xf0, 0x0f, 0x78, 0x1e, 0x1c, 0x38, 0x1c, 0x38, 0x3c, 0x3c,
   0xf8, 0x1f, 0xf0, 0x0f, 0xf8, 0x1f, 0x3c, 0x3c, 0x1c, 0x38, 0x1c, 0x38,
   0x3c, 0x3c, 0x78, 0x1e, 0xf0, 0x0f, 0xc0, 0x03};
