#define 9_width 16
#define 9_height 16
static unsigned char 9_bits[] = {
   0xe0, 0x07, 0xf0, 0x0f, 0x38, 0x1e, 0x1c, 0x3c, 0x1c, 0x38, 0x1c, 0x38,
   0x3c, 0x3c, 0xf8, 0x3f, 0xf0, 0x3f, 0xc0, 0x3f, 0x00, 0x1e, 0x00, 0x1f,
   0x80, 0x0f, 0xc0, 0x07, 0xe0, 0x03, 0xf0, 0x01};
