#define airplane_width 16
#define airplane_height 16
static unsigned char airplane_bits[] = {
   0x00, 0xe0, 0x03, 0xf0, 0x3f, 0xf8, 0xff, 0x7f, 0xfc, 0x3f, 0xf0, 0x1f,
   0xe0, 0x1f, 0xc0, 0x1f, 0xe0, 0x1f, 0xf0, 0x1f, 0xf8, 0x3d, 0x7f, 0x3c,
   0x3f, 0x38, 0x1c, 0x38, 0x18, 0x70, 0x18, 0x70};
