#define anchor_width 16
#define anchor_height 16
static unsigned char anchor_bits[] = {
   0xc0, 0x03, 0x60, 0x06, 0x60, 0x06, 0xc0, 0x03, 0xfc, 0x3f, 0xfc, 0x3f,
   0x80, 0x01, 0x81, 0x81, 0x83, 0xc1, 0x87, 0xe1, 0x83, 0xc1, 0x87, 0xe1,
   0x8e, 0x71, 0xfc, 0x3f, 0xf0, 0x0f, 0xc0, 0x03};
