#define B.xbm_width 16
#define B.xbm_height 16
static unsigned char B.xbm_bits[] = {
   0xfc, 0x1f, 0xfc, 0x3f, 0x1c, 0x7c, 0x1c, 0x78, 0x1c, 0x7c, 0xfc, 0x3f,
   0xfc, 0x1f, 0xfc, 0x3f, 0x1c, 0x78, 0x1c, 0xf0, 0x1c, 0xe0, 0x1c, 0xe0,
   0x1c, 0xf0, 0xfc, 0xff, 0xfc, 0x7f, 0xfc, 0x3f};
