#define ball_small_width 16
#define ball_small_height 16
static unsigned char ball_small_bits[] = {
   0x00, 0x00, 0x00, 0x00, 0x80, 0x01, 0xe0, 0x07, 0xf0, 0x0f, 0xf8, 0x1f,
   0xf8, 0x1f, 0xfc, 0x3f, 0xfc, 0x3f, 0xf8, 0x1f, 0xf8, 0x1f, 0xf0, 0x0f,
   0xe0, 0x07, 0x80, 0x01, 0x00, 0x00, 0x00, 0x00};
