#define binoculars_width 16
#define binoculars_height 16
static unsigned char binoculars_bits[] = {
   0x38, 0x1c, 0x38, 0x1c, 0x7c, 0x3e, 0x7c, 0x3e, 0xfc, 0x3f, 0xbc, 0x3d,
   0xbc, 0x3d, 0xfe, 0x7f, 0xfe, 0x7f, 0x7f, 0xfe, 0x7f, 0xfe, 0x3f, 0xfc,
   0x3f, 0xfc, 0x3f, 0xfc, 0x3f, 0xfc, 0x3f, 0xfc};
