#define bird.xbm_width 16
#define bird.xbm_height 16
static unsigned char bird.xbm_bits[] = {
   0x00, 0x00, 0x00, 0x1c, 0x00, 0x3f, 0x80, 0xef, 0xc0, 0x7f, 0xe0, 0x3f,
   0xf0, 0x3f, 0xf8, 0x1f, 0xff, 0x1f, 0xfc, 0x0f, 0xe0, 0x07, 0x80, 0x01,
   0x00, 0x01, 0x00, 0x01, 0x80, 0x03, 0xe0, 0x0f};
