#define block_small_width 16
#define block_small_height 16
static unsigned char block_small_bits[] = {
   0x00, 0x00, 0x00, 0x00, 0x00, 0x00, 0xf8, 0x1f, 0xf8, 0x1f, 0xf8, 0x1f,
   0xf8, 0x1f, 0xf8, 0x1f, 0xf8, 0x1f, 0xf8, 0x1f, 0xf8, 0x1f, 0xf8, 0x1f,
   0xf8, 0x1f, 0x00, 0x00, 0x00, 0x00, 0x00, 0x00};
