#define bookmark_width 16
#define bookmark_height 16
static unsigned char bookmark_bits[] = {
   0xfe, 0x7f, 0xfe, 0x7f, 0xfe, 0x7f, 0xfe, 0x7f, 0xfe, 0x7f, 0xfe, 0x7f,
   0xfe, 0x7f, 0xfe, 0x7f, 0xfe, 0x7f, 0xfe, 0x7f, 0x7e, 0x7e, 0x3e, 0x7c,
   0x1e, 0x78, 0x0e, 0x70, 0x06, 0x60, 0x02, 0x40};
