#define box_stack_width 16
#define box_stack_height 16
static unsigned char box_stack_bits[] = {
   0xff, 0x1f, 0xff, 0x1f, 0xff, 0xdf, 0xff, 0xdf, 0xff, 0xdf, 0xff, 0xdf,
   0xff, 0xdf, 0xff, 0xdf, 0xff, 0xdf, 0xff, 0xdf, 0xff, 0xdf, 0xff, 0xdf,
   0xff, 0xdf, 0x00, 0xc0, 0xfc, 0xff, 0xfc, 0xff};
