#define C.xbm_width 16
#define C.xbm_height 16
static unsigned char C.xbm_bits[] = {
   0xf0, 0x0f, 0xf8, 0x1f, 0xfc, 0x3f, 0x3e, 0x3c, 0x1e, 0x38, 0x0e, 0x00,
   0x0e, 0x00, 0x0e, 0x00, 0x0e, 0x00, 0x0e, 0x00, 0x0e, 0x00, 0x1e, 0x38,
   0x3c, 0x38, 0xf8, 0x3f, 0xf8, 0x1f, 0xf0, 0x0f};
