#define camera.xbm_width 16
#define camera.xbm_height 16
static unsigned char camera.xbm_bits[] = {
   0x00, 0x00, 0x00, 0x00, 0xf0, 0x07, 0xf6, 0x07, 0xfe, 0x7f, 0xff, 0xff,
   0x3f, 0xfe, 0x1f, 0xfc, 0xcf, 0xf9, 0xcf, 0xf9, 0xcf, 0xf9, 0x1f, 0xfc,
   0x3f, 0xfe, 0xff, 0xff, 0xfe, 0x7f, 0x00, 0x00};
