#define cancel_width 16
#define cancel_height 16
static unsigned char cancel_bits[] = {
   0xc0, 0x03, 0xf0, 0x0f, 0x78, 0x1e, 0x1c, 0x38, 0x0e, 0x7c, 0x06, 0x6e,
   0x07, 0xe7, 0x83, 0xc3, 0xc3, 0xc1, 0xe7, 0xe0, 0x76, 0x60, 0x3e, 0x78,
   0x1c, 0x38, 0x78, 0x3e, 0xf0, 0x0f, 0xc0, 0x03};
