#define car_width 16
#define car_height 16
static unsigned char car_bits[] = {
   0x00, 0x00, 0x00, 0x00, 0xf0, 0x00, 0xf8, 0x01, 0x2c, 0x03, 0x2c, 0x06,
   0x26, 0x0c, 0x26, 0x7c, 0xff, 0xff, 0xff, 0xff, 0xff, 0xff, 0xc1, 0x83,
   0xdd, 0xbb, 0xdc, 0x3b, 0x1c, 0x38, 0x00, 0x00};
