#define car2_width 16
#define car2_height 16
static unsigned char car2_bits[] = {
   0x00, 0x00, 0x00, 0x00, 0xf0, 0x0f, 0xf8, 0x1f, 0x18, 0x18, 0x08, 0x10,
   0x0e, 0x70, 0xfc, 0x3f, 0xfe, 0x7f, 0x1f, 0xf8, 0xf9, 0x9f, 0x19, 0x98,
   0xff, 0xff, 0x0e, 0x70, 0x0e, 0x70, 0x00, 0x00};
