#define check.xbm_width 16
#define check.xbm_height 16
static unsigned char check.xbm_bits[] = {
   0x00, 0xe0, 0x00, 0xe0, 0x00, 0xf0, 0x00, 0x70, 0x00, 0x78, 0x07, 0x38,
   0x07, 0x3c, 0x0f, 0x1c, 0x0e, 0x1e, 0x1c, 0x0e, 0x1c, 0x0f, 0x78, 0x07,
   0xf8, 0x07, 0xf0, 0x03, 0xf0, 0x03, 0xe0, 0x01};
