#define check_circle_width 16
#define check_circle_height 16
static unsigned char check_circle_bits[] = {
   0xc0, 0x03, 0xf0, 0x0f, 0x78, 0x1e, 0x1c, 0x38, 0x0e, 0x70, 0x06, 0x6c,
   0x07, 0xec, 0x1b, 0xce, 0x3b, 0xc6, 0x77, 0xe7, 0xe6, 0x63, 0xce, 0x73,
   0x9c, 0x39, 0x78, 0x1e, 0xf0, 0x0f, 0xc0, 0x03};
