#define checkerboard_width 16
#define checkerboard_height 16
static unsigned char checkerboard_bits[] = {
   0x33, 0x33, 0x33, 0x33, 0xcc, 0xcc, 0xcc, 0xcc, 0x33, 0x33, 0x33, 0x33,
   0xcc, 0xcc, 0xcc, 0xcc, 0x33, 0x33, 0x33, 0x33, 0xcc, 0xcc, 0xcc, 0xcc,
   0x33, 0x33, 0x33, 0x33, 0xcc, 0xcc, 0xcc, 0xcc};
