#define checkbox_width 16
#define checkbox_height 16
static unsigned char checkbox_bits[] = {
   0xff, 0xff, 0xff, 0xff, 0x03, 0xc0, 0x03, 0xd8, 0x03, 0xd8, 0x03, 0xdc,
   0x03, 0xcc, 0x1b, 0xce, 0x3b, 0xc6, 0x73, 0xc7, 0xe3, 0xc3, 0xc3, 0xc3,
   0x83, 0xc1, 0x03, 0xc0, 0xff, 0xff, 0xff, 0xff};
