#define chevrons_width 16
#define chevrons_height 16
static unsigned char chevrons_bits[] = {
   0x80, 0x01, 0xe0, 0x07, 0xf0, 0x0f, 0xf8, 0x1f, 0x7e, 0x7e, 0x1f, 0xf8,
   0x0f, 0xf0, 0x87, 0xe1, 0xe1, 0x87, 0xf0, 0x0f, 0xf8, 0x1f, 0x7e, 0x7e,
   0x1f, 0xf8, 0x0f, 0xf0, 0x07, 0xe0, 0x01, 0x80};
