#define focus_wedge_width 16
#define focus_wedge_height 16
static unsigned char focus_wedge_bits[] = {
   0xc0, 0x03, 0xf0, 0x0f, 0x78, 0x1e, 0x1c, 0x38, 0x0e, 0x70, 0xf6, 0x6f,
   0xe7, 0xe7, 0xe3, 0xc7, 0xc3, 0xc3, 0xc7, 0xe3, 0x86, 0x61, 0x8e, 0x71,
   0x1c, 0x38, 0x78, 0x1e, 0xf0, 0x0f, 0xc0, 0x03};
