#define circle_x_width 16
#define circle_x_height 16
static unsigned char circle_x_bits[] = {
   0xc0, 0x03, 0xf0, 0x0f, 0x78, 0x1e, 0x1c, 0x38, 0x3e, 0x7c, 0x76, 0x6e,
   0xe7, 0xe7, 0xc3, 0xc3, 0xc3, 0xc3, 0xe7, 0xe7, 0x76, 0x6e, 0x3e, 0x7c,
   0x1c, 0x38, 0x78, 0x1e, 0xf0, 0x0f, 0xc0, 0x03};
