#define circle_plus_width 16
#define circle_plus_height 16
static unsigned char circle_plus_bits[] = {
   0xc0, 0x03, 0xf0, 0x0f, 0xf8, 0x1f, 0x9c, 0x39, 0x8e, 0x71, 0x86, 0x61,
   0x87, 0xe1, 0xff, 0xff, 0xff, 0xff, 0x87, 0xe1, 0x86, 0x61, 0x8e, 0x71,
   0x9c, 0x39, 0xf8, 0x1f, 0xf0, 0x0f, 0xc0, 0x03};
