#define circle_triangle_width 16
#define circle_triangle_height 16
static unsigned char circle_triangle_bits[] = {
   0xc0, 0x03, 0xf0, 0x0f, 0x78, 0x1e, 0x1c, 0x38, 0x8e, 0x71, 0x86, 0x61,
   0xc7, 0xe3, 0xc3, 0xc3, 0xe3, 0xc7, 0xe7, 0xe7, 0xf6, 0x6f, 0x0e, 0x70,
   0x1c, 0x38, 0x78, 0x1e, 0xf0, 0x0f, 0xc0, 0x03};
