#define circle_width 16
#define circle_height 16
static unsigned char circle_bits[] = {
   0xc0, 0x03, 0xf0, 0x0f, 0x78, 0x1e, 0x1c, 0x38, 0x0e, 0x70, 0x06, 0x60,
   0x07, 0xe0, 0x03, 0xc0, 0x03, 0xc0, 0x07, 0xe0, 0x06, 0x60, 0x0e, 0x70,
   0x1c, 0x38, 0x78, 0x1e, 0xf0, 0x0f, 0xc0, 0x03};
