#define circle_stipple_width 16
#define circle_stipple_height 16
static unsigned char circle_stipple_bits[] = {
   0xc0, 0x03, 0xf0, 0x0f, 0x78, 0x1f, 0xbc, 0x3a, 0x5e, 0x75, 0xae, 0x6a,
   0x57, 0xf5, 0xab, 0xea, 0x57, 0xd5, 0xaf, 0xea, 0x56, 0x75, 0xae, 0x7a,
   0x5c, 0x3d, 0xf8, 0x1e, 0xf0, 0x0f, 0xc0, 0x03};
