#define columns_width 16
#define columns_height 16
static unsigned char columns_bits[] = {
   0x66, 0x66, 0x66, 0x66, 0x66, 0x66, 0x66, 0x66, 0x66, 0x66, 0x66, 0x66,
   0x66, 0x66, 0x66, 0x66, 0x66, 0x66, 0x66, 0x66, 0x66, 0x66, 0x66, 0x66,
   0x66, 0x66, 0x66, 0x66, 0x66, 0x66, 0x66, 0x66};
