#define contract_width 16
#define contract_height 16
static unsigned char contract_bits[] = {
   0x03, 0xc0, 0x07, 0xe0, 0x4e, 0x72, 0x5c, 0x3a, 0x78, 0x1e, 0x70, 0x0e,
   0x7c, 0x3e, 0x00, 0x00, 0x00, 0x00, 0x7c, 0x3e, 0x70, 0x0e, 0x78, 0x1e,
   0x5c, 0x3a, 0x4e, 0x72, 0x07, 0xe0, 0x03, 0xc0};
