#define darkeye_width 16
#define darkeye_height 16
static unsigned char darkeye_bits[] = {
   0x00, 0x00, 0x00, 0x00, 0xe0, 0x07, 0xf8, 0x1f, 0xfc, 0x3f, 0x7e, 0x7e,
   0x3e, 0x7c, 0x1f, 0xf8, 0x1f, 0xf8, 0x3e, 0x7c, 0x7e, 0x7e, 0xfc, 0x3f,
   0xf8, 0x1f, 0xe0, 0x07, 0x00, 0x00, 0x00, 0x00};
