#define deposition_width 16
#define deposition_height 16
static unsigned char deposition_bits[] = {
   0x55, 0xab, 0x00, 0x00, 0x6b, 0xdd, 0x00, 0x00, 0xf7, 0xee, 0x00, 0x00,
   0xbb, 0xbb, 0xff, 0xff, 0xff, 0xff, 0xff, 0xff, 0xff, 0xff, 0xff, 0xff,
   0xff, 0xff, 0xff, 0xff, 0xff, 0xff, 0xff, 0xff};
