#define dialog.xbm_width 16
#define dialog.xbm_height 16
static unsigned char dialog.xbm_bits[] = {
   0xff, 0xff, 0x07, 0x80, 0xe7, 0x9f, 0xe7, 0x9f, 0x07, 0x80, 0x07, 0x80,
   0xe7, 0x9f, 0xe7, 0x9f, 0x07, 0x80, 0x07, 0x80, 0xe3, 0x9f, 0xe1, 0x9f,
   0x00, 0x80, 0x0c, 0x80, 0xff, 0xff, 0xff, 0xff};
