#define donkey.xbm_width 16
#define donkey.xbm_height 16
static unsigned char donkey.xbm_bits[] = {
   0x00, 0x00, 0x0c, 0x00, 0x08, 0x00, 0x1b, 0x00, 0x7e, 0x3c, 0xfe, 0x7f,
   0xfa, 0xff, 0xff, 0xbf, 0xff, 0x9f, 0xef, 0x9f, 0xe6, 0xbf, 0x60, 0x3c,
   0x70, 0x6c, 0x30, 0x68, 0x30, 0x48, 0x30, 0x6c};
