#define E.xbm_width 16
#define E.xbm_height 16
static unsigned char E.xbm_bits[] = {
   0xfc, 0x3f, 0xfc, 0x3f, 0xfc, 0x3f, 0x1c, 0x00, 0x1c, 0x00, 0x1c, 0x00,
   0xfc, 0x03, 0xfc, 0x03, 0xfc, 0x03, 0x1c, 0x00, 0x1c, 0x00, 0x1c, 0x00,
   0x1c, 0x00, 0xfc, 0x3f, 0xfc, 0x3f, 0xfc, 0x3f};
