#define elephant_width 16
#define elephant_height 16
static unsigned char elephant_bits[] = {
   0x00, 0x1c, 0x00, 0x1f, 0xfe, 0x3f, 0xfe, 0x7f, 0xff, 0xff, 0xfd, 0xef,
   0xfd, 0xff, 0xfd, 0xff, 0xfd, 0xff, 0xfd, 0xf7, 0xfc, 0xc7, 0x3c, 0x83,
   0x1c, 0xa3, 0x1c, 0xb3, 0x9e, 0xf3, 0xbe, 0x67};
