#define expand_width 16
#define expand_height 16
static unsigned char expand_bits[] = {
   0x3f, 0xfc, 0x07, 0xe0, 0x0f, 0xf0, 0x1d, 0xb8, 0x39, 0x9c, 0x71, 0x8e,
   0x60, 0x06, 0x00, 0x00, 0x00, 0x00, 0x61, 0x06, 0x71, 0x8e, 0x39, 0x9c,
   0x1d, 0xb8, 0x0f, 0xf0, 0x07, 0xe0, 0x3f, 0xfc};
