#define eye_width 16
#define eye_height 16
static unsigned char eye_bits[] = {
   0x00, 0x00, 0x40, 0x02, 0x44, 0x22, 0x09, 0x90, 0xe2, 0x47, 0x38, 0x1c,
   0x8c, 0x31, 0xc6, 0x63, 0xc7, 0xe3, 0x86, 0x61, 0x0e, 0x70, 0x3c, 0x3c,
   0xf8, 0x1f, 0xe0, 0x07, 0x00, 0x00, 0x00, 0x00};
