#define fire_width 16
#define fire_height 16
static unsigned char fire_bits[] = {
   0x60, 0x00, 0xc0, 0x00, 0xc0, 0x21, 0xc2, 0x31, 0xe6, 0x73, 0xee, 0x73,
   0xfc, 0x77, 0xfc, 0xff, 0xfe, 0xff, 0xff, 0xff, 0xff, 0xff, 0xff, 0xff,
   0xfe, 0x7f, 0xfc, 0x7f, 0xf8, 0x1f, 0xe0, 0x0f};
