#define fish.xbm_width 16
#define fish.xbm_height 16
static unsigned char fish.xbm_bits[] = {
   0x00, 0x00, 0x00, 0x00, 0x00, 0x00, 0x00, 0x01, 0x00, 0x03, 0x01, 0x0f,
   0xe3, 0x7f, 0xf7, 0x78, 0x3e, 0xea, 0x9e, 0xfb, 0x73, 0x84, 0xc1, 0x63,
   0x01, 0x3e, 0x00, 0x18, 0x00, 0x18, 0x00, 0x08};
