#define flag2_width 16
#define flag2_height 16
static unsigned char flag2_bits[] = {
   0x00, 0x00, 0x00, 0x7f, 0xc0, 0x7f, 0xfe, 0x7f, 0xfe, 0x7f, 0xfe, 0x7f,
   0xfe, 0x7f, 0xfe, 0x7f, 0xfe, 0x7f, 0xfe, 0x7f, 0xfe, 0x7f, 0xfe, 0x60,
   0x7e, 0x60, 0x00, 0x60, 0x00, 0x60, 0x00, 0x60};
