#define flag_width 16
#define flag_height 16
static unsigned char flag_bits[] = {
   0x00, 0x00, 0xfe, 0x00, 0xfe, 0x03, 0xfe, 0x7f, 0xfe, 0x7f, 0xfe, 0x7f,
   0xfe, 0x7f, 0xfe, 0x7f, 0xfe, 0x7f, 0xfe, 0x7f, 0xfe, 0x7f, 0x06, 0x7f,
   0x06, 0x7e, 0x06, 0x00, 0x06, 0x00, 0x06, 0x00};
