#define four_arrows_width 16
#define four_arrows_height 16
static unsigned char four_arrows_bits[] = {
   0x80, 0x01, 0xc0, 0x03, 0xe0, 0x07, 0xa0, 0x05, 0x80, 0x01, 0x8c, 0x31,
   0x86, 0x61, 0xff, 0xff, 0xff, 0xff, 0x86, 0x61, 0x8c, 0x31, 0x80, 0x01,
   0xa0, 0x05, 0xe0, 0x07, 0xc0, 0x03, 0x80, 0x01};
