#define graph.xbm_width 16
#define graph.xbm_height 16
static unsigned char graph.xbm_bits[] = {
   0x04, 0x00, 0x04, 0x00, 0x05, 0x00, 0x04, 0x01, 0x85, 0x83, 0x84, 0xc6,
   0x85, 0x6c, 0xc4, 0x28, 0x45, 0x38, 0x64, 0x10, 0x25, 0x00, 0x14, 0x00,
   0x15, 0x00, 0xfc, 0xff, 0x00, 0x00, 0x50, 0x15};
