#define H.xbm_width 16
#define H.xbm_height 16
static unsigned char H.xbm_bits[] = {
   0x1c, 0x38, 0x1c, 0x38, 0x1c, 0x38, 0x1c, 0x38, 0x1c, 0x38, 0x1c, 0x38,
   0xfc, 0x3f, 0xfc, 0x3f, 0xfc, 0x3f, 0x1c, 0x38, 0x1c, 0x38, 0x1c, 0x38,
   0x1c, 0x38, 0x1c, 0x38, 0x1c, 0x38, 0x1c, 0x38};
