#define hand_width 16
#define hand_height 16
static unsigned char hand_bits[] = {
   0xc0, 0x00, 0xd8, 0x06, 0xd8, 0x06, 0xdb, 0x06, 0xdb, 0x06, 0xdb, 0x06,
   0xdb, 0x06, 0xdb, 0xc6, 0xff, 0xe7, 0xff, 0xf7, 0xff, 0x7f, 0xff, 0x3f,
   0xff, 0x3f, 0xff, 0x1f, 0xff, 0x0f, 0xfe, 0x0f};
