#define hash2.xbm_width 16
#define hash2.xbm_height 16
static unsigned char hash2.xbm_bits[] = {
   0xe0, 0x70, 0xe0, 0x70, 0x70, 0x38, 0xff, 0xff, 0xff, 0xff, 0xff, 0xff,
   0x38, 0x1c, 0x38, 0x1c, 0x1c, 0x0e, 0x1c, 0x0e, 0xff, 0xff, 0xff, 0xff,
   0xff, 0xff, 0x0e, 0x07, 0x87, 0x03, 0x87, 0x03};
