#define hourglass_width 16
#define hourglass_height 16
static unsigned char hourglass_bits[] = {
   0xff, 0xff, 0xff, 0xff, 0x0c, 0x30, 0x0c, 0x30, 0x18, 0x18, 0xf0, 0x0f,
   0xe0, 0x07, 0xc0, 0x03, 0xc0, 0x03, 0x60, 0x06, 0x30, 0x0c, 0x98, 0x19,
   0xcc, 0x33, 0xec, 0x37, 0xff, 0xff, 0xff, 0xff};
