#define house_width 16
#define house_height 16
static unsigned char house_bits[] = {
   0x80, 0x01, 0xc0, 0x33, 0x60, 0x36, 0xb0, 0x3d, 0xd8, 0x3b, 0xec, 0x37,
   0xf6, 0x6f, 0xfb, 0xdf, 0xfd, 0xbf, 0xfc, 0x3f, 0xfc, 0x3f, 0xfc, 0x3f,
   0x7c, 0x3e, 0x7c, 0x3e, 0x7c, 0x3e, 0x7c, 0x3e};
