#define I.xbm_width 16
#define I.xbm_height 16
static unsigned char I.xbm_bits[] = {
   0xe0, 0x03, 0xe0, 0x03, 0xc0, 0x01, 0xc0, 0x01, 0xc0, 0x01, 0xc0, 0x01,
   0xc0, 0x01, 0xc0, 0x01, 0xc0, 0x01, 0xc0, 0x01, 0xc0, 0x01, 0xc0, 0x01,
   0xc0, 0x01, 0xc0, 0x01, 0xe0, 0x03, 0xe0, 0x03};
