#define increase_width 16
#define increase_height 16
static unsigned char increase_bits[] = {
   0x00, 0x80, 0x00, 0x80, 0x00, 0x80, 0x00, 0x80, 0x00, 0xc0, 0x00, 0xc0,
   0x00, 0xe0, 0x00, 0xe0, 0x00, 0xf0, 0x00, 0xf8, 0x00, 0xfc, 0x00, 0xfe,
   0x80, 0xff, 0xe0, 0xff, 0xf8, 0xff, 0xff, 0xff};
