#define info_width 16
#define info_height 16
static unsigned char info_bits[] = {
   0xc0, 0x03, 0xf0, 0x0f, 0x78, 0x1e, 0x7c, 0x3e, 0xfe, 0x7f, 0xfe, 0x7f,
   0x3f, 0xfe, 0x7f, 0xfe, 0x7f, 0xfe, 0x7f, 0xfe, 0x7e, 0x7e, 0x7e, 0x7e,
   0x3c, 0x3c, 0xf8, 0x1f, 0xf0, 0x0f, 0xc0, 0x03};
