#define J.xbm_width 16
#define J.xbm_height 16
static unsigned char J.xbm_bits[] = {
   0x00, 0x3e, 0x00, 0x3e, 0x00, 0x1c, 0x00, 0x1c, 0x00, 0x1c, 0x00, 0x1c,
   0x00, 0x1c, 0x00, 0x1c, 0x00, 0x1c, 0x00, 0x1c, 0x1c, 0x1c, 0x1c, 0x1e,
   0x3c, 0x1f, 0xfc, 0x0f, 0xf8, 0x07, 0xe0, 0x03};
