#define K.xbm_width 16
#define K.xbm_height 16
static unsigned char K.xbm_bits[] = {
   0x1c, 0x38, 0x1c, 0x3c, 0x1c, 0x1e, 0x1c, 0x0f, 0x9c, 0x07, 0xfc, 0x03,
   0xfc, 0x01, 0xfc, 0x00, 0xfc, 0x00, 0xfc, 0x01, 0xdc, 0x03, 0x9c, 0x07,
   0x1c, 0x0f, 0x1c, 0x1e, 0x1c, 0x3c, 0x1c, 0x38};
