#define L.xbm_width 16
#define L.xbm_height 16
static unsigned char L.xbm_bits[] = {
   0x1c, 0x00, 0x1c, 0x00, 0x1c, 0x00, 0x1c, 0x00, 0x1c, 0x00, 0x1c, 0x00,
   0x1c, 0x00, 0x1c, 0x00, 0x1c, 0x00, 0x1c, 0x00, 0x1c, 0x00, 0x1c, 0x00,
   0x1c, 0x00, 0xfc, 0x3f, 0xfc, 0x3f, 0xfc, 0x3f};
