#define leaf_width 16
#define leaf_height 16
static unsigned char leaf_bits[] = {
   0x00, 0x00, 0xc0, 0xff, 0xf0, 0xfb, 0xf8, 0xdb, 0xdc, 0xcb, 0xdc, 0xe3,
   0xdc, 0xf9, 0xdc, 0xfc, 0x5c, 0xc0, 0x1c, 0xff, 0x9c, 0x7f, 0xcc, 0x7f,
   0xec, 0x3f, 0xe6, 0x1f, 0x03, 0x00, 0x01, 0x00};
