#define lightning2.xbm_width 16
#define lightning2.xbm_height 16
static unsigned char lightning2.xbm_bits[] = {
   0x80, 0xff, 0x80, 0x7f, 0xc0, 0x3f, 0xe0, 0x1f, 0xe0, 0x0f, 0xf0, 0x07,
   0xf8, 0x07, 0xfc, 0x1f, 0xc0, 0x3f, 0xc0, 0x0f, 0xe0, 0x03, 0xf0, 0x01,
   0x78, 0x00, 0x1c, 0x00, 0x0e, 0x00, 0x03, 0x00};
