#define lightning_width 16
#define lightning_height 16
static unsigned char Lightning_bits[] = {
   0x00, 0xc0, 0x00, 0x70, 0x00, 0x1c, 0x00, 0x07, 0x80, 0x03, 0xe0, 0x01,
   0xf0, 0x00, 0xf8, 0x03, 0xc0, 0x3f, 0x00, 0x1f, 0x80, 0x07, 0xc0, 0x01,
   0xe0, 0x00, 0x38, 0x00, 0x0e, 0x00, 0x03, 0x00};
