#define lightbulb_width 16
#define lightbulb_height 16
static unsigned char lightbulb_bits[] = {
   0xc1, 0x83, 0xf2, 0x4f, 0x78, 0x1e, 0x1c, 0x38, 0x0c, 0x30, 0x0c, 0x30,
   0x8d, 0xb0, 0x1c, 0x39, 0x98, 0x18, 0x38, 0x1d, 0x72, 0x4e, 0xe1, 0x87,
   0xe0, 0x07, 0xc0, 0x03, 0xc0, 0x03, 0xc0, 0x03};
