#define location_ptr_width 16
#define location_ptr_height 16
static unsigned char location_ptr_bits[] = {
   0x00, 0x80, 0x00, 0x60, 0x00, 0x78, 0x00, 0x3e, 0x80, 0x3f, 0xe0, 0x1f,
   0xf8, 0x1f, 0xfe, 0x0f, 0xff, 0x0f, 0x80, 0x07, 0x80, 0x07, 0x80, 0x03,
   0x80, 0x03, 0x80, 0x01, 0x80, 0x01, 0x80, 0x00};
