#define M.xbm_width 16
#define M.xbm_height 16
static unsigned char M.xbm_bits[] = {
   0x07, 0xe0, 0x0f, 0xf0, 0x1f, 0xf8, 0x1f, 0xf8, 0x3f, 0xfc, 0x7f, 0xfe,
   0xff, 0xff, 0xf7, 0xef, 0xe7, 0xe7, 0xc7, 0xe3, 0x87, 0xe1, 0x07, 0xe0,
   0x07, 0xe0, 0x07, 0xe0, 0x07, 0xe0, 0x07, 0xe0};
