#define mine_width 16
#define mine_height 16
static unsigned char mine_bits[] = {
   0xe0, 0xf1, 0x70, 0xf8, 0x3c, 0xfc, 0x1c, 0xf8, 0x3e, 0x7c, 0x77, 0x2e,
   0xe3, 0x07, 0xc1, 0x03, 0xc1, 0x03, 0xe0, 0x07, 0x70, 0x0e, 0x38, 0x1c,
   0x1c, 0x38, 0x0e, 0x70, 0x07, 0xe0, 0x03, 0xc0};
