#define N.xbm_width 16
#define N.xbm_height 16
static unsigned char N.xbm_bits[] = {
   0x1c, 0x70, 0x3c, 0x70, 0x7c, 0x70, 0x7c, 0x70, 0xfc, 0x70, 0xfc, 0x71,
   0xfc, 0x71, 0xfc, 0x73, 0xdc, 0x77, 0x9c, 0x7f, 0x1c, 0x7f, 0x1c, 0x7f,
   0x1c, 0x7e, 0x1c, 0x7c, 0x1c, 0x7c, 0x1c, 0x78};
