#define nested_boxes_width 16
#define nested_boxes_height 16
static unsigned char nested_boxes_bits[] = {
   0xff, 0xff, 0xff, 0xff, 0x03, 0xc0, 0x03, 0xc0, 0xf3, 0xcf, 0xf3, 0xcf,
   0x33, 0xcc, 0x33, 0xcc, 0x33, 0xcc, 0x33, 0xcc, 0xf3, 0xcf, 0xf3, 0xcf,
   0x03, 0xc0, 0x03, 0xc0, 0xff, 0xff, 0xff, 0xff};
