#define O_width 16
#define O_height 16
static unsigned char O_bits[] = {
   0xf0, 0x0f, 0xf8, 0x1f, 0xfc, 0x3f, 0x3e, 0x7c, 0x1e, 0x78, 0x0e, 0x70,
   0x0e, 0x70, 0x0e, 0x70, 0x0e, 0x70, 0x0e, 0x70, 0x0e, 0x70, 0x1e, 0x78,
   0x3e, 0x7c, 0xfc, 0x3f, 0xf8, 0x1f, 0xf0, 0x0f};
