#define pennant2_width 16
#define pennant2_height 16
static unsigned char pennant2_bits[] = {
   0x0e, 0x00, 0x3e, 0x00, 0xfe, 0x00, 0xfe, 0x03, 0xfe, 0x0f, 0xfe, 0x3f,
   0xfe, 0xff, 0xfe, 0x3f, 0xfe, 0x07, 0xfe, 0x00, 0x1e, 0x00, 0x06, 0x00,
   0x06, 0x00, 0x06, 0x00, 0x06, 0x00, 0x06, 0x00};
