#define pennant_width 16
#define pennant_height 16
static unsigned char pennant_bits[] = {
   0x00, 0x70, 0x00, 0x7c, 0x00, 0x7f, 0xc0, 0x7f, 0xf0, 0x7f, 0xfc, 0x7f,
   0xff, 0x7f, 0xfc, 0x7f, 0xe0, 0x7f, 0x00, 0x7f, 0x00, 0x78, 0x00, 0x60,
   0x00, 0x60, 0x00, 0x60, 0x00, 0x60, 0x00, 0x60};
