#define people_width 16
#define people_height 16
static unsigned char people_bits[] = {
   0x00, 0x00, 0x00, 0x00, 0x0c, 0x00, 0x1e, 0x00, 0x3f, 0x00, 0x3f, 0x00,
   0x1e, 0x06, 0x0c, 0x0f, 0xbf, 0x1f, 0xbf, 0x1f, 0x3f, 0x0f, 0x3f, 0x06,
   0xc0, 0x7f, 0xe0, 0xff, 0xf0, 0xff, 0xf0, 0xff};
