#define person3_width 16
#define person3_height 16
static unsigned char person3_bits[] = {
   0x80, 0x01, 0xc0, 0x03, 0xc0, 0x03, 0x80, 0x01, 0x00, 0x00, 0xe0, 0x07,
   0xf0, 0x0f, 0xf0, 0x0f, 0xf0, 0x0f, 0xf0, 0x0f, 0xf0, 0x0f, 0xc0, 0x03,
   0xc0, 0x03, 0xc0, 0x03, 0xc0, 0x03, 0xc0, 0x03};
