#define person_width 16
#define person_height 16
static unsigned char person_bits[] = {
   0x80, 0x01, 0xc0, 0x03, 0xc0, 0x03, 0x80, 0x01, 0xf0, 0x0f, 0xfc, 0x3f,
   0xfc, 0x3f, 0xfc, 0x3f, 0xec, 0x37, 0xec, 0x37, 0xec, 0x37, 0x60, 0x06,
   0x60, 0x06, 0x60, 0x06, 0x60, 0x06, 0x60, 0x06};
