#define phone_width 16
#define phone_height 16
static unsigned char phone_bits[] = {
   0x00, 0x7c, 0x00, 0xfc, 0x00, 0xfc, 0x00, 0xfc, 0x00, 0xf8, 0x00, 0xf0,
   0x00, 0xf0, 0x00, 0x78, 0x00, 0x78, 0x00, 0x7c, 0x0f, 0x3e, 0x9f, 0x3f,
   0xff, 0x1f, 0xff, 0x0f, 0xff, 0x03, 0x7e, 0x00};
