#define photo_width 16
#define photo_height 16
static unsigned char photo_bits[] = {
   0xff, 0xff, 0x01, 0x80, 0x01, 0x80, 0x01, 0x98, 0x01, 0x98, 0x01, 0x80,
   0x11, 0x80, 0x39, 0x80, 0x7d, 0x84, 0xfd, 0x8e, 0xfd, 0x9f, 0xfd, 0xbf,
   0xfd, 0xbf, 0xfd, 0xbf, 0x01, 0x80, 0xff, 0xff};
