#define picnic_width 16
#define picnic_height 16
static unsigned char picnic_bits[] = {
   0x00, 0x00, 0x00, 0x00, 0x00, 0x00, 0x00, 0x00, 0xfe, 0x7f, 0xfe, 0x7f,
   0x70, 0x0e, 0x30, 0x0c, 0x38, 0x1c, 0x38, 0x1c, 0xff, 0xff, 0xff, 0xff,
   0x06, 0x60, 0x06, 0x60, 0x03, 0xc0, 0x03, 0xc0};
