#define pointer_nw_width 16
#define pointer_nw_height 16
#define pointer_nw_x_hot 3
#define pointer_nw_y_hot 3
static unsigned char pointer_nw_bits[] = {
   0x00, 0x00, 0x00, 0x00, 0x00, 0x00, 0xf8, 0x07, 0xf8, 0x07, 0x78, 0x00,
   0xf8, 0x00, 0xd8, 0x01, 0x98, 0x03, 0x18, 0x07, 0x18, 0x0e, 0x00, 0x1c,
   0x00, 0x38, 0x00, 0x70, 0x00, 0xe0, 0x00, 0xc0};
