#define point_left_width 16
#define point_left_height 16
#define point_left_x_hot 0
#define point_left_y_hot 5
static unsigned char point_left_bits[] = {
   0x00, 0x03, 0x00, 0x0f, 0x00, 0x1e, 0x00, 0x7c, 0x00, 0xf8, 0xff, 0xff,
   0xff, 0xff, 0x00, 0xff, 0x80, 0xff, 0x80, 0xff, 0x00, 0xff, 0x80, 0xff,
   0x80, 0xff, 0x00, 0xff, 0x80, 0xff, 0x80, 0xff};
