#define point_up_width 16
#define point_up_height 16
#define point_up_x_hot 10
#define point_up_y_hot 0
static unsigned char point_up_bits[] = {
   0x00, 0x06, 0x00, 0x06, 0x00, 0x06, 0x00, 0x06, 0x00, 0x06, 0x00, 0x06,
   0x00, 0x06, 0xdb, 0x06, 0xff, 0xc7, 0xff, 0xe7, 0xff, 0x77, 0xff, 0x7f,
   0xff, 0x3f, 0xff, 0x1f, 0xff, 0x1f, 0xff, 0x0f};
