#define pointer_ne_width 16
#define pointer_ne_height 16
#define pointer_ne_x_hot 12
#define pointer_ne_y_hot 3
static unsigned char pointer_ne_bits[] = {
   0x00, 0x00, 0x00, 0x00, 0x00, 0x00, 0xe0, 0x1f, 0xe0, 0x1f, 0x00, 0x1e,
   0x00, 0x1f, 0x80, 0x1b, 0xc0, 0x19, 0xe0, 0x18, 0x70, 0x18, 0x38, 0x00,
   0x1c, 0x00, 0x0e, 0x00, 0x07, 0x00, 0x03, 0x00};
