#define pointer_se_width 16
#define pointer_se_height 16
#define pointer_se_x_hot 12
#define pointer_se_y_hot 12
static unsigned char pointer_se_bits[] = {
   0x03, 0x00, 0x07, 0x00, 0x0e, 0x00, 0x1c, 0x00, 0x38, 0x00, 0x70, 0x18,
   0xe0, 0x18, 0xc0, 0x19, 0x80, 0x1b, 0x00, 0x1f, 0x00, 0x1e, 0xe0, 0x1f,
   0xe0, 0x1f, 0x00, 0x00, 0x00, 0x00, 0x00, 0x00};
