#define pointer_sw_width 16
#define pointer_sw_height 16
#define pointer_sw_x_hot 3
#define pointer_sw_y_hot 12
static unsigned char pointer_sw_bits[] = {
   0x00, 0xc0, 0x00, 0xe0, 0x00, 0x70, 0x00, 0x38, 0x00, 0x1c, 0x18, 0x0e,
   0x18, 0x07, 0x98, 0x03, 0xd8, 0x01, 0xf8, 0x00, 0x78, 0x00, 0xf8, 0x07,
   0xf8, 0x07, 0x00, 0x00, 0x00, 0x00, 0x00, 0x00};
