#define point_down_width 16
#define point_down_height 16
#define point_down_x_hot 10
#define point_down_y_hot 15
static unsigned char point_down_bits[] = {
   0xff, 0x0f, 0xff, 0x1f, 0xff, 0x1f, 0xff, 0x3f, 0xff, 0x7f, 0xff, 0x77,
   0xff, 0xe7, 0xff, 0xc7, 0xdb, 0x06, 0x00, 0x06, 0x00, 0x06, 0x00, 0x06,
   0x00, 0x06, 0x00, 0x06, 0x00, 0x06, 0x00, 0x06};
