#define point_right_width 16
#define point_right_height 16
#define point_right_x_hot 15
#define point_right_y_hot 5
static unsigned char point_right_bits[] = {
   0xc0, 0x00, 0xf0, 0x00, 0x78, 0x00, 0x3e, 0x00, 0x1f, 0x00, 0xff, 0xff,
   0xff, 0xff, 0xff, 0x00, 0xff, 0x01, 0xff, 0x01, 0xff, 0x00, 0xff, 0x01,
   0xff, 0x01, 0xff, 0x00, 0xff, 0x01, 0xff, 0x01};
