#define puzzle_width 16
#define puzzle_height 16
static unsigned char puzzle_bits[] = {
   0x00, 0x03, 0x80, 0x07, 0x80, 0x07, 0xf8, 0xff, 0xf8, 0xff, 0xf8, 0xff,
   0xf8, 0xff, 0xfe, 0x3f, 0xff, 0x1f, 0xff, 0x1f, 0xfe, 0x3f, 0xf8, 0xff,
   0xf8, 0xff, 0xf8, 0xff, 0xf8, 0xff, 0xf8, 0xff};
