#define Q_width 16
#define Q_height 16
static unsigned char Q_bits[] = {
   0xf0, 0x0f, 0xf8, 0x1f, 0xfc, 0x3f, 0x3e, 0x7c, 0x1e, 0x78, 0x0e, 0x70,
   0x0e, 0x70, 0x0e, 0x70, 0x0e, 0x70, 0x0e, 0x70, 0x0e, 0x76, 0x1e, 0x7e,
   0x3c, 0x7c, 0xf8, 0x7f, 0xf8, 0xff, 0xf0, 0xef};
