#define q1_notch_width 16
#define q1_notch_height 16
static unsigned char q1_notch_bits[] = {
   0xff, 0x00, 0xff, 0x00, 0xff, 0x00, 0xff, 0x00, 0x0f, 0x00, 0x0f, 0x00,
   0x0f, 0x00, 0x0f, 0x00, 0x00, 0x00, 0x00, 0x00, 0x00, 0x00, 0x00, 0x00,
   0x00, 0x00, 0x00, 0x00, 0x00, 0x00, 0x00, 0x00};
