#define q3_width 16
#define q3_height 16
static unsigned char q3_bits[] = {
   0x00, 0x00, 0x00, 0x00, 0x00, 0x00, 0x00, 0x00, 0x00, 0x00, 0x00, 0x00,
   0x00, 0x00, 0x00, 0x00, 0x00, 0xff, 0x00, 0xff, 0x00, 0xff, 0x00, 0xff,
   0x00, 0xff, 0x00, 0xff, 0x00, 0xff, 0x00, 0xff};
