#define q3_notch_width 16
#define q3_notch_height 16
static unsigned char q3_notch_bits[] = {
   0x00, 0x00, 0x00, 0x00, 0x00, 0x00, 0x00, 0x00, 0x00, 0x00, 0x00, 0x00,
   0x00, 0x00, 0x00, 0x00, 0x00, 0xf0, 0x00, 0xf0, 0x00, 0xf0, 0x00, 0xf0,
   0x00, 0xff, 0x00, 0xff, 0x00, 0xff, 0x00, 0xff};
