#define q4_width 16
#define q4_height 16
static unsigned char q4_bits[] = {
   0x00, 0x00, 0x00, 0x00, 0x00, 0x00, 0x00, 0x00, 0x00, 0x00, 0x00, 0x00,
   0x00, 0x00, 0x00, 0x00, 0xff, 0x00, 0xff, 0x00, 0xff, 0x00, 0xff, 0x00,
   0xff, 0x00, 0xff, 0x00, 0xff, 0x00, 0xff, 0x00};
