#define qmark_circle2_width 16
#define qmark_circle2_height 16
static unsigned char qmark_circle2_bits[] = {
   0x3f, 0xfc, 0x8f, 0xf1, 0xe7, 0xe7, 0x33, 0xcc, 0x19, 0x98, 0x8d, 0xb1,
   0xcc, 0x33, 0xfe, 0x78, 0x7e, 0x7c, 0x7c, 0x3e, 0xfd, 0xbf, 0x79, 0x9e,
   0x73, 0xce, 0xc7, 0xe7, 0x8f, 0xf1, 0x3f, 0xfc};
