#define qmark_circle_width 16
#define qmark_circle_height 16
static unsigned char qmark_circle_bits[] = {
   0xc0, 0x03, 0x70, 0x0e, 0x18, 0x18, 0xcc, 0x33, 0xe6, 0x67, 0x72, 0x4e,
   0x33, 0xcc, 0x01, 0x87, 0x81, 0x83, 0x83, 0xc1, 0x02, 0x40, 0x86, 0x61,
   0x8c, 0x31, 0x38, 0x18, 0x70, 0x0e, 0xc0, 0x03};
