#define R_width 16
#define R_height 16
static unsigned char R_bits[] = {
   0xfc, 0x0f, 0xfc, 0x1f, 0xfc, 0x1f, 0x1c, 0x3c, 0x1c, 0x38, 0x1c, 0x38,
   0x1c, 0x3c, 0xfc, 0x1f, 0xfc, 0x1f, 0xfc, 0x0f, 0x1c, 0x07, 0x1c, 0x0e,
   0x1c, 0x0e, 0x1c, 0x1c, 0x1c, 0x1c, 0x1c, 0x38};
