#define raincloud_width 16
#define raincloud_height 16
static unsigned char raincloud_bits[] = {
   0x00, 0x00, 0xe0, 0x03, 0xf0, 0x07, 0xf8, 0x0f, 0xf8, 0x1f, 0xfe, 0x1f,
   0xff, 0x7f, 0xff, 0xff, 0xff, 0xff, 0xff, 0xff, 0xfe, 0xff, 0xfc, 0x7f,
   0x98, 0x19, 0x88, 0x08, 0xcc, 0x0c, 0x44, 0x04};
