#define right_width 16
#define right_height 16
static unsigned char right_bits[] = {
   0x80, 0x01, 0x80, 0x03, 0x80, 0x07, 0x80, 0x0f, 0x80, 0x1f, 0x80, 0x3f,
   0xff, 0x7f, 0xff, 0xff, 0xff, 0xff, 0xff, 0x7f, 0x80, 0x3f, 0x80, 0x1f,
   0x80, 0x0f, 0x80, 0x07, 0x80, 0x03, 0x80, 0x01};
