#define rocket2_width 16
#define rocket2_height 16
static unsigned char rocket2_bits[] = {
   0xff, 0xff, 0xff, 0x87, 0xff, 0x81, 0xff, 0x80, 0x7f, 0x88, 0x7f, 0xc0,
   0x3f, 0xc2, 0x1f, 0xe0, 0x83, 0xf0, 0x01, 0xfc, 0x0d, 0xfe, 0x07, 0xff,
   0x2f, 0xff, 0x3f, 0xff, 0x9f, 0xff, 0xff, 0xff};
