#define rocket_width 16
#define rocket_height 16
static unsigned char rocket_bits[] = {
   0x00, 0xe0, 0x00, 0xf8, 0x00, 0xfe, 0x00, 0x7b, 0x80, 0x77, 0x80, 0x2f,
   0xc0, 0x3f, 0xc0, 0x1f, 0xfc, 0x0f, 0xfe, 0x03, 0xf3, 0x00, 0xf9, 0x00,
   0xd8, 0x00, 0xc0, 0x00, 0x60, 0x00, 0x30, 0x00};
