#define rows_width 16
#define rows_height 16
static unsigned char rows_bits[] = {
   0x00, 0x00, 0xff, 0xff, 0xff, 0xff, 0x00, 0x00, 0x00, 0x00, 0xff, 0xff,
   0xff, 0xff, 0x00, 0x00, 0x00, 0x00, 0xff, 0xff, 0xff, 0xff, 0x00, 0x00,
   0x00, 0x00, 0xff, 0xff, 0xff, 0xff, 0x00, 0x00};
