#define S.xbm_width 16
#define S.xbm_height 16
static unsigned char S.xbm_bits[] = {
   0xc0, 0x03, 0xf0, 0x0f, 0x38, 0x1c, 0x1c, 0x38, 0x1c, 0x30, 0x38, 0x00,
   0xf8, 0x00, 0xf0, 0x07, 0xc0, 0x0f, 0x00, 0x1e, 0x00, 0x18, 0x0c, 0x38,
   0x1c, 0x38, 0x38, 0x1c, 0xf0, 0x0f, 0xc0, 0x03};
