#define scales_width 16
#define scales_height 16
static unsigned char scales_bits[] = {
   0x88, 0x88, 0xcc, 0xcc, 0xee, 0xee, 0xff, 0xff, 0x88, 0x88, 0xcc, 0xcc,
   0xee, 0xee, 0xff, 0xff, 0x88, 0x88, 0xcc, 0xcc, 0xee, 0xee, 0xff, 0xff,
   0x88, 0x88, 0xcc, 0xcc, 0xee, 0xee, 0xff, 0xff};
