#define search_width 16
#define search_height 16
static unsigned char search_bits[] = {
   0xf8, 0x01, 0xfe, 0x03, 0x8e, 0x03, 0x07, 0x07, 0x03, 0x06, 0x03, 0x06,
   0x03, 0x06, 0x07, 0x07, 0x8e, 0x03, 0xfe, 0x07, 0xf8, 0x0e, 0x00, 0x1c,
   0x00, 0x38, 0x00, 0x70, 0x00, 0xe0, 0x00, 0xc0};
