#define search2_width 16
#define search2_height 16
static unsigned char search2_bits[] = {
   0x07, 0xfe, 0x01, 0xfc, 0x71, 0xfc, 0xf8, 0xf8, 0xfc, 0xf9, 0xfc, 0xf9,
   0xfc, 0xf9, 0xf8, 0xf8, 0x71, 0xfc, 0x01, 0xf8, 0x07, 0xf1, 0xff, 0xe3,
   0xff, 0xc7, 0xff, 0x8f, 0xff, 0x1f, 0xff, 0x3f};
