#define skull_width 16
#define skull_height 16
static unsigned char skull_bits[] = {
   0xe0, 0x07, 0xf8, 0x1f, 0xfc, 0x3f, 0xfc, 0x3f, 0xfe, 0x7f, 0xfe, 0x7f,
   0x8e, 0x71, 0x8e, 0x71, 0x8f, 0xf1, 0xff, 0xff, 0xff, 0xff, 0x7e, 0x7e,
   0x38, 0x1c, 0xf0, 0x0f, 0xf0, 0x0f, 0x50, 0x0b};
