#define square_width 16
#define square_height 16
static unsigned char square_bits[] = {
   0xff, 0xff, 0xff, 0xff, 0xff, 0xff, 0x07, 0xe0, 0x07, 0xe0, 0x07, 0xe0,
   0x07, 0xe0, 0x07, 0xe0, 0x07, 0xe0, 0x07, 0xe0, 0x07, 0xe0, 0x07, 0xe0,
   0x07, 0xe0, 0xff, 0xff, 0xff, 0xff, 0xff, 0xff};
