#define star_width 16
#define star_height 16
static unsigned char star_bits[] = {
   0x80, 0x01, 0x80, 0x01, 0xc0, 0x03, 0xc0, 0x03, 0xc0, 0x03, 0xe0, 0x07,
   0xff, 0xff, 0xff, 0xff, 0xfc, 0x3f, 0xf0, 0x0f, 0xf8, 0x1f, 0xf8, 0x1f,
   0x7c, 0x3e, 0x3c, 0x3c, 0x0e, 0x70, 0x06, 0x60};
