#define stop_width 16
#define stop_height 16
static unsigned char stop_bits[] = {
   0xf0, 0x0f, 0xf8, 0x1f, 0xfc, 0x3f, 0xfe, 0x7f, 0xff, 0xff, 0x11, 0xcd,
   0xbd, 0xaa, 0xb1, 0xca, 0xb7, 0xea, 0xb1, 0xed, 0xff, 0xff, 0xff, 0xff,
   0xfe, 0x7f, 0xfc, 0x3f, 0xf0, 0x1f, 0xe0, 0x0f};
