#define surprise_circle_width 16
#define surprise_circle_height 16
static unsigned char surprise_circle_bits[] = {
   0xc0, 0x03, 0xf0, 0x0f, 0x78, 0x1e, 0x9c, 0x39, 0xce, 0x73, 0xc6, 0x63,
   0xc7, 0xe3, 0xc3, 0xc3, 0x83, 0xc1, 0x87, 0xe1, 0x06, 0x60, 0x8e, 0x71,
   0x9c, 0x39, 0x78, 0x1e, 0xf0, 0x0f, 0xc0, 0x03};
