#define swamp_width 16
#define swamp_height 16
static unsigned char swamp_bits[] = {
   0x00, 0x00, 0x00, 0x00, 0x00, 0x00, 0x00, 0x01, 0x00, 0x01, 0x00, 0x09,
   0x20, 0x09, 0x20, 0x29, 0x24, 0x29, 0x24, 0x2f, 0xe4, 0x3f, 0xfd, 0xbc,
   0x1d, 0xf0, 0x87, 0xc7, 0xf3, 0x9f, 0xf9, 0xbf};
