#define T.xbm_width 16
#define T.xbm_height 16
static unsigned char T.xbm_bits[] = {
   0xff, 0x7f, 0xff, 0x7f, 0xff, 0x7f, 0xc0, 0x01, 0xc0, 0x01, 0xc0, 0x01,
   0xc0, 0x01, 0xc0, 0x01, 0xc0, 0x01, 0xc0, 0x01, 0xc0, 0x01, 0xc0, 0x01,
   0xc0, 0x01, 0xc0, 0x01, 0xc0, 0x01, 0xc0, 0x01};
