#define target2_width 16
#define target2_height 16
static unsigned char target2_bits[] = {
   0x3f, 0xfc, 0x0f, 0xf0, 0x87, 0xe1, 0xe3, 0xc7, 0xf1, 0x8f, 0x79, 0x9e,
   0x38, 0x1c, 0x1c, 0x38, 0x1c, 0x38, 0x38, 0x1c, 0x79, 0x9e, 0xf1, 0x8f,
   0xe3, 0xc7, 0x87, 0xe1, 0x0f, 0xf0, 0x3f, 0xfc};
