#define target_width 16
#define target_height 16
static unsigned char target_bits[] = {
   0xc0, 0x03, 0xf0, 0x0f, 0x78, 0x1e, 0x1c, 0x38, 0x0e, 0x70, 0x86, 0x61,
   0xc7, 0xe3, 0xe3, 0xc7, 0xe3, 0xc7, 0xc7, 0xe3, 0x86, 0x61, 0x0e, 0x70,
   0x1c, 0x38, 0x78, 0x1e, 0xf0, 0x0f, 0xc0, 0x03};
