#define ten_width 16
#define ten_height 16
static unsigned char ten_bits[] = {
   0x1c, 0x0c, 0x1e, 0x1e, 0x1f, 0x3f, 0x9f, 0x73, 0x9c, 0x73, 0xdc, 0xe1,
   0xdc, 0xe1, 0xdc, 0xc0, 0xdc, 0xc0, 0xdc, 0xe1, 0xdc, 0xe1, 0x9c, 0x73,
   0x9c, 0x73, 0x1c, 0x3f, 0x7f, 0x1e, 0x7f, 0x0c};
