#define trash_width 16
#define trash_height 16
static unsigned char trash_bits[] = {
   0xf0, 0x0f, 0xff, 0xff, 0xff, 0xff, 0x06, 0x60, 0x66, 0x66, 0x66, 0x66,
   0x66, 0x66, 0x66, 0x66, 0x66, 0x66, 0x66, 0x66, 0x66, 0x66, 0x66, 0x66,
   0x66, 0x66, 0x06, 0x60, 0xfe, 0x7f, 0xfc, 0x3f};
