#define tree2.xbm_width 16
#define tree2.xbm_height 16
static unsigned char tree2.xbm_bits[] = {
   0x00, 0x01, 0x80, 0x03, 0xc0, 0x07, 0xf0, 0x0f, 0xfc, 0x3f, 0xe0, 0x07,
   0xf0, 0x0f, 0xf8, 0x0f, 0xfc, 0x1f, 0xfe, 0x7f, 0xf0, 0x0f, 0xfc, 0x3f,
   0xff, 0xff, 0xe0, 0x03, 0xf0, 0x03, 0xfc, 0x0f};
