#define tree3_width 16
#define tree3_height 16
static unsigned char tree3_bits[] = {
   0x00, 0x00, 0x00, 0x1c, 0x38, 0x3e, 0x7c, 0x67, 0xc6, 0x07, 0xe0, 0x0f,
   0x70, 0x1f, 0x30, 0x3b, 0x18, 0x33, 0x88, 0x23, 0x80, 0x03, 0x80, 0x01,
   0xc0, 0x01, 0xc0, 0x01, 0xe0, 0x00, 0xf8, 0x00};
