#define tree_width 16
#define tree_height 16
static unsigned char tree_bits[] = {
   0xf8, 0x00, 0xa8, 0x37, 0x7c, 0x7d, 0xef, 0x4a, 0x37, 0xf5, 0xdf, 0xaf,
   0xbe, 0xdb, 0xfc, 0x7f, 0xb0, 0x77, 0xc0, 0x7b, 0xc0, 0x1f, 0xc0, 0x03,
   0xc0, 0x07, 0xc0, 0x07, 0xe0, 0x0f, 0xfc, 0x0f};
