#define triangle_open_width 16
#define triangle_open_height 16
static unsigned char triangle_open_bits[] = {
   0x80, 0x01, 0x80, 0x01, 0xc0, 0x03, 0xc0, 0x03, 0xe0, 0x07, 0xe0, 0x07,
   0x70, 0x0e, 0x70, 0x0e, 0x38, 0x1c, 0x38, 0x1c, 0x1c, 0x38, 0x1c, 0x38,
   0x0e, 0x70, 0xfe, 0x7f, 0xff, 0xff, 0xff, 0xff};
