#define U.xbm_width 16
#define U.xbm_height 16
static unsigned char U.xbm_bits[] = {
   0x0e, 0x70, 0x0e, 0x70, 0x0e, 0x70, 0x0e, 0x70, 0x0e, 0x70, 0x0e, 0x70,
   0x0e, 0x70, 0x0e, 0x70, 0x0e, 0x70, 0x0e, 0x70, 0x0e, 0x70, 0x1c, 0x38,
   0x3c, 0x3c, 0xf8, 0x1f, 0xf0, 0x0f, 0xc0, 0x03};
