#define V.xbm_width 16
#define V.xbm_height 16
static unsigned char V.xbm_bits[] = {
   0x07, 0xe0, 0x07, 0xe0, 0x0e, 0x70, 0x0e, 0x70, 0x1c, 0x38, 0x1c, 0x38,
   0x38, 0x1c, 0x38, 0x1c, 0x70, 0x0e, 0x70, 0x0e, 0xe0, 0x07, 0xe0, 0x07,
   0xc0, 0x03, 0xc0, 0x03, 0x80, 0x01, 0x80, 0x01};
