#define vapor_width 16
#define vapor_height 16
static unsigned char vapor_bits[] = {
   0x20, 0x01, 0x30, 0x03, 0xcc, 0x4c, 0xc4, 0xcc, 0x13, 0x32, 0x31, 0x23,
   0xc8, 0x8c, 0x4c, 0xc4, 0x11, 0x22, 0x33, 0x33, 0xc4, 0xc4, 0x4c, 0x4c,
   0x32, 0x33, 0x20, 0x23, 0xc8, 0x0c, 0x80, 0x04};
