#define W.xbm_width 16
#define W.xbm_height 16
static unsigned char W.xbm_bits[] = {
   0x07, 0xe0, 0x07, 0xe0, 0x07, 0xe0, 0x07, 0xe0, 0x07, 0xe0, 0x07, 0xe0,
   0x07, 0xe0, 0x87, 0xe1, 0xc7, 0xe3, 0xc7, 0xe3, 0xee, 0x77, 0xfe, 0x7f,
   0x7e, 0x7e, 0x3c, 0x3c, 0x3c, 0x3c, 0x18, 0x18};
