#define warning_width 16
#define warning_height 16
static unsigned char warning_bits[] = {
   0x80, 0x01, 0xc0, 0x03, 0xe0, 0x07, 0xe0, 0x07, 0x70, 0x0e, 0x70, 0x0e,
   0x78, 0x1e, 0x78, 0x1e, 0x7c, 0x3e, 0x7c, 0x3e, 0xfe, 0x7f, 0xfe, 0x7f,
   0x7f, 0xfe, 0x7f, 0xfe, 0xff, 0xff, 0xfe, 0x7f};
