#define wave3_width 16
#define wave3_height 16
static unsigned char wave3_bits[] = {
   0x7f, 0xfe, 0x3f, 0xfc, 0x9e, 0x79, 0xcc, 0x33, 0xe1, 0x87, 0x73, 0xce,
   0x3f, 0xfc, 0x9e, 0x79, 0xcc, 0x33, 0xe1, 0x87, 0x73, 0xce, 0x3f, 0xfc,
   0x9e, 0x79, 0xcc, 0x33, 0xe1, 0x87, 0xf3, 0xcf};
