#define wave_width 16
#define wave_height 16
static unsigned char wave_bits[] = {
   0x00, 0x00, 0x70, 0x00, 0xf8, 0x00, 0xce, 0x00, 0x83, 0x01, 0x00, 0xc3,
   0x00, 0xe6, 0x70, 0x3e, 0xf8, 0x1c, 0xce, 0x00, 0x83, 0x01, 0x00, 0xc3,
   0x00, 0xe6, 0x00, 0x3e, 0x00, 0x1c, 0x00, 0x00};
