#define wave2_width 16
#define wave2_height 16
static unsigned char wave2_bits[] = {
   0x80, 0x01, 0xc0, 0x03, 0x61, 0x86, 0x33, 0xcc, 0x1e, 0x78, 0x8c, 0x31,
   0xc0, 0x03, 0x61, 0x86, 0x33, 0xcc, 0x1e, 0x78, 0x8c, 0x31, 0xc0, 0x03,
   0x61, 0x86, 0x33, 0xcc, 0x1e, 0x78, 0x0c, 0x30};
