#define weather.xbm_width 16
#define weather.xbm_height 16
static unsigned char weather.xbm_bits[] = {
   0x40, 0x00, 0x08, 0x02, 0xe0, 0x00, 0xf2, 0x09, 0xf8, 0x03, 0xfc, 0x07,
   0xfd, 0x17, 0xfc, 0x07, 0x38, 0x00, 0xd2, 0x07, 0xe0, 0x07, 0xf0, 0x1f,
   0xf0, 0x1f, 0xfc, 0x7f, 0xfe, 0xff, 0xfe, 0xff};
