#define wedges_3_width 16
#define wedges_3_height 16
static unsigned char wedges_3_bits[] = {
   0xff, 0x01, 0xfe, 0x00, 0x7c, 0x00, 0x38, 0x00, 0x10, 0x00, 0x00, 0x00,
   0x80, 0xff, 0x00, 0x7f, 0x00, 0x3e, 0x00, 0x1c, 0x00, 0x08, 0xff, 0x01,
   0xfe, 0x00, 0x7c, 0x00, 0x38, 0x00, 0x10, 0x00};
