#define well_width 16
#define well_height 16
static unsigned char well_bits[] = {
   0x80, 0x01, 0xe0, 0x07, 0xf0, 0x0f, 0xf8, 0x1f, 0xfe, 0x7f, 0xdf, 0xfb,
   0xc7, 0xe3, 0xc1, 0x83, 0xc0, 0x03, 0xc0, 0x03, 0xfc, 0x3f, 0xfc, 0x3f,
   0xfc, 0x3f, 0xfc, 0x3f, 0xfc, 0x3f, 0xfc, 0x3f};
