#define whale2_width 16
#define whale2_height 16
static unsigned char whale2_bits[] = {
   0x21, 0x00, 0x3b, 0x00, 0x3f, 0x00, 0x1e, 0x0f, 0xcc, 0x3f, 0xec, 0xff,
   0xec, 0xff, 0xfc, 0xff, 0xfc, 0xff, 0xfc, 0xff, 0xfc, 0xef, 0xfc, 0xff,
   0xf8, 0xff, 0xf0, 0x03, 0xe0, 0xff, 0x00, 0x00};
