#define whale.xbm_width 16
#define whale.xbm_height 16
static unsigned char whale.xbm_bits[] = {
   0x18, 0x00, 0x18, 0x00, 0x18, 0x00, 0x3f, 0x00, 0xf7, 0x00, 0xe0, 0x0f,
   0xc0, 0x0f, 0x80, 0x1f, 0x80, 0x3f, 0x00, 0x3f, 0x00, 0x7e, 0x30, 0x7c,
   0xf0, 0x6f, 0xc0, 0xdf, 0x00, 0xb0, 0x10, 0xe0};
