#define wheelchair_width 16
#define wheelchair_height 16
static unsigned char wheelchair_bits[] = {
   0x30, 0x00, 0x78, 0x00, 0x78, 0x00, 0x78, 0x00, 0x30, 0x00, 0x77, 0x1f,
   0x76, 0x1f, 0xf6, 0x06, 0xf3, 0x07, 0xf3, 0x3f, 0x03, 0x3f, 0x03, 0x36,
   0x07, 0x77, 0x06, 0x63, 0xfe, 0xe3, 0xf8, 0xe0};
