#define Z.xbm_width 16
#define Z.xbm_height 16
static unsigned char Z.xbm_bits[] = {
   0xff, 0xff, 0xff, 0xff, 0xff, 0xff, 0x00, 0x78, 0x00, 0x3c, 0x00, 0x1f,
   0x80, 0x0f, 0xc0, 0x07, 0xe0, 0x03, 0xf0, 0x01, 0xf8, 0x00, 0x3c, 0x00,
   0x1e, 0x00, 0xff, 0xff, 0xff, 0xff, 0xff, 0xff};
