#define zigzags2_width 16
#define zigzags2_height 16
static unsigned char zigzags2_bits[] = {
   0xef, 0xfb, 0xd7, 0x75, 0xba, 0xae, 0x7d, 0xdf, 0xef, 0xfb, 0xd7, 0x75,
   0xba, 0xae, 0x7d, 0xdf, 0xef, 0xfb, 0xd7, 0x75, 0xba, 0xae, 0x7d, 0xdf,
   0xef, 0xfb, 0xd7, 0x75, 0xba, 0xae, 0x7d, 0xdf};
