#define zigzags_width 16
#define zigzags_height 16
static unsigned char zigzags_bits[] = {
   0x10, 0x04, 0x28, 0x8a, 0x45, 0x51, 0x82, 0x20, 0x10, 0x04, 0x28, 0x8a,
   0x45, 0x51, 0x82, 0x20, 0x10, 0x04, 0x28, 0x8a, 0x45, 0x51, 0x82, 0x20,
   0x10, 0x04, 0x28, 0x8a, 0x45, 0x51, 0x82, 0x20};
