solid 
facet normal -0 0 1
 outer loop
  vertex -0.100000024 -0.100000024 0.100000024
  vertex 0.100000024 0.100000024 0.100000024
  vertex -0.100000024 0.100000024 0.100000024
 endloop
endfacet
facet normal 1 0 -0
 outer loop
  vertex 0.100000024 0.100000024 0.100000024
  vertex 0.100000024 -0.100000024 -0.100000024
  vertex 0.100000024 0.100000024 -0.100000024
 endloop
endfacet
facet normal 0 -1 0
 outer loop
  vertex 0.100000024 -0.100000024 0.100000024
  vertex -0.100000024 -0.100000024 -0.100000024
  vertex 0.100000024 -0.100000024 -0.100000024
 endloop
endfacet
facet normal 0 0 -1
 outer loop
  vertex -0.100000024 0.100000024 -0.100000024
  vertex 0.100000024 -0.100000024 -0.100000024
  vertex -0.100000024 -0.100000024 -0.100000024
 endloop
endfacet
facet normal 0 1 -0
 outer loop
  vertex -0.100000024 0.100000024 0.100000024
  vertex 0.100000024 0.100000024 -0.100000024
  vertex -0.100000024 0.100000024 -0.100000024
 endloop
endfacet
facet normal -1 0 0
 outer loop
  vertex -0.100000024 -0.100000024 0.100000024
  vertex -0.100000024 0.100000024 -0.100000024
  vertex -0.100000024 -0.100000024 -0.100000024
 endloop
endfacet
facet normal 0 0 1
 outer loop
  vertex -0.100000024 -0.100000024 0.100000024
  vertex 0.100000024 -0.100000024 0.100000024
  vertex 0.100000024 0.100000024 0.100000024
 endloop
endfacet
facet normal 1 0 0
 outer loop
  vertex 0.100000024 0.100000024 0.100000024
  vertex 0.100000024 -0.100000024 0.100000024
  vertex 0.100000024 -0.100000024 -0.100000024
 endloop
endfacet
facet normal 0 -1 0
 outer loop
  vertex 0.100000024 -0.100000024 0.100000024
  vertex -0.100000024 -0.100000024 0.100000024
  vertex -0.100000024 -0.100000024 -0.100000024
 endloop
endfacet
facet normal 0 0 -1
 outer loop
  vertex -0.100000024 0.100000024 -0.100000024
  vertex 0.100000024 0.100000024 -0.100000024
  vertex 0.100000024 -0.100000024 -0.100000024
 endloop
endfacet
facet normal 0 1 -0
 outer loop
  vertex -0.100000024 0.100000024 0.100000024
  vertex 0.100000024 0.100000024 0.100000024
  vertex 0.100000024 0.100000024 -0.100000024
 endloop
endfacet
facet normal -1 0 0
 outer loop
  vertex -0.100000024 -0.100000024 0.100000024
  vertex -0.100000024 0.100000024 0.100000024
  vertex -0.100000024 0.100000024 -0.100000024
 endloop
endfacet
endsolid 
