solid 
facet normal 0 -1 0
 outer loop
  vertex 2 -2 0.39999962
  vertex -2 -2 -0.39999962
  vertex 2 -2 -0.39999962
 endloop
endfacet
facet normal -1 0 0
 outer loop
  vertex -2 -2 0.39999962
  vertex -2 2 -0.39999962
  vertex -2 -2 -0.39999962
 endloop
endfacet
facet normal 0 1 -0
 outer loop
  vertex -2 2 0.39999962
  vertex 2 2 -0.39999962
  vertex -2 2 -0.39999962
 endloop
endfacet
facet normal 1 0 -0
 outer loop
  vertex 2 2 0.39999962
  vertex 2 -2 -0.39999962
  vertex 2 2 -0.39999962
 endloop
endfacet
facet normal 0 0 -1
 outer loop
  vertex -2 2 -0.39999962
  vertex 2 -2 -0.39999962
  vertex -2 -2 -0.39999962
 endloop
endfacet
facet normal -0 0 1
 outer loop
  vertex -2 -2 0.39999962
  vertex 2 2 0.39999962
  vertex -2 2 0.39999962
 endloop
endfacet
facet normal 0 -1 0
 outer loop
  vertex 2 -2 0.39999962
  vertex -2 -2 0.39999962
  vertex -2 -2 -0.39999962
 endloop
endfacet
facet normal -1 0 0
 outer loop
  vertex -2 -2 0.39999962
  vertex -2 2 0.39999962
  vertex -2 2 -0.39999962
 endloop
endfacet
facet normal 0 1 -0
 outer loop
  vertex -2 2 0.39999962
  vertex 2 2 0.39999962
  vertex 2 2 -0.39999962
 endloop
endfacet
facet normal 1 0 0
 outer loop
  vertex 2 2 0.39999962
  vertex 2 -2 0.39999962
  vertex 2 -2 -0.39999962
 endloop
endfacet
facet normal 0 0 -1
 outer loop
  vertex -2 2 -0.39999962
  vertex 2 2 -0.39999962
  vertex 2 -2 -0.39999962
 endloop
endfacet
facet normal 0 0 1
 outer loop
  vertex -2 -2 0.39999962
  vertex 2 -2 0.39999962
  vertex 2 2 0.39999962
 endloop
endfacet
endsolid 
