<?xml version="1.0" encoding="UTF-8" standalone="no"?>
<svg
   xmlns:osb="http://www.openswatchbook.org/uri/2009/osb"
   xmlns:dc="http://purl.org/dc/elements/1.1/"
   xmlns:cc="http://creativecommons.org/ns#"
   xmlns:rdf="http://www.w3.org/1999/02/22-rdf-syntax-ns#"
   xmlns:svg="http://www.w3.org/2000/svg"
   xmlns="http://www.w3.org/2000/svg"
   xmlns:xlink="http://www.w3.org/1999/xlink"
   xmlns:sodipodi="http://sodipodi.sourceforge.net/DTD/sodipodi-0.dtd"
   xmlns:inkscape="http://www.inkscape.org/namespaces/inkscape"
   width="454.45575mm"
   height="609.20789mm"
   viewBox="0 0 454.45574 609.20789"
   version="1.1"
   id="svg8"
   inkscape:version="1.0 (4035a4fb49, 2020-05-01)"
   sodipodi:docname="Forpus-xanthopterygius-Entre-Rios-de-Minas.svg">
  <title
     id="title972">Forpus Xanthopterygius Entre Rios de Minas</title>
  <defs
     id="defs2">
    <linearGradient
       id="linearGradient968">
      <stop
         style="stop-color:#b05a07;stop-opacity:1;"
         offset="0"
         id="stop962" />
      <stop
         id="stop964"
         offset="0.54123259"
         style="stop-color:#828282;stop-opacity:1;" />
      <stop
         style="stop-color:#d2d2d2;stop-opacity:0.99999994;"
         offset="1"
         id="stop966" />
    </linearGradient>
    <linearGradient
       id="linearGradient889-7-5">
      <stop
         id="stop885"
         offset="0"
         style="stop-color:#ffffff;stop-opacity:1;" />
      <stop
         id="stop887"
         offset="1"
         style="stop-color:#292929;stop-opacity:0.99999994;" />
    </linearGradient>
    <linearGradient
       osb:paint="solid"
       id="linearGradient881">
      <stop
         id="stop879"
         offset="0"
         style="stop-color:#063d97;stop-opacity:1;" />
    </linearGradient>
    <linearGradient
       osb:paint="solid"
       id="linearGradient875">
      <stop
         id="stop873"
         offset="0"
         style="stop-color:#349134;stop-opacity:1;" />
    </linearGradient>
    <linearGradient
       gradientUnits="userSpaceOnUse"
       y2="161.44801"
       x2="108.4864"
       y1="161.44801"
       x1="-107.67366"
       id="linearGradient883"
       xlink:href="#linearGradient875"
       inkscape:collect="always"
       gradientTransform="translate(84.137529,15.875)" />
    <linearGradient
       gradientUnits="userSpaceOnUse"
       y2="-149.93141"
       x2="296.64667"
       y1="-120.86146"
       x1="284.74277"
       id="linearGradient946"
       xlink:href="#linearGradient968"
       inkscape:collect="always"
       gradientTransform="translate(84.137529,15.875)" />
    <radialGradient
       gradientUnits="userSpaceOnUse"
       gradientTransform="matrix(1.0523339,0.50979824,-0.34927442,0.72097801,-3.2564216,-167.37151)"
       r="9.9968185"
       fy="-213.66991"
       fx="243.90512"
       cy="-213.66991"
       cx="243.90512"
       id="radialGradient970"
       xlink:href="#linearGradient889-7-5"
       inkscape:collect="always" />
  </defs>
  <sodipodi:namedview
     id="base"
     pagecolor="#ffffff"
     bordercolor="#666666"
     borderopacity="1.0"
     inkscape:pageopacity="0.0"
     inkscape:pageshadow="2"
     inkscape:zoom="0.13448766"
     inkscape:cx="561.39622"
     inkscape:cy="1246.1783"
     inkscape:document-units="mm"
     inkscape:current-layer="layer2"
     inkscape:document-rotation="0"
     showgrid="false"
     inkscape:window-width="1024"
     inkscape:window-height="531"
     inkscape:window-x="960"
     inkscape:window-y="144"
     inkscape:window-maximized="0"
     showborder="true"
     fit-margin-top="20"
     fit-margin-left="20"
     fit-margin-right="20"
     fit-margin-bottom="20" />
  <metadata
     id="metadata5">
    <rdf:RDF>
      <cc:Work
         rdf:about="">
        <dc:format>image/svg+xml</dc:format>
        <dc:type
           rdf:resource="http://purl.org/dc/dcmitype/StillImage" />
        <dc:title>Forpus Xanthopterygius Entre Rios de Minas</dc:title>
        <dc:creator>
          <cc:Agent>
            <dc:title>Louis Paternault, copying a photo by Evaldo Resende</dc:title>
          </cc:Agent>
        </dc:creator>
        <dc:source>https://commons.wikimedia.org/w/index.php?curid=79073013</dc:source>
        <cc:license
           rdf:resource="http://creativecommons.org/licenses/by-sa/4.0/" />
      </cc:Work>
      <cc:License
         rdf:about="http://creativecommons.org/licenses/by-sa/4.0/">
        <cc:permits
           rdf:resource="http://creativecommons.org/ns#Reproduction" />
        <cc:permits
           rdf:resource="http://creativecommons.org/ns#Distribution" />
        <cc:requires
           rdf:resource="http://creativecommons.org/ns#Notice" />
        <cc:requires
           rdf:resource="http://creativecommons.org/ns#Attribution" />
        <cc:permits
           rdf:resource="http://creativecommons.org/ns#DerivativeWorks" />
        <cc:requires
           rdf:resource="http://creativecommons.org/ns#ShareAlike" />
      </cc:License>
    </rdf:RDF>
  </metadata>
  <g
     inkscape:label="Calque 1"
     inkscape:groupmode="layer"
     id="layer1"
     style="display:none;opacity:1"
     sodipodi:insensitive="true"
     transform="translate(43.536083,260.68583)">
    <image
       sodipodi:absref="/home/louis/projets/spix/src/doc/_static/Forpus-xanthopterygius-Entre-Rios-de-Minas.jpg"
       xlink:href="Forpus-xanthopterygius-Entre-Rios-de-Minas.jpg"
       y="-359.68216"
       x="-712.40948"
       width="1219.2"
       height="914.40002"
       preserveAspectRatio="none"
       id="image843"
       transform="scale(-1,1)" />
  </g>
  <g
     inkscape:groupmode="layer"
     id="layer2"
     inkscape:label="Calque 2"
     style="display:inline;opacity:1"
     transform="translate(43.536083,260.68583)">
    <path
       sodipodi:nodetypes="cccccccccscc"
       id="path871"
       d="M 38.218898,570.46173 C 30.269829,467.22761 105.27048,392.79965 120.33829,324.83254 c 30.08477,-0.29281 57.60777,-56.34027 61.59777,-84.91119 17.31092,-8.38512 22.79524,-18.00828 37.92272,-27.99291 11.4919,13.59686 25.81602,-6.11094 26.29696,-18.44921 l 22.12389,5.57251 c -0.80373,2.76676 -2.15842,10.64403 -3.5271,16.87562 -3.07725,4.05371 -4.22058,4.45027 -4.7443,10.36766 7.42499,6.98104 1.0421,19.65454 -0.66075,25.50277 1.42158,2.00653 -2.96688,26.28203 -5.00353,45.16972 -8.76076,81.2463 -24.03918,247.71895 -27.43511,273.58272 z"
       style="fill:#321b00;fill-opacity:1;fill-rule:evenodd;stroke:none;stroke-width:0.264583px;stroke-linecap:butt;stroke-linejoin:miter;stroke-opacity:1" />
    <g
       style="fill:#4d4d4d;fill-opacity:1;stroke:none"
       id="g868"
       transform="translate(84.137529,15.875)">
      <path
         sodipodi:nodetypes="ccccccccc"
         style="fill:#4d4d4d;fill-opacity:1;fill-rule:evenodd;stroke:none;stroke-width:0.264583px;stroke-linecap:butt;stroke-linejoin:miter;stroke-opacity:1"
         d="m 77.24586,203.05098 c 42.37128,8.3827 27.83016,31.20829 -2.393812,39.70232 -5.847811,8.0714 -1.553554,19.98506 19.05231,16.1675 -24.636049,-5.14358 -0.719255,-9.67567 28.824402,-36.88462 5.48052,1.10743 7.52465,3.28731 16.1124,1.44963 -7.18795,-2.54438 -8.68955,-2.63566 -10.9799,-4.03091 0.22733,-3.92102 1.37317,-8.24151 -7.68528,-18.2783 -6.37819,0.43587 -12.0411,1.95574 -17.33855,-4.56134 -14.012996,-12.22968 -25.59157,6.43572 -25.59157,6.43572 z"
         id="path856" />
      <path
         sodipodi:nodetypes="cccsccscccccc"
         style="fill:#4d4d4d;fill-opacity:1;fill-rule:evenodd;stroke:none;stroke-width:0.264583px;stroke-linecap:butt;stroke-linejoin:miter;stroke-opacity:1"
         d="m 138.06512,179.86763 c 9.77079,14.84421 -8.55297,35.32574 15.93401,43.90364 -5.42404,-5.91172 -7.4816,-9.53471 -6.7863,-14.12098 4.22495,0.62664 7.31759,-0.78275 6.54124,-6.98196 -0.80625,-6.43805 -3.69241,-15.20344 -2.60671,-20.62813 2.3363,-1.03908 8.32401,-0.0487 8.32401,-0.0487 11.78358,8.09133 33.39501,19.9935 39.26564,21.46507 5.46153,1.36903 14.02631,-2.52849 4.08765,-16.23009 -0.45919,2.7297 -0.72464,6.24402 -0.72464,6.24402 -3.71492,-2.75259 -7.1463,-4.33107 -18.9497,-17.40317 -3.73015,-4.3815 -1.14527,-6.71678 -4.03068,-11.93938 -6.84643,-14.70435 -57.1324,-4.24182 -41.05452,15.73965 z"
         id="path858" />
      <path
         sodipodi:nodetypes="cccccc"
         style="fill:#4d4d4d;fill-opacity:1;fill-rule:evenodd;stroke:none;stroke-width:0.264583px;stroke-linecap:butt;stroke-linejoin:miter;stroke-opacity:1"
         d="m 180.73384,199.86929 c 9.77125,1.30878 9.91319,3.323 5.81191,8.0656 3.83704,7.66567 -1.24065,16.89851 -9.84372,16.66728 5.04287,-6.56017 4.54388,-11.50227 3.46771,-14.73174 0,0 -1.85539,-0.61571 -4.14852,-0.75352 0.89036,-5.3947 4.71262,-9.24762 4.71262,-9.24762 z"
         id="path860" />
      <path
         sodipodi:nodetypes="ccc"
         style="fill:#4d4d4d;fill-opacity:1;fill-rule:evenodd;stroke:none;stroke-width:0.264583px;stroke-linecap:butt;stroke-linejoin:miter;stroke-opacity:1"
         d="m 176.30613,244.81018 c 6.46176,6.82911 4.79308,10.81047 -3.38226,14.40442 -0.0897,-7.54247 5.58233,-4.22179 3.38226,-14.40442 z"
         id="path862" />
    </g>
    <path
       sodipodi:nodetypes="czccsscsssccsc"
       id="path854"
       d="M 177.51863,-117.69888 C 147.54927,-96.378233 71.846951,32.815005 65.054806,88.917601 58.262661,145.02021 19.043426,258.96775 -11.076735,328.52203 26.757114,296.63587 51.928317,270.23546 102.8232,228.08376 c 21.19039,-7.69341 16.27883,-5.76827 59.68639,-10.90905 22.23555,-2.63336 35.53133,-7.43085 47.95822,-18.28501 26.16563,-22.85415 53.39127,-25.73193 57.16182,-17.62455 20.6348,-39.93519 41.76712,-53.58845 51.32138,-98.170912 2.75647,-12.86235 3.46761,-22.393087 1.81159,-46.203347 -1.41059,-20.281355 7.56285,-45.9014023 13.41324,-58.083528 15.43053,-32.130624 11.13336,-37.66862 8.89535,-51.121428 25.80944,-32.672385 48.85996,-79.039105 43.86625,-120.341735 -5.37787,-33.99741 -45.25515,-49.35486 -62.78564,-47.94074 -80.61777,6.50315 -118.81756,28.17518 -146.63317,122.89766 z"
       style="fill:#0fc50f;fill-opacity:1;fill-rule:evenodd;stroke:none;stroke-width:0.264583px;stroke-linecap:butt;stroke-linejoin:miter;stroke-opacity:1" />
    <path
       sodipodi:nodetypes="cscc"
       id="path852"
       d="m -23.536083,268.07531 c 5.697277,-19.24581 33.760865,-49.413 60.644608,-88.94533 C 64.362287,139.05355 183.08797,83.334193 192.62425,86.717807 180.99417,118.4504 0.84095907,243.24179 -23.536083,268.07531 Z"
       style="fill:url(#linearGradient883);fill-opacity:1;fill-rule:evenodd;stroke:none;stroke-width:0.264583px;stroke-linecap:butt;stroke-linejoin:miter;stroke-opacity:1" />
    <path
       style="fill:#1c811c;fill-opacity:1;fill-rule:evenodd;stroke:none;stroke-width:0.264583px;stroke-linecap:butt;stroke-linejoin:miter;stroke-opacity:1"
       d="M 32.069415,142.79018 C 175.52358,-206.53168 377.62946,-78.704564 209.74422,84.037092 c -6.87816,-3.486562 -21.81391,11.604486 -17.11997,2.680715 -8.80262,11.956835 -15.51371,23.721873 -14.01566,15.019173 -7.94081,9.73028 -10.85163,9.44575 -12.3745,3.37263 -7.46404,10.76347 -24.92702,30.4231 -29.58816,17.74975 -21.62727,22.47203 -67.934691,56.68665 -54.794931,36.71268 -9.579165,12.52587 -19.195116,14.60445 -16.645364,9.78054 -11.946366,10.19782 -23.195423,15.42352 -17.71462,7.20415 -36.625955,34.15639 -30.434689,21.88711 -4.253352,-39.02521 -11.506701,12.58699 -14.142208,13.70509 -11.168248,5.25866 z"
       id="path4020"
       sodipodi:nodetypes="ccccccccccc" />
    <path
       style="opacity:1;fill:#a0a0a0;fill-opacity:1;fill-rule:evenodd;stroke:none;stroke-width:0.264583px;stroke-linecap:butt;stroke-linejoin:miter;stroke-opacity:1"
       d="m 307.15739,-195.18214 c 14.72175,-12.81976 30.42911,-8.29804 31.05672,17.12409 -20.93673,4.37919 -29.69322,-4.09731 -31.05672,-17.12409 z"
       id="path866"
       sodipodi:nodetypes="ccc" />
    <path
       style="fill:url(#radialGradient970);fill-opacity:1;fill-rule:evenodd;stroke:#000000;stroke-width:0.264583px;stroke-linecap:butt;stroke-linejoin:miter;stroke-opacity:1"
       d="m 313.31931,-196.6769 c 10.09488,-5.82831 20.83542,-1.32212 17.58023,13.05298 -9.79588,6.38682 -23.853,-1.28671 -17.58023,-13.05298 z"
       id="path870"
       sodipodi:nodetypes="ccc" />
    <path
       style="fill:#362610;fill-opacity:1;fill-rule:evenodd;stroke:none;stroke-width:0.264583px;stroke-linecap:butt;stroke-linejoin:miter;stroke-opacity:1"
       d="m 362.66149,-110.01046 c 10.47897,-6.56561 13.54314,-13.70346 16.80786,-17.95933 -5.25345,2.02017 -5.01612,1.96569 -13.72131,-4.3536 1.16937,8.1529 1.25456,13.74357 -3.08655,22.31293 z"
       id="path4018"
       sodipodi:nodetypes="cccc" />
    <path
       style="opacity:1;mix-blend-mode:normal;fill:url(#linearGradient946);fill-opacity:1;fill-rule:evenodd;stroke:none;stroke-width:0.264583px;stroke-linecap:butt;stroke-linejoin:miter;stroke-opacity:1"
       d="m 384.95716,-171.09742 c 7.42352,15.41012 13.05332,51.50813 -16.07653,66.11097 11.25122,-35.57959 -5.37395,-24.07103 -7.39615,-52.60526 9.92454,-11.04977 11.8698,-9.20697 23.47268,-13.50571 z"
       id="path4016"
       sodipodi:nodetypes="cccc" />
    <path
       sodipodi:nodetypes="ccczscccccccccc"
       id="path4020-3"
       d="m 99.013035,140.59482 c 2.374245,25.79496 58.833535,-49.606707 85.819995,-74.381391 1.38064,13.099229 20.28933,-13.326931 34.41434,-25.041696 -2.39112,4.735043 6.47368,15.497435 15.85718,-3.125618 9.3835,-18.623054 33.92875,-33.8062049 12.24528,1.812286 -6.81412,11.193266 -14.70196,21.328707 -37.60561,44.178698 -6.87816,-3.486561 -21.81391,11.604477 -17.11997,2.680708 -8.80262,11.956838 -15.51371,23.721873 -14.01565,15.019173 -7.94082,9.73029 -10.85164,9.44575 -12.3745,3.37263 -7.46405,10.76347 -24.92702,30.4231 -29.58817,17.74975 -21.62726,22.47203 -67.934686,56.68665 -54.794928,36.71268 -9.579168,12.52587 -19.195118,14.60445 -16.645368,9.78054 -11.94636,10.19782 -23.19542,15.42352 -17.71462,7.20415 -8.084091,14.01701 20.964611,-13.10097 35.368881,-33.96935 -5.252979,12.96978 7.219525,8.09058 16.15314,-1.99256 z"
       style="display:inline;fill:#063d97;fill-opacity:1;fill-rule:evenodd;stroke:none;stroke-width:0.264583px;stroke-linecap:butt;stroke-linejoin:miter;stroke-opacity:1" />
  </g>
</svg>
