<svg width="297mm" height="210mm" version="1.1" viewBox="0 0 297 210" xmlns="http://www.w3.org/2000/svg" xmlns:xlink="http://www.w3.org/1999/xlink">
  <style>
    #map-border,
    #map-grid > * {
      stroke-width: .2;
      stroke: #050505;
      fill: none;
    }
    #map-grid > * {
      stroke-opacity: .2;
    }
    text {
      font-family: Arial
    }
  </style>
  <defs>
    <clipPath id="map-clip">
      <rect x="4" y="4" width="289" height="187"/>
    </clipPath>
  </defs>
  <rect id="background" width="100%" height="100%" fill="#fff"/>
  <image id="map-data" x="2" y="2" width="293" height="191" clip-path="url(#map-clip)" preserveAspectRatio="none" xlink:href=""/>
  <rect id="map-border" x="4" y="4" width="289" height="187"/>
  <g id="map-grid" transform="translate(4 4)"></g>
  <g id="footer-text" transform="translate(4 194.3)">
    <text id="map-title" x="-0.41158593" y="10.075207" font-size="5.62px" style="line-height:1.25" xml:space="preserve">Map title</text>
    <text x="-0.12966953" y="3.5126455" font-size="1.337px" letter-spacing="0px" stroke-width=".265" word-spacing="0px" style="line-height:1.25" xml:space="preserve"><tspan x="-0.12966953" y="3.5126455" stroke-width=".265">Map data is compiled from a variety of sources and hence its accuracy is variable. If you wish to make decisions based on this data you should consult with the relevant authorities.</tspan></text>
    <text id="map-info" x="-0.088229999" y="1.3148" font-size="1.73px" letter-spacing="0px" stroke-width=".265" word-spacing="0px" style="line-height:1.25" xml:space="preserve">Map info details</text>
    <text id="date" x="-0.088229999" y="12.775207" font-size="1.337" style="line-height:1.25" xml:space="preserve">Date</text>
  </g>
  <g id="footer-logos" transform="translate(223.8 193.7)">
    <path d="m3.26 2.069-0.5398 0.00885-0.00443 1.6c-0.0059 1.962-6.711e-4 2.043 0.1423 2.338 0.1372 0.2795 0.4063 0.4572 0.7891 0.517 0.05037 0.00796 0.2655 0.01534 0.4786 0.01637l0.3872 0.00221v-0.497l-0.4285-0.0059c-0.3768-0.005162-0.4388-0.01018-0.5111-0.03872-0.115-0.04521-0.2124-0.1445-0.2603-0.2655l-0.03975-0.09956-0.00443-1.785zm5.199 0-0.5347 0.00885-0.00738 0.8481-0.7891 0.00937c-0.7448 0.00878-0.7964 0.01143-0.9218 0.04535-0.337 0.09292-0.5317 0.2854-0.6209 0.6113-0.0354 0.1305-0.05088 0.5501-0.02485 0.6755 0.0278 0.1342 0.1055 0.2869 0.1881 0.3695 0.1423 0.1423 0.3083 0.2116 0.7043 0.2957 0.3621 0.07596 0.4506 0.1084 0.5472 0.1976 0.1114 0.104 0.1512 0.2994 0.1121 0.5509-0.03547 0.2279-0.118 0.3142-0.3341 0.3488-0.05951 0.00966-0.3459 0.01762-0.6372 0.0177l-0.5288 1.578e-4v0.5015l0.6534-0.0059c0.7087-0.006637 0.7345-0.00966 0.9439-0.1069 0.1143-0.05391 0.2824-0.2168 0.3304-0.3215 0.09218-0.1991 0.1217-0.3547 0.1217-0.6423 3.023e-4 -0.4875-0.1711-0.7596-0.5634-0.9071-0.0708-0.02581-0.2625-0.07375-0.4255-0.1069-0.3414-0.06917-0.4358-0.1047-0.5162-0.1932-0.07057-0.07817-0.08259-0.1364-0.07264-0.3569 0.006637-0.1438 0.01504-0.1866 0.05347-0.2655 0.08997-0.1844 0.1571-0.1962 1.077-0.1895l0.708 0.00443 0.00878 1.121c0.00841 1.069 0.01047 1.128 0.04299 1.239 0.0556 0.1895 0.1217 0.3068 0.2397 0.4262 0.2301 0.233 0.4786 0.2979 1.143 0.2979h0.354v-0.4948l-0.4041-0.009882c-0.5627-0.01379-0.6777-0.04491-0.767-0.2072-0.02397-0.04403-0.0514-0.1283-0.06106-0.1881-0.01084-0.06696-0.01755-0.5029-0.01763-1.15l-1.617e-4 -1.047 1.239-0.00885v-0.4993l-1.239-0.008849v-0.4329zm-3.473 0.01844a0.2832 0.2832 0 0 0-0.2832 0.2832 0.2832 0.2832 0 0 0 0.2832 0.2832 0.2832 0.2832 0 0 0 0.2832-0.2832 0.2832 0.2832 0 0 0-0.2832-0.2832 0.2832 0.2832 0 0 0-9.58e-5 0zm-4.985 0.06571 0.004425 0.6298c0.001475 0.2021-0.01099 0.6003 0.05066 0.6991 0.05361 0.08112 0.1209 0.1195 0.2367 0.1364 0.04616 0.00664 0.1305 0.01327 0.1881 0.01438l0.104 0.00221v-0.1637l-0.1659-0.0059c-0.2515-0.0087-0.2404 0.01261-0.247-0.4727l-0.005162-0.3908 0.1468-0.00221c0.2913-0.00369 0.2625 0.00443 0.2684-0.08554l0.005162-0.07891h-0.4181v-0.2832h-0.08407zm0.6674 0v1.482h0.1667v-1.047l0.1209 6.63e-5c0.1379 1.032e-4 0.2323 0.02168 0.2647 0.06099 0.0174 0.02094 0.02456 0.1364 0.03097 0.5037l0.00833 0.4764h0.1667v-0.458c0-0.5-0.0059-0.5413-0.09439-0.6416-0.07057-0.08038-0.1386-0.09734-0.3333-0.08407l-0.1637 0.01128v-0.3009h-0.08333zm1.276 0.2795c-0.1158 0-0.1563 0.00738-0.2205 0.03916-0.1586 0.07891-0.194 0.1984-0.1836 0.6209 0.0059 0.2485 0.01128 0.2928 0.04181 0.351 0.04926 0.09366 0.1077 0.1431 0.1998 0.1681 0.04454 0.01195 0.177 0.0219 0.3001 0.02249l0.2205 6.71e-4v-0.1667h-0.2426s-0.1571 0.00944-0.2308-0.0129c-0.02242-0.00664-0.06047-0.03584-0.06047-0.03584-0.03614-0.03614-0.04867-0.06445-0.04867-0.1099 0-0.04447 0.0059-0.059 0.02234-0.0528 0.01224 0.00443 0.09661 0.01357 0.1873 0.01962 0.1519 0.01018 0.1711 0.00796 0.2397-0.02758 0.1195-0.06165 0.1563-0.1453 0.163-0.3717 0.005162-0.174 0.003687-0.1881-0.04137-0.2751-0.06578-0.1283-0.1504-0.1696-0.3466-0.1696zm0.02389 0.1534c0.1593 6.638e-4 0.2006 0.06438 0.2006 0.2625 6.64e-5 0.1468-0.02419 0.2212-0.0826 0.2529-0.01762 0.00944-0.1114 0.01711-0.208 0.01711h-0.1763l6.637e-4 -0.1541c0.00148-0.2979 0.034-0.3621 0.1888-0.3754 0.02773-0.00221 0.05288-0.00369 0.07596-0.00369zm2.765 0.3496v3.614h0.5332v-3.614h-0.2662zm5.428 3.083a0.2832 0.2832 0 0 0-0.2832 0.2832 0.2832 0.2832 0 0 0 0.2832 0.2832 0.2832 0.2832 0 0 0 0.2832-0.2832 0.2832 0.2832 0 0 0-0.2832-0.2832 0.2832 0.2832 0 0 0-1.62e-4 0zm0.7234 0a0.2832 0.2832 0 0 0-0.2832 0.2832 0.2832 0.2832 0 0 0 0.2832 0.2832 0.2832 0.2832 0 0 0 0.2832-0.2832 0.2832 0.2832 0 0 0-0.2832-0.2832zm0.7286 0a0.2832 0.2832 0 0 0-0.2832 0.2832 0.2832 0.2832 0 0 0 0.2832 0.2832 0.2832 0.2832 0 0 0 0.2832-0.2832 0.2832 0.2832 0 0 0-0.2832-0.2832 0.2832 0.2832 0 0 0-1.62e-4 0z" stop-color="#000000" style="font-variation-settings:normal"/>
    <g>
      <path d="m16.59 0.9276c-0.04819 4.372e-4 -0.07604 0.00219-0.07604 0.00219-0.5935 0.3629-0.5017 0.8927-0.4926 1.331 0.1909-0.5348 0.7084-1.091 1.356-1.223-0.3133-0.1025-0.6422-0.1132-0.7869-0.1116zm3.414 0.4629c-0.6373 0.2802-0.9671 0.8266-1.108 1.215 0.2182 0.06199 0.4042 0.08514 0.4042 0.08514s0.1562-0.6769 0.6993-1.298zm-2.24 0.08679c-0.2554-0.00536-0.4868 0.08927-0.6637 0.1918-0.2199 0.1256-0.4199 0.262-0.5844 0.6646 0 0 0.3455-0.3827 1.008-0.4091 0.7125-0.03009 0.8761 0.1364 0.8761 0.1364s-0.2637-0.5373-0.5273-0.5745c-0.03744-0.00509-0.07456-0.00779-0.1108-0.00851zm-2.901 0.4695c0.4447 0.5546 0.4695 0.7298 0.4695 0.7298s0.3753-0.07422 0.71-0.07257c-0.386-0.3273-0.5348-0.4265-1.182-0.6571zm0.5406 0.8927s0.2248 0.6604 0.3067 1.372c-0.3703-0.7298-1.033-1.05-1.033-1.05s-0.2678 0.3331-0.3843 0.7174c0.3273 0.3546 0.6786 1.108 0.6786 1.108s-0.3397-0.3191-0.696-0.5373c-0.08348 0.3273-0.1529 0.8679-0.0162 1.546 0.6803-0.7332 1.413-0.934 2.81-0.7174-0.1083-0.8761-0.815-2.017-0.815-2.017-0.5687-0.2091-0.8514-0.4182-0.8514-0.4182zm3.843 0.1504c-0.1455 0.0372-0.4819 0.2943-0.4819 0.2943s-0.124 0.2959-0.2959 0.9753c-0.1504 0.6001-0.2546 1.157-0.2546 1.157s1.075-0.04778 1.562-0.5315c-0.2182-0.3579 0.01612-1.116 0.248-1.413-0.4662 0.1719-0.8596 0.8241-0.8596 0.8241s-0.1703-0.7761 0.07943-1.306zm-2.389 0.7075-0.09588 0.01794c-5e-3 0-0.01736 0.01074-0.0124 0.0124 0.2232 0.1099 0.4215 0.2835 0.6232 0.5381 0.0017 0.00331 0.0091 0.00197 0.0124-0.00131 0.01422-0.1504-0.01405-0.3017-0.04959-0.4364l0.0034-0.0047c-7e-3 -0.0248-0.03562-0.03372-0.05513-0.04612l4.37e-4 -4.373e-4c-0.129-0.05844-0.2802-0.08514-0.4273-0.07985zm1.562 0c-0.1471-0.00497-0.2976 0.02141-0.4265 0.07984v4.373e-4c-0.01951 0.0124-0.04761 0.02132-0.05464 0.04612l3e-3 0.0047c-0.03546 0.1347-0.06373 0.2852-0.04951 0.4364 0.0033 0.00331 0.01066 0.0046 0.0124 0.00131 0.2017-0.2554 0.4001-0.4282 0.6232-0.5381 5e-3 -0.00175-0.0074-0.0124-0.0124-0.0124zm1.521 1.38c-1.513 1.975-3.141 0.3984-4.48 0.5282-0.7703 0.07439-1.157 0.5794-1.157 0.5794s0.4149-0.2587 1.058-0.2571c0.6803 0.00531 1.033 0.3934 1.909 0.6381 1.637 0.4554 2.587-0.5315 2.662-1.488zm-2.612 0.2976c0.1289 0.1364 0.04761 0.229 0.3067 0.2587 0.2777 0.03364 0.2091-0.1025 0.3827-0.1893-0.3397 0.03009-0.448 0.01587-0.6893-0.06918z"/>
      <path d="m26.67 3.432v0.1537h0.1678v-0.1537zm-6.158 0.00726v0.1389h0.4215v1.041h0.157v-1.041h0.4215v-0.1389zm1.265 0.2695c-0.05356 0-0.1066 0.0056-0.162 0.01455-0.05356 0.01074-0.09671 0.01976-0.1248 0.02695v0.1513h0.0073c0.05001-0.01967 0.1-0.03414 0.148-0.04488 0.04827-0.01074 0.09092-0.01579 0.1306-0.01579 0.03215 0 0.06273 0.00369 0.0934 0.00726 0.03033 0.00536 0.05505 0.01223 0.07646 0.0248 0.02323 0.01248 0.03959 0.03025 0.05207 0.05166s0.01752 0.05017 0.01752 0.08431v0.02306c-0.08596 0.00536-0.1678 0.01074-0.243 0.01967-0.07679 0.00893-0.1413 0.02504-0.1951 0.04827-0.05356 0.02504-0.09505 0.05712-0.1232 0.09836-0.0286 0.04108-0.04273 0.09505-0.04273 0.1628 0 0.08216 0.02835 0.148 0.08348 0.2017 0.05538 0.05182 0.1215 0.0786 0.2017 0.0786 0.0429 0 0.08059-0.00345 0.1124-0.0124 0.03182-0.00894 0.06042-0.01785 0.08514-0.03034 0.02141-0.00893 0.04298-0.02149 0.06621-0.03761 0.02323-0.01604 0.04092-0.02868 0.0534-0.03761v0.09505h0.1488v-0.6042c0-0.0572-0.0091-0.1033-0.02695-0.143-0.01785-0.03926-0.04298-0.06984-0.07687-0.09505-0.03397-0.02323-0.07315-0.041-0.1198-0.05166-0.04645-0.01074-0.1-0.0162-0.1628-0.0162zm0.9505 0c-0.0572 0-0.1075 0.00707-0.1537 0.02132-0.04463 0.0143-0.08199 0.03438-0.1124 0.05935-0.03033 0.02504-0.05364 0.05331-0.06794 0.08514-0.01603 0.03215-0.02347 0.06811-0.02347 0.1041 0 0.0572 0.01612 0.1075 0.04827 0.1463 0.03215 0.04108 0.08761 0.06951 0.1645 0.09092 0.0286 0.00893 0.05877 0.01422 0.09257 0.02132 0.03397 0.00536 0.061 0.01091 0.08241 0.0162 0.0572 0.01248 0.09671 0.02868 0.1165 0.04654 0.01967 0.01785 0.03033 0.0429 0.03033 0.0786 0 0.04645-0.01802 0.07852-0.05554 0.1-0.03753 0.02141-0.08761 0.03207-0.1537 0.03207-0.05356 0-0.1083-0.01058-0.1653-0.03207-0.0572-0.01967-0.1108-0.04844-0.157-0.08431h-0.0073v0.1678c0.03753 0.01967 0.08216 0.03604 0.1372 0.05207 0.05538 0.01604 0.1141 0.02306 0.1802 0.02306 0.1157 0 0.2075-0.02504 0.2736-0.07687 0.06612-0.05182 0.1-0.1182 0.1-0.1984 0-0.06431-0.01769-0.1157-0.0534-0.157-0.03753-0.03926-0.09175-0.06596-0.1612-0.08199-0.02323-0.00536-0.05149-0.01083-0.08514-0.01794-0.03397-0.00715-0.06629-0.01248-0.0934-0.01967-0.04827-0.01074-0.08596-0.02695-0.1075-0.04488-0.02323-0.01785-0.03372-0.04629-0.03372-0.08199 0-0.04108 0.01975-0.07166 0.0572-0.0934 0.03753-0.02141 0.08431-0.03207 0.1372-0.03207 0.05356 0 0.1066 0.00893 0.1604 0.0286 0.05538 0.01967 0.1017 0.04273 0.1389 0.07133h0.0073v-0.1587c-0.03752-0.01785-0.08224-0.03405-0.1356-0.04654-0.05538-0.01248-0.1066-0.01967-0.1604-0.01967zm2.347 0c-0.05356 0-0.1066 0.0056-0.162 0.01455-0.05356 0.01074-0.09671 0.01976-0.1248 0.02695v0.1513h0.0072c0.05001-0.01967 0.1-0.03414 0.148-0.04488 0.04827-0.01074 0.09092-0.01579 0.1306-0.01579 0.03215 0 0.06274 0.00369 0.0934 0.00726 0.03042 0.00536 0.05505 0.01223 0.07646 0.0248 0.02323 0.01248 0.03959 0.03025 0.05207 0.05166s0.01752 0.05017 0.01752 0.08431v0.02306c-0.08596 0.00536-0.1678 0.01074-0.243 0.01967-0.07679 0.00893-0.1413 0.02504-0.1951 0.04827-0.05356 0.02504-0.09505 0.05712-0.1232 0.09836-0.0286 0.04108-0.04273 0.09505-0.04273 0.1628 0 0.08216 0.02835 0.148 0.08348 0.2017 0.05538 0.05182 0.1215 0.0786 0.2017 0.0786 0.0429 0 0.08018-0.00345 0.1124-0.0124 0.03224-0.00894 0.06083-0.01785 0.08596-0.03034 0.02141-0.00893 0.04298-0.02149 0.06621-0.03761 0.02323-0.01604 0.04091-0.02868 0.0534-0.03761v0.09505h0.1488v-0.6042c0-0.0572-0.0089-0.1033-0.02694-0.143-0.01794-0.03926-0.04298-0.06984-0.07687-0.09505-0.03397-0.02323-0.07315-0.041-0.1198-0.05166-0.04645-0.01074-0.1-0.0162-0.1628-0.0162zm1.075 0c-0.05356 0-0.1041 0.01099-0.1537 0.03248-0.05001 0.02323-0.09753 0.05166-0.1446 0.09092v-0.09836h-0.1488v0.8844h0.1488v-0.6604c0.03926-0.03034 0.08224-0.0572 0.1265-0.07687 0.0429-0.01967 0.08513-0.03034 0.1265-0.03034 0.03934 0 0.07158 0.00507 0.09671 0.01579 0.02504 0.01074 0.04472 0.02852 0.05728 0.05001 0.01248 0.02141 0.02141 0.04844 0.02686 0.08431 0.0053 0.03571 0.0072 0.0734 0.0072 0.1141v0.5034h0.1504v-0.5753c0-0.1075-0.02513-0.1909-0.07522-0.248-0.05001-0.0572-0.1232-0.08596-0.2182-0.08596zm1.232 0c-0.05356 0-0.1066 0.0056-0.162 0.01455-0.05538 0.01074-0.09836 0.01976-0.1265 0.02695v0.1513h0.0089c0.05001-0.01967 0.1-0.03414 0.148-0.04488 0.04827-0.01074 0.09092-0.01579 0.1306-0.01579 0.03215 0 0.06274 0.00369 0.0934 0.00726 0.03042 0.00536 0.05505 0.01223 0.07646 0.0248 0.02323 0.01248 0.03959 0.03025 0.05207 0.05166s0.01794 0.05017 0.01794 0.08431v0.02306c-0.08596 0.00536-0.1678 0.01074-0.243 0.01967-0.07679 0.00893-0.1413 0.02504-0.1951 0.04827-0.05356 0.02504-0.09505 0.05712-0.1232 0.09836-0.0286 0.04108-0.04273 0.09505-0.04273 0.1628 0 0.08216 0.02876 0.148 0.08431 0.2017 0.05538 0.05182 0.1215 0.0786 0.2017 0.0786 0.0429 0 0.08059-0.00345 0.1124-0.0124 0.03215-0.00893 0.06042-0.01785 0.08514-0.03034 0.02141-0.00893 0.04298-0.02149 0.06621-0.03761 0.02323-0.01604 0.04133-0.02868 0.05381-0.03761v0.09505h0.148v-0.6042c0-0.0572-0.0089-0.1033-0.02695-0.143-0.01794-0.03926-0.0429-0.06984-0.07687-0.09505-0.03397-0.02323-0.07315-0.041-0.1198-0.05166-0.04645-0.01074-0.1-0.0162-0.1628-0.0162zm1.075 0c-0.05356 0-0.1041 0.01099-0.1537 0.03248-0.05001 0.02323-0.09753 0.05166-0.1446 0.09092v-0.09836h-0.1488v0.8844h0.1488v-0.6604c0.03926-0.03034 0.08183-0.0572 0.1265-0.07687 0.0429-0.01967 0.08596-0.03034 0.1265-0.03034 0.03926 0 0.0715 0.00507 0.09671 0.01579 0.02496 0.01074 0.04472 0.02852 0.0572 0.05001 0.01248 0.02141 0.02166 0.04844 0.02686 0.08431 0.0052 0.03571 0.0068 0.0734 0.0068 0.1141v0.5034h0.1504v-0.5753c0-0.1075-0.02513-0.1909-0.07522-0.248-0.05001-0.0572-0.1232-0.08596-0.2182-0.08596zm-4.777 0.00175c-0.05356 0-0.1017 0.01099-0.148 0.03248-0.04645 0.02323-0.09257 0.05166-0.1389 0.09092v-0.09836h-0.148v0.8844h0.148v-0.6604c0.03934-0.03034 0.08018-0.0572 0.1215-0.07687 0.03934-0.01967 0.08067-0.03034 0.1215-0.03034 0.0429 0 0.07505 0.00722 0.09836 0.01794 0.02141 0.01248 0.03918 0.02843 0.05174 0.05166 0.01075 0.02141 0.01769 0.04844 0.02141 0.08431 0.0035 0.03397 0.0055 0.07133 0.0055 0.1108v0.5034h0.148v-0.5662c0-0.01604 8.7e-5 -0.03174-0.0021-0.04786 0-0.01604-0.0021-0.03066-0.0037-0.04315 0.04108-0.03215 0.08431-0.05885 0.1248-0.08034 0.04108-0.02141 0.08431-0.03207 0.1248-0.03207 0.0429 0 0.07505 0.00542 0.09836 0.01794 0.02141 0.01248 0.03918 0.02843 0.05166 0.05166 0.01075 0.01967 0.01769 0.04802 0.02141 0.08348 0.0035 0.03571 0.0055 0.07356 0.0055 0.1108v0.5034h0.1529v-0.5728c0-0.1058-0.02314-0.1876-0.0696-0.2471-0.04645-0.05893-0.1182-0.08762-0.2141-0.08762-0.05538 0-0.1091 0.01099-0.1587 0.03414-0.05001 0.02141-0.1033 0.05893-0.1645 0.1091-0.02141-0.04463-0.05331-0.08051-0.09423-0.1058-0.0429-0.02504-0.0934-0.03761-0.1537-0.03761zm3 0.02347v0.8844h0.148v-0.8844zm-4.67 0.4199v0.2463c-0.03571 0.0286-0.07662 0.05331-0.1215 0.07472-0.0429 0.01967-0.09092 0.03075-0.143 0.03075-0.06249 0-0.1091-0.0143-0.1397-0.03926-0.03034-0.02504-0.04612-0.06447-0.04612-0.1141 0-0.04463 0.01248-0.08051 0.03926-0.1058 0.02678-0.02678 0.0605-0.04472 0.1033-0.0572 0.03571-0.01074 0.08596-0.01769 0.1463-0.02306 0.06249-0.00536 0.1157-0.00884 0.1604-0.0124zm3.298 0v0.2463c-0.03571 0.0286-0.07662 0.05331-0.1215 0.07472-0.0429 0.01967-0.09092 0.03075-0.143 0.03075-0.06249 0-0.1091-0.0143-0.1389-0.03926-0.03042-0.02504-0.04612-0.06447-0.04612-0.1141 0-0.04463 0.01248-0.08051 0.03934-0.1058 0.02678-0.02678 0.0605-0.04472 0.1033-0.0572 0.03571-0.01074 0.08596-0.01769 0.1463-0.02306 0.06249-0.00536 0.1157-0.00884 0.1604-0.0124zm2.306 0v0.2463c-0.03753 0.0286-0.07712 0.05331-0.1215 0.07472-0.0429 0.01967-0.09092 0.03075-0.143 0.03075-0.06249 0-0.1091-0.0143-0.1397-0.03926-0.03042-0.02504-0.04612-0.06447-0.04612-0.1141 0-0.04463 0.01248-0.08051 0.03926-0.1058 0.02678-0.02678 0.0605-0.04472 0.1033-0.0572 0.03571-0.01074 0.08596-0.01769 0.1463-0.02306 0.06249-0.00536 0.1165-0.00884 0.1612-0.0124z"/>
      <path d="m21.13 5.069c-0.1926 0-0.343 0.05546-0.4538 0.1645-0.1091 0.1091-0.1637 0.2587-0.1637 0.4463 0 0.1033 0.01405 0.1934 0.04439 0.2703 0.0286 0.07679 0.07158 0.1405 0.1248 0.1926 0.05356 0.05182 0.1182 0.08927 0.1951 0.1141 0.07505 0.02504 0.1612 0.03761 0.2521 0.03761 0.07141 0 0.1446-0.01058 0.2215-0.03207 0.07679-0.02141 0.1463-0.04654 0.2108-0.07687v-0.5092h-0.4711v0.1372h0.3199v0.2893c-0.03753 0.01604-0.08199 0.0286-0.1322 0.03926-0.05001 0.00893-0.1017 0.01455-0.1521 0.01455-0.1397 0-0.248-0.0429-0.3281-0.1265-0.08042-0.08431-0.1199-0.2033-0.1199-0.3554 0-0.1446 0.03934-0.2612 0.1165-0.3455 0.0772-0.08431 0.1802-0.1265 0.3124-0.1265 0.05893 0 0.1108 0.00509 0.157 0.01579 0.04463 0.01074 0.08761 0.02496 0.1232 0.041 0.0286 0.0143 0.06059 0.03066 0.09092 0.05207 0.03215 0.02141 0.05521 0.03744 0.07133 0.05001h0.01455v-0.186c-0.08216-0.03926-0.157-0.06637-0.2265-0.08241-0.06968-0.01604-0.1372-0.0248-0.2058-0.0248zm8.596 0.06406v0.2538h-0.1v0.1248h0.1v0.4695c0 0.1075 0.02314 0.186 0.0696 0.2339 0.04645 0.04827 0.1165 0.07307 0.2058 0.07307 0.02496-2.2e-6 0.05538-0.00153 0.08762-0.00684 0.03215-0.00356 0.0624-0.01083 0.09092-0.01794h0.0021v-0.1339h-0.0072c-0.01248 0.00536-0.03 0.01083-0.05678 0.01794-0.02678 0.00715-0.05191 0.01066-0.07687 0.01066-0.04108 0-0.07348-0.0056-0.0934-0.01455-0.02141-0.01074-0.03752-0.02471-0.04827-0.04612-0.01248-0.02323-0.01967-0.0467-0.02141-0.07348-0.0021-0.02678-0.0035-0.06249-0.0035-0.1091v-0.4034h0.3075v-0.1248h-0.3074v-0.2538zm-7.546 0.2306c-0.1248 0-0.2256 0.04116-0.2984 0.1248-0.07323 0.08431-0.1108 0.1959-0.1108 0.3405 0 0.1446 0.03736 0.2571 0.1108 0.3414 0.07323 0.08431 0.1736 0.1248 0.2984 0.1248 0.1232 0 0.2232-0.04116 0.2967-0.1248 0.07323-0.08431 0.1108-0.1967 0.1108-0.3414 0-0.143-0.03736-0.2571-0.1108-0.3405-0.07323-0.08431-0.1736-0.1248-0.2967-0.1248zm3.538 0.00175c-0.05356 0-0.1041 0.01058-0.1537 0.03207-0.05001 0.02141-0.09836 0.05174-0.1446 0.08927v-0.09836h-0.148v0.8844h0.148v-0.6612c0.03934-0.03034 0.08216-0.0572 0.1265-0.07687 0.0429-0.01967 0.08596-0.03034 0.1265-0.03034 0.03926 0 0.0715 0.00551 0.09671 0.0162 0.02505 0.01074 0.04472 0.02852 0.0572 0.05001 0.01248 0.01967 0.02124 0.04844 0.02645 0.08431 0.0052 0.03571 0.0072 0.07298 0.0072 0.1141v0.5042h0.1504v-0.5736c0-0.1075-0.02471-0.1909-0.07472-0.248-0.05001-0.0572-0.1215-0.08596-0.2182-0.08596zm0.9753 0c-0.05356 0-0.1017 0.01058-0.148 0.03207-0.04645 0.02141-0.0934 0.05174-0.1397 0.08927v-0.09836h-0.148v0.8844h0.148v-0.6612c0.03934-0.03034 0.08067-0.0572 0.1215-0.07687 0.03926-0.01967 0.08018-0.03034 0.1215-0.03034 0.0429 0 0.07505 0.00722 0.09836 0.01794 0.02141 0.01248 0.03959 0.02843 0.05207 0.05166 0.01075 0.02141 0.01769 0.04844 0.02141 0.08431 0.0035 0.03397 0.0053 0.07133 0.0053 0.1108v0.5042h0.148v-0.5662c0-0.01604 8.7e-5 -0.03215-0.0021-0.04827 0-0.01604-0.0021-0.03017-0.0035-0.04273 0.04108-0.03397 0.08431-0.05926 0.1248-0.08075 0.04108-0.01967 0.08348-0.03034 0.1248-0.03034 0.0429 0 0.07505 0.00542 0.09836 0.01794 0.02141 0.01248 0.03959 0.02843 0.05207 0.05166 0.01075 0.01967 0.01769 0.04844 0.02141 0.08431 0.0035 0.03571 5e-3 0.07315 5e-3 0.1108v0.5042h0.1521v-0.5736c0-0.1058-0.02314-0.1876-0.0696-0.2463-0.04645-0.05893-0.1182-0.08762-0.2141-0.08762-0.05538 0-0.1091 0.01099-0.1587 0.03414-0.05001 0.02141-0.1033 0.05893-0.1645 0.1091-0.01967-0.04463-0.05199-0.08051-0.0934-0.1058-0.0429-0.02504-0.09257-0.03761-0.1537-0.03761zm2.488 0c-0.05356 0-0.1041 0.01058-0.1537 0.03207-0.05001 0.02141-0.09836 0.05174-0.1446 0.08927v-0.09836h-0.148v0.8844h0.148v-0.6612c0.03926-0.03034 0.08216-0.0572 0.1265-0.07687 0.04463-0.01967 0.08596-0.03034 0.1265-0.03034 0.03934 0 0.07158 0.00551 0.09671 0.0162 0.02504 0.01074 0.04472 0.02852 0.0572 0.05001 0.01248 0.01967 0.02166 0.04844 0.02695 0.08431 0.0053 0.03571 0.0068 0.07298 0.0068 0.1141v0.5042h0.1504v-0.5736c0-0.1075-0.02513-0.1909-0.07513-0.248-0.05001-0.0572-0.1232-0.08596-0.2182-0.08596zm-5.166 0.00175c-0.1289 0-0.2323 0.04108-0.3108 0.1265-0.0786 0.08596-0.1182 0.2-0.1182 0.3447 0 0.1446 0.04124 0.2595 0.1232 0.3381 0.08216 0.08042 0.1967 0.1199 0.343 0.1199 0.0572 0 0.1124-0.00707 0.1637-0.02132 0.05182-0.0143 0.1041-0.0324 0.1537-0.05381v-0.162h-0.0072c-0.02678 0.02323-0.06951 0.04811-0.1306 0.07133-0.06075 0.02323-0.1215 0.03587-0.1818 0.03587-0.04645 0-0.08761-0.00715-0.1248-0.01967-0.03752-0.01248-0.07141-0.03224-0.09836-0.0572-0.0286-0.02678-0.05183-0.05885-0.06794-0.1-0.0162-0.04108-0.02521-0.08927-0.02521-0.143h0.6522v-0.07687c0-0.1289-0.03224-0.2265-0.09671-0.2967-0.0643-0.06968-0.1554-0.1058-0.2752-0.1058zm4.149 0c-0.1289 0-0.2323 0.04108-0.3108 0.1265-0.0786 0.08596-0.1182 0.2-0.1182 0.3447 0 0.1446 0.04124 0.2595 0.1232 0.3381 0.08216 0.08042 0.1967 0.1199 0.343 0.1199 0.0572 0 0.1124-0.00707 0.1637-0.02132 0.05182-0.0143 0.1041-0.0324 0.1537-0.05381v-0.162h-0.0072c-0.02678 0.02323-0.06951 0.04811-0.1306 0.07133-0.06075 0.02323-0.1215 0.03587-0.1818 0.03587-0.04645 0-0.08761-0.00715-0.1248-0.01967-0.03753-0.01248-0.07141-0.03224-0.09836-0.0572-0.0286-0.02678-0.05183-0.05885-0.06794-0.1-0.0162-0.04108-0.02521-0.08927-0.02521-0.143h0.6522v-0.07687c0-0.1289-0.03224-0.2265-0.09671-0.2967-0.0643-0.06968-0.1554-0.1058-0.2752-0.1058zm-5.513 0.01967 0.3554 0.8844h0.1504l0.3571-0.8844h-0.1554l-0.2711 0.7059-0.2752-0.7059zm1.934 0.00175v0.8844h0.1504v-0.629c0.03926-0.03215 0.08018-0.05893 0.1232-0.0786 0.04108-0.01967 0.08596-0.03075 0.1322-0.03075 0.0286 0 0.05158 0.00197 0.07307 0.00385 0.02141 0.00175 0.04306 0.00531 0.06447 0.01066h0.0089v-0.1521c-0.02323-0.00356-0.03959-0.00505-0.05207-0.00682-0.01248-0.00175-0.03042-0.00219-0.0572-0.00219-0.04645 0-0.09258 0.01108-0.1372 0.03075-0.04645 0.01967-0.09836 0.05174-0.157 0.1v-0.1306zm-0.5819 0.09671c0.07861 0 0.1372 0.02166 0.1769 0.06447 0.03901 0.04248 0.05819 0.1025 0.05852 0.1802h-0.5067c0.0072-0.06968 0.03389-0.1289 0.08034-0.1752 0.04819-0.04645 0.1108-0.0696 0.1918-0.0696zm4.149 0c0.07861 0 0.1372 0.02166 0.1769 0.06447 0.03901 0.04248 0.05819 0.1025 0.05852 0.1802h-0.5067c0.0072-0.06968 0.03389-0.1289 0.08034-0.1752 0.04827-0.04645 0.1108-0.0696 0.1918-0.0696zm-5.976 0.00555c0.08034 0 0.143 0.02835 0.1876 0.08348 0.04463 0.05538 0.06794 0.1413 0.06794 0.2554 0 0.1124-0.02323 0.1967-0.06794 0.2521-0.04463 0.0572-0.1075 0.08596-0.186 0.08596-0.08034 0-0.143-0.02868-0.1876-0.08596-0.04463-0.0572-0.06794-0.1413-0.06794-0.2521 0-0.1141 0.02116-0.2 0.06579-0.2554 0.04463-0.05538 0.1075-0.08348 0.1876-0.08348z"/>
    </g>
    <path d="m44.6 7.935e-4 -0.2222 0.5832 0.04047 0.5872 8.23e-4 0.4672 0.1736-0.0117 0.3144-0.1994 0.05962-0.4116-0.1349-0.8739-0.2321-0.1418zm9.017 0.4275-0.1934 0.2361-0.1071 0.3551 0.118 0.3035 0.2361 0.2272 0.2053 0.4999 0.2698 0.00298 0.2073-0.06219-0.05277-0.3154-0.1329-0.5565-0.5138-0.6259-0.03521-0.06507zm0.8709 1.756-0.2728 0.07796-0.3035 0.08898-0.1795 0.2281 0.2817 0.05366 0.3412-0.01051 0.2976 0.09642 0.118-0.1736-0.1835-0.2024zm-7.757 0.2867-0.1359 0.1706 0.2728-0.02559zm-0.249 0.04166-0.1547 0.2886 0.126 0.1051zm7.806 0.241-0.3363 0.1716 0.251 0.05396zm-7.489 0.4335 0.07777 0.2698 0.03372-0.1587zm-0.4622 0.05714-0.1042 0.2281 0.0489 0.3244-0.1528 0.2906-0.02351 0.3164 0.125 0.4464 0.1071 0.4027 0.127 0.4236 0.2886 0.6477 0.2242 0.3601 0.3244 0.4255 0.251 0.6031 0.05039 0.2648 0.1111-0.1369 0.12 0.3353 0.2619 0.3134 0.07152 0.1051-0.123 0.373-0.1875-0.4503-0.245-0.2748-0.1815-0.2281 0.0079 0.2143 0.05069 0.3452 0.03739 0.2857 0.1071 0.2758-0.03313 0.1676 0.1984 0.1904 0.1081 0.3888 0.1389 0.3313 0.2678 0.1776 0.1587 0.2678 0.1686 0.2162 0.1428 0.2589 0.08015 0.2113 0.1845-0.09622-0.03541-0.07906 0.07906-0.06616 0.0363 0.2113 0.1428 0.1329 0.1081-0.03313 0.2371-5e-3 0.1141 0.1776-0.1557 0.0099-0.0987-0.1051-0.09433 0.03204-0.1736 0.0099-0.1637 0.04106 0.1994 0.2143 0.0491 0.3382 0.1994-0.117 0.1637 0.05267 0.1845-0.03134 0.3125 0.02708 0.3343-0.04424 0.074 0.1101 0.2252 0.1944 0.3065-0.01954 0.1845-0.03452-0.04315-0.1319 0.06676-0.09205 0.06596-0.1657 0.01547-0.08818-0.02996-0.04424 0.1518-0.03809-0.01984-0.247 0.1418-0.05971-0.1528-0.3283-0.05069-0.2331 0.01537 0.1587 0.2152-0.05208 0.0248 0.1458 0.1488 0.1716 0.1875-0.3134 0.06854-0.1785 0.02956-0.3174 0.1736-0.2896-0.121-0.2579-0.1111-0.121-0.05267-0.1409 0.2301 0.3035 0.1528 0.1409 0.1676 0.08898-0.02063 0.244-0.1746-0.06894 0.2212 0.1319 0.1319-0.125-0.02827-0.0614 0.1359-0.3819-0.3601-0.1438 0.129 0.04067 0.1488 4.166e-4 0.1061 0.2143 0.06943 0.04652 0.2123 0.03938 0.1855 0.122 0.0079 0.08203 0.123 0.1756-0.1329 0.1141-0.1567-0.08203-0.08302-0.2321-0.1904 0.1984 0.1349 0.243 0.1151 0.02996-0.02043 0.249 0.1944 0.04642 0.123-0.07896-0.02708-0.1984 0.2083 0.2797 0.119-0.2123-0.08332-0.1647 0.01448-0.3115-0.02668-0.3065-0.1488-0.09463-0.1141 0.118 0.02827-0.1528 0.2063-0.3938 2e-3 -0.3045-0.07191-0.2262 0.09443 0.01359 0.09394-0.3105-0.02192-0.3462-0.03958 0.02678 0.1875-0.4097 0.2956-0.3244-0.0731-0.0865 0.04454-0.1885 0.08253-0.1448 0.02777 0.2123-0.01458 0.1458 0.1547 0.3214-6e-3 0.2232 0.1081-0.05148-0.0069-0.2529-0.09245-0.3442 0.05019-0.4454-5e-3 -0.4325 0.03968-0.3789-0.1567-0.4116 0.05723-0.1547 0.1438-0.4692-0.1359-0.00694 0.08501-0.07658-0.08233-0.2579-0.04771-0.3769 0.1885-0.1785-0.2698-0.4285-0.4315-0.2777-0.1686 0.02837-0.4414 0.3085-0.3938 8.332e-4 -0.4454 0.3501-0.3273-0.06318-0.3273 0.1022-0.49 0.0741-0.1299 0.2648 0.3144 0.2529-0.01577 0.1309 0.2311 0.2966-0.0368 0.04781-0.2212-0.2728-0.1547-0.3254-0.1379-0.01944-0.03055-0.08788-0.3184-0.0611-0.1766 0.2262 0.02262 0.1488-0.09205-0.1428-0.4047-0.00397-0.04068 0.1082-0.2351-0.09007-0.2827-0.04702-0.1409-0.1805-0.3432-0.1528-0.4226-0.2599-0.4156-0.2033-0.2053-0.05069-0.2877-0.118-0.02093-0.2341-0.1161-0.05932-0.2192 0.2212-0.2073-0.01776-0.1528-0.1418-0.3015-0.06666-0.2341-0.08134-0.09473-0.2331zm7.965 5.019 0.1418 0.09225zm-0.4097 0.8491-0.1121 0.2976 0.07013 0.1726 0.127-0.1944zm-1.627 1.498 0.01389 0.1518-0.1657 0.1736 0.2033 0.1299-0.1746 0.1776-0.1488 0.2807-0.1359 0.1716-0.08243 0.05426 0.08501 0.1518 0.1299-0.1756 0.02678 0.1776 0.2331-0.1805-0.05773-0.374 0.2024-0.367-0.09691-0.3382z" fill-rule="evenodd"/>
    <text x="61.321091" y="3.316817" font-size="2.5px" letter-spacing="0px" stroke-width=".377" word-spacing="0px" style="line-height:1.25" xml:space="preserve"><tspan x="61.321091" y="3.316817" stroke-width=".377">N</tspan></text>
    <text x="8.6105814" y="10.127793" font-size="1.73px" letter-spacing="0px" stroke-width=".265" word-spacing="0px" style="line-height:1.25" xml:space="preserve">
      <tspan x="8.6105814" y="10.127793" stroke-width=".265">Map data from www.thelist.tas.gov.au</tspan>
      <tspan x="8.6105814" y="12.290294">© State of Tasmania</tspan>
    </text>
    <path d="m5.695 8.821c0.4872 0 0.8982 0.1672 1.233 0.5018 0.3365 0.3366 0.5049 0.7475 0.5049 1.233 0 0.4873-0.1653 0.8931-0.4957 1.217-0.351 0.3449-0.765 0.5173-1.242 0.5173-0.4688 0-0.8756-0.1704-1.22-0.5111-0.3407-0.3407-0.5111-0.7484-0.5111-1.223 0-0.4749 0.1704-0.8858 0.5111-1.233 0.3345-0.3346 0.7412-0.5018 1.22-0.5018zm0.00618 0.3129c-0.3944 0-0.7279 0.1384-1 0.415-0.2829 0.2891-0.4244 0.6247-0.4244 1.007 0 0.3841 0.1404 0.7166 0.4212 0.9972 0.2808 0.2809 0.6153 0.4212 1.004 0.4212 0.3861 0 0.7228-0.1413 1.01-0.4243 0.2726-0.2622 0.4089-0.5936 0.4089-0.9943 0-0.3944-0.1384-0.7299-0.415-1.007-0.2767-0.2767-0.6112-0.415-1.004-0.415zm0.4646 0.9911v0.7093h-0.1982v0.8424h-0.539v-0.8424h-0.1982v-0.7093c0-0.03101 0.01084-0.05729 0.03247-0.07897 0.02174-0.02163 0.04808-0.03252 0.07898-0.03252h0.7125c0.02889 0 0.05475 0.01084 0.0774 0.03252 0.0226 0.02168 0.03404 0.04802 0.03404 0.07897zm-0.7094-0.446c0-0.163 0.08049-0.2447 0.2416-0.2447 0.1611 0 0.2416 0.08152 0.2416 0.2447 0 0.161-0.08055 0.2416-0.2416 0.2416-0.161 0-0.2416-0.08055-0.2416-0.2416z" stroke-width=".2646"/>
    <path d="m1.731 8.821c0.4852 0 0.8983 0.1694 1.239 0.508 0.163 0.1631 0.287 0.3495 0.3717 0.5591 0.08461 0.2096 0.1271 0.4321 0.1271 0.6675 0 0.2375-0.0419 0.46-0.1254 0.6674-0.08364 0.2075-0.2071 0.3908-0.3701 0.5498-0.1693 0.1672-0.3613 0.2953-0.5761 0.3841-0.2147 0.08879-0.4367 0.1332-0.6659 0.1332s-0.4486-0.0438-0.6582-0.1317c-0.2096-0.0877-0.3975-0.2147-0.5637-0.3809s-0.2927-0.3536-0.3794-0.5622c-0.08673-0.2086-0.1301-0.4284-0.1301-0.6597 0-0.2292 0.04385-0.4496 0.1316-0.6613 0.08776-0.2117 0.2153-0.4011 0.3825-0.5684 0.3304-0.3365 0.7361-0.5049 1.217-0.5049zm0.00629 0.3129c-0.3964 0-0.73 0.1384-1 0.415-0.1363 0.1384-0.2411 0.2937-0.3144 0.4662-0.07339 0.1724-0.11 0.3526-0.11 0.5405 0 0.1859 0.03659 0.365 0.11 0.5373 0.07334 0.1725 0.1781 0.3264 0.3144 0.4616 0.1363 0.1353 0.29 0.2384 0.4615 0.3098 0.1713 0.07122 0.351 0.1068 0.5389 0.1068 0.1858 0 0.3659-0.03605 0.5406-0.1084 0.1745-0.07236 0.3318-0.1765 0.4723-0.3128 0.2705-0.2643 0.4057-0.5957 0.4057-0.9943 0-0.192-0.03512-0.3737-0.1053-0.5451-0.07009-0.1714-0.1724-0.3241-0.3065-0.4585-0.2789-0.2788-0.6144-0.4182-1.007-0.4182zm-0.02174 1.134-0.2324 0.1208c-0.02482-0.05155-0.05523-0.08776-0.09133-0.1084-0.03615-0.0206-0.06971-0.03095-0.1007-0.03095-0.1548 0-0.2323 0.1022-0.2323 0.3066 0 0.09291 0.01962 0.1672 0.05881 0.2229 0.03924 0.05578 0.09708 0.08369 0.1735 0.08369 0.1012 0 0.1724-0.0496 0.2138-0.1487l0.2137 0.1084c-0.04542 0.08472-0.1084 0.1513-0.189 0.1998-0.08044 0.04857-0.1693 0.0728-0.2664 0.0728-0.1549 0-0.2799-0.04743-0.3748-0.1425-0.09497-0.09497-0.1424-0.2271-0.1424-0.3964 0-0.1652 0.04802-0.2963 0.144-0.3934 0.096-0.09703 0.2173-0.1456 0.364-0.1456 0.2148-1.08e-4 0.3686 0.08353 0.4615 0.2508zm1 0-0.2292 0.1208c-0.02477-0.05155-0.05529-0.08776-0.09139-0.1084-0.03621-0.0206-0.07084-0.03095-0.1037-0.03095-0.1549 0-0.2324 0.1022-0.2324 0.3066 0 0.09291 0.01968 0.1672 0.05886 0.2229 0.03919 0.05578 0.09697 0.08369 0.1735 0.08369 0.1011 0 0.1724-0.0496 0.2136-0.1487l0.2168 0.1084c-0.04743 0.08472-0.1115 0.1513-0.1919 0.1998-0.08055 0.04857-0.1683 0.0728-0.2633 0.0728-0.157 0-0.2823-0.04743-0.3762-0.1425-0.0941-0.09497-0.141-0.2271-0.141-0.3964 0-0.1652 0.04797-0.2963 0.1441-0.3934 0.09594-0.09703 0.2172-0.1456 0.3639-0.1456 0.2148-1.08e-4 0.3677 0.08353 0.4585 0.2508z" stroke-width=".2646"/>
    <path d="m61.37 5.722 0.9017-1.05 0.9017 1.05m-0.9017-1.01-2e-6 5.753" fill="none" stroke="#000" stroke-width=".2646px"/>
  </g>
</svg>
