#define ball20_width 20
#define ball20_height 20
static unsigned char ball20_bits[] = {
   0x00, 0x00, 0xf0, 0x00, 0x00, 0xf0, 0x00, 0x0f, 0xf0, 0xc0, 0x3f, 0xf0,
   0xe0, 0x7f, 0xf0, 0xf0, 0xff, 0xf0, 0xf8, 0xff, 0xf1, 0xf8, 0xff, 0xf1,
   0xfc, 0xff, 0xf3, 0xfc, 0xff, 0xf3, 0xfc, 0xff, 0xf3, 0xfc, 0xff, 0xf3,
   0xf8, 0xff, 0xf1, 0xf8, 0xff, 0xf1, 0xf0, 0xff, 0xf0, 0xe0, 0x7f, 0xf0,
   0xc0, 0x3f, 0xf0, 0x00, 0x0f, 0xf0, 0x00, 0x00, 0xf0, 0x00, 0x00, 0xf0};
