#define block20_width 20
#define block20_height 20
static unsigned char block20_bits[] = {
   0x00, 0x00, 0xf0, 0x00, 0x00, 0xf0, 0xfc, 0xff, 0xf3, 0xfc, 0xff, 0xf3,
   0xfc, 0xff, 0xf3, 0xfc, 0xff, 0xf3, 0xfc, 0xff, 0xf3, 0xfc, 0xff, 0xf3,
   0xfc, 0xff, 0xf3, 0xfc, 0xff, 0xf3, 0xfc, 0xff, 0xf3, 0xfc, 0xff, 0xf3,
   0xfc, 0xff, 0xf3, 0xfc, 0xff, 0xf3, 0xfc, 0xff, 0xf3, 0xfc, 0xff, 0xf3,
   0xfc, 0xff, 0xf3, 0xfc, 0xff, 0xf3, 0x00, 0x00, 0xf0, 0x00, 0x00, 0xf0};
