#define circle20_width 20
#define circle20_height 20
static unsigned char circle20_bits[] = {
   0xc0, 0x3f, 0x00, 0xf0, 0xff, 0x00, 0xf8, 0xf0, 0x01, 0x3c, 0xc0, 0x03,
   0x1e, 0x80, 0x07, 0x0e, 0x00, 0x07, 0x07, 0x00, 0x0e, 0x07, 0x00, 0x0e,
   0x03, 0x00, 0x0c, 0x03, 0x00, 0x0c, 0x03, 0x00, 0x0c, 0x03, 0x00, 0x0c,
   0x07, 0x00, 0x0e, 0x07, 0x00, 0x0e, 0x0e, 0x00, 0x07, 0x1e, 0x80, 0x07,
   0x3c, 0xc0, 0x03, 0xf8, 0xf0, 0x01, 0xf0, 0xff, 0x00, 0xc0, 0x3f, 0x00};
