#define q1_20_width 20
#define q1_20_height 20
static unsigned char q1_20_bits[] = {
   0xff, 0x03, 0x00, 0xff, 0x03, 0x00, 0xff, 0x03, 0x00, 0xff, 0x03, 0x00,
   0xff, 0x03, 0x00, 0xff, 0x03, 0x00, 0xff, 0x03, 0x00, 0xff, 0x03, 0x00,
   0xff, 0x03, 0x00, 0xff, 0x03, 0x00, 0x00, 0x00, 0x00, 0x00, 0x00, 0x00,
   0x00, 0x00, 0x00, 0x00, 0x00, 0x00, 0x00, 0x00, 0x00, 0x00, 0x00, 0x00,
   0x00, 0x00, 0x00, 0x00, 0x00, 0x00, 0x00, 0x00, 0x00, 0x00, 0x00, 0x00};
