#define q2_20_width 20
#define q2_20_height 20
static unsigned char q2_20_bits[] = {
   0x00, 0xfc, 0x0f, 0x00, 0xfc, 0x0f, 0x00, 0xfc, 0x0f, 0x00, 0xfc, 0x0f,
   0x00, 0xfc, 0x0f, 0x00, 0xfc, 0x0f, 0x00, 0xfc, 0x0f, 0x00, 0xfc, 0x0f,
   0x00, 0xfc, 0x0f, 0x00, 0xfc, 0x0f, 0x00, 0x00, 0x00, 0x00, 0x00, 0x00,
   0x00, 0x00, 0x00, 0x00, 0x00, 0x00, 0x00, 0x00, 0x00, 0x00, 0x00, 0x00,
   0x00, 0x00, 0x00, 0x00, 0x00, 0x00, 0x00, 0x00, 0x00, 0x00, 0x00, 0x00};
