#define q3_20_width 20
#define q3_20_height 20
static unsigned char q3_20_bits[] = {
   0x00, 0x00, 0x00, 0x00, 0x00, 0x00, 0x00, 0x00, 0x00, 0x00, 0x00, 0x00,
   0x00, 0x00, 0x00, 0x00, 0x00, 0x00, 0x00, 0x00, 0x00, 0x00, 0x00, 0x00,
   0x00, 0x00, 0x00, 0x00, 0x00, 0x00, 0x00, 0xfc, 0x0f, 0x00, 0xfc, 0x0f,
   0x00, 0xfc, 0x0f, 0x00, 0xfc, 0x0f, 0x00, 0xfc, 0x0f, 0x00, 0xfc, 0x0f,
   0x00, 0xfc, 0x0f, 0x00, 0xfc, 0x0f, 0x00, 0xfc, 0x0f, 0x00, 0xfc, 0x0f};
