#define q4_20_width 20
#define q4_20_height 20
static unsigned char q4_20_bits[] = {
   0x00, 0x00, 0x00, 0x00, 0x00, 0x00, 0x00, 0x00, 0x00, 0x00, 0x00, 0x00,
   0x00, 0x00, 0x00, 0x00, 0x00, 0x00, 0x00, 0x00, 0x00, 0x00, 0x00, 0x00,
   0x00, 0x00, 0x00, 0x00, 0x00, 0x00, 0xff, 0x03, 0x00, 0xff, 0x03, 0x00,
   0xff, 0x03, 0x00, 0xff, 0x03, 0x00, 0xff, 0x03, 0x00, 0xff, 0x03, 0x00,
   0xff, 0x03, 0x00, 0xff, 0x03, 0x00, 0xff, 0x03, 0x00, 0xff, 0x03, 0x00};
