#define square20_width 20
#define square20_height 20
static unsigned char square20_bits[] = {
   0xff, 0xff, 0x0f, 0xff, 0xff, 0x0f, 0xff, 0xff, 0x0f, 0x07, 0x00, 0x0e,
   0x07, 0x00, 0x0e, 0x07, 0x00, 0x0e, 0x07, 0x00, 0x0e, 0x07, 0x00, 0x0e,
   0x07, 0x00, 0x0e, 0x07, 0x00, 0x0e, 0x07, 0x00, 0x0e, 0x07, 0x00, 0x0e,
   0x07, 0x00, 0x0e, 0x07, 0x00, 0x0e, 0x07, 0x00, 0x0e, 0x07, 0x00, 0x0e,
   0x07, 0x00, 0x0e, 0xff, 0xff, 0x0f, 0xff, 0xff, 0x0f, 0xff, 0xff, 0x0f};
