<svg width="100" height="100" viewBox="0 0 50 50" xmlns="http://www.w3.org/2000/svg">
<defs>
    <style><![CDATA[
       .arete {
         stroke: black;
         stroke-width: 1px;
         fill: none;
       }
       .bord {
         stroke: black;
         stroke-width: 1px;
         fill: white;
       }
    ]]></style>
  </defs>

  <rect x="0" y="0" width="50" height="50" class="bord" />
  <path d="M 0 10 Q 0 10, 5 10 T 10 5 L 10 0" class="arete" />
  <path d="M 30 0 Q 30 0, 30 5 T 35 10 T 40 5 L 40 0" class="arete" />
  <path d="M 50 10 Q 50 10, 45 10 T 40 15 T 45 20 L 50 20" class="arete" />
  <path d="M 50 30 Q 50 30, 45 30 T 40 35 T 45 40 L 50 40" class="arete" />
  <path d="M 0 40 Q 0 40, 5 40 T 10 45 L 10 50" class="arete" />
  <path d="M 0 30 Q -10 30, 5 30 T 20 45 L 20 50" class="arete" />
  <path d="M 0 20 Q -20 20, 5 20 T 30 45 L 30 50" class="arete" />
  <path d="M 20 0 Q 20 -5, 20 5 T 30 25 T 40 45 L 40 50" class="arete" />
</svg>
