<svg width="100" height="100" viewBox="0 0 6 6" xmlns="http://www.w3.org/2000/svg">
<defs>
    <style><![CDATA[
       .aretes {
         stroke: black;
         stroke-width: .2px;
         fill: none;
       }
       .bord {
         stroke: black;
         stroke-width: .2px;
         fill: none;
       }
       .pair {
         stroke: none;
         fill: green;
       }
       .impair {
         stroke: none;
         fill: orange;
       }
    ]]></style>
  </defs>

  <path d="M 6 2 L 6 0 L 4 0 C 4 2, 2 2, 2 0 L 0 0 L 0 2 C 1 2, 5 2, 6 2 Z" class="pair" />
  <path d="M 0 4 C 1 4, 5 4, 6 4 L 6 6 L 4 6 C 4 4, 2 4, 2 6 L 0 6 Z" class="pair" />
  <path d="M 4 0 C 4 2, 2 2, 2, 0 Z" class="impair" />
  <path d="M 0 2 C 1 2, 5 2, 6 2 L 6 4 C 5 4, 1 4, 0 4 Z" class="impair" />
  <path d="M 2 6 C 2 4, 4 4, 4 6 Z" class="impair" />

  <path d="M 6 2 C 5 2, 1 2, 0 2" class="aretes" />
  <path d="M 4 0 C 4 2, 2 2, 2 0" class="aretes" />
  <path d="M 0 4 C 1 4, 5 4, 6 4" class="aretes" />
  <path d="M 2 6 C 2 4, 4 4, 4 6" class="aretes" />

  <rect cx="0" cy="0" width="6" height="6" class="bord" />
</svg>
