<svg width="100" height="100" viewBox="0 0 50 50" xmlns="http://www.w3.org/2000/svg">
<defs>
    <style><![CDATA[
       .arete {
         stroke: black;
         stroke-width: 1px;
         fill: none;
       }
       .bord {
         stroke: black;
         stroke-width: 1px;
         fill: white;
       }
    ]]></style>
  </defs>

  <rect x="0" y="0" width="50" height="50" class="bord" />
  <path d="M 0 10 Q 0 10, 5 10 T 10 15 T 5 20 L 0 20" class="arete" />
  <path d="M 0 30 Q 0 30, 5 30 T 10 35 T 5 40 L 0 40" class="arete" />
  <path d="M 10 50 Q 10 50, 10 45 T 15 40 T 20 45 L 20 50" class="arete" />
  <path d="M 20 0 Q 20 0 20 5 T 25 10 T 30 5 L 30 0" class="arete" />
  <path d="M 50 20 C 45 20 40 20 40 25 S 45 30 50 30" class="arete" />
  <path d="M 50 10 C 40 10 30 15 30 25 S 40 40 50 40 L 50 40" class="arete" />
  <path d="M 40 0 C 40 10 20 15 20 25 S 40 45 40 50" class="arete" />
  <path d="M 10 0 C 10 10 20 10 20 15 S 10 20 10 25 S 30 40 30 50" class="arete" />
</svg>
