<?xml version="1.0" encoding="UTF-8"?>
<svg xmlns="http://www.w3.org/2000/svg" xmlns:xlink="http://www.w3.org/1999/xlink" width="63.385pt" height="64.35pt" viewBox="0 0 63.385 64.35" version="1.1">
<defs>
<clipPath id="clip1">
  <path d="M 0 38 L 39 38 L 39 64.351562 L 0 64.351562 Z M 0 38 "/>
</clipPath>
<clipPath id="clip2">
  <path d="M 15 47 L 60 47 L 60 64.351562 L 15 64.351562 Z M 15 47 "/>
</clipPath>
<clipPath id="clip3">
  <path d="M 34 31 L 63.386719 31 L 63.386719 64.351562 L 34 64.351562 Z M 34 31 "/>
</clipPath>
<clipPath id="clip4">
  <path d="M 45 10 L 63.386719 10 L 63.386719 54 L 45 54 Z M 45 10 "/>
</clipPath>
<clipPath id="clip5">
  <path d="M 35 0 L 63.386719 0 L 63.386719 35 L 35 35 Z M 35 0 "/>
</clipPath>
<clipPath id="clip6">
  <path d="M 34 0 L 63.386719 0 L 63.386719 34 L 34 34 Z M 34 0 "/>
</clipPath>
<clipPath id="clip7">
  <path d="M 0 40 L 39 40 L 39 64.351562 L 0 64.351562 Z M 0 40 "/>
</clipPath>
<clipPath id="clip8">
  <path d="M 15 43 L 58 43 L 58 64.351562 L 15 64.351562 Z M 15 43 "/>
</clipPath>
<clipPath id="clip9">
  <path d="M 35 30 L 63.386719 30 L 63.386719 64.351562 L 35 64.351562 Z M 35 30 "/>
</clipPath>
<clipPath id="clip10">
  <path d="M 45 11 L 63.386719 11 L 63.386719 55 L 45 55 Z M 45 11 "/>
</clipPath>
</defs>
<g id="surface26">
<path style=" stroke:none;fill-rule:nonzero;fill:rgb(100%,100%,100%);fill-opacity:1;" d="M 45.300781 9.105469 L 36.902344 4.257812 C 33.835938 2.484375 30.238281 1.851562 26.746094 2.46875 L 26.5 1.070312 C 30.320312 0.398438 34.253906 1.09375 37.613281 3.03125 L 46.007812 7.878906 "/>
<path style="fill:none;stroke-width:0.79701;stroke-linecap:butt;stroke-linejoin:miter;stroke:rgb(0%,0%,0%);stroke-opacity:1;stroke-miterlimit:10;" d="M 13.318781 23.069531 L 4.920344 27.917187 C 1.853938 29.690625 -1.743719 30.323437 -5.235906 29.70625 M -5.482 31.104687 C -1.661687 31.776562 2.271906 31.08125 5.631281 29.14375 L 14.025813 24.296094 " transform="matrix(1,0,0,-1,31.982,32.175)"/>
<path style=" stroke:none;fill-rule:nonzero;fill:rgb(100%,100%,100%);fill-opacity:1;" d="M 27.355469 5.941406 L 17.808594 7.625 C 14.316406 8.242188 11.152344 10.066406 8.875 12.785156 L 7.789062 11.871094 C 10.28125 8.902344 13.742188 6.902344 17.5625 6.230469 L 27.109375 4.546875 "/>
<path style="fill:none;stroke-width:0.79701;stroke-linecap:butt;stroke-linejoin:miter;stroke:rgb(0%,0%,0%);stroke-opacity:1;stroke-miterlimit:10;" d="M -4.626531 26.233594 L -14.173406 24.55 C -17.665594 23.932812 -20.829656 22.108594 -23.107 19.389844 M -24.192937 20.303906 C -21.70075 23.272656 -18.239812 25.272656 -14.4195 25.944531 L -4.872625 27.628125 " transform="matrix(1,0,0,-1,31.982,32.175)"/>
<path style=" stroke:none;fill-rule:nonzero;fill:rgb(100%,100%,100%);fill-opacity:1;" d="M 11.578125 15.054688 L 5.34375 22.480469 C 3.066406 25.195312 1.816406 28.628906 1.816406 32.171875 L 0.398438 32.171875 C 0.398438 28.292969 1.765625 24.539062 4.257812 21.566406 L 10.492188 14.140625 "/>
<path style="fill:none;stroke-width:0.79701;stroke-linecap:butt;stroke-linejoin:miter;stroke:rgb(0%,0%,0%);stroke-opacity:1;stroke-miterlimit:10;" d="M -20.403875 17.120312 L -26.63825 9.694531 C -28.915594 6.979687 -30.165594 3.546094 -30.165594 0.003125 M -31.583562 0.003125 C -31.583562 3.882031 -30.216375 7.635937 -27.724187 10.608594 L -21.489812 18.034375 " transform="matrix(1,0,0,-1,31.982,32.175)"/>
<path style=" stroke:none;fill-rule:nonzero;fill:rgb(100%,100%,100%);fill-opacity:1;" d="M 5.34375 32.175781 L 5.34375 41.871094 C 5.34375 45.414062 6.59375 48.847656 8.871094 51.5625 L 7.789062 52.472656 C 5.292969 49.503906 3.925781 45.746094 3.925781 41.871094 L 3.925781 32.175781 "/>
<path style="fill:none;stroke-width:0.79701;stroke-linecap:butt;stroke-linejoin:miter;stroke:rgb(0%,0%,0%);stroke-opacity:1;stroke-miterlimit:10;" d="M -26.63825 -0.00078125 L -26.63825 -9.696094 C -26.63825 -13.239063 -25.38825 -16.672656 -23.110906 -19.3875 M -24.192937 -20.297656 C -26.689031 -17.328906 -28.056219 -13.571094 -28.056219 -9.696094 L -28.056219 -0.00078125 " transform="matrix(1,0,0,-1,31.982,32.175)"/>
<path style=" stroke:none;fill-rule:nonzero;fill:rgb(100%,100%,100%);fill-opacity:1;" d="M 11.578125 49.296875 L 17.808594 56.722656 C 20.085938 59.441406 23.25 61.265625 26.742188 61.882812 L 26.496094 63.277344 C 22.675781 62.605469 19.214844 60.605469 16.722656 57.636719 L 10.492188 50.207031 "/>
<g clip-path="url(#clip1)" clip-rule="nonzero">
<path style="fill:none;stroke-width:0.79701;stroke-linecap:butt;stroke-linejoin:miter;stroke:rgb(0%,0%,0%);stroke-opacity:1;stroke-miterlimit:10;" d="M -20.403875 -17.121875 L -14.173406 -24.547656 C -11.896062 -27.266406 -8.732 -29.090625 -5.239812 -29.707813 M -5.485906 -31.102344 C -9.306219 -30.430469 -12.767156 -28.430469 -15.259344 -25.461719 L -21.489812 -18.032031 " transform="matrix(1,0,0,-1,31.982,32.175)"/>
</g>
<path style=" stroke:none;fill-rule:nonzero;fill:rgb(100%,100%,100%);fill-opacity:1;" d="M 27.355469 58.40625 L 36.902344 60.089844 C 40.394531 60.707031 43.992188 60.074219 47.0625 58.300781 L 47.769531 59.527344 C 44.414062 61.464844 40.476562 62.160156 36.65625 61.488281 L 27.109375 59.804688 "/>
<g clip-path="url(#clip2)" clip-rule="nonzero">
<path style="fill:none;stroke-width:0.79701;stroke-linecap:butt;stroke-linejoin:miter;stroke:rgb(0%,0%,0%);stroke-opacity:1;stroke-miterlimit:10;" d="M -4.626531 -26.23125 L 4.920344 -27.914844 C 8.412531 -28.532031 12.010188 -27.899219 15.0805 -26.125781 M 15.787531 -27.352344 C 12.432063 -29.289844 8.494563 -29.985156 4.67425 -29.313281 L -4.872625 -27.629688 " transform="matrix(1,0,0,-1,31.982,32.175)"/>
</g>
<path style=" stroke:none;fill-rule:nonzero;fill:rgb(100%,100%,100%);fill-opacity:1;" d="M 45.300781 55.242188 L 53.695312 50.394531 C 56.765625 48.625 59.113281 45.824219 60.328125 42.492188 L 61.660156 42.976562 C 60.332031 46.621094 57.765625 49.683594 54.40625 51.621094 L 46.007812 56.472656 "/>
<g clip-path="url(#clip3)" clip-rule="nonzero">
<path style="fill:none;stroke-width:0.79701;stroke-linecap:butt;stroke-linejoin:miter;stroke:rgb(0%,0%,0%);stroke-opacity:1;stroke-miterlimit:10;" d="M 13.318781 -23.067188 L 21.713313 -18.219531 C 24.783625 -16.45 27.131281 -13.649219 28.346125 -10.317188 M 29.678156 -10.801563 C 28.350031 -14.446094 25.783625 -17.508594 22.42425 -19.446094 L 14.025813 -24.297656 " transform="matrix(1,0,0,-1,31.982,32.175)"/>
</g>
<path style=" stroke:none;fill-rule:nonzero;fill:rgb(100%,100%,100%);fill-opacity:1;" d="M 57.011719 41.285156 L 60.328125 32.175781 C 61.542969 28.84375 61.542969 25.191406 60.328125 21.859375 L 61.660156 21.375 C 62.988281 25.019531 62.988281 29.015625 61.660156 32.660156 L 58.34375 41.769531 "/>
<g clip-path="url(#clip4)" clip-rule="nonzero">
<path style="fill:none;stroke-width:0.79701;stroke-linecap:butt;stroke-linejoin:miter;stroke:rgb(0%,0%,0%);stroke-opacity:1;stroke-miterlimit:10;" d="M 25.029719 -9.110156 L 28.346125 -0.00078125 C 29.560969 3.33125 29.560969 6.983594 28.346125 10.315625 M 29.678156 10.8 C 31.006281 7.155469 31.006281 3.159375 29.678156 -0.485156 L 26.36175 -9.594531 " transform="matrix(1,0,0,-1,31.982,32.175)"/>
</g>
<path style=" stroke:none;fill-rule:nonzero;fill:rgb(100%,100%,100%);fill-opacity:1;" d="M 57.011719 23.066406 L 53.695312 13.953125 C 52.484375 10.621094 50.136719 7.824219 47.066406 6.050781 L 47.773438 4.824219 C 51.132812 6.761719 53.703125 9.824219 55.027344 13.46875 L 58.34375 22.578125 "/>
<g clip-path="url(#clip5)" clip-rule="nonzero">
<path style="fill:none;stroke-width:0.79701;stroke-linecap:butt;stroke-linejoin:miter;stroke:rgb(0%,0%,0%);stroke-opacity:1;stroke-miterlimit:10;" d="M 25.029719 9.108594 L 21.713313 18.221875 C 20.502375 21.553906 18.154719 24.350781 15.084406 26.124219 M 15.791438 27.350781 C 19.150813 25.413281 21.721125 22.350781 23.045344 18.70625 L 26.36175 9.596875 " transform="matrix(1,0,0,-1,31.982,32.175)"/>
</g>
<path style=" stroke:none;fill-rule:nonzero;fill:rgb(100%,100%,100%);fill-opacity:1;" d="M 54.40625 12.726562 C 57.765625 14.664062 60.332031 17.726562 61.660156 21.371094 L 60.328125 21.855469 C 59.113281 18.523438 56.765625 15.726562 53.695312 13.953125 L 45.300781 9.105469 L 46.007812 7.878906 Z M 54.40625 12.726562 "/>
<g clip-path="url(#clip6)" clip-rule="nonzero">
<path style="fill:none;stroke-width:0.79701;stroke-linecap:butt;stroke-linejoin:miter;stroke:rgb(0%,0%,0%);stroke-opacity:1;stroke-miterlimit:10;" d="M 14.025813 24.296094 L 22.42425 19.448437 C 25.783625 17.510937 28.350031 14.448437 29.678156 10.803906 M 28.346125 10.319531 C 27.131281 13.651562 24.783625 16.448437 21.713313 18.221875 L 13.318781 23.069531 " transform="matrix(1,0,0,-1,31.982,32.175)"/>
</g>
<path style=" stroke:none;fill-rule:nonzero;fill:rgb(100%,100%,100%);fill-opacity:1;" d="M 36.65625 2.863281 C 40.476562 2.1875 44.414062 2.882812 47.773438 4.824219 L 47.0625 6.050781 C 43.992188 4.277344 40.394531 3.640625 36.90625 4.257812 L 27.355469 5.941406 L 27.109375 4.546875 Z M 36.65625 2.863281 "/>
<path style="fill:none;stroke-width:0.79701;stroke-linecap:butt;stroke-linejoin:miter;stroke:rgb(0%,0%,0%);stroke-opacity:1;stroke-miterlimit:10;" d="M -4.872625 27.628125 L 4.67425 29.311719 C 8.494563 29.9875 12.432063 29.292187 15.791438 27.350781 M 15.0805 26.124219 C 12.010188 27.897656 8.412531 28.534375 4.92425 27.917187 L -4.626531 26.233594 " transform="matrix(1,0,0,-1,31.982,32.175)"/>
<path style=" stroke:none;fill-rule:nonzero;fill:rgb(100%,100%,100%);fill-opacity:1;" d="M 16.722656 6.714844 C 19.214844 3.746094 22.675781 1.746094 26.496094 1.074219 L 26.742188 2.46875 C 23.25 3.082031 20.085938 4.910156 17.808594 7.625 L 11.578125 15.054688 L 10.492188 14.140625 Z M 16.722656 6.714844 "/>
<path style="fill:none;stroke-width:0.79701;stroke-linecap:butt;stroke-linejoin:miter;stroke:rgb(0%,0%,0%);stroke-opacity:1;stroke-miterlimit:10;" d="M -21.489812 18.034375 L -15.259344 25.460156 C -12.767156 28.428906 -9.306219 30.428906 -5.485906 31.100781 M -5.239812 29.70625 C -8.732 29.092969 -11.896062 27.264844 -14.173406 24.55 L -20.403875 17.120312 " transform="matrix(1,0,0,-1,31.982,32.175)"/>
<path style=" stroke:none;fill-rule:nonzero;fill:rgb(100%,100%,100%);fill-opacity:1;" d="M 3.925781 22.480469 C 3.925781 18.601562 5.292969 14.847656 7.785156 11.875 L 8.871094 12.785156 C 6.59375 15.5 5.34375 18.933594 5.34375 22.480469 L 5.34375 32.175781 L 3.925781 32.175781 Z M 3.925781 22.480469 "/>
<path style="fill:none;stroke-width:0.79701;stroke-linecap:butt;stroke-linejoin:miter;stroke:rgb(0%,0%,0%);stroke-opacity:1;stroke-miterlimit:10;" d="M -28.056219 -0.00078125 L -28.056219 9.694531 C -28.056219 13.573437 -26.689031 17.327344 -24.196844 20.3 M -23.110906 19.389844 C -25.38825 16.675 -26.63825 13.241406 -26.63825 9.694531 L -26.63825 -0.00078125 " transform="matrix(1,0,0,-1,31.982,32.175)"/>
<path style=" stroke:none;fill-rule:nonzero;fill:rgb(100%,100%,100%);fill-opacity:1;" d="M 4.257812 42.78125 C 1.765625 39.808594 0.398438 36.054688 0.398438 32.175781 L 1.816406 32.175781 C 1.816406 35.722656 3.066406 39.15625 5.34375 41.871094 L 11.578125 49.296875 L 10.492188 50.207031 Z M 4.257812 42.78125 "/>
<path style="fill:none;stroke-width:0.79701;stroke-linecap:butt;stroke-linejoin:miter;stroke:rgb(0%,0%,0%);stroke-opacity:1;stroke-miterlimit:10;" d="M -21.489812 -18.032031 L -27.724187 -10.60625 C -30.216375 -7.633594 -31.583562 -3.879688 -31.583562 -0.00078125 M -30.165594 -0.00078125 C -30.165594 -3.547656 -28.915594 -6.98125 -26.63825 -9.696094 L -20.403875 -17.121875 " transform="matrix(1,0,0,-1,31.982,32.175)"/>
<path style=" stroke:none;fill-rule:nonzero;fill:rgb(100%,100%,100%);fill-opacity:1;" d="M 17.5625 58.121094 C 13.742188 57.445312 10.28125 55.449219 7.789062 52.476562 L 8.875 51.566406 C 11.152344 54.28125 14.316406 56.109375 17.808594 56.722656 L 27.355469 58.40625 L 27.109375 59.804688 Z M 17.5625 58.121094 "/>
<g clip-path="url(#clip7)" clip-rule="nonzero">
<path style="fill:none;stroke-width:0.79701;stroke-linecap:butt;stroke-linejoin:miter;stroke:rgb(0%,0%,0%);stroke-opacity:1;stroke-miterlimit:10;" d="M -4.872625 -27.629688 L -14.4195 -25.946094 C -18.239812 -25.270313 -21.70075 -23.274219 -24.192937 -20.301563 M -23.107 -19.391406 C -20.829656 -22.10625 -17.665594 -23.934375 -14.173406 -24.547656 L -4.626531 -26.23125 " transform="matrix(1,0,0,-1,31.982,32.175)"/>
</g>
<path style=" stroke:none;fill-rule:nonzero;fill:rgb(100%,100%,100%);fill-opacity:1;" d="M 37.613281 61.320312 C 34.253906 63.257812 30.320312 63.953125 26.5 63.277344 L 26.746094 61.882812 C 30.238281 62.496094 33.835938 61.863281 36.902344 60.089844 L 45.300781 55.242188 L 46.007812 56.472656 Z M 37.613281 61.320312 "/>
<g clip-path="url(#clip8)" clip-rule="nonzero">
<path style="fill:none;stroke-width:0.79701;stroke-linecap:butt;stroke-linejoin:miter;stroke:rgb(0%,0%,0%);stroke-opacity:1;stroke-miterlimit:10;" d="M 14.025813 -24.297656 L 5.631281 -29.145313 C 2.271906 -31.082813 -1.661687 -31.778125 -5.482 -31.102344 M -5.235906 -29.707813 C -1.743719 -30.321094 1.853938 -29.688281 4.920344 -27.914844 L 13.318781 -23.067188 " transform="matrix(1,0,0,-1,31.982,32.175)"/>
</g>
<path style=" stroke:none;fill-rule:nonzero;fill:rgb(100%,100%,100%);fill-opacity:1;" d="M 55.027344 50.878906 C 53.703125 54.523438 51.132812 57.585938 47.773438 59.527344 L 47.066406 58.296875 C 50.136719 56.527344 52.484375 53.726562 53.695312 50.394531 L 57.011719 41.285156 L 58.34375 41.769531 Z M 55.027344 50.878906 "/>
<g clip-path="url(#clip9)" clip-rule="nonzero">
<path style="fill:none;stroke-width:0.79701;stroke-linecap:butt;stroke-linejoin:miter;stroke:rgb(0%,0%,0%);stroke-opacity:1;stroke-miterlimit:10;" d="M 26.36175 -9.594531 L 23.045344 -18.703906 C 21.721125 -22.348438 19.150813 -25.410938 15.791438 -27.352344 M 15.084406 -26.121875 C 18.154719 -24.352344 20.502375 -21.551563 21.713313 -18.219531 L 25.029719 -9.110156 " transform="matrix(1,0,0,-1,31.982,32.175)"/>
</g>
<path style=" stroke:none;fill-rule:nonzero;fill:rgb(100%,100%,100%);fill-opacity:1;" d="M 61.660156 31.691406 C 62.988281 35.335938 62.988281 39.332031 61.660156 42.976562 L 60.328125 42.492188 C 61.542969 39.160156 61.542969 35.507812 60.328125 32.175781 L 57.011719 23.066406 L 58.34375 22.578125 Z M 61.660156 31.691406 "/>
<g clip-path="url(#clip10)" clip-rule="nonzero">
<path style="fill:none;stroke-width:0.79701;stroke-linecap:butt;stroke-linejoin:miter;stroke:rgb(0%,0%,0%);stroke-opacity:1;stroke-miterlimit:10;" d="M 26.36175 9.596875 L 29.678156 0.483594 C 31.006281 -3.160938 31.006281 -7.157031 29.678156 -10.801563 M 28.346125 -10.317188 C 29.560969 -6.985156 29.560969 -3.332813 28.346125 -0.00078125 L 25.029719 9.108594 " transform="matrix(1,0,0,-1,31.982,32.175)"/>
</g>
</g>
</svg>
