<?xml version="1.0" encoding="UTF-8"?>
<svg xmlns="http://www.w3.org/2000/svg" xmlns:xlink="http://www.w3.org/1999/xlink" width="133.366pt" height="136.785pt" viewBox="0 0 133.366 136.785" version="1.1">
<defs>
<clipPath id="clip1">
  <path d="M 71 62 L 133.367188 62 L 133.367188 108 L 71 108 Z M 71 62 "/>
</clipPath>
<clipPath id="clip2">
  <path d="M 71 29 L 133.367188 29 L 133.367188 75 L 71 75 Z M 71 29 "/>
</clipPath>
<clipPath id="clip3">
  <path d="M 50 77 L 107 77 L 107 136.785156 L 50 136.785156 Z M 50 77 "/>
</clipPath>
</defs>
<g id="surface96">
<path style=" stroke:none;fill-rule:nonzero;fill:rgb(100%,100%,100%);fill-opacity:1;" d="M 95.449219 56.09375 L 89.523438 43.796875 C 77.226562 18.257812 84.929688 6.816406 57.296875 13.121094 L 56.035156 7.59375 C 86.433594 0.660156 79.875 10.691406 94.632812 41.335938 L 100.554688 53.636719 "/>
<path style="fill:none;stroke-width:0.3985;stroke-linecap:butt;stroke-linejoin:miter;stroke:rgb(0%,0%,0%);stroke-opacity:1;stroke-miterlimit:10;" d="M 25.539219 12.29925 L 19.613437 24.596125 C 7.316562 50.135188 15.019687 61.576594 -12.613125 55.271906 " transform="matrix(1,0,0,-1,69.91,68.393)"/>
<path style="fill:none;stroke-width:0.3985;stroke-linecap:butt;stroke-linejoin:miter;stroke:rgb(0%,0%,0%);stroke-opacity:1;stroke-miterlimit:10;" d="M -13.874844 60.79925 C 16.523594 67.732844 9.965 57.701594 24.722812 27.057063 L 30.644687 14.756281 " transform="matrix(1,0,0,-1,69.91,68.393)"/>
<path style=" stroke:none;fill-rule:nonzero;fill:rgb(100%,100%,100%);fill-opacity:1;" d="M 76.21875 40.757812 L 62.910156 37.71875 C 35.277344 31.414062 31.132812 18.257812 18.832031 43.796875 L 13.726562 41.335938 C 27.253906 13.246094 31.011719 24.625 64.171875 32.195312 L 77.480469 35.230469 "/>
<path style="fill:none;stroke-width:0.3985;stroke-linecap:butt;stroke-linejoin:miter;stroke:rgb(0%,0%,0%);stroke-opacity:1;stroke-miterlimit:10;" d="M 6.30875 27.635188 L -6.999844 30.67425 C -34.632656 36.978938 -38.777188 50.135188 -51.077969 24.596125 " transform="matrix(1,0,0,-1,69.91,68.393)"/>
<path style="fill:none;stroke-width:0.3985;stroke-linecap:butt;stroke-linejoin:miter;stroke:rgb(0%,0%,0%);stroke-opacity:1;stroke-miterlimit:10;" d="M -56.183438 27.057063 C -42.656094 55.146906 -38.898281 43.768 -5.738125 36.197688 L 7.570469 33.162531 " transform="matrix(1,0,0,-1,69.91,68.393)"/>
<path style=" stroke:none;fill-rule:nonzero;fill:rgb(100%,100%,100%);fill-opacity:1;" d="M 52.238281 46.230469 L 41.566406 54.742188 C 19.402344 72.417969 6.535156 67.453125 18.832031 92.988281 L 13.726562 95.449219 C 0.199219 67.359375 11.4375 71.519531 38.03125 50.3125 L 48.703125 41.800781 "/>
<path style="fill:none;stroke-width:0.3985;stroke-linecap:butt;stroke-linejoin:miter;stroke:rgb(0%,0%,0%);stroke-opacity:1;stroke-miterlimit:10;" d="M -17.671719 22.162531 L -28.343594 13.650813 C -50.507656 -4.024969 -63.374844 0.939875 -51.077969 -24.595281 " transform="matrix(1,0,0,-1,69.91,68.393)"/>
<path style="fill:none;stroke-width:0.3985;stroke-linecap:butt;stroke-linejoin:miter;stroke:rgb(0%,0%,0%);stroke-opacity:1;stroke-miterlimit:10;" d="M -56.183438 -27.056219 C -69.710781 1.033625 -58.4725 -3.126531 -31.87875 18.0805 L -21.206875 26.592219 " transform="matrix(1,0,0,-1,69.91,68.393)"/>
<path style=" stroke:none;fill-rule:nonzero;fill:rgb(100%,100%,100%);fill-opacity:1;" d="M 41.5625 68.394531 L 41.566406 82.042969 C 41.566406 110.390625 29.660156 117.355469 57.296875 123.664062 L 56.035156 129.1875 C 25.636719 122.25 35.894531 116.058594 35.894531 82.042969 L 35.894531 68.394531 "/>
<path style="fill:none;stroke-width:0.3985;stroke-linecap:butt;stroke-linejoin:miter;stroke:rgb(0%,0%,0%);stroke-opacity:1;stroke-miterlimit:10;" d="M -28.3475 -0.00153125 L -28.343594 -13.649969 C -28.343594 -41.997625 -40.249844 -48.962469 -12.613125 -55.271062 " transform="matrix(1,0,0,-1,69.91,68.393)"/>
<path style="fill:none;stroke-width:0.3985;stroke-linecap:butt;stroke-linejoin:miter;stroke:rgb(0%,0%,0%);stroke-opacity:1;stroke-miterlimit:10;" d="M -13.874844 -60.7945 C -44.273281 -53.857 -34.015469 -47.665594 -34.015469 -13.649969 L -34.015469 -0.00153125 " transform="matrix(1,0,0,-1,69.91,68.393)"/>
<path style=" stroke:none;fill-rule:nonzero;fill:rgb(100%,100%,100%);fill-opacity:1;" d="M 52.238281 90.554688 L 62.910156 99.066406 C 85.070312 116.738281 83.09375 130.386719 105.257812 112.714844 L 108.789062 117.148438 C 84.414062 136.585938 85.96875 124.703125 59.375 103.496094 L 48.703125 94.988281 "/>
<path style="fill:none;stroke-width:0.3985;stroke-linecap:butt;stroke-linejoin:miter;stroke:rgb(0%,0%,0%);stroke-opacity:1;stroke-miterlimit:10;" d="M -17.671719 -22.161687 L -6.999844 -30.673406 C 15.160312 -48.345281 13.18375 -61.993719 35.347812 -44.321844 " transform="matrix(1,0,0,-1,69.91,68.393)"/>
<path style="fill:none;stroke-width:0.3985;stroke-linecap:butt;stroke-linejoin:miter;stroke:rgb(0%,0%,0%);stroke-opacity:1;stroke-miterlimit:10;" d="M 38.879062 -48.755437 C 14.504062 -68.192937 16.05875 -56.310125 -10.535 -35.103094 L -21.206875 -26.595281 " transform="matrix(1,0,0,-1,69.91,68.393)"/>
<path style=" stroke:none;fill-rule:nonzero;fill:rgb(100%,100%,100%);fill-opacity:1;" d="M 76.21875 96.027344 L 89.527344 92.988281 C 117.160156 86.683594 126.605469 96.738281 126.605469 68.394531 L 132.273438 68.394531 C 132.273438 99.574219 123.949219 90.949219 90.785156 98.515625 L 77.476562 101.554688 "/>
<path style="fill:none;stroke-width:0.3985;stroke-linecap:butt;stroke-linejoin:miter;stroke:rgb(0%,0%,0%);stroke-opacity:1;stroke-miterlimit:10;" d="M 6.30875 -27.634344 L 19.617344 -24.595281 C 47.250156 -18.290594 56.695469 -28.345281 56.695469 -0.00153125 " transform="matrix(1,0,0,-1,69.91,68.393)"/>
<g clip-path="url(#clip1)" clip-rule="nonzero">
<path style="fill:none;stroke-width:0.3985;stroke-linecap:butt;stroke-linejoin:miter;stroke:rgb(0%,0%,0%);stroke-opacity:1;stroke-miterlimit:10;" d="M 62.363437 -0.00153125 C 62.363437 -31.181219 54.039219 -22.556219 20.875156 -30.122625 L 7.566562 -33.161687 " transform="matrix(1,0,0,-1,69.91,68.393)"/>
</g>
<path style=" stroke:none;fill-rule:nonzero;fill:rgb(100%,100%,100%);fill-opacity:1;" d="M 95.449219 80.691406 L 101.371094 68.394531 C 113.671875 42.855469 127.417969 41.742188 105.253906 24.070312 L 108.789062 19.636719 C 133.167969 39.078125 121.238281 40.207031 106.480469 70.851562 L 100.554688 83.152344 "/>
<path style="fill:none;stroke-width:0.3985;stroke-linecap:butt;stroke-linejoin:miter;stroke:rgb(0%,0%,0%);stroke-opacity:1;stroke-miterlimit:10;" d="M 25.539219 -12.298406 L 31.461094 -0.00153125 C 43.761875 25.537531 57.507969 26.650813 35.343906 44.322688 " transform="matrix(1,0,0,-1,69.91,68.393)"/>
<path style="fill:none;stroke-width:0.3985;stroke-linecap:butt;stroke-linejoin:miter;stroke:rgb(0%,0%,0%);stroke-opacity:1;stroke-miterlimit:10;" d="M 38.879062 48.756281 C 63.257969 29.314875 51.328281 28.185969 36.570469 -2.458562 L 30.644687 -14.759344 " transform="matrix(1,0,0,-1,69.91,68.393)"/>
<path style=" stroke:none;fill-rule:nonzero;fill:rgb(100%,100%,100%);fill-opacity:1;" d="M 95.449219 56.09375 L 101.371094 68.394531 C 113.671875 93.929688 127.417969 95.042969 105.253906 112.714844 L 108.789062 117.148438 C 133.167969 97.707031 121.238281 96.578125 106.480469 65.933594 L 100.554688 53.636719 "/>
<path style="fill:none;stroke-width:0.3985;stroke-linecap:butt;stroke-linejoin:miter;stroke:rgb(0%,0%,0%);stroke-opacity:1;stroke-miterlimit:10;" d="M 25.539219 12.29925 L 31.461094 -0.00153125 C 43.761875 -25.536687 57.507969 -26.649969 35.343906 -44.321844 " transform="matrix(1,0,0,-1,69.91,68.393)"/>
<path style="fill:none;stroke-width:0.3985;stroke-linecap:butt;stroke-linejoin:miter;stroke:rgb(0%,0%,0%);stroke-opacity:1;stroke-miterlimit:10;" d="M 30.644687 14.756281 L 36.570469 2.459406 C 51.328281 -28.185125 63.257969 -29.314031 38.879062 -48.755437 " transform="matrix(1,0,0,-1,69.91,68.393)"/>
<path style=" stroke:none;fill-rule:nonzero;fill:rgb(100%,100%,100%);fill-opacity:1;" d="M 76.21875 40.757812 L 89.523438 43.796875 C 117.160156 50.101562 126.605469 40.046875 126.605469 68.394531 L 132.273438 68.394531 C 132.273438 37.210938 123.949219 45.835938 90.785156 38.269531 L 77.480469 35.230469 "/>
<path style="fill:none;stroke-width:0.3985;stroke-linecap:butt;stroke-linejoin:miter;stroke:rgb(0%,0%,0%);stroke-opacity:1;stroke-miterlimit:10;" d="M 6.30875 27.635188 L 19.613437 24.596125 C 47.250156 18.291438 56.695469 28.346125 56.695469 -0.00153125 " transform="matrix(1,0,0,-1,69.91,68.393)"/>
<g clip-path="url(#clip2)" clip-rule="nonzero">
<path style="fill:none;stroke-width:0.3985;stroke-linecap:butt;stroke-linejoin:miter;stroke:rgb(0%,0%,0%);stroke-opacity:1;stroke-miterlimit:10;" d="M 7.570469 33.162531 L 20.875156 30.123469 C 54.039219 22.557063 62.363437 31.182063 62.363437 -0.00153125 " transform="matrix(1,0,0,-1,69.91,68.393)"/>
</g>
<path style=" stroke:none;fill-rule:nonzero;fill:rgb(100%,100%,100%);fill-opacity:1;" d="M 52.238281 46.230469 L 62.910156 37.71875 C 85.070312 20.046875 83.09375 6.398438 105.253906 24.070312 L 108.789062 19.636719 C 84.414062 0.199219 85.96875 12.082031 59.375 33.289062 L 48.703125 41.800781 "/>
<path style="fill:none;stroke-width:0.3985;stroke-linecap:butt;stroke-linejoin:miter;stroke:rgb(0%,0%,0%);stroke-opacity:1;stroke-miterlimit:10;" d="M -17.671719 22.162531 L -6.999844 30.67425 C 15.160312 48.346125 13.18375 61.994563 35.343906 44.322688 " transform="matrix(1,0,0,-1,69.91,68.393)"/>
<path style="fill:none;stroke-width:0.3985;stroke-linecap:butt;stroke-linejoin:miter;stroke:rgb(0%,0%,0%);stroke-opacity:1;stroke-miterlimit:10;" d="M -21.206875 26.592219 L -10.535 35.103938 C 16.05875 56.310969 14.504062 68.193781 38.879062 48.756281 " transform="matrix(1,0,0,-1,69.91,68.393)"/>
<path style=" stroke:none;fill-rule:nonzero;fill:rgb(100%,100%,100%);fill-opacity:1;" d="M 41.5625 68.394531 L 41.566406 54.742188 C 41.566406 26.394531 29.660156 19.429688 57.296875 13.121094 L 56.035156 7.59375 C 25.636719 14.53125 35.894531 20.726562 35.894531 54.742188 L 35.894531 68.394531 "/>
<path style="fill:none;stroke-width:0.3985;stroke-linecap:butt;stroke-linejoin:miter;stroke:rgb(0%,0%,0%);stroke-opacity:1;stroke-miterlimit:10;" d="M -28.3475 -0.00153125 L -28.343594 13.650813 C -28.343594 41.998469 -40.249844 48.963313 -12.613125 55.271906 " transform="matrix(1,0,0,-1,69.91,68.393)"/>
<path style="fill:none;stroke-width:0.3985;stroke-linecap:butt;stroke-linejoin:miter;stroke:rgb(0%,0%,0%);stroke-opacity:1;stroke-miterlimit:10;" d="M -34.015469 -0.00153125 L -34.015469 13.650813 C -34.015469 47.666438 -44.273281 53.86175 -13.874844 60.79925 " transform="matrix(1,0,0,-1,69.91,68.393)"/>
<path style=" stroke:none;fill-rule:nonzero;fill:rgb(100%,100%,100%);fill-opacity:1;" d="M 52.238281 90.554688 L 41.566406 82.042969 C 19.402344 64.371094 6.535156 69.335938 18.832031 43.796875 L 13.726562 41.335938 C 0.199219 69.429688 11.4375 65.269531 38.03125 86.476562 L 48.703125 94.988281 "/>
<path style="fill:none;stroke-width:0.3985;stroke-linecap:butt;stroke-linejoin:miter;stroke:rgb(0%,0%,0%);stroke-opacity:1;stroke-miterlimit:10;" d="M -17.671719 -22.161687 L -28.343594 -13.649969 C -50.507656 4.021906 -63.374844 -0.942937 -51.077969 24.596125 " transform="matrix(1,0,0,-1,69.91,68.393)"/>
<path style="fill:none;stroke-width:0.3985;stroke-linecap:butt;stroke-linejoin:miter;stroke:rgb(0%,0%,0%);stroke-opacity:1;stroke-miterlimit:10;" d="M -21.206875 -26.595281 L -31.87875 -18.083562 C -58.4725 3.123469 -69.710781 -1.036687 -56.183438 27.057063 " transform="matrix(1,0,0,-1,69.91,68.393)"/>
<path style=" stroke:none;fill-rule:nonzero;fill:rgb(100%,100%,100%);fill-opacity:1;" d="M 76.21875 96.027344 L 62.910156 99.066406 C 35.273438 105.371094 31.132812 118.527344 18.832031 92.988281 L 13.726562 95.449219 C 27.253906 123.539062 31.007812 112.160156 64.171875 104.59375 L 77.476562 101.554688 "/>
<path style="fill:none;stroke-width:0.3985;stroke-linecap:butt;stroke-linejoin:miter;stroke:rgb(0%,0%,0%);stroke-opacity:1;stroke-miterlimit:10;" d="M 6.30875 -27.634344 L -6.999844 -30.673406 C -34.636563 -36.978094 -38.777188 -50.134344 -51.077969 -24.595281 " transform="matrix(1,0,0,-1,69.91,68.393)"/>
<path style="fill:none;stroke-width:0.3985;stroke-linecap:butt;stroke-linejoin:miter;stroke:rgb(0%,0%,0%);stroke-opacity:1;stroke-miterlimit:10;" d="M 7.566562 -33.161687 L -5.738125 -36.20075 C -38.902188 -43.767156 -42.656094 -55.146062 -56.183438 -27.056219 " transform="matrix(1,0,0,-1,69.91,68.393)"/>
<path style=" stroke:none;fill-rule:nonzero;fill:rgb(100%,100%,100%);fill-opacity:1;" d="M 95.449219 80.691406 L 89.527344 92.988281 C 77.226562 118.527344 84.929688 129.96875 57.296875 123.664062 L 56.035156 129.1875 C 86.433594 136.128906 79.875 126.09375 94.632812 95.449219 L 100.554688 83.152344 "/>
<path style="fill:none;stroke-width:0.3985;stroke-linecap:butt;stroke-linejoin:miter;stroke:rgb(0%,0%,0%);stroke-opacity:1;stroke-miterlimit:10;" d="M 25.539219 -12.298406 L 19.617344 -24.595281 C 7.316562 -50.134344 15.019687 -61.57575 -12.613125 -55.271062 " transform="matrix(1,0,0,-1,69.91,68.393)"/>
<g clip-path="url(#clip3)" clip-rule="nonzero">
<path style="fill:none;stroke-width:0.3985;stroke-linecap:butt;stroke-linejoin:miter;stroke:rgb(0%,0%,0%);stroke-opacity:1;stroke-miterlimit:10;" d="M 30.644687 -14.759344 L 24.722812 -27.056219 C 9.965 -57.70075 16.523594 -67.735906 -13.874844 -60.7945 " transform="matrix(1,0,0,-1,69.91,68.393)"/>
</g>
</g>
</svg>
