<?xml version="1.0" encoding="UTF-8"?>
<svg xmlns="http://www.w3.org/2000/svg" xmlns:xlink="http://www.w3.org/1999/xlink" width="113.592pt" height="117.578pt" viewBox="0 0 113.592 117.578" version="1.1">
<defs>
<clipPath id="clip1">
  <path d="M 8 53 L 46 53 L 46 117.578125 L 8 117.578125 Z M 8 53 "/>
</clipPath>
<clipPath id="clip2">
  <path d="M 85 19 L 113.59375 19 L 113.59375 90 L 85 90 Z M 85 19 "/>
</clipPath>
<clipPath id="clip3">
  <path d="M 85 28 L 113.59375 28 L 113.59375 98 L 85 98 Z M 85 28 "/>
</clipPath>
<clipPath id="clip4">
  <path d="M 33 78 L 97 78 L 97 117.578125 L 33 117.578125 Z M 33 78 "/>
</clipPath>
</defs>
<g id="surface46">
<path style=" stroke:none;fill-rule:nonzero;fill:rgb(100%,100%,100%);fill-opacity:1;" d="M 79.824219 42.128906 L 67.71875 25.464844 C 61.054688 16.292969 54.535156 14.847656 43.753906 18.351562 L 39.371094 4.871094 C 53.75 0.199219 69.1875 3.375 79.1875 17.136719 L 91.292969 33.796875 "/>
<path style="fill:none;stroke-width:0.3985;stroke-linecap:butt;stroke-linejoin:miter;stroke:rgb(0%,0%,0%);stroke-opacity:1;stroke-miterlimit:10;" d="M 22.932219 16.660094 L 10.82675 33.324156 C 4.162687 42.496031 -2.356844 43.941344 -13.138094 40.437437 " transform="matrix(1,0,0,-1,56.892,58.789)"/>
<path style="fill:none;stroke-width:0.3985;stroke-linecap:butt;stroke-linejoin:miter;stroke:rgb(0%,0%,0%);stroke-opacity:1;stroke-miterlimit:10;" d="M -17.520906 53.917906 C -3.142 58.589781 12.2955 55.414 22.2955 41.652281 L 34.400969 24.992125 " transform="matrix(1,0,0,-1,56.892,58.789)"/>
<path style=" stroke:none;fill-rule:nonzero;fill:rgb(100%,100%,100%);fill-opacity:1;" d="M 48.132812 31.828125 L 28.546875 38.195312 C 17.761719 41.699219 14.371094 47.449219 14.371094 58.789062 L 0.199219 58.789062 C 0.199219 43.671875 7.992188 29.96875 24.164062 24.714844 L 43.753906 18.351562 "/>
<path style="fill:none;stroke-width:0.3985;stroke-linecap:butt;stroke-linejoin:miter;stroke:rgb(0%,0%,0%);stroke-opacity:1;stroke-miterlimit:10;" d="M -8.759188 26.960875 L -28.345125 20.593687 C -39.130281 17.089781 -42.520906 11.339781 -42.520906 -0.0000625 " transform="matrix(1,0,0,-1,56.892,58.789)"/>
<path style="fill:none;stroke-width:0.3985;stroke-linecap:butt;stroke-linejoin:miter;stroke:rgb(0%,0%,0%);stroke-opacity:1;stroke-miterlimit:10;" d="M -56.692781 -0.0000625 C -56.692781 15.117125 -48.899813 28.82025 -32.727938 34.074156 L -13.138094 40.437437 " transform="matrix(1,0,0,-1,56.892,58.789)"/>
<path style=" stroke:none;fill-rule:nonzero;fill:rgb(100%,100%,100%);fill-opacity:1;" d="M 28.546875 58.789062 L 28.546875 79.382812 C 28.546875 90.722656 32.96875 95.726562 43.753906 99.226562 L 39.371094 112.707031 C 24.996094 108.035156 14.371094 96.390625 14.371094 79.382812 L 14.371094 58.789062 "/>
<path style="fill:none;stroke-width:0.3985;stroke-linecap:butt;stroke-linejoin:miter;stroke:rgb(0%,0%,0%);stroke-opacity:1;stroke-miterlimit:10;" d="M -28.345125 -0.0000625 L -28.345125 -20.593813 C -28.345125 -31.933656 -23.92325 -36.937563 -13.138094 -40.437563 " transform="matrix(1,0,0,-1,56.892,58.789)"/>
<g clip-path="url(#clip1)" clip-rule="nonzero">
<path style="fill:none;stroke-width:0.3985;stroke-linecap:butt;stroke-linejoin:miter;stroke:rgb(0%,0%,0%);stroke-opacity:1;stroke-miterlimit:10;" d="M -17.520906 -53.918031 C -31.895906 -49.246156 -42.520906 -37.601625 -42.520906 -20.593813 L -42.520906 -0.0000625 " transform="matrix(1,0,0,-1,56.892,58.789)"/>
</g>
<path style=" stroke:none;fill-rule:nonzero;fill:rgb(100%,100%,100%);fill-opacity:1;" d="M 48.132812 85.75 L 67.71875 92.113281 C 78.503906 95.617188 84.628906 92.953125 91.292969 83.78125 L 102.757812 92.113281 C 93.871094 104.34375 79.515625 110.847656 63.339844 105.589844 L 43.753906 99.226562 "/>
<path style="fill:none;stroke-width:0.3985;stroke-linecap:butt;stroke-linejoin:miter;stroke:rgb(0%,0%,0%);stroke-opacity:1;stroke-miterlimit:10;" d="M -8.759188 -26.961 L 10.82675 -33.324281 C 21.611906 -36.828188 27.736906 -34.164125 34.400969 -24.99225 " transform="matrix(1,0,0,-1,56.892,58.789)"/>
<path style="fill:none;stroke-width:0.3985;stroke-linecap:butt;stroke-linejoin:miter;stroke:rgb(0%,0%,0%);stroke-opacity:1;stroke-miterlimit:10;" d="M 45.865812 -33.324281 C 36.979094 -45.55475 22.623625 -52.058656 6.447844 -46.800844 L -13.138094 -40.437563 " transform="matrix(1,0,0,-1,56.892,58.789)"/>
<path style=" stroke:none;fill-rule:nonzero;fill:rgb(100%,100%,100%);fill-opacity:1;" d="M 79.824219 75.449219 L 91.929688 58.789062 C 98.59375 49.617188 97.957031 42.96875 91.292969 33.796875 L 102.757812 25.464844 C 111.644531 37.695312 113.394531 53.359375 103.398438 67.121094 L 91.292969 83.78125 "/>
<path style="fill:none;stroke-width:0.3985;stroke-linecap:butt;stroke-linejoin:miter;stroke:rgb(0%,0%,0%);stroke-opacity:1;stroke-miterlimit:10;" d="M 22.932219 -16.660219 L 35.037687 -0.0000625 C 41.70175 9.171812 41.065031 15.82025 34.400969 24.992125 " transform="matrix(1,0,0,-1,56.892,58.789)"/>
<g clip-path="url(#clip2)" clip-rule="nonzero">
<path style="fill:none;stroke-width:0.3985;stroke-linecap:butt;stroke-linejoin:miter;stroke:rgb(0%,0%,0%);stroke-opacity:1;stroke-miterlimit:10;" d="M 45.865812 33.324156 C 54.752531 21.093687 56.502531 5.429625 46.506437 -8.332094 L 34.400969 -24.99225 " transform="matrix(1,0,0,-1,56.892,58.789)"/>
</g>
<path style=" stroke:none;fill-rule:nonzero;fill:rgb(100%,100%,100%);fill-opacity:1;" d="M 79.824219 42.128906 L 91.929688 58.789062 C 98.59375 67.960938 97.957031 74.609375 91.292969 83.78125 L 102.757812 92.113281 C 111.644531 79.882812 113.394531 64.21875 103.398438 50.457031 L 91.292969 33.796875 "/>
<path style="fill:none;stroke-width:0.3985;stroke-linecap:butt;stroke-linejoin:miter;stroke:rgb(0%,0%,0%);stroke-opacity:1;stroke-miterlimit:10;" d="M 22.932219 16.660094 L 35.037687 -0.0000625 C 41.70175 -9.171938 41.065031 -15.820375 34.400969 -24.99225 " transform="matrix(1,0,0,-1,56.892,58.789)"/>
<g clip-path="url(#clip3)" clip-rule="nonzero">
<path style="fill:none;stroke-width:0.3985;stroke-linecap:butt;stroke-linejoin:miter;stroke:rgb(0%,0%,0%);stroke-opacity:1;stroke-miterlimit:10;" d="M 34.400969 24.992125 L 46.506437 8.331969 C 56.502531 -5.42975 54.752531 -21.093813 45.865812 -33.324281 " transform="matrix(1,0,0,-1,56.892,58.789)"/>
</g>
<path style=" stroke:none;fill-rule:nonzero;fill:rgb(100%,100%,100%);fill-opacity:1;" d="M 48.132812 31.828125 L 67.71875 25.464844 C 78.503906 21.960938 84.628906 24.625 91.292969 33.796875 L 102.757812 25.464844 C 93.871094 13.234375 79.515625 6.730469 63.339844 11.984375 L 43.753906 18.351562 "/>
<path style="fill:none;stroke-width:0.3985;stroke-linecap:butt;stroke-linejoin:miter;stroke:rgb(0%,0%,0%);stroke-opacity:1;stroke-miterlimit:10;" d="M -8.759188 26.960875 L 10.82675 33.324156 C 21.611906 36.828062 27.736906 34.164 34.400969 24.992125 " transform="matrix(1,0,0,-1,56.892,58.789)"/>
<path style="fill:none;stroke-width:0.3985;stroke-linecap:butt;stroke-linejoin:miter;stroke:rgb(0%,0%,0%);stroke-opacity:1;stroke-miterlimit:10;" d="M -13.138094 40.437437 L 6.447844 46.804625 C 22.623625 52.058531 36.979094 45.554625 45.865812 33.324156 " transform="matrix(1,0,0,-1,56.892,58.789)"/>
<path style=" stroke:none;fill-rule:nonzero;fill:rgb(100%,100%,100%);fill-opacity:1;" d="M 28.546875 58.789062 L 28.546875 38.195312 C 28.546875 26.855469 32.96875 21.851562 43.753906 18.351562 L 39.371094 4.871094 C 24.996094 9.542969 14.371094 21.1875 14.371094 38.195312 L 14.371094 58.789062 "/>
<path style="fill:none;stroke-width:0.3985;stroke-linecap:butt;stroke-linejoin:miter;stroke:rgb(0%,0%,0%);stroke-opacity:1;stroke-miterlimit:10;" d="M -28.345125 -0.0000625 L -28.345125 20.593687 C -28.345125 31.933531 -23.92325 36.937437 -13.138094 40.437437 " transform="matrix(1,0,0,-1,56.892,58.789)"/>
<path style="fill:none;stroke-width:0.3985;stroke-linecap:butt;stroke-linejoin:miter;stroke:rgb(0%,0%,0%);stroke-opacity:1;stroke-miterlimit:10;" d="M -42.520906 -0.0000625 L -42.520906 20.593687 C -42.520906 37.6015 -31.895906 49.246031 -17.520906 53.917906 " transform="matrix(1,0,0,-1,56.892,58.789)"/>
<path style=" stroke:none;fill-rule:nonzero;fill:rgb(100%,100%,100%);fill-opacity:1;" d="M 48.132812 85.75 L 28.546875 79.382812 C 17.761719 75.878906 14.371094 70.128906 14.371094 58.789062 L 0.199219 58.789062 C 0.199219 73.90625 7.992188 87.609375 24.164062 92.863281 L 43.753906 99.226562 "/>
<path style="fill:none;stroke-width:0.3985;stroke-linecap:butt;stroke-linejoin:miter;stroke:rgb(0%,0%,0%);stroke-opacity:1;stroke-miterlimit:10;" d="M -8.759188 -26.961 L -28.345125 -20.593813 C -39.130281 -17.089906 -42.520906 -11.339906 -42.520906 -0.0000625 " transform="matrix(1,0,0,-1,56.892,58.789)"/>
<path style="fill:none;stroke-width:0.3985;stroke-linecap:butt;stroke-linejoin:miter;stroke:rgb(0%,0%,0%);stroke-opacity:1;stroke-miterlimit:10;" d="M -13.138094 -40.437563 L -32.727938 -34.074281 C -48.899813 -28.820375 -56.692781 -15.11725 -56.692781 -0.0000625 " transform="matrix(1,0,0,-1,56.892,58.789)"/>
<path style=" stroke:none;fill-rule:nonzero;fill:rgb(100%,100%,100%);fill-opacity:1;" d="M 79.824219 75.449219 L 67.71875 92.113281 C 61.054688 101.285156 54.535156 102.730469 43.753906 99.226562 L 39.371094 112.707031 C 53.75 117.378906 69.1875 114.203125 79.1875 100.441406 L 91.292969 83.78125 "/>
<path style="fill:none;stroke-width:0.3985;stroke-linecap:butt;stroke-linejoin:miter;stroke:rgb(0%,0%,0%);stroke-opacity:1;stroke-miterlimit:10;" d="M 22.932219 -16.660219 L 10.82675 -33.324281 C 4.162687 -42.496156 -2.356844 -43.941469 -13.138094 -40.437563 " transform="matrix(1,0,0,-1,56.892,58.789)"/>
<g clip-path="url(#clip4)" clip-rule="nonzero">
<path style="fill:none;stroke-width:0.3985;stroke-linecap:butt;stroke-linejoin:miter;stroke:rgb(0%,0%,0%);stroke-opacity:1;stroke-miterlimit:10;" d="M 34.400969 -24.99225 L 22.2955 -41.652406 C 12.2955 -55.414125 -3.142 -58.589906 -17.520906 -53.918031 " transform="matrix(1,0,0,-1,56.892,58.789)"/>
</g>
</g>
</svg>
