<?xml version="1.0" encoding="UTF-8"?>
<svg xmlns="http://www.w3.org/2000/svg" xmlns:xlink="http://www.w3.org/1999/xlink" width="66.248pt" height="67.257pt" viewBox="0 0 66.248 67.257" version="1.1">
<defs>
<clipPath id="clip1">
  <path d="M 0 39 L 40 39 L 40 67.257812 L 0 67.257812 Z M 0 39 "/>
</clipPath>
<clipPath id="clip2">
  <path d="M 17 48 L 62 48 L 62 67.257812 L 17 67.257812 Z M 17 48 "/>
</clipPath>
<clipPath id="clip3">
  <path d="M 35 32 L 66.246094 32 L 66.246094 67.257812 L 35 67.257812 Z M 35 32 "/>
</clipPath>
<clipPath id="clip4">
  <path d="M 47 11 L 66.246094 11 L 66.246094 55 L 47 55 Z M 47 11 "/>
</clipPath>
<clipPath id="clip5">
  <path d="M 37 0 L 66.246094 0 L 66.246094 36 L 37 36 Z M 37 0 "/>
</clipPath>
<clipPath id="clip6">
  <path d="M 35 0 L 66.246094 0 L 66.246094 35 L 35 35 Z M 35 0 "/>
</clipPath>
<clipPath id="clip7">
  <path d="M 0 41 L 41 41 L 41 67.257812 L 0 67.257812 Z M 0 41 "/>
</clipPath>
<clipPath id="clip8">
  <path d="M 16 45 L 60 45 L 60 67.257812 L 16 67.257812 Z M 16 45 "/>
</clipPath>
<clipPath id="clip9">
  <path d="M 37 31 L 66.246094 31 L 66.246094 67.257812 L 37 67.257812 Z M 37 31 "/>
</clipPath>
<clipPath id="clip10">
  <path d="M 47 12 L 66.246094 12 L 66.246094 57 L 47 57 Z M 47 12 "/>
</clipPath>
</defs>
<g id="surface71">
<path style=" stroke:none;fill-rule:nonzero;fill:rgb(100%,100%,100%);fill-opacity:1;" d="M 46.71875 10.558594 L 38.320312 5.710938 C 35.25 3.9375 31.652344 3.304688 28.164062 3.921875 L 27.671875 1.128906 C 31.816406 0.398438 36.089844 1.152344 39.738281 3.257812 L 48.136719 8.105469 "/>
<path style="fill:none;stroke-width:0.79701;stroke-linecap:butt;stroke-linejoin:miter;stroke:rgb(0%,0%,0%);stroke-opacity:1;stroke-miterlimit:10;" d="M 13.31975 23.069406 L 4.921312 27.917063 C 1.851 29.6905 -1.746656 30.323313 -5.234938 29.706125 M -5.727125 32.499094 C -1.582594 33.229563 2.690844 32.475656 6.339281 30.370188 L 14.737719 25.522531 " transform="matrix(1,0,0,-1,33.399,33.628)"/>
<path style=" stroke:none;fill-rule:nonzero;fill:rgb(100%,100%,100%);fill-opacity:1;" d="M 28.773438 7.394531 L 19.226562 9.078125 C 15.734375 9.695312 12.570312 11.519531 10.292969 14.238281 L 8.121094 12.414062 C 10.828125 9.1875 14.585938 7.019531 18.734375 6.289062 L 28.28125 4.601562 "/>
<path style="fill:none;stroke-width:0.79701;stroke-linecap:butt;stroke-linejoin:miter;stroke:rgb(0%,0%,0%);stroke-opacity:1;stroke-miterlimit:10;" d="M -4.625563 26.233469 L -14.172438 24.549875 C -17.664625 23.932688 -20.828688 22.108469 -23.106031 19.389719 M -25.277906 21.213938 C -22.570875 24.4405 -18.813063 26.608469 -14.664625 27.338938 L -5.11775 29.026438 " transform="matrix(1,0,0,-1,33.399,33.628)"/>
<path style=" stroke:none;fill-rule:nonzero;fill:rgb(100%,100%,100%);fill-opacity:1;" d="M 12.992188 16.507812 L 6.761719 23.933594 C 4.484375 26.648438 3.234375 30.082031 3.234375 33.625 L 0.398438 33.625 C 0.398438 29.414062 1.882812 25.335938 4.589844 22.109375 L 10.820312 14.683594 "/>
<path style="fill:none;stroke-width:0.79701;stroke-linecap:butt;stroke-linejoin:miter;stroke:rgb(0%,0%,0%);stroke-opacity:1;stroke-miterlimit:10;" d="M -20.406813 17.120188 L -26.637281 9.694406 C -28.914625 6.979563 -30.164625 3.545969 -30.164625 0.003 M -33.000563 0.003 C -33.000563 4.213938 -31.516188 8.292063 -28.809156 11.518625 L -22.578688 18.944406 " transform="matrix(1,0,0,-1,33.399,33.628)"/>
<path style=" stroke:none;fill-rule:nonzero;fill:rgb(100%,100%,100%);fill-opacity:1;" d="M 6.761719 33.628906 L 6.761719 43.324219 C 6.761719 46.867188 8.011719 50.300781 10.289062 53.015625 L 8.117188 54.839844 C 5.410156 51.613281 3.925781 47.535156 3.925781 43.324219 L 3.925781 33.628906 "/>
<path style="fill:none;stroke-width:0.79701;stroke-linecap:butt;stroke-linejoin:miter;stroke:rgb(0%,0%,0%);stroke-opacity:1;stroke-miterlimit:10;" d="M -26.637281 -0.00090625 L -26.637281 -9.696219 C -26.637281 -13.239187 -25.387281 -16.672781 -23.109938 -19.387625 M -25.281813 -21.211844 C -27.988844 -17.985281 -29.473219 -13.907156 -29.473219 -9.696219 L -29.473219 -0.00090625 " transform="matrix(1,0,0,-1,33.399,33.628)"/>
<path style=" stroke:none;fill-rule:nonzero;fill:rgb(100%,100%,100%);fill-opacity:1;" d="M 12.992188 50.75 L 19.226562 58.175781 C 21.503906 60.894531 24.667969 62.71875 28.160156 63.335938 L 27.667969 66.125 C 23.519531 65.394531 19.761719 63.226562 17.054688 60 L 10.820312 52.574219 "/>
<g clip-path="url(#clip1)" clip-rule="nonzero">
<path style="fill:none;stroke-width:0.79701;stroke-linecap:butt;stroke-linejoin:miter;stroke:rgb(0%,0%,0%);stroke-opacity:1;stroke-miterlimit:10;" d="M -20.406813 -17.122 L -14.172438 -24.547781 C -11.895094 -27.266531 -8.731031 -29.09075 -5.238844 -29.707937 M -5.731031 -32.497 C -9.879469 -31.766531 -13.637281 -29.598562 -16.344313 -26.372 L -22.578688 -18.946219 " transform="matrix(1,0,0,-1,33.399,33.628)"/>
</g>
<path style=" stroke:none;fill-rule:nonzero;fill:rgb(100%,100%,100%);fill-opacity:1;" d="M 28.773438 59.859375 L 38.320312 61.542969 C 41.8125 62.160156 45.410156 61.527344 48.480469 59.753906 L 49.898438 62.207031 C 46.25 64.3125 41.976562 65.066406 37.828125 64.335938 L 28.28125 62.652344 "/>
<g clip-path="url(#clip2)" clip-rule="nonzero">
<path style="fill:none;stroke-width:0.79701;stroke-linecap:butt;stroke-linejoin:miter;stroke:rgb(0%,0%,0%);stroke-opacity:1;stroke-miterlimit:10;" d="M -4.625563 -26.231375 L 4.921312 -27.914969 C 8.4135 -28.532156 12.011156 -27.899344 15.081469 -26.125906 M 16.499437 -28.579031 C 12.851 -30.6845 8.577562 -31.438406 4.429125 -30.707937 L -5.11775 -29.024344 " transform="matrix(1,0,0,-1,33.399,33.628)"/>
</g>
<path style=" stroke:none;fill-rule:nonzero;fill:rgb(100%,100%,100%);fill-opacity:1;" d="M 46.71875 56.695312 L 55.113281 51.847656 C 58.183594 50.078125 60.53125 47.277344 61.746094 43.945312 L 64.40625 44.914062 C 62.96875 48.875 60.179688 52.199219 56.53125 54.304688 L 48.136719 59.152344 "/>
<g clip-path="url(#clip3)" clip-rule="nonzero">
<path style="fill:none;stroke-width:0.79701;stroke-linecap:butt;stroke-linejoin:miter;stroke:rgb(0%,0%,0%);stroke-opacity:1;stroke-miterlimit:10;" d="M 13.31975 -23.067312 L 21.714281 -18.219656 C 24.784594 -16.450125 27.13225 -13.649344 28.347094 -10.317312 M 31.00725 -11.286062 C 29.56975 -15.247 26.780687 -18.571219 23.13225 -20.676687 L 14.737719 -25.524344 " transform="matrix(1,0,0,-1,33.399,33.628)"/>
</g>
<path style=" stroke:none;fill-rule:nonzero;fill:rgb(100%,100%,100%);fill-opacity:1;" d="M 58.429688 42.738281 L 61.746094 33.628906 C 62.957031 30.296875 62.957031 26.644531 61.746094 23.3125 L 64.410156 22.34375 C 65.851562 26.300781 65.851562 30.640625 64.410156 34.597656 L 61.09375 43.707031 "/>
<g clip-path="url(#clip4)" clip-rule="nonzero">
<path style="fill:none;stroke-width:0.79701;stroke-linecap:butt;stroke-linejoin:miter;stroke:rgb(0%,0%,0%);stroke-opacity:1;stroke-miterlimit:10;" d="M 25.030687 -9.110281 L 28.347094 -0.00090625 C 29.558031 3.331125 29.558031 6.983469 28.347094 10.3155 M 31.011156 11.28425 C 32.452562 7.327219 32.452562 2.987375 31.011156 -0.969656 L 27.69475 -10.079031 " transform="matrix(1,0,0,-1,33.399,33.628)"/>
</g>
<path style=" stroke:none;fill-rule:nonzero;fill:rgb(100%,100%,100%);fill-opacity:1;" d="M 58.429688 24.515625 L 55.113281 15.40625 C 53.902344 12.074219 51.554688 9.277344 48.484375 7.503906 L 49.898438 5.050781 C 53.546875 7.15625 56.335938 10.480469 57.777344 14.4375 L 61.09375 23.546875 "/>
<g clip-path="url(#clip5)" clip-rule="nonzero">
<path style="fill:none;stroke-width:0.79701;stroke-linecap:butt;stroke-linejoin:miter;stroke:rgb(0%,0%,0%);stroke-opacity:1;stroke-miterlimit:10;" d="M 25.030687 9.112375 L 21.714281 18.22175 C 20.503344 21.553781 18.155687 24.350656 15.085375 26.124094 M 16.499437 28.577219 C 20.147875 26.47175 22.936937 23.147531 24.378344 19.1905 L 27.69475 10.081125 " transform="matrix(1,0,0,-1,33.399,33.628)"/>
</g>
<path style=" stroke:none;fill-rule:nonzero;fill:rgb(100%,100%,100%);fill-opacity:1;" d="M 56.53125 12.953125 C 60.179688 15.058594 62.96875 18.382812 64.410156 22.339844 L 61.746094 23.308594 C 60.53125 19.976562 58.183594 17.179688 55.113281 15.40625 L 46.71875 10.558594 L 48.136719 8.105469 Z M 56.53125 12.953125 "/>
<g clip-path="url(#clip6)" clip-rule="nonzero">
<path style="fill:none;stroke-width:0.79701;stroke-linecap:butt;stroke-linejoin:miter;stroke:rgb(0%,0%,0%);stroke-opacity:1;stroke-miterlimit:10;" d="M 14.737719 25.522531 L 23.13225 20.674875 C 26.780687 18.569406 29.56975 15.245188 31.011156 11.288156 M 28.347094 10.319406 C 27.13225 13.651438 24.784594 16.448313 21.714281 18.22175 L 13.31975 23.069406 " transform="matrix(1,0,0,-1,33.399,33.628)"/>
</g>
<path style=" stroke:none;fill-rule:nonzero;fill:rgb(100%,100%,100%);fill-opacity:1;" d="M 37.828125 2.921875 C 41.976562 2.1875 46.25 2.941406 49.898438 5.046875 L 48.480469 7.503906 C 45.410156 5.730469 41.8125 5.097656 38.320312 5.710938 L 28.773438 7.394531 L 28.28125 4.601562 Z M 37.828125 2.921875 "/>
<path style="fill:none;stroke-width:0.79701;stroke-linecap:butt;stroke-linejoin:miter;stroke:rgb(0%,0%,0%);stroke-opacity:1;stroke-miterlimit:10;" d="M -5.11775 29.026438 L 4.429125 30.706125 C 8.577562 31.4405 12.851 30.686594 16.499437 28.581125 M 15.081469 26.124094 C 12.011156 27.897531 8.4135 28.530344 4.921312 27.917063 L -4.625563 26.233469 " transform="matrix(1,0,0,-1,33.399,33.628)"/>
<path style=" stroke:none;fill-rule:nonzero;fill:rgb(100%,100%,100%);fill-opacity:1;" d="M 17.054688 7.257812 C 19.761719 4.03125 23.519531 1.859375 27.667969 1.128906 L 28.160156 3.921875 C 24.667969 4.535156 21.503906 6.363281 19.226562 9.078125 L 12.992188 16.507812 L 10.820312 14.683594 Z M 17.054688 7.257812 "/>
<path style="fill:none;stroke-width:0.79701;stroke-linecap:butt;stroke-linejoin:miter;stroke:rgb(0%,0%,0%);stroke-opacity:1;stroke-miterlimit:10;" d="M -22.578688 18.944406 L -16.344313 26.370188 C -13.637281 29.59675 -9.879469 31.768625 -5.731031 32.499094 M -5.238844 29.706125 C -8.731031 29.092844 -11.895094 27.264719 -14.172438 24.549875 L -20.406813 17.120188 " transform="matrix(1,0,0,-1,33.399,33.628)"/>
<path style=" stroke:none;fill-rule:nonzero;fill:rgb(100%,100%,100%);fill-opacity:1;" d="M 3.925781 23.933594 C 3.925781 19.722656 5.410156 15.644531 8.117188 12.417969 L 10.289062 14.238281 C 8.011719 16.953125 6.761719 20.386719 6.761719 23.933594 L 6.761719 33.628906 L 3.925781 33.628906 Z M 3.925781 23.933594 "/>
<path style="fill:none;stroke-width:0.79701;stroke-linecap:butt;stroke-linejoin:miter;stroke:rgb(0%,0%,0%);stroke-opacity:1;stroke-miterlimit:10;" d="M -29.473219 -0.00090625 L -29.473219 9.694406 C -29.473219 13.905344 -27.988844 17.983469 -25.281813 21.210031 M -23.109938 19.389719 C -25.387281 16.674875 -26.637281 13.241281 -26.637281 9.694406 L -26.637281 -0.00090625 " transform="matrix(1,0,0,-1,33.399,33.628)"/>
<path style=" stroke:none;fill-rule:nonzero;fill:rgb(100%,100%,100%);fill-opacity:1;" d="M 4.589844 45.144531 C 1.882812 41.917969 0.398438 37.839844 0.398438 33.628906 L 3.234375 33.628906 C 3.234375 37.175781 4.484375 40.609375 6.761719 43.324219 L 12.992188 50.75 L 10.820312 52.574219 Z M 4.589844 45.144531 "/>
<path style="fill:none;stroke-width:0.79701;stroke-linecap:butt;stroke-linejoin:miter;stroke:rgb(0%,0%,0%);stroke-opacity:1;stroke-miterlimit:10;" d="M -22.578688 -18.946219 L -28.809156 -11.516531 C -31.516188 -8.289969 -33.000563 -4.211844 -33.000563 -0.00090625 M -30.164625 -0.00090625 C -30.164625 -3.547781 -28.914625 -6.981375 -26.637281 -9.696219 L -20.406813 -17.122 " transform="matrix(1,0,0,-1,33.399,33.628)"/>
<path style=" stroke:none;fill-rule:nonzero;fill:rgb(100%,100%,100%);fill-opacity:1;" d="M 18.734375 60.96875 C 14.585938 60.238281 10.828125 58.066406 8.121094 54.839844 L 10.292969 53.019531 C 12.570312 55.734375 15.734375 57.5625 19.226562 58.175781 L 28.773438 59.859375 L 28.28125 62.652344 Z M 18.734375 60.96875 "/>
<g clip-path="url(#clip7)" clip-rule="nonzero">
<path style="fill:none;stroke-width:0.79701;stroke-linecap:butt;stroke-linejoin:miter;stroke:rgb(0%,0%,0%);stroke-opacity:1;stroke-miterlimit:10;" d="M -5.11775 -29.024344 L -14.664625 -27.34075 C -18.813063 -26.610281 -22.570875 -24.438406 -25.277906 -21.211844 M -23.106031 -19.391531 C -20.828688 -22.106375 -17.664625 -23.9345 -14.172438 -24.547781 L -4.625563 -26.231375 " transform="matrix(1,0,0,-1,33.399,33.628)"/>
</g>
<path style=" stroke:none;fill-rule:nonzero;fill:rgb(100%,100%,100%);fill-opacity:1;" d="M 39.738281 64 C 36.089844 66.105469 31.816406 66.859375 27.671875 66.128906 L 28.164062 63.335938 C 31.652344 63.949219 35.25 63.316406 38.320312 61.542969 L 46.71875 56.695312 L 48.136719 59.152344 Z M 39.738281 64 "/>
<g clip-path="url(#clip8)" clip-rule="nonzero">
<path style="fill:none;stroke-width:0.79701;stroke-linecap:butt;stroke-linejoin:miter;stroke:rgb(0%,0%,0%);stroke-opacity:1;stroke-miterlimit:10;" d="M 14.737719 -25.524344 L 6.339281 -30.372 C 2.690844 -32.477469 -1.582594 -33.231375 -5.727125 -32.500906 M -5.234938 -29.707937 C -1.746656 -30.321219 1.851 -29.688406 4.921312 -27.914969 L 13.31975 -23.067312 " transform="matrix(1,0,0,-1,33.399,33.628)"/>
</g>
<path style=" stroke:none;fill-rule:nonzero;fill:rgb(100%,100%,100%);fill-opacity:1;" d="M 57.777344 52.820312 C 56.335938 56.777344 53.546875 60.101562 49.898438 62.207031 L 48.484375 59.75 C 51.550781 57.980469 53.902344 55.179688 55.113281 51.847656 L 58.429688 42.738281 L 61.09375 43.707031 Z M 57.777344 52.820312 "/>
<g clip-path="url(#clip9)" clip-rule="nonzero">
<path style="fill:none;stroke-width:0.79701;stroke-linecap:butt;stroke-linejoin:miter;stroke:rgb(0%,0%,0%);stroke-opacity:1;stroke-miterlimit:10;" d="M 27.69475 -10.079031 L 24.378344 -19.192312 C 22.936937 -23.149344 20.147875 -26.473562 16.499437 -28.579031 M 15.085375 -26.122 C 18.151781 -24.352469 20.503344 -21.551687 21.714281 -18.219656 L 25.030687 -9.110281 " transform="matrix(1,0,0,-1,33.399,33.628)"/>
</g>
<path style=" stroke:none;fill-rule:nonzero;fill:rgb(100%,100%,100%);fill-opacity:1;" d="M 64.410156 32.660156 C 65.851562 36.617188 65.851562 40.957031 64.410156 44.914062 L 61.746094 43.945312 C 62.957031 40.613281 62.957031 36.960938 61.746094 33.628906 L 58.429688 24.515625 L 61.09375 23.546875 Z M 64.410156 32.660156 "/>
<g clip-path="url(#clip10)" clip-rule="nonzero">
<path style="fill:none;stroke-width:0.79701;stroke-linecap:butt;stroke-linejoin:miter;stroke:rgb(0%,0%,0%);stroke-opacity:1;stroke-miterlimit:10;" d="M 27.69475 10.081125 L 31.011156 0.967844 C 32.452562 -2.989187 32.452562 -7.329031 31.011156 -11.286062 M 28.347094 -10.317312 C 29.558031 -6.985281 29.558031 -3.332937 28.347094 -0.00090625 L 25.030687 9.112375 " transform="matrix(1,0,0,-1,33.399,33.628)"/>
</g>
</g>
</svg>
