<?xml version="1.0" encoding="UTF-8"?>
<svg xmlns="http://www.w3.org/2000/svg" xmlns:xlink="http://www.w3.org/1999/xlink" width="113.784pt" height="113.784pt" viewBox="0 0 113.784 113.784" version="1.1">
<defs>
<clipPath id="clip1">
  <path d="M 55 83 L 74 83 L 74 113.785156 L 55 113.785156 Z M 55 83 "/>
</clipPath>
<clipPath id="clip2">
  <path d="M 51 90 L 79 90 L 79 113.785156 L 51 113.785156 Z M 51 90 "/>
</clipPath>
<clipPath id="clip3">
  <path d="M 83 40 L 113.785156 40 L 113.785156 59 L 83 59 Z M 83 40 "/>
</clipPath>
<clipPath id="clip4">
  <path d="M 90 34 L 113.785156 34 L 113.785156 63 L 90 63 Z M 90 34 "/>
</clipPath>
<clipPath id="clip5">
  <path d="M 40 83 L 59 83 L 59 113.785156 L 40 113.785156 Z M 40 83 "/>
</clipPath>
<clipPath id="clip6">
  <path d="M 34 90 L 63 90 L 63 113.785156 L 34 113.785156 Z M 34 90 "/>
</clipPath>
<clipPath id="clip7">
  <path d="M 83 55 L 113.785156 55 L 113.785156 74 L 83 74 Z M 83 55 "/>
</clipPath>
<clipPath id="clip8">
  <path d="M 90 51 L 113.785156 51 L 113.785156 79 L 90 79 Z M 90 51 "/>
</clipPath>
</defs>
<g id="surface176">
<path style=" stroke:none;fill-rule:nonzero;fill:rgb(100%,100%,100%);fill-opacity:1;" d="M 67.738281 30.703125 L 78.589844 35.195312 C 83.824219 37.363281 82.949219 22.816406 86.957031 26.824219 L 96.980469 16.804688 C 91.636719 11.460938 91.867188 25.355469 84.011719 22.101562 L 73.164062 17.609375 "/>
<path style="fill:none;stroke-width:0.3985;stroke-linecap:butt;stroke-linejoin:miter;stroke:rgb(0%,0%,0%);stroke-opacity:1;stroke-miterlimit:10;" d="M 10.846281 26.188875 L 21.697844 21.696688 C 26.932219 19.528719 26.057219 34.075594 30.065031 30.067781 " transform="matrix(1,0,0,-1,56.892,56.892)"/>
<path style="fill:none;stroke-width:0.3985;stroke-linecap:butt;stroke-linejoin:miter;stroke:rgb(0%,0%,0%);stroke-opacity:1;stroke-miterlimit:10;" d="M 40.088469 40.087313 C 34.744719 45.431063 34.975187 31.536531 27.119719 34.790438 L 16.272062 39.282625 " transform="matrix(1,0,0,-1,56.892,56.892)"/>
<path style=" stroke:none;fill-rule:nonzero;fill:rgb(100%,100%,100%);fill-opacity:1;" d="M 46.042969 30.703125 L 56.890625 26.210938 C 62.128906 24.039062 51.222656 14.371094 56.890625 14.371094 L 56.890625 0.199219 C 49.335938 0.199219 59.324219 9.859375 51.46875 13.117188 L 40.621094 17.609375 "/>
<path style="fill:none;stroke-width:0.3985;stroke-linecap:butt;stroke-linejoin:miter;stroke:rgb(0%,0%,0%);stroke-opacity:1;stroke-miterlimit:10;" d="M -10.849031 26.188875 L -0.001375 30.681063 C 5.236906 32.852938 -5.669344 42.520906 -0.001375 42.520906 " transform="matrix(1,0,0,-1,56.892,56.892)"/>
<path style="fill:none;stroke-width:0.3985;stroke-linecap:butt;stroke-linejoin:miter;stroke:rgb(0%,0%,0%);stroke-opacity:1;stroke-miterlimit:10;" d="M -0.001375 56.692781 C -7.556063 56.692781 2.432219 47.032625 -5.42325 43.774813 L -16.270906 39.282625 " transform="matrix(1,0,0,-1,56.892,56.892)"/>
<path style=" stroke:none;fill-rule:nonzero;fill:rgb(100%,100%,100%);fill-opacity:1;" d="M 30.703125 46.042969 L 35.195312 35.195312 C 37.363281 29.957031 22.816406 30.835938 26.824219 26.824219 L 16.804688 16.804688 C 11.460938 22.148438 25.355469 21.917969 22.101562 29.773438 L 17.609375 40.621094 "/>
<path style="fill:none;stroke-width:0.3985;stroke-linecap:butt;stroke-linejoin:miter;stroke:rgb(0%,0%,0%);stroke-opacity:1;stroke-miterlimit:10;" d="M -26.188875 10.849031 L -21.696688 21.696688 C -19.528719 26.934969 -34.075594 26.056063 -30.067781 30.067781 " transform="matrix(1,0,0,-1,56.892,56.892)"/>
<path style="fill:none;stroke-width:0.3985;stroke-linecap:butt;stroke-linejoin:miter;stroke:rgb(0%,0%,0%);stroke-opacity:1;stroke-miterlimit:10;" d="M -40.087313 40.087313 C -45.431063 34.743563 -31.536531 34.974031 -34.790438 27.118563 L -39.282625 16.270906 " transform="matrix(1,0,0,-1,56.892,56.892)"/>
<path style=" stroke:none;fill-rule:nonzero;fill:rgb(100%,100%,100%);fill-opacity:1;" d="M 30.703125 67.738281 L 26.210938 56.890625 C 24.039062 51.65625 14.371094 62.5625 14.371094 56.890625 L 0.199219 56.890625 C 0.199219 64.449219 9.859375 54.460938 13.117188 62.316406 L 17.609375 73.164062 "/>
<path style="fill:none;stroke-width:0.3985;stroke-linecap:butt;stroke-linejoin:miter;stroke:rgb(0%,0%,0%);stroke-opacity:1;stroke-miterlimit:10;" d="M -26.188875 -10.846281 L -30.681063 0.001375 C -32.852938 5.23575 -42.520906 -5.6705 -42.520906 0.001375 " transform="matrix(1,0,0,-1,56.892,56.892)"/>
<path style="fill:none;stroke-width:0.3985;stroke-linecap:butt;stroke-linejoin:miter;stroke:rgb(0%,0%,0%);stroke-opacity:1;stroke-miterlimit:10;" d="M -56.692781 0.001375 C -56.692781 -7.557219 -47.032625 2.431063 -43.774813 -5.424406 L -39.282625 -16.272062 " transform="matrix(1,0,0,-1,56.892,56.892)"/>
<path style=" stroke:none;fill-rule:nonzero;fill:rgb(100%,100%,100%);fill-opacity:1;" d="M 46.042969 83.078125 L 35.195312 78.589844 C 29.957031 76.417969 30.835938 90.96875 26.824219 86.957031 L 16.804688 96.980469 C 22.148438 102.324219 21.917969 88.429688 29.773438 91.683594 L 40.621094 96.171875 "/>
<path style="fill:none;stroke-width:0.3985;stroke-linecap:butt;stroke-linejoin:miter;stroke:rgb(0%,0%,0%);stroke-opacity:1;stroke-miterlimit:10;" d="M -10.849031 -26.186125 L -21.696688 -21.697844 C -26.934969 -19.525969 -26.056063 -34.07675 -30.067781 -30.065031 " transform="matrix(1,0,0,-1,56.892,56.892)"/>
<path style="fill:none;stroke-width:0.3985;stroke-linecap:butt;stroke-linejoin:miter;stroke:rgb(0%,0%,0%);stroke-opacity:1;stroke-miterlimit:10;" d="M -40.087313 -40.088469 C -34.743563 -45.432219 -34.974031 -31.537687 -27.118563 -34.791594 L -16.270906 -39.279875 " transform="matrix(1,0,0,-1,56.892,56.892)"/>
<g clip-path="url(#clip1)" clip-rule="nonzero">
<path style=" stroke:none;fill-rule:nonzero;fill:rgb(100%,100%,100%);fill-opacity:1;" d="M 67.738281 83.078125 L 56.890625 87.574219 C 51.65625 89.742188 62.5625 99.414062 56.890625 99.414062 L 56.890625 113.585938 C 64.449219 113.585938 54.460938 103.921875 62.316406 100.667969 L 73.164062 96.171875 "/>
</g>
<path style="fill:none;stroke-width:0.3985;stroke-linecap:butt;stroke-linejoin:miter;stroke:rgb(0%,0%,0%);stroke-opacity:1;stroke-miterlimit:10;" d="M 10.846281 -26.186125 L -0.001375 -30.682219 C -5.23575 -32.850187 5.6705 -42.522062 -0.001375 -42.522062 " transform="matrix(1,0,0,-1,56.892,56.892)"/>
<g clip-path="url(#clip2)" clip-rule="nonzero">
<path style="fill:none;stroke-width:0.3985;stroke-linecap:butt;stroke-linejoin:miter;stroke:rgb(0%,0%,0%);stroke-opacity:1;stroke-miterlimit:10;" d="M -0.001375 -56.693937 C 7.557219 -56.693937 -2.431063 -47.029875 5.424406 -43.775969 L 16.272062 -39.279875 " transform="matrix(1,0,0,-1,56.892,56.892)"/>
</g>
<path style=" stroke:none;fill-rule:nonzero;fill:rgb(100%,100%,100%);fill-opacity:1;" d="M 83.078125 67.738281 L 78.589844 78.589844 C 76.417969 83.824219 90.96875 82.949219 86.957031 86.957031 L 96.980469 96.980469 C 102.324219 91.636719 88.429688 91.867188 91.683594 84.011719 L 96.171875 73.164062 "/>
<path style="fill:none;stroke-width:0.3985;stroke-linecap:butt;stroke-linejoin:miter;stroke:rgb(0%,0%,0%);stroke-opacity:1;stroke-miterlimit:10;" d="M 26.186125 -10.846281 L 21.697844 -21.697844 C 19.525969 -26.932219 34.07675 -26.057219 30.065031 -30.065031 " transform="matrix(1,0,0,-1,56.892,56.892)"/>
<path style="fill:none;stroke-width:0.3985;stroke-linecap:butt;stroke-linejoin:miter;stroke:rgb(0%,0%,0%);stroke-opacity:1;stroke-miterlimit:10;" d="M 40.088469 -40.088469 C 45.432219 -34.744719 31.537687 -34.975187 34.791594 -27.119719 L 39.279875 -16.272062 " transform="matrix(1,0,0,-1,56.892,56.892)"/>
<g clip-path="url(#clip3)" clip-rule="nonzero">
<path style=" stroke:none;fill-rule:nonzero;fill:rgb(100%,100%,100%);fill-opacity:1;" d="M 83.078125 46.042969 L 87.574219 56.890625 C 89.742188 62.128906 99.414062 51.222656 99.414062 56.890625 L 113.585938 56.890625 C 113.585938 49.335938 103.921875 59.324219 100.667969 51.46875 L 96.171875 40.621094 "/>
</g>
<path style="fill:none;stroke-width:0.3985;stroke-linecap:butt;stroke-linejoin:miter;stroke:rgb(0%,0%,0%);stroke-opacity:1;stroke-miterlimit:10;" d="M 26.186125 10.849031 L 30.682219 0.001375 C 32.850187 -5.236906 42.522062 5.669344 42.522062 0.001375 " transform="matrix(1,0,0,-1,56.892,56.892)"/>
<g clip-path="url(#clip4)" clip-rule="nonzero">
<path style="fill:none;stroke-width:0.3985;stroke-linecap:butt;stroke-linejoin:miter;stroke:rgb(0%,0%,0%);stroke-opacity:1;stroke-miterlimit:10;" d="M 56.693937 0.001375 C 56.693937 7.556063 47.029875 -2.432219 43.775969 5.42325 L 39.279875 16.270906 " transform="matrix(1,0,0,-1,56.892,56.892)"/>
</g>
<path style=" stroke:none;fill-rule:nonzero;fill:rgb(100%,100%,100%);fill-opacity:1;" d="M 83.078125 46.042969 L 78.589844 35.195312 C 76.417969 29.957031 90.96875 30.835938 86.957031 26.824219 L 96.980469 16.804688 C 102.324219 22.148438 88.429688 21.917969 91.683594 29.773438 L 96.171875 40.621094 "/>
<path style="fill:none;stroke-width:0.3985;stroke-linecap:butt;stroke-linejoin:miter;stroke:rgb(0%,0%,0%);stroke-opacity:1;stroke-miterlimit:10;" d="M 26.186125 10.849031 L 21.697844 21.696688 C 19.525969 26.934969 34.07675 26.056063 30.065031 30.067781 " transform="matrix(1,0,0,-1,56.892,56.892)"/>
<path style="fill:none;stroke-width:0.3985;stroke-linecap:butt;stroke-linejoin:miter;stroke:rgb(0%,0%,0%);stroke-opacity:1;stroke-miterlimit:10;" d="M 39.279875 16.270906 L 34.791594 27.118563 C 31.537687 34.974031 45.432219 34.743563 40.088469 40.087313 " transform="matrix(1,0,0,-1,56.892,56.892)"/>
<path style=" stroke:none;fill-rule:nonzero;fill:rgb(100%,100%,100%);fill-opacity:1;" d="M 67.738281 30.703125 L 56.890625 26.210938 C 51.65625 24.039062 62.5625 14.371094 56.890625 14.371094 L 56.890625 0.199219 C 64.449219 0.199219 54.460938 9.859375 62.316406 13.117188 L 73.164062 17.609375 "/>
<path style="fill:none;stroke-width:0.3985;stroke-linecap:butt;stroke-linejoin:miter;stroke:rgb(0%,0%,0%);stroke-opacity:1;stroke-miterlimit:10;" d="M 10.846281 26.188875 L -0.001375 30.681063 C -5.23575 32.852938 5.6705 42.520906 -0.001375 42.520906 " transform="matrix(1,0,0,-1,56.892,56.892)"/>
<path style="fill:none;stroke-width:0.3985;stroke-linecap:butt;stroke-linejoin:miter;stroke:rgb(0%,0%,0%);stroke-opacity:1;stroke-miterlimit:10;" d="M 16.272062 39.282625 L 5.424406 43.774813 C -2.431063 47.032625 7.557219 56.692781 -0.001375 56.692781 " transform="matrix(1,0,0,-1,56.892,56.892)"/>
<path style=" stroke:none;fill-rule:nonzero;fill:rgb(100%,100%,100%);fill-opacity:1;" d="M 46.042969 30.703125 L 35.195312 35.195312 C 29.957031 37.363281 30.835938 22.816406 26.824219 26.824219 L 16.804688 16.804688 C 22.148438 11.460938 21.917969 25.355469 29.773438 22.101562 L 40.621094 17.609375 "/>
<path style="fill:none;stroke-width:0.3985;stroke-linecap:butt;stroke-linejoin:miter;stroke:rgb(0%,0%,0%);stroke-opacity:1;stroke-miterlimit:10;" d="M -10.849031 26.188875 L -21.696688 21.696688 C -26.934969 19.528719 -26.056063 34.075594 -30.067781 30.067781 " transform="matrix(1,0,0,-1,56.892,56.892)"/>
<path style="fill:none;stroke-width:0.3985;stroke-linecap:butt;stroke-linejoin:miter;stroke:rgb(0%,0%,0%);stroke-opacity:1;stroke-miterlimit:10;" d="M -16.270906 39.282625 L -27.118563 34.790438 C -34.974031 31.536531 -34.743563 45.431063 -40.087313 40.087313 " transform="matrix(1,0,0,-1,56.892,56.892)"/>
<path style=" stroke:none;fill-rule:nonzero;fill:rgb(100%,100%,100%);fill-opacity:1;" d="M 30.703125 46.042969 L 26.210938 56.890625 C 24.039062 62.128906 14.371094 51.222656 14.371094 56.890625 L 0.199219 56.890625 C 0.199219 49.335938 9.859375 59.324219 13.117188 51.46875 L 17.609375 40.621094 "/>
<path style="fill:none;stroke-width:0.3985;stroke-linecap:butt;stroke-linejoin:miter;stroke:rgb(0%,0%,0%);stroke-opacity:1;stroke-miterlimit:10;" d="M -26.188875 10.849031 L -30.681063 0.001375 C -32.852938 -5.236906 -42.520906 5.669344 -42.520906 0.001375 " transform="matrix(1,0,0,-1,56.892,56.892)"/>
<path style="fill:none;stroke-width:0.3985;stroke-linecap:butt;stroke-linejoin:miter;stroke:rgb(0%,0%,0%);stroke-opacity:1;stroke-miterlimit:10;" d="M -39.282625 16.270906 L -43.774813 5.42325 C -47.032625 -2.432219 -56.692781 7.556063 -56.692781 0.001375 " transform="matrix(1,0,0,-1,56.892,56.892)"/>
<path style=" stroke:none;fill-rule:nonzero;fill:rgb(100%,100%,100%);fill-opacity:1;" d="M 30.703125 67.738281 L 35.195312 78.589844 C 37.363281 83.824219 22.816406 82.949219 26.824219 86.957031 L 16.804688 96.980469 C 11.460938 91.636719 25.355469 91.867188 22.101562 84.011719 L 17.609375 73.164062 "/>
<path style="fill:none;stroke-width:0.3985;stroke-linecap:butt;stroke-linejoin:miter;stroke:rgb(0%,0%,0%);stroke-opacity:1;stroke-miterlimit:10;" d="M -26.188875 -10.846281 L -21.696688 -21.697844 C -19.528719 -26.932219 -34.075594 -26.057219 -30.067781 -30.065031 " transform="matrix(1,0,0,-1,56.892,56.892)"/>
<path style="fill:none;stroke-width:0.3985;stroke-linecap:butt;stroke-linejoin:miter;stroke:rgb(0%,0%,0%);stroke-opacity:1;stroke-miterlimit:10;" d="M -39.282625 -16.272062 L -34.790438 -27.119719 C -31.536531 -34.975187 -45.431063 -34.744719 -40.087313 -40.088469 " transform="matrix(1,0,0,-1,56.892,56.892)"/>
<g clip-path="url(#clip5)" clip-rule="nonzero">
<path style=" stroke:none;fill-rule:nonzero;fill:rgb(100%,100%,100%);fill-opacity:1;" d="M 46.042969 83.078125 L 56.890625 87.574219 C 62.128906 89.742188 51.222656 99.414062 56.890625 99.414062 L 56.890625 113.585938 C 49.335938 113.585938 59.324219 103.921875 51.46875 100.667969 L 40.621094 96.171875 "/>
</g>
<path style="fill:none;stroke-width:0.3985;stroke-linecap:butt;stroke-linejoin:miter;stroke:rgb(0%,0%,0%);stroke-opacity:1;stroke-miterlimit:10;" d="M -10.849031 -26.186125 L -0.001375 -30.682219 C 5.236906 -32.850187 -5.669344 -42.522062 -0.001375 -42.522062 " transform="matrix(1,0,0,-1,56.892,56.892)"/>
<g clip-path="url(#clip6)" clip-rule="nonzero">
<path style="fill:none;stroke-width:0.3985;stroke-linecap:butt;stroke-linejoin:miter;stroke:rgb(0%,0%,0%);stroke-opacity:1;stroke-miterlimit:10;" d="M -16.270906 -39.279875 L -5.42325 -43.775969 C 2.432219 -47.029875 -7.556063 -56.693937 -0.001375 -56.693937 " transform="matrix(1,0,0,-1,56.892,56.892)"/>
</g>
<path style=" stroke:none;fill-rule:nonzero;fill:rgb(100%,100%,100%);fill-opacity:1;" d="M 67.738281 83.078125 L 78.589844 78.589844 C 83.824219 76.417969 82.949219 90.96875 86.957031 86.957031 L 96.980469 96.980469 C 91.636719 102.324219 91.867188 88.429688 84.011719 91.683594 L 73.164062 96.171875 "/>
<path style="fill:none;stroke-width:0.3985;stroke-linecap:butt;stroke-linejoin:miter;stroke:rgb(0%,0%,0%);stroke-opacity:1;stroke-miterlimit:10;" d="M 10.846281 -26.186125 L 21.697844 -21.697844 C 26.932219 -19.525969 26.057219 -34.07675 30.065031 -30.065031 " transform="matrix(1,0,0,-1,56.892,56.892)"/>
<path style="fill:none;stroke-width:0.3985;stroke-linecap:butt;stroke-linejoin:miter;stroke:rgb(0%,0%,0%);stroke-opacity:1;stroke-miterlimit:10;" d="M 16.272062 -39.279875 L 27.119719 -34.791594 C 34.975187 -31.537687 34.744719 -45.432219 40.088469 -40.088469 " transform="matrix(1,0,0,-1,56.892,56.892)"/>
<g clip-path="url(#clip7)" clip-rule="nonzero">
<path style=" stroke:none;fill-rule:nonzero;fill:rgb(100%,100%,100%);fill-opacity:1;" d="M 83.078125 67.738281 L 87.574219 56.890625 C 89.742188 51.65625 99.414062 62.5625 99.414062 56.890625 L 113.585938 56.890625 C 113.585938 64.449219 103.921875 54.460938 100.667969 62.316406 L 96.171875 73.164062 "/>
</g>
<path style="fill:none;stroke-width:0.3985;stroke-linecap:butt;stroke-linejoin:miter;stroke:rgb(0%,0%,0%);stroke-opacity:1;stroke-miterlimit:10;" d="M 26.186125 -10.846281 L 30.682219 0.001375 C 32.850187 5.23575 42.522062 -5.6705 42.522062 0.001375 " transform="matrix(1,0,0,-1,56.892,56.892)"/>
<g clip-path="url(#clip8)" clip-rule="nonzero">
<path style="fill:none;stroke-width:0.3985;stroke-linecap:butt;stroke-linejoin:miter;stroke:rgb(0%,0%,0%);stroke-opacity:1;stroke-miterlimit:10;" d="M 39.279875 -16.272062 L 43.775969 -5.424406 C 47.029875 2.431063 56.693937 -7.557219 56.693937 0.001375 " transform="matrix(1,0,0,-1,56.892,56.892)"/>
</g>
</g>
</svg>
