<?xml version="1.0" encoding="UTF-8"?>
<svg xmlns="http://www.w3.org/2000/svg" xmlns:xlink="http://www.w3.org/1999/xlink" width="232.771pt" height="238.384pt" viewBox="0 0 232.771 238.384" version="1.1">
<g id="surface166">
<path style=" stroke:none;fill-rule:nonzero;fill:rgb(100%,100%,100%);fill-opacity:1;" d="M 118.515625 91.558594 L 131.824219 94.59375 C 214.730469 113.515625 207.730469 155.539062 124.824219 174.460938 L 126.085938 179.988281 C 217.28125 159.175781 232.570312 111.773438 133.085938 89.066406 L 119.777344 86.03125 "/>
<path style="fill:none;stroke-width:0.3985;stroke-linecap:butt;stroke-linejoin:miter;stroke:rgb(0%,0%,0%);stroke-opacity:1;stroke-miterlimit:10;" d="M 6.305625 27.633406 L 19.614219 24.59825 C 102.520469 5.676375 95.520469 -36.347062 12.614219 -55.268937 " transform="matrix(1,0,0,-1,112.21,119.192)"/>
<path style="fill:none;stroke-width:0.3985;stroke-linecap:butt;stroke-linejoin:miter;stroke:rgb(0%,0%,0%);stroke-opacity:1;stroke-miterlimit:10;" d="M 13.875937 -60.796281 C 105.07125 -39.983781 120.360312 7.418563 20.875937 30.125594 L 7.567344 33.16075 " transform="matrix(1,0,0,-1,112.21,119.192)"/>
<path style=" stroke:none;fill-rule:nonzero;fill:rgb(100%,100%,100%);fill-opacity:1;" d="M 94.535156 97.03125 L 105.210938 88.519531 C 171.695312 35.5 200.183594 67.171875 163.285156 143.789062 L 168.394531 146.25 C 208.976562 61.972656 181.457031 20.464844 101.675781 84.085938 L 91.003906 92.597656 "/>
<path style="fill:none;stroke-width:0.3985;stroke-linecap:butt;stroke-linejoin:miter;stroke:rgb(0%,0%,0%);stroke-opacity:1;stroke-miterlimit:10;" d="M -17.674844 22.16075 L -6.999063 30.672469 C 59.485312 83.692 87.973594 52.020125 51.075156 -24.597062 " transform="matrix(1,0,0,-1,112.21,119.192)"/>
<path style="fill:none;stroke-width:0.3985;stroke-linecap:butt;stroke-linejoin:miter;stroke:rgb(0%,0%,0%);stroke-opacity:1;stroke-miterlimit:10;" d="M 56.184531 -27.058 C 96.766562 57.219344 69.247031 98.727156 -10.534219 35.106063 L -21.206094 26.594344 " transform="matrix(1,0,0,-1,112.21,119.192)"/>
<path style=" stroke:none;fill-rule:nonzero;fill:rgb(100%,100%,100%);fill-opacity:1;" d="M 83.863281 119.191406 L 83.863281 105.542969 C 83.863281 20.5 126.390625 17.980469 163.285156 94.59375 L 168.394531 92.136719 C 127.808594 7.859375 78.195312 3.492188 78.195312 105.542969 L 78.195312 119.191406 "/>
<path style="fill:none;stroke-width:0.3985;stroke-linecap:butt;stroke-linejoin:miter;stroke:rgb(0%,0%,0%);stroke-opacity:1;stroke-miterlimit:10;" d="M -28.346719 0.00059375 L -28.346719 13.649031 C -28.346719 98.692 14.180625 101.211531 51.075156 24.59825 " transform="matrix(1,0,0,-1,112.21,119.192)"/>
<path style="fill:none;stroke-width:0.3985;stroke-linecap:butt;stroke-linejoin:miter;stroke:rgb(0%,0%,0%);stroke-opacity:1;stroke-miterlimit:10;" d="M 56.184531 27.055281 C 15.598594 111.332625 -34.014688 115.699813 -34.014688 13.649031 L -34.014688 0.00059375 " transform="matrix(1,0,0,-1,112.21,119.192)"/>
<path style=" stroke:none;fill-rule:nonzero;fill:rgb(100%,100%,100%);fill-opacity:1;" d="M 94.539062 141.351562 L 83.863281 132.84375 C 17.378906 79.824219 41.921875 45 124.824219 63.921875 L 126.085938 58.394531 C 34.890625 37.582031 0.550781 73.652344 80.332031 137.273438 L 91.003906 145.785156 "/>
<path style="fill:none;stroke-width:0.3985;stroke-linecap:butt;stroke-linejoin:miter;stroke:rgb(0%,0%,0%);stroke-opacity:1;stroke-miterlimit:10;" d="M -17.670938 -22.159562 L -28.346719 -13.65175 C -94.831094 39.367781 -70.288125 74.192 12.614219 55.270125 " transform="matrix(1,0,0,-1,112.21,119.192)"/>
<path style="fill:none;stroke-width:0.3985;stroke-linecap:butt;stroke-linejoin:miter;stroke:rgb(0%,0%,0%);stroke-opacity:1;stroke-miterlimit:10;" d="M 13.875937 60.797469 C -77.319375 81.609969 -111.659219 45.539656 -31.877969 -18.081437 L -21.206094 -26.593156 " transform="matrix(1,0,0,-1,112.21,119.192)"/>
<path style=" stroke:none;fill-rule:nonzero;fill:rgb(100%,100%,100%);fill-opacity:1;" d="M 118.515625 146.828125 L 105.210938 149.863281 C 22.304688 168.785156 10.378906 127.890625 76.863281 74.871094 L 73.328125 70.4375 C 0.199219 128.757812 6.984375 178.097656 106.472656 155.390625 L 119.777344 152.355469 "/>
<path style="fill:none;stroke-width:0.3985;stroke-linecap:butt;stroke-linejoin:miter;stroke:rgb(0%,0%,0%);stroke-opacity:1;stroke-miterlimit:10;" d="M 6.305625 -27.636125 L -6.999063 -30.671281 C -89.905313 -49.593156 -101.831094 -8.698625 -35.346719 44.320906 " transform="matrix(1,0,0,-1,112.21,119.192)"/>
<path style="fill:none;stroke-width:0.3985;stroke-linecap:butt;stroke-linejoin:miter;stroke:rgb(0%,0%,0%);stroke-opacity:1;stroke-miterlimit:10;" d="M -38.881875 48.7545 C -112.010781 -9.565812 -105.225625 -58.905656 -5.737344 -36.198625 L 7.567344 -33.163469 " transform="matrix(1,0,0,-1,112.21,119.192)"/>
<path style=" stroke:none;fill-rule:nonzero;fill:rgb(100%,100%,100%);fill-opacity:1;" d="M 137.75 131.492188 L 131.824219 143.789062 C 94.929688 220.402344 55.515625 204.230469 55.515625 119.191406 L 49.847656 119.191406 C 49.847656 212.734375 92.660156 238.1875 136.933594 146.25 L 142.855469 133.949219 "/>
<path style="fill:none;stroke-width:0.3985;stroke-linecap:butt;stroke-linejoin:miter;stroke:rgb(0%,0%,0%);stroke-opacity:1;stroke-miterlimit:10;" d="M 25.54 -12.300187 L 19.614219 -24.597062 C -17.280313 -101.210344 -56.694375 -85.038469 -56.694375 0.00059375 " transform="matrix(1,0,0,-1,112.21,119.192)"/>
<path style="fill:none;stroke-width:0.3985;stroke-linecap:butt;stroke-linejoin:miter;stroke:rgb(0%,0%,0%);stroke-opacity:1;stroke-miterlimit:10;" d="M -62.362344 0.00059375 C -62.362344 -93.542375 -19.549844 -118.9955 24.723594 -27.058 L 30.645469 -14.757219 " transform="matrix(1,0,0,-1,112.21,119.192)"/>
<path style=" stroke:none;fill-rule:nonzero;fill:rgb(100%,100%,100%);fill-opacity:1;" d="M 137.75 106.894531 L 143.671875 119.191406 C 180.566406 195.808594 143.347656 216.53125 76.863281 163.515625 L 73.332031 167.945312 C 146.464844 226.265625 193.054688 208.671875 148.78125 116.734375 L 142.855469 104.433594 "/>
<path style="fill:none;stroke-width:0.3985;stroke-linecap:butt;stroke-linejoin:miter;stroke:rgb(0%,0%,0%);stroke-opacity:1;stroke-miterlimit:10;" d="M 25.54 12.297469 L 31.461875 0.00059375 C 68.356406 -76.616594 31.137656 -97.33925 -35.346719 -44.323625 " transform="matrix(1,0,0,-1,112.21,119.192)"/>
<path style="fill:none;stroke-width:0.3985;stroke-linecap:butt;stroke-linejoin:miter;stroke:rgb(0%,0%,0%);stroke-opacity:1;stroke-miterlimit:10;" d="M -38.877969 -48.753312 C 34.254844 -107.073625 80.844687 -89.479875 36.57125 2.457625 L 30.645469 14.758406 " transform="matrix(1,0,0,-1,112.21,119.192)"/>
<path style=" stroke:none;fill-rule:nonzero;fill:rgb(100%,100%,100%);fill-opacity:1;" d="M 137.75 106.894531 L 131.824219 94.59375 C 94.929688 17.980469 55.515625 34.152344 55.515625 119.191406 L 49.847656 119.191406 C 49.847656 25.648438 92.660156 0.199219 136.933594 92.136719 L 142.855469 104.433594 "/>
<path style="fill:none;stroke-width:0.3985;stroke-linecap:butt;stroke-linejoin:miter;stroke:rgb(0%,0%,0%);stroke-opacity:1;stroke-miterlimit:10;" d="M 25.54 12.297469 L 19.614219 24.59825 C -17.280313 101.211531 -56.694375 85.039656 -56.694375 0.00059375 " transform="matrix(1,0,0,-1,112.21,119.192)"/>
<path style="fill:none;stroke-width:0.3985;stroke-linecap:butt;stroke-linejoin:miter;stroke:rgb(0%,0%,0%);stroke-opacity:1;stroke-miterlimit:10;" d="M 30.645469 14.758406 L 24.723594 27.055281 C -19.549844 118.992781 -62.362344 93.543563 -62.362344 0.00059375 " transform="matrix(1,0,0,-1,112.21,119.192)"/>
<path style=" stroke:none;fill-rule:nonzero;fill:rgb(100%,100%,100%);fill-opacity:1;" d="M 118.515625 91.558594 L 105.210938 88.519531 C 22.304688 69.597656 10.378906 110.496094 76.863281 163.515625 L 73.332031 167.945312 C 0.199219 109.628906 6.988281 60.285156 106.472656 82.992188 L 119.777344 86.03125 "/>
<path style="fill:none;stroke-width:0.3985;stroke-linecap:butt;stroke-linejoin:miter;stroke:rgb(0%,0%,0%);stroke-opacity:1;stroke-miterlimit:10;" d="M 6.305625 27.633406 L -6.999063 30.672469 C -89.905313 49.594344 -101.831094 8.695906 -35.346719 -44.323625 " transform="matrix(1,0,0,-1,112.21,119.192)"/>
<path style="fill:none;stroke-width:0.3985;stroke-linecap:butt;stroke-linejoin:miter;stroke:rgb(0%,0%,0%);stroke-opacity:1;stroke-miterlimit:10;" d="M 7.567344 33.16075 L -5.737344 36.199813 C -105.221719 58.906844 -112.010781 9.563094 -38.877969 -48.753312 " transform="matrix(1,0,0,-1,112.21,119.192)"/>
<path style=" stroke:none;fill-rule:nonzero;fill:rgb(100%,100%,100%);fill-opacity:1;" d="M 94.535156 97.03125 L 83.863281 105.542969 C 17.382812 158.5625 41.917969 193.382812 124.824219 174.460938 L 126.085938 179.988281 C 34.890625 200.800781 0.550781 164.734375 80.332031 101.109375 L 91.003906 92.597656 "/>
<path style="fill:none;stroke-width:0.3985;stroke-linecap:butt;stroke-linejoin:miter;stroke:rgb(0%,0%,0%);stroke-opacity:1;stroke-miterlimit:10;" d="M -17.674844 22.16075 L -28.346719 13.649031 C -94.827188 -39.3705 -70.292031 -74.190812 12.614219 -55.268937 " transform="matrix(1,0,0,-1,112.21,119.192)"/>
<path style="fill:none;stroke-width:0.3985;stroke-linecap:butt;stroke-linejoin:miter;stroke:rgb(0%,0%,0%);stroke-opacity:1;stroke-miterlimit:10;" d="M -21.206094 26.594344 L -31.877969 18.082625 C -111.659219 -45.542375 -77.319375 -81.608781 13.875937 -60.796281 " transform="matrix(1,0,0,-1,112.21,119.192)"/>
<path style=" stroke:none;fill-rule:nonzero;fill:rgb(100%,100%,100%);fill-opacity:1;" d="M 83.863281 119.191406 L 83.863281 132.84375 C 83.863281 217.882812 126.390625 220.402344 163.285156 143.789062 L 168.394531 146.25 C 127.808594 230.523438 78.195312 234.890625 78.195312 132.84375 L 78.195312 119.191406 "/>
<path style="fill:none;stroke-width:0.3985;stroke-linecap:butt;stroke-linejoin:miter;stroke:rgb(0%,0%,0%);stroke-opacity:1;stroke-miterlimit:10;" d="M -28.346719 0.00059375 L -28.346719 -13.65175 C -28.346719 -98.690812 14.180625 -101.210344 51.075156 -24.597062 " transform="matrix(1,0,0,-1,112.21,119.192)"/>
<path style="fill:none;stroke-width:0.3985;stroke-linecap:butt;stroke-linejoin:miter;stroke:rgb(0%,0%,0%);stroke-opacity:1;stroke-miterlimit:10;" d="M -34.014688 0.00059375 L -34.014688 -13.65175 C -34.014688 -115.698625 15.598594 -111.331437 56.184531 -27.058 " transform="matrix(1,0,0,-1,112.21,119.192)"/>
<path style=" stroke:none;fill-rule:nonzero;fill:rgb(100%,100%,100%);fill-opacity:1;" d="M 94.539062 141.351562 L 105.210938 149.863281 C 171.695312 202.882812 200.183594 171.210938 163.285156 94.59375 L 168.394531 92.136719 C 208.976562 176.410156 181.457031 217.917969 101.675781 154.296875 L 91.003906 145.785156 "/>
<path style="fill:none;stroke-width:0.3985;stroke-linecap:butt;stroke-linejoin:miter;stroke:rgb(0%,0%,0%);stroke-opacity:1;stroke-miterlimit:10;" d="M -17.670938 -22.159562 L -6.999063 -30.671281 C 59.485312 -83.690812 87.973594 -52.018937 51.075156 24.59825 " transform="matrix(1,0,0,-1,112.21,119.192)"/>
<path style="fill:none;stroke-width:0.3985;stroke-linecap:butt;stroke-linejoin:miter;stroke:rgb(0%,0%,0%);stroke-opacity:1;stroke-miterlimit:10;" d="M -21.206094 -26.593156 L -10.534219 -35.104875 C 69.247031 -98.725969 96.766562 -57.218156 56.184531 27.055281 " transform="matrix(1,0,0,-1,112.21,119.192)"/>
<path style=" stroke:none;fill-rule:nonzero;fill:rgb(100%,100%,100%);fill-opacity:1;" d="M 118.515625 146.828125 L 131.824219 143.789062 C 214.730469 124.867188 207.730469 82.84375 124.824219 63.921875 L 126.085938 58.394531 C 217.28125 79.210938 232.574219 126.609375 133.085938 149.316406 L 119.777344 152.355469 "/>
<path style="fill:none;stroke-width:0.3985;stroke-linecap:butt;stroke-linejoin:miter;stroke:rgb(0%,0%,0%);stroke-opacity:1;stroke-miterlimit:10;" d="M 6.305625 -27.636125 L 19.614219 -24.597062 C 102.520469 -5.675187 95.520469 36.34825 12.614219 55.270125 " transform="matrix(1,0,0,-1,112.21,119.192)"/>
<path style="fill:none;stroke-width:0.3985;stroke-linecap:butt;stroke-linejoin:miter;stroke:rgb(0%,0%,0%);stroke-opacity:1;stroke-miterlimit:10;" d="M 7.567344 -33.163469 L 20.875937 -30.124406 C 120.364219 -7.417375 105.07125 39.981063 13.875937 60.797469 " transform="matrix(1,0,0,-1,112.21,119.192)"/>
<path style=" stroke:none;fill-rule:nonzero;fill:rgb(100%,100%,100%);fill-opacity:1;" d="M 137.75 131.492188 L 143.671875 119.191406 C 180.566406 42.578125 143.347656 21.851562 76.863281 74.871094 L 73.328125 70.4375 C 146.460938 12.117188 193.054688 29.714844 148.78125 121.652344 L 142.855469 133.949219 "/>
<path style="fill:none;stroke-width:0.3985;stroke-linecap:butt;stroke-linejoin:miter;stroke:rgb(0%,0%,0%);stroke-opacity:1;stroke-miterlimit:10;" d="M 25.54 -12.300187 L 31.461875 0.00059375 C 68.356406 76.613875 31.137656 97.340438 -35.346719 44.320906 " transform="matrix(1,0,0,-1,112.21,119.192)"/>
<path style="fill:none;stroke-width:0.3985;stroke-linecap:butt;stroke-linejoin:miter;stroke:rgb(0%,0%,0%);stroke-opacity:1;stroke-miterlimit:10;" d="M 30.645469 -14.757219 L 36.57125 -2.460344 C 80.844687 89.477156 34.250937 107.074813 -38.881875 48.7545 " transform="matrix(1,0,0,-1,112.21,119.192)"/>
</g>
</svg>
