<?xml version="1.0" encoding="UTF-8"?>
<svg xmlns="http://www.w3.org/2000/svg" xmlns:xlink="http://www.w3.org/1999/xlink" width="141.488pt" height="141.488pt" viewBox="0 0 141.488 141.488" version="1.1">
<defs>
<clipPath id="clip1">
  <path d="M 59 5 L 141.488281 5 L 141.488281 83 L 59 83 Z M 59 5 "/>
</clipPath>
<clipPath id="clip2">
  <path d="M 59 59 L 137 59 L 137 141.488281 L 59 141.488281 Z M 59 59 "/>
</clipPath>
<clipPath id="clip3">
  <path d="M 5 59 L 83 59 L 83 141.488281 L 5 141.488281 Z M 5 59 "/>
</clipPath>
<clipPath id="clip4">
  <path d="M 59 59 L 141.488281 59 L 141.488281 137 L 59 137 Z M 59 59 "/>
</clipPath>
</defs>
<g id="surface21">
<path style=" stroke:none;fill-rule:nonzero;fill:rgb(100%,100%,100%);fill-opacity:1;" d="M 126.738281 61.875 L 125.332031 53.007812 C 120.898438 25.011719 63.054688 138.816406 90.015625 130.054688 L 90.714844 132.210938 C 62.777344 141.289062 122.960938 23.535156 127.570312 52.652344 L 128.980469 61.519531 "/>
<path style="fill:none;stroke-width:0.3985;stroke-linecap:butt;stroke-linejoin:miter;stroke:rgb(0%,0%,0%);stroke-opacity:1;stroke-miterlimit:10;" d="M 55.994281 8.869 L 54.588031 17.736188 C 50.154437 45.732281 -7.689313 -68.072406 19.271625 -59.310687 " transform="matrix(1,0,0,-1,70.744,70.744)"/>
<path style="fill:none;stroke-width:0.3985;stroke-linecap:butt;stroke-linejoin:miter;stroke:rgb(0%,0%,0%);stroke-opacity:1;stroke-miterlimit:10;" d="M 19.970844 -61.466937 C -7.966656 -70.545062 52.216937 47.208844 56.826312 18.091656 L 58.236469 9.224469 " transform="matrix(1,0,0,-1,70.744,70.744)"/>
<path style=" stroke:none;fill-rule:nonzero;fill:rgb(100%,100%,100%);fill-opacity:1;" d="M 121.257812 45.003906 L 117.179688 37.007812 C 104.308594 11.75 84.464844 137.859375 107.398438 121.195312 L 108.734375 123.03125 C 84.96875 140.296875 105.816406 9.710938 119.199219 35.976562 L 123.277344 43.976562 "/>
<path style="fill:none;stroke-width:0.3985;stroke-linecap:butt;stroke-linejoin:miter;stroke:rgb(0%,0%,0%);stroke-opacity:1;stroke-miterlimit:10;" d="M 50.513812 25.740094 L 46.435687 33.736188 C 33.564594 58.994 13.720844 -67.115375 36.654437 -50.451312 " transform="matrix(1,0,0,-1,70.744,70.744)"/>
<path style="fill:none;stroke-width:0.3985;stroke-linecap:butt;stroke-linejoin:miter;stroke:rgb(0%,0%,0%);stroke-opacity:1;stroke-miterlimit:10;" d="M 37.990375 -52.28725 C 14.22475 -69.552875 35.072406 61.033063 48.455219 34.767438 L 52.533344 26.767438 " transform="matrix(1,0,0,-1,70.744,70.744)"/>
<path style=" stroke:none;fill-rule:nonzero;fill:rgb(100%,100%,100%);fill-opacity:1;" d="M 110.832031 30.65625 L 104.480469 24.308594 C 84.4375 4.265625 104.535156 130.332031 121.195312 107.398438 L 123.03125 108.734375 C 105.765625 132.496094 85.238281 1.859375 106.082031 22.707031 L 112.4375 29.050781 "/>
<path style="fill:none;stroke-width:0.3985;stroke-linecap:butt;stroke-linejoin:miter;stroke:rgb(0%,0%,0%);stroke-opacity:1;stroke-miterlimit:10;" d="M 40.088031 40.08775 L 33.736469 46.435406 C 13.6935 66.478375 33.791156 -59.588031 50.451312 -36.654437 " transform="matrix(1,0,0,-1,70.744,70.744)"/>
<path style="fill:none;stroke-width:0.3985;stroke-linecap:butt;stroke-linejoin:miter;stroke:rgb(0%,0%,0%);stroke-opacity:1;stroke-miterlimit:10;" d="M 52.28725 -37.990375 C 35.021625 -61.752094 14.494281 68.884625 35.338031 48.036969 L 41.6935 41.693219 " transform="matrix(1,0,0,-1,70.744,70.744)"/>
<path style=" stroke:none;fill-rule:nonzero;fill:rgb(100%,100%,100%);fill-opacity:1;" d="M 96.484375 20.230469 L 88.480469 16.15625 C 63.222656 3.289062 121.296875 116.976562 130.054688 90.015625 L 132.210938 90.714844 C 123.132812 118.652344 63.242188 0.753906 89.507812 14.136719 L 97.511719 18.210938 "/>
<path style="fill:none;stroke-width:0.3985;stroke-linecap:butt;stroke-linejoin:miter;stroke:rgb(0%,0%,0%);stroke-opacity:1;stroke-miterlimit:10;" d="M 25.740375 50.513531 L 17.736469 54.58775 C -7.521344 67.454938 50.552875 -46.232562 59.310687 -19.271625 " transform="matrix(1,0,0,-1,70.744,70.744)"/>
<path style="fill:none;stroke-width:0.3985;stroke-linecap:butt;stroke-linejoin:miter;stroke:rgb(0%,0%,0%);stroke-opacity:1;stroke-miterlimit:10;" d="M 61.466937 -19.970844 C 52.388812 -47.908344 -7.501813 69.990094 18.763812 56.607281 L 26.767719 52.533063 " transform="matrix(1,0,0,-1,70.744,70.744)"/>
<path style=" stroke:none;fill-rule:nonzero;fill:rgb(100%,100%,100%);fill-opacity:1;" d="M 79.613281 14.75 L 70.742188 13.347656 C 42.746094 8.914062 133.105469 99.089844 133.105469 70.742188 L 135.375 70.742188 C 135.375 100.121094 41.980469 6.496094 71.097656 11.109375 L 79.96875 12.507812 "/>
<path style="fill:none;stroke-width:0.3985;stroke-linecap:butt;stroke-linejoin:miter;stroke:rgb(0%,0%,0%);stroke-opacity:1;stroke-miterlimit:10;" d="M 8.869281 55.994 L -0.0018125 57.396344 C -27.997906 61.829938 62.361469 -28.345844 62.361469 0.0018125 " transform="matrix(1,0,0,-1,70.744,70.744)"/>
<g clip-path="url(#clip1)" clip-rule="nonzero">
<path style="fill:none;stroke-width:0.3985;stroke-linecap:butt;stroke-linejoin:miter;stroke:rgb(0%,0%,0%);stroke-opacity:1;stroke-miterlimit:10;" d="M 64.631 0.0018125 C 64.631 -29.377094 -28.763531 64.247906 0.353656 59.634625 L 9.22475 58.236188 " transform="matrix(1,0,0,-1,70.744,70.744)"/>
</g>
<path style=" stroke:none;fill-rule:nonzero;fill:rgb(100%,100%,100%);fill-opacity:1;" d="M 61.875 14.75 L 53.007812 16.15625 C 25.011719 20.589844 138.816406 78.433594 130.054688 51.472656 L 132.210938 50.773438 C 141.289062 78.710938 23.535156 18.527344 52.652344 13.917969 L 61.519531 12.507812 "/>
<path style="fill:none;stroke-width:0.3985;stroke-linecap:butt;stroke-linejoin:miter;stroke:rgb(0%,0%,0%);stroke-opacity:1;stroke-miterlimit:10;" d="M -8.869 55.994 L -17.736188 54.58775 C -45.732281 50.154156 68.072406 -7.689594 59.310687 19.271344 " transform="matrix(1,0,0,-1,70.744,70.744)"/>
<path style="fill:none;stroke-width:0.3985;stroke-linecap:butt;stroke-linejoin:miter;stroke:rgb(0%,0%,0%);stroke-opacity:1;stroke-miterlimit:10;" d="M 61.466937 19.970563 C 70.545062 -7.966937 -47.208844 52.216656 -18.091656 56.826031 L -9.224469 58.236188 " transform="matrix(1,0,0,-1,70.744,70.744)"/>
<path style=" stroke:none;fill-rule:nonzero;fill:rgb(100%,100%,100%);fill-opacity:1;" d="M 45.003906 20.230469 L 37.007812 24.308594 C 11.75 37.179688 137.859375 57.019531 121.195312 34.089844 L 123.03125 32.753906 C 140.296875 56.519531 9.710938 35.671875 35.976562 22.289062 L 43.976562 18.210938 "/>
<path style="fill:none;stroke-width:0.3985;stroke-linecap:butt;stroke-linejoin:miter;stroke:rgb(0%,0%,0%);stroke-opacity:1;stroke-miterlimit:10;" d="M -25.740094 50.513531 L -33.736188 46.435406 C -58.994 33.564313 67.115375 13.724469 50.451312 36.654156 " transform="matrix(1,0,0,-1,70.744,70.744)"/>
<path style="fill:none;stroke-width:0.3985;stroke-linecap:butt;stroke-linejoin:miter;stroke:rgb(0%,0%,0%);stroke-opacity:1;stroke-miterlimit:10;" d="M 52.28725 37.990094 C 69.552875 14.224469 -61.033063 35.072125 -34.767438 48.454938 L -26.767438 52.533063 " transform="matrix(1,0,0,-1,70.744,70.744)"/>
<path style=" stroke:none;fill-rule:nonzero;fill:rgb(100%,100%,100%);fill-opacity:1;" d="M 30.65625 30.65625 L 24.308594 37.007812 C 4.265625 57.050781 130.332031 36.953125 107.398438 20.292969 L 108.734375 18.457031 C 132.496094 35.722656 1.859375 56.25 22.707031 35.40625 L 29.050781 29.050781 "/>
<path style="fill:none;stroke-width:0.3985;stroke-linecap:butt;stroke-linejoin:miter;stroke:rgb(0%,0%,0%);stroke-opacity:1;stroke-miterlimit:10;" d="M -40.08775 40.08775 L -46.435406 33.736188 C -66.478375 13.693219 59.588031 33.790875 36.654437 50.451031 " transform="matrix(1,0,0,-1,70.744,70.744)"/>
<path style="fill:none;stroke-width:0.3985;stroke-linecap:butt;stroke-linejoin:miter;stroke:rgb(0%,0%,0%);stroke-opacity:1;stroke-miterlimit:10;" d="M 37.990375 52.286969 C 61.752094 35.021344 -68.884625 14.494 -48.036969 35.33775 L -41.693219 41.693219 " transform="matrix(1,0,0,-1,70.744,70.744)"/>
<path style=" stroke:none;fill-rule:nonzero;fill:rgb(100%,100%,100%);fill-opacity:1;" d="M 20.230469 45.003906 L 16.15625 53.007812 C 3.289062 78.265625 116.976562 20.191406 90.015625 11.433594 L 90.714844 9.277344 C 118.652344 18.355469 0.753906 78.246094 14.136719 51.976562 L 18.210938 43.976562 "/>
<path style="fill:none;stroke-width:0.3985;stroke-linecap:butt;stroke-linejoin:miter;stroke:rgb(0%,0%,0%);stroke-opacity:1;stroke-miterlimit:10;" d="M -50.513531 25.740094 L -54.58775 17.736188 C -67.454938 -7.521625 46.232562 50.552594 19.271625 59.310406 " transform="matrix(1,0,0,-1,70.744,70.744)"/>
<path style="fill:none;stroke-width:0.3985;stroke-linecap:butt;stroke-linejoin:miter;stroke:rgb(0%,0%,0%);stroke-opacity:1;stroke-miterlimit:10;" d="M 19.970844 61.466656 C 47.908344 52.388531 -69.990094 -7.502094 -56.607281 18.767438 L -52.533063 26.767438 " transform="matrix(1,0,0,-1,70.744,70.744)"/>
<path style=" stroke:none;fill-rule:nonzero;fill:rgb(100%,100%,100%);fill-opacity:1;" d="M 14.75 61.875 L 13.347656 70.742188 C 8.914062 98.742188 99.089844 8.382812 70.742188 8.382812 L 70.742188 6.113281 C 100.121094 6.113281 6.496094 99.507812 11.109375 70.390625 L 12.507812 61.519531 "/>
<path style="fill:none;stroke-width:0.3985;stroke-linecap:butt;stroke-linejoin:miter;stroke:rgb(0%,0%,0%);stroke-opacity:1;stroke-miterlimit:10;" d="M -55.994 8.869 L -57.396344 0.0018125 C -61.829938 -27.998187 28.345844 62.361188 -0.0018125 62.361188 " transform="matrix(1,0,0,-1,70.744,70.744)"/>
<path style="fill:none;stroke-width:0.3985;stroke-linecap:butt;stroke-linejoin:miter;stroke:rgb(0%,0%,0%);stroke-opacity:1;stroke-miterlimit:10;" d="M -0.0018125 64.630719 C 29.377094 64.630719 -64.247906 -28.763812 -59.634625 0.353375 L -58.236188 9.224469 " transform="matrix(1,0,0,-1,70.744,70.744)"/>
<path style=" stroke:none;fill-rule:nonzero;fill:rgb(100%,100%,100%);fill-opacity:1;" d="M 14.75 79.613281 L 16.15625 88.480469 C 20.589844 116.476562 78.433594 2.671875 51.472656 11.433594 L 50.773438 9.277344 C 78.710938 0.199219 18.527344 117.953125 13.917969 88.835938 L 12.507812 79.96875 "/>
<path style="fill:none;stroke-width:0.3985;stroke-linecap:butt;stroke-linejoin:miter;stroke:rgb(0%,0%,0%);stroke-opacity:1;stroke-miterlimit:10;" d="M -55.994 -8.869281 L -54.58775 -17.736469 C -50.154156 -45.732562 7.689594 68.072125 -19.271344 59.310406 " transform="matrix(1,0,0,-1,70.744,70.744)"/>
<path style="fill:none;stroke-width:0.3985;stroke-linecap:butt;stroke-linejoin:miter;stroke:rgb(0%,0%,0%);stroke-opacity:1;stroke-miterlimit:10;" d="M -19.970563 61.466656 C 7.966937 70.544781 -52.216656 -47.209125 -56.826031 -18.091937 L -58.236188 -9.22475 " transform="matrix(1,0,0,-1,70.744,70.744)"/>
<path style=" stroke:none;fill-rule:nonzero;fill:rgb(100%,100%,100%);fill-opacity:1;" d="M 20.230469 96.484375 L 24.308594 104.480469 C 37.179688 129.738281 57.019531 3.628906 34.089844 20.292969 L 32.753906 18.457031 C 56.519531 1.191406 35.671875 131.777344 22.289062 105.507812 L 18.210938 97.511719 "/>
<path style="fill:none;stroke-width:0.3985;stroke-linecap:butt;stroke-linejoin:miter;stroke:rgb(0%,0%,0%);stroke-opacity:1;stroke-miterlimit:10;" d="M -50.513531 -25.740375 L -46.435406 -33.736469 C -33.564313 -58.994281 -13.724469 67.115094 -36.654156 50.451031 " transform="matrix(1,0,0,-1,70.744,70.744)"/>
<path style="fill:none;stroke-width:0.3985;stroke-linecap:butt;stroke-linejoin:miter;stroke:rgb(0%,0%,0%);stroke-opacity:1;stroke-miterlimit:10;" d="M -37.990094 52.286969 C -14.224469 69.552594 -35.072125 -61.033344 -48.454938 -34.763812 L -52.533063 -26.767719 " transform="matrix(1,0,0,-1,70.744,70.744)"/>
<path style=" stroke:none;fill-rule:nonzero;fill:rgb(100%,100%,100%);fill-opacity:1;" d="M 30.65625 110.832031 L 37.007812 117.179688 C 57.050781 137.222656 36.953125 11.15625 20.292969 34.089844 L 18.457031 32.753906 C 35.722656 8.988281 56.25 139.628906 35.40625 118.78125 L 29.050781 112.4375 "/>
<path style="fill:none;stroke-width:0.3985;stroke-linecap:butt;stroke-linejoin:miter;stroke:rgb(0%,0%,0%);stroke-opacity:1;stroke-miterlimit:10;" d="M -40.08775 -40.088031 L -33.736188 -46.435687 C -13.693219 -66.478656 -33.790875 59.58775 -50.451031 36.654156 " transform="matrix(1,0,0,-1,70.744,70.744)"/>
<path style="fill:none;stroke-width:0.3985;stroke-linecap:butt;stroke-linejoin:miter;stroke:rgb(0%,0%,0%);stroke-opacity:1;stroke-miterlimit:10;" d="M -52.286969 37.990094 C -35.021344 61.755719 -14.494 -68.884906 -35.33775 -48.03725 L -41.693219 -41.6935 " transform="matrix(1,0,0,-1,70.744,70.744)"/>
<path style=" stroke:none;fill-rule:nonzero;fill:rgb(100%,100%,100%);fill-opacity:1;" d="M 45.003906 121.257812 L 53.007812 125.332031 C 78.265625 138.199219 20.191406 24.511719 11.433594 51.472656 L 9.277344 50.773438 C 18.355469 22.832031 78.246094 140.734375 51.976562 127.351562 L 43.976562 123.277344 "/>
<path style="fill:none;stroke-width:0.3985;stroke-linecap:butt;stroke-linejoin:miter;stroke:rgb(0%,0%,0%);stroke-opacity:1;stroke-miterlimit:10;" d="M -25.740094 -50.513812 L -17.736188 -54.588031 C 7.521625 -67.455219 -50.552594 46.232281 -59.310406 19.271344 " transform="matrix(1,0,0,-1,70.744,70.744)"/>
<path style="fill:none;stroke-width:0.3985;stroke-linecap:butt;stroke-linejoin:miter;stroke:rgb(0%,0%,0%);stroke-opacity:1;stroke-miterlimit:10;" d="M -61.466656 19.970563 C -52.388531 47.911969 7.502094 -69.990375 -18.767438 -56.607562 L -26.767438 -52.533344 " transform="matrix(1,0,0,-1,70.744,70.744)"/>
<path style=" stroke:none;fill-rule:nonzero;fill:rgb(100%,100%,100%);fill-opacity:1;" d="M 61.875 126.738281 L 70.742188 128.140625 C 98.742188 132.574219 8.382812 42.398438 8.382812 70.742188 L 6.113281 70.742188 C 6.113281 41.367188 99.507812 134.992188 70.390625 130.378906 L 61.519531 128.980469 "/>
<path style="fill:none;stroke-width:0.3985;stroke-linecap:butt;stroke-linejoin:miter;stroke:rgb(0%,0%,0%);stroke-opacity:1;stroke-miterlimit:10;" d="M -8.869 -55.994281 L -0.0018125 -57.396625 C 27.998187 -61.830219 -62.361188 28.345563 -62.361188 0.0018125 " transform="matrix(1,0,0,-1,70.744,70.744)"/>
<path style="fill:none;stroke-width:0.3985;stroke-linecap:butt;stroke-linejoin:miter;stroke:rgb(0%,0%,0%);stroke-opacity:1;stroke-miterlimit:10;" d="M -64.630719 0.0018125 C -64.630719 29.376813 28.763812 -64.248187 -0.353375 -59.634906 L -9.224469 -58.236469 " transform="matrix(1,0,0,-1,70.744,70.744)"/>
<path style=" stroke:none;fill-rule:nonzero;fill:rgb(100%,100%,100%);fill-opacity:1;" d="M 79.613281 126.738281 L 88.480469 125.332031 C 116.476562 120.898438 2.671875 63.054688 11.433594 90.015625 L 9.277344 90.714844 C 0.199219 62.777344 117.953125 122.960938 88.835938 127.570312 L 79.96875 128.980469 "/>
<path style="fill:none;stroke-width:0.3985;stroke-linecap:butt;stroke-linejoin:miter;stroke:rgb(0%,0%,0%);stroke-opacity:1;stroke-miterlimit:10;" d="M 8.869281 -55.994281 L 17.736469 -54.588031 C 45.732562 -50.154437 -68.072125 7.689313 -59.310406 -19.271625 " transform="matrix(1,0,0,-1,70.744,70.744)"/>
<path style="fill:none;stroke-width:0.3985;stroke-linecap:butt;stroke-linejoin:miter;stroke:rgb(0%,0%,0%);stroke-opacity:1;stroke-miterlimit:10;" d="M -61.466656 -19.970844 C -70.544781 7.966656 47.209125 -52.216937 18.091937 -56.826312 L 9.22475 -58.236469 " transform="matrix(1,0,0,-1,70.744,70.744)"/>
<path style=" stroke:none;fill-rule:nonzero;fill:rgb(100%,100%,100%);fill-opacity:1;" d="M 96.484375 121.257812 L 104.480469 117.179688 C 129.738281 104.308594 3.628906 84.464844 20.292969 107.398438 L 18.457031 108.734375 C 1.191406 84.96875 131.777344 105.816406 105.507812 119.199219 L 97.511719 123.277344 "/>
<path style="fill:none;stroke-width:0.3985;stroke-linecap:butt;stroke-linejoin:miter;stroke:rgb(0%,0%,0%);stroke-opacity:1;stroke-miterlimit:10;" d="M 25.740375 -50.513812 L 33.736469 -46.435687 C 58.994281 -33.564594 -67.115094 -13.720844 -50.451031 -36.654437 " transform="matrix(1,0,0,-1,70.744,70.744)"/>
<path style="fill:none;stroke-width:0.3985;stroke-linecap:butt;stroke-linejoin:miter;stroke:rgb(0%,0%,0%);stroke-opacity:1;stroke-miterlimit:10;" d="M -52.286969 -37.990375 C -69.552594 -14.22475 61.033344 -35.072406 34.763812 -48.455219 L 26.767719 -52.533344 " transform="matrix(1,0,0,-1,70.744,70.744)"/>
<path style=" stroke:none;fill-rule:nonzero;fill:rgb(100%,100%,100%);fill-opacity:1;" d="M 110.832031 110.832031 L 117.179688 104.480469 C 137.222656 84.4375 11.15625 104.535156 34.089844 121.195312 L 32.753906 123.03125 C 8.988281 105.765625 139.628906 85.238281 118.78125 106.082031 L 112.4375 112.4375 "/>
<path style="fill:none;stroke-width:0.3985;stroke-linecap:butt;stroke-linejoin:miter;stroke:rgb(0%,0%,0%);stroke-opacity:1;stroke-miterlimit:10;" d="M 40.088031 -40.088031 L 46.435687 -33.736469 C 66.478656 -13.6935 -59.58775 -33.791156 -36.654156 -50.451312 " transform="matrix(1,0,0,-1,70.744,70.744)"/>
<path style="fill:none;stroke-width:0.3985;stroke-linecap:butt;stroke-linejoin:miter;stroke:rgb(0%,0%,0%);stroke-opacity:1;stroke-miterlimit:10;" d="M -37.990094 -52.28725 C -61.755719 -35.021625 68.884906 -14.494281 48.03725 -35.338031 L 41.6935 -41.6935 " transform="matrix(1,0,0,-1,70.744,70.744)"/>
<path style=" stroke:none;fill-rule:nonzero;fill:rgb(100%,100%,100%);fill-opacity:1;" d="M 121.257812 96.484375 L 125.332031 88.480469 C 138.199219 63.222656 24.511719 121.296875 51.472656 130.054688 L 50.773438 132.210938 C 22.832031 123.132812 140.734375 63.242188 127.351562 89.507812 L 123.277344 97.511719 "/>
<path style="fill:none;stroke-width:0.3985;stroke-linecap:butt;stroke-linejoin:miter;stroke:rgb(0%,0%,0%);stroke-opacity:1;stroke-miterlimit:10;" d="M 50.513812 -25.740375 L 54.588031 -17.736469 C 67.455219 7.521344 -46.232281 -50.552875 -19.271344 -59.310687 " transform="matrix(1,0,0,-1,70.744,70.744)"/>
<path style="fill:none;stroke-width:0.3985;stroke-linecap:butt;stroke-linejoin:miter;stroke:rgb(0%,0%,0%);stroke-opacity:1;stroke-miterlimit:10;" d="M -19.970563 -61.466937 C -47.911969 -52.388812 69.990375 7.501813 56.607562 -18.763812 L 52.533344 -26.767719 " transform="matrix(1,0,0,-1,70.744,70.744)"/>
<path style=" stroke:none;fill-rule:nonzero;fill:rgb(100%,100%,100%);fill-opacity:1;" d="M 126.738281 79.613281 L 128.140625 70.742188 C 132.574219 42.746094 42.398438 133.105469 70.742188 133.105469 L 70.742188 135.375 C 41.367188 135.375 134.992188 41.980469 130.378906 71.097656 L 128.980469 79.96875 "/>
<path style="fill:none;stroke-width:0.3985;stroke-linecap:butt;stroke-linejoin:miter;stroke:rgb(0%,0%,0%);stroke-opacity:1;stroke-miterlimit:10;" d="M 55.994281 -8.869281 L 57.396625 0.0018125 C 61.830219 27.997906 -28.345563 -62.361469 -0.0018125 -62.361469 " transform="matrix(1,0,0,-1,70.744,70.744)"/>
<g clip-path="url(#clip2)" clip-rule="nonzero">
<path style="fill:none;stroke-width:0.3985;stroke-linecap:butt;stroke-linejoin:miter;stroke:rgb(0%,0%,0%);stroke-opacity:1;stroke-miterlimit:10;" d="M -0.0018125 -64.631 C -29.376813 -64.631 64.248187 28.763531 59.634906 -0.353656 L 58.236469 -9.22475 " transform="matrix(1,0,0,-1,70.744,70.744)"/>
</g>
<path style=" stroke:none;fill-rule:nonzero;fill:rgb(100%,100%,100%);fill-opacity:1;" d="M 126.738281 61.875 L 128.140625 70.742188 C 132.574219 98.742188 42.398438 8.382812 70.742188 8.382812 L 70.742188 6.113281 C 41.367188 6.113281 134.992188 99.507812 130.378906 70.390625 L 128.980469 61.519531 "/>
<path style="fill:none;stroke-width:0.3985;stroke-linecap:butt;stroke-linejoin:miter;stroke:rgb(0%,0%,0%);stroke-opacity:1;stroke-miterlimit:10;" d="M 55.994281 8.869 L 57.396625 0.0018125 C 61.830219 -27.998187 -28.345563 62.361188 -0.0018125 62.361188 " transform="matrix(1,0,0,-1,70.744,70.744)"/>
<path style="fill:none;stroke-width:0.3985;stroke-linecap:butt;stroke-linejoin:miter;stroke:rgb(0%,0%,0%);stroke-opacity:1;stroke-miterlimit:10;" d="M 58.236469 9.224469 L 59.634906 0.353375 C 64.248187 -28.763812 -29.376813 64.630719 -0.0018125 64.630719 " transform="matrix(1,0,0,-1,70.744,70.744)"/>
<path style=" stroke:none;fill-rule:nonzero;fill:rgb(100%,100%,100%);fill-opacity:1;" d="M 121.257812 45.003906 L 125.332031 53.007812 C 138.199219 78.265625 24.511719 20.191406 51.472656 11.433594 L 50.773438 9.277344 C 22.832031 18.355469 140.734375 78.246094 127.351562 51.976562 L 123.277344 43.976562 "/>
<path style="fill:none;stroke-width:0.3985;stroke-linecap:butt;stroke-linejoin:miter;stroke:rgb(0%,0%,0%);stroke-opacity:1;stroke-miterlimit:10;" d="M 50.513812 25.740094 L 54.588031 17.736188 C 67.455219 -7.521625 -46.232281 50.552594 -19.271344 59.310406 " transform="matrix(1,0,0,-1,70.744,70.744)"/>
<path style="fill:none;stroke-width:0.3985;stroke-linecap:butt;stroke-linejoin:miter;stroke:rgb(0%,0%,0%);stroke-opacity:1;stroke-miterlimit:10;" d="M 52.533344 26.767438 L 56.607562 18.767438 C 69.990375 -7.502094 -47.911969 52.388531 -19.970563 61.466656 " transform="matrix(1,0,0,-1,70.744,70.744)"/>
<path style=" stroke:none;fill-rule:nonzero;fill:rgb(100%,100%,100%);fill-opacity:1;" d="M 110.832031 30.65625 L 117.179688 37.007812 C 137.222656 57.050781 11.15625 36.953125 34.089844 20.292969 L 32.753906 18.457031 C 8.988281 35.722656 139.628906 56.25 118.78125 35.40625 L 112.4375 29.050781 "/>
<path style="fill:none;stroke-width:0.3985;stroke-linecap:butt;stroke-linejoin:miter;stroke:rgb(0%,0%,0%);stroke-opacity:1;stroke-miterlimit:10;" d="M 40.088031 40.08775 L 46.435687 33.736188 C 66.478656 13.693219 -59.58775 33.790875 -36.654156 50.451031 " transform="matrix(1,0,0,-1,70.744,70.744)"/>
<path style="fill:none;stroke-width:0.3985;stroke-linecap:butt;stroke-linejoin:miter;stroke:rgb(0%,0%,0%);stroke-opacity:1;stroke-miterlimit:10;" d="M 41.6935 41.693219 L 48.03725 35.33775 C 68.884906 14.494 -61.755719 35.021344 -37.990094 52.286969 " transform="matrix(1,0,0,-1,70.744,70.744)"/>
<path style=" stroke:none;fill-rule:nonzero;fill:rgb(100%,100%,100%);fill-opacity:1;" d="M 96.484375 20.230469 L 104.480469 24.308594 C 129.738281 37.179688 3.628906 57.019531 20.292969 34.089844 L 18.457031 32.753906 C 1.191406 56.519531 131.777344 35.671875 105.507812 22.289062 L 97.511719 18.210938 "/>
<path style="fill:none;stroke-width:0.3985;stroke-linecap:butt;stroke-linejoin:miter;stroke:rgb(0%,0%,0%);stroke-opacity:1;stroke-miterlimit:10;" d="M 25.740375 50.513531 L 33.736469 46.435406 C 58.994281 33.564313 -67.115094 13.724469 -50.451031 36.654156 " transform="matrix(1,0,0,-1,70.744,70.744)"/>
<path style="fill:none;stroke-width:0.3985;stroke-linecap:butt;stroke-linejoin:miter;stroke:rgb(0%,0%,0%);stroke-opacity:1;stroke-miterlimit:10;" d="M 26.767719 52.533063 L 34.763812 48.454938 C 61.033344 35.072125 -69.552594 14.224469 -52.286969 37.990094 " transform="matrix(1,0,0,-1,70.744,70.744)"/>
<path style=" stroke:none;fill-rule:nonzero;fill:rgb(100%,100%,100%);fill-opacity:1;" d="M 79.613281 14.75 L 88.480469 16.15625 C 116.476562 20.589844 2.671875 78.433594 11.433594 51.472656 L 9.277344 50.773438 C 0.199219 78.710938 117.953125 18.527344 88.835938 13.917969 L 79.96875 12.507812 "/>
<path style="fill:none;stroke-width:0.3985;stroke-linecap:butt;stroke-linejoin:miter;stroke:rgb(0%,0%,0%);stroke-opacity:1;stroke-miterlimit:10;" d="M 8.869281 55.994 L 17.736469 54.58775 C 45.732562 50.154156 -68.072125 -7.689594 -59.310406 19.271344 " transform="matrix(1,0,0,-1,70.744,70.744)"/>
<path style="fill:none;stroke-width:0.3985;stroke-linecap:butt;stroke-linejoin:miter;stroke:rgb(0%,0%,0%);stroke-opacity:1;stroke-miterlimit:10;" d="M 9.22475 58.236188 L 18.091937 56.826031 C 47.209125 52.216656 -70.544781 -7.966937 -61.466656 19.970563 " transform="matrix(1,0,0,-1,70.744,70.744)"/>
<path style=" stroke:none;fill-rule:nonzero;fill:rgb(100%,100%,100%);fill-opacity:1;" d="M 61.875 14.75 L 70.742188 13.347656 C 98.742188 8.914062 8.382812 99.089844 8.382812 70.742188 L 6.113281 70.742188 C 6.113281 100.121094 99.507812 6.496094 70.390625 11.109375 L 61.519531 12.507812 "/>
<path style="fill:none;stroke-width:0.3985;stroke-linecap:butt;stroke-linejoin:miter;stroke:rgb(0%,0%,0%);stroke-opacity:1;stroke-miterlimit:10;" d="M -8.869 55.994 L -0.0018125 57.396344 C 27.998187 61.829938 -62.361188 -28.345844 -62.361188 0.0018125 " transform="matrix(1,0,0,-1,70.744,70.744)"/>
<path style="fill:none;stroke-width:0.3985;stroke-linecap:butt;stroke-linejoin:miter;stroke:rgb(0%,0%,0%);stroke-opacity:1;stroke-miterlimit:10;" d="M -9.224469 58.236188 L -0.353375 59.634625 C 28.763812 64.247906 -64.630719 -29.377094 -64.630719 0.0018125 " transform="matrix(1,0,0,-1,70.744,70.744)"/>
<path style=" stroke:none;fill-rule:nonzero;fill:rgb(100%,100%,100%);fill-opacity:1;" d="M 45.003906 20.230469 L 53.007812 16.15625 C 78.265625 3.289062 20.191406 116.976562 11.433594 90.015625 L 9.277344 90.714844 C 18.355469 118.652344 78.246094 0.753906 51.976562 14.136719 L 43.976562 18.210938 "/>
<path style="fill:none;stroke-width:0.3985;stroke-linecap:butt;stroke-linejoin:miter;stroke:rgb(0%,0%,0%);stroke-opacity:1;stroke-miterlimit:10;" d="M -25.740094 50.513531 L -17.736188 54.58775 C 7.521625 67.454938 -50.552594 -46.232562 -59.310406 -19.271625 " transform="matrix(1,0,0,-1,70.744,70.744)"/>
<path style="fill:none;stroke-width:0.3985;stroke-linecap:butt;stroke-linejoin:miter;stroke:rgb(0%,0%,0%);stroke-opacity:1;stroke-miterlimit:10;" d="M -26.767438 52.533063 L -18.767438 56.607281 C 7.502094 69.990094 -52.388531 -47.908344 -61.466656 -19.970844 " transform="matrix(1,0,0,-1,70.744,70.744)"/>
<path style=" stroke:none;fill-rule:nonzero;fill:rgb(100%,100%,100%);fill-opacity:1;" d="M 30.65625 30.65625 L 37.007812 24.308594 C 57.050781 4.265625 36.953125 130.332031 20.292969 107.398438 L 18.457031 108.734375 C 35.722656 132.496094 56.25 1.859375 35.40625 22.707031 L 29.050781 29.050781 "/>
<path style="fill:none;stroke-width:0.3985;stroke-linecap:butt;stroke-linejoin:miter;stroke:rgb(0%,0%,0%);stroke-opacity:1;stroke-miterlimit:10;" d="M -40.08775 40.08775 L -33.736188 46.435406 C -13.693219 66.478375 -33.790875 -59.588031 -50.451031 -36.654437 " transform="matrix(1,0,0,-1,70.744,70.744)"/>
<path style="fill:none;stroke-width:0.3985;stroke-linecap:butt;stroke-linejoin:miter;stroke:rgb(0%,0%,0%);stroke-opacity:1;stroke-miterlimit:10;" d="M -41.693219 41.693219 L -35.33775 48.036969 C -14.494 68.884625 -35.021344 -61.752094 -52.286969 -37.990375 " transform="matrix(1,0,0,-1,70.744,70.744)"/>
<path style=" stroke:none;fill-rule:nonzero;fill:rgb(100%,100%,100%);fill-opacity:1;" d="M 20.230469 45.003906 L 24.308594 37.007812 C 37.179688 11.75 57.019531 137.859375 34.089844 121.195312 L 32.753906 123.03125 C 56.519531 140.296875 35.671875 9.710938 22.289062 35.976562 L 18.210938 43.976562 "/>
<path style="fill:none;stroke-width:0.3985;stroke-linecap:butt;stroke-linejoin:miter;stroke:rgb(0%,0%,0%);stroke-opacity:1;stroke-miterlimit:10;" d="M -50.513531 25.740094 L -46.435406 33.736188 C -33.564313 58.994 -13.724469 -67.115375 -36.654156 -50.451312 " transform="matrix(1,0,0,-1,70.744,70.744)"/>
<path style="fill:none;stroke-width:0.3985;stroke-linecap:butt;stroke-linejoin:miter;stroke:rgb(0%,0%,0%);stroke-opacity:1;stroke-miterlimit:10;" d="M -52.533063 26.767438 L -48.454938 34.767438 C -35.072125 61.033063 -14.224469 -69.552875 -37.990094 -52.28725 " transform="matrix(1,0,0,-1,70.744,70.744)"/>
<path style=" stroke:none;fill-rule:nonzero;fill:rgb(100%,100%,100%);fill-opacity:1;" d="M 14.75 61.875 L 16.15625 53.007812 C 20.589844 25.011719 78.433594 138.816406 51.472656 130.054688 L 50.773438 132.210938 C 78.710938 141.289062 18.527344 23.535156 13.917969 52.652344 L 12.507812 61.519531 "/>
<path style="fill:none;stroke-width:0.3985;stroke-linecap:butt;stroke-linejoin:miter;stroke:rgb(0%,0%,0%);stroke-opacity:1;stroke-miterlimit:10;" d="M -55.994 8.869 L -54.58775 17.736188 C -50.154156 45.732281 7.689594 -68.072406 -19.271344 -59.310687 " transform="matrix(1,0,0,-1,70.744,70.744)"/>
<path style="fill:none;stroke-width:0.3985;stroke-linecap:butt;stroke-linejoin:miter;stroke:rgb(0%,0%,0%);stroke-opacity:1;stroke-miterlimit:10;" d="M -58.236188 9.224469 L -56.826031 18.091656 C -52.216656 47.208844 7.966937 -70.545062 -19.970563 -61.466937 " transform="matrix(1,0,0,-1,70.744,70.744)"/>
<path style=" stroke:none;fill-rule:nonzero;fill:rgb(100%,100%,100%);fill-opacity:1;" d="M 14.75 79.613281 L 13.347656 70.742188 C 8.914062 42.746094 99.089844 133.105469 70.742188 133.105469 L 70.742188 135.375 C 100.121094 135.375 6.496094 41.980469 11.109375 71.097656 L 12.507812 79.96875 "/>
<path style="fill:none;stroke-width:0.3985;stroke-linecap:butt;stroke-linejoin:miter;stroke:rgb(0%,0%,0%);stroke-opacity:1;stroke-miterlimit:10;" d="M -55.994 -8.869281 L -57.396344 0.0018125 C -61.829938 27.997906 28.345844 -62.361469 -0.0018125 -62.361469 " transform="matrix(1,0,0,-1,70.744,70.744)"/>
<g clip-path="url(#clip3)" clip-rule="nonzero">
<path style="fill:none;stroke-width:0.3985;stroke-linecap:butt;stroke-linejoin:miter;stroke:rgb(0%,0%,0%);stroke-opacity:1;stroke-miterlimit:10;" d="M -58.236188 -9.22475 L -59.634625 -0.353656 C -64.247906 28.763531 29.377094 -64.631 -0.0018125 -64.631 " transform="matrix(1,0,0,-1,70.744,70.744)"/>
</g>
<path style=" stroke:none;fill-rule:nonzero;fill:rgb(100%,100%,100%);fill-opacity:1;" d="M 20.230469 96.484375 L 16.15625 88.480469 C 3.289062 63.222656 116.976562 121.296875 90.015625 130.054688 L 90.714844 132.210938 C 118.652344 123.132812 0.753906 63.242188 14.136719 89.507812 L 18.210938 97.511719 "/>
<path style="fill:none;stroke-width:0.3985;stroke-linecap:butt;stroke-linejoin:miter;stroke:rgb(0%,0%,0%);stroke-opacity:1;stroke-miterlimit:10;" d="M -50.513531 -25.740375 L -54.58775 -17.736469 C -67.454938 7.521344 46.232562 -50.552875 19.271625 -59.310687 " transform="matrix(1,0,0,-1,70.744,70.744)"/>
<path style="fill:none;stroke-width:0.3985;stroke-linecap:butt;stroke-linejoin:miter;stroke:rgb(0%,0%,0%);stroke-opacity:1;stroke-miterlimit:10;" d="M -52.533063 -26.767719 L -56.607281 -18.763812 C -69.990094 7.501813 47.908344 -52.388812 19.970844 -61.466937 " transform="matrix(1,0,0,-1,70.744,70.744)"/>
<path style=" stroke:none;fill-rule:nonzero;fill:rgb(100%,100%,100%);fill-opacity:1;" d="M 30.65625 110.832031 L 24.308594 104.480469 C 4.265625 84.4375 130.332031 104.535156 107.398438 121.195312 L 108.734375 123.03125 C 132.496094 105.765625 1.859375 85.238281 22.707031 106.082031 L 29.050781 112.4375 "/>
<path style="fill:none;stroke-width:0.3985;stroke-linecap:butt;stroke-linejoin:miter;stroke:rgb(0%,0%,0%);stroke-opacity:1;stroke-miterlimit:10;" d="M -40.08775 -40.088031 L -46.435406 -33.736469 C -66.478375 -13.6935 59.588031 -33.791156 36.654437 -50.451312 " transform="matrix(1,0,0,-1,70.744,70.744)"/>
<path style="fill:none;stroke-width:0.3985;stroke-linecap:butt;stroke-linejoin:miter;stroke:rgb(0%,0%,0%);stroke-opacity:1;stroke-miterlimit:10;" d="M -41.693219 -41.6935 L -48.036969 -35.338031 C -68.884625 -14.494281 61.752094 -35.021625 37.990375 -52.28725 " transform="matrix(1,0,0,-1,70.744,70.744)"/>
<path style=" stroke:none;fill-rule:nonzero;fill:rgb(100%,100%,100%);fill-opacity:1;" d="M 45.003906 121.257812 L 37.007812 117.179688 C 11.75 104.308594 137.859375 84.464844 121.195312 107.398438 L 123.03125 108.734375 C 140.296875 84.96875 9.710938 105.816406 35.976562 119.199219 L 43.976562 123.277344 "/>
<path style="fill:none;stroke-width:0.3985;stroke-linecap:butt;stroke-linejoin:miter;stroke:rgb(0%,0%,0%);stroke-opacity:1;stroke-miterlimit:10;" d="M -25.740094 -50.513812 L -33.736188 -46.435687 C -58.994 -33.564594 67.115375 -13.720844 50.451312 -36.654437 " transform="matrix(1,0,0,-1,70.744,70.744)"/>
<path style="fill:none;stroke-width:0.3985;stroke-linecap:butt;stroke-linejoin:miter;stroke:rgb(0%,0%,0%);stroke-opacity:1;stroke-miterlimit:10;" d="M -26.767438 -52.533344 L -34.767438 -48.455219 C -61.033063 -35.072406 69.552875 -14.22475 52.28725 -37.990375 " transform="matrix(1,0,0,-1,70.744,70.744)"/>
<path style=" stroke:none;fill-rule:nonzero;fill:rgb(100%,100%,100%);fill-opacity:1;" d="M 61.875 126.738281 L 53.007812 125.332031 C 25.011719 120.898438 138.816406 63.054688 130.054688 90.015625 L 132.210938 90.714844 C 141.289062 62.777344 23.535156 122.960938 52.652344 127.570312 L 61.519531 128.980469 "/>
<path style="fill:none;stroke-width:0.3985;stroke-linecap:butt;stroke-linejoin:miter;stroke:rgb(0%,0%,0%);stroke-opacity:1;stroke-miterlimit:10;" d="M -8.869 -55.994281 L -17.736188 -54.588031 C -45.732281 -50.154437 68.072406 7.689313 59.310687 -19.271625 " transform="matrix(1,0,0,-1,70.744,70.744)"/>
<path style="fill:none;stroke-width:0.3985;stroke-linecap:butt;stroke-linejoin:miter;stroke:rgb(0%,0%,0%);stroke-opacity:1;stroke-miterlimit:10;" d="M -9.224469 -58.236469 L -18.091656 -56.826312 C -47.208844 -52.216937 70.545062 7.966656 61.466937 -19.970844 " transform="matrix(1,0,0,-1,70.744,70.744)"/>
<path style=" stroke:none;fill-rule:nonzero;fill:rgb(100%,100%,100%);fill-opacity:1;" d="M 79.613281 126.738281 L 70.742188 128.140625 C 42.746094 132.574219 133.105469 42.398438 133.105469 70.742188 L 135.375 70.742188 C 135.375 41.367188 41.980469 134.992188 71.097656 130.378906 L 79.96875 128.980469 "/>
<path style="fill:none;stroke-width:0.3985;stroke-linecap:butt;stroke-linejoin:miter;stroke:rgb(0%,0%,0%);stroke-opacity:1;stroke-miterlimit:10;" d="M 8.869281 -55.994281 L -0.0018125 -57.396625 C -27.997906 -61.830219 62.361469 28.345563 62.361469 0.0018125 " transform="matrix(1,0,0,-1,70.744,70.744)"/>
<g clip-path="url(#clip4)" clip-rule="nonzero">
<path style="fill:none;stroke-width:0.3985;stroke-linecap:butt;stroke-linejoin:miter;stroke:rgb(0%,0%,0%);stroke-opacity:1;stroke-miterlimit:10;" d="M 9.22475 -58.236469 L 0.353656 -59.634906 C -28.763531 -64.248187 64.631 29.376813 64.631 0.0018125 " transform="matrix(1,0,0,-1,70.744,70.744)"/>
</g>
<path style=" stroke:none;fill-rule:nonzero;fill:rgb(100%,100%,100%);fill-opacity:1;" d="M 96.484375 121.257812 L 88.480469 125.332031 C 63.222656 138.199219 121.296875 24.511719 130.054688 51.472656 L 132.210938 50.773438 C 123.132812 22.832031 63.242188 140.734375 89.507812 127.351562 L 97.511719 123.277344 "/>
<path style="fill:none;stroke-width:0.3985;stroke-linecap:butt;stroke-linejoin:miter;stroke:rgb(0%,0%,0%);stroke-opacity:1;stroke-miterlimit:10;" d="M 25.740375 -50.513812 L 17.736469 -54.588031 C -7.521344 -67.455219 50.552875 46.232281 59.310687 19.271344 " transform="matrix(1,0,0,-1,70.744,70.744)"/>
<path style="fill:none;stroke-width:0.3985;stroke-linecap:butt;stroke-linejoin:miter;stroke:rgb(0%,0%,0%);stroke-opacity:1;stroke-miterlimit:10;" d="M 26.767719 -52.533344 L 18.763812 -56.607562 C -7.501813 -69.990375 52.388812 47.911969 61.466937 19.970563 " transform="matrix(1,0,0,-1,70.744,70.744)"/>
<path style=" stroke:none;fill-rule:nonzero;fill:rgb(100%,100%,100%);fill-opacity:1;" d="M 110.832031 110.832031 L 104.480469 117.179688 C 84.4375 137.222656 104.535156 11.15625 121.195312 34.089844 L 123.03125 32.753906 C 105.765625 8.988281 85.238281 139.628906 106.082031 118.78125 L 112.4375 112.4375 "/>
<path style="fill:none;stroke-width:0.3985;stroke-linecap:butt;stroke-linejoin:miter;stroke:rgb(0%,0%,0%);stroke-opacity:1;stroke-miterlimit:10;" d="M 40.088031 -40.088031 L 33.736469 -46.435687 C 13.6935 -66.478656 33.791156 59.58775 50.451312 36.654156 " transform="matrix(1,0,0,-1,70.744,70.744)"/>
<path style="fill:none;stroke-width:0.3985;stroke-linecap:butt;stroke-linejoin:miter;stroke:rgb(0%,0%,0%);stroke-opacity:1;stroke-miterlimit:10;" d="M 41.6935 -41.6935 L 35.338031 -48.03725 C 14.494281 -68.884906 35.021625 61.755719 52.28725 37.990094 " transform="matrix(1,0,0,-1,70.744,70.744)"/>
<path style=" stroke:none;fill-rule:nonzero;fill:rgb(100%,100%,100%);fill-opacity:1;" d="M 121.257812 96.484375 L 117.179688 104.480469 C 104.308594 129.738281 84.464844 3.628906 107.398438 20.292969 L 108.734375 18.457031 C 84.96875 1.191406 105.816406 131.777344 119.199219 105.507812 L 123.277344 97.511719 "/>
<path style="fill:none;stroke-width:0.3985;stroke-linecap:butt;stroke-linejoin:miter;stroke:rgb(0%,0%,0%);stroke-opacity:1;stroke-miterlimit:10;" d="M 50.513812 -25.740375 L 46.435687 -33.736469 C 33.564594 -58.994281 13.720844 67.115094 36.654437 50.451031 " transform="matrix(1,0,0,-1,70.744,70.744)"/>
<path style="fill:none;stroke-width:0.3985;stroke-linecap:butt;stroke-linejoin:miter;stroke:rgb(0%,0%,0%);stroke-opacity:1;stroke-miterlimit:10;" d="M 52.533344 -26.767719 L 48.455219 -34.763812 C 35.072406 -61.033344 14.22475 69.552594 37.990375 52.286969 " transform="matrix(1,0,0,-1,70.744,70.744)"/>
<path style=" stroke:none;fill-rule:nonzero;fill:rgb(100%,100%,100%);fill-opacity:1;" d="M 126.738281 79.613281 L 125.332031 88.480469 C 120.898438 116.476562 63.054688 2.671875 90.015625 11.433594 L 90.714844 9.277344 C 62.777344 0.199219 122.960938 117.953125 127.570312 88.835938 L 128.980469 79.96875 "/>
<path style="fill:none;stroke-width:0.3985;stroke-linecap:butt;stroke-linejoin:miter;stroke:rgb(0%,0%,0%);stroke-opacity:1;stroke-miterlimit:10;" d="M 55.994281 -8.869281 L 54.588031 -17.736469 C 50.154437 -45.732562 -7.689313 68.072125 19.271625 59.310406 " transform="matrix(1,0,0,-1,70.744,70.744)"/>
<path style="fill:none;stroke-width:0.3985;stroke-linecap:butt;stroke-linejoin:miter;stroke:rgb(0%,0%,0%);stroke-opacity:1;stroke-miterlimit:10;" d="M 58.236469 -9.22475 L 56.826312 -18.091937 C 52.216937 -47.209125 -7.966656 70.544781 19.970844 61.466656 " transform="matrix(1,0,0,-1,70.744,70.744)"/>
</g>
</svg>
