<?xml version="1.0" encoding="UTF-8"?>
<svg xmlns="http://www.w3.org/2000/svg" xmlns:xlink="http://www.w3.org/1999/xlink" width="78.04pt" height="78.04pt" viewBox="0 0 78.04 78.04" version="1.1">
<defs>
<clipPath id="clip1">
  <path d="M 0 37 L 39 37 L 39 78.039062 L 0 78.039062 Z M 0 37 "/>
</clipPath>
<clipPath id="clip2">
  <path d="M 14 51 L 66 51 L 66 78.039062 L 14 78.039062 Z M 14 51 "/>
</clipPath>
<clipPath id="clip3">
  <path d="M 37 39 L 78.039062 39 L 78.039062 78.039062 L 37 78.039062 Z M 37 39 "/>
</clipPath>
<clipPath id="clip4">
  <path d="M 51 12 L 78.039062 12 L 78.039062 64 L 51 64 Z M 51 12 "/>
</clipPath>
<clipPath id="clip5">
  <path d="M 39 0 L 78.039062 0 L 78.039062 41 L 39 41 Z M 39 0 "/>
</clipPath>
<clipPath id="clip6">
  <path d="M 37 0 L 78.039062 0 L 78.039062 39 L 37 39 Z M 37 0 "/>
</clipPath>
<clipPath id="clip7">
  <path d="M 0 39 L 41 39 L 41 78.039062 L 0 78.039062 Z M 0 39 "/>
</clipPath>
<clipPath id="clip8">
  <path d="M 12 51 L 64 51 L 64 78.039062 L 12 78.039062 Z M 12 51 "/>
</clipPath>
<clipPath id="clip9">
  <path d="M 39 37 L 78.039062 37 L 78.039062 78.039062 L 39 78.039062 Z M 39 37 "/>
</clipPath>
<clipPath id="clip10">
  <path d="M 51 14 L 78.039062 14 L 78.039062 66 L 51 66 Z M 51 14 "/>
</clipPath>
</defs>
<g id="surface46">
<path style=" stroke:none;fill-rule:nonzero;fill:rgb(100%,100%,100%);fill-opacity:1;" d="M 49.042969 14.828125 L 39.019531 10.671875 C 35.261719 9.117188 31.039062 9.117188 27.277344 10.671875 L 24.023438 2.816406 C 29.867188 0.398438 36.433594 0.398438 42.273438 2.816406 L 52.296875 6.96875 "/>
<path style="fill:none;stroke-width:0.79701;stroke-linecap:butt;stroke-linejoin:miter;stroke:rgb(0%,0%,0%);stroke-opacity:1;stroke-miterlimit:10;" d="M 10.022969 24.191875 L -0.00046875 28.348125 C -3.758281 29.902813 -7.980938 29.902813 -11.742656 28.348125 M -14.996563 36.203594 C -9.152813 38.621563 -2.586406 38.621563 3.253437 36.203594 L 13.276875 32.05125 " transform="matrix(1,0,0,-1,39.02,39.02)"/>
<path style=" stroke:none;fill-rule:nonzero;fill:rgb(100%,100%,100%);fill-opacity:1;" d="M 29 14.828125 L 18.976562 18.976562 C 15.21875 20.53125 12.230469 23.519531 10.671875 27.277344 L 2.816406 24.023438 C 5.238281 18.183594 9.882812 13.539062 15.722656 11.121094 L 25.746094 6.96875 "/>
<path style="fill:none;stroke-width:0.79701;stroke-linecap:butt;stroke-linejoin:miter;stroke:rgb(0%,0%,0%);stroke-opacity:1;stroke-miterlimit:10;" d="M -10.02 24.191875 L -20.043438 20.043438 C -23.80125 18.48875 -26.789531 15.500469 -28.348125 11.742656 M -36.203594 14.996563 C -33.781719 20.836406 -29.137188 25.480938 -23.297344 27.898906 L -13.273906 32.05125 " transform="matrix(1,0,0,-1,39.02,39.02)"/>
<path style=" stroke:none;fill-rule:nonzero;fill:rgb(100%,100%,100%);fill-opacity:1;" d="M 14.828125 29 L 10.671875 39.019531 C 9.117188 42.777344 9.117188 47.003906 10.671875 50.761719 L 2.816406 54.015625 C 0.398438 48.171875 0.398438 41.605469 2.816406 35.765625 L 6.96875 25.746094 "/>
<path style="fill:none;stroke-width:0.79701;stroke-linecap:butt;stroke-linejoin:miter;stroke:rgb(0%,0%,0%);stroke-opacity:1;stroke-miterlimit:10;" d="M -24.191875 10.02 L -28.348125 0.00046875 C -29.902813 -3.757344 -29.902813 -7.983906 -28.348125 -11.741719 M -36.203594 -14.995625 C -38.621563 -9.151875 -38.621563 -2.585469 -36.203594 3.254375 L -32.05125 13.273906 " transform="matrix(1,0,0,-1,39.02,39.02)"/>
<path style=" stroke:none;fill-rule:nonzero;fill:rgb(100%,100%,100%);fill-opacity:1;" d="M 14.828125 49.042969 L 18.976562 59.0625 C 20.53125 62.824219 23.519531 65.808594 27.277344 67.367188 L 24.023438 75.222656 C 18.183594 72.804688 13.539062 68.160156 11.121094 62.316406 L 6.96875 52.296875 "/>
<g clip-path="url(#clip1)" clip-rule="nonzero">
<path style="fill:none;stroke-width:0.79701;stroke-linecap:butt;stroke-linejoin:miter;stroke:rgb(0%,0%,0%);stroke-opacity:1;stroke-miterlimit:10;" d="M -24.191875 -10.022969 L -20.043438 -20.0425 C -18.48875 -23.804219 -15.500469 -26.788594 -11.742656 -28.347187 M -14.996563 -36.202656 C -20.836406 -33.784687 -25.480938 -29.140156 -27.898906 -23.296406 L -32.05125 -13.276875 " transform="matrix(1,0,0,-1,39.02,39.02)"/>
</g>
<path style=" stroke:none;fill-rule:nonzero;fill:rgb(100%,100%,100%);fill-opacity:1;" d="M 29 63.214844 L 39.019531 67.367188 C 42.777344 68.921875 47.003906 68.921875 50.761719 67.367188 L 54.015625 75.222656 C 48.171875 77.640625 41.605469 77.640625 35.765625 75.222656 L 25.746094 71.070312 "/>
<g clip-path="url(#clip2)" clip-rule="nonzero">
<path style="fill:none;stroke-width:0.79701;stroke-linecap:butt;stroke-linejoin:miter;stroke:rgb(0%,0%,0%);stroke-opacity:1;stroke-miterlimit:10;" d="M -10.02 -24.194844 L -0.00046875 -28.347187 C 3.757344 -29.901875 7.983906 -29.901875 11.741719 -28.347187 M 14.995625 -36.202656 C 9.151875 -38.620625 2.585469 -38.620625 -3.254375 -36.202656 L -13.273906 -32.050312 " transform="matrix(1,0,0,-1,39.02,39.02)"/>
</g>
<path style=" stroke:none;fill-rule:nonzero;fill:rgb(100%,100%,100%);fill-opacity:1;" d="M 49.042969 63.214844 L 59.0625 59.0625 C 62.824219 57.507812 65.808594 54.519531 67.367188 50.761719 L 75.222656 54.015625 C 72.804688 59.855469 68.160156 64.5 62.316406 66.921875 L 52.296875 71.070312 "/>
<g clip-path="url(#clip3)" clip-rule="nonzero">
<path style="fill:none;stroke-width:0.79701;stroke-linecap:butt;stroke-linejoin:miter;stroke:rgb(0%,0%,0%);stroke-opacity:1;stroke-miterlimit:10;" d="M 10.022969 -24.194844 L 20.0425 -20.0425 C 23.804219 -18.487812 26.788594 -15.499531 28.347187 -11.741719 M 36.202656 -14.995625 C 33.784687 -20.835469 29.140156 -25.48 23.296406 -27.901875 L 13.276875 -32.050312 " transform="matrix(1,0,0,-1,39.02,39.02)"/>
</g>
<path style=" stroke:none;fill-rule:nonzero;fill:rgb(100%,100%,100%);fill-opacity:1;" d="M 63.214844 49.042969 L 67.367188 39.019531 C 68.921875 35.261719 68.921875 31.039062 67.367188 27.277344 L 75.222656 24.023438 C 77.640625 29.867188 77.640625 36.433594 75.222656 42.273438 L 71.070312 52.296875 "/>
<g clip-path="url(#clip4)" clip-rule="nonzero">
<path style="fill:none;stroke-width:0.79701;stroke-linecap:butt;stroke-linejoin:miter;stroke:rgb(0%,0%,0%);stroke-opacity:1;stroke-miterlimit:10;" d="M 24.194844 -10.022969 L 28.347187 0.00046875 C 29.901875 3.758281 29.901875 7.980938 28.347187 11.742656 M 36.202656 14.996563 C 38.620625 9.152813 38.620625 2.586406 36.202656 -3.253437 L 32.050312 -13.276875 " transform="matrix(1,0,0,-1,39.02,39.02)"/>
</g>
<path style=" stroke:none;fill-rule:nonzero;fill:rgb(100%,100%,100%);fill-opacity:1;" d="M 63.214844 29 L 59.0625 18.976562 C 57.507812 15.21875 54.519531 12.230469 50.761719 10.671875 L 54.015625 2.816406 C 59.855469 5.238281 64.5 9.882812 66.921875 15.722656 L 71.070312 25.746094 "/>
<g clip-path="url(#clip5)" clip-rule="nonzero">
<path style="fill:none;stroke-width:0.79701;stroke-linecap:butt;stroke-linejoin:miter;stroke:rgb(0%,0%,0%);stroke-opacity:1;stroke-miterlimit:10;" d="M 24.194844 10.02 L 20.0425 20.043438 C 18.487812 23.80125 15.499531 26.789531 11.741719 28.348125 M 14.995625 36.203594 C 20.835469 33.781719 25.48 29.137188 27.901875 23.297344 L 32.050312 13.273906 " transform="matrix(1,0,0,-1,39.02,39.02)"/>
</g>
<path style=" stroke:none;fill-rule:nonzero;fill:rgb(100%,100%,100%);fill-opacity:1;" d="M 62.316406 11.121094 C 68.160156 13.539062 72.804688 18.183594 75.222656 24.023438 L 67.367188 27.277344 C 65.808594 23.519531 62.824219 20.53125 59.0625 18.976562 L 49.042969 14.828125 L 52.296875 6.96875 Z M 62.316406 11.121094 "/>
<g clip-path="url(#clip6)" clip-rule="nonzero">
<path style="fill:none;stroke-width:0.79701;stroke-linecap:butt;stroke-linejoin:miter;stroke:rgb(0%,0%,0%);stroke-opacity:1;stroke-miterlimit:10;" d="M 13.276875 32.05125 L 23.296406 27.898906 C 29.140156 25.480938 33.784687 20.836406 36.202656 14.996563 M 28.347187 11.742656 C 26.788594 15.500469 23.804219 18.48875 20.0425 20.043438 L 10.022969 24.191875 " transform="matrix(1,0,0,-1,39.02,39.02)"/>
</g>
<path style=" stroke:none;fill-rule:nonzero;fill:rgb(100%,100%,100%);fill-opacity:1;" d="M 35.765625 2.816406 C 41.605469 0.398438 48.175781 0.398438 54.015625 2.816406 L 50.761719 10.671875 C 47.003906 9.117188 42.777344 9.117188 39.019531 10.671875 L 29 14.828125 L 25.746094 6.96875 Z M 35.765625 2.816406 "/>
<path style="fill:none;stroke-width:0.79701;stroke-linecap:butt;stroke-linejoin:miter;stroke:rgb(0%,0%,0%);stroke-opacity:1;stroke-miterlimit:10;" d="M -13.273906 32.05125 L -3.254375 36.203594 C 2.585469 38.621563 9.155781 38.621563 14.995625 36.203594 M 11.741719 28.348125 C 7.983906 29.902813 3.757344 29.902813 -0.00046875 28.348125 L -10.02 24.191875 " transform="matrix(1,0,0,-1,39.02,39.02)"/>
<path style=" stroke:none;fill-rule:nonzero;fill:rgb(100%,100%,100%);fill-opacity:1;" d="M 11.121094 15.722656 C 13.539062 9.878906 18.183594 5.238281 24.023438 2.816406 L 27.277344 10.671875 C 23.519531 12.230469 20.53125 15.21875 18.976562 18.976562 L 14.828125 29 L 6.96875 25.746094 Z M 11.121094 15.722656 "/>
<path style="fill:none;stroke-width:0.79701;stroke-linecap:butt;stroke-linejoin:miter;stroke:rgb(0%,0%,0%);stroke-opacity:1;stroke-miterlimit:10;" d="M -32.05125 13.273906 L -27.898906 23.297344 C -25.480938 29.141094 -20.836406 33.781719 -14.996563 36.203594 M -11.742656 28.348125 C -15.500469 26.789531 -18.48875 23.80125 -20.043438 20.043438 L -24.191875 10.02 " transform="matrix(1,0,0,-1,39.02,39.02)"/>
<path style=" stroke:none;fill-rule:nonzero;fill:rgb(100%,100%,100%);fill-opacity:1;" d="M 2.816406 42.273438 C 0.398438 36.433594 0.398438 29.867188 2.816406 24.023438 L 10.671875 27.277344 C 9.117188 31.039062 9.117188 35.261719 10.671875 39.019531 L 14.828125 49.042969 L 6.96875 52.296875 Z M 2.816406 42.273438 "/>
<path style="fill:none;stroke-width:0.79701;stroke-linecap:butt;stroke-linejoin:miter;stroke:rgb(0%,0%,0%);stroke-opacity:1;stroke-miterlimit:10;" d="M -32.05125 -13.276875 L -36.203594 -3.253437 C -38.621563 2.586406 -38.621563 9.152813 -36.203594 14.996563 M -28.348125 11.742656 C -29.902813 7.980938 -29.902813 3.758281 -28.348125 0.00046875 L -24.191875 -10.022969 " transform="matrix(1,0,0,-1,39.02,39.02)"/>
<path style=" stroke:none;fill-rule:nonzero;fill:rgb(100%,100%,100%);fill-opacity:1;" d="M 15.722656 66.921875 C 9.878906 64.5 5.238281 59.855469 2.816406 54.015625 L 10.671875 50.761719 C 12.230469 54.519531 15.21875 57.507812 18.976562 59.0625 L 29 63.214844 L 25.746094 71.070312 Z M 15.722656 66.921875 "/>
<g clip-path="url(#clip7)" clip-rule="nonzero">
<path style="fill:none;stroke-width:0.79701;stroke-linecap:butt;stroke-linejoin:miter;stroke:rgb(0%,0%,0%);stroke-opacity:1;stroke-miterlimit:10;" d="M -13.273906 -32.050312 L -23.297344 -27.901875 C -29.141094 -25.48 -33.781719 -20.835469 -36.203594 -14.995625 M -28.348125 -11.741719 C -26.789531 -15.499531 -23.80125 -18.487812 -20.043438 -20.0425 L -10.02 -24.194844 " transform="matrix(1,0,0,-1,39.02,39.02)"/>
</g>
<path style=" stroke:none;fill-rule:nonzero;fill:rgb(100%,100%,100%);fill-opacity:1;" d="M 42.273438 75.222656 C 36.433594 77.640625 29.867188 77.640625 24.023438 75.222656 L 27.277344 67.367188 C 31.039062 68.921875 35.261719 68.921875 39.019531 67.367188 L 49.042969 63.214844 L 52.296875 71.070312 Z M 42.273438 75.222656 "/>
<g clip-path="url(#clip8)" clip-rule="nonzero">
<path style="fill:none;stroke-width:0.79701;stroke-linecap:butt;stroke-linejoin:miter;stroke:rgb(0%,0%,0%);stroke-opacity:1;stroke-miterlimit:10;" d="M 13.276875 -32.050312 L 3.253437 -36.202656 C -2.586406 -38.620625 -9.152813 -38.620625 -14.996563 -36.202656 M -11.742656 -28.347187 C -7.980938 -29.901875 -3.758281 -29.901875 -0.00046875 -28.347187 L 10.022969 -24.194844 " transform="matrix(1,0,0,-1,39.02,39.02)"/>
</g>
<path style=" stroke:none;fill-rule:nonzero;fill:rgb(100%,100%,100%);fill-opacity:1;" d="M 66.921875 62.316406 C 64.5 68.160156 59.855469 72.804688 54.015625 75.222656 L 50.761719 67.367188 C 54.519531 65.808594 57.507812 62.824219 59.0625 59.0625 L 63.214844 49.042969 L 71.070312 52.296875 Z M 66.921875 62.316406 "/>
<g clip-path="url(#clip9)" clip-rule="nonzero">
<path style="fill:none;stroke-width:0.79701;stroke-linecap:butt;stroke-linejoin:miter;stroke:rgb(0%,0%,0%);stroke-opacity:1;stroke-miterlimit:10;" d="M 32.050312 -13.276875 L 27.901875 -23.296406 C 25.48 -29.140156 20.835469 -33.784687 14.995625 -36.202656 M 11.741719 -28.347187 C 15.499531 -26.788594 18.487812 -23.804219 20.0425 -20.0425 L 24.194844 -10.022969 " transform="matrix(1,0,0,-1,39.02,39.02)"/>
</g>
<path style=" stroke:none;fill-rule:nonzero;fill:rgb(100%,100%,100%);fill-opacity:1;" d="M 75.222656 35.765625 C 77.640625 41.605469 77.640625 48.175781 75.222656 54.015625 L 67.367188 50.761719 C 68.921875 47.003906 68.921875 42.777344 67.367188 39.019531 L 63.214844 29 L 71.070312 25.746094 Z M 75.222656 35.765625 "/>
<g clip-path="url(#clip10)" clip-rule="nonzero">
<path style="fill:none;stroke-width:0.79701;stroke-linecap:butt;stroke-linejoin:miter;stroke:rgb(0%,0%,0%);stroke-opacity:1;stroke-miterlimit:10;" d="M 32.050312 13.273906 L 36.202656 3.254375 C 38.620625 -2.585469 38.620625 -9.155781 36.202656 -14.995625 M 28.347187 -11.741719 C 29.901875 -7.983906 29.901875 -3.757344 28.347187 0.00046875 L 24.194844 10.02 " transform="matrix(1,0,0,-1,39.02,39.02)"/>
</g>
</g>
</svg>
