<?xml version="1.0" encoding="UTF-8"?>
<svg xmlns="http://www.w3.org/2000/svg" xmlns:xlink="http://www.w3.org/1999/xlink" width="96.208pt" height="100.001pt" viewBox="0 0 96.208 100.001" version="1.1">
<defs>
<clipPath id="clip1">
  <path d="M 8 44 L 40 44 L 40 100 L 8 100 Z M 8 44 "/>
</clipPath>
<clipPath id="clip2">
  <path d="M 70 16 L 96.207031 16 L 96.207031 76 L 70 76 Z M 70 16 "/>
</clipPath>
<clipPath id="clip3">
  <path d="M 70 24 L 96.207031 24 L 96.207031 84 L 70 84 Z M 70 24 "/>
</clipPath>
<clipPath id="clip4">
  <path d="M 27 64 L 82 64 L 82 100 L 27 100 Z M 27 64 "/>
</clipPath>
</defs>
<g id="surface61">
<path style=" stroke:none;fill-rule:nonzero;fill:rgb(100%,100%,100%);fill-opacity:1;" d="M 71.320312 33.339844 L 59.214844 16.675781 C 52.550781 7.503906 46.03125 6.058594 35.25 9.5625 L 33.496094 4.167969 C 45.71875 0.199219 55.804688 2.335938 63.800781 13.34375 L 75.90625 30.007812 "/>
<path style="fill:none;stroke-width:0.3985;stroke-linecap:butt;stroke-linejoin:miter;stroke:rgb(0%,0%,0%);stroke-opacity:1;stroke-miterlimit:10;" d="M 22.932313 16.660156 L 10.826844 33.324219 C 4.162781 42.496094 -2.35675 43.941406 -13.138 40.4375 " transform="matrix(1,0,0,-1,48.388,50)"/>
<path style="fill:none;stroke-width:0.3985;stroke-linecap:butt;stroke-linejoin:miter;stroke:rgb(0%,0%,0%);stroke-opacity:1;stroke-miterlimit:10;" d="M -14.891906 45.832031 C -2.66925 49.800781 7.416688 47.664063 15.412781 36.65625 L 27.51825 19.992188 " transform="matrix(1,0,0,-1,48.388,50)"/>
<path style=" stroke:none;fill-rule:nonzero;fill:rgb(100%,100%,100%);fill-opacity:1;" d="M 39.628906 23.039062 L 20.042969 29.40625 C 9.257812 32.910156 5.867188 38.660156 5.867188 50 L 0.199219 50 C 0.199219 37.152344 5.351562 28.21875 18.289062 24.011719 L 37.875 17.648438 "/>
<path style="fill:none;stroke-width:0.3985;stroke-linecap:butt;stroke-linejoin:miter;stroke:rgb(0%,0%,0%);stroke-opacity:1;stroke-miterlimit:10;" d="M -8.759094 26.960938 L -28.345031 20.59375 C -39.130187 17.089844 -42.520812 11.339844 -42.520812 0.000000000000007105 " transform="matrix(1,0,0,-1,48.388,50)"/>
<path style="fill:none;stroke-width:0.3985;stroke-linecap:butt;stroke-linejoin:miter;stroke:rgb(0%,0%,0%);stroke-opacity:1;stroke-miterlimit:10;" d="M -48.188781 0.000000000000007105 C -48.188781 12.847656 -43.036437 21.78125 -30.098937 25.988281 L -10.513 32.351563 " transform="matrix(1,0,0,-1,48.388,50)"/>
<path style=" stroke:none;fill-rule:nonzero;fill:rgb(100%,100%,100%);fill-opacity:1;" d="M 20.042969 50 L 20.042969 70.59375 C 20.042969 81.933594 24.464844 86.9375 35.25 90.4375 L 33.496094 95.832031 C 21.277344 91.859375 14.371094 84.199219 14.371094 70.59375 L 14.371094 50 "/>
<path style="fill:none;stroke-width:0.3985;stroke-linecap:butt;stroke-linejoin:miter;stroke:rgb(0%,0%,0%);stroke-opacity:1;stroke-miterlimit:10;" d="M -28.345031 0.000000000000007105 L -28.345031 -20.59375 C -28.345031 -31.933594 -23.923156 -36.9375 -13.138 -40.4375 " transform="matrix(1,0,0,-1,48.388,50)"/>
<g clip-path="url(#clip1)" clip-rule="nonzero">
<path style="fill:none;stroke-width:0.3985;stroke-linecap:butt;stroke-linejoin:miter;stroke:rgb(0%,0%,0%);stroke-opacity:1;stroke-miterlimit:10;" d="M -14.891906 -45.832031 C -27.110656 -41.859375 -34.016906 -34.199219 -34.016906 -20.59375 L -34.016906 0.000000000000007105 " transform="matrix(1,0,0,-1,48.388,50)"/>
</g>
<path style=" stroke:none;fill-rule:nonzero;fill:rgb(100%,100%,100%);fill-opacity:1;" d="M 39.628906 76.960938 L 59.214844 83.324219 C 70 86.828125 76.125 84.164062 82.789062 74.992188 L 87.375 78.324219 C 79.820312 88.71875 70.402344 92.917969 57.464844 88.714844 L 37.875 82.351562 "/>
<path style="fill:none;stroke-width:0.3985;stroke-linecap:butt;stroke-linejoin:miter;stroke:rgb(0%,0%,0%);stroke-opacity:1;stroke-miterlimit:10;" d="M -8.759094 -26.960937 L 10.826844 -33.324219 C 21.612 -36.828125 27.737 -34.164062 34.401063 -24.992187 " transform="matrix(1,0,0,-1,48.388,50)"/>
<path style="fill:none;stroke-width:0.3985;stroke-linecap:butt;stroke-linejoin:miter;stroke:rgb(0%,0%,0%);stroke-opacity:1;stroke-miterlimit:10;" d="M 38.987 -28.324219 C 31.432313 -38.71875 22.014344 -42.917969 9.076844 -38.714844 L -10.513 -32.351562 " transform="matrix(1,0,0,-1,48.388,50)"/>
<path style=" stroke:none;fill-rule:nonzero;fill:rgb(100%,100%,100%);fill-opacity:1;" d="M 71.320312 66.660156 L 83.425781 50 C 90.089844 40.828125 89.453125 34.179688 82.789062 25.007812 L 87.375 21.675781 C 94.925781 32.070312 96.007812 42.324219 88.011719 53.332031 L 75.90625 69.992188 "/>
<path style="fill:none;stroke-width:0.3985;stroke-linecap:butt;stroke-linejoin:miter;stroke:rgb(0%,0%,0%);stroke-opacity:1;stroke-miterlimit:10;" d="M 22.932313 -16.660156 L 35.037781 0.000000000000007105 C 41.701844 9.171875 41.065125 15.820313 34.401063 24.992188 " transform="matrix(1,0,0,-1,48.388,50)"/>
<g clip-path="url(#clip2)" clip-rule="nonzero">
<path style="fill:none;stroke-width:0.3985;stroke-linecap:butt;stroke-linejoin:miter;stroke:rgb(0%,0%,0%);stroke-opacity:1;stroke-miterlimit:10;" d="M 38.987 28.324219 C 46.537781 17.929688 47.619813 7.675781 39.623719 -3.332031 L 27.51825 -19.992187 " transform="matrix(1,0,0,-1,48.388,50)"/>
</g>
<path style=" stroke:none;fill-rule:nonzero;fill:rgb(100%,100%,100%);fill-opacity:1;" d="M 71.320312 33.339844 L 83.425781 50 C 90.089844 59.171875 89.453125 65.820312 82.789062 74.992188 L 87.375 78.324219 C 94.925781 67.929688 96.007812 57.675781 88.011719 46.667969 L 75.90625 30.007812 "/>
<path style="fill:none;stroke-width:0.3985;stroke-linecap:butt;stroke-linejoin:miter;stroke:rgb(0%,0%,0%);stroke-opacity:1;stroke-miterlimit:10;" d="M 22.932313 16.660156 L 35.037781 0.000000000000007105 C 41.701844 -9.171875 41.065125 -15.820312 34.401063 -24.992187 " transform="matrix(1,0,0,-1,48.388,50)"/>
<g clip-path="url(#clip3)" clip-rule="nonzero">
<path style="fill:none;stroke-width:0.3985;stroke-linecap:butt;stroke-linejoin:miter;stroke:rgb(0%,0%,0%);stroke-opacity:1;stroke-miterlimit:10;" d="M 27.51825 19.992188 L 39.623719 3.332031 C 47.619813 -7.675781 46.537781 -17.929687 38.987 -28.324219 " transform="matrix(1,0,0,-1,48.388,50)"/>
</g>
<path style=" stroke:none;fill-rule:nonzero;fill:rgb(100%,100%,100%);fill-opacity:1;" d="M 39.628906 23.039062 L 59.214844 16.675781 C 70 13.171875 76.125 15.835938 82.789062 25.007812 L 87.375 21.675781 C 79.820312 11.28125 70.402344 7.082031 57.464844 11.285156 L 37.875 17.648438 "/>
<path style="fill:none;stroke-width:0.3985;stroke-linecap:butt;stroke-linejoin:miter;stroke:rgb(0%,0%,0%);stroke-opacity:1;stroke-miterlimit:10;" d="M -8.759094 26.960938 L 10.826844 33.324219 C 21.612 36.828125 27.737 34.164063 34.401063 24.992188 " transform="matrix(1,0,0,-1,48.388,50)"/>
<path style="fill:none;stroke-width:0.3985;stroke-linecap:butt;stroke-linejoin:miter;stroke:rgb(0%,0%,0%);stroke-opacity:1;stroke-miterlimit:10;" d="M -10.513 32.351563 L 9.076844 38.714844 C 22.014344 42.917969 31.432313 38.71875 38.987 28.324219 " transform="matrix(1,0,0,-1,48.388,50)"/>
<path style=" stroke:none;fill-rule:nonzero;fill:rgb(100%,100%,100%);fill-opacity:1;" d="M 20.042969 50 L 20.042969 29.40625 C 20.042969 18.066406 24.464844 13.0625 35.25 9.5625 L 33.496094 4.167969 C 21.277344 8.140625 14.371094 15.800781 14.371094 29.40625 L 14.371094 50 "/>
<path style="fill:none;stroke-width:0.3985;stroke-linecap:butt;stroke-linejoin:miter;stroke:rgb(0%,0%,0%);stroke-opacity:1;stroke-miterlimit:10;" d="M -28.345031 0.000000000000007105 L -28.345031 20.59375 C -28.345031 31.933594 -23.923156 36.9375 -13.138 40.4375 " transform="matrix(1,0,0,-1,48.388,50)"/>
<path style="fill:none;stroke-width:0.3985;stroke-linecap:butt;stroke-linejoin:miter;stroke:rgb(0%,0%,0%);stroke-opacity:1;stroke-miterlimit:10;" d="M -34.016906 0.000000000000007105 L -34.016906 20.59375 C -34.016906 34.199219 -27.110656 41.859375 -14.891906 45.832031 " transform="matrix(1,0,0,-1,48.388,50)"/>
<path style=" stroke:none;fill-rule:nonzero;fill:rgb(100%,100%,100%);fill-opacity:1;" d="M 39.628906 76.960938 L 20.042969 70.59375 C 9.257812 67.089844 5.867188 61.339844 5.867188 50 L 0.199219 50 C 0.199219 62.847656 5.351562 71.78125 18.289062 75.988281 L 37.875 82.351562 "/>
<path style="fill:none;stroke-width:0.3985;stroke-linecap:butt;stroke-linejoin:miter;stroke:rgb(0%,0%,0%);stroke-opacity:1;stroke-miterlimit:10;" d="M -8.759094 -26.960937 L -28.345031 -20.59375 C -39.130187 -17.089844 -42.520812 -11.339844 -42.520812 0.000000000000007105 " transform="matrix(1,0,0,-1,48.388,50)"/>
<path style="fill:none;stroke-width:0.3985;stroke-linecap:butt;stroke-linejoin:miter;stroke:rgb(0%,0%,0%);stroke-opacity:1;stroke-miterlimit:10;" d="M -10.513 -32.351562 L -30.098937 -25.988281 C -43.036437 -21.78125 -48.188781 -12.847656 -48.188781 0.000000000000007105 " transform="matrix(1,0,0,-1,48.388,50)"/>
<path style=" stroke:none;fill-rule:nonzero;fill:rgb(100%,100%,100%);fill-opacity:1;" d="M 71.320312 66.660156 L 59.214844 83.324219 C 52.550781 92.496094 46.03125 93.941406 35.25 90.4375 L 33.496094 95.832031 C 45.71875 99.800781 55.804688 97.664062 63.800781 86.65625 L 75.90625 69.992188 "/>
<path style="fill:none;stroke-width:0.3985;stroke-linecap:butt;stroke-linejoin:miter;stroke:rgb(0%,0%,0%);stroke-opacity:1;stroke-miterlimit:10;" d="M 22.932313 -16.660156 L 10.826844 -33.324219 C 4.162781 -42.496094 -2.35675 -43.941406 -13.138 -40.4375 " transform="matrix(1,0,0,-1,48.388,50)"/>
<g clip-path="url(#clip4)" clip-rule="nonzero">
<path style="fill:none;stroke-width:0.3985;stroke-linecap:butt;stroke-linejoin:miter;stroke:rgb(0%,0%,0%);stroke-opacity:1;stroke-miterlimit:10;" d="M 27.51825 -19.992187 L 15.412781 -36.65625 C 7.416688 -47.664062 -2.66925 -49.800781 -14.891906 -45.832031 " transform="matrix(1,0,0,-1,48.388,50)"/>
</g>
</g>
</svg>
