<?xml version="1.0" encoding="UTF-8"?>
<svg xmlns="http://www.w3.org/2000/svg" xmlns:xlink="http://www.w3.org/1999/xlink" width="109.589pt" height="115.189pt" viewBox="0 0 109.589 115.189" version="1.1">
<defs>
<clipPath id="clip1">
  <path d="M 1 46 L 56 46 L 56 115.1875 L 1 115.1875 Z M 1 46 "/>
</clipPath>
<clipPath id="clip2">
  <path d="M 30 66 L 109.589844 66 L 109.589844 115.1875 L 30 115.1875 Z M 30 66 "/>
</clipPath>
<clipPath id="clip3">
  <path d="M 62 14 L 109.589844 14 L 109.589844 95 L 62 95 Z M 62 14 "/>
</clipPath>
<clipPath id="clip4">
  <path d="M 30 0 L 109.589844 0 L 109.589844 49 L 30 49 Z M 30 0 "/>
</clipPath>
<clipPath id="clip5">
  <path d="M 27 59 L 102 59 L 102 115.1875 L 27 115.1875 Z M 27 59 "/>
</clipPath>
<clipPath id="clip6">
  <path d="M 62 21 L 109.589844 21 L 109.589844 102 L 62 102 Z M 62 21 "/>
</clipPath>
</defs>
<g id="surface51">
<path style=" stroke:none;fill-rule:nonzero;fill:rgb(100%,100%,100%);fill-opacity:1;" d="M 48.191406 35.785156 L 32.347656 40.933594 C 25.128906 43.277344 20.242188 50.003906 20.242188 57.59375 L 0.398438 57.59375 C 0.398438 41.410156 10.820312 27.0625 26.214844 22.0625 L 42.0625 16.914062 "/>
<path style="fill:none;stroke-width:0.79701;stroke-linecap:butt;stroke-linejoin:miter;stroke:rgb(0%,0%,0%);stroke-opacity:1;stroke-miterlimit:10;" d="M -7.087594 21.809844 L -22.931344 16.661406 C -30.150094 14.317656 -35.036813 7.591094 -35.036813 0.00125 M -54.880563 0.00125 C -54.880563 16.184844 -44.458688 30.5325 -29.064156 35.5325 L -13.2165 40.680937 " transform="matrix(1,0,0,-1,55.279,57.595)"/>
<path style=" stroke:none;fill-rule:nonzero;fill:rgb(100%,100%,100%);fill-opacity:1;" d="M 32.347656 57.59375 L 32.347656 74.257812 C 32.347656 81.84375 37.234375 88.574219 44.449219 90.917969 L 38.320312 109.789062 C 22.925781 104.789062 12.503906 90.441406 12.503906 74.257812 L 12.503906 57.59375 "/>
<g clip-path="url(#clip1)" clip-rule="nonzero">
<path style="fill:none;stroke-width:0.79701;stroke-linecap:butt;stroke-linejoin:miter;stroke:rgb(0%,0%,0%);stroke-opacity:1;stroke-miterlimit:10;" d="M -22.931344 0.00125 L -22.931344 -16.662813 C -22.931344 -24.24875 -18.044625 -30.979219 -10.829781 -33.322969 M -16.958688 -52.194063 C -32.353219 -47.194063 -42.775094 -32.846406 -42.775094 -16.662813 L -42.775094 0.00125 " transform="matrix(1,0,0,-1,55.279,57.595)"/>
</g>
<path style=" stroke:none;fill-rule:nonzero;fill:rgb(100%,100%,100%);fill-opacity:1;" d="M 48.191406 79.40625 L 64.039062 84.554688 C 71.257812 86.898438 79.164062 84.332031 83.625 78.191406 L 99.675781 89.851562 C 90.164062 102.945312 73.296875 108.425781 57.90625 103.425781 L 42.0625 98.277344 "/>
<g clip-path="url(#clip2)" clip-rule="nonzero">
<path style="fill:none;stroke-width:0.79701;stroke-linecap:butt;stroke-linejoin:miter;stroke:rgb(0%,0%,0%);stroke-opacity:1;stroke-miterlimit:10;" d="M -7.087594 -21.81125 L 8.760062 -26.959688 C 15.978812 -29.303438 23.885062 -26.737031 28.346 -20.596406 M 44.396781 -32.256563 C 34.885062 -45.350313 18.017875 -50.830781 2.62725 -45.830781 L -13.2165 -40.682344 " transform="matrix(1,0,0,-1,55.279,57.595)"/>
</g>
<path style=" stroke:none;fill-rule:nonzero;fill:rgb(100%,100%,100%);fill-opacity:1;" d="M 73.832031 71.074219 L 83.625 57.59375 C 88.085938 51.457031 88.085938 43.140625 83.625 37 L 99.679688 25.339844 C 109.191406 38.433594 109.191406 56.164062 99.679688 69.257812 L 89.886719 82.738281 "/>
<g clip-path="url(#clip3)" clip-rule="nonzero">
<path style="fill:none;stroke-width:0.79701;stroke-linecap:butt;stroke-linejoin:miter;stroke:rgb(0%,0%,0%);stroke-opacity:1;stroke-miterlimit:10;" d="M 18.553031 -13.479219 L 28.346 0.00125 C 32.806937 6.137969 32.806937 14.454375 28.346 20.595 M 44.400687 32.255156 C 53.912406 19.161406 53.912406 1.430937 44.400687 -11.662813 L 34.607719 -25.143281 " transform="matrix(1,0,0,-1,55.279,57.595)"/>
</g>
<path style=" stroke:none;fill-rule:nonzero;fill:rgb(100%,100%,100%);fill-opacity:1;" d="M 73.832031 44.117188 L 64.039062 30.636719 C 59.578125 24.496094 51.671875 21.925781 44.453125 24.269531 L 38.320312 5.398438 C 53.714844 0.398438 70.578125 5.878906 80.09375 18.972656 L 89.886719 32.453125 "/>
<path style="fill:none;stroke-width:0.79701;stroke-linecap:butt;stroke-linejoin:miter;stroke:rgb(0%,0%,0%);stroke-opacity:1;stroke-miterlimit:10;" d="M 18.553031 13.477812 L 8.760062 26.958281 C 4.299125 33.098906 -3.607125 35.669219 -10.825875 33.325469 M -16.958688 52.196562 C -1.564156 57.196562 15.299125 51.716094 24.81475 38.622344 L 34.607719 25.141875 " transform="matrix(1,0,0,-1,55.279,57.595)"/>
<path style=" stroke:none;fill-rule:nonzero;fill:rgb(100%,100%,100%);fill-opacity:1;" d="M 57.90625 11.765625 C 73.300781 6.761719 90.164062 12.242188 99.679688 25.335938 L 83.625 37 C 79.164062 30.859375 71.253906 28.289062 64.039062 30.636719 L 48.191406 35.785156 L 42.0625 16.914062 Z M 57.90625 11.765625 "/>
<g clip-path="url(#clip4)" clip-rule="nonzero">
<path style="fill:none;stroke-width:0.79701;stroke-linecap:butt;stroke-linejoin:miter;stroke:rgb(0%,0%,0%);stroke-opacity:1;stroke-miterlimit:10;" d="M -13.2165 40.680937 L 2.62725 45.829375 C 18.021781 50.833281 34.885062 45.352812 44.400687 32.259062 M 28.346 20.595 C 23.885062 26.735625 15.974906 29.305937 8.760062 26.958281 L -7.087594 21.809844 " transform="matrix(1,0,0,-1,55.279,57.595)"/>
</g>
<path style=" stroke:none;fill-rule:nonzero;fill:rgb(100%,100%,100%);fill-opacity:1;" d="M 12.503906 40.933594 C 12.503906 24.75 22.925781 10.402344 38.320312 5.402344 L 44.449219 24.273438 C 37.234375 26.617188 32.347656 33.34375 32.347656 40.933594 L 32.347656 57.59375 L 12.503906 57.59375 Z M 12.503906 40.933594 "/>
<path style="fill:none;stroke-width:0.79701;stroke-linecap:butt;stroke-linejoin:miter;stroke:rgb(0%,0%,0%);stroke-opacity:1;stroke-miterlimit:10;" d="M -42.775094 0.00125 L -42.775094 16.661406 C -42.775094 32.845 -32.353219 47.192656 -16.958688 52.192656 M -10.829781 33.321562 C -18.044625 30.977812 -22.931344 24.25125 -22.931344 16.661406 L -22.931344 0.00125 " transform="matrix(1,0,0,-1,55.279,57.595)"/>
<path style=" stroke:none;fill-rule:nonzero;fill:rgb(100%,100%,100%);fill-opacity:1;" d="M 26.214844 93.128906 C 10.820312 88.128906 0.398438 73.78125 0.398438 57.597656 L 20.242188 57.597656 C 20.242188 65.183594 25.128906 71.910156 32.34375 74.257812 L 48.191406 79.40625 L 42.0625 98.277344 Z M 26.214844 93.128906 "/>
<path style="fill:none;stroke-width:0.79701;stroke-linecap:butt;stroke-linejoin:miter;stroke:rgb(0%,0%,0%);stroke-opacity:1;stroke-miterlimit:10;" d="M -13.2165 -40.682344 L -29.064156 -35.533906 C -44.458688 -30.533906 -54.880563 -16.18625 -54.880563 -0.00265625 M -35.036813 -0.00265625 C -35.036813 -7.588594 -30.150094 -14.315156 -22.93525 -16.662813 L -7.087594 -21.81125 " transform="matrix(1,0,0,-1,55.279,57.595)"/>
<path style=" stroke:none;fill-rule:nonzero;fill:rgb(100%,100%,100%);fill-opacity:1;" d="M 80.089844 96.21875 C 70.578125 109.3125 53.710938 114.792969 38.320312 109.789062 L 44.453125 90.917969 C 51.671875 93.261719 59.578125 90.695312 64.039062 84.554688 L 73.832031 71.074219 L 89.886719 82.738281 Z M 80.089844 96.21875 "/>
<g clip-path="url(#clip5)" clip-rule="nonzero">
<path style="fill:none;stroke-width:0.79701;stroke-linecap:butt;stroke-linejoin:miter;stroke:rgb(0%,0%,0%);stroke-opacity:1;stroke-miterlimit:10;" d="M 34.607719 -25.143281 L 24.810844 -38.62375 C 15.299125 -51.7175 -1.568063 -57.197969 -16.958688 -52.194063 M -10.825875 -33.322969 C -3.607125 -35.666719 4.299125 -33.100313 8.760062 -26.959688 L 18.553031 -13.479219 " transform="matrix(1,0,0,-1,55.279,57.595)"/>
</g>
<path style=" stroke:none;fill-rule:nonzero;fill:rgb(100%,100%,100%);fill-opacity:1;" d="M 99.679688 45.933594 C 109.191406 59.027344 109.191406 76.757812 99.679688 89.851562 L 83.625 78.1875 C 88.085938 72.050781 88.085938 63.734375 83.625 57.59375 L 73.832031 44.117188 L 89.886719 32.453125 Z M 99.679688 45.933594 "/>
<g clip-path="url(#clip6)" clip-rule="nonzero">
<path style="fill:none;stroke-width:0.79701;stroke-linecap:butt;stroke-linejoin:miter;stroke:rgb(0%,0%,0%);stroke-opacity:1;stroke-miterlimit:10;" d="M 34.607719 25.141875 L 44.400687 11.661406 C 53.912406 -1.432344 53.912406 -19.162813 44.400687 -32.256563 M 28.346 -20.5925 C 32.806937 -14.455781 32.806937 -6.139375 28.346 0.00125 L 18.553031 13.477812 " transform="matrix(1,0,0,-1,55.279,57.595)"/>
</g>
</g>
</svg>
