<?xml version="1.0" encoding="UTF-8"?>
<svg xmlns="http://www.w3.org/2000/svg" xmlns:xlink="http://www.w3.org/1999/xlink" width="68.443pt" height="70.182pt" viewBox="0 0 68.443 70.182" version="1.1">
<defs>
<clipPath id="clip1">
  <path d="M 0 23 L 27 23 L 27 70.183594 L 0 70.183594 Z M 0 23 "/>
</clipPath>
<clipPath id="clip2">
  <path d="M 5 43 L 54 43 L 54 70.183594 L 5 70.183594 Z M 5 43 "/>
</clipPath>
<clipPath id="clip3">
  <path d="M 29 37 L 68.441406 37 L 68.441406 70.183594 L 29 70.183594 Z M 29 37 "/>
</clipPath>
<clipPath id="clip4">
  <path d="M 46 8 L 68.441406 8 L 68.441406 59 L 46 59 Z M 46 8 "/>
</clipPath>
<clipPath id="clip5">
  <path d="M 30 0 L 68.441406 0 L 68.441406 36 L 30 36 Z M 30 0 "/>
</clipPath>
<clipPath id="clip6">
  <path d="M 29 0 L 68.441406 0 L 68.441406 33 L 29 33 Z M 29 0 "/>
</clipPath>
<clipPath id="clip7">
  <path d="M 2 48 L 53 48 L 53 70.183594 L 2 70.183594 Z M 2 48 "/>
</clipPath>
<clipPath id="clip8">
  <path d="M 30 34 L 68.441406 34 L 68.441406 70.183594 L 30 70.183594 Z M 30 34 "/>
</clipPath>
<clipPath id="clip9">
  <path d="M 46 11 L 68.441406 11 L 68.441406 62 L 46 62 Z M 46 11 "/>
</clipPath>
</defs>
<g id="surface21">
<path style=" stroke:none;fill-rule:nonzero;fill:rgb(100%,100%,100%);fill-opacity:1;" d="M 40.375 10.195312 L 28.386719 7.457031 C 23.722656 6.390625 18.820312 7.507812 15.082031 10.492188 L 13.3125 8.277344 C 17.730469 4.753906 23.511719 3.433594 29.019531 4.691406 L 41.007812 7.429688 "/>
<path style="fill:none;stroke-width:0.79701;stroke-linecap:butt;stroke-linejoin:miter;stroke:rgb(0%,0%,0%);stroke-opacity:1;stroke-miterlimit:10;" d="M 5.681 24.895687 L -6.307281 27.633969 C -10.971344 28.700375 -15.873688 27.583187 -19.611969 24.598812 M -21.3815 26.813656 C -16.963531 30.337094 -11.182281 31.657406 -5.674469 30.399594 L 6.313812 27.661312 " transform="matrix(1,0,0,-1,34.694,35.091)"/>
<path style=" stroke:none;fill-rule:nonzero;fill:rgb(100%,100%,100%);fill-opacity:1;" d="M 18.773438 15.125 L 9.15625 22.792969 C 5.414062 25.777344 3.234375 30.304688 3.234375 35.089844 L 0.398438 35.089844 C 0.398438 29.441406 2.972656 24.097656 7.386719 20.574219 L 17.003906 12.910156 "/>
<path style="fill:none;stroke-width:0.79701;stroke-linecap:butt;stroke-linejoin:miter;stroke:rgb(0%,0%,0%);stroke-opacity:1;stroke-miterlimit:10;" d="M -15.920563 19.966 L -25.53775 12.298031 C -29.279938 9.313656 -31.459625 4.786312 -31.459625 0.00115625 M -34.295563 0.00115625 C -34.295563 5.649594 -31.721344 10.993344 -27.307281 14.516781 L -17.690094 22.180844 " transform="matrix(1,0,0,-1,34.694,35.091)"/>
<path style=" stroke:none;fill-rule:nonzero;fill:rgb(100%,100%,100%);fill-opacity:1;" d="M 9.15625 35.089844 L 9.15625 47.390625 C 9.15625 52.175781 11.335938 56.703125 15.078125 59.6875 L 13.3125 61.902344 C 8.894531 58.382812 6.320312 53.035156 6.320312 47.386719 L 6.320312 35.089844 "/>
<g clip-path="url(#clip1)" clip-rule="nonzero">
<path style="fill:none;stroke-width:0.79701;stroke-linecap:butt;stroke-linejoin:miter;stroke:rgb(0%,0%,0%);stroke-opacity:1;stroke-miterlimit:10;" d="M -25.53775 0.00115625 L -25.53775 -12.299625 C -25.53775 -17.084781 -23.358063 -21.612125 -19.615875 -24.5965 M -21.3815 -26.811344 C -25.799469 -23.291813 -28.373688 -17.944156 -28.373688 -12.295719 L -28.373688 0.00115625 " transform="matrix(1,0,0,-1,34.694,35.091)"/>
</g>
<path style=" stroke:none;fill-rule:nonzero;fill:rgb(100%,100%,100%);fill-opacity:1;" d="M 18.773438 55.054688 L 28.386719 62.726562 C 32.128906 65.710938 37.027344 66.828125 41.691406 65.761719 L 42.324219 68.527344 C 36.816406 69.785156 31.035156 68.464844 26.617188 64.941406 L 17.003906 57.273438 "/>
<g clip-path="url(#clip2)" clip-rule="nonzero">
<path style="fill:none;stroke-width:0.79701;stroke-linecap:butt;stroke-linejoin:miter;stroke:rgb(0%,0%,0%);stroke-opacity:1;stroke-miterlimit:10;" d="M -15.920563 -19.963688 L -6.307281 -27.635563 C -2.565094 -30.619938 2.333344 -31.737125 6.997406 -30.670719 M 7.630219 -33.436344 C 2.122406 -34.694156 -3.658844 -33.373844 -8.076813 -29.850406 L -17.690094 -22.182438 " transform="matrix(1,0,0,-1,34.694,35.091)"/>
</g>
<path style=" stroke:none;fill-rule:nonzero;fill:rgb(100%,100%,100%);fill-opacity:1;" d="M 40.375 59.988281 L 52.367188 57.253906 C 57.03125 56.1875 60.960938 53.054688 63.039062 48.742188 L 65.59375 49.972656 C 63.140625 55.058594 58.503906 58.757812 52.996094 60.015625 L 41.007812 62.75 "/>
<g clip-path="url(#clip3)" clip-rule="nonzero">
<path style="fill:none;stroke-width:0.79701;stroke-linecap:butt;stroke-linejoin:miter;stroke:rgb(0%,0%,0%);stroke-opacity:1;stroke-miterlimit:10;" d="M 5.681 -24.897281 L 17.673187 -22.162906 C 22.33725 -21.0965 26.266937 -17.963688 28.345062 -13.651188 M 30.89975 -14.881656 C 28.446625 -19.967594 23.809906 -23.666813 18.302094 -24.924625 L 6.313812 -27.659 " transform="matrix(1,0,0,-1,34.694,35.091)"/>
</g>
<path style=" stroke:none;fill-rule:nonzero;fill:rgb(100%,100%,100%);fill-opacity:1;" d="M 57.703125 46.171875 L 63.039062 35.089844 C 65.117188 30.78125 65.117188 25.753906 63.039062 21.441406 L 65.59375 20.210938 C 68.042969 25.300781 68.042969 31.234375 65.59375 36.320312 L 60.253906 47.402344 "/>
<g clip-path="url(#clip4)" clip-rule="nonzero">
<path style="fill:none;stroke-width:0.79701;stroke-linecap:butt;stroke-linejoin:miter;stroke:rgb(0%,0%,0%);stroke-opacity:1;stroke-miterlimit:10;" d="M 23.009125 -11.080875 L 28.345062 0.00115625 C 30.423187 4.30975 30.423187 9.337094 28.345062 13.649594 M 30.89975 14.880062 C 33.348969 9.790219 33.348969 3.856625 30.89975 -1.229313 L 25.559906 -12.311344 " transform="matrix(1,0,0,-1,34.694,35.091)"/>
</g>
<path style=" stroke:none;fill-rule:nonzero;fill:rgb(100%,100%,100%);fill-opacity:1;" d="M 57.703125 24.011719 L 52.367188 12.929688 C 50.289062 8.617188 46.359375 5.484375 41.695312 4.417969 L 42.324219 1.65625 C 47.832031 2.914062 52.46875 6.613281 54.921875 11.699219 L 60.253906 22.78125 "/>
<g clip-path="url(#clip5)" clip-rule="nonzero">
<path style="fill:none;stroke-width:0.79701;stroke-linecap:butt;stroke-linejoin:miter;stroke:rgb(0%,0%,0%);stroke-opacity:1;stroke-miterlimit:10;" d="M 23.009125 11.079281 L 17.673187 22.161312 C 15.595062 26.473812 11.665375 29.606625 7.001312 30.673031 M 7.630219 33.43475 C 13.138031 32.176937 17.77475 28.477719 20.227875 23.391781 L 25.559906 12.30975 " transform="matrix(1,0,0,-1,34.694,35.091)"/>
</g>
<path style=" stroke:none;fill-rule:nonzero;fill:rgb(100%,100%,100%);fill-opacity:1;" d="M 52.996094 10.167969 C 58.503906 11.421875 63.140625 15.121094 65.59375 20.210938 L 63.039062 21.441406 C 60.960938 17.128906 57.03125 13.996094 52.367188 12.929688 L 40.375 10.195312 L 41.007812 7.429688 Z M 52.996094 10.167969 "/>
<g clip-path="url(#clip6)" clip-rule="nonzero">
<path style="fill:none;stroke-width:0.79701;stroke-linecap:butt;stroke-linejoin:miter;stroke:rgb(0%,0%,0%);stroke-opacity:1;stroke-miterlimit:10;" d="M 6.313812 27.661312 L 18.302094 24.923031 C 23.809906 23.669125 28.446625 19.969906 30.89975 14.880062 M 28.345062 13.649594 C 26.266937 17.962094 22.33725 21.094906 17.673187 22.161312 L 5.681 24.895687 " transform="matrix(1,0,0,-1,34.694,35.091)"/>
</g>
<path style=" stroke:none;fill-rule:nonzero;fill:rgb(100%,100%,100%);fill-opacity:1;" d="M 26.621094 5.238281 C 31.035156 1.71875 36.816406 0.398438 42.324219 1.65625 L 41.691406 4.417969 C 37.027344 3.355469 32.128906 4.472656 28.386719 7.457031 L 18.773438 15.125 L 17.003906 12.910156 Z M 26.621094 5.238281 "/>
<path style="fill:none;stroke-width:0.79701;stroke-linecap:butt;stroke-linejoin:miter;stroke:rgb(0%,0%,0%);stroke-opacity:1;stroke-miterlimit:10;" d="M -17.690094 22.180844 L -8.072906 29.852719 C -3.658844 33.37225 2.122406 34.692562 7.630219 33.43475 M 6.997406 30.673031 C 2.333344 31.735531 -2.565094 30.618344 -6.307281 27.633969 L -15.920563 19.966 " transform="matrix(1,0,0,-1,34.694,35.091)"/>
<path style=" stroke:none;fill-rule:nonzero;fill:rgb(100%,100%,100%);fill-opacity:1;" d="M 6.320312 22.792969 C 6.320312 17.144531 8.894531 11.800781 13.3125 8.277344 L 15.078125 10.496094 C 11.339844 13.480469 9.15625 18.007812 9.15625 22.792969 L 9.15625 35.089844 L 6.320312 35.089844 Z M 6.320312 22.792969 "/>
<path style="fill:none;stroke-width:0.79701;stroke-linecap:butt;stroke-linejoin:miter;stroke:rgb(0%,0%,0%);stroke-opacity:1;stroke-miterlimit:10;" d="M -28.373688 0.00115625 L -28.373688 12.298031 C -28.373688 17.946469 -25.799469 23.290219 -21.3815 26.813656 M -19.615875 24.594906 C -23.354156 21.610531 -25.53775 17.083187 -25.53775 12.298031 L -25.53775 0.00115625 " transform="matrix(1,0,0,-1,34.694,35.091)"/>
<path style=" stroke:none;fill-rule:nonzero;fill:rgb(100%,100%,100%);fill-opacity:1;" d="M 7.386719 49.605469 C 2.972656 46.085938 0.398438 40.738281 0.398438 35.089844 L 3.234375 35.09375 C 3.234375 39.878906 5.414062 44.40625 9.15625 47.390625 L 18.773438 55.054688 L 17.003906 57.273438 Z M 7.386719 49.605469 "/>
<path style="fill:none;stroke-width:0.79701;stroke-linecap:butt;stroke-linejoin:miter;stroke:rgb(0%,0%,0%);stroke-opacity:1;stroke-miterlimit:10;" d="M -17.690094 -22.182438 L -27.307281 -14.514469 C -31.721344 -10.994938 -34.295563 -5.647281 -34.295563 0.00115625 M -31.459625 -0.00275 C -31.459625 -4.787906 -29.279938 -9.31525 -25.53775 -12.299625 L -15.920563 -19.963688 " transform="matrix(1,0,0,-1,34.694,35.091)"/>
<path style=" stroke:none;fill-rule:nonzero;fill:rgb(100%,100%,100%);fill-opacity:1;" d="M 29.015625 65.488281 C 23.511719 66.746094 17.726562 65.425781 13.3125 61.902344 L 15.082031 59.6875 C 18.820312 62.671875 23.722656 63.789062 28.386719 62.726562 L 40.375 59.988281 L 41.007812 62.75 Z M 29.015625 65.488281 "/>
<g clip-path="url(#clip7)" clip-rule="nonzero">
<path style="fill:none;stroke-width:0.79701;stroke-linecap:butt;stroke-linejoin:miter;stroke:rgb(0%,0%,0%);stroke-opacity:1;stroke-miterlimit:10;" d="M 6.313812 -27.659 L -5.678375 -30.397281 C -11.182281 -31.655094 -16.967438 -30.334781 -21.3815 -26.811344 M -19.611969 -24.5965 C -15.873688 -27.580875 -10.971344 -28.698063 -6.307281 -27.635563 L 5.681 -24.897281 " transform="matrix(1,0,0,-1,34.694,35.091)"/>
</g>
<path style=" stroke:none;fill-rule:nonzero;fill:rgb(100%,100%,100%);fill-opacity:1;" d="M 54.921875 58.480469 C 52.46875 63.570312 47.832031 67.269531 42.324219 68.527344 L 41.695312 65.761719 C 46.359375 64.699219 50.289062 61.5625 52.367188 57.253906 L 57.703125 46.171875 L 60.253906 47.402344 Z M 54.921875 58.480469 "/>
<g clip-path="url(#clip8)" clip-rule="nonzero">
<path style="fill:none;stroke-width:0.79701;stroke-linecap:butt;stroke-linejoin:miter;stroke:rgb(0%,0%,0%);stroke-opacity:1;stroke-miterlimit:10;" d="M 25.559906 -12.311344 L 20.227875 -23.389469 C 17.77475 -28.479313 13.138031 -32.178531 7.630219 -33.436344 M 7.001312 -30.670719 C 11.665375 -29.608219 15.595062 -26.4715 17.673187 -22.162906 L 23.009125 -11.080875 " transform="matrix(1,0,0,-1,34.694,35.091)"/>
</g>
<path style=" stroke:none;fill-rule:nonzero;fill:rgb(100%,100%,100%);fill-opacity:1;" d="M 65.59375 33.859375 C 68.042969 38.949219 68.042969 44.882812 65.59375 49.96875 L 63.039062 48.738281 C 65.117188 44.429688 65.117188 39.402344 63.039062 35.089844 L 57.703125 24.011719 L 60.253906 22.78125 Z M 65.59375 33.859375 "/>
<g clip-path="url(#clip9)" clip-rule="nonzero">
<path style="fill:none;stroke-width:0.79701;stroke-linecap:butt;stroke-linejoin:miter;stroke:rgb(0%,0%,0%);stroke-opacity:1;stroke-miterlimit:10;" d="M 25.559906 12.30975 L 30.89975 1.231625 C 33.348969 -3.858219 33.348969 -9.791813 30.89975 -14.87775 M 28.345062 -13.647281 C 30.423187 -9.338688 30.423187 -4.311344 28.345062 0.00115625 L 23.009125 11.079281 " transform="matrix(1,0,0,-1,34.694,35.091)"/>
</g>
</g>
</svg>
