<?xml version="1.0" encoding="UTF-8"?>
<svg xmlns="http://www.w3.org/2000/svg" xmlns:xlink="http://www.w3.org/1999/xlink" width="125.707pt" height="128.928pt" viewBox="0 0 125.707 128.928" version="1.1">
<defs>
<clipPath id="clip1">
  <path d="M 22 32 L 83 32 L 83 128.929688 L 22 128.929688 Z M 22 32 "/>
</clipPath>
<clipPath id="clip2">
  <path d="M 64 25 L 99 25 L 99 128.929688 L 64 128.929688 Z M 64 25 "/>
</clipPath>
</defs>
<g id="surface121">
<path style=" stroke:none;fill-rule:nonzero;fill:rgb(100%,100%,100%);fill-opacity:1;" d="M 88.097656 52.164062 L 82.175781 39.867188 C 76.027344 27.097656 5.867188 50.289062 5.867188 64.464844 L 0.199219 64.464844 C 0.199219 48.875 79.90625 22.085938 87.285156 37.40625 L 93.207031 49.707031 "/>
<path style="fill:none;stroke-width:0.3985;stroke-linecap:butt;stroke-linejoin:miter;stroke:rgb(0%,0%,0%);stroke-opacity:1;stroke-miterlimit:10;" d="M 25.536656 12.299938 L 19.614781 24.596813 C 13.466344 37.366344 -56.693812 14.174938 -56.693812 -0.00084375 " transform="matrix(1,0,0,-1,62.561,64.464)"/>
<path style="fill:none;stroke-width:0.3985;stroke-linecap:butt;stroke-linejoin:miter;stroke:rgb(0%,0%,0%);stroke-opacity:1;stroke-miterlimit:10;" d="M -62.361781 -0.00084375 C -62.361781 15.589 17.34525 42.378063 24.724156 27.05775 L 30.646031 14.756969 " transform="matrix(1,0,0,-1,62.561,64.464)"/>
<path style=" stroke:none;fill-rule:nonzero;fill:rgb(100%,100%,100%);fill-opacity:1;" d="M 68.867188 36.828125 L 55.5625 33.792969 C 41.742188 30.636719 16.136719 99.949219 27.214844 108.785156 L 23.679688 113.21875 C 11.492188 103.5 40.242188 24.480469 56.824219 28.265625 L 70.128906 31.300781 "/>
<path style="fill:none;stroke-width:0.3985;stroke-linecap:butt;stroke-linejoin:miter;stroke:rgb(0%,0%,0%);stroke-opacity:1;stroke-miterlimit:10;" d="M 6.306188 27.635875 L -6.9985 30.671031 C -20.818812 33.827281 -46.424281 -35.485219 -35.346156 -44.321156 " transform="matrix(1,0,0,-1,62.561,64.464)"/>
<path style="fill:none;stroke-width:0.3985;stroke-linecap:butt;stroke-linejoin:miter;stroke:rgb(0%,0%,0%);stroke-opacity:1;stroke-miterlimit:10;" d="M -38.881312 -48.75475 C -51.068812 -39.036 -22.318812 39.983531 -5.736781 36.198375 L 7.567906 33.163219 " transform="matrix(1,0,0,-1,62.561,64.464)"/>
<path style=" stroke:none;fill-rule:nonzero;fill:rgb(100%,100%,100%);fill-opacity:1;" d="M 44.886719 42.304688 L 34.214844 50.8125 C 23.136719 59.648438 61.355469 122.886719 75.175781 119.734375 L 76.4375 125.261719 C 61.238281 128.730469 17.386719 56.984375 30.679688 46.382812 L 41.355469 37.871094 "/>
<path style="fill:none;stroke-width:0.3985;stroke-linecap:butt;stroke-linejoin:miter;stroke:rgb(0%,0%,0%);stroke-opacity:1;stroke-miterlimit:10;" d="M -17.674281 22.159313 L -28.346156 13.6515 C -39.424281 4.815563 -1.205531 -58.422719 12.614781 -55.270375 " transform="matrix(1,0,0,-1,62.561,64.464)"/>
<g clip-path="url(#clip1)" clip-rule="nonzero">
<path style="fill:none;stroke-width:0.3985;stroke-linecap:butt;stroke-linejoin:miter;stroke:rgb(0%,0%,0%);stroke-opacity:1;stroke-miterlimit:10;" d="M 13.8765 -60.797719 C -1.322719 -64.266469 -45.174281 7.479625 -31.881312 18.081188 L -21.205531 26.592906 " transform="matrix(1,0,0,-1,62.561,64.464)"/>
</g>
<path style=" stroke:none;fill-rule:nonzero;fill:rgb(100%,100%,100%);fill-opacity:1;" d="M 34.214844 64.464844 L 34.214844 78.113281 C 34.214844 92.289062 107.488281 101.828125 113.636719 89.0625 L 118.746094 91.519531 C 111.980469 105.566406 28.546875 95.121094 28.546875 78.113281 L 28.542969 64.464844 "/>
<path style="fill:none;stroke-width:0.3985;stroke-linecap:butt;stroke-linejoin:miter;stroke:rgb(0%,0%,0%);stroke-opacity:1;stroke-miterlimit:10;" d="M -28.346156 -0.00084375 L -28.346156 -13.649281 C -28.346156 -27.825062 44.927281 -37.364125 51.075719 -24.5985 " transform="matrix(1,0,0,-1,62.561,64.464)"/>
<path style="fill:none;stroke-width:0.3985;stroke-linecap:butt;stroke-linejoin:miter;stroke:rgb(0%,0%,0%);stroke-opacity:1;stroke-miterlimit:10;" d="M 56.185094 -27.055531 C 49.419469 -41.102406 -34.014125 -30.657094 -34.014125 -13.649281 L -34.018031 -0.00084375 " transform="matrix(1,0,0,-1,62.561,64.464)"/>
<path style=" stroke:none;fill-rule:nonzero;fill:rgb(100%,100%,100%);fill-opacity:1;" d="M 44.886719 86.625 L 55.5625 95.136719 C 66.640625 103.972656 119.785156 52.636719 113.636719 39.867188 L 118.746094 37.40625 C 125.507812 51.453125 65.324219 110.171875 52.027344 99.570312 L 41.355469 91.058594 "/>
<path style="fill:none;stroke-width:0.3985;stroke-linecap:butt;stroke-linejoin:miter;stroke:rgb(0%,0%,0%);stroke-opacity:1;stroke-miterlimit:10;" d="M -17.674281 -22.161 L -6.9985 -30.672719 C 4.079625 -39.508656 57.224156 11.827281 51.075719 24.596813 " transform="matrix(1,0,0,-1,62.561,64.464)"/>
<path style="fill:none;stroke-width:0.3985;stroke-linecap:butt;stroke-linejoin:miter;stroke:rgb(0%,0%,0%);stroke-opacity:1;stroke-miterlimit:10;" d="M 56.185094 27.05775 C 62.946813 13.010875 2.763219 -45.707875 -10.533656 -35.106312 L -21.205531 -26.594594 " transform="matrix(1,0,0,-1,62.561,64.464)"/>
<path style=" stroke:none;fill-rule:nonzero;fill:rgb(100%,100%,100%);fill-opacity:1;" d="M 68.867188 92.097656 L 82.175781 89.0625 C 95.992188 85.90625 88.992188 12.347656 75.175781 9.195312 L 76.4375 3.667969 C 91.636719 7.136719 100.019531 90.804688 83.4375 94.585938 L 70.128906 97.625 "/>
<path style="fill:none;stroke-width:0.3985;stroke-linecap:butt;stroke-linejoin:miter;stroke:rgb(0%,0%,0%);stroke-opacity:1;stroke-miterlimit:10;" d="M 6.306188 -27.633656 L 19.614781 -24.5985 C 33.431188 -21.44225 26.431188 52.116344 12.614781 55.268688 " transform="matrix(1,0,0,-1,62.561,64.464)"/>
<path style="fill:none;stroke-width:0.3985;stroke-linecap:butt;stroke-linejoin:miter;stroke:rgb(0%,0%,0%);stroke-opacity:1;stroke-miterlimit:10;" d="M 13.8765 60.796031 C 29.075719 57.327281 37.458531 -26.340687 20.8765 -30.121937 L 7.567906 -33.161 " transform="matrix(1,0,0,-1,62.561,64.464)"/>
<path style=" stroke:none;fill-rule:nonzero;fill:rgb(100%,100%,100%);fill-opacity:1;" d="M 88.097656 76.761719 L 94.023438 64.464844 C 100.171875 51.695312 38.296875 11.304688 27.214844 20.140625 L 23.679688 15.710938 C 35.867188 5.992188 106.511719 51.601562 99.132812 66.921875 L 93.207031 79.222656 "/>
<path style="fill:none;stroke-width:0.3985;stroke-linecap:butt;stroke-linejoin:miter;stroke:rgb(0%,0%,0%);stroke-opacity:1;stroke-miterlimit:10;" d="M 25.536656 -12.297719 L 31.462438 -0.00084375 C 37.610875 12.768688 -24.264125 53.159313 -35.346156 44.323375 " transform="matrix(1,0,0,-1,62.561,64.464)"/>
<path style="fill:none;stroke-width:0.3985;stroke-linecap:butt;stroke-linejoin:miter;stroke:rgb(0%,0%,0%);stroke-opacity:1;stroke-miterlimit:10;" d="M -38.881312 48.753063 C -26.693812 58.471813 43.950719 12.862438 36.571813 -2.457875 L 30.646031 -14.758656 " transform="matrix(1,0,0,-1,62.561,64.464)"/>
<path style=" stroke:none;fill-rule:nonzero;fill:rgb(100%,100%,100%);fill-opacity:1;" d="M 88.097656 52.164062 L 94.023438 64.464844 C 100.171875 77.234375 38.296875 117.621094 27.214844 108.785156 L 23.679688 113.21875 C 35.867188 122.9375 106.511719 77.328125 99.132812 62.003906 L 93.207031 49.707031 "/>
<path style="fill:none;stroke-width:0.3985;stroke-linecap:butt;stroke-linejoin:miter;stroke:rgb(0%,0%,0%);stroke-opacity:1;stroke-miterlimit:10;" d="M 25.536656 12.299938 L 31.462438 -0.00084375 C 37.610875 -12.770375 -24.264125 -53.157094 -35.346156 -44.321156 " transform="matrix(1,0,0,-1,62.561,64.464)"/>
<path style="fill:none;stroke-width:0.3985;stroke-linecap:butt;stroke-linejoin:miter;stroke:rgb(0%,0%,0%);stroke-opacity:1;stroke-miterlimit:10;" d="M 30.646031 14.756969 L 36.571813 2.460094 C 43.950719 -12.864125 -26.693812 -58.4735 -38.881312 -48.75475 " transform="matrix(1,0,0,-1,62.561,64.464)"/>
<path style=" stroke:none;fill-rule:nonzero;fill:rgb(100%,100%,100%);fill-opacity:1;" d="M 68.867188 36.828125 L 82.175781 39.867188 C 95.992188 43.019531 88.992188 116.578125 75.175781 119.734375 L 76.4375 125.261719 C 91.636719 121.792969 100.019531 38.125 83.4375 34.339844 L 70.128906 31.300781 "/>
<path style="fill:none;stroke-width:0.3985;stroke-linecap:butt;stroke-linejoin:miter;stroke:rgb(0%,0%,0%);stroke-opacity:1;stroke-miterlimit:10;" d="M 6.306188 27.635875 L 19.614781 24.596813 C 33.431188 21.444469 26.431188 -52.114125 12.614781 -55.270375 " transform="matrix(1,0,0,-1,62.561,64.464)"/>
<g clip-path="url(#clip2)" clip-rule="nonzero">
<path style="fill:none;stroke-width:0.3985;stroke-linecap:butt;stroke-linejoin:miter;stroke:rgb(0%,0%,0%);stroke-opacity:1;stroke-miterlimit:10;" d="M 7.567906 33.163219 L 20.8765 30.124156 C 37.458531 26.339 29.075719 -57.328969 13.8765 -60.797719 " transform="matrix(1,0,0,-1,62.561,64.464)"/>
</g>
<path style=" stroke:none;fill-rule:nonzero;fill:rgb(100%,100%,100%);fill-opacity:1;" d="M 44.886719 42.304688 L 55.5625 33.792969 C 66.640625 24.953125 119.785156 76.292969 113.636719 89.0625 L 118.746094 91.519531 C 125.507812 77.476562 65.324219 18.753906 52.027344 29.359375 L 41.355469 37.871094 "/>
<path style="fill:none;stroke-width:0.3985;stroke-linecap:butt;stroke-linejoin:miter;stroke:rgb(0%,0%,0%);stroke-opacity:1;stroke-miterlimit:10;" d="M -17.674281 22.159313 L -6.9985 30.671031 C 4.079625 39.510875 57.224156 -11.828969 51.075719 -24.5985 " transform="matrix(1,0,0,-1,62.561,64.464)"/>
<path style="fill:none;stroke-width:0.3985;stroke-linecap:butt;stroke-linejoin:miter;stroke:rgb(0%,0%,0%);stroke-opacity:1;stroke-miterlimit:10;" d="M -21.205531 26.592906 L -10.533656 35.104625 C 2.763219 45.710094 62.946813 -13.012562 56.185094 -27.055531 " transform="matrix(1,0,0,-1,62.561,64.464)"/>
<path style=" stroke:none;fill-rule:nonzero;fill:rgb(100%,100%,100%);fill-opacity:1;" d="M 34.214844 64.464844 L 34.214844 50.8125 C 34.214844 36.640625 107.488281 27.097656 113.636719 39.867188 L 118.746094 37.40625 C 111.980469 23.363281 28.546875 33.804688 28.546875 50.8125 L 28.542969 64.464844 "/>
<path style="fill:none;stroke-width:0.3985;stroke-linecap:butt;stroke-linejoin:miter;stroke:rgb(0%,0%,0%);stroke-opacity:1;stroke-miterlimit:10;" d="M -28.346156 -0.00084375 L -28.346156 13.6515 C -28.346156 27.823375 44.927281 37.366344 51.075719 24.596813 " transform="matrix(1,0,0,-1,62.561,64.464)"/>
<path style="fill:none;stroke-width:0.3985;stroke-linecap:butt;stroke-linejoin:miter;stroke:rgb(0%,0%,0%);stroke-opacity:1;stroke-miterlimit:10;" d="M -34.018031 -0.00084375 L -34.014125 13.6515 C -34.014125 30.659313 49.419469 41.100719 56.185094 27.05775 " transform="matrix(1,0,0,-1,62.561,64.464)"/>
<path style=" stroke:none;fill-rule:nonzero;fill:rgb(100%,100%,100%);fill-opacity:1;" d="M 44.886719 86.625 L 34.214844 78.113281 C 23.132812 69.277344 61.359375 6.039062 75.175781 9.195312 L 76.4375 3.667969 C 61.238281 0.199219 17.382812 71.941406 30.679688 82.546875 L 41.355469 91.058594 "/>
<path style="fill:none;stroke-width:0.3985;stroke-linecap:butt;stroke-linejoin:miter;stroke:rgb(0%,0%,0%);stroke-opacity:1;stroke-miterlimit:10;" d="M -17.674281 -22.161 L -28.346156 -13.649281 C -39.428187 -4.813344 -1.201625 58.424938 12.614781 55.268688 " transform="matrix(1,0,0,-1,62.561,64.464)"/>
<path style="fill:none;stroke-width:0.3985;stroke-linecap:butt;stroke-linejoin:miter;stroke:rgb(0%,0%,0%);stroke-opacity:1;stroke-miterlimit:10;" d="M -21.205531 -26.594594 L -31.881312 -18.082875 C -45.178187 -7.477406 -1.322719 64.264781 13.8765 60.796031 " transform="matrix(1,0,0,-1,62.561,64.464)"/>
<path style=" stroke:none;fill-rule:nonzero;fill:rgb(100%,100%,100%);fill-opacity:1;" d="M 68.867188 92.097656 L 55.5625 95.136719 C 41.742188 98.289062 16.132812 28.976562 27.214844 20.140625 L 23.679688 15.710938 C 11.492188 25.429688 40.242188 104.449219 56.820312 100.664062 L 70.128906 97.625 "/>
<path style="fill:none;stroke-width:0.3985;stroke-linecap:butt;stroke-linejoin:miter;stroke:rgb(0%,0%,0%);stroke-opacity:1;stroke-miterlimit:10;" d="M 6.306188 -27.633656 L -6.9985 -30.672719 C -20.818812 -33.825062 -46.428187 35.487438 -35.346156 44.323375 " transform="matrix(1,0,0,-1,62.561,64.464)"/>
<path style="fill:none;stroke-width:0.3985;stroke-linecap:butt;stroke-linejoin:miter;stroke:rgb(0%,0%,0%);stroke-opacity:1;stroke-miterlimit:10;" d="M 7.567906 -33.161 L -5.740687 -36.200062 C -22.318812 -39.985219 -51.068812 39.034313 -38.881312 48.753063 " transform="matrix(1,0,0,-1,62.561,64.464)"/>
<path style=" stroke:none;fill-rule:nonzero;fill:rgb(100%,100%,100%);fill-opacity:1;" d="M 88.097656 76.761719 L 82.175781 89.0625 C 76.027344 101.828125 5.867188 78.636719 5.867188 64.464844 L 0.199219 64.464844 C 0.199219 80.054688 79.90625 106.84375 87.285156 91.519531 L 93.207031 79.222656 "/>
<path style="fill:none;stroke-width:0.3985;stroke-linecap:butt;stroke-linejoin:miter;stroke:rgb(0%,0%,0%);stroke-opacity:1;stroke-miterlimit:10;" d="M 25.536656 -12.297719 L 19.614781 -24.5985 C 13.466344 -37.364125 -56.693812 -14.172719 -56.693812 -0.00084375 " transform="matrix(1,0,0,-1,62.561,64.464)"/>
<path style="fill:none;stroke-width:0.3985;stroke-linecap:butt;stroke-linejoin:miter;stroke:rgb(0%,0%,0%);stroke-opacity:1;stroke-miterlimit:10;" d="M 30.646031 -14.758656 L 24.724156 -27.055531 C 17.34525 -42.37975 -62.361781 -15.590687 -62.361781 -0.00084375 " transform="matrix(1,0,0,-1,62.561,64.464)"/>
</g>
</svg>
