<?xml version="1.0" encoding="UTF-8"?>
<svg xmlns="http://www.w3.org/2000/svg" xmlns:xlink="http://www.w3.org/1999/xlink" width="142.003pt" height="142.003pt" viewBox="0 0 142.003 142.003" version="1.1">
<defs>
<clipPath id="clip1">
  <path d="M 28 108 L 61 108 L 61 142.003906 L 28 142.003906 Z M 28 108 "/>
</clipPath>
<clipPath id="clip2">
  <path d="M 27 109 L 61 109 L 61 142.003906 L 27 142.003906 Z M 27 109 "/>
</clipPath>
<clipPath id="clip3">
  <path d="M 35 113 L 72 113 L 72 142.003906 L 35 142.003906 Z M 35 113 "/>
</clipPath>
<clipPath id="clip4">
  <path d="M 34 115 L 72 115 L 72 142.003906 L 34 142.003906 Z M 34 115 "/>
</clipPath>
<clipPath id="clip5">
  <path d="M 43 117 L 82 117 L 82 142.003906 L 43 142.003906 Z M 43 117 "/>
</clipPath>
<clipPath id="clip6">
  <path d="M 42 119 L 83 119 L 83 142.003906 L 42 142.003906 Z M 42 119 "/>
</clipPath>
<clipPath id="clip7">
  <path d="M 52 120 L 93 120 L 93 142.003906 L 52 142.003906 Z M 52 120 "/>
</clipPath>
<clipPath id="clip8">
  <path d="M 51 122 L 93 122 L 93 142.003906 L 51 142.003906 Z M 51 122 "/>
</clipPath>
<clipPath id="clip9">
  <path d="M 60 123 L 104 123 L 104 142.003906 L 60 142.003906 Z M 60 123 "/>
</clipPath>
<clipPath id="clip10">
  <path d="M 108 81 L 142.003906 81 L 142.003906 114 L 108 114 Z M 108 81 "/>
</clipPath>
<clipPath id="clip11">
  <path d="M 109 81 L 142.003906 81 L 142.003906 115 L 109 115 Z M 109 81 "/>
</clipPath>
<clipPath id="clip12">
  <path d="M 113 70 L 142.003906 70 L 142.003906 107 L 113 107 Z M 113 70 "/>
</clipPath>
<clipPath id="clip13">
  <path d="M 115 70 L 142.003906 70 L 142.003906 108 L 115 108 Z M 115 70 "/>
</clipPath>
<clipPath id="clip14">
  <path d="M 117 60 L 142.003906 60 L 142.003906 99 L 117 99 Z M 117 60 "/>
</clipPath>
<clipPath id="clip15">
  <path d="M 119 59 L 142.003906 59 L 142.003906 100 L 119 100 Z M 119 59 "/>
</clipPath>
<clipPath id="clip16">
  <path d="M 120 49 L 142.003906 49 L 142.003906 90 L 120 90 Z M 120 49 "/>
</clipPath>
<clipPath id="clip17">
  <path d="M 122 49 L 142.003906 49 L 142.003906 91 L 122 91 Z M 122 49 "/>
</clipPath>
<clipPath id="clip18">
  <path d="M 123 38 L 142.003906 38 L 142.003906 82 L 123 82 Z M 123 38 "/>
</clipPath>
<clipPath id="clip19">
  <path d="M 123 60 L 142.003906 60 L 142.003906 104 L 123 104 Z M 123 60 "/>
</clipPath>
<clipPath id="clip20">
  <path d="M 120 52 L 142.003906 52 L 142.003906 93 L 120 93 Z M 120 52 "/>
</clipPath>
<clipPath id="clip21">
  <path d="M 122 51 L 142.003906 51 L 142.003906 93 L 122 93 Z M 122 51 "/>
</clipPath>
<clipPath id="clip22">
  <path d="M 117 43 L 142.003906 43 L 142.003906 82 L 117 82 Z M 117 43 "/>
</clipPath>
<clipPath id="clip23">
  <path d="M 119 42 L 142.003906 42 L 142.003906 83 L 119 83 Z M 119 42 "/>
</clipPath>
<clipPath id="clip24">
  <path d="M 113 35 L 142.003906 35 L 142.003906 72 L 113 72 Z M 113 35 "/>
</clipPath>
<clipPath id="clip25">
  <path d="M 115 34 L 142.003906 34 L 142.003906 72 L 115 72 Z M 115 34 "/>
</clipPath>
<clipPath id="clip26">
  <path d="M 108 28 L 142.003906 28 L 142.003906 61 L 108 61 Z M 108 28 "/>
</clipPath>
<clipPath id="clip27">
  <path d="M 109 27 L 142.003906 27 L 142.003906 61 L 109 61 Z M 109 27 "/>
</clipPath>
<clipPath id="clip28">
  <path d="M 38 123 L 82 123 L 82 142.003906 L 38 142.003906 Z M 38 123 "/>
</clipPath>
<clipPath id="clip29">
  <path d="M 49 120 L 90 120 L 90 142.003906 L 49 142.003906 Z M 49 120 "/>
</clipPath>
<clipPath id="clip30">
  <path d="M 49 122 L 91 122 L 91 142.003906 L 49 142.003906 Z M 49 122 "/>
</clipPath>
<clipPath id="clip31">
  <path d="M 60 117 L 99 117 L 99 142.003906 L 60 142.003906 Z M 60 117 "/>
</clipPath>
<clipPath id="clip32">
  <path d="M 59 119 L 100 119 L 100 142.003906 L 59 142.003906 Z M 59 119 "/>
</clipPath>
<clipPath id="clip33">
  <path d="M 70 113 L 107 113 L 107 142.003906 L 70 142.003906 Z M 70 113 "/>
</clipPath>
<clipPath id="clip34">
  <path d="M 70 115 L 108 115 L 108 142.003906 L 70 142.003906 Z M 70 115 "/>
</clipPath>
<clipPath id="clip35">
  <path d="M 81 108 L 114 108 L 114 142.003906 L 81 142.003906 Z M 81 108 "/>
</clipPath>
<clipPath id="clip36">
  <path d="M 81 109 L 115 109 L 115 142.003906 L 81 142.003906 Z M 81 109 "/>
</clipPath>
</defs>
<g id="surface6">
<path style=" stroke:none;fill-rule:nonzero;fill:rgb(100%,100%,100%);fill-opacity:1;" d="M 127.515625 66.554688 L 127.171875 62.105469 C 126.28125 50.804688 134.929688 45.125 129.003906 35.457031 L 130.695312 34.421875 C 136.792969 44.367188 128.226562 50.253906 129.148438 61.949219 L 129.496094 66.398438 "/>
<path style="fill:none;stroke-width:0.3985;stroke-linecap:butt;stroke-linejoin:miter;stroke:rgb(0%,0%,0%);stroke-opacity:1;stroke-miterlimit:10;" d="M 56.514625 4.447312 L 56.170875 8.896531 C 55.28025 20.197312 63.928687 25.877 58.002906 35.544969 " transform="matrix(1,0,0,-1,71.001,71.002)"/>
<path style="fill:none;stroke-width:0.3985;stroke-linecap:butt;stroke-linejoin:miter;stroke:rgb(0%,0%,0%);stroke-opacity:1;stroke-miterlimit:10;" d="M 59.694312 36.580125 C 65.791969 26.634812 57.225562 20.748094 58.147437 9.052781 L 58.495094 4.603562 " transform="matrix(1,0,0,-1,71.001,71.002)"/>
<path style=" stroke:none;fill-rule:nonzero;fill:rgb(100%,100%,100%);fill-opacity:1;" d="M 126.125 57.769531 L 125.085938 53.429688 C 122.441406 42.402344 130.09375 35.441406 122.730469 26.820312 L 124.238281 25.53125 C 131.816406 34.402344 124.277344 41.554688 127.015625 52.964844 L 128.054688 57.304688 "/>
<path style="fill:none;stroke-width:0.3985;stroke-linecap:butt;stroke-linejoin:miter;stroke:rgb(0%,0%,0%);stroke-opacity:1;stroke-miterlimit:10;" d="M 55.124 13.232469 L 54.084937 17.572312 C 51.440406 28.599656 59.09275 35.560594 51.729469 44.181687 " transform="matrix(1,0,0,-1,71.001,71.002)"/>
<path style="fill:none;stroke-width:0.3985;stroke-linecap:butt;stroke-linejoin:miter;stroke:rgb(0%,0%,0%);stroke-opacity:1;stroke-miterlimit:10;" d="M 53.237281 45.47075 C 60.815406 36.599656 53.276344 29.447312 56.014625 18.037156 L 57.053687 13.697312 " transform="matrix(1,0,0,-1,71.001,71.002)"/>
<path style=" stroke:none;fill-rule:nonzero;fill:rgb(100%,100%,100%);fill-opacity:1;" d="M 123.378906 49.308594 L 121.671875 45.183594 C 117.332031 34.710938 123.804688 26.636719 115.183594 19.273438 L 116.472656 17.765625 C 125.34375 25.34375 119.015625 33.582031 123.503906 44.425781 L 125.210938 48.546875 "/>
<path style="fill:none;stroke-width:0.3985;stroke-linecap:butt;stroke-linejoin:miter;stroke:rgb(0%,0%,0%);stroke-opacity:1;stroke-miterlimit:10;" d="M 52.377906 21.693406 L 50.670875 25.818406 C 46.331031 36.291062 52.803687 44.365281 44.182594 51.728562 " transform="matrix(1,0,0,-1,71.001,71.002)"/>
<path style="fill:none;stroke-width:0.3985;stroke-linecap:butt;stroke-linejoin:miter;stroke:rgb(0%,0%,0%);stroke-opacity:1;stroke-miterlimit:10;" d="M 45.471656 53.236375 C 54.34275 45.65825 48.014625 37.419969 52.502906 26.576219 L 54.209937 22.455125 " transform="matrix(1,0,0,-1,71.001,71.002)"/>
<path style=" stroke:none;fill-rule:nonzero;fill:rgb(100%,100%,100%);fill-opacity:1;" d="M 119.339844 41.382812 L 117.007812 37.574219 C 111.085938 27.910156 116.214844 18.921875 106.546875 12.996094 L 107.582031 11.304688 C 117.53125 17.402344 112.570312 26.535156 118.699219 36.539062 L 121.03125 40.34375 "/>
<path style="fill:none;stroke-width:0.3985;stroke-linecap:butt;stroke-linejoin:miter;stroke:rgb(0%,0%,0%);stroke-opacity:1;stroke-miterlimit:10;" d="M 48.338844 29.619187 L 46.006812 33.427781 C 40.084937 43.091844 45.213844 52.080125 35.545875 58.005906 " transform="matrix(1,0,0,-1,71.001,71.002)"/>
<path style="fill:none;stroke-width:0.3985;stroke-linecap:butt;stroke-linejoin:miter;stroke:rgb(0%,0%,0%);stroke-opacity:1;stroke-miterlimit:10;" d="M 36.581031 59.697312 C 46.53025 53.599656 41.569312 44.466844 47.698219 34.462937 L 50.03025 30.65825 " transform="matrix(1,0,0,-1,71.001,71.002)"/>
<path style=" stroke:none;fill-rule:nonzero;fill:rgb(100%,100%,100%);fill-opacity:1;" d="M 114.109375 34.183594 L 111.214844 30.789062 C 103.851562 22.167969 107.507812 12.488281 97.035156 8.152344 L 97.792969 6.316406 C 108.574219 10.78125 105.101562 20.578125 112.722656 29.5 L 115.617188 32.894531 "/>
<path style="fill:none;stroke-width:0.3985;stroke-linecap:butt;stroke-linejoin:miter;stroke:rgb(0%,0%,0%);stroke-opacity:1;stroke-miterlimit:10;" d="M 43.108375 36.818406 L 40.213844 40.212937 C 32.850562 48.834031 36.506812 58.513719 26.034156 62.849656 " transform="matrix(1,0,0,-1,71.001,71.002)"/>
<path style="fill:none;stroke-width:0.3985;stroke-linecap:butt;stroke-linejoin:miter;stroke:rgb(0%,0%,0%);stroke-opacity:1;stroke-miterlimit:10;" d="M 26.791969 64.685594 C 37.573219 60.22075 34.100562 50.423875 41.721656 41.502 L 44.616187 38.107469 " transform="matrix(1,0,0,-1,71.001,71.002)"/>
<path style=" stroke:none;fill-rule:nonzero;fill:rgb(100%,100%,100%);fill-opacity:1;" d="M 107.820312 27.894531 L 104.425781 24.992188 C 95.804688 17.628906 97.90625 7.5 86.882812 4.851562 L 87.34375 2.921875 C 98.691406 5.644531 96.792969 15.863281 105.714844 23.484375 L 109.109375 26.386719 "/>
<path style="fill:none;stroke-width:0.3985;stroke-linecap:butt;stroke-linejoin:miter;stroke:rgb(0%,0%,0%);stroke-opacity:1;stroke-miterlimit:10;" d="M 36.819312 43.107469 L 33.424781 46.009812 C 24.803687 53.373094 26.90525 63.502 15.881812 66.150437 " transform="matrix(1,0,0,-1,71.001,71.002)"/>
<path style="fill:none;stroke-width:0.3985;stroke-linecap:butt;stroke-linejoin:miter;stroke:rgb(0%,0%,0%);stroke-opacity:1;stroke-miterlimit:10;" d="M 16.34275 68.080125 C 27.690406 65.357469 25.791969 55.138719 34.713844 47.517625 L 38.108375 44.615281 " transform="matrix(1,0,0,-1,71.001,71.002)"/>
<path style=" stroke:none;fill-rule:nonzero;fill:rgb(100%,100%,100%);fill-opacity:1;" d="M 100.621094 22.664062 L 96.820312 20.332031 C 87.152344 14.40625 87.640625 4.070312 76.339844 3.183594 L 76.496094 1.203125 C 88.125 2.121094 87.851562 12.507812 97.855469 18.640625 L 101.660156 20.972656 "/>
<path style="fill:none;stroke-width:0.3985;stroke-linecap:butt;stroke-linejoin:miter;stroke:rgb(0%,0%,0%);stroke-opacity:1;stroke-miterlimit:10;" d="M 29.620094 48.337937 L 25.819312 50.669969 C 16.151344 56.59575 16.639625 66.931687 5.338844 67.818406 " transform="matrix(1,0,0,-1,71.001,71.002)"/>
<path style="fill:none;stroke-width:0.3985;stroke-linecap:butt;stroke-linejoin:miter;stroke:rgb(0%,0%,0%);stroke-opacity:1;stroke-miterlimit:10;" d="M 5.495094 69.798875 C 17.124 68.880906 16.850562 58.494187 26.854469 52.361375 L 30.659156 50.029344 " transform="matrix(1,0,0,-1,71.001,71.002)"/>
<path style=" stroke:none;fill-rule:nonzero;fill:rgb(100%,100%,100%);fill-opacity:1;" d="M 92.695312 18.625 L 88.574219 16.914062 C 78.101562 12.578125 76.964844 2.292969 65.664062 3.183594 L 65.507812 1.203125 C 77.140625 0.289062 78.492188 10.59375 89.332031 15.082031 L 93.453125 16.792969 "/>
<path style="fill:none;stroke-width:0.3985;stroke-linecap:butt;stroke-linejoin:miter;stroke:rgb(0%,0%,0%);stroke-opacity:1;stroke-miterlimit:10;" d="M 21.694312 52.377 L 17.573219 54.087937 C 7.100562 58.423875 5.963844 68.709031 -5.336938 67.818406 " transform="matrix(1,0,0,-1,71.001,71.002)"/>
<path style="fill:none;stroke-width:0.3985;stroke-linecap:butt;stroke-linejoin:miter;stroke:rgb(0%,0%,0%);stroke-opacity:1;stroke-miterlimit:10;" d="M -5.493188 69.798875 C 6.139625 70.712937 7.491187 60.40825 18.331031 55.919969 L 22.452125 54.209031 " transform="matrix(1,0,0,-1,71.001,71.002)"/>
<path style=" stroke:none;fill-rule:nonzero;fill:rgb(100%,100%,100%);fill-opacity:1;" d="M 84.234375 15.875 L 79.898438 14.832031 C 68.871094 12.1875 66.144531 2.207031 55.121094 4.851562 L 54.65625 2.921875 C 66.003906 0.199219 68.949219 10.164062 80.359375 12.902344 L 84.699219 13.945312 "/>
<path style="fill:none;stroke-width:0.3985;stroke-linecap:butt;stroke-linejoin:miter;stroke:rgb(0%,0%,0%);stroke-opacity:1;stroke-miterlimit:10;" d="M 13.233375 55.127 L 8.897437 56.169969 C -2.129906 58.8145 -4.856469 68.794969 -15.879906 66.150437 " transform="matrix(1,0,0,-1,71.001,71.002)"/>
<path style="fill:none;stroke-width:0.3985;stroke-linecap:butt;stroke-linejoin:miter;stroke:rgb(0%,0%,0%);stroke-opacity:1;stroke-miterlimit:10;" d="M -16.34475 68.080125 C -4.997094 70.802781 -2.051781 60.837937 9.358375 58.099656 L 13.698219 57.056687 " transform="matrix(1,0,0,-1,71.001,71.002)"/>
<path style=" stroke:none;fill-rule:nonzero;fill:rgb(100%,100%,100%);fill-opacity:1;" d="M 75.449219 14.484375 L 71 14.132812 C 59.699219 13.242188 55.441406 3.8125 44.96875 8.152344 L 44.207031 6.316406 C 54.988281 1.851562 59.457031 11.234375 71.15625 12.15625 L 75.605469 12.507812 "/>
<path style="fill:none;stroke-width:0.3985;stroke-linecap:butt;stroke-linejoin:miter;stroke:rgb(0%,0%,0%);stroke-opacity:1;stroke-miterlimit:10;" d="M 4.448219 56.517625 L -0.001 56.869187 C -11.301781 57.759812 -15.559594 67.1895 -26.03225 62.849656 " transform="matrix(1,0,0,-1,71.001,71.002)"/>
<path style="fill:none;stroke-width:0.3985;stroke-linecap:butt;stroke-linejoin:miter;stroke:rgb(0%,0%,0%);stroke-opacity:1;stroke-miterlimit:10;" d="M -26.793969 64.685594 C -16.012719 69.150437 -11.543969 59.767625 0.15525 58.84575 L 4.604469 58.494187 " transform="matrix(1,0,0,-1,71.001,71.002)"/>
<path style=" stroke:none;fill-rule:nonzero;fill:rgb(100%,100%,100%);fill-opacity:1;" d="M 66.554688 14.484375 L 62.105469 14.832031 C 50.800781 15.722656 45.125 7.074219 35.457031 12.996094 L 34.417969 11.304688 C 44.367188 5.210938 50.25 13.777344 61.949219 12.855469 L 66.398438 12.507812 "/>
<path style="fill:none;stroke-width:0.3985;stroke-linecap:butt;stroke-linejoin:miter;stroke:rgb(0%,0%,0%);stroke-opacity:1;stroke-miterlimit:10;" d="M -4.446313 56.517625 L -8.895531 56.169969 C -20.200219 55.279344 -25.876 63.927781 -35.543969 58.005906 " transform="matrix(1,0,0,-1,71.001,71.002)"/>
<path style="fill:none;stroke-width:0.3985;stroke-linecap:butt;stroke-linejoin:miter;stroke:rgb(0%,0%,0%);stroke-opacity:1;stroke-miterlimit:10;" d="M -36.583031 59.697312 C -26.633813 65.791062 -20.751 57.224656 -9.051781 58.146531 L -4.602563 58.494187 " transform="matrix(1,0,0,-1,71.001,71.002)"/>
<path style=" stroke:none;fill-rule:nonzero;fill:rgb(100%,100%,100%);fill-opacity:1;" d="M 57.765625 15.875 L 53.425781 16.914062 C 42.402344 19.5625 35.441406 11.910156 26.820312 19.273438 L 25.53125 17.765625 C 34.402344 10.1875 41.554688 17.726562 52.964844 14.984375 L 57.304688 13.945312 "/>
<path style="fill:none;stroke-width:0.3985;stroke-linecap:butt;stroke-linejoin:miter;stroke:rgb(0%,0%,0%);stroke-opacity:1;stroke-miterlimit:10;" d="M -13.235375 55.127 L -17.575219 54.087937 C -28.598656 51.4395 -35.559594 59.091844 -44.180688 51.728562 " transform="matrix(1,0,0,-1,71.001,71.002)"/>
<path style="fill:none;stroke-width:0.3985;stroke-linecap:butt;stroke-linejoin:miter;stroke:rgb(0%,0%,0%);stroke-opacity:1;stroke-miterlimit:10;" d="M -45.46975 53.236375 C -36.598656 60.8145 -29.446313 53.275437 -18.036156 56.017625 L -13.696313 57.056687 " transform="matrix(1,0,0,-1,71.001,71.002)"/>
<path style=" stroke:none;fill-rule:nonzero;fill:rgb(100%,100%,100%);fill-opacity:1;" d="M 49.308594 18.625 L 45.183594 20.332031 C 34.707031 24.671875 26.636719 18.199219 19.273438 26.820312 L 17.761719 25.53125 C 25.339844 16.660156 33.582031 22.988281 44.421875 18.5 L 48.546875 16.792969 "/>
<path style="fill:none;stroke-width:0.3985;stroke-linecap:butt;stroke-linejoin:miter;stroke:rgb(0%,0%,0%);stroke-opacity:1;stroke-miterlimit:10;" d="M -21.692406 52.377 L -25.817406 50.669969 C -36.293969 46.330125 -44.364281 52.802781 -51.727563 44.181687 " transform="matrix(1,0,0,-1,71.001,71.002)"/>
<path style="fill:none;stroke-width:0.3985;stroke-linecap:butt;stroke-linejoin:miter;stroke:rgb(0%,0%,0%);stroke-opacity:1;stroke-miterlimit:10;" d="M -53.239281 45.47075 C -45.661156 54.341844 -37.418969 48.013719 -26.579125 52.502 L -22.454125 54.209031 " transform="matrix(1,0,0,-1,71.001,71.002)"/>
<path style=" stroke:none;fill-rule:nonzero;fill:rgb(100%,100%,100%);fill-opacity:1;" d="M 41.378906 22.664062 L 37.574219 24.992188 C 27.90625 30.917969 18.921875 25.789062 12.996094 35.457031 L 11.304688 34.421875 C 17.402344 24.472656 26.53125 29.433594 36.539062 23.300781 L 40.34375 20.972656 "/>
<path style="fill:none;stroke-width:0.3985;stroke-linecap:butt;stroke-linejoin:miter;stroke:rgb(0%,0%,0%);stroke-opacity:1;stroke-miterlimit:10;" d="M -29.622094 48.337937 L -33.426781 46.009812 C -43.09475 40.084031 -52.079125 45.212937 -58.004906 35.544969 " transform="matrix(1,0,0,-1,71.001,71.002)"/>
<path style="fill:none;stroke-width:0.3985;stroke-linecap:butt;stroke-linejoin:miter;stroke:rgb(0%,0%,0%);stroke-opacity:1;stroke-miterlimit:10;" d="M -59.696313 36.580125 C -53.598656 46.529344 -44.46975 41.568406 -34.461938 47.701219 L -30.65725 50.029344 " transform="matrix(1,0,0,-1,71.001,71.002)"/>
<path style=" stroke:none;fill-rule:nonzero;fill:rgb(100%,100%,100%);fill-opacity:1;" d="M 34.183594 27.894531 L 30.789062 30.789062 C 22.167969 38.152344 12.488281 34.492188 8.148438 44.96875 L 6.316406 44.210938 C 10.78125 33.429688 20.578125 36.902344 29.5 29.28125 L 32.894531 26.386719 "/>
<path style="fill:none;stroke-width:0.3985;stroke-linecap:butt;stroke-linejoin:miter;stroke:rgb(0%,0%,0%);stroke-opacity:1;stroke-miterlimit:10;" d="M -36.817406 43.107469 L -40.211938 40.212937 C -48.833031 32.849656 -58.512719 36.509812 -62.852563 26.03325 " transform="matrix(1,0,0,-1,71.001,71.002)"/>
<path style="fill:none;stroke-width:0.3985;stroke-linecap:butt;stroke-linejoin:miter;stroke:rgb(0%,0%,0%);stroke-opacity:1;stroke-miterlimit:10;" d="M -64.684594 26.791062 C -60.21975 37.572312 -50.422875 34.099656 -41.501 41.72075 L -38.106469 44.615281 " transform="matrix(1,0,0,-1,71.001,71.002)"/>
<path style=" stroke:none;fill-rule:nonzero;fill:rgb(100%,100%,100%);fill-opacity:1;" d="M 27.894531 34.183594 L 24.992188 37.574219 C 17.628906 46.195312 7.496094 44.097656 4.851562 55.121094 L 2.921875 54.65625 C 5.644531 43.3125 15.863281 45.210938 23.484375 36.285156 L 26.382812 32.894531 "/>
<path style="fill:none;stroke-width:0.3985;stroke-linecap:butt;stroke-linejoin:miter;stroke:rgb(0%,0%,0%);stroke-opacity:1;stroke-miterlimit:10;" d="M -43.106469 36.818406 L -46.008813 33.427781 C -53.372094 24.806687 -63.504906 26.904344 -66.149438 15.880906 " transform="matrix(1,0,0,-1,71.001,71.002)"/>
<path style="fill:none;stroke-width:0.3985;stroke-linecap:butt;stroke-linejoin:miter;stroke:rgb(0%,0%,0%);stroke-opacity:1;stroke-miterlimit:10;" d="M -68.079125 16.34575 C -65.356469 27.6895 -55.137719 25.791062 -47.516625 34.716844 L -44.618188 38.107469 " transform="matrix(1,0,0,-1,71.001,71.002)"/>
<path style=" stroke:none;fill-rule:nonzero;fill:rgb(100%,100%,100%);fill-opacity:1;" d="M 22.664062 41.382812 L 20.332031 45.183594 C 14.40625 54.851562 4.070312 54.363281 3.183594 65.664062 L 1.203125 65.507812 C 2.117188 53.878906 12.507812 54.152344 18.640625 44.148438 L 20.972656 40.34375 "/>
<path style="fill:none;stroke-width:0.3985;stroke-linecap:butt;stroke-linejoin:miter;stroke:rgb(0%,0%,0%);stroke-opacity:1;stroke-miterlimit:10;" d="M -48.336938 29.619187 L -50.668969 25.818406 C -56.59475 16.150437 -66.930688 16.638719 -67.817406 5.337937 " transform="matrix(1,0,0,-1,71.001,71.002)"/>
<path style="fill:none;stroke-width:0.3985;stroke-linecap:butt;stroke-linejoin:miter;stroke:rgb(0%,0%,0%);stroke-opacity:1;stroke-miterlimit:10;" d="M -69.797875 5.494187 C -68.883813 17.123094 -58.493188 16.849656 -52.360375 26.853562 L -50.028344 30.65825 " transform="matrix(1,0,0,-1,71.001,71.002)"/>
<path style=" stroke:none;fill-rule:nonzero;fill:rgb(100%,100%,100%);fill-opacity:1;" d="M 18.625 49.308594 L 16.914062 53.429688 C 12.574219 63.902344 2.292969 65.035156 3.183594 76.339844 L 1.203125 76.496094 C 0.289062 64.863281 10.589844 63.511719 15.082031 52.667969 L 16.792969 48.546875 "/>
<path style="fill:none;stroke-width:0.3985;stroke-linecap:butt;stroke-linejoin:miter;stroke:rgb(0%,0%,0%);stroke-opacity:1;stroke-miterlimit:10;" d="M -52.376 21.693406 L -54.086938 17.572312 C -58.426781 7.099656 -68.708031 5.966844 -67.817406 -5.337844 " transform="matrix(1,0,0,-1,71.001,71.002)"/>
<path style="fill:none;stroke-width:0.3985;stroke-linecap:butt;stroke-linejoin:miter;stroke:rgb(0%,0%,0%);stroke-opacity:1;stroke-miterlimit:10;" d="M -69.797875 -5.494094 C -70.711938 6.138719 -60.411156 7.490281 -55.918969 18.334031 L -54.208031 22.455125 " transform="matrix(1,0,0,-1,71.001,71.002)"/>
<path style=" stroke:none;fill-rule:nonzero;fill:rgb(100%,100%,100%);fill-opacity:1;" d="M 15.875 57.769531 L 14.832031 62.105469 C 12.183594 73.128906 2.203125 75.859375 4.851562 86.882812 L 2.921875 87.347656 C 0.199219 76 10.164062 73.054688 12.902344 61.644531 L 13.945312 57.304688 "/>
<path style="fill:none;stroke-width:0.3985;stroke-linecap:butt;stroke-linejoin:miter;stroke:rgb(0%,0%,0%);stroke-opacity:1;stroke-miterlimit:10;" d="M -55.126 13.232469 L -56.168969 8.896531 C -58.817406 -2.126906 -68.797875 -4.857375 -66.149438 -15.880813 " transform="matrix(1,0,0,-1,71.001,71.002)"/>
<path style="fill:none;stroke-width:0.3985;stroke-linecap:butt;stroke-linejoin:miter;stroke:rgb(0%,0%,0%);stroke-opacity:1;stroke-miterlimit:10;" d="M -68.079125 -16.345656 C -70.801781 -4.998 -60.836938 -2.052688 -58.098656 9.357469 L -57.055688 13.697312 " transform="matrix(1,0,0,-1,71.001,71.002)"/>
<path style=" stroke:none;fill-rule:nonzero;fill:rgb(100%,100%,100%);fill-opacity:1;" d="M 14.484375 66.554688 L 14.132812 71.003906 C 13.242188 82.304688 3.8125 86.558594 8.148438 97.035156 L 6.316406 97.792969 C 1.851562 87.015625 11.234375 82.546875 12.152344 70.847656 L 12.507812 66.398438 "/>
<path style="fill:none;stroke-width:0.3985;stroke-linecap:butt;stroke-linejoin:miter;stroke:rgb(0%,0%,0%);stroke-opacity:1;stroke-miterlimit:10;" d="M -56.516625 4.447312 L -56.868188 -0.00190625 C -57.758813 -11.302688 -67.1885 -15.556594 -62.852563 -26.033156 " transform="matrix(1,0,0,-1,71.001,71.002)"/>
<path style="fill:none;stroke-width:0.3985;stroke-linecap:butt;stroke-linejoin:miter;stroke:rgb(0%,0%,0%);stroke-opacity:1;stroke-miterlimit:10;" d="M -64.684594 -26.790969 C -69.149438 -16.013625 -59.766625 -11.544875 -58.848656 0.154344 L -58.493188 4.603562 " transform="matrix(1,0,0,-1,71.001,71.002)"/>
<path style=" stroke:none;fill-rule:nonzero;fill:rgb(100%,100%,100%);fill-opacity:1;" d="M 14.484375 75.449219 L 14.832031 79.898438 C 15.722656 91.199219 7.074219 96.878906 12.996094 106.546875 L 11.304688 107.582031 C 5.207031 97.636719 13.773438 91.75 12.855469 80.054688 L 12.507812 75.605469 "/>
<path style="fill:none;stroke-width:0.3985;stroke-linecap:butt;stroke-linejoin:miter;stroke:rgb(0%,0%,0%);stroke-opacity:1;stroke-miterlimit:10;" d="M -56.516625 -4.447219 L -56.168969 -8.896438 C -55.278344 -20.197219 -63.926781 -25.876906 -58.004906 -35.544875 " transform="matrix(1,0,0,-1,71.001,71.002)"/>
<path style="fill:none;stroke-width:0.3985;stroke-linecap:butt;stroke-linejoin:miter;stroke:rgb(0%,0%,0%);stroke-opacity:1;stroke-miterlimit:10;" d="M -59.696313 -36.580031 C -65.793969 -26.634719 -57.227563 -20.748 -58.145531 -9.052688 L -58.493188 -4.603469 " transform="matrix(1,0,0,-1,71.001,71.002)"/>
<path style=" stroke:none;fill-rule:nonzero;fill:rgb(100%,100%,100%);fill-opacity:1;" d="M 15.875 84.234375 L 16.914062 88.574219 C 19.5625 99.601562 11.910156 106.5625 19.273438 115.183594 L 17.761719 116.472656 C 10.1875 107.601562 17.722656 100.449219 14.984375 89.039062 L 13.945312 84.699219 "/>
<path style="fill:none;stroke-width:0.3985;stroke-linecap:butt;stroke-linejoin:miter;stroke:rgb(0%,0%,0%);stroke-opacity:1;stroke-miterlimit:10;" d="M -55.126 -13.232375 L -54.086938 -17.572219 C -51.4385 -28.599563 -59.090844 -35.5605 -51.727563 -44.181594 " transform="matrix(1,0,0,-1,71.001,71.002)"/>
<path style="fill:none;stroke-width:0.3985;stroke-linecap:butt;stroke-linejoin:miter;stroke:rgb(0%,0%,0%);stroke-opacity:1;stroke-miterlimit:10;" d="M -53.239281 -45.470656 C -60.8135 -36.599563 -53.278344 -29.447219 -56.016625 -18.037063 L -57.055688 -13.697219 " transform="matrix(1,0,0,-1,71.001,71.002)"/>
<path style=" stroke:none;fill-rule:nonzero;fill:rgb(100%,100%,100%);fill-opacity:1;" d="M 18.625 92.695312 L 20.332031 96.820312 C 24.667969 107.296875 18.199219 115.367188 26.820312 122.730469 L 25.53125 124.238281 C 16.660156 116.660156 22.988281 108.421875 18.496094 97.578125 L 16.792969 93.457031 "/>
<path style="fill:none;stroke-width:0.3985;stroke-linecap:butt;stroke-linejoin:miter;stroke:rgb(0%,0%,0%);stroke-opacity:1;stroke-miterlimit:10;" d="M -52.376 -21.693313 L -50.668969 -25.818313 C -46.333031 -36.294875 -52.801781 -44.365188 -44.180688 -51.728469 " transform="matrix(1,0,0,-1,71.001,71.002)"/>
<path style="fill:none;stroke-width:0.3985;stroke-linecap:butt;stroke-linejoin:miter;stroke:rgb(0%,0%,0%);stroke-opacity:1;stroke-miterlimit:10;" d="M -45.46975 -53.236281 C -54.340844 -45.658156 -48.012719 -37.419875 -52.504906 -26.576125 L -54.208031 -22.455031 " transform="matrix(1,0,0,-1,71.001,71.002)"/>
<path style=" stroke:none;fill-rule:nonzero;fill:rgb(100%,100%,100%);fill-opacity:1;" d="M 22.664062 100.625 L 24.992188 104.429688 C 30.917969 114.097656 25.789062 123.082031 35.457031 129.007812 L 34.417969 130.699219 C 24.472656 124.601562 29.433594 115.46875 23.300781 105.464844 L 20.972656 101.660156 "/>
<path style="fill:none;stroke-width:0.3985;stroke-linecap:butt;stroke-linejoin:miter;stroke:rgb(0%,0%,0%);stroke-opacity:1;stroke-miterlimit:10;" d="M -48.336938 -29.623 L -46.008813 -33.427688 C -40.083031 -43.095656 -45.211938 -52.080031 -35.543969 -58.005813 " transform="matrix(1,0,0,-1,71.001,71.002)"/>
<path style="fill:none;stroke-width:0.3985;stroke-linecap:butt;stroke-linejoin:miter;stroke:rgb(0%,0%,0%);stroke-opacity:1;stroke-miterlimit:10;" d="M -36.583031 -59.697219 C -46.528344 -53.599563 -41.567406 -44.46675 -47.700219 -34.462844 L -50.028344 -30.658156 " transform="matrix(1,0,0,-1,71.001,71.002)"/>
<path style=" stroke:none;fill-rule:nonzero;fill:rgb(100%,100%,100%);fill-opacity:1;" d="M 27.894531 107.820312 L 30.789062 111.214844 C 38.152344 119.835938 34.492188 129.515625 44.96875 133.851562 L 44.207031 135.6875 C 33.429688 131.222656 36.902344 121.425781 29.28125 112.503906 L 26.382812 109.109375 "/>
<path style="fill:none;stroke-width:0.3985;stroke-linecap:butt;stroke-linejoin:miter;stroke:rgb(0%,0%,0%);stroke-opacity:1;stroke-miterlimit:10;" d="M -43.106469 -36.818313 L -40.211938 -40.212844 C -32.848656 -48.833938 -36.508813 -58.513625 -26.03225 -62.849563 " transform="matrix(1,0,0,-1,71.001,71.002)"/>
<path style="fill:none;stroke-width:0.3985;stroke-linecap:butt;stroke-linejoin:miter;stroke:rgb(0%,0%,0%);stroke-opacity:1;stroke-miterlimit:10;" d="M -26.793969 -64.6855 C -37.571313 -60.220656 -34.098656 -50.423781 -41.71975 -41.501906 L -44.618188 -38.107375 " transform="matrix(1,0,0,-1,71.001,71.002)"/>
<path style=" stroke:none;fill-rule:nonzero;fill:rgb(100%,100%,100%);fill-opacity:1;" d="M 34.183594 114.109375 L 37.574219 117.011719 C 46.195312 124.375 44.097656 134.503906 55.121094 137.152344 L 54.65625 139.082031 C 43.3125 136.359375 45.207031 126.140625 36.285156 118.519531 L 32.894531 115.617188 "/>
<g clip-path="url(#clip1)" clip-rule="nonzero">
<path style="fill:none;stroke-width:0.3985;stroke-linecap:butt;stroke-linejoin:miter;stroke:rgb(0%,0%,0%);stroke-opacity:1;stroke-miterlimit:10;" d="M -36.817406 -43.107375 L -33.426781 -46.009719 C -24.805688 -53.373 -26.903344 -63.501906 -15.879906 -66.150344 " transform="matrix(1,0,0,-1,71.001,71.002)"/>
</g>
<g clip-path="url(#clip2)" clip-rule="nonzero">
<path style="fill:none;stroke-width:0.3985;stroke-linecap:butt;stroke-linejoin:miter;stroke:rgb(0%,0%,0%);stroke-opacity:1;stroke-miterlimit:10;" d="M -16.34475 -68.080031 C -27.6885 -65.357375 -25.793969 -55.138625 -34.715844 -47.517531 L -38.106469 -44.615188 " transform="matrix(1,0,0,-1,71.001,71.002)"/>
</g>
<path style=" stroke:none;fill-rule:nonzero;fill:rgb(100%,100%,100%);fill-opacity:1;" d="M 41.378906 119.339844 L 45.183594 121.671875 C 54.851562 127.597656 54.359375 137.933594 65.664062 138.820312 L 65.507812 140.800781 C 53.875 139.882812 54.152344 129.496094 44.144531 123.363281 L 40.34375 121.03125 "/>
<g clip-path="url(#clip3)" clip-rule="nonzero">
<path style="fill:none;stroke-width:0.3985;stroke-linecap:butt;stroke-linejoin:miter;stroke:rgb(0%,0%,0%);stroke-opacity:1;stroke-miterlimit:10;" d="M -29.622094 -48.337844 L -25.817406 -50.669875 C -16.149438 -56.595656 -16.641625 -66.931594 -5.336938 -67.818313 " transform="matrix(1,0,0,-1,71.001,71.002)"/>
</g>
<g clip-path="url(#clip4)" clip-rule="nonzero">
<path style="fill:none;stroke-width:0.3985;stroke-linecap:butt;stroke-linejoin:miter;stroke:rgb(0%,0%,0%);stroke-opacity:1;stroke-miterlimit:10;" d="M -5.493188 -69.798781 C -17.126 -68.880813 -16.848656 -58.494094 -26.856469 -52.361281 L -30.65725 -50.02925 " transform="matrix(1,0,0,-1,71.001,71.002)"/>
</g>
<path style=" stroke:none;fill-rule:nonzero;fill:rgb(100%,100%,100%);fill-opacity:1;" d="M 49.308594 123.378906 L 53.425781 125.089844 C 63.902344 129.425781 65.035156 139.710938 76.339844 138.820312 L 76.496094 140.800781 C 64.863281 141.714844 63.507812 131.410156 52.667969 126.921875 L 48.546875 125.210938 "/>
<g clip-path="url(#clip5)" clip-rule="nonzero">
<path style="fill:none;stroke-width:0.3985;stroke-linecap:butt;stroke-linejoin:miter;stroke:rgb(0%,0%,0%);stroke-opacity:1;stroke-miterlimit:10;" d="M -21.692406 -52.376906 L -17.575219 -54.087844 C -7.098656 -58.423781 -5.965844 -68.708938 5.338844 -67.818313 " transform="matrix(1,0,0,-1,71.001,71.002)"/>
</g>
<g clip-path="url(#clip6)" clip-rule="nonzero">
<path style="fill:none;stroke-width:0.3985;stroke-linecap:butt;stroke-linejoin:miter;stroke:rgb(0%,0%,0%);stroke-opacity:1;stroke-miterlimit:10;" d="M 5.495094 -69.798781 C -6.137719 -70.712844 -7.493188 -60.408156 -18.333031 -55.919875 L -22.454125 -54.208938 " transform="matrix(1,0,0,-1,71.001,71.002)"/>
</g>
<path style=" stroke:none;fill-rule:nonzero;fill:rgb(100%,100%,100%);fill-opacity:1;" d="M 57.765625 126.128906 L 62.105469 127.171875 C 73.128906 129.816406 75.855469 139.796875 86.882812 137.152344 L 87.34375 139.082031 C 76 141.804688 73.050781 131.839844 61.640625 129.101562 L 57.304688 128.058594 "/>
<g clip-path="url(#clip7)" clip-rule="nonzero">
<path style="fill:none;stroke-width:0.3985;stroke-linecap:butt;stroke-linejoin:miter;stroke:rgb(0%,0%,0%);stroke-opacity:1;stroke-miterlimit:10;" d="M -13.235375 -55.126906 L -8.895531 -56.169875 C 2.127906 -58.814406 4.854469 -68.794875 15.881812 -66.150344 " transform="matrix(1,0,0,-1,71.001,71.002)"/>
</g>
<g clip-path="url(#clip8)" clip-rule="nonzero">
<path style="fill:none;stroke-width:0.3985;stroke-linecap:butt;stroke-linejoin:miter;stroke:rgb(0%,0%,0%);stroke-opacity:1;stroke-miterlimit:10;" d="M 16.34275 -68.080031 C 4.999 -70.802688 2.049781 -60.837844 -9.360375 -58.099563 L -13.696313 -57.056594 " transform="matrix(1,0,0,-1,71.001,71.002)"/>
</g>
<path style=" stroke:none;fill-rule:nonzero;fill:rgb(100%,100%,100%);fill-opacity:1;" d="M 66.554688 127.519531 L 71 127.871094 C 82.304688 128.761719 86.558594 138.191406 97.035156 133.851562 L 97.792969 135.6875 C 87.011719 140.152344 82.542969 130.769531 70.847656 129.847656 L 66.398438 129.496094 "/>
<path style="fill:none;stroke-width:0.3985;stroke-linecap:butt;stroke-linejoin:miter;stroke:rgb(0%,0%,0%);stroke-opacity:1;stroke-miterlimit:10;" d="M -4.446313 -56.517531 L -0.001 -56.869094 C 11.303687 -57.759719 15.557594 -67.189406 26.034156 -62.849563 " transform="matrix(1,0,0,-1,71.001,71.002)"/>
<g clip-path="url(#clip9)" clip-rule="nonzero">
<path style="fill:none;stroke-width:0.3985;stroke-linecap:butt;stroke-linejoin:miter;stroke:rgb(0%,0%,0%);stroke-opacity:1;stroke-miterlimit:10;" d="M 26.791969 -64.6855 C 16.010719 -69.150344 11.541969 -59.767531 -0.153344 -58.845656 L -4.602563 -58.494094 " transform="matrix(1,0,0,-1,71.001,71.002)"/>
</g>
<path style=" stroke:none;fill-rule:nonzero;fill:rgb(100%,100%,100%);fill-opacity:1;" d="M 75.449219 127.519531 L 79.898438 127.171875 C 91.199219 126.28125 96.878906 134.929688 106.546875 129.007812 L 107.582031 130.699219 C 97.632812 136.792969 91.75 128.226562 80.050781 129.148438 L 75.605469 129.496094 "/>
<path style="fill:none;stroke-width:0.3985;stroke-linecap:butt;stroke-linejoin:miter;stroke:rgb(0%,0%,0%);stroke-opacity:1;stroke-miterlimit:10;" d="M 4.448219 -56.517531 L 8.897437 -56.169875 C 20.198219 -55.27925 25.877906 -63.927688 35.545875 -58.005813 " transform="matrix(1,0,0,-1,71.001,71.002)"/>
<path style="fill:none;stroke-width:0.3985;stroke-linecap:butt;stroke-linejoin:miter;stroke:rgb(0%,0%,0%);stroke-opacity:1;stroke-miterlimit:10;" d="M 36.581031 -59.697219 C 26.631812 -65.790969 20.749 -57.224563 9.049781 -58.146438 L 4.604469 -58.494094 " transform="matrix(1,0,0,-1,71.001,71.002)"/>
<path style=" stroke:none;fill-rule:nonzero;fill:rgb(100%,100%,100%);fill-opacity:1;" d="M 84.234375 126.128906 L 88.574219 125.089844 C 99.597656 122.441406 106.5625 130.09375 115.183594 122.730469 L 116.472656 124.238281 C 107.597656 131.816406 100.449219 124.277344 89.039062 127.019531 L 84.699219 128.058594 "/>
<path style="fill:none;stroke-width:0.3985;stroke-linecap:butt;stroke-linejoin:miter;stroke:rgb(0%,0%,0%);stroke-opacity:1;stroke-miterlimit:10;" d="M 13.233375 -55.126906 L 17.573219 -54.087844 C 28.596656 -51.439406 35.5615 -59.09175 44.182594 -51.728469 " transform="matrix(1,0,0,-1,71.001,71.002)"/>
<path style="fill:none;stroke-width:0.3985;stroke-linecap:butt;stroke-linejoin:miter;stroke:rgb(0%,0%,0%);stroke-opacity:1;stroke-miterlimit:10;" d="M 45.471656 -53.236281 C 36.596656 -60.814406 29.448219 -53.275344 18.038062 -56.017531 L 13.698219 -57.056594 " transform="matrix(1,0,0,-1,71.001,71.002)"/>
<path style=" stroke:none;fill-rule:nonzero;fill:rgb(100%,100%,100%);fill-opacity:1;" d="M 92.695312 123.378906 L 96.820312 121.671875 C 107.292969 117.332031 115.367188 123.804688 122.730469 115.183594 L 124.238281 116.472656 C 116.660156 125.34375 108.417969 119.015625 97.578125 123.503906 L 93.453125 125.210938 "/>
<path style="fill:none;stroke-width:0.3985;stroke-linecap:butt;stroke-linejoin:miter;stroke:rgb(0%,0%,0%);stroke-opacity:1;stroke-miterlimit:10;" d="M 21.694312 -52.376906 L 25.819312 -50.669875 C 36.291969 -46.330031 44.366187 -52.802688 51.729469 -44.181594 " transform="matrix(1,0,0,-1,71.001,71.002)"/>
<path style="fill:none;stroke-width:0.3985;stroke-linecap:butt;stroke-linejoin:miter;stroke:rgb(0%,0%,0%);stroke-opacity:1;stroke-miterlimit:10;" d="M 53.237281 -45.470656 C 45.659156 -54.34175 37.416969 -48.013625 26.577125 -52.501906 L 22.452125 -54.208938 " transform="matrix(1,0,0,-1,71.001,71.002)"/>
<path style=" stroke:none;fill-rule:nonzero;fill:rgb(100%,100%,100%);fill-opacity:1;" d="M 100.621094 119.339844 L 104.425781 117.011719 C 114.09375 111.085938 123.082031 116.214844 129.003906 106.546875 L 130.695312 107.582031 C 124.601562 117.53125 115.46875 112.570312 105.464844 118.703125 L 101.660156 121.03125 "/>
<path style="fill:none;stroke-width:0.3985;stroke-linecap:butt;stroke-linejoin:miter;stroke:rgb(0%,0%,0%);stroke-opacity:1;stroke-miterlimit:10;" d="M 29.620094 -48.337844 L 33.424781 -46.009719 C 43.09275 -40.083938 52.081031 -45.212844 58.002906 -35.544875 " transform="matrix(1,0,0,-1,71.001,71.002)"/>
<path style="fill:none;stroke-width:0.3985;stroke-linecap:butt;stroke-linejoin:miter;stroke:rgb(0%,0%,0%);stroke-opacity:1;stroke-miterlimit:10;" d="M 59.694312 -36.580031 C 53.600562 -46.52925 44.46775 -41.568313 34.463844 -47.701125 L 30.659156 -50.02925 " transform="matrix(1,0,0,-1,71.001,71.002)"/>
<path style=" stroke:none;fill-rule:nonzero;fill:rgb(100%,100%,100%);fill-opacity:1;" d="M 107.820312 114.109375 L 111.214844 111.214844 C 119.835938 103.851562 129.511719 107.511719 133.851562 97.035156 L 135.683594 97.792969 C 131.21875 108.574219 121.425781 105.101562 112.503906 112.722656 L 109.109375 115.617188 "/>
<path style="fill:none;stroke-width:0.3985;stroke-linecap:butt;stroke-linejoin:miter;stroke:rgb(0%,0%,0%);stroke-opacity:1;stroke-miterlimit:10;" d="M 36.819312 -43.107375 L 40.213844 -40.212844 C 48.834937 -32.849563 58.510719 -36.509719 62.850562 -26.033156 " transform="matrix(1,0,0,-1,71.001,71.002)"/>
<path style="fill:none;stroke-width:0.3985;stroke-linecap:butt;stroke-linejoin:miter;stroke:rgb(0%,0%,0%);stroke-opacity:1;stroke-miterlimit:10;" d="M 64.682594 -26.790969 C 60.21775 -37.572219 50.424781 -34.099563 41.502906 -41.720656 L 38.108375 -44.615188 " transform="matrix(1,0,0,-1,71.001,71.002)"/>
<path style=" stroke:none;fill-rule:nonzero;fill:rgb(100%,100%,100%);fill-opacity:1;" d="M 114.109375 107.820312 L 117.007812 104.429688 C 124.371094 95.808594 134.503906 97.90625 137.152344 86.882812 L 139.082031 87.347656 C 136.355469 98.691406 126.140625 96.792969 118.519531 105.71875 L 115.617188 109.109375 "/>
<g clip-path="url(#clip10)" clip-rule="nonzero">
<path style="fill:none;stroke-width:0.3985;stroke-linecap:butt;stroke-linejoin:miter;stroke:rgb(0%,0%,0%);stroke-opacity:1;stroke-miterlimit:10;" d="M 43.108375 -36.818313 L 46.006812 -33.427688 C 53.370094 -24.806594 63.502906 -26.90425 66.151344 -15.880813 " transform="matrix(1,0,0,-1,71.001,71.002)"/>
</g>
<g clip-path="url(#clip11)" clip-rule="nonzero">
<path style="fill:none;stroke-width:0.3985;stroke-linecap:butt;stroke-linejoin:miter;stroke:rgb(0%,0%,0%);stroke-opacity:1;stroke-miterlimit:10;" d="M 68.081031 -16.345656 C 65.354469 -27.689406 55.139625 -25.790969 47.518531 -34.71675 L 44.616187 -38.107375 " transform="matrix(1,0,0,-1,71.001,71.002)"/>
</g>
<path style=" stroke:none;fill-rule:nonzero;fill:rgb(100%,100%,100%);fill-opacity:1;" d="M 119.339844 100.625 L 121.671875 96.820312 C 127.59375 87.152344 137.929688 87.644531 138.820312 76.339844 L 140.796875 76.496094 C 139.882812 88.128906 129.496094 87.851562 123.363281 97.855469 L 121.03125 101.660156 "/>
<g clip-path="url(#clip12)" clip-rule="nonzero">
<path style="fill:none;stroke-width:0.3985;stroke-linecap:butt;stroke-linejoin:miter;stroke:rgb(0%,0%,0%);stroke-opacity:1;stroke-miterlimit:10;" d="M 48.338844 -29.623 L 50.670875 -25.818313 C 56.59275 -16.150344 66.928687 -16.642531 67.819312 -5.337844 " transform="matrix(1,0,0,-1,71.001,71.002)"/>
</g>
<g clip-path="url(#clip13)" clip-rule="nonzero">
<path style="fill:none;stroke-width:0.3985;stroke-linecap:butt;stroke-linejoin:miter;stroke:rgb(0%,0%,0%);stroke-opacity:1;stroke-miterlimit:10;" d="M 69.795875 -5.494094 C 68.881812 -17.126906 58.495094 -16.849563 52.362281 -26.853469 L 50.03025 -30.658156 " transform="matrix(1,0,0,-1,71.001,71.002)"/>
</g>
<path style=" stroke:none;fill-rule:nonzero;fill:rgb(100%,100%,100%);fill-opacity:1;" d="M 123.378906 92.695312 L 125.085938 88.574219 C 129.425781 78.101562 139.710938 76.96875 138.820312 65.664062 L 140.796875 65.507812 C 141.714844 77.140625 131.410156 78.492188 126.921875 89.335938 L 125.210938 93.457031 "/>
<g clip-path="url(#clip14)" clip-rule="nonzero">
<path style="fill:none;stroke-width:0.3985;stroke-linecap:butt;stroke-linejoin:miter;stroke:rgb(0%,0%,0%);stroke-opacity:1;stroke-miterlimit:10;" d="M 52.377906 -21.693313 L 54.084937 -17.572219 C 58.424781 -7.099563 68.709937 -5.96675 67.819312 5.337937 " transform="matrix(1,0,0,-1,71.001,71.002)"/>
</g>
<g clip-path="url(#clip15)" clip-rule="nonzero">
<path style="fill:none;stroke-width:0.3985;stroke-linecap:butt;stroke-linejoin:miter;stroke:rgb(0%,0%,0%);stroke-opacity:1;stroke-miterlimit:10;" d="M 69.795875 5.494187 C 70.713844 -6.138625 60.409156 -7.490188 55.920875 -18.333938 L 54.209937 -22.455031 " transform="matrix(1,0,0,-1,71.001,71.002)"/>
</g>
<path style=" stroke:none;fill-rule:nonzero;fill:rgb(100%,100%,100%);fill-opacity:1;" d="M 126.125 84.234375 L 127.171875 79.898438 C 129.816406 68.875 139.796875 66.144531 137.152344 55.121094 L 139.082031 54.65625 C 141.804688 66.003906 131.839844 68.949219 129.097656 80.359375 L 128.054688 84.699219 "/>
<g clip-path="url(#clip16)" clip-rule="nonzero">
<path style="fill:none;stroke-width:0.3985;stroke-linecap:butt;stroke-linejoin:miter;stroke:rgb(0%,0%,0%);stroke-opacity:1;stroke-miterlimit:10;" d="M 55.124 -13.232375 L 56.170875 -8.896438 C 58.815406 2.127 68.795875 4.857469 66.151344 15.880906 " transform="matrix(1,0,0,-1,71.001,71.002)"/>
</g>
<g clip-path="url(#clip17)" clip-rule="nonzero">
<path style="fill:none;stroke-width:0.3985;stroke-linecap:butt;stroke-linejoin:miter;stroke:rgb(0%,0%,0%);stroke-opacity:1;stroke-miterlimit:10;" d="M 68.081031 16.34575 C 70.803687 4.998094 60.838844 2.052781 58.096656 -9.357375 L 57.053687 -13.697219 " transform="matrix(1,0,0,-1,71.001,71.002)"/>
</g>
<path style=" stroke:none;fill-rule:nonzero;fill:rgb(100%,100%,100%);fill-opacity:1;" d="M 127.515625 75.449219 L 127.871094 71.003906 C 128.757812 59.699219 138.191406 55.445312 133.851562 44.96875 L 135.683594 44.210938 C 140.148438 54.988281 130.769531 59.457031 129.847656 71.15625 L 129.496094 75.605469 "/>
<path style="fill:none;stroke-width:0.3985;stroke-linecap:butt;stroke-linejoin:miter;stroke:rgb(0%,0%,0%);stroke-opacity:1;stroke-miterlimit:10;" d="M 56.514625 -4.447219 L 56.870094 -0.00190625 C 57.756812 11.302781 67.190406 15.556687 62.850562 26.03325 " transform="matrix(1,0,0,-1,71.001,71.002)"/>
<g clip-path="url(#clip18)" clip-rule="nonzero">
<path style="fill:none;stroke-width:0.3985;stroke-linecap:butt;stroke-linejoin:miter;stroke:rgb(0%,0%,0%);stroke-opacity:1;stroke-miterlimit:10;" d="M 64.682594 26.791062 C 69.147437 16.013719 59.768531 11.544969 58.846656 -0.15425 L 58.495094 -4.603469 " transform="matrix(1,0,0,-1,71.001,71.002)"/>
</g>
<path style=" stroke:none;fill-rule:nonzero;fill:rgb(100%,100%,100%);fill-opacity:1;" d="M 127.515625 66.554688 L 127.871094 71.003906 C 128.757812 82.304688 138.191406 86.558594 133.851562 97.035156 L 135.683594 97.792969 C 140.148438 87.015625 130.769531 82.546875 129.847656 70.847656 L 129.496094 66.398438 "/>
<path style="fill:none;stroke-width:0.3985;stroke-linecap:butt;stroke-linejoin:miter;stroke:rgb(0%,0%,0%);stroke-opacity:1;stroke-miterlimit:10;" d="M 56.514625 4.447312 L 56.870094 -0.00190625 C 57.756812 -11.302688 67.190406 -15.556594 62.850562 -26.033156 " transform="matrix(1,0,0,-1,71.001,71.002)"/>
<g clip-path="url(#clip19)" clip-rule="nonzero">
<path style="fill:none;stroke-width:0.3985;stroke-linecap:butt;stroke-linejoin:miter;stroke:rgb(0%,0%,0%);stroke-opacity:1;stroke-miterlimit:10;" d="M 58.495094 4.603562 L 58.846656 0.154344 C 59.768531 -11.544875 69.147437 -16.013625 64.682594 -26.790969 " transform="matrix(1,0,0,-1,71.001,71.002)"/>
</g>
<path style=" stroke:none;fill-rule:nonzero;fill:rgb(100%,100%,100%);fill-opacity:1;" d="M 126.125 57.769531 L 127.171875 62.105469 C 129.816406 73.128906 139.796875 75.859375 137.152344 86.882812 L 139.082031 87.347656 C 141.804688 76 131.839844 73.054688 129.097656 61.644531 L 128.054688 57.304688 "/>
<g clip-path="url(#clip20)" clip-rule="nonzero">
<path style="fill:none;stroke-width:0.3985;stroke-linecap:butt;stroke-linejoin:miter;stroke:rgb(0%,0%,0%);stroke-opacity:1;stroke-miterlimit:10;" d="M 55.124 13.232469 L 56.170875 8.896531 C 58.815406 -2.126906 68.795875 -4.857375 66.151344 -15.880813 " transform="matrix(1,0,0,-1,71.001,71.002)"/>
</g>
<g clip-path="url(#clip21)" clip-rule="nonzero">
<path style="fill:none;stroke-width:0.3985;stroke-linecap:butt;stroke-linejoin:miter;stroke:rgb(0%,0%,0%);stroke-opacity:1;stroke-miterlimit:10;" d="M 57.053687 13.697312 L 58.096656 9.357469 C 60.838844 -2.052688 70.803687 -4.998 68.081031 -16.345656 " transform="matrix(1,0,0,-1,71.001,71.002)"/>
</g>
<path style=" stroke:none;fill-rule:nonzero;fill:rgb(100%,100%,100%);fill-opacity:1;" d="M 123.378906 49.308594 L 125.085938 53.429688 C 129.425781 63.902344 139.710938 65.035156 138.820312 76.339844 L 140.796875 76.496094 C 141.714844 64.863281 131.410156 63.511719 126.921875 52.667969 L 125.210938 48.546875 "/>
<g clip-path="url(#clip22)" clip-rule="nonzero">
<path style="fill:none;stroke-width:0.3985;stroke-linecap:butt;stroke-linejoin:miter;stroke:rgb(0%,0%,0%);stroke-opacity:1;stroke-miterlimit:10;" d="M 52.377906 21.693406 L 54.084937 17.572312 C 58.424781 7.099656 68.709937 5.966844 67.819312 -5.337844 " transform="matrix(1,0,0,-1,71.001,71.002)"/>
</g>
<g clip-path="url(#clip23)" clip-rule="nonzero">
<path style="fill:none;stroke-width:0.3985;stroke-linecap:butt;stroke-linejoin:miter;stroke:rgb(0%,0%,0%);stroke-opacity:1;stroke-miterlimit:10;" d="M 54.209937 22.455125 L 55.920875 18.334031 C 60.409156 7.490281 70.713844 6.138719 69.795875 -5.494094 " transform="matrix(1,0,0,-1,71.001,71.002)"/>
</g>
<path style=" stroke:none;fill-rule:nonzero;fill:rgb(100%,100%,100%);fill-opacity:1;" d="M 119.339844 41.382812 L 121.671875 45.183594 C 127.59375 54.851562 137.929688 54.363281 138.820312 65.664062 L 140.796875 65.507812 C 139.882812 53.878906 129.496094 54.152344 123.363281 44.148438 L 121.03125 40.34375 "/>
<g clip-path="url(#clip24)" clip-rule="nonzero">
<path style="fill:none;stroke-width:0.3985;stroke-linecap:butt;stroke-linejoin:miter;stroke:rgb(0%,0%,0%);stroke-opacity:1;stroke-miterlimit:10;" d="M 48.338844 29.619187 L 50.670875 25.818406 C 56.59275 16.150437 66.928687 16.638719 67.819312 5.337937 " transform="matrix(1,0,0,-1,71.001,71.002)"/>
</g>
<g clip-path="url(#clip25)" clip-rule="nonzero">
<path style="fill:none;stroke-width:0.3985;stroke-linecap:butt;stroke-linejoin:miter;stroke:rgb(0%,0%,0%);stroke-opacity:1;stroke-miterlimit:10;" d="M 50.03025 30.65825 L 52.362281 26.853562 C 58.495094 16.849656 68.881812 17.123094 69.795875 5.494187 " transform="matrix(1,0,0,-1,71.001,71.002)"/>
</g>
<path style=" stroke:none;fill-rule:nonzero;fill:rgb(100%,100%,100%);fill-opacity:1;" d="M 114.109375 34.183594 L 117.007812 37.574219 C 124.371094 46.195312 134.503906 44.097656 137.152344 55.121094 L 139.082031 54.65625 C 136.355469 43.3125 126.140625 45.210938 118.519531 36.285156 L 115.617188 32.894531 "/>
<g clip-path="url(#clip26)" clip-rule="nonzero">
<path style="fill:none;stroke-width:0.3985;stroke-linecap:butt;stroke-linejoin:miter;stroke:rgb(0%,0%,0%);stroke-opacity:1;stroke-miterlimit:10;" d="M 43.108375 36.818406 L 46.006812 33.427781 C 53.370094 24.806687 63.502906 26.904344 66.151344 15.880906 " transform="matrix(1,0,0,-1,71.001,71.002)"/>
</g>
<g clip-path="url(#clip27)" clip-rule="nonzero">
<path style="fill:none;stroke-width:0.3985;stroke-linecap:butt;stroke-linejoin:miter;stroke:rgb(0%,0%,0%);stroke-opacity:1;stroke-miterlimit:10;" d="M 44.616187 38.107469 L 47.518531 34.716844 C 55.139625 25.791062 65.354469 27.6895 68.081031 16.34575 " transform="matrix(1,0,0,-1,71.001,71.002)"/>
</g>
<path style=" stroke:none;fill-rule:nonzero;fill:rgb(100%,100%,100%);fill-opacity:1;" d="M 107.820312 27.894531 L 111.214844 30.789062 C 119.835938 38.152344 129.511719 34.492188 133.851562 44.96875 L 135.683594 44.210938 C 131.21875 33.429688 121.425781 36.902344 112.503906 29.28125 L 109.109375 26.386719 "/>
<path style="fill:none;stroke-width:0.3985;stroke-linecap:butt;stroke-linejoin:miter;stroke:rgb(0%,0%,0%);stroke-opacity:1;stroke-miterlimit:10;" d="M 36.819312 43.107469 L 40.213844 40.212937 C 48.834937 32.849656 58.510719 36.509812 62.850562 26.03325 " transform="matrix(1,0,0,-1,71.001,71.002)"/>
<path style="fill:none;stroke-width:0.3985;stroke-linecap:butt;stroke-linejoin:miter;stroke:rgb(0%,0%,0%);stroke-opacity:1;stroke-miterlimit:10;" d="M 38.108375 44.615281 L 41.502906 41.72075 C 50.424781 34.099656 60.21775 37.572312 64.682594 26.791062 " transform="matrix(1,0,0,-1,71.001,71.002)"/>
<path style=" stroke:none;fill-rule:nonzero;fill:rgb(100%,100%,100%);fill-opacity:1;" d="M 100.621094 22.664062 L 104.425781 24.992188 C 114.09375 30.917969 123.082031 25.789062 129.003906 35.457031 L 130.695312 34.421875 C 124.601562 24.472656 115.46875 29.433594 105.464844 23.300781 L 101.660156 20.972656 "/>
<path style="fill:none;stroke-width:0.3985;stroke-linecap:butt;stroke-linejoin:miter;stroke:rgb(0%,0%,0%);stroke-opacity:1;stroke-miterlimit:10;" d="M 29.620094 48.337937 L 33.424781 46.009812 C 43.09275 40.084031 52.081031 45.212937 58.002906 35.544969 " transform="matrix(1,0,0,-1,71.001,71.002)"/>
<path style="fill:none;stroke-width:0.3985;stroke-linecap:butt;stroke-linejoin:miter;stroke:rgb(0%,0%,0%);stroke-opacity:1;stroke-miterlimit:10;" d="M 30.659156 50.029344 L 34.463844 47.701219 C 44.46775 41.568406 53.600562 46.529344 59.694312 36.580125 " transform="matrix(1,0,0,-1,71.001,71.002)"/>
<path style=" stroke:none;fill-rule:nonzero;fill:rgb(100%,100%,100%);fill-opacity:1;" d="M 92.695312 18.625 L 96.820312 20.332031 C 107.292969 24.671875 115.367188 18.199219 122.730469 26.820312 L 124.238281 25.53125 C 116.660156 16.660156 108.417969 22.988281 97.578125 18.5 L 93.453125 16.792969 "/>
<path style="fill:none;stroke-width:0.3985;stroke-linecap:butt;stroke-linejoin:miter;stroke:rgb(0%,0%,0%);stroke-opacity:1;stroke-miterlimit:10;" d="M 21.694312 52.377 L 25.819312 50.669969 C 36.291969 46.330125 44.366187 52.802781 51.729469 44.181687 " transform="matrix(1,0,0,-1,71.001,71.002)"/>
<path style="fill:none;stroke-width:0.3985;stroke-linecap:butt;stroke-linejoin:miter;stroke:rgb(0%,0%,0%);stroke-opacity:1;stroke-miterlimit:10;" d="M 22.452125 54.209031 L 26.577125 52.502 C 37.416969 48.013719 45.659156 54.341844 53.237281 45.47075 " transform="matrix(1,0,0,-1,71.001,71.002)"/>
<path style=" stroke:none;fill-rule:nonzero;fill:rgb(100%,100%,100%);fill-opacity:1;" d="M 84.234375 15.875 L 88.574219 16.914062 C 99.597656 19.5625 106.5625 11.910156 115.183594 19.273438 L 116.472656 17.765625 C 107.597656 10.1875 100.449219 17.726562 89.039062 14.984375 L 84.699219 13.945312 "/>
<path style="fill:none;stroke-width:0.3985;stroke-linecap:butt;stroke-linejoin:miter;stroke:rgb(0%,0%,0%);stroke-opacity:1;stroke-miterlimit:10;" d="M 13.233375 55.127 L 17.573219 54.087937 C 28.596656 51.4395 35.5615 59.091844 44.182594 51.728562 " transform="matrix(1,0,0,-1,71.001,71.002)"/>
<path style="fill:none;stroke-width:0.3985;stroke-linecap:butt;stroke-linejoin:miter;stroke:rgb(0%,0%,0%);stroke-opacity:1;stroke-miterlimit:10;" d="M 13.698219 57.056687 L 18.038062 56.017625 C 29.448219 53.275437 36.596656 60.8145 45.471656 53.236375 " transform="matrix(1,0,0,-1,71.001,71.002)"/>
<path style=" stroke:none;fill-rule:nonzero;fill:rgb(100%,100%,100%);fill-opacity:1;" d="M 75.449219 14.484375 L 79.898438 14.832031 C 91.199219 15.722656 96.878906 7.074219 106.546875 12.996094 L 107.582031 11.304688 C 97.632812 5.210938 91.75 13.777344 80.050781 12.855469 L 75.605469 12.507812 "/>
<path style="fill:none;stroke-width:0.3985;stroke-linecap:butt;stroke-linejoin:miter;stroke:rgb(0%,0%,0%);stroke-opacity:1;stroke-miterlimit:10;" d="M 4.448219 56.517625 L 8.897437 56.169969 C 20.198219 55.279344 25.877906 63.927781 35.545875 58.005906 " transform="matrix(1,0,0,-1,71.001,71.002)"/>
<path style="fill:none;stroke-width:0.3985;stroke-linecap:butt;stroke-linejoin:miter;stroke:rgb(0%,0%,0%);stroke-opacity:1;stroke-miterlimit:10;" d="M 4.604469 58.494187 L 9.049781 58.146531 C 20.749 57.224656 26.631812 65.791062 36.581031 59.697312 " transform="matrix(1,0,0,-1,71.001,71.002)"/>
<path style=" stroke:none;fill-rule:nonzero;fill:rgb(100%,100%,100%);fill-opacity:1;" d="M 66.554688 14.484375 L 71 14.132812 C 82.304688 13.242188 86.558594 3.8125 97.035156 8.152344 L 97.792969 6.316406 C 87.011719 1.851562 82.542969 11.234375 70.847656 12.15625 L 66.398438 12.507812 "/>
<path style="fill:none;stroke-width:0.3985;stroke-linecap:butt;stroke-linejoin:miter;stroke:rgb(0%,0%,0%);stroke-opacity:1;stroke-miterlimit:10;" d="M -4.446313 56.517625 L -0.001 56.869187 C 11.303687 57.759812 15.557594 67.1895 26.034156 62.849656 " transform="matrix(1,0,0,-1,71.001,71.002)"/>
<path style="fill:none;stroke-width:0.3985;stroke-linecap:butt;stroke-linejoin:miter;stroke:rgb(0%,0%,0%);stroke-opacity:1;stroke-miterlimit:10;" d="M -4.602563 58.494187 L -0.153344 58.84575 C 11.541969 59.767625 16.010719 69.150437 26.791969 64.685594 " transform="matrix(1,0,0,-1,71.001,71.002)"/>
<path style=" stroke:none;fill-rule:nonzero;fill:rgb(100%,100%,100%);fill-opacity:1;" d="M 57.765625 15.875 L 62.105469 14.832031 C 73.128906 12.1875 75.855469 2.207031 86.882812 4.851562 L 87.34375 2.921875 C 76 0.199219 73.050781 10.164062 61.640625 12.902344 L 57.304688 13.945312 "/>
<path style="fill:none;stroke-width:0.3985;stroke-linecap:butt;stroke-linejoin:miter;stroke:rgb(0%,0%,0%);stroke-opacity:1;stroke-miterlimit:10;" d="M -13.235375 55.127 L -8.895531 56.169969 C 2.127906 58.8145 4.854469 68.794969 15.881812 66.150437 " transform="matrix(1,0,0,-1,71.001,71.002)"/>
<path style="fill:none;stroke-width:0.3985;stroke-linecap:butt;stroke-linejoin:miter;stroke:rgb(0%,0%,0%);stroke-opacity:1;stroke-miterlimit:10;" d="M -13.696313 57.056687 L -9.360375 58.099656 C 2.049781 60.837937 4.999 70.802781 16.34275 68.080125 " transform="matrix(1,0,0,-1,71.001,71.002)"/>
<path style=" stroke:none;fill-rule:nonzero;fill:rgb(100%,100%,100%);fill-opacity:1;" d="M 49.308594 18.625 L 53.425781 16.914062 C 63.902344 12.578125 65.035156 2.292969 76.339844 3.183594 L 76.496094 1.203125 C 64.863281 0.289062 63.507812 10.59375 52.667969 15.082031 L 48.546875 16.792969 "/>
<path style="fill:none;stroke-width:0.3985;stroke-linecap:butt;stroke-linejoin:miter;stroke:rgb(0%,0%,0%);stroke-opacity:1;stroke-miterlimit:10;" d="M -21.692406 52.377 L -17.575219 54.087937 C -7.098656 58.423875 -5.965844 68.709031 5.338844 67.818406 " transform="matrix(1,0,0,-1,71.001,71.002)"/>
<path style="fill:none;stroke-width:0.3985;stroke-linecap:butt;stroke-linejoin:miter;stroke:rgb(0%,0%,0%);stroke-opacity:1;stroke-miterlimit:10;" d="M -22.454125 54.209031 L -18.333031 55.919969 C -7.493188 60.40825 -6.137719 70.712937 5.495094 69.798875 " transform="matrix(1,0,0,-1,71.001,71.002)"/>
<path style=" stroke:none;fill-rule:nonzero;fill:rgb(100%,100%,100%);fill-opacity:1;" d="M 41.378906 22.664062 L 45.183594 20.332031 C 54.851562 14.40625 54.359375 4.070312 65.664062 3.183594 L 65.507812 1.203125 C 53.875 2.121094 54.152344 12.507812 44.144531 18.640625 L 40.34375 20.972656 "/>
<path style="fill:none;stroke-width:0.3985;stroke-linecap:butt;stroke-linejoin:miter;stroke:rgb(0%,0%,0%);stroke-opacity:1;stroke-miterlimit:10;" d="M -29.622094 48.337937 L -25.817406 50.669969 C -16.149438 56.59575 -16.641625 66.931687 -5.336938 67.818406 " transform="matrix(1,0,0,-1,71.001,71.002)"/>
<path style="fill:none;stroke-width:0.3985;stroke-linecap:butt;stroke-linejoin:miter;stroke:rgb(0%,0%,0%);stroke-opacity:1;stroke-miterlimit:10;" d="M -30.65725 50.029344 L -26.856469 52.361375 C -16.848656 58.494187 -17.126 68.880906 -5.493188 69.798875 " transform="matrix(1,0,0,-1,71.001,71.002)"/>
<path style=" stroke:none;fill-rule:nonzero;fill:rgb(100%,100%,100%);fill-opacity:1;" d="M 34.183594 27.894531 L 37.574219 24.992188 C 46.195312 17.628906 44.097656 7.5 55.121094 4.851562 L 54.65625 2.921875 C 43.3125 5.644531 45.207031 15.863281 36.285156 23.484375 L 32.894531 26.386719 "/>
<path style="fill:none;stroke-width:0.3985;stroke-linecap:butt;stroke-linejoin:miter;stroke:rgb(0%,0%,0%);stroke-opacity:1;stroke-miterlimit:10;" d="M -36.817406 43.107469 L -33.426781 46.009812 C -24.805688 53.373094 -26.903344 63.502 -15.879906 66.150437 " transform="matrix(1,0,0,-1,71.001,71.002)"/>
<path style="fill:none;stroke-width:0.3985;stroke-linecap:butt;stroke-linejoin:miter;stroke:rgb(0%,0%,0%);stroke-opacity:1;stroke-miterlimit:10;" d="M -38.106469 44.615281 L -34.715844 47.517625 C -25.793969 55.138719 -27.6885 65.357469 -16.34475 68.080125 " transform="matrix(1,0,0,-1,71.001,71.002)"/>
<path style=" stroke:none;fill-rule:nonzero;fill:rgb(100%,100%,100%);fill-opacity:1;" d="M 27.894531 34.183594 L 30.789062 30.789062 C 38.152344 22.167969 34.492188 12.488281 44.96875 8.152344 L 44.207031 6.316406 C 33.429688 10.78125 36.902344 20.578125 29.28125 29.5 L 26.382812 32.894531 "/>
<path style="fill:none;stroke-width:0.3985;stroke-linecap:butt;stroke-linejoin:miter;stroke:rgb(0%,0%,0%);stroke-opacity:1;stroke-miterlimit:10;" d="M -43.106469 36.818406 L -40.211938 40.212937 C -32.848656 48.834031 -36.508813 58.513719 -26.03225 62.849656 " transform="matrix(1,0,0,-1,71.001,71.002)"/>
<path style="fill:none;stroke-width:0.3985;stroke-linecap:butt;stroke-linejoin:miter;stroke:rgb(0%,0%,0%);stroke-opacity:1;stroke-miterlimit:10;" d="M -44.618188 38.107469 L -41.71975 41.502 C -34.098656 50.423875 -37.571313 60.22075 -26.793969 64.685594 " transform="matrix(1,0,0,-1,71.001,71.002)"/>
<path style=" stroke:none;fill-rule:nonzero;fill:rgb(100%,100%,100%);fill-opacity:1;" d="M 22.664062 41.382812 L 24.992188 37.574219 C 30.917969 27.910156 25.789062 18.921875 35.457031 12.996094 L 34.417969 11.304688 C 24.472656 17.402344 29.433594 26.535156 23.300781 36.539062 L 20.972656 40.34375 "/>
<path style="fill:none;stroke-width:0.3985;stroke-linecap:butt;stroke-linejoin:miter;stroke:rgb(0%,0%,0%);stroke-opacity:1;stroke-miterlimit:10;" d="M -48.336938 29.619187 L -46.008813 33.427781 C -40.083031 43.091844 -45.211938 52.080125 -35.543969 58.005906 " transform="matrix(1,0,0,-1,71.001,71.002)"/>
<path style="fill:none;stroke-width:0.3985;stroke-linecap:butt;stroke-linejoin:miter;stroke:rgb(0%,0%,0%);stroke-opacity:1;stroke-miterlimit:10;" d="M -50.028344 30.65825 L -47.700219 34.462937 C -41.567406 44.466844 -46.528344 53.599656 -36.583031 59.697312 " transform="matrix(1,0,0,-1,71.001,71.002)"/>
<path style=" stroke:none;fill-rule:nonzero;fill:rgb(100%,100%,100%);fill-opacity:1;" d="M 18.625 49.308594 L 20.332031 45.183594 C 24.667969 34.710938 18.199219 26.636719 26.820312 19.273438 L 25.53125 17.765625 C 16.660156 25.34375 22.988281 33.582031 18.496094 44.425781 L 16.792969 48.546875 "/>
<path style="fill:none;stroke-width:0.3985;stroke-linecap:butt;stroke-linejoin:miter;stroke:rgb(0%,0%,0%);stroke-opacity:1;stroke-miterlimit:10;" d="M -52.376 21.693406 L -50.668969 25.818406 C -46.333031 36.291062 -52.801781 44.365281 -44.180688 51.728562 " transform="matrix(1,0,0,-1,71.001,71.002)"/>
<path style="fill:none;stroke-width:0.3985;stroke-linecap:butt;stroke-linejoin:miter;stroke:rgb(0%,0%,0%);stroke-opacity:1;stroke-miterlimit:10;" d="M -54.208031 22.455125 L -52.504906 26.576219 C -48.012719 37.419969 -54.340844 45.65825 -45.46975 53.236375 " transform="matrix(1,0,0,-1,71.001,71.002)"/>
<path style=" stroke:none;fill-rule:nonzero;fill:rgb(100%,100%,100%);fill-opacity:1;" d="M 15.875 57.769531 L 16.914062 53.429688 C 19.5625 42.402344 11.910156 35.441406 19.273438 26.820312 L 17.761719 25.53125 C 10.1875 34.402344 17.722656 41.554688 14.984375 52.964844 L 13.945312 57.304688 "/>
<path style="fill:none;stroke-width:0.3985;stroke-linecap:butt;stroke-linejoin:miter;stroke:rgb(0%,0%,0%);stroke-opacity:1;stroke-miterlimit:10;" d="M -55.126 13.232469 L -54.086938 17.572312 C -51.4385 28.599656 -59.090844 35.560594 -51.727563 44.181687 " transform="matrix(1,0,0,-1,71.001,71.002)"/>
<path style="fill:none;stroke-width:0.3985;stroke-linecap:butt;stroke-linejoin:miter;stroke:rgb(0%,0%,0%);stroke-opacity:1;stroke-miterlimit:10;" d="M -57.055688 13.697312 L -56.016625 18.037156 C -53.278344 29.447312 -60.8135 36.599656 -53.239281 45.47075 " transform="matrix(1,0,0,-1,71.001,71.002)"/>
<path style=" stroke:none;fill-rule:nonzero;fill:rgb(100%,100%,100%);fill-opacity:1;" d="M 14.484375 66.554688 L 14.832031 62.105469 C 15.722656 50.804688 7.074219 45.125 12.996094 35.457031 L 11.304688 34.421875 C 5.207031 44.367188 13.773438 50.253906 12.855469 61.949219 L 12.507812 66.398438 "/>
<path style="fill:none;stroke-width:0.3985;stroke-linecap:butt;stroke-linejoin:miter;stroke:rgb(0%,0%,0%);stroke-opacity:1;stroke-miterlimit:10;" d="M -56.516625 4.447312 L -56.168969 8.896531 C -55.278344 20.197312 -63.926781 25.877 -58.004906 35.544969 " transform="matrix(1,0,0,-1,71.001,71.002)"/>
<path style="fill:none;stroke-width:0.3985;stroke-linecap:butt;stroke-linejoin:miter;stroke:rgb(0%,0%,0%);stroke-opacity:1;stroke-miterlimit:10;" d="M -58.493188 4.603562 L -58.145531 9.052781 C -57.227563 20.748094 -65.793969 26.634812 -59.696313 36.580125 " transform="matrix(1,0,0,-1,71.001,71.002)"/>
<path style=" stroke:none;fill-rule:nonzero;fill:rgb(100%,100%,100%);fill-opacity:1;" d="M 14.484375 75.449219 L 14.132812 71.003906 C 13.242188 59.699219 3.8125 55.445312 8.148438 44.96875 L 6.316406 44.210938 C 1.851562 54.988281 11.234375 59.457031 12.152344 71.15625 L 12.507812 75.605469 "/>
<path style="fill:none;stroke-width:0.3985;stroke-linecap:butt;stroke-linejoin:miter;stroke:rgb(0%,0%,0%);stroke-opacity:1;stroke-miterlimit:10;" d="M -56.516625 -4.447219 L -56.868188 -0.00190625 C -57.758813 11.302781 -67.1885 15.556687 -62.852563 26.03325 " transform="matrix(1,0,0,-1,71.001,71.002)"/>
<path style="fill:none;stroke-width:0.3985;stroke-linecap:butt;stroke-linejoin:miter;stroke:rgb(0%,0%,0%);stroke-opacity:1;stroke-miterlimit:10;" d="M -58.493188 -4.603469 L -58.848656 -0.15425 C -59.766625 11.544969 -69.149438 16.013719 -64.684594 26.791062 " transform="matrix(1,0,0,-1,71.001,71.002)"/>
<path style=" stroke:none;fill-rule:nonzero;fill:rgb(100%,100%,100%);fill-opacity:1;" d="M 15.875 84.234375 L 14.832031 79.898438 C 12.183594 68.875 2.203125 66.144531 4.851562 55.121094 L 2.921875 54.65625 C 0.199219 66.003906 10.164062 68.949219 12.902344 80.359375 L 13.945312 84.699219 "/>
<path style="fill:none;stroke-width:0.3985;stroke-linecap:butt;stroke-linejoin:miter;stroke:rgb(0%,0%,0%);stroke-opacity:1;stroke-miterlimit:10;" d="M -55.126 -13.232375 L -56.168969 -8.896438 C -58.817406 2.127 -68.797875 4.857469 -66.149438 15.880906 " transform="matrix(1,0,0,-1,71.001,71.002)"/>
<path style="fill:none;stroke-width:0.3985;stroke-linecap:butt;stroke-linejoin:miter;stroke:rgb(0%,0%,0%);stroke-opacity:1;stroke-miterlimit:10;" d="M -57.055688 -13.697219 L -58.098656 -9.357375 C -60.836938 2.052781 -70.801781 4.998094 -68.079125 16.34575 " transform="matrix(1,0,0,-1,71.001,71.002)"/>
<path style=" stroke:none;fill-rule:nonzero;fill:rgb(100%,100%,100%);fill-opacity:1;" d="M 18.625 92.695312 L 16.914062 88.574219 C 12.574219 78.101562 2.292969 76.96875 3.183594 65.664062 L 1.203125 65.507812 C 0.289062 77.140625 10.589844 78.492188 15.082031 89.335938 L 16.792969 93.457031 "/>
<path style="fill:none;stroke-width:0.3985;stroke-linecap:butt;stroke-linejoin:miter;stroke:rgb(0%,0%,0%);stroke-opacity:1;stroke-miterlimit:10;" d="M -52.376 -21.693313 L -54.086938 -17.572219 C -58.426781 -7.099563 -68.708031 -5.96675 -67.817406 5.337937 " transform="matrix(1,0,0,-1,71.001,71.002)"/>
<path style="fill:none;stroke-width:0.3985;stroke-linecap:butt;stroke-linejoin:miter;stroke:rgb(0%,0%,0%);stroke-opacity:1;stroke-miterlimit:10;" d="M -54.208031 -22.455031 L -55.918969 -18.333938 C -60.411156 -7.490188 -70.711938 -6.138625 -69.797875 5.494187 " transform="matrix(1,0,0,-1,71.001,71.002)"/>
<path style=" stroke:none;fill-rule:nonzero;fill:rgb(100%,100%,100%);fill-opacity:1;" d="M 22.664062 100.625 L 20.332031 96.820312 C 14.40625 87.152344 4.070312 87.644531 3.183594 76.339844 L 1.203125 76.496094 C 2.117188 88.128906 12.507812 87.851562 18.640625 97.855469 L 20.972656 101.660156 "/>
<path style="fill:none;stroke-width:0.3985;stroke-linecap:butt;stroke-linejoin:miter;stroke:rgb(0%,0%,0%);stroke-opacity:1;stroke-miterlimit:10;" d="M -48.336938 -29.623 L -50.668969 -25.818313 C -56.59475 -16.150344 -66.930688 -16.642531 -67.817406 -5.337844 " transform="matrix(1,0,0,-1,71.001,71.002)"/>
<path style="fill:none;stroke-width:0.3985;stroke-linecap:butt;stroke-linejoin:miter;stroke:rgb(0%,0%,0%);stroke-opacity:1;stroke-miterlimit:10;" d="M -50.028344 -30.658156 L -52.360375 -26.853469 C -58.493188 -16.849563 -68.883813 -17.126906 -69.797875 -5.494094 " transform="matrix(1,0,0,-1,71.001,71.002)"/>
<path style=" stroke:none;fill-rule:nonzero;fill:rgb(100%,100%,100%);fill-opacity:1;" d="M 27.894531 107.820312 L 24.992188 104.429688 C 17.628906 95.808594 7.496094 97.90625 4.851562 86.882812 L 2.921875 87.347656 C 5.644531 98.691406 15.863281 96.792969 23.484375 105.71875 L 26.382812 109.109375 "/>
<path style="fill:none;stroke-width:0.3985;stroke-linecap:butt;stroke-linejoin:miter;stroke:rgb(0%,0%,0%);stroke-opacity:1;stroke-miterlimit:10;" d="M -43.106469 -36.818313 L -46.008813 -33.427688 C -53.372094 -24.806594 -63.504906 -26.90425 -66.149438 -15.880813 " transform="matrix(1,0,0,-1,71.001,71.002)"/>
<path style="fill:none;stroke-width:0.3985;stroke-linecap:butt;stroke-linejoin:miter;stroke:rgb(0%,0%,0%);stroke-opacity:1;stroke-miterlimit:10;" d="M -44.618188 -38.107375 L -47.516625 -34.71675 C -55.137719 -25.790969 -65.356469 -27.689406 -68.079125 -16.345656 " transform="matrix(1,0,0,-1,71.001,71.002)"/>
<path style=" stroke:none;fill-rule:nonzero;fill:rgb(100%,100%,100%);fill-opacity:1;" d="M 34.183594 114.109375 L 30.789062 111.214844 C 22.167969 103.851562 12.488281 107.511719 8.148438 97.035156 L 6.316406 97.792969 C 10.78125 108.574219 20.578125 105.101562 29.5 112.722656 L 32.894531 115.617188 "/>
<path style="fill:none;stroke-width:0.3985;stroke-linecap:butt;stroke-linejoin:miter;stroke:rgb(0%,0%,0%);stroke-opacity:1;stroke-miterlimit:10;" d="M -36.817406 -43.107375 L -40.211938 -40.212844 C -48.833031 -32.849563 -58.512719 -36.509719 -62.852563 -26.033156 " transform="matrix(1,0,0,-1,71.001,71.002)"/>
<path style="fill:none;stroke-width:0.3985;stroke-linecap:butt;stroke-linejoin:miter;stroke:rgb(0%,0%,0%);stroke-opacity:1;stroke-miterlimit:10;" d="M -38.106469 -44.615188 L -41.501 -41.720656 C -50.422875 -34.099563 -60.21975 -37.572219 -64.684594 -26.790969 " transform="matrix(1,0,0,-1,71.001,71.002)"/>
<path style=" stroke:none;fill-rule:nonzero;fill:rgb(100%,100%,100%);fill-opacity:1;" d="M 41.378906 119.339844 L 37.574219 117.011719 C 27.90625 111.085938 18.921875 116.214844 12.996094 106.546875 L 11.304688 107.582031 C 17.402344 117.53125 26.53125 112.570312 36.539062 118.703125 L 40.34375 121.03125 "/>
<path style="fill:none;stroke-width:0.3985;stroke-linecap:butt;stroke-linejoin:miter;stroke:rgb(0%,0%,0%);stroke-opacity:1;stroke-miterlimit:10;" d="M -29.622094 -48.337844 L -33.426781 -46.009719 C -43.09475 -40.083938 -52.079125 -45.212844 -58.004906 -35.544875 " transform="matrix(1,0,0,-1,71.001,71.002)"/>
<path style="fill:none;stroke-width:0.3985;stroke-linecap:butt;stroke-linejoin:miter;stroke:rgb(0%,0%,0%);stroke-opacity:1;stroke-miterlimit:10;" d="M -30.65725 -50.02925 L -34.461938 -47.701125 C -44.46975 -41.568313 -53.598656 -46.52925 -59.696313 -36.580031 " transform="matrix(1,0,0,-1,71.001,71.002)"/>
<path style=" stroke:none;fill-rule:nonzero;fill:rgb(100%,100%,100%);fill-opacity:1;" d="M 49.308594 123.378906 L 45.183594 121.671875 C 34.707031 117.332031 26.636719 123.804688 19.273438 115.183594 L 17.761719 116.472656 C 25.339844 125.34375 33.582031 119.015625 44.421875 123.503906 L 48.546875 125.210938 "/>
<path style="fill:none;stroke-width:0.3985;stroke-linecap:butt;stroke-linejoin:miter;stroke:rgb(0%,0%,0%);stroke-opacity:1;stroke-miterlimit:10;" d="M -21.692406 -52.376906 L -25.817406 -50.669875 C -36.293969 -46.330031 -44.364281 -52.802688 -51.727563 -44.181594 " transform="matrix(1,0,0,-1,71.001,71.002)"/>
<path style="fill:none;stroke-width:0.3985;stroke-linecap:butt;stroke-linejoin:miter;stroke:rgb(0%,0%,0%);stroke-opacity:1;stroke-miterlimit:10;" d="M -22.454125 -54.208938 L -26.579125 -52.501906 C -37.418969 -48.013625 -45.661156 -54.34175 -53.239281 -45.470656 " transform="matrix(1,0,0,-1,71.001,71.002)"/>
<path style=" stroke:none;fill-rule:nonzero;fill:rgb(100%,100%,100%);fill-opacity:1;" d="M 57.765625 126.128906 L 53.425781 125.089844 C 42.402344 122.441406 35.441406 130.09375 26.820312 122.730469 L 25.53125 124.238281 C 34.402344 131.816406 41.554688 124.277344 52.964844 127.019531 L 57.304688 128.058594 "/>
<path style="fill:none;stroke-width:0.3985;stroke-linecap:butt;stroke-linejoin:miter;stroke:rgb(0%,0%,0%);stroke-opacity:1;stroke-miterlimit:10;" d="M -13.235375 -55.126906 L -17.575219 -54.087844 C -28.598656 -51.439406 -35.559594 -59.09175 -44.180688 -51.728469 " transform="matrix(1,0,0,-1,71.001,71.002)"/>
<path style="fill:none;stroke-width:0.3985;stroke-linecap:butt;stroke-linejoin:miter;stroke:rgb(0%,0%,0%);stroke-opacity:1;stroke-miterlimit:10;" d="M -13.696313 -57.056594 L -18.036156 -56.017531 C -29.446313 -53.275344 -36.598656 -60.814406 -45.46975 -53.236281 " transform="matrix(1,0,0,-1,71.001,71.002)"/>
<path style=" stroke:none;fill-rule:nonzero;fill:rgb(100%,100%,100%);fill-opacity:1;" d="M 66.554688 127.519531 L 62.105469 127.171875 C 50.800781 126.28125 45.125 134.929688 35.457031 129.007812 L 34.417969 130.699219 C 44.367188 136.792969 50.25 128.226562 61.949219 129.148438 L 66.398438 129.496094 "/>
<path style="fill:none;stroke-width:0.3985;stroke-linecap:butt;stroke-linejoin:miter;stroke:rgb(0%,0%,0%);stroke-opacity:1;stroke-miterlimit:10;" d="M -4.446313 -56.517531 L -8.895531 -56.169875 C -20.200219 -55.27925 -25.876 -63.927688 -35.543969 -58.005813 " transform="matrix(1,0,0,-1,71.001,71.002)"/>
<path style="fill:none;stroke-width:0.3985;stroke-linecap:butt;stroke-linejoin:miter;stroke:rgb(0%,0%,0%);stroke-opacity:1;stroke-miterlimit:10;" d="M -4.602563 -58.494094 L -9.051781 -58.146438 C -20.751 -57.224563 -26.633813 -65.790969 -36.583031 -59.697219 " transform="matrix(1,0,0,-1,71.001,71.002)"/>
<path style=" stroke:none;fill-rule:nonzero;fill:rgb(100%,100%,100%);fill-opacity:1;" d="M 75.449219 127.519531 L 71 127.871094 C 59.699219 128.761719 55.441406 138.191406 44.96875 133.851562 L 44.207031 135.6875 C 54.988281 140.152344 59.457031 130.769531 71.15625 129.847656 L 75.605469 129.496094 "/>
<path style="fill:none;stroke-width:0.3985;stroke-linecap:butt;stroke-linejoin:miter;stroke:rgb(0%,0%,0%);stroke-opacity:1;stroke-miterlimit:10;" d="M 4.448219 -56.517531 L -0.001 -56.869094 C -11.301781 -57.759719 -15.559594 -67.189406 -26.03225 -62.849563 " transform="matrix(1,0,0,-1,71.001,71.002)"/>
<g clip-path="url(#clip28)" clip-rule="nonzero">
<path style="fill:none;stroke-width:0.3985;stroke-linecap:butt;stroke-linejoin:miter;stroke:rgb(0%,0%,0%);stroke-opacity:1;stroke-miterlimit:10;" d="M 4.604469 -58.494094 L 0.15525 -58.845656 C -11.543969 -59.767531 -16.012719 -69.150344 -26.793969 -64.6855 " transform="matrix(1,0,0,-1,71.001,71.002)"/>
</g>
<path style=" stroke:none;fill-rule:nonzero;fill:rgb(100%,100%,100%);fill-opacity:1;" d="M 84.234375 126.128906 L 79.898438 127.171875 C 68.871094 129.816406 66.144531 139.796875 55.121094 137.152344 L 54.65625 139.082031 C 66.003906 141.804688 68.949219 131.839844 80.359375 129.101562 L 84.699219 128.058594 "/>
<g clip-path="url(#clip29)" clip-rule="nonzero">
<path style="fill:none;stroke-width:0.3985;stroke-linecap:butt;stroke-linejoin:miter;stroke:rgb(0%,0%,0%);stroke-opacity:1;stroke-miterlimit:10;" d="M 13.233375 -55.126906 L 8.897437 -56.169875 C -2.129906 -58.814406 -4.856469 -68.794875 -15.879906 -66.150344 " transform="matrix(1,0,0,-1,71.001,71.002)"/>
</g>
<g clip-path="url(#clip30)" clip-rule="nonzero">
<path style="fill:none;stroke-width:0.3985;stroke-linecap:butt;stroke-linejoin:miter;stroke:rgb(0%,0%,0%);stroke-opacity:1;stroke-miterlimit:10;" d="M 13.698219 -57.056594 L 9.358375 -58.099563 C -2.051781 -60.837844 -4.997094 -70.802688 -16.34475 -68.080031 " transform="matrix(1,0,0,-1,71.001,71.002)"/>
</g>
<path style=" stroke:none;fill-rule:nonzero;fill:rgb(100%,100%,100%);fill-opacity:1;" d="M 92.695312 123.378906 L 88.574219 125.089844 C 78.101562 129.425781 76.964844 139.710938 65.664062 138.820312 L 65.507812 140.800781 C 77.140625 141.714844 78.492188 131.410156 89.332031 126.921875 L 93.453125 125.210938 "/>
<g clip-path="url(#clip31)" clip-rule="nonzero">
<path style="fill:none;stroke-width:0.3985;stroke-linecap:butt;stroke-linejoin:miter;stroke:rgb(0%,0%,0%);stroke-opacity:1;stroke-miterlimit:10;" d="M 21.694312 -52.376906 L 17.573219 -54.087844 C 7.100562 -58.423781 5.963844 -68.708938 -5.336938 -67.818313 " transform="matrix(1,0,0,-1,71.001,71.002)"/>
</g>
<g clip-path="url(#clip32)" clip-rule="nonzero">
<path style="fill:none;stroke-width:0.3985;stroke-linecap:butt;stroke-linejoin:miter;stroke:rgb(0%,0%,0%);stroke-opacity:1;stroke-miterlimit:10;" d="M 22.452125 -54.208938 L 18.331031 -55.919875 C 7.491187 -60.408156 6.139625 -70.712844 -5.493188 -69.798781 " transform="matrix(1,0,0,-1,71.001,71.002)"/>
</g>
<path style=" stroke:none;fill-rule:nonzero;fill:rgb(100%,100%,100%);fill-opacity:1;" d="M 100.621094 119.339844 L 96.820312 121.671875 C 87.152344 127.597656 87.640625 137.933594 76.339844 138.820312 L 76.496094 140.800781 C 88.125 139.882812 87.851562 129.496094 97.855469 123.363281 L 101.660156 121.03125 "/>
<g clip-path="url(#clip33)" clip-rule="nonzero">
<path style="fill:none;stroke-width:0.3985;stroke-linecap:butt;stroke-linejoin:miter;stroke:rgb(0%,0%,0%);stroke-opacity:1;stroke-miterlimit:10;" d="M 29.620094 -48.337844 L 25.819312 -50.669875 C 16.151344 -56.595656 16.639625 -66.931594 5.338844 -67.818313 " transform="matrix(1,0,0,-1,71.001,71.002)"/>
</g>
<g clip-path="url(#clip34)" clip-rule="nonzero">
<path style="fill:none;stroke-width:0.3985;stroke-linecap:butt;stroke-linejoin:miter;stroke:rgb(0%,0%,0%);stroke-opacity:1;stroke-miterlimit:10;" d="M 30.659156 -50.02925 L 26.854469 -52.361281 C 16.850562 -58.494094 17.124 -68.880813 5.495094 -69.798781 " transform="matrix(1,0,0,-1,71.001,71.002)"/>
</g>
<path style=" stroke:none;fill-rule:nonzero;fill:rgb(100%,100%,100%);fill-opacity:1;" d="M 107.820312 114.109375 L 104.425781 117.011719 C 95.804688 124.375 97.90625 134.503906 86.882812 137.152344 L 87.34375 139.082031 C 98.691406 136.359375 96.792969 126.140625 105.714844 118.519531 L 109.109375 115.617188 "/>
<g clip-path="url(#clip35)" clip-rule="nonzero">
<path style="fill:none;stroke-width:0.3985;stroke-linecap:butt;stroke-linejoin:miter;stroke:rgb(0%,0%,0%);stroke-opacity:1;stroke-miterlimit:10;" d="M 36.819312 -43.107375 L 33.424781 -46.009719 C 24.803687 -53.373 26.90525 -63.501906 15.881812 -66.150344 " transform="matrix(1,0,0,-1,71.001,71.002)"/>
</g>
<g clip-path="url(#clip36)" clip-rule="nonzero">
<path style="fill:none;stroke-width:0.3985;stroke-linecap:butt;stroke-linejoin:miter;stroke:rgb(0%,0%,0%);stroke-opacity:1;stroke-miterlimit:10;" d="M 38.108375 -44.615188 L 34.713844 -47.517531 C 25.791969 -55.138625 27.690406 -65.357375 16.34275 -68.080031 " transform="matrix(1,0,0,-1,71.001,71.002)"/>
</g>
<path style=" stroke:none;fill-rule:nonzero;fill:rgb(100%,100%,100%);fill-opacity:1;" d="M 114.109375 107.820312 L 111.214844 111.214844 C 103.851562 119.835938 107.507812 129.515625 97.035156 133.851562 L 97.792969 135.6875 C 108.574219 131.222656 105.101562 121.425781 112.722656 112.503906 L 115.617188 109.109375 "/>
<path style="fill:none;stroke-width:0.3985;stroke-linecap:butt;stroke-linejoin:miter;stroke:rgb(0%,0%,0%);stroke-opacity:1;stroke-miterlimit:10;" d="M 43.108375 -36.818313 L 40.213844 -40.212844 C 32.850562 -48.833938 36.506812 -58.513625 26.034156 -62.849563 " transform="matrix(1,0,0,-1,71.001,71.002)"/>
<path style="fill:none;stroke-width:0.3985;stroke-linecap:butt;stroke-linejoin:miter;stroke:rgb(0%,0%,0%);stroke-opacity:1;stroke-miterlimit:10;" d="M 44.616187 -38.107375 L 41.721656 -41.501906 C 34.100562 -50.423781 37.573219 -60.220656 26.791969 -64.6855 " transform="matrix(1,0,0,-1,71.001,71.002)"/>
<path style=" stroke:none;fill-rule:nonzero;fill:rgb(100%,100%,100%);fill-opacity:1;" d="M 119.339844 100.625 L 117.007812 104.429688 C 111.085938 114.097656 116.214844 123.082031 106.546875 129.007812 L 107.582031 130.699219 C 117.53125 124.601562 112.570312 115.46875 118.699219 105.464844 L 121.03125 101.660156 "/>
<path style="fill:none;stroke-width:0.3985;stroke-linecap:butt;stroke-linejoin:miter;stroke:rgb(0%,0%,0%);stroke-opacity:1;stroke-miterlimit:10;" d="M 48.338844 -29.623 L 46.006812 -33.427688 C 40.084937 -43.095656 45.213844 -52.080031 35.545875 -58.005813 " transform="matrix(1,0,0,-1,71.001,71.002)"/>
<path style="fill:none;stroke-width:0.3985;stroke-linecap:butt;stroke-linejoin:miter;stroke:rgb(0%,0%,0%);stroke-opacity:1;stroke-miterlimit:10;" d="M 50.03025 -30.658156 L 47.698219 -34.462844 C 41.569312 -44.46675 46.53025 -53.599563 36.581031 -59.697219 " transform="matrix(1,0,0,-1,71.001,71.002)"/>
<path style=" stroke:none;fill-rule:nonzero;fill:rgb(100%,100%,100%);fill-opacity:1;" d="M 123.378906 92.695312 L 121.671875 96.820312 C 117.332031 107.296875 123.804688 115.367188 115.183594 122.730469 L 116.472656 124.238281 C 125.34375 116.660156 119.015625 108.421875 123.503906 97.578125 L 125.210938 93.457031 "/>
<path style="fill:none;stroke-width:0.3985;stroke-linecap:butt;stroke-linejoin:miter;stroke:rgb(0%,0%,0%);stroke-opacity:1;stroke-miterlimit:10;" d="M 52.377906 -21.693313 L 50.670875 -25.818313 C 46.331031 -36.294875 52.803687 -44.365188 44.182594 -51.728469 " transform="matrix(1,0,0,-1,71.001,71.002)"/>
<path style="fill:none;stroke-width:0.3985;stroke-linecap:butt;stroke-linejoin:miter;stroke:rgb(0%,0%,0%);stroke-opacity:1;stroke-miterlimit:10;" d="M 54.209937 -22.455031 L 52.502906 -26.576125 C 48.014625 -37.419875 54.34275 -45.658156 45.471656 -53.236281 " transform="matrix(1,0,0,-1,71.001,71.002)"/>
<path style=" stroke:none;fill-rule:nonzero;fill:rgb(100%,100%,100%);fill-opacity:1;" d="M 126.125 84.234375 L 125.085938 88.574219 C 122.441406 99.601562 130.09375 106.5625 122.730469 115.183594 L 124.238281 116.472656 C 131.816406 107.601562 124.277344 100.449219 127.015625 89.039062 L 128.054688 84.699219 "/>
<path style="fill:none;stroke-width:0.3985;stroke-linecap:butt;stroke-linejoin:miter;stroke:rgb(0%,0%,0%);stroke-opacity:1;stroke-miterlimit:10;" d="M 55.124 -13.232375 L 54.084937 -17.572219 C 51.440406 -28.599563 59.09275 -35.5605 51.729469 -44.181594 " transform="matrix(1,0,0,-1,71.001,71.002)"/>
<path style="fill:none;stroke-width:0.3985;stroke-linecap:butt;stroke-linejoin:miter;stroke:rgb(0%,0%,0%);stroke-opacity:1;stroke-miterlimit:10;" d="M 57.053687 -13.697219 L 56.014625 -18.037063 C 53.276344 -29.447219 60.815406 -36.599563 53.237281 -45.470656 " transform="matrix(1,0,0,-1,71.001,71.002)"/>
<path style=" stroke:none;fill-rule:nonzero;fill:rgb(100%,100%,100%);fill-opacity:1;" d="M 127.515625 75.449219 L 127.171875 79.898438 C 126.28125 91.199219 134.929688 96.878906 129.003906 106.546875 L 130.695312 107.582031 C 136.792969 97.636719 128.226562 91.75 129.148438 80.054688 L 129.496094 75.605469 "/>
<path style="fill:none;stroke-width:0.3985;stroke-linecap:butt;stroke-linejoin:miter;stroke:rgb(0%,0%,0%);stroke-opacity:1;stroke-miterlimit:10;" d="M 56.514625 -4.447219 L 56.170875 -8.896438 C 55.28025 -20.197219 63.928687 -25.876906 58.002906 -35.544875 " transform="matrix(1,0,0,-1,71.001,71.002)"/>
<path style="fill:none;stroke-width:0.3985;stroke-linecap:butt;stroke-linejoin:miter;stroke:rgb(0%,0%,0%);stroke-opacity:1;stroke-miterlimit:10;" d="M 58.495094 -4.603469 L 58.147437 -9.052688 C 57.225562 -20.748 65.791969 -26.634719 59.694312 -36.580031 " transform="matrix(1,0,0,-1,71.001,71.002)"/>
</g>
</svg>
