<?xml version="1.0" encoding="UTF-8"?>
<svg xmlns="http://www.w3.org/2000/svg" xmlns:xlink="http://www.w3.org/1999/xlink" width="113.711pt" height="113.784pt" viewBox="0 0 113.711 113.784" version="1.1">
<defs>
<clipPath id="clip1">
  <path d="M 20 71 L 57 71 L 57 113.785156 L 20 113.785156 Z M 20 71 "/>
</clipPath>
<clipPath id="clip2">
  <path d="M 14 72 L 63 72 L 63 113.785156 L 14 113.785156 Z M 14 72 "/>
</clipPath>
<clipPath id="clip3">
  <path d="M 88 22 L 113.710938 22 L 113.710938 84 L 88 84 Z M 88 22 "/>
</clipPath>
<clipPath id="clip4">
  <path d="M 88 29 L 113.710938 29 L 113.710938 91 L 88 91 Z M 88 29 "/>
</clipPath>
<clipPath id="clip5">
  <path d="M 56 71 L 94 71 L 94 113.785156 L 56 113.785156 Z M 56 71 "/>
</clipPath>
<clipPath id="clip6">
  <path d="M 51 72 L 100 72 L 100 113.785156 L 51 113.785156 Z M 51 72 "/>
</clipPath>
</defs>
<g id="surface51">
<path style=" stroke:none;fill-rule:nonzero;fill:rgb(100%,100%,100%);fill-opacity:1;" d="M 81.402344 42.71875 L 73.21875 28.546875 C 67.550781 18.726562 68.195312 14.371094 56.855469 14.371094 L 56.855469 0.199219 C 71.972656 0.199219 76.992188 6.730469 85.496094 21.460938 L 93.679688 35.632812 "/>
<path style="fill:none;stroke-width:0.3985;stroke-linecap:butt;stroke-linejoin:miter;stroke:rgb(0%,0%,0%);stroke-opacity:1;stroke-miterlimit:10;" d="M 24.547344 14.17325 L 16.36375 28.345125 C 10.695781 38.165438 11.340313 42.520906 0.00046875 42.520906 " transform="matrix(1,0,0,-1,56.855,56.892)"/>
<path style="fill:none;stroke-width:0.3985;stroke-linecap:butt;stroke-linejoin:miter;stroke:rgb(0%,0%,0%);stroke-opacity:1;stroke-miterlimit:10;" d="M 0.00046875 56.692781 C 15.117656 56.692781 20.137188 50.161531 28.641094 35.431063 L 36.824688 21.259188 " transform="matrix(1,0,0,-1,56.855,56.892)"/>
<path style=" stroke:none;fill-rule:nonzero;fill:rgb(100%,100%,100%);fill-opacity:1;" d="M 56.855469 28.546875 L 40.488281 28.546875 C 29.152344 28.546875 25.699219 25.8125 20.03125 35.632812 L 7.757812 28.546875 C 15.316406 15.453125 23.480469 14.375 40.488281 14.375 L 56.855469 14.371094 "/>
<path style="fill:none;stroke-width:0.3985;stroke-linecap:butt;stroke-linejoin:miter;stroke:rgb(0%,0%,0%);stroke-opacity:1;stroke-miterlimit:10;" d="M 0.00046875 28.345125 L -16.366719 28.345125 C -27.702656 28.345125 -31.155781 31.0795 -36.82375 21.259188 " transform="matrix(1,0,0,-1,56.855,56.892)"/>
<path style="fill:none;stroke-width:0.3985;stroke-linecap:butt;stroke-linejoin:miter;stroke:rgb(0%,0%,0%);stroke-opacity:1;stroke-miterlimit:10;" d="M -49.097187 28.345125 C -41.538594 41.438875 -33.374531 42.517 -16.366719 42.517 L 0.00046875 42.520906 " transform="matrix(1,0,0,-1,56.855,56.892)"/>
<path style=" stroke:none;fill-rule:nonzero;fill:rgb(100%,100%,100%);fill-opacity:1;" d="M 32.304688 42.71875 L 24.125 56.890625 C 18.457031 66.710938 14.363281 68.332031 20.03125 78.152344 L 7.757812 85.238281 C 0.199219 72.148438 3.347656 64.535156 11.851562 49.804688 L 20.03125 35.632812 "/>
<path style="fill:none;stroke-width:0.3985;stroke-linecap:butt;stroke-linejoin:miter;stroke:rgb(0%,0%,0%);stroke-opacity:1;stroke-miterlimit:10;" d="M -24.550312 14.17325 L -32.73 0.001375 C -38.397969 -9.818937 -42.491719 -11.440031 -36.82375 -21.260344 " transform="matrix(1,0,0,-1,56.855,56.892)"/>
<path style="fill:none;stroke-width:0.3985;stroke-linecap:butt;stroke-linejoin:miter;stroke:rgb(0%,0%,0%);stroke-opacity:1;stroke-miterlimit:10;" d="M -49.097187 -28.346281 C -56.655781 -15.256437 -53.507344 -7.643156 -45.003437 7.087313 L -36.82375 21.259188 " transform="matrix(1,0,0,-1,56.855,56.892)"/>
<g clip-path="url(#clip1)" clip-rule="nonzero">
<path style=" stroke:none;fill-rule:nonzero;fill:rgb(100%,100%,100%);fill-opacity:1;" d="M 32.304688 71.066406 L 40.488281 85.238281 C 46.160156 95.054688 45.515625 99.414062 56.855469 99.414062 L 56.855469 113.585938 C 41.738281 113.585938 36.71875 107.054688 28.214844 92.324219 L 20.03125 78.152344 "/>
</g>
<path style="fill:none;stroke-width:0.3985;stroke-linecap:butt;stroke-linejoin:miter;stroke:rgb(0%,0%,0%);stroke-opacity:1;stroke-miterlimit:10;" d="M -24.550312 -14.174406 L -16.366719 -28.346281 C -10.694844 -38.162687 -11.339375 -42.522062 0.00046875 -42.522062 " transform="matrix(1,0,0,-1,56.855,56.892)"/>
<g clip-path="url(#clip2)" clip-rule="nonzero">
<path style="fill:none;stroke-width:0.3985;stroke-linecap:butt;stroke-linejoin:miter;stroke:rgb(0%,0%,0%);stroke-opacity:1;stroke-miterlimit:10;" d="M 0.00046875 -56.693937 C -15.116719 -56.693937 -20.13625 -50.162687 -28.640156 -35.432219 L -36.82375 -21.260344 " transform="matrix(1,0,0,-1,56.855,56.892)"/>
</g>
<path style=" stroke:none;fill-rule:nonzero;fill:rgb(100%,100%,100%);fill-opacity:1;" d="M 56.855469 85.238281 L 73.21875 85.238281 C 84.558594 85.238281 88.007812 87.972656 93.679688 78.152344 L 105.953125 85.238281 C 98.394531 98.332031 90.226562 99.410156 73.21875 99.410156 L 56.855469 99.414062 "/>
<path style="fill:none;stroke-width:0.3985;stroke-linecap:butt;stroke-linejoin:miter;stroke:rgb(0%,0%,0%);stroke-opacity:1;stroke-miterlimit:10;" d="M 0.00046875 -28.346281 L 16.36375 -28.346281 C 27.703594 -28.346281 31.152813 -31.080656 36.824688 -21.260344 " transform="matrix(1,0,0,-1,56.855,56.892)"/>
<path style="fill:none;stroke-width:0.3985;stroke-linecap:butt;stroke-linejoin:miter;stroke:rgb(0%,0%,0%);stroke-opacity:1;stroke-miterlimit:10;" d="M 49.098125 -28.346281 C 41.539531 -41.440031 33.371563 -42.518156 16.36375 -42.518156 L 0.00046875 -42.522062 " transform="matrix(1,0,0,-1,56.855,56.892)"/>
<path style=" stroke:none;fill-rule:nonzero;fill:rgb(100%,100%,100%);fill-opacity:1;" d="M 81.402344 71.066406 L 89.585938 56.890625 C 95.253906 47.074219 99.347656 45.453125 93.679688 35.632812 L 105.953125 28.546875 C 113.511719 41.636719 110.363281 49.25 101.859375 63.980469 L 93.679688 78.152344 "/>
<path style="fill:none;stroke-width:0.3985;stroke-linecap:butt;stroke-linejoin:miter;stroke:rgb(0%,0%,0%);stroke-opacity:1;stroke-miterlimit:10;" d="M 24.547344 -14.174406 L 32.730938 0.001375 C 38.398906 9.817781 42.492656 11.438875 36.824688 21.259188 " transform="matrix(1,0,0,-1,56.855,56.892)"/>
<g clip-path="url(#clip3)" clip-rule="nonzero">
<path style="fill:none;stroke-width:0.3985;stroke-linecap:butt;stroke-linejoin:miter;stroke:rgb(0%,0%,0%);stroke-opacity:1;stroke-miterlimit:10;" d="M 49.098125 28.345125 C 56.656719 15.255281 53.508281 7.642 45.004375 -7.088469 L 36.824688 -21.260344 " transform="matrix(1,0,0,-1,56.855,56.892)"/>
</g>
<path style=" stroke:none;fill-rule:nonzero;fill:rgb(100%,100%,100%);fill-opacity:1;" d="M 81.402344 42.71875 L 89.585938 56.890625 C 95.253906 66.710938 99.347656 68.332031 93.679688 78.152344 L 105.953125 85.238281 C 113.511719 72.148438 110.363281 64.535156 101.859375 49.804688 L 93.679688 35.632812 "/>
<path style="fill:none;stroke-width:0.3985;stroke-linecap:butt;stroke-linejoin:miter;stroke:rgb(0%,0%,0%);stroke-opacity:1;stroke-miterlimit:10;" d="M 24.547344 14.17325 L 32.730938 0.001375 C 38.398906 -9.818937 42.492656 -11.440031 36.824688 -21.260344 " transform="matrix(1,0,0,-1,56.855,56.892)"/>
<g clip-path="url(#clip4)" clip-rule="nonzero">
<path style="fill:none;stroke-width:0.3985;stroke-linecap:butt;stroke-linejoin:miter;stroke:rgb(0%,0%,0%);stroke-opacity:1;stroke-miterlimit:10;" d="M 36.824688 21.259188 L 45.004375 7.087313 C 53.508281 -7.643156 56.656719 -15.256437 49.098125 -28.346281 " transform="matrix(1,0,0,-1,56.855,56.892)"/>
</g>
<path style=" stroke:none;fill-rule:nonzero;fill:rgb(100%,100%,100%);fill-opacity:1;" d="M 56.855469 28.546875 L 73.21875 28.546875 C 84.558594 28.546875 88.007812 25.8125 93.679688 35.632812 L 105.953125 28.546875 C 98.394531 15.453125 90.226562 14.375 73.21875 14.375 L 56.855469 14.371094 "/>
<path style="fill:none;stroke-width:0.3985;stroke-linecap:butt;stroke-linejoin:miter;stroke:rgb(0%,0%,0%);stroke-opacity:1;stroke-miterlimit:10;" d="M 0.00046875 28.345125 L 16.36375 28.345125 C 27.703594 28.345125 31.152813 31.0795 36.824688 21.259188 " transform="matrix(1,0,0,-1,56.855,56.892)"/>
<path style="fill:none;stroke-width:0.3985;stroke-linecap:butt;stroke-linejoin:miter;stroke:rgb(0%,0%,0%);stroke-opacity:1;stroke-miterlimit:10;" d="M 0.00046875 42.520906 L 16.36375 42.517 C 33.371563 42.517 41.539531 41.438875 49.098125 28.345125 " transform="matrix(1,0,0,-1,56.855,56.892)"/>
<path style=" stroke:none;fill-rule:nonzero;fill:rgb(100%,100%,100%);fill-opacity:1;" d="M 32.304688 42.71875 L 40.488281 28.546875 C 46.160156 18.726562 45.515625 14.371094 56.855469 14.371094 L 56.855469 0.199219 C 41.738281 0.199219 36.71875 6.730469 28.214844 21.460938 L 20.03125 35.632812 "/>
<path style="fill:none;stroke-width:0.3985;stroke-linecap:butt;stroke-linejoin:miter;stroke:rgb(0%,0%,0%);stroke-opacity:1;stroke-miterlimit:10;" d="M -24.550312 14.17325 L -16.366719 28.345125 C -10.694844 38.165438 -11.339375 42.520906 0.00046875 42.520906 " transform="matrix(1,0,0,-1,56.855,56.892)"/>
<path style="fill:none;stroke-width:0.3985;stroke-linecap:butt;stroke-linejoin:miter;stroke:rgb(0%,0%,0%);stroke-opacity:1;stroke-miterlimit:10;" d="M -36.82375 21.259188 L -28.640156 35.431063 C -20.13625 50.161531 -15.116719 56.692781 0.00046875 56.692781 " transform="matrix(1,0,0,-1,56.855,56.892)"/>
<path style=" stroke:none;fill-rule:nonzero;fill:rgb(100%,100%,100%);fill-opacity:1;" d="M 32.304688 71.066406 L 24.125 56.890625 C 18.457031 47.074219 14.363281 45.453125 20.03125 35.632812 L 7.757812 28.546875 C 0.199219 41.636719 3.347656 49.25 11.851562 63.980469 L 20.03125 78.152344 "/>
<path style="fill:none;stroke-width:0.3985;stroke-linecap:butt;stroke-linejoin:miter;stroke:rgb(0%,0%,0%);stroke-opacity:1;stroke-miterlimit:10;" d="M -24.550312 -14.174406 L -32.73 0.001375 C -38.397969 9.817781 -42.491719 11.438875 -36.82375 21.259188 " transform="matrix(1,0,0,-1,56.855,56.892)"/>
<path style="fill:none;stroke-width:0.3985;stroke-linecap:butt;stroke-linejoin:miter;stroke:rgb(0%,0%,0%);stroke-opacity:1;stroke-miterlimit:10;" d="M -36.82375 -21.260344 L -45.003437 -7.088469 C -53.507344 7.642 -56.655781 15.255281 -49.097187 28.345125 " transform="matrix(1,0,0,-1,56.855,56.892)"/>
<path style=" stroke:none;fill-rule:nonzero;fill:rgb(100%,100%,100%);fill-opacity:1;" d="M 56.855469 85.238281 L 40.488281 85.238281 C 29.152344 85.238281 25.699219 87.972656 20.03125 78.152344 L 7.757812 85.238281 C 15.316406 98.332031 23.480469 99.410156 40.488281 99.410156 L 56.855469 99.414062 "/>
<path style="fill:none;stroke-width:0.3985;stroke-linecap:butt;stroke-linejoin:miter;stroke:rgb(0%,0%,0%);stroke-opacity:1;stroke-miterlimit:10;" d="M 0.00046875 -28.346281 L -16.366719 -28.346281 C -27.702656 -28.346281 -31.155781 -31.080656 -36.82375 -21.260344 " transform="matrix(1,0,0,-1,56.855,56.892)"/>
<path style="fill:none;stroke-width:0.3985;stroke-linecap:butt;stroke-linejoin:miter;stroke:rgb(0%,0%,0%);stroke-opacity:1;stroke-miterlimit:10;" d="M 0.00046875 -42.522062 L -16.366719 -42.518156 C -33.374531 -42.518156 -41.538594 -41.440031 -49.097187 -28.346281 " transform="matrix(1,0,0,-1,56.855,56.892)"/>
<g clip-path="url(#clip5)" clip-rule="nonzero">
<path style=" stroke:none;fill-rule:nonzero;fill:rgb(100%,100%,100%);fill-opacity:1;" d="M 81.402344 71.066406 L 73.21875 85.238281 C 67.550781 95.054688 68.195312 99.414062 56.855469 99.414062 L 56.855469 113.585938 C 71.972656 113.585938 76.992188 107.054688 85.496094 92.324219 L 93.679688 78.152344 "/>
</g>
<path style="fill:none;stroke-width:0.3985;stroke-linecap:butt;stroke-linejoin:miter;stroke:rgb(0%,0%,0%);stroke-opacity:1;stroke-miterlimit:10;" d="M 24.547344 -14.174406 L 16.36375 -28.346281 C 10.695781 -38.162687 11.340313 -42.522062 0.00046875 -42.522062 " transform="matrix(1,0,0,-1,56.855,56.892)"/>
<g clip-path="url(#clip6)" clip-rule="nonzero">
<path style="fill:none;stroke-width:0.3985;stroke-linecap:butt;stroke-linejoin:miter;stroke:rgb(0%,0%,0%);stroke-opacity:1;stroke-miterlimit:10;" d="M 36.824688 -21.260344 L 28.641094 -35.432219 C 20.137188 -50.162687 15.117656 -56.693937 0.00046875 -56.693937 " transform="matrix(1,0,0,-1,56.855,56.892)"/>
</g>
</g>
</svg>
