<?xml version="1.0" encoding="UTF-8"?>
<svg xmlns="http://www.w3.org/2000/svg" xmlns:xlink="http://www.w3.org/1999/xlink" width="87.024pt" height="88.936pt" viewBox="0 0 87.024 88.936" version="1.1">
<defs>
<clipPath id="clip1">
  <path d="M 12 56 L 44 56 L 44 88.9375 L 12 88.9375 Z M 12 56 "/>
</clipPath>
<clipPath id="clip2">
  <path d="M 1 45 L 55 45 L 55 88.9375 L 1 88.9375 Z M 1 45 "/>
</clipPath>
<clipPath id="clip3">
  <path d="M 32 49 L 87.023438 49 L 87.023438 88.9375 L 32 88.9375 Z M 32 49 "/>
</clipPath>
<clipPath id="clip4">
  <path d="M 53 11 L 87.023438 11 L 87.023438 74 L 53 74 Z M 53 11 "/>
</clipPath>
<clipPath id="clip5">
  <path d="M 32 0 L 87.023438 0 L 87.023438 40 L 32 40 Z M 32 0 "/>
</clipPath>
<clipPath id="clip6">
  <path d="M 0 49 L 55 49 L 55 88.9375 L 0 88.9375 Z M 0 49 "/>
</clipPath>
<clipPath id="clip7">
  <path d="M 43 56 L 75 56 L 75 88.9375 L 43 88.9375 Z M 43 56 "/>
</clipPath>
<clipPath id="clip8">
  <path d="M 32 45 L 86 45 L 86 88.9375 L 32 88.9375 Z M 32 45 "/>
</clipPath>
<clipPath id="clip9">
  <path d="M 53 15 L 87.023438 15 L 87.023438 78 L 53 78 Z M 53 15 "/>
</clipPath>
</defs>
<g id="surface56">
<path style=" stroke:none;fill-rule:nonzero;fill:rgb(100%,100%,100%);fill-opacity:1;" d="M 43.511719 19.917969 L 29.339844 19.917969 C 23.492188 19.917969 18.089844 23.039062 15.167969 28.101562 L 5.347656 22.433594 C 10.296875 13.863281 19.441406 8.582031 29.339844 8.582031 L 43.511719 8.582031 "/>
<path style="fill:none;stroke-width:0.79701;stroke-linecap:butt;stroke-linejoin:miter;stroke:rgb(0%,0%,0%);stroke-opacity:1;stroke-miterlimit:10;" d="M -0.00028125 24.550031 L -14.172156 24.550031 C -20.019813 24.550031 -25.422156 21.428938 -28.344031 16.366438 M -38.164344 22.034406 C -33.215125 30.604719 -24.070594 35.885969 -14.172156 35.885969 L -0.00028125 35.885969 " transform="matrix(1,0,0,-1,43.512,44.468)"/>
<path style=" stroke:none;fill-rule:nonzero;fill:rgb(100%,100%,100%);fill-opacity:1;" d="M 22.25 32.195312 L 15.164062 44.46875 C 12.242188 49.53125 12.242188 55.769531 15.164062 60.832031 L 5.347656 66.5 C 0.398438 57.933594 0.398438 47.367188 5.347656 38.796875 L 12.433594 26.523438 "/>
<path style="fill:none;stroke-width:0.79701;stroke-linecap:butt;stroke-linejoin:miter;stroke:rgb(0%,0%,0%);stroke-opacity:1;stroke-miterlimit:10;" d="M -21.262 12.272688 L -28.347938 -0.00075 C -31.269813 -5.06325 -31.269813 -11.301531 -28.347938 -16.364031 M -38.164344 -22.032 C -43.113563 -13.465594 -43.113563 -2.899187 -38.164344 5.671125 L -31.078406 17.944563 " transform="matrix(1,0,0,-1,43.512,44.468)"/>
<g clip-path="url(#clip1)" clip-rule="nonzero">
<path style=" stroke:none;fill-rule:nonzero;fill:rgb(100%,100%,100%);fill-opacity:1;" d="M 22.25 56.742188 L 29.339844 69.015625 C 32.261719 74.078125 37.664062 77.199219 43.511719 77.199219 L 43.511719 88.539062 C 33.613281 88.539062 24.46875 83.257812 19.519531 74.6875 L 12.433594 62.410156 "/>
</g>
<g clip-path="url(#clip2)" clip-rule="nonzero">
<path style="fill:none;stroke-width:0.79701;stroke-linecap:butt;stroke-linejoin:miter;stroke:rgb(0%,0%,0%);stroke-opacity:1;stroke-miterlimit:10;" d="M -21.262 -12.274187 L -14.172156 -24.547625 C -11.250281 -29.610125 -5.847938 -32.731219 -0.00028125 -32.731219 M -0.00028125 -44.071062 C -9.898719 -44.071062 -19.04325 -38.789812 -23.992469 -30.2195 L -31.078406 -17.942156 " transform="matrix(1,0,0,-1,43.512,44.468)"/>
</g>
<path style=" stroke:none;fill-rule:nonzero;fill:rgb(100%,100%,100%);fill-opacity:1;" d="M 43.511719 69.015625 L 57.683594 69.015625 C 63.53125 69.015625 68.933594 65.898438 71.859375 60.835938 L 81.675781 66.503906 C 76.730469 75.074219 67.582031 80.355469 57.683594 80.355469 L 43.511719 80.355469 "/>
<g clip-path="url(#clip3)" clip-rule="nonzero">
<path style="fill:none;stroke-width:0.79701;stroke-linecap:butt;stroke-linejoin:miter;stroke:rgb(0%,0%,0%);stroke-opacity:1;stroke-miterlimit:10;" d="M -0.00028125 -24.547625 L 14.171594 -24.547625 C 20.01925 -24.547625 25.421594 -21.430437 28.347375 -16.367937 M 38.163781 -22.035906 C 33.218469 -30.606219 24.070031 -35.887469 14.171594 -35.887469 L -0.00028125 -35.887469 " transform="matrix(1,0,0,-1,43.512,44.468)"/>
</g>
<path style=" stroke:none;fill-rule:nonzero;fill:rgb(100%,100%,100%);fill-opacity:1;" d="M 64.773438 56.742188 L 71.859375 44.46875 C 74.78125 39.40625 74.78125 33.164062 71.859375 28.101562 L 81.679688 22.433594 C 86.625 31.003906 86.625 41.566406 81.679688 50.136719 L 74.589844 62.410156 "/>
<g clip-path="url(#clip4)" clip-rule="nonzero">
<path style="fill:none;stroke-width:0.79701;stroke-linecap:butt;stroke-linejoin:miter;stroke:rgb(0%,0%,0%);stroke-opacity:1;stroke-miterlimit:10;" d="M 21.261437 -12.274187 L 28.347375 -0.00075 C 31.26925 5.06175 31.26925 11.303938 28.347375 16.366438 M 38.167687 22.034406 C 43.113 13.464094 43.113 2.901594 38.167687 -5.668719 L 31.077844 -17.942156 " transform="matrix(1,0,0,-1,43.512,44.468)"/>
</g>
<path style=" stroke:none;fill-rule:nonzero;fill:rgb(100%,100%,100%);fill-opacity:1;" d="M 64.773438 32.195312 L 57.683594 19.917969 C 54.761719 14.855469 49.359375 11.738281 43.511719 11.738281 L 43.511719 0.398438 C 53.410156 0.398438 62.558594 5.679688 67.503906 14.25 L 74.589844 26.523438 "/>
<path style="fill:none;stroke-width:0.79701;stroke-linecap:butt;stroke-linejoin:miter;stroke:rgb(0%,0%,0%);stroke-opacity:1;stroke-miterlimit:10;" d="M 21.261437 12.272688 L 14.171594 24.550031 C 11.249719 29.612531 5.847375 32.729719 -0.00028125 32.729719 M -0.00028125 44.069563 C 9.898156 44.069563 19.046594 38.788313 23.991906 30.218 L 31.077844 17.944563 " transform="matrix(1,0,0,-1,43.512,44.468)"/>
<path style=" stroke:none;fill-rule:nonzero;fill:rgb(100%,100%,100%);fill-opacity:1;" d="M 57.683594 8.582031 C 67.582031 8.582031 76.730469 13.863281 81.675781 22.433594 L 71.859375 28.101562 C 68.933594 23.039062 63.53125 19.917969 57.683594 19.917969 L 43.511719 19.917969 L 43.511719 8.582031 Z M 57.683594 8.582031 "/>
<g clip-path="url(#clip5)" clip-rule="nonzero">
<path style="fill:none;stroke-width:0.79701;stroke-linecap:butt;stroke-linejoin:miter;stroke:rgb(0%,0%,0%);stroke-opacity:1;stroke-miterlimit:10;" d="M -0.00028125 35.885969 L 14.171594 35.885969 C 24.070031 35.885969 33.218469 30.604719 38.163781 22.034406 M 28.347375 16.366438 C 25.421594 21.428938 20.01925 24.550031 14.171594 24.550031 L -0.00028125 24.550031 " transform="matrix(1,0,0,-1,43.512,44.468)"/>
</g>
<path style=" stroke:none;fill-rule:nonzero;fill:rgb(100%,100%,100%);fill-opacity:1;" d="M 19.519531 14.25 C 24.46875 5.679688 33.613281 0.398438 43.511719 0.398438 L 43.511719 11.738281 C 37.664062 11.738281 32.261719 14.855469 29.339844 19.917969 L 22.25 32.195312 L 12.433594 26.523438 Z M 19.519531 14.25 "/>
<path style="fill:none;stroke-width:0.79701;stroke-linecap:butt;stroke-linejoin:miter;stroke:rgb(0%,0%,0%);stroke-opacity:1;stroke-miterlimit:10;" d="M -31.078406 17.944563 L -23.992469 30.218 C -19.04325 38.788313 -9.898719 44.069563 -0.00028125 44.069563 M -0.00028125 32.729719 C -5.847938 32.729719 -11.250281 29.612531 -14.172156 24.550031 L -21.262 12.272688 " transform="matrix(1,0,0,-1,43.512,44.468)"/>
<path style=" stroke:none;fill-rule:nonzero;fill:rgb(100%,100%,100%);fill-opacity:1;" d="M 5.347656 50.136719 C 0.398438 41.566406 0.398438 31.003906 5.347656 22.433594 L 15.164062 28.101562 C 12.242188 33.164062 12.242188 39.40625 15.164062 44.46875 L 22.25 56.742188 L 12.433594 62.410156 Z M 5.347656 50.136719 "/>
<path style="fill:none;stroke-width:0.79701;stroke-linecap:butt;stroke-linejoin:miter;stroke:rgb(0%,0%,0%);stroke-opacity:1;stroke-miterlimit:10;" d="M -31.078406 -17.942156 L -38.164344 -5.668719 C -43.113563 2.901594 -43.113563 13.464094 -38.164344 22.034406 M -28.347938 16.366438 C -31.269813 11.303938 -31.269813 5.06175 -28.347938 -0.00075 L -21.262 -12.274187 " transform="matrix(1,0,0,-1,43.512,44.468)"/>
<path style=" stroke:none;fill-rule:nonzero;fill:rgb(100%,100%,100%);fill-opacity:1;" d="M 29.339844 80.355469 C 19.441406 80.355469 10.292969 75.074219 5.347656 66.503906 L 15.167969 60.835938 C 18.089844 65.898438 23.492188 69.015625 29.339844 69.015625 L 43.511719 69.015625 L 43.511719 80.355469 Z M 29.339844 80.355469 "/>
<g clip-path="url(#clip6)" clip-rule="nonzero">
<path style="fill:none;stroke-width:0.79701;stroke-linecap:butt;stroke-linejoin:miter;stroke:rgb(0%,0%,0%);stroke-opacity:1;stroke-miterlimit:10;" d="M -0.00028125 -35.887469 L -14.172156 -35.887469 C -24.070594 -35.887469 -33.219031 -30.606219 -38.164344 -22.035906 M -28.344031 -16.367937 C -25.422156 -21.430437 -20.019813 -24.547625 -14.172156 -24.547625 L -0.00028125 -24.547625 " transform="matrix(1,0,0,-1,43.512,44.468)"/>
</g>
<g clip-path="url(#clip7)" clip-rule="nonzero">
<path style=" stroke:none;fill-rule:nonzero;fill:rgb(100%,100%,100%);fill-opacity:1;" d="M 67.503906 74.6875 C 62.558594 83.257812 53.410156 88.539062 43.511719 88.539062 L 43.511719 77.199219 C 49.359375 77.199219 54.761719 74.078125 57.683594 69.015625 L 64.773438 56.742188 L 74.589844 62.410156 Z M 67.503906 74.6875 "/>
</g>
<g clip-path="url(#clip8)" clip-rule="nonzero">
<path style="fill:none;stroke-width:0.79701;stroke-linecap:butt;stroke-linejoin:miter;stroke:rgb(0%,0%,0%);stroke-opacity:1;stroke-miterlimit:10;" d="M 31.077844 -17.942156 L 23.991906 -30.2195 C 19.046594 -38.789812 9.898156 -44.071062 -0.00028125 -44.071062 M -0.00028125 -32.731219 C 5.847375 -32.731219 11.249719 -29.610125 14.171594 -24.547625 L 21.261437 -12.274187 " transform="matrix(1,0,0,-1,43.512,44.468)"/>
</g>
<path style=" stroke:none;fill-rule:nonzero;fill:rgb(100%,100%,100%);fill-opacity:1;" d="M 81.679688 38.796875 C 86.625 47.367188 86.625 57.933594 81.679688 66.5 L 71.859375 60.832031 C 74.78125 55.769531 74.78125 49.53125 71.859375 44.46875 L 64.773438 32.195312 L 74.589844 26.523438 Z M 81.679688 38.796875 "/>
<g clip-path="url(#clip9)" clip-rule="nonzero">
<path style="fill:none;stroke-width:0.79701;stroke-linecap:butt;stroke-linejoin:miter;stroke:rgb(0%,0%,0%);stroke-opacity:1;stroke-miterlimit:10;" d="M 31.077844 17.944563 L 38.167687 5.671125 C 43.113 -2.899187 43.113 -13.465594 38.167687 -22.032 M 28.347375 -16.364031 C 31.26925 -11.301531 31.26925 -5.06325 28.347375 -0.00075 L 21.261437 12.272688 " transform="matrix(1,0,0,-1,43.512,44.468)"/>
</g>
</g>
</svg>
