<?xml version="1.0" encoding="UTF-8"?>
<svg xmlns="http://www.w3.org/2000/svg" xmlns:xlink="http://www.w3.org/1999/xlink" width="136.702pt" height="136.702pt" viewBox="0 0 136.702 136.702" version="1.1">
<g id="surface41">
<path style=" stroke:none;fill-rule:nonzero;fill:rgb(100%,100%,100%);fill-opacity:1;" d="M 88.394531 48.308594 L 68.351562 28.261719 C 56.324219 16.234375 50.3125 26.257812 38.285156 38.285156 L 28.261719 28.261719 C 44.296875 12.226562 60.332031 0.199219 78.371094 18.238281 L 98.417969 38.285156 "/>
<path style="fill:none;stroke-width:0.3985;stroke-linecap:butt;stroke-linejoin:miter;stroke:rgb(0%,0%,0%);stroke-opacity:1;stroke-miterlimit:10;" d="M 20.043531 20.042406 L 0.0005625 40.089281 C -12.026781 52.116625 -18.0385 42.093187 -30.065844 30.065844 " transform="matrix(1,0,0,-1,68.351,68.351)"/>
<path style="fill:none;stroke-width:0.3985;stroke-linecap:butt;stroke-linejoin:miter;stroke:rgb(0%,0%,0%);stroke-opacity:1;stroke-miterlimit:10;" d="M -40.089281 40.089281 C -24.054125 56.124437 -8.018969 68.151781 10.020094 50.112719 L 30.066969 30.065844 " transform="matrix(1,0,0,-1,68.351,68.351)"/>
<path style=" stroke:none;fill-rule:nonzero;fill:rgb(100%,100%,100%);fill-opacity:1;" d="M 48.308594 48.308594 L 28.261719 68.351562 C 16.234375 80.378906 26.257812 86.390625 38.285156 98.417969 L 28.261719 108.441406 C 12.226562 92.40625 0.199219 76.367188 18.238281 58.328125 L 38.285156 38.285156 "/>
<path style="fill:none;stroke-width:0.3985;stroke-linecap:butt;stroke-linejoin:miter;stroke:rgb(0%,0%,0%);stroke-opacity:1;stroke-miterlimit:10;" d="M -20.042406 20.042406 L -40.089281 -0.0005625 C -52.116625 -12.027906 -42.093187 -18.039625 -30.065844 -30.066969 " transform="matrix(1,0,0,-1,68.351,68.351)"/>
<path style="fill:none;stroke-width:0.3985;stroke-linecap:butt;stroke-linejoin:miter;stroke:rgb(0%,0%,0%);stroke-opacity:1;stroke-miterlimit:10;" d="M -40.089281 -40.090406 C -56.124437 -24.05525 -68.151781 -8.016188 -50.112719 10.022875 L -30.065844 30.065844 " transform="matrix(1,0,0,-1,68.351,68.351)"/>
<path style=" stroke:none;fill-rule:nonzero;fill:rgb(100%,100%,100%);fill-opacity:1;" d="M 48.308594 88.394531 L 68.351562 108.441406 C 80.378906 120.46875 86.390625 110.445312 98.417969 98.417969 L 108.441406 108.441406 C 92.40625 124.472656 76.367188 136.503906 58.328125 118.464844 L 38.285156 98.417969 "/>
<path style="fill:none;stroke-width:0.3985;stroke-linecap:butt;stroke-linejoin:miter;stroke:rgb(0%,0%,0%);stroke-opacity:1;stroke-miterlimit:10;" d="M -20.042406 -20.043531 L 0.0005625 -40.090406 C 12.027906 -52.11775 18.039625 -42.094313 30.066969 -30.066969 " transform="matrix(1,0,0,-1,68.351,68.351)"/>
<path style="fill:none;stroke-width:0.3985;stroke-linecap:butt;stroke-linejoin:miter;stroke:rgb(0%,0%,0%);stroke-opacity:1;stroke-miterlimit:10;" d="M 40.090406 -40.090406 C 24.05525 -56.121656 8.016188 -68.152906 -10.022875 -50.113844 L -30.065844 -30.066969 " transform="matrix(1,0,0,-1,68.351,68.351)"/>
<path style=" stroke:none;fill-rule:nonzero;fill:rgb(100%,100%,100%);fill-opacity:1;" d="M 88.394531 88.394531 L 108.441406 68.351562 C 120.46875 56.324219 110.445312 50.3125 98.417969 38.285156 L 108.441406 28.261719 C 124.472656 44.296875 136.503906 60.332031 118.464844 78.371094 L 98.417969 98.417969 "/>
<path style="fill:none;stroke-width:0.3985;stroke-linecap:butt;stroke-linejoin:miter;stroke:rgb(0%,0%,0%);stroke-opacity:1;stroke-miterlimit:10;" d="M 20.043531 -20.043531 L 40.090406 -0.0005625 C 52.11775 12.026781 42.094313 18.0385 30.066969 30.065844 " transform="matrix(1,0,0,-1,68.351,68.351)"/>
<path style="fill:none;stroke-width:0.3985;stroke-linecap:butt;stroke-linejoin:miter;stroke:rgb(0%,0%,0%);stroke-opacity:1;stroke-miterlimit:10;" d="M 40.090406 40.089281 C 56.121656 24.054125 68.152906 8.018969 50.113844 -10.020094 L 30.066969 -30.066969 " transform="matrix(1,0,0,-1,68.351,68.351)"/>
<path style=" stroke:none;fill-rule:nonzero;fill:rgb(100%,100%,100%);fill-opacity:1;" d="M 88.394531 48.308594 L 108.441406 68.351562 C 120.46875 80.378906 110.445312 86.390625 98.417969 98.417969 L 108.441406 108.441406 C 124.472656 92.40625 136.503906 76.367188 118.464844 58.328125 L 98.417969 38.285156 "/>
<path style="fill:none;stroke-width:0.3985;stroke-linecap:butt;stroke-linejoin:miter;stroke:rgb(0%,0%,0%);stroke-opacity:1;stroke-miterlimit:10;" d="M 20.043531 20.042406 L 40.090406 -0.0005625 C 52.11775 -12.027906 42.094313 -18.039625 30.066969 -30.066969 " transform="matrix(1,0,0,-1,68.351,68.351)"/>
<path style="fill:none;stroke-width:0.3985;stroke-linecap:butt;stroke-linejoin:miter;stroke:rgb(0%,0%,0%);stroke-opacity:1;stroke-miterlimit:10;" d="M 30.066969 30.065844 L 50.113844 10.022875 C 68.152906 -8.016188 56.121656 -24.05525 40.090406 -40.090406 " transform="matrix(1,0,0,-1,68.351,68.351)"/>
<path style=" stroke:none;fill-rule:nonzero;fill:rgb(100%,100%,100%);fill-opacity:1;" d="M 48.308594 48.308594 L 68.351562 28.261719 C 80.378906 16.234375 86.390625 26.257812 98.417969 38.285156 L 108.441406 28.261719 C 92.40625 12.226562 76.367188 0.199219 58.328125 18.238281 L 38.285156 38.285156 "/>
<path style="fill:none;stroke-width:0.3985;stroke-linecap:butt;stroke-linejoin:miter;stroke:rgb(0%,0%,0%);stroke-opacity:1;stroke-miterlimit:10;" d="M -20.042406 20.042406 L 0.0005625 40.089281 C 12.027906 52.116625 18.039625 42.093187 30.066969 30.065844 " transform="matrix(1,0,0,-1,68.351,68.351)"/>
<path style="fill:none;stroke-width:0.3985;stroke-linecap:butt;stroke-linejoin:miter;stroke:rgb(0%,0%,0%);stroke-opacity:1;stroke-miterlimit:10;" d="M -30.065844 30.065844 L -10.022875 50.112719 C 8.016188 68.151781 24.05525 56.124437 40.090406 40.089281 " transform="matrix(1,0,0,-1,68.351,68.351)"/>
<path style=" stroke:none;fill-rule:nonzero;fill:rgb(100%,100%,100%);fill-opacity:1;" d="M 48.308594 88.394531 L 28.261719 68.351562 C 16.234375 56.324219 26.257812 50.3125 38.285156 38.285156 L 28.261719 28.261719 C 12.226562 44.296875 0.199219 60.332031 18.238281 78.371094 L 38.285156 98.417969 "/>
<path style="fill:none;stroke-width:0.3985;stroke-linecap:butt;stroke-linejoin:miter;stroke:rgb(0%,0%,0%);stroke-opacity:1;stroke-miterlimit:10;" d="M -20.042406 -20.043531 L -40.089281 -0.0005625 C -52.116625 12.026781 -42.093187 18.0385 -30.065844 30.065844 " transform="matrix(1,0,0,-1,68.351,68.351)"/>
<path style="fill:none;stroke-width:0.3985;stroke-linecap:butt;stroke-linejoin:miter;stroke:rgb(0%,0%,0%);stroke-opacity:1;stroke-miterlimit:10;" d="M -30.065844 -30.066969 L -50.112719 -10.020094 C -68.151781 8.018969 -56.124437 24.054125 -40.089281 40.089281 " transform="matrix(1,0,0,-1,68.351,68.351)"/>
<path style=" stroke:none;fill-rule:nonzero;fill:rgb(100%,100%,100%);fill-opacity:1;" d="M 88.394531 88.394531 L 68.351562 108.441406 C 56.324219 120.46875 50.3125 110.445312 38.285156 98.417969 L 28.261719 108.441406 C 44.296875 124.472656 60.332031 136.503906 78.371094 118.464844 L 98.417969 98.417969 "/>
<path style="fill:none;stroke-width:0.3985;stroke-linecap:butt;stroke-linejoin:miter;stroke:rgb(0%,0%,0%);stroke-opacity:1;stroke-miterlimit:10;" d="M 20.043531 -20.043531 L 0.0005625 -40.090406 C -12.026781 -52.11775 -18.0385 -42.094313 -30.065844 -30.066969 " transform="matrix(1,0,0,-1,68.351,68.351)"/>
<path style="fill:none;stroke-width:0.3985;stroke-linecap:butt;stroke-linejoin:miter;stroke:rgb(0%,0%,0%);stroke-opacity:1;stroke-miterlimit:10;" d="M 30.066969 -30.066969 L 10.020094 -50.113844 C -8.018969 -68.152906 -24.054125 -56.121656 -40.089281 -40.090406 " transform="matrix(1,0,0,-1,68.351,68.351)"/>
</g>
</svg>
