<?xml version="1.0" encoding="UTF-8"?>
<svg xmlns="http://www.w3.org/2000/svg" xmlns:xlink="http://www.w3.org/1999/xlink" width="131.54pt" height="138.29pt" viewBox="0 0 131.54 138.29" version="1.1">
<defs>
<clipPath id="clip1">
  <path d="M 58 69 L 131.539062 69 L 131.539062 111 L 58 111 Z M 58 69 "/>
</clipPath>
<clipPath id="clip2">
  <path d="M 54 63 L 131.539062 63 L 131.539062 111 L 54 111 Z M 54 63 "/>
</clipPath>
<clipPath id="clip3">
  <path d="M 52 63 L 131.539062 63 L 131.539062 117 L 52 117 Z M 52 63 "/>
</clipPath>
<clipPath id="clip4">
  <path d="M 58 27 L 131.539062 27 L 131.539062 70 L 58 70 Z M 58 27 "/>
</clipPath>
<clipPath id="clip5">
  <path d="M 54 27 L 131.539062 27 L 131.539062 75 L 54 75 Z M 54 27 "/>
</clipPath>
<clipPath id="clip6">
  <path d="M 52 21 L 131.539062 21 L 131.539062 75 L 52 75 Z M 52 21 "/>
</clipPath>
</defs>
<g id="surface91">
<path style=" stroke:none;fill-rule:nonzero;fill:rgb(100%,100%,100%);fill-opacity:1;" d="M 91.910156 52.484375 L 79.804688 35.820312 C 63.144531 12.890625 39.773438 12.886719 23.113281 35.820312 L 18.527344 32.488281 C 36.851562 7.261719 64.398438 4.96875 84.390625 32.488281 L 96.496094 49.152344 "/>
<path style="fill:none;stroke-width:0.3985;stroke-linecap:butt;stroke-linejoin:miter;stroke:rgb(0%,0%,0%);stroke-opacity:1;stroke-miterlimit:10;" d="M 22.932156 16.660625 L 10.826688 33.324687 C -5.833469 56.254375 -29.204562 56.258281 -45.864719 33.324687 " transform="matrix(1,0,0,-1,68.978,69.145)"/>
<path style="fill:none;stroke-width:0.3985;stroke-linecap:butt;stroke-linejoin:miter;stroke:rgb(0%,0%,0%);stroke-opacity:1;stroke-miterlimit:10;" d="M -50.450656 36.656719 C -32.126437 61.883281 -4.579562 64.17625 15.412625 36.656719 L 27.518094 19.992656 " transform="matrix(1,0,0,-1,68.978,69.145)"/>
<path style=" stroke:none;fill-rule:nonzero;fill:rgb(100%,100%,100%);fill-opacity:1;" d="M 60.21875 42.183594 L 40.632812 48.550781 C 13.671875 57.308594 6.449219 79.535156 23.113281 102.46875 L 18.527344 105.800781 C 0.199219 80.574219 6.527344 53.671875 38.878906 43.160156 L 58.464844 36.792969 "/>
<path style="fill:none;stroke-width:0.3985;stroke-linecap:butt;stroke-linejoin:miter;stroke:rgb(0%,0%,0%);stroke-opacity:1;stroke-miterlimit:10;" d="M -8.75925 26.961406 L -28.345187 20.594219 C -55.306125 11.836406 -62.528781 -10.390156 -45.864719 -33.32375 " transform="matrix(1,0,0,-1,68.978,69.145)"/>
<path style="fill:none;stroke-width:0.3985;stroke-linecap:butt;stroke-linejoin:miter;stroke:rgb(0%,0%,0%);stroke-opacity:1;stroke-miterlimit:10;" d="M -50.450656 -36.655781 C -68.778781 -11.429219 -62.450656 15.473125 -30.099094 25.984844 L -10.513156 32.352031 " transform="matrix(1,0,0,-1,68.978,69.145)"/>
<path style=" stroke:none;fill-rule:nonzero;fill:rgb(100%,100%,100%);fill-opacity:1;" d="M 40.632812 69.144531 L 40.632812 89.738281 C 40.632812 118.085938 59.539062 131.824219 86.496094 123.0625 L 88.25 128.457031 C 58.59375 138.089844 34.960938 123.757812 34.960938 89.738281 L 34.960938 69.144531 "/>
<path style="fill:none;stroke-width:0.3985;stroke-linecap:butt;stroke-linejoin:miter;stroke:rgb(0%,0%,0%);stroke-opacity:1;stroke-miterlimit:10;" d="M -28.345187 0.00046875 L -28.345187 -20.593281 C -28.345187 -48.940938 -9.438937 -62.679219 17.518094 -53.9175 " transform="matrix(1,0,0,-1,68.978,69.145)"/>
<path style="fill:none;stroke-width:0.3985;stroke-linecap:butt;stroke-linejoin:miter;stroke:rgb(0%,0%,0%);stroke-opacity:1;stroke-miterlimit:10;" d="M 19.272 -59.312031 C -10.38425 -68.944844 -34.017062 -54.612813 -34.017062 -20.593281 L -34.017062 0.00046875 " transform="matrix(1,0,0,-1,68.978,69.145)"/>
<g clip-path="url(#clip1)" clip-rule="nonzero">
<path style=" stroke:none;fill-rule:nonzero;fill:rgb(100%,100%,100%);fill-opacity:1;" d="M 60.21875 96.105469 L 79.804688 102.46875 C 106.765625 111.226562 125.671875 97.492188 125.671875 69.144531 L 131.339844 69.144531 C 131.339844 100.328125 110.40625 118.371094 78.054688 107.859375 L 58.464844 101.496094 "/>
</g>
<g clip-path="url(#clip2)" clip-rule="nonzero">
<path style="fill:none;stroke-width:0.3985;stroke-linecap:butt;stroke-linejoin:miter;stroke:rgb(0%,0%,0%);stroke-opacity:1;stroke-miterlimit:10;" d="M -8.75925 -26.960469 L 10.826688 -33.32375 C 37.787625 -42.081563 56.693875 -28.347188 56.693875 0.00046875 " transform="matrix(1,0,0,-1,68.978,69.145)"/>
</g>
<g clip-path="url(#clip3)" clip-rule="nonzero">
<path style="fill:none;stroke-width:0.3985;stroke-linecap:butt;stroke-linejoin:miter;stroke:rgb(0%,0%,0%);stroke-opacity:1;stroke-miterlimit:10;" d="M 62.361844 0.00046875 C 62.361844 -31.183125 41.42825 -49.226094 9.076688 -38.714375 L -10.513156 -32.351094 " transform="matrix(1,0,0,-1,68.978,69.145)"/>
</g>
<path style=" stroke:none;fill-rule:nonzero;fill:rgb(100%,100%,100%);fill-opacity:1;" d="M 91.910156 85.808594 L 104.015625 69.144531 C 120.679688 46.210938 113.457031 23.984375 86.496094 15.226562 L 88.25 9.835938 C 117.90625 19.46875 128.597656 44.957031 108.601562 72.476562 L 96.496094 89.140625 "/>
<path style="fill:none;stroke-width:0.3985;stroke-linecap:butt;stroke-linejoin:miter;stroke:rgb(0%,0%,0%);stroke-opacity:1;stroke-miterlimit:10;" d="M 22.932156 -16.663594 L 35.037625 0.00046875 C 51.701688 22.934062 44.479031 45.160625 17.518094 53.918437 " transform="matrix(1,0,0,-1,68.978,69.145)"/>
<path style="fill:none;stroke-width:0.3985;stroke-linecap:butt;stroke-linejoin:miter;stroke:rgb(0%,0%,0%);stroke-opacity:1;stroke-miterlimit:10;" d="M 19.272 59.309062 C 48.92825 49.67625 59.619656 24.187969 39.623563 -3.331563 L 27.518094 -19.995625 " transform="matrix(1,0,0,-1,68.978,69.145)"/>
<path style=" stroke:none;fill-rule:nonzero;fill:rgb(100%,100%,100%);fill-opacity:1;" d="M 91.910156 52.484375 L 104.015625 69.144531 C 120.679688 92.078125 113.457031 114.304688 86.496094 123.0625 L 88.25 128.457031 C 117.90625 118.820312 128.597656 93.332031 108.601562 65.8125 L 96.496094 49.152344 "/>
<path style="fill:none;stroke-width:0.3985;stroke-linecap:butt;stroke-linejoin:miter;stroke:rgb(0%,0%,0%);stroke-opacity:1;stroke-miterlimit:10;" d="M 22.932156 16.660625 L 35.037625 0.00046875 C 51.701688 -22.933125 44.479031 -45.159688 17.518094 -53.9175 " transform="matrix(1,0,0,-1,68.978,69.145)"/>
<path style="fill:none;stroke-width:0.3985;stroke-linecap:butt;stroke-linejoin:miter;stroke:rgb(0%,0%,0%);stroke-opacity:1;stroke-miterlimit:10;" d="M 27.518094 19.992656 L 39.623563 3.3325 C 59.619656 -24.187031 48.92825 -49.675313 19.272 -59.312031 " transform="matrix(1,0,0,-1,68.978,69.145)"/>
<g clip-path="url(#clip4)" clip-rule="nonzero">
<path style=" stroke:none;fill-rule:nonzero;fill:rgb(100%,100%,100%);fill-opacity:1;" d="M 60.21875 42.183594 L 79.804688 35.820312 C 106.765625 27.0625 125.671875 40.796875 125.671875 69.144531 L 131.339844 69.144531 C 131.339844 37.964844 110.40625 19.917969 78.054688 30.429688 L 58.464844 36.792969 "/>
</g>
<g clip-path="url(#clip5)" clip-rule="nonzero">
<path style="fill:none;stroke-width:0.3985;stroke-linecap:butt;stroke-linejoin:miter;stroke:rgb(0%,0%,0%);stroke-opacity:1;stroke-miterlimit:10;" d="M -8.75925 26.961406 L 10.826688 33.324687 C 37.787625 42.0825 56.693875 28.348125 56.693875 0.00046875 " transform="matrix(1,0,0,-1,68.978,69.145)"/>
</g>
<g clip-path="url(#clip6)" clip-rule="nonzero">
<path style="fill:none;stroke-width:0.3985;stroke-linecap:butt;stroke-linejoin:miter;stroke:rgb(0%,0%,0%);stroke-opacity:1;stroke-miterlimit:10;" d="M -10.513156 32.352031 L 9.076688 38.715312 C 41.42825 49.227031 62.361844 31.180156 62.361844 0.00046875 " transform="matrix(1,0,0,-1,68.978,69.145)"/>
</g>
<path style=" stroke:none;fill-rule:nonzero;fill:rgb(100%,100%,100%);fill-opacity:1;" d="M 40.632812 69.144531 L 40.632812 48.550781 C 40.632812 20.203125 59.539062 6.464844 86.496094 15.226562 L 88.25 9.835938 C 58.59375 0.199219 34.960938 14.535156 34.960938 48.550781 L 34.960938 69.144531 "/>
<path style="fill:none;stroke-width:0.3985;stroke-linecap:butt;stroke-linejoin:miter;stroke:rgb(0%,0%,0%);stroke-opacity:1;stroke-miterlimit:10;" d="M -28.345187 0.00046875 L -28.345187 20.594219 C -28.345187 48.941875 -9.438937 62.680156 17.518094 53.918437 " transform="matrix(1,0,0,-1,68.978,69.145)"/>
<path style="fill:none;stroke-width:0.3985;stroke-linecap:butt;stroke-linejoin:miter;stroke:rgb(0%,0%,0%);stroke-opacity:1;stroke-miterlimit:10;" d="M -34.017062 0.00046875 L -34.017062 20.594219 C -34.017062 54.609844 -10.38425 68.945781 19.272 59.309062 " transform="matrix(1,0,0,-1,68.978,69.145)"/>
<path style=" stroke:none;fill-rule:nonzero;fill:rgb(100%,100%,100%);fill-opacity:1;" d="M 60.21875 96.105469 L 40.632812 89.738281 C 13.671875 80.980469 6.449219 58.753906 23.113281 35.820312 L 18.527344 32.488281 C 0.199219 57.714844 6.527344 84.621094 38.878906 95.132812 L 58.464844 101.496094 "/>
<path style="fill:none;stroke-width:0.3985;stroke-linecap:butt;stroke-linejoin:miter;stroke:rgb(0%,0%,0%);stroke-opacity:1;stroke-miterlimit:10;" d="M -8.75925 -26.960469 L -28.345187 -20.593281 C -55.306125 -11.835469 -62.528781 10.391094 -45.864719 33.324687 " transform="matrix(1,0,0,-1,68.978,69.145)"/>
<path style="fill:none;stroke-width:0.3985;stroke-linecap:butt;stroke-linejoin:miter;stroke:rgb(0%,0%,0%);stroke-opacity:1;stroke-miterlimit:10;" d="M -10.513156 -32.351094 L -30.099094 -25.987813 C -62.450656 -15.476094 -68.778781 11.430156 -50.450656 36.656719 " transform="matrix(1,0,0,-1,68.978,69.145)"/>
<path style=" stroke:none;fill-rule:nonzero;fill:rgb(100%,100%,100%);fill-opacity:1;" d="M 91.910156 85.808594 L 79.804688 102.46875 C 63.144531 125.402344 39.773438 125.402344 23.113281 102.46875 L 18.527344 105.800781 C 36.851562 131.027344 64.398438 133.320312 84.390625 105.800781 L 96.496094 89.140625 "/>
<path style="fill:none;stroke-width:0.3985;stroke-linecap:butt;stroke-linejoin:miter;stroke:rgb(0%,0%,0%);stroke-opacity:1;stroke-miterlimit:10;" d="M 22.932156 -16.663594 L 10.826688 -33.32375 C -5.833469 -56.257344 -29.204562 -56.257344 -45.864719 -33.32375 " transform="matrix(1,0,0,-1,68.978,69.145)"/>
<path style="fill:none;stroke-width:0.3985;stroke-linecap:butt;stroke-linejoin:miter;stroke:rgb(0%,0%,0%);stroke-opacity:1;stroke-miterlimit:10;" d="M 27.518094 -19.995625 L 15.412625 -36.655781 C -4.579562 -64.175313 -32.126437 -61.882344 -50.450656 -36.655781 " transform="matrix(1,0,0,-1,68.978,69.145)"/>
</g>
</svg>
