<?xml version="1.0" encoding="UTF-8"?>
<svg xmlns="http://www.w3.org/2000/svg" xmlns:xlink="http://www.w3.org/1999/xlink" width="136.702pt" height="136.702pt" viewBox="0 0 136.702 136.702" version="1.1">
<defs>
<clipPath id="clip1">
  <path d="M 38 10 L 136.703125 10 L 136.703125 74 L 38 74 Z M 38 10 "/>
</clipPath>
<clipPath id="clip2">
  <path d="M 62 38 L 126 38 L 126 136.703125 L 62 136.703125 Z M 62 38 "/>
</clipPath>
<clipPath id="clip3">
  <path d="M 10 38 L 74 38 L 74 136.703125 L 10 136.703125 Z M 10 38 "/>
</clipPath>
<clipPath id="clip4">
  <path d="M 38 62 L 136.703125 62 L 136.703125 126 L 38 126 Z M 38 62 "/>
</clipPath>
</defs>
<g id="surface131">
<path style=" stroke:none;fill-rule:nonzero;fill:rgb(100%,100%,100%);fill-opacity:1;" d="M 48.308594 48.308594 L 68.351562 28.261719 C 88.394531 8.214844 125.042969 40.003906 125.042969 68.351562 L 130.714844 68.351562 C 130.714844 37.167969 88.394531 0.199219 64.34375 24.25 L 44.296875 44.296875 "/>
<path style="fill:none;stroke-width:0.3985;stroke-linecap:butt;stroke-linejoin:miter;stroke:rgb(0%,0%,0%);stroke-opacity:1;stroke-miterlimit:10;" d="M -20.042406 20.042406 L 0.0005625 40.089281 C 20.043531 60.136156 56.691969 28.347094 56.691969 -0.0005625 " transform="matrix(1,0,0,-1,68.351,68.351)"/>
<g clip-path="url(#clip1)" clip-rule="nonzero">
<path style="fill:none;stroke-width:0.3985;stroke-linecap:butt;stroke-linejoin:miter;stroke:rgb(0%,0%,0%);stroke-opacity:1;stroke-miterlimit:10;" d="M 62.363844 -0.0005625 C 62.363844 31.183031 20.043531 68.151781 -4.00725 44.101 L -24.054125 24.054125 " transform="matrix(1,0,0,-1,68.351,68.351)"/>
</g>
<path style=" stroke:none;fill-rule:nonzero;fill:rgb(100%,100%,100%);fill-opacity:1;" d="M 48.308594 88.394531 L 28.261719 68.351562 C 8.214844 48.308594 40.003906 11.65625 68.351562 11.65625 L 68.351562 5.988281 C 37.167969 5.988281 0.199219 48.308594 24.25 72.359375 L 44.296875 92.402344 "/>
<path style="fill:none;stroke-width:0.3985;stroke-linecap:butt;stroke-linejoin:miter;stroke:rgb(0%,0%,0%);stroke-opacity:1;stroke-miterlimit:10;" d="M -20.042406 -20.043531 L -40.089281 -0.0005625 C -60.136156 20.042406 -28.347094 56.69475 0.0005625 56.69475 " transform="matrix(1,0,0,-1,68.351,68.351)"/>
<path style="fill:none;stroke-width:0.3985;stroke-linecap:butt;stroke-linejoin:miter;stroke:rgb(0%,0%,0%);stroke-opacity:1;stroke-miterlimit:10;" d="M 0.0005625 62.362719 C -31.183031 62.362719 -68.151781 20.042406 -44.101 -4.008375 L -24.054125 -24.051344 " transform="matrix(1,0,0,-1,68.351,68.351)"/>
<path style=" stroke:none;fill-rule:nonzero;fill:rgb(100%,100%,100%);fill-opacity:1;" d="M 88.394531 88.394531 L 68.351562 108.441406 C 48.308594 128.484375 11.65625 96.699219 11.65625 68.351562 L 5.988281 68.351562 C 5.988281 99.53125 48.308594 136.503906 72.359375 112.449219 L 92.402344 92.402344 "/>
<path style="fill:none;stroke-width:0.3985;stroke-linecap:butt;stroke-linejoin:miter;stroke:rgb(0%,0%,0%);stroke-opacity:1;stroke-miterlimit:10;" d="M 20.043531 -20.043531 L 0.0005625 -40.090406 C -20.042406 -60.133375 -56.69475 -28.348219 -56.69475 -0.0005625 " transform="matrix(1,0,0,-1,68.351,68.351)"/>
<path style="fill:none;stroke-width:0.3985;stroke-linecap:butt;stroke-linejoin:miter;stroke:rgb(0%,0%,0%);stroke-opacity:1;stroke-miterlimit:10;" d="M -62.362719 -0.0005625 C -62.362719 -31.18025 -20.042406 -68.152906 4.008375 -44.098219 L 24.051344 -24.051344 " transform="matrix(1,0,0,-1,68.351,68.351)"/>
<path style=" stroke:none;fill-rule:nonzero;fill:rgb(100%,100%,100%);fill-opacity:1;" d="M 88.394531 48.308594 L 108.441406 68.351562 C 128.484375 88.394531 96.699219 125.042969 68.351562 125.042969 L 68.351562 130.714844 C 99.53125 130.714844 136.503906 88.394531 112.449219 64.34375 L 92.402344 44.296875 "/>
<path style="fill:none;stroke-width:0.3985;stroke-linecap:butt;stroke-linejoin:miter;stroke:rgb(0%,0%,0%);stroke-opacity:1;stroke-miterlimit:10;" d="M 20.043531 20.042406 L 40.090406 -0.0005625 C 60.133375 -20.043531 28.348219 -56.691969 0.0005625 -56.691969 " transform="matrix(1,0,0,-1,68.351,68.351)"/>
<g clip-path="url(#clip2)" clip-rule="nonzero">
<path style="fill:none;stroke-width:0.3985;stroke-linecap:butt;stroke-linejoin:miter;stroke:rgb(0%,0%,0%);stroke-opacity:1;stroke-miterlimit:10;" d="M 0.0005625 -62.363844 C 31.18025 -62.363844 68.152906 -20.043531 44.098219 4.00725 L 24.051344 24.054125 " transform="matrix(1,0,0,-1,68.351,68.351)"/>
</g>
<path style=" stroke:none;fill-rule:nonzero;fill:rgb(100%,100%,100%);fill-opacity:1;" d="M 88.394531 48.308594 L 68.351562 28.261719 C 48.308594 8.214844 11.65625 40.003906 11.65625 68.351562 L 5.988281 68.351562 C 5.988281 37.167969 48.308594 0.199219 72.359375 24.25 L 92.402344 44.296875 "/>
<path style="fill:none;stroke-width:0.3985;stroke-linecap:butt;stroke-linejoin:miter;stroke:rgb(0%,0%,0%);stroke-opacity:1;stroke-miterlimit:10;" d="M 20.043531 20.042406 L 0.0005625 40.089281 C -20.042406 60.136156 -56.69475 28.347094 -56.69475 -0.0005625 " transform="matrix(1,0,0,-1,68.351,68.351)"/>
<path style="fill:none;stroke-width:0.3985;stroke-linecap:butt;stroke-linejoin:miter;stroke:rgb(0%,0%,0%);stroke-opacity:1;stroke-miterlimit:10;" d="M 24.051344 24.054125 L 4.008375 44.101 C -20.042406 68.151781 -62.362719 31.183031 -62.362719 -0.0005625 " transform="matrix(1,0,0,-1,68.351,68.351)"/>
<path style=" stroke:none;fill-rule:nonzero;fill:rgb(100%,100%,100%);fill-opacity:1;" d="M 48.308594 48.308594 L 28.261719 68.351562 C 8.214844 88.394531 40.003906 125.042969 68.351562 125.042969 L 68.351562 130.714844 C 37.167969 130.714844 0.199219 88.394531 24.25 64.34375 L 44.296875 44.296875 "/>
<path style="fill:none;stroke-width:0.3985;stroke-linecap:butt;stroke-linejoin:miter;stroke:rgb(0%,0%,0%);stroke-opacity:1;stroke-miterlimit:10;" d="M -20.042406 20.042406 L -40.089281 -0.0005625 C -60.136156 -20.043531 -28.347094 -56.691969 0.0005625 -56.691969 " transform="matrix(1,0,0,-1,68.351,68.351)"/>
<g clip-path="url(#clip3)" clip-rule="nonzero">
<path style="fill:none;stroke-width:0.3985;stroke-linecap:butt;stroke-linejoin:miter;stroke:rgb(0%,0%,0%);stroke-opacity:1;stroke-miterlimit:10;" d="M -24.054125 24.054125 L -44.101 4.00725 C -68.151781 -20.043531 -31.183031 -62.363844 0.0005625 -62.363844 " transform="matrix(1,0,0,-1,68.351,68.351)"/>
</g>
<path style=" stroke:none;fill-rule:nonzero;fill:rgb(100%,100%,100%);fill-opacity:1;" d="M 48.308594 88.394531 L 68.351562 108.441406 C 88.394531 128.484375 125.042969 96.699219 125.042969 68.351562 L 130.714844 68.351562 C 130.714844 99.53125 88.394531 136.503906 64.34375 112.449219 L 44.296875 92.402344 "/>
<path style="fill:none;stroke-width:0.3985;stroke-linecap:butt;stroke-linejoin:miter;stroke:rgb(0%,0%,0%);stroke-opacity:1;stroke-miterlimit:10;" d="M -20.042406 -20.043531 L 0.0005625 -40.090406 C 20.043531 -60.133375 56.691969 -28.348219 56.691969 -0.0005625 " transform="matrix(1,0,0,-1,68.351,68.351)"/>
<g clip-path="url(#clip4)" clip-rule="nonzero">
<path style="fill:none;stroke-width:0.3985;stroke-linecap:butt;stroke-linejoin:miter;stroke:rgb(0%,0%,0%);stroke-opacity:1;stroke-miterlimit:10;" d="M -24.054125 -24.051344 L -4.00725 -44.098219 C 20.043531 -68.152906 62.363844 -31.18025 62.363844 -0.0005625 " transform="matrix(1,0,0,-1,68.351,68.351)"/>
</g>
<path style=" stroke:none;fill-rule:nonzero;fill:rgb(100%,100%,100%);fill-opacity:1;" d="M 88.394531 88.394531 L 108.441406 68.351562 C 128.484375 48.308594 96.699219 11.65625 68.351562 11.65625 L 68.351562 5.988281 C 99.53125 5.988281 136.503906 48.308594 112.449219 72.359375 L 92.402344 92.402344 "/>
<path style="fill:none;stroke-width:0.3985;stroke-linecap:butt;stroke-linejoin:miter;stroke:rgb(0%,0%,0%);stroke-opacity:1;stroke-miterlimit:10;" d="M 20.043531 -20.043531 L 40.090406 -0.0005625 C 60.133375 20.042406 28.348219 56.69475 0.0005625 56.69475 " transform="matrix(1,0,0,-1,68.351,68.351)"/>
<path style="fill:none;stroke-width:0.3985;stroke-linecap:butt;stroke-linejoin:miter;stroke:rgb(0%,0%,0%);stroke-opacity:1;stroke-miterlimit:10;" d="M 24.051344 -24.051344 L 44.098219 -4.008375 C 68.152906 20.042406 31.18025 62.362719 0.0005625 62.362719 " transform="matrix(1,0,0,-1,68.351,68.351)"/>
</g>
</svg>
