<?xml version="1.0" encoding="UTF-8"?>
<svg xmlns="http://www.w3.org/2000/svg" xmlns:xlink="http://www.w3.org/1999/xlink" width="142.241pt" height="142.241pt" viewBox="0 0 142.241 142.241" version="1.1">
<g id="surface16">
<path style=" stroke:none;fill-rule:nonzero;fill:rgb(100%,100%,100%);fill-opacity:1;" d="M 127.117188 62.25 L 125.707031 53.382812 C 121.273438 25.386719 17.550781 113.816406 42.808594 126.6875 L 41.78125 128.707031 C 15.605469 115.371094 123.335938 23.910156 127.949219 53.027344 L 129.355469 61.898438 "/>
<path style="fill:none;stroke-width:0.3985;stroke-linecap:butt;stroke-linejoin:miter;stroke:rgb(0%,0%,0%);stroke-opacity:1;stroke-miterlimit:10;" d="M 55.996188 8.87 L 54.586031 17.737187 C 50.152438 45.733281 -53.570219 -42.696406 -28.312406 -55.5675 " transform="matrix(1,0,0,-1,71.121,71.12)"/>
<path style="fill:none;stroke-width:0.3985;stroke-linecap:butt;stroke-linejoin:miter;stroke:rgb(0%,0%,0%);stroke-opacity:1;stroke-miterlimit:10;" d="M -29.33975 -57.587031 C -55.515531 -44.251094 52.214938 47.209844 56.828219 18.092656 L 58.234469 9.221562 " transform="matrix(1,0,0,-1,71.121,71.12)"/>
<path style=" stroke:none;fill-rule:nonzero;fill:rgb(100%,100%,100%);fill-opacity:1;" d="M 121.636719 45.382812 L 117.554688 37.382812 C 104.6875 12.125 33.367188 128.28125 61.367188 132.714844 L 61.011719 134.953125 C 31.996094 130.359375 106.191406 10.085938 119.574219 36.355469 L 123.65625 44.351562 "/>
<path style="fill:none;stroke-width:0.3985;stroke-linecap:butt;stroke-linejoin:miter;stroke:rgb(0%,0%,0%);stroke-opacity:1;stroke-miterlimit:10;" d="M 50.515719 25.737187 L 46.433688 33.737187 C 33.5665 58.995 -37.753812 -57.16125 -9.753812 -61.594844 " transform="matrix(1,0,0,-1,71.121,71.12)"/>
<path style="fill:none;stroke-width:0.3985;stroke-linecap:butt;stroke-linejoin:miter;stroke:rgb(0%,0%,0%);stroke-opacity:1;stroke-miterlimit:10;" d="M -10.109281 -63.833125 C -39.124906 -59.239375 35.070406 61.034062 48.453219 34.764531 L 52.53525 26.768437 " transform="matrix(1,0,0,-1,71.121,71.12)"/>
<path style=" stroke:none;fill-rule:nonzero;fill:rgb(100%,100%,100%);fill-opacity:1;" d="M 111.210938 31.03125 L 104.855469 24.6875 C 84.8125 4.640625 52.878906 137.148438 80.875 132.714844 L 81.230469 134.953125 C 52.21875 139.550781 85.613281 2.238281 106.460938 23.082031 L 112.8125 29.429688 "/>
<path style="fill:none;stroke-width:0.3985;stroke-linecap:butt;stroke-linejoin:miter;stroke:rgb(0%,0%,0%);stroke-opacity:1;stroke-miterlimit:10;" d="M 40.089938 40.08875 L 33.734469 46.4325 C 13.6915 66.479375 -18.242094 -66.028438 9.754 -61.594844 " transform="matrix(1,0,0,-1,71.121,71.12)"/>
<path style="fill:none;stroke-width:0.3985;stroke-linecap:butt;stroke-linejoin:miter;stroke:rgb(0%,0%,0%);stroke-opacity:1;stroke-miterlimit:10;" d="M 10.109469 -63.833125 C -18.90225 -68.430781 14.492281 68.881719 35.339938 48.037969 L 41.6915 41.690312 " transform="matrix(1,0,0,-1,71.121,71.12)"/>
<path style=" stroke:none;fill-rule:nonzero;fill:rgb(100%,100%,100%);fill-opacity:1;" d="M 96.859375 20.605469 L 88.855469 16.53125 C 63.601562 3.664062 74.175781 139.554688 99.433594 126.6875 L 100.460938 128.707031 C 74.289062 142.042969 63.621094 1.128906 89.886719 14.511719 L 97.890625 18.585938 "/>
<path style="fill:none;stroke-width:0.3985;stroke-linecap:butt;stroke-linejoin:miter;stroke:rgb(0%,0%,0%);stroke-opacity:1;stroke-miterlimit:10;" d="M 25.738375 50.514531 L 17.734469 54.58875 C -7.519437 67.455937 3.054781 -68.434688 28.312594 -55.5675 " transform="matrix(1,0,0,-1,71.121,71.12)"/>
<path style="fill:none;stroke-width:0.3985;stroke-linecap:butt;stroke-linejoin:miter;stroke:rgb(0%,0%,0%);stroke-opacity:1;stroke-miterlimit:10;" d="M 29.339938 -57.587031 C 3.168063 -70.922969 -7.499906 69.991094 18.765719 56.608281 L 26.769625 52.534062 " transform="matrix(1,0,0,-1,71.121,71.12)"/>
<path style=" stroke:none;fill-rule:nonzero;fill:rgb(100%,100%,100%);fill-opacity:1;" d="M 79.988281 15.125 L 71.121094 13.722656 C 43.125 9.289062 95.175781 135.261719 115.21875 115.21875 L 116.820312 116.820312 C 96.050781 137.59375 42.359375 6.871094 71.476562 11.484375 L 80.34375 12.886719 "/>
<path style="fill:none;stroke-width:0.3985;stroke-linecap:butt;stroke-linejoin:miter;stroke:rgb(0%,0%,0%);stroke-opacity:1;stroke-miterlimit:10;" d="M 8.867281 55.995 L 0.00009375 57.397344 C -27.996 61.830937 24.054781 -64.141719 44.09775 -44.09875 " transform="matrix(1,0,0,-1,71.121,71.12)"/>
<path style="fill:none;stroke-width:0.3985;stroke-linecap:butt;stroke-linejoin:miter;stroke:rgb(0%,0%,0%);stroke-opacity:1;stroke-miterlimit:10;" d="M 45.699313 -45.700313 C 24.929781 -66.47375 -28.761625 64.248906 0.355563 59.635625 L 9.22275 58.233281 " transform="matrix(1,0,0,-1,71.121,71.12)"/>
<path style=" stroke:none;fill-rule:nonzero;fill:rgb(100%,100%,100%);fill-opacity:1;" d="M 62.253906 15.125 L 53.386719 16.53125 C 25.386719 20.96875 113.816406 124.6875 126.6875 99.433594 L 128.707031 100.460938 C 115.371094 126.636719 23.914062 18.90625 53.03125 14.292969 L 61.898438 12.886719 "/>
<path style="fill:none;stroke-width:0.3985;stroke-linecap:butt;stroke-linejoin:miter;stroke:rgb(0%,0%,0%);stroke-opacity:1;stroke-miterlimit:10;" d="M -8.867094 55.995 L -17.734281 54.58875 C -45.734281 50.15125 42.695406 -53.5675 55.5665 -28.313594 " transform="matrix(1,0,0,-1,71.121,71.12)"/>
<path style="fill:none;stroke-width:0.3985;stroke-linecap:butt;stroke-linejoin:miter;stroke:rgb(0%,0%,0%);stroke-opacity:1;stroke-miterlimit:10;" d="M 57.586031 -29.340938 C 44.250094 -55.516719 -47.206937 52.21375 -18.08975 56.827031 L -9.222562 58.233281 " transform="matrix(1,0,0,-1,71.121,71.12)"/>
<path style=" stroke:none;fill-rule:nonzero;fill:rgb(100%,100%,100%);fill-opacity:1;" d="M 45.382812 20.605469 L 37.386719 24.6875 C 12.128906 37.554688 128.28125 108.875 132.714844 80.875 L 134.957031 81.230469 C 130.359375 110.242188 10.089844 36.050781 36.355469 22.664062 L 44.351562 18.585938 "/>
<path style="fill:none;stroke-width:0.3985;stroke-linecap:butt;stroke-linejoin:miter;stroke:rgb(0%,0%,0%);stroke-opacity:1;stroke-miterlimit:10;" d="M -25.738187 50.514531 L -33.734281 46.4325 C -58.992094 33.565312 57.16025 -37.755 61.593844 -9.755 " transform="matrix(1,0,0,-1,71.121,71.12)"/>
<path style="fill:none;stroke-width:0.3985;stroke-linecap:butt;stroke-linejoin:miter;stroke:rgb(0%,0%,0%);stroke-opacity:1;stroke-miterlimit:10;" d="M 63.836031 -10.110469 C 59.238375 -39.122188 -61.031156 35.069219 -34.765531 48.455937 L -26.769437 52.534062 " transform="matrix(1,0,0,-1,71.121,71.12)"/>
<path style=" stroke:none;fill-rule:nonzero;fill:rgb(100%,100%,100%);fill-opacity:1;" d="M 31.03125 31.03125 L 24.6875 37.382812 C 4.640625 57.429688 137.148438 89.363281 132.714844 61.363281 L 134.957031 61.011719 C 139.550781 90.023438 2.238281 56.625 23.082031 35.78125 L 29.429688 29.429688 "/>
<path style="fill:none;stroke-width:0.3985;stroke-linecap:butt;stroke-linejoin:miter;stroke:rgb(0%,0%,0%);stroke-opacity:1;stroke-miterlimit:10;" d="M -40.08975 40.08875 L -46.4335 33.737187 C -66.480375 13.690312 66.027438 -18.243281 61.593844 9.756719 " transform="matrix(1,0,0,-1,71.121,71.12)"/>
<path style="fill:none;stroke-width:0.3985;stroke-linecap:butt;stroke-linejoin:miter;stroke:rgb(0%,0%,0%);stroke-opacity:1;stroke-miterlimit:10;" d="M 63.836031 10.108281 C 68.429781 -18.903438 -68.882719 14.495 -48.038969 35.33875 L -41.691312 41.690312 " transform="matrix(1,0,0,-1,71.121,71.12)"/>
<path style=" stroke:none;fill-rule:nonzero;fill:rgb(100%,100%,100%);fill-opacity:1;" d="M 20.605469 45.382812 L 16.535156 53.382812 C 3.664062 78.640625 139.554688 68.066406 126.6875 42.808594 L 128.707031 41.777344 C 142.042969 67.953125 1.128906 78.621094 14.511719 52.355469 L 18.585938 44.351562 "/>
<path style="fill:none;stroke-width:0.3985;stroke-linecap:butt;stroke-linejoin:miter;stroke:rgb(0%,0%,0%);stroke-opacity:1;stroke-miterlimit:10;" d="M -50.515531 25.737187 L -54.585844 17.737187 C -67.456937 -7.520625 68.433688 3.053594 55.5665 28.311406 " transform="matrix(1,0,0,-1,71.121,71.12)"/>
<path style="fill:none;stroke-width:0.3985;stroke-linecap:butt;stroke-linejoin:miter;stroke:rgb(0%,0%,0%);stroke-opacity:1;stroke-miterlimit:10;" d="M 57.586031 29.342656 C 70.921969 3.166875 -69.992094 -7.501094 -56.609281 18.764531 L -52.535062 26.768437 " transform="matrix(1,0,0,-1,71.121,71.12)"/>
<path style=" stroke:none;fill-rule:nonzero;fill:rgb(100%,100%,100%);fill-opacity:1;" d="M 15.125 62.25 L 13.726562 71.121094 C 9.289062 99.117188 135.261719 47.066406 115.21875 27.023438 L 116.820312 25.417969 C 137.59375 46.191406 6.875 99.882812 11.484375 70.765625 L 12.886719 61.898438 "/>
<path style="fill:none;stroke-width:0.3985;stroke-linecap:butt;stroke-linejoin:miter;stroke:rgb(0%,0%,0%);stroke-opacity:1;stroke-miterlimit:10;" d="M -55.996 8.87 L -57.394437 -0.00109375 C -61.831937 -27.997188 64.140719 24.053594 44.09775 44.096562 " transform="matrix(1,0,0,-1,71.121,71.12)"/>
<path style="fill:none;stroke-width:0.3985;stroke-linecap:butt;stroke-linejoin:miter;stroke:rgb(0%,0%,0%);stroke-opacity:1;stroke-miterlimit:10;" d="M 45.699313 45.702031 C 66.47275 24.928594 -64.246 -28.762813 -59.636625 0.354375 L -58.234281 9.221562 " transform="matrix(1,0,0,-1,71.121,71.12)"/>
<path style=" stroke:none;fill-rule:nonzero;fill:rgb(100%,100%,100%);fill-opacity:1;" d="M 15.125 79.988281 L 16.535156 88.855469 C 20.96875 116.855469 124.691406 28.421875 99.433594 15.554688 L 100.460938 13.535156 C 126.636719 26.871094 18.90625 118.328125 14.292969 89.210938 L 12.886719 80.34375 "/>
<path style="fill:none;stroke-width:0.3985;stroke-linecap:butt;stroke-linejoin:miter;stroke:rgb(0%,0%,0%);stroke-opacity:1;stroke-miterlimit:10;" d="M -55.996 -8.868281 L -54.585844 -17.735469 C -50.15225 -45.735469 53.570406 42.698125 28.312594 55.565312 " transform="matrix(1,0,0,-1,71.121,71.12)"/>
<path style="fill:none;stroke-width:0.3985;stroke-linecap:butt;stroke-linejoin:miter;stroke:rgb(0%,0%,0%);stroke-opacity:1;stroke-miterlimit:10;" d="M 29.339938 57.584844 C 55.515719 44.248906 -52.21475 -47.208125 -56.828031 -18.090938 L -58.234281 -9.22375 " transform="matrix(1,0,0,-1,71.121,71.12)"/>
<path style=" stroke:none;fill-rule:nonzero;fill:rgb(100%,100%,100%);fill-opacity:1;" d="M 20.605469 96.859375 L 24.6875 104.855469 C 37.554688 130.113281 108.875 13.960938 80.875 9.523438 L 81.230469 7.285156 C 110.246094 11.878906 36.050781 132.152344 22.667969 105.886719 L 18.585938 97.886719 "/>
<path style="fill:none;stroke-width:0.3985;stroke-linecap:butt;stroke-linejoin:miter;stroke:rgb(0%,0%,0%);stroke-opacity:1;stroke-miterlimit:10;" d="M -50.515531 -25.739375 L -46.4335 -33.735469 C -33.566312 -58.993281 37.754 57.159062 9.754 61.596562 " transform="matrix(1,0,0,-1,71.121,71.12)"/>
<path style="fill:none;stroke-width:0.3985;stroke-linecap:butt;stroke-linejoin:miter;stroke:rgb(0%,0%,0%);stroke-opacity:1;stroke-miterlimit:10;" d="M 10.109469 63.834844 C 39.125094 59.241094 -35.070219 -61.032344 -48.453031 -34.766719 L -52.535062 -26.766719 " transform="matrix(1,0,0,-1,71.121,71.12)"/>
<path style=" stroke:none;fill-rule:nonzero;fill:rgb(100%,100%,100%);fill-opacity:1;" d="M 31.03125 111.207031 L 37.386719 117.554688 C 57.429688 137.597656 89.363281 5.089844 61.367188 9.523438 L 61.011719 7.285156 C 90.023438 2.691406 56.628906 140.003906 35.78125 119.15625 L 29.429688 112.8125 "/>
<path style="fill:none;stroke-width:0.3985;stroke-linecap:butt;stroke-linejoin:miter;stroke:rgb(0%,0%,0%);stroke-opacity:1;stroke-miterlimit:10;" d="M -40.08975 -40.087031 L -33.734281 -46.434688 C -13.691312 -66.477656 18.242281 66.030156 -9.753812 61.596562 " transform="matrix(1,0,0,-1,71.121,71.12)"/>
<path style="fill:none;stroke-width:0.3985;stroke-linecap:butt;stroke-linejoin:miter;stroke:rgb(0%,0%,0%);stroke-opacity:1;stroke-miterlimit:10;" d="M -10.109281 63.834844 C 18.902438 68.428594 -14.492094 -68.883906 -35.33975 -48.03625 L -41.691312 -41.6925 " transform="matrix(1,0,0,-1,71.121,71.12)"/>
<path style=" stroke:none;fill-rule:nonzero;fill:rgb(100%,100%,100%);fill-opacity:1;" d="M 45.382812 121.632812 L 53.386719 125.707031 C 78.640625 138.578125 68.066406 2.683594 42.808594 15.554688 L 41.78125 13.535156 C 67.953125 0.199219 78.621094 141.109375 52.355469 127.726562 L 44.351562 123.65625 "/>
<path style="fill:none;stroke-width:0.3985;stroke-linecap:butt;stroke-linejoin:miter;stroke:rgb(0%,0%,0%);stroke-opacity:1;stroke-miterlimit:10;" d="M -25.738187 -50.512813 L -17.734281 -54.587031 C 7.519625 -67.458125 -3.054594 68.436406 -28.312406 55.565312 " transform="matrix(1,0,0,-1,71.121,71.12)"/>
<path style="fill:none;stroke-width:0.3985;stroke-linecap:butt;stroke-linejoin:miter;stroke:rgb(0%,0%,0%);stroke-opacity:1;stroke-miterlimit:10;" d="M -29.33975 57.584844 C -3.167875 70.920781 7.500094 -69.989375 -18.765531 -56.606563 L -26.769437 -52.53625 " transform="matrix(1,0,0,-1,71.121,71.12)"/>
<path style=" stroke:none;fill-rule:nonzero;fill:rgb(100%,100%,100%);fill-opacity:1;" d="M 62.253906 127.117188 L 71.121094 128.515625 C 99.117188 132.949219 47.066406 6.980469 27.023438 27.023438 L 25.421875 25.417969 C 46.191406 4.648438 99.882812 135.367188 70.765625 130.753906 L 61.898438 129.355469 "/>
<path style="fill:none;stroke-width:0.3985;stroke-linecap:butt;stroke-linejoin:miter;stroke:rgb(0%,0%,0%);stroke-opacity:1;stroke-miterlimit:10;" d="M -8.867094 -55.997188 L 0.00009375 -57.395625 C 27.996188 -61.829219 -24.054594 64.139531 -44.097562 44.096562 " transform="matrix(1,0,0,-1,71.121,71.12)"/>
<path style="fill:none;stroke-width:0.3985;stroke-linecap:butt;stroke-linejoin:miter;stroke:rgb(0%,0%,0%);stroke-opacity:1;stroke-miterlimit:10;" d="M -45.699125 45.702031 C -24.929594 66.471562 28.761813 -64.247188 -0.355375 -59.633906 L -9.222562 -58.235469 " transform="matrix(1,0,0,-1,71.121,71.12)"/>
<path style=" stroke:none;fill-rule:nonzero;fill:rgb(100%,100%,100%);fill-opacity:1;" d="M 79.988281 127.117188 L 88.855469 125.707031 C 116.855469 121.273438 28.425781 17.550781 15.554688 42.808594 L 13.535156 41.777344 C 26.871094 15.605469 118.328125 123.335938 89.210938 127.945312 L 80.34375 129.355469 "/>
<path style="fill:none;stroke-width:0.3985;stroke-linecap:butt;stroke-linejoin:miter;stroke:rgb(0%,0%,0%);stroke-opacity:1;stroke-miterlimit:10;" d="M 8.867281 -55.997188 L 17.734469 -54.587031 C 45.734469 -50.153438 -42.695219 53.569219 -55.566312 28.311406 " transform="matrix(1,0,0,-1,71.121,71.12)"/>
<path style="fill:none;stroke-width:0.3985;stroke-linecap:butt;stroke-linejoin:miter;stroke:rgb(0%,0%,0%);stroke-opacity:1;stroke-miterlimit:10;" d="M -57.585844 29.342656 C -44.249906 55.514531 47.207125 -52.215938 18.089938 -56.825313 L 9.22275 -58.235469 " transform="matrix(1,0,0,-1,71.121,71.12)"/>
<path style=" stroke:none;fill-rule:nonzero;fill:rgb(100%,100%,100%);fill-opacity:1;" d="M 96.859375 121.632812 L 104.855469 117.554688 C 130.113281 104.683594 13.960938 33.367188 9.527344 61.363281 L 7.285156 61.011719 C 11.882812 31.996094 132.152344 106.191406 105.886719 119.574219 L 97.890625 123.65625 "/>
<path style="fill:none;stroke-width:0.3985;stroke-linecap:butt;stroke-linejoin:miter;stroke:rgb(0%,0%,0%);stroke-opacity:1;stroke-miterlimit:10;" d="M 25.738375 -50.512813 L 33.734469 -46.434688 C 58.992281 -33.563594 -57.160062 37.752812 -61.593656 9.756719 " transform="matrix(1,0,0,-1,71.121,71.12)"/>
<path style="fill:none;stroke-width:0.3985;stroke-linecap:butt;stroke-linejoin:miter;stroke:rgb(0%,0%,0%);stroke-opacity:1;stroke-miterlimit:10;" d="M -63.835844 10.108281 C -59.238187 39.123906 61.031344 -35.071406 34.765719 -48.454219 L 26.769625 -52.53625 " transform="matrix(1,0,0,-1,71.121,71.12)"/>
<path style=" stroke:none;fill-rule:nonzero;fill:rgb(100%,100%,100%);fill-opacity:1;" d="M 111.210938 111.207031 L 117.554688 104.855469 C 137.597656 84.8125 5.09375 52.878906 9.527344 80.875 L 7.285156 81.230469 C 2.691406 52.214844 140.003906 85.613281 119.160156 106.460938 L 112.8125 112.8125 "/>
<path style="fill:none;stroke-width:0.3985;stroke-linecap:butt;stroke-linejoin:miter;stroke:rgb(0%,0%,0%);stroke-opacity:1;stroke-miterlimit:10;" d="M 40.089938 -40.087031 L 46.433688 -33.735469 C 66.476656 -13.6925 -66.02725 18.241094 -61.593656 -9.755 " transform="matrix(1,0,0,-1,71.121,71.12)"/>
<path style="fill:none;stroke-width:0.3985;stroke-linecap:butt;stroke-linejoin:miter;stroke:rgb(0%,0%,0%);stroke-opacity:1;stroke-miterlimit:10;" d="M -63.835844 -10.110469 C -68.429594 18.905156 68.882906 -14.493281 48.039156 -35.340938 L 41.6915 -41.6925 " transform="matrix(1,0,0,-1,71.121,71.12)"/>
<path style=" stroke:none;fill-rule:nonzero;fill:rgb(100%,100%,100%);fill-opacity:1;" d="M 121.636719 96.859375 L 125.707031 88.855469 C 138.578125 63.597656 2.6875 74.175781 15.554688 99.433594 L 13.535156 100.460938 C 0.199219 74.289062 141.113281 63.617188 127.730469 89.886719 L 123.65625 97.886719 "/>
<path style="fill:none;stroke-width:0.3985;stroke-linecap:butt;stroke-linejoin:miter;stroke:rgb(0%,0%,0%);stroke-opacity:1;stroke-miterlimit:10;" d="M 50.515719 -25.739375 L 54.586031 -17.735469 C 67.457125 7.522344 -68.4335 -3.055781 -55.566312 -28.313594 " transform="matrix(1,0,0,-1,71.121,71.12)"/>
<path style="fill:none;stroke-width:0.3985;stroke-linecap:butt;stroke-linejoin:miter;stroke:rgb(0%,0%,0%);stroke-opacity:1;stroke-miterlimit:10;" d="M -57.585844 -29.340938 C -70.921781 -3.169063 69.992281 7.502812 56.609469 -18.766719 L 52.53525 -26.766719 " transform="matrix(1,0,0,-1,71.121,71.12)"/>
<path style=" stroke:none;fill-rule:nonzero;fill:rgb(100%,100%,100%);fill-opacity:1;" d="M 127.117188 79.988281 L 128.515625 71.121094 C 132.953125 43.121094 6.980469 95.171875 27.023438 115.21875 L 25.421875 116.820312 C 4.648438 96.050781 135.367188 42.359375 130.757812 71.476562 L 129.355469 80.34375 "/>
<path style="fill:none;stroke-width:0.3985;stroke-linecap:butt;stroke-linejoin:miter;stroke:rgb(0%,0%,0%);stroke-opacity:1;stroke-miterlimit:10;" d="M 55.996188 -8.868281 L 57.394625 -0.00109375 C 61.832125 27.998906 -64.140531 -24.051875 -44.097562 -44.09875 " transform="matrix(1,0,0,-1,71.121,71.12)"/>
<path style="fill:none;stroke-width:0.3985;stroke-linecap:butt;stroke-linejoin:miter;stroke:rgb(0%,0%,0%);stroke-opacity:1;stroke-miterlimit:10;" d="M -45.699125 -45.700313 C -66.472562 -24.930781 64.246188 28.760625 59.636813 -0.356563 L 58.234469 -9.22375 " transform="matrix(1,0,0,-1,71.121,71.12)"/>
<path style=" stroke:none;fill-rule:nonzero;fill:rgb(100%,100%,100%);fill-opacity:1;" d="M 127.117188 62.25 L 128.515625 71.121094 C 132.953125 99.117188 6.980469 47.066406 27.023438 27.023438 L 25.421875 25.417969 C 4.648438 46.191406 135.367188 99.882812 130.757812 70.765625 L 129.355469 61.898438 "/>
<path style="fill:none;stroke-width:0.3985;stroke-linecap:butt;stroke-linejoin:miter;stroke:rgb(0%,0%,0%);stroke-opacity:1;stroke-miterlimit:10;" d="M 55.996188 8.87 L 57.394625 -0.00109375 C 61.832125 -27.997188 -64.140531 24.053594 -44.097562 44.096562 " transform="matrix(1,0,0,-1,71.121,71.12)"/>
<path style="fill:none;stroke-width:0.3985;stroke-linecap:butt;stroke-linejoin:miter;stroke:rgb(0%,0%,0%);stroke-opacity:1;stroke-miterlimit:10;" d="M 58.234469 9.221562 L 59.636813 0.354375 C 64.246188 -28.762813 -66.472562 24.928594 -45.699125 45.702031 " transform="matrix(1,0,0,-1,71.121,71.12)"/>
<path style=" stroke:none;fill-rule:nonzero;fill:rgb(100%,100%,100%);fill-opacity:1;" d="M 121.636719 45.382812 L 125.707031 53.382812 C 138.578125 78.640625 2.6875 68.066406 15.554688 42.808594 L 13.535156 41.777344 C 0.199219 67.953125 141.113281 78.621094 127.730469 52.355469 L 123.65625 44.351562 "/>
<path style="fill:none;stroke-width:0.3985;stroke-linecap:butt;stroke-linejoin:miter;stroke:rgb(0%,0%,0%);stroke-opacity:1;stroke-miterlimit:10;" d="M 50.515719 25.737187 L 54.586031 17.737187 C 67.457125 -7.520625 -68.4335 3.053594 -55.566312 28.311406 " transform="matrix(1,0,0,-1,71.121,71.12)"/>
<path style="fill:none;stroke-width:0.3985;stroke-linecap:butt;stroke-linejoin:miter;stroke:rgb(0%,0%,0%);stroke-opacity:1;stroke-miterlimit:10;" d="M 52.53525 26.768437 L 56.609469 18.764531 C 69.992281 -7.501094 -70.921781 3.166875 -57.585844 29.342656 " transform="matrix(1,0,0,-1,71.121,71.12)"/>
<path style=" stroke:none;fill-rule:nonzero;fill:rgb(100%,100%,100%);fill-opacity:1;" d="M 111.210938 31.03125 L 117.554688 37.382812 C 137.597656 57.429688 5.09375 89.363281 9.527344 61.363281 L 7.285156 61.011719 C 2.691406 90.023438 140.003906 56.625 119.160156 35.78125 L 112.8125 29.429688 "/>
<path style="fill:none;stroke-width:0.3985;stroke-linecap:butt;stroke-linejoin:miter;stroke:rgb(0%,0%,0%);stroke-opacity:1;stroke-miterlimit:10;" d="M 40.089938 40.08875 L 46.433688 33.737187 C 66.476656 13.690312 -66.02725 -18.243281 -61.593656 9.756719 " transform="matrix(1,0,0,-1,71.121,71.12)"/>
<path style="fill:none;stroke-width:0.3985;stroke-linecap:butt;stroke-linejoin:miter;stroke:rgb(0%,0%,0%);stroke-opacity:1;stroke-miterlimit:10;" d="M 41.6915 41.690312 L 48.039156 35.33875 C 68.882906 14.495 -68.429594 -18.903438 -63.835844 10.108281 " transform="matrix(1,0,0,-1,71.121,71.12)"/>
<path style=" stroke:none;fill-rule:nonzero;fill:rgb(100%,100%,100%);fill-opacity:1;" d="M 96.859375 20.605469 L 104.855469 24.6875 C 130.113281 37.554688 13.960938 108.875 9.527344 80.875 L 7.285156 81.230469 C 11.882812 110.242188 132.152344 36.050781 105.886719 22.664062 L 97.890625 18.585938 "/>
<path style="fill:none;stroke-width:0.3985;stroke-linecap:butt;stroke-linejoin:miter;stroke:rgb(0%,0%,0%);stroke-opacity:1;stroke-miterlimit:10;" d="M 25.738375 50.514531 L 33.734469 46.4325 C 58.992281 33.565312 -57.160062 -37.755 -61.593656 -9.755 " transform="matrix(1,0,0,-1,71.121,71.12)"/>
<path style="fill:none;stroke-width:0.3985;stroke-linecap:butt;stroke-linejoin:miter;stroke:rgb(0%,0%,0%);stroke-opacity:1;stroke-miterlimit:10;" d="M 26.769625 52.534062 L 34.765719 48.455937 C 61.031344 35.069219 -59.238187 -39.122188 -63.835844 -10.110469 " transform="matrix(1,0,0,-1,71.121,71.12)"/>
<path style=" stroke:none;fill-rule:nonzero;fill:rgb(100%,100%,100%);fill-opacity:1;" d="M 79.988281 15.125 L 88.855469 16.53125 C 116.855469 20.96875 28.425781 124.6875 15.554688 99.433594 L 13.535156 100.460938 C 26.871094 126.636719 118.328125 18.90625 89.210938 14.292969 L 80.34375 12.886719 "/>
<path style="fill:none;stroke-width:0.3985;stroke-linecap:butt;stroke-linejoin:miter;stroke:rgb(0%,0%,0%);stroke-opacity:1;stroke-miterlimit:10;" d="M 8.867281 55.995 L 17.734469 54.58875 C 45.734469 50.15125 -42.695219 -53.5675 -55.566312 -28.313594 " transform="matrix(1,0,0,-1,71.121,71.12)"/>
<path style="fill:none;stroke-width:0.3985;stroke-linecap:butt;stroke-linejoin:miter;stroke:rgb(0%,0%,0%);stroke-opacity:1;stroke-miterlimit:10;" d="M 9.22275 58.233281 L 18.089938 56.827031 C 47.207125 52.21375 -44.249906 -55.516719 -57.585844 -29.340938 " transform="matrix(1,0,0,-1,71.121,71.12)"/>
<path style=" stroke:none;fill-rule:nonzero;fill:rgb(100%,100%,100%);fill-opacity:1;" d="M 62.253906 15.125 L 71.121094 13.722656 C 99.117188 9.289062 47.066406 135.261719 27.023438 115.21875 L 25.421875 116.820312 C 46.191406 137.59375 99.882812 6.871094 70.765625 11.484375 L 61.898438 12.886719 "/>
<path style="fill:none;stroke-width:0.3985;stroke-linecap:butt;stroke-linejoin:miter;stroke:rgb(0%,0%,0%);stroke-opacity:1;stroke-miterlimit:10;" d="M -8.867094 55.995 L 0.00009375 57.397344 C 27.996188 61.830937 -24.054594 -64.141719 -44.097562 -44.09875 " transform="matrix(1,0,0,-1,71.121,71.12)"/>
<path style="fill:none;stroke-width:0.3985;stroke-linecap:butt;stroke-linejoin:miter;stroke:rgb(0%,0%,0%);stroke-opacity:1;stroke-miterlimit:10;" d="M -9.222562 58.233281 L -0.355375 59.635625 C 28.761813 64.248906 -24.929594 -66.47375 -45.699125 -45.700313 " transform="matrix(1,0,0,-1,71.121,71.12)"/>
<path style=" stroke:none;fill-rule:nonzero;fill:rgb(100%,100%,100%);fill-opacity:1;" d="M 45.382812 20.605469 L 53.386719 16.53125 C 78.640625 3.664062 68.066406 139.554688 42.808594 126.6875 L 41.78125 128.707031 C 67.953125 142.042969 78.621094 1.128906 52.355469 14.511719 L 44.351562 18.585938 "/>
<path style="fill:none;stroke-width:0.3985;stroke-linecap:butt;stroke-linejoin:miter;stroke:rgb(0%,0%,0%);stroke-opacity:1;stroke-miterlimit:10;" d="M -25.738187 50.514531 L -17.734281 54.58875 C 7.519625 67.455937 -3.054594 -68.434688 -28.312406 -55.5675 " transform="matrix(1,0,0,-1,71.121,71.12)"/>
<path style="fill:none;stroke-width:0.3985;stroke-linecap:butt;stroke-linejoin:miter;stroke:rgb(0%,0%,0%);stroke-opacity:1;stroke-miterlimit:10;" d="M -26.769437 52.534062 L -18.765531 56.608281 C 7.500094 69.991094 -3.167875 -70.922969 -29.33975 -57.587031 " transform="matrix(1,0,0,-1,71.121,71.12)"/>
<path style=" stroke:none;fill-rule:nonzero;fill:rgb(100%,100%,100%);fill-opacity:1;" d="M 31.03125 31.03125 L 37.386719 24.6875 C 57.429688 4.640625 89.363281 137.148438 61.367188 132.714844 L 61.011719 134.953125 C 90.023438 139.550781 56.628906 2.238281 35.78125 23.082031 L 29.429688 29.429688 "/>
<path style="fill:none;stroke-width:0.3985;stroke-linecap:butt;stroke-linejoin:miter;stroke:rgb(0%,0%,0%);stroke-opacity:1;stroke-miterlimit:10;" d="M -40.08975 40.08875 L -33.734281 46.4325 C -13.691312 66.479375 18.242281 -66.028438 -9.753812 -61.594844 " transform="matrix(1,0,0,-1,71.121,71.12)"/>
<path style="fill:none;stroke-width:0.3985;stroke-linecap:butt;stroke-linejoin:miter;stroke:rgb(0%,0%,0%);stroke-opacity:1;stroke-miterlimit:10;" d="M -41.691312 41.690312 L -35.33975 48.037969 C -14.492094 68.881719 18.902438 -68.430781 -10.109281 -63.833125 " transform="matrix(1,0,0,-1,71.121,71.12)"/>
<path style=" stroke:none;fill-rule:nonzero;fill:rgb(100%,100%,100%);fill-opacity:1;" d="M 20.605469 45.382812 L 24.6875 37.382812 C 37.554688 12.125 108.875 128.28125 80.875 132.714844 L 81.230469 134.953125 C 110.246094 130.359375 36.050781 10.085938 22.667969 36.355469 L 18.585938 44.351562 "/>
<path style="fill:none;stroke-width:0.3985;stroke-linecap:butt;stroke-linejoin:miter;stroke:rgb(0%,0%,0%);stroke-opacity:1;stroke-miterlimit:10;" d="M -50.515531 25.737187 L -46.4335 33.737187 C -33.566312 58.995 37.754 -57.16125 9.754 -61.594844 " transform="matrix(1,0,0,-1,71.121,71.12)"/>
<path style="fill:none;stroke-width:0.3985;stroke-linecap:butt;stroke-linejoin:miter;stroke:rgb(0%,0%,0%);stroke-opacity:1;stroke-miterlimit:10;" d="M -52.535062 26.768437 L -48.453031 34.764531 C -35.070219 61.034062 39.125094 -59.239375 10.109469 -63.833125 " transform="matrix(1,0,0,-1,71.121,71.12)"/>
<path style=" stroke:none;fill-rule:nonzero;fill:rgb(100%,100%,100%);fill-opacity:1;" d="M 15.125 62.25 L 16.535156 53.382812 C 20.96875 25.386719 124.691406 113.816406 99.433594 126.6875 L 100.460938 128.707031 C 126.636719 115.371094 18.90625 23.910156 14.292969 53.027344 L 12.886719 61.898438 "/>
<path style="fill:none;stroke-width:0.3985;stroke-linecap:butt;stroke-linejoin:miter;stroke:rgb(0%,0%,0%);stroke-opacity:1;stroke-miterlimit:10;" d="M -55.996 8.87 L -54.585844 17.737187 C -50.15225 45.733281 53.570406 -42.696406 28.312594 -55.5675 " transform="matrix(1,0,0,-1,71.121,71.12)"/>
<path style="fill:none;stroke-width:0.3985;stroke-linecap:butt;stroke-linejoin:miter;stroke:rgb(0%,0%,0%);stroke-opacity:1;stroke-miterlimit:10;" d="M -58.234281 9.221562 L -56.828031 18.092656 C -52.21475 47.209844 55.515719 -44.251094 29.339938 -57.587031 " transform="matrix(1,0,0,-1,71.121,71.12)"/>
<path style=" stroke:none;fill-rule:nonzero;fill:rgb(100%,100%,100%);fill-opacity:1;" d="M 15.125 79.988281 L 13.726562 71.121094 C 9.289062 43.121094 135.261719 95.171875 115.21875 115.21875 L 116.820312 116.820312 C 137.59375 96.050781 6.875 42.359375 11.484375 71.476562 L 12.886719 80.34375 "/>
<path style="fill:none;stroke-width:0.3985;stroke-linecap:butt;stroke-linejoin:miter;stroke:rgb(0%,0%,0%);stroke-opacity:1;stroke-miterlimit:10;" d="M -55.996 -8.868281 L -57.394437 -0.00109375 C -61.831937 27.998906 64.140719 -24.051875 44.09775 -44.09875 " transform="matrix(1,0,0,-1,71.121,71.12)"/>
<path style="fill:none;stroke-width:0.3985;stroke-linecap:butt;stroke-linejoin:miter;stroke:rgb(0%,0%,0%);stroke-opacity:1;stroke-miterlimit:10;" d="M -58.234281 -9.22375 L -59.636625 -0.356563 C -64.246 28.760625 66.47275 -24.930781 45.699313 -45.700313 " transform="matrix(1,0,0,-1,71.121,71.12)"/>
<path style=" stroke:none;fill-rule:nonzero;fill:rgb(100%,100%,100%);fill-opacity:1;" d="M 20.605469 96.859375 L 16.535156 88.855469 C 3.664062 63.597656 139.554688 74.175781 126.6875 99.433594 L 128.707031 100.460938 C 142.042969 74.289062 1.128906 63.617188 14.511719 89.886719 L 18.585938 97.886719 "/>
<path style="fill:none;stroke-width:0.3985;stroke-linecap:butt;stroke-linejoin:miter;stroke:rgb(0%,0%,0%);stroke-opacity:1;stroke-miterlimit:10;" d="M -50.515531 -25.739375 L -54.585844 -17.735469 C -67.456937 7.522344 68.433688 -3.055781 55.5665 -28.313594 " transform="matrix(1,0,0,-1,71.121,71.12)"/>
<path style="fill:none;stroke-width:0.3985;stroke-linecap:butt;stroke-linejoin:miter;stroke:rgb(0%,0%,0%);stroke-opacity:1;stroke-miterlimit:10;" d="M -52.535062 -26.766719 L -56.609281 -18.766719 C -69.992094 7.502812 70.921969 -3.169063 57.586031 -29.340938 " transform="matrix(1,0,0,-1,71.121,71.12)"/>
<path style=" stroke:none;fill-rule:nonzero;fill:rgb(100%,100%,100%);fill-opacity:1;" d="M 31.03125 111.207031 L 24.6875 104.855469 C 4.640625 84.8125 137.148438 52.878906 132.714844 80.875 L 134.957031 81.230469 C 139.550781 52.214844 2.238281 85.613281 23.082031 106.460938 L 29.429688 112.8125 "/>
<path style="fill:none;stroke-width:0.3985;stroke-linecap:butt;stroke-linejoin:miter;stroke:rgb(0%,0%,0%);stroke-opacity:1;stroke-miterlimit:10;" d="M -40.08975 -40.087031 L -46.4335 -33.735469 C -66.480375 -13.6925 66.027438 18.241094 61.593844 -9.755 " transform="matrix(1,0,0,-1,71.121,71.12)"/>
<path style="fill:none;stroke-width:0.3985;stroke-linecap:butt;stroke-linejoin:miter;stroke:rgb(0%,0%,0%);stroke-opacity:1;stroke-miterlimit:10;" d="M -41.691312 -41.6925 L -48.038969 -35.340938 C -68.882719 -14.493281 68.429781 18.905156 63.836031 -10.110469 " transform="matrix(1,0,0,-1,71.121,71.12)"/>
<path style=" stroke:none;fill-rule:nonzero;fill:rgb(100%,100%,100%);fill-opacity:1;" d="M 45.382812 121.632812 L 37.386719 117.554688 C 12.128906 104.683594 128.28125 33.367188 132.714844 61.363281 L 134.957031 61.011719 C 130.359375 31.996094 10.089844 106.191406 36.355469 119.574219 L 44.351562 123.65625 "/>
<path style="fill:none;stroke-width:0.3985;stroke-linecap:butt;stroke-linejoin:miter;stroke:rgb(0%,0%,0%);stroke-opacity:1;stroke-miterlimit:10;" d="M -25.738187 -50.512813 L -33.734281 -46.434688 C -58.992094 -33.563594 57.16025 37.752812 61.593844 9.756719 " transform="matrix(1,0,0,-1,71.121,71.12)"/>
<path style="fill:none;stroke-width:0.3985;stroke-linecap:butt;stroke-linejoin:miter;stroke:rgb(0%,0%,0%);stroke-opacity:1;stroke-miterlimit:10;" d="M -26.769437 -52.53625 L -34.765531 -48.454219 C -61.031156 -35.071406 59.238375 39.123906 63.836031 10.108281 " transform="matrix(1,0,0,-1,71.121,71.12)"/>
<path style=" stroke:none;fill-rule:nonzero;fill:rgb(100%,100%,100%);fill-opacity:1;" d="M 62.253906 127.117188 L 53.386719 125.707031 C 25.386719 121.273438 113.816406 17.550781 126.6875 42.808594 L 128.707031 41.777344 C 115.371094 15.605469 23.914062 123.335938 53.03125 127.945312 L 61.898438 129.355469 "/>
<path style="fill:none;stroke-width:0.3985;stroke-linecap:butt;stroke-linejoin:miter;stroke:rgb(0%,0%,0%);stroke-opacity:1;stroke-miterlimit:10;" d="M -8.867094 -55.997188 L -17.734281 -54.587031 C -45.734281 -50.153438 42.695406 53.569219 55.5665 28.311406 " transform="matrix(1,0,0,-1,71.121,71.12)"/>
<path style="fill:none;stroke-width:0.3985;stroke-linecap:butt;stroke-linejoin:miter;stroke:rgb(0%,0%,0%);stroke-opacity:1;stroke-miterlimit:10;" d="M -9.222562 -58.235469 L -18.08975 -56.825313 C -47.206937 -52.215938 44.250094 55.514531 57.586031 29.342656 " transform="matrix(1,0,0,-1,71.121,71.12)"/>
<path style=" stroke:none;fill-rule:nonzero;fill:rgb(100%,100%,100%);fill-opacity:1;" d="M 79.988281 127.117188 L 71.121094 128.515625 C 43.125 132.949219 95.175781 6.980469 115.21875 27.023438 L 116.820312 25.417969 C 96.050781 4.648438 42.359375 135.367188 71.476562 130.753906 L 80.34375 129.355469 "/>
<path style="fill:none;stroke-width:0.3985;stroke-linecap:butt;stroke-linejoin:miter;stroke:rgb(0%,0%,0%);stroke-opacity:1;stroke-miterlimit:10;" d="M 8.867281 -55.997188 L 0.00009375 -57.395625 C -27.996 -61.829219 24.054781 64.139531 44.09775 44.096562 " transform="matrix(1,0,0,-1,71.121,71.12)"/>
<path style="fill:none;stroke-width:0.3985;stroke-linecap:butt;stroke-linejoin:miter;stroke:rgb(0%,0%,0%);stroke-opacity:1;stroke-miterlimit:10;" d="M 9.22275 -58.235469 L 0.355563 -59.633906 C -28.761625 -64.247188 24.929781 66.471562 45.699313 45.702031 " transform="matrix(1,0,0,-1,71.121,71.12)"/>
<path style=" stroke:none;fill-rule:nonzero;fill:rgb(100%,100%,100%);fill-opacity:1;" d="M 96.859375 121.632812 L 88.855469 125.707031 C 63.601562 138.578125 74.175781 2.683594 99.433594 15.554688 L 100.460938 13.535156 C 74.289062 0.199219 63.621094 141.109375 89.886719 127.726562 L 97.890625 123.65625 "/>
<path style="fill:none;stroke-width:0.3985;stroke-linecap:butt;stroke-linejoin:miter;stroke:rgb(0%,0%,0%);stroke-opacity:1;stroke-miterlimit:10;" d="M 25.738375 -50.512813 L 17.734469 -54.587031 C -7.519437 -67.458125 3.054781 68.436406 28.312594 55.565312 " transform="matrix(1,0,0,-1,71.121,71.12)"/>
<path style="fill:none;stroke-width:0.3985;stroke-linecap:butt;stroke-linejoin:miter;stroke:rgb(0%,0%,0%);stroke-opacity:1;stroke-miterlimit:10;" d="M 26.769625 -52.53625 L 18.765719 -56.606563 C -7.499906 -69.989375 3.168063 70.920781 29.339938 57.584844 " transform="matrix(1,0,0,-1,71.121,71.12)"/>
<path style=" stroke:none;fill-rule:nonzero;fill:rgb(100%,100%,100%);fill-opacity:1;" d="M 111.210938 111.207031 L 104.855469 117.554688 C 84.8125 137.597656 52.878906 5.089844 80.875 9.523438 L 81.230469 7.285156 C 52.21875 2.691406 85.613281 140.003906 106.460938 119.15625 L 112.8125 112.8125 "/>
<path style="fill:none;stroke-width:0.3985;stroke-linecap:butt;stroke-linejoin:miter;stroke:rgb(0%,0%,0%);stroke-opacity:1;stroke-miterlimit:10;" d="M 40.089938 -40.087031 L 33.734469 -46.434688 C 13.6915 -66.477656 -18.242094 66.030156 9.754 61.596562 " transform="matrix(1,0,0,-1,71.121,71.12)"/>
<path style="fill:none;stroke-width:0.3985;stroke-linecap:butt;stroke-linejoin:miter;stroke:rgb(0%,0%,0%);stroke-opacity:1;stroke-miterlimit:10;" d="M 41.6915 -41.6925 L 35.339938 -48.03625 C 14.492281 -68.883906 -18.90225 68.428594 10.109469 63.834844 " transform="matrix(1,0,0,-1,71.121,71.12)"/>
<path style=" stroke:none;fill-rule:nonzero;fill:rgb(100%,100%,100%);fill-opacity:1;" d="M 121.636719 96.859375 L 117.554688 104.855469 C 104.6875 130.113281 33.367188 13.960938 61.367188 9.523438 L 61.011719 7.285156 C 31.996094 11.878906 106.191406 132.152344 119.574219 105.886719 L 123.65625 97.886719 "/>
<path style="fill:none;stroke-width:0.3985;stroke-linecap:butt;stroke-linejoin:miter;stroke:rgb(0%,0%,0%);stroke-opacity:1;stroke-miterlimit:10;" d="M 50.515719 -25.739375 L 46.433688 -33.735469 C 33.5665 -58.993281 -37.753812 57.159062 -9.753812 61.596562 " transform="matrix(1,0,0,-1,71.121,71.12)"/>
<path style="fill:none;stroke-width:0.3985;stroke-linecap:butt;stroke-linejoin:miter;stroke:rgb(0%,0%,0%);stroke-opacity:1;stroke-miterlimit:10;" d="M 52.53525 -26.766719 L 48.453219 -34.766719 C 35.070406 -61.032344 -39.124906 59.241094 -10.109281 63.834844 " transform="matrix(1,0,0,-1,71.121,71.12)"/>
<path style=" stroke:none;fill-rule:nonzero;fill:rgb(100%,100%,100%);fill-opacity:1;" d="M 127.117188 79.988281 L 125.707031 88.855469 C 121.273438 116.855469 17.550781 28.421875 42.808594 15.554688 L 41.78125 13.535156 C 15.605469 26.871094 123.335938 118.328125 127.949219 89.210938 L 129.355469 80.34375 "/>
<path style="fill:none;stroke-width:0.3985;stroke-linecap:butt;stroke-linejoin:miter;stroke:rgb(0%,0%,0%);stroke-opacity:1;stroke-miterlimit:10;" d="M 55.996188 -8.868281 L 54.586031 -17.735469 C 50.152438 -45.735469 -53.570219 42.698125 -28.312406 55.565312 " transform="matrix(1,0,0,-1,71.121,71.12)"/>
<path style="fill:none;stroke-width:0.3985;stroke-linecap:butt;stroke-linejoin:miter;stroke:rgb(0%,0%,0%);stroke-opacity:1;stroke-miterlimit:10;" d="M 58.234469 -9.22375 L 56.828219 -18.090938 C 52.214938 -47.208125 -55.515531 44.248906 -29.33975 57.584844 " transform="matrix(1,0,0,-1,71.121,71.12)"/>
</g>
</svg>
