<?xml version="1.0" encoding="UTF-8"?>
<svg xmlns="http://www.w3.org/2000/svg" xmlns:xlink="http://www.w3.org/1999/xlink" width="65.196pt" height="66.077pt" viewBox="0 0 65.196 66.077" version="1.1">
<defs>
<clipPath id="clip1">
  <path d="M 0 30 L 27 30 L 27 66.078125 L 0 66.078125 Z M 0 30 "/>
</clipPath>
<clipPath id="clip2">
  <path d="M 3 43 L 44 43 L 44 66.078125 L 3 66.078125 Z M 3 43 "/>
</clipPath>
<clipPath id="clip3">
  <path d="M 21 45 L 64 45 L 64 66.078125 L 21 66.078125 Z M 21 45 "/>
</clipPath>
<clipPath id="clip4">
  <path d="M 37 30 L 65.195312 30 L 65.195312 66.078125 L 37 66.078125 Z M 37 30 "/>
</clipPath>
<clipPath id="clip5">
  <path d="M 46 11 L 65.195312 11 L 65.195312 54 L 46 54 Z M 46 11 "/>
</clipPath>
<clipPath id="clip6">
  <path d="M 38 0 L 65.195312 0 L 65.195312 36 L 38 36 Z M 38 0 "/>
</clipPath>
<clipPath id="clip7">
  <path d="M 37 0 L 65.195312 0 L 65.195312 36 L 37 36 Z M 37 0 "/>
</clipPath>
<clipPath id="clip8">
  <path d="M 0 30 L 29 30 L 29 66.078125 L 0 66.078125 Z M 0 30 "/>
</clipPath>
<clipPath id="clip9">
  <path d="M 2 45 L 44 45 L 44 66.078125 L 2 66.078125 Z M 2 45 "/>
</clipPath>
<clipPath id="clip10">
  <path d="M 21 43 L 62 43 L 62 66.078125 L 21 66.078125 Z M 21 43 "/>
</clipPath>
<clipPath id="clip11">
  <path d="M 38 30 L 65.195312 30 L 65.195312 66.078125 L 38 66.078125 Z M 38 30 "/>
</clipPath>
<clipPath id="clip12">
  <path d="M 46 12 L 65.195312 12 L 65.195312 55 L 46 55 Z M 46 12 "/>
</clipPath>
</defs>
<g id="surface76">
<path style=" stroke:none;fill-rule:nonzero;fill:rgb(100%,100%,100%);fill-opacity:1;" d="M 48.445312 11.226562 L 41.359375 6.078125 C 38.8125 4.230469 35.746094 3.230469 32.597656 3.230469 L 32.597656 0.398438 C 36.34375 0.398438 39.996094 1.582031 43.023438 3.785156 L 50.109375 8.933594 "/>
<path style="fill:none;stroke-width:0.79701;stroke-linecap:butt;stroke-linejoin:miter;stroke:rgb(0%,0%,0%);stroke-opacity:1;stroke-miterlimit:10;" d="M 15.847312 21.811437 L 8.761375 26.959875 C 6.2145 28.807531 3.148094 29.807531 -0.00034375 29.807531 M -0.00034375 32.639562 C 3.74575 32.639562 7.398094 31.455969 10.425437 29.252844 L 17.511375 24.104406 " transform="matrix(1,0,0,-1,32.598,33.038)"/>
<path style=" stroke:none;fill-rule:nonzero;fill:rgb(100%,100%,100%);fill-opacity:1;" d="M 32.597656 6.078125 L 23.839844 6.078125 C 20.691406 6.078125 17.625 7.074219 15.078125 8.925781 L 13.414062 6.632812 C 16.441406 4.429688 20.09375 3.242188 23.839844 3.242188 L 32.597656 3.242188 "/>
<path style="fill:none;stroke-width:0.79701;stroke-linecap:butt;stroke-linejoin:miter;stroke:rgb(0%,0%,0%);stroke-opacity:1;stroke-miterlimit:10;" d="M -0.00034375 26.959875 L -8.758156 26.959875 C -11.906594 26.959875 -14.973 25.963781 -17.519875 24.112219 M -19.183938 26.405187 C -16.156594 28.608312 -12.50425 29.795812 -8.758156 29.795812 L -0.00034375 29.795812 " transform="matrix(1,0,0,-1,32.598,33.038)"/>
<path style=" stroke:none;fill-rule:nonzero;fill:rgb(100%,100%,100%);fill-opacity:1;" d="M 16.753906 11.226562 L 9.664062 16.375 C 7.121094 18.226562 5.222656 20.835938 4.25 23.828125 L 1.554688 22.953125 C 2.710938 19.390625 4.96875 16.285156 8 14.082031 L 15.085938 8.933594 "/>
<path style="fill:none;stroke-width:0.79701;stroke-linecap:butt;stroke-linejoin:miter;stroke:rgb(0%,0%,0%);stroke-opacity:1;stroke-miterlimit:10;" d="M -15.844094 21.811437 L -22.933938 16.663 C -25.476906 14.811437 -27.375344 12.202062 -28.348 9.209875 M -31.043313 10.084875 C -29.887063 13.647375 -27.62925 16.752844 -24.598 18.955969 L -17.512063 24.104406 " transform="matrix(1,0,0,-1,32.598,33.038)"/>
<path style=" stroke:none;fill-rule:nonzero;fill:rgb(100%,100%,100%);fill-opacity:1;" d="M 6.957031 24.707031 L 4.25 33.039062 C 3.277344 36.03125 3.277344 39.253906 4.25 42.246094 L 1.554688 43.125 C 0.398438 39.5625 0.398438 35.722656 1.554688 32.160156 L 4.261719 23.832031 "/>
<path style="fill:none;stroke-width:0.79701;stroke-linecap:butt;stroke-linejoin:miter;stroke:rgb(0%,0%,0%);stroke-opacity:1;stroke-miterlimit:10;" d="M -25.640969 8.330969 L -28.348 -0.0010625 C -29.320656 -2.99325 -29.320656 -6.215906 -28.348 -9.208094 M -31.043313 -10.087 C -32.199563 -6.5245 -32.199563 -2.684656 -31.043313 0.877844 L -28.336281 9.205969 " transform="matrix(1,0,0,-1,32.598,33.038)"/>
<path style=" stroke:none;fill-rule:nonzero;fill:rgb(100%,100%,100%);fill-opacity:1;" d="M 6.957031 41.367188 L 9.664062 49.699219 C 10.636719 52.691406 12.53125 55.300781 15.078125 57.152344 L 13.414062 59.445312 C 10.382812 57.242188 8.125 54.136719 6.96875 50.574219 L 4.261719 42.246094 "/>
<g clip-path="url(#clip1)" clip-rule="nonzero">
<path style="fill:none;stroke-width:0.79701;stroke-linecap:butt;stroke-linejoin:miter;stroke:rgb(0%,0%,0%);stroke-opacity:1;stroke-miterlimit:10;" d="M -25.640969 -8.329188 L -22.933938 -16.661219 C -21.961281 -19.653406 -20.06675 -22.262781 -17.519875 -24.114344 M -19.183938 -26.407313 C -22.215188 -24.204188 -24.473 -21.098719 -25.62925 -17.536219 L -28.336281 -9.208094 " transform="matrix(1,0,0,-1,32.598,33.038)"/>
</g>
<path style=" stroke:none;fill-rule:nonzero;fill:rgb(100%,100%,100%);fill-opacity:1;" d="M 16.753906 54.847656 L 23.839844 59.996094 C 26.382812 61.847656 29.449219 62.84375 32.597656 62.84375 L 32.597656 65.679688 C 28.851562 65.679688 25.203125 64.492188 22.171875 62.292969 L 15.085938 57.140625 "/>
<g clip-path="url(#clip2)" clip-rule="nonzero">
<path style="fill:none;stroke-width:0.79701;stroke-linecap:butt;stroke-linejoin:miter;stroke:rgb(0%,0%,0%);stroke-opacity:1;stroke-miterlimit:10;" d="M -15.844094 -21.809656 L -8.758156 -26.958094 C -6.215188 -28.809656 -3.148781 -29.80575 -0.00034375 -29.80575 M -0.00034375 -32.641688 C -3.746438 -32.641688 -7.394875 -31.454188 -10.426125 -29.254969 L -17.512063 -24.102625 " transform="matrix(1,0,0,-1,32.598,33.038)"/>
</g>
<path style=" stroke:none;fill-rule:nonzero;fill:rgb(100%,100%,100%);fill-opacity:1;" d="M 32.597656 59.996094 L 41.359375 59.996094 C 44.503906 59.996094 47.570312 59 50.117188 57.152344 L 51.78125 59.445312 C 48.753906 61.644531 45.101562 62.832031 41.359375 62.832031 L 32.597656 62.832031 "/>
<g clip-path="url(#clip3)" clip-rule="nonzero">
<path style="fill:none;stroke-width:0.79701;stroke-linecap:butt;stroke-linejoin:miter;stroke:rgb(0%,0%,0%);stroke-opacity:1;stroke-miterlimit:10;" d="M -0.00034375 -26.958094 L 8.761375 -26.958094 C 11.905906 -26.958094 14.972312 -25.962 17.519187 -24.114344 M 19.18325 -26.407313 C 16.155906 -28.606531 12.503562 -29.794031 8.761375 -29.794031 L -0.00034375 -29.794031 " transform="matrix(1,0,0,-1,32.598,33.038)"/>
</g>
<path style=" stroke:none;fill-rule:nonzero;fill:rgb(100%,100%,100%);fill-opacity:1;" d="M 48.445312 54.847656 L 55.53125 49.699219 C 58.078125 47.851562 59.972656 45.242188 60.945312 42.25 L 63.640625 43.125 C 62.484375 46.6875 60.226562 49.792969 57.199219 51.992188 L 50.109375 57.140625 "/>
<g clip-path="url(#clip4)" clip-rule="nonzero">
<path style="fill:none;stroke-width:0.79701;stroke-linecap:butt;stroke-linejoin:miter;stroke:rgb(0%,0%,0%);stroke-opacity:1;stroke-miterlimit:10;" d="M 15.847312 -21.809656 L 22.93325 -16.661219 C 25.480125 -14.813563 27.374656 -12.204188 28.347312 -9.212 M 31.042625 -10.087 C 29.886375 -13.6495 27.628562 -16.754969 24.601219 -18.954188 L 17.511375 -24.102625 " transform="matrix(1,0,0,-1,32.598,33.038)"/>
</g>
<path style=" stroke:none;fill-rule:nonzero;fill:rgb(100%,100%,100%);fill-opacity:1;" d="M 58.238281 41.367188 L 60.945312 33.039062 C 61.917969 30.046875 61.917969 26.820312 60.945312 23.828125 L 63.640625 22.953125 C 64.796875 26.515625 64.796875 30.351562 63.640625 33.914062 L 60.933594 42.246094 "/>
<g clip-path="url(#clip5)" clip-rule="nonzero">
<path style="fill:none;stroke-width:0.79701;stroke-linecap:butt;stroke-linejoin:miter;stroke:rgb(0%,0%,0%);stroke-opacity:1;stroke-miterlimit:10;" d="M 25.640281 -8.329188 L 28.347312 -0.0010625 C 29.319969 2.991125 29.319969 6.217687 28.347312 9.209875 M 31.042625 10.084875 C 32.198875 6.522375 32.198875 2.686437 31.042625 -0.876063 L 28.335594 -9.208094 " transform="matrix(1,0,0,-1,32.598,33.038)"/>
</g>
<path style=" stroke:none;fill-rule:nonzero;fill:rgb(100%,100%,100%);fill-opacity:1;" d="M 58.238281 24.707031 L 55.53125 16.375 C 54.558594 13.382812 52.664062 10.773438 50.117188 8.925781 L 51.785156 6.632812 C 54.8125 8.832031 57.070312 11.9375 58.226562 15.5 L 60.933594 23.832031 "/>
<g clip-path="url(#clip6)" clip-rule="nonzero">
<path style="fill:none;stroke-width:0.79701;stroke-linecap:butt;stroke-linejoin:miter;stroke:rgb(0%,0%,0%);stroke-opacity:1;stroke-miterlimit:10;" d="M 25.640281 8.330969 L 22.93325 16.663 C 21.960594 19.655187 20.066062 22.264562 17.519187 24.112219 M 19.187156 26.405187 C 22.2145 24.205969 24.472312 21.1005 25.628562 17.538 L 28.335594 9.205969 " transform="matrix(1,0,0,-1,32.598,33.038)"/>
</g>
<path style=" stroke:none;fill-rule:nonzero;fill:rgb(100%,100%,100%);fill-opacity:1;" d="M 57.199219 14.082031 C 60.226562 16.285156 62.484375 19.390625 63.640625 22.953125 L 60.945312 23.828125 C 59.972656 20.835938 58.078125 18.226562 55.53125 16.375 L 48.445312 11.226562 L 50.109375 8.933594 Z M 57.199219 14.082031 "/>
<g clip-path="url(#clip7)" clip-rule="nonzero">
<path style="fill:none;stroke-width:0.79701;stroke-linecap:butt;stroke-linejoin:miter;stroke:rgb(0%,0%,0%);stroke-opacity:1;stroke-miterlimit:10;" d="M 17.511375 24.104406 L 24.601219 18.955969 C 27.628562 16.752844 29.886375 13.647375 31.042625 10.084875 M 28.347312 9.209875 C 27.374656 12.202062 25.480125 14.811437 22.93325 16.663 L 15.847312 21.811437 " transform="matrix(1,0,0,-1,32.598,33.038)"/>
</g>
<path style=" stroke:none;fill-rule:nonzero;fill:rgb(100%,100%,100%);fill-opacity:1;" d="M 41.359375 3.242188 C 45.101562 3.242188 48.753906 4.429688 51.78125 6.628906 L 50.117188 8.925781 C 47.570312 7.074219 44.503906 6.078125 41.359375 6.078125 L 32.597656 6.078125 L 32.597656 3.242188 Z M 41.359375 3.242188 "/>
<path style="fill:none;stroke-width:0.79701;stroke-linecap:butt;stroke-linejoin:miter;stroke:rgb(0%,0%,0%);stroke-opacity:1;stroke-miterlimit:10;" d="M -0.00034375 29.795812 L 8.761375 29.795812 C 12.503562 29.795812 16.155906 28.608312 19.18325 26.409094 M 17.519187 24.112219 C 14.972312 25.963781 11.905906 26.959875 8.761375 26.959875 L -0.00034375 26.959875 " transform="matrix(1,0,0,-1,32.598,33.038)"/>
<path style=" stroke:none;fill-rule:nonzero;fill:rgb(100%,100%,100%);fill-opacity:1;" d="M 22.171875 3.785156 C 25.203125 1.582031 28.851562 0.398438 32.597656 0.398438 L 32.597656 3.230469 C 29.449219 3.230469 26.382812 4.230469 23.839844 6.078125 L 16.753906 11.226562 L 15.085938 8.933594 Z M 22.171875 3.785156 "/>
<path style="fill:none;stroke-width:0.79701;stroke-linecap:butt;stroke-linejoin:miter;stroke:rgb(0%,0%,0%);stroke-opacity:1;stroke-miterlimit:10;" d="M -17.512063 24.104406 L -10.426125 29.252844 C -7.394875 31.455969 -3.746438 32.639562 -0.00034375 32.639562 M -0.00034375 29.807531 C -3.148781 29.807531 -6.215188 28.807531 -8.758156 26.959875 L -15.844094 21.811437 " transform="matrix(1,0,0,-1,32.598,33.038)"/>
<path style=" stroke:none;fill-rule:nonzero;fill:rgb(100%,100%,100%);fill-opacity:1;" d="M 6.96875 15.5 C 8.125 11.9375 10.382812 8.832031 13.414062 6.632812 L 15.078125 8.925781 C 12.53125 10.773438 10.636719 13.382812 9.664062 16.375 L 6.957031 24.707031 L 4.261719 23.832031 Z M 6.96875 15.5 "/>
<path style="fill:none;stroke-width:0.79701;stroke-linecap:butt;stroke-linejoin:miter;stroke:rgb(0%,0%,0%);stroke-opacity:1;stroke-miterlimit:10;" d="M -28.336281 9.205969 L -25.62925 17.538 C -24.473 21.1005 -22.215188 24.205969 -19.183938 26.405187 M -17.519875 24.112219 C -20.06675 22.264562 -21.961281 19.655187 -22.933938 16.663 L -25.640969 8.330969 " transform="matrix(1,0,0,-1,32.598,33.038)"/>
<path style=" stroke:none;fill-rule:nonzero;fill:rgb(100%,100%,100%);fill-opacity:1;" d="M 1.554688 33.914062 C 0.398438 30.351562 0.398438 26.511719 1.554688 22.953125 L 4.25 23.828125 C 3.277344 26.820312 3.277344 30.046875 4.25 33.039062 L 6.957031 41.367188 L 4.261719 42.246094 Z M 1.554688 33.914062 "/>
<path style="fill:none;stroke-width:0.79701;stroke-linecap:butt;stroke-linejoin:miter;stroke:rgb(0%,0%,0%);stroke-opacity:1;stroke-miterlimit:10;" d="M -28.336281 -9.208094 L -31.043313 -0.876063 C -32.199563 2.686437 -32.199563 6.526281 -31.043313 10.084875 M -28.348 9.209875 C -29.320656 6.217687 -29.320656 2.991125 -28.348 -0.0010625 L -25.640969 -8.329188 " transform="matrix(1,0,0,-1,32.598,33.038)"/>
<path style=" stroke:none;fill-rule:nonzero;fill:rgb(100%,100%,100%);fill-opacity:1;" d="M 8 51.992188 C 4.96875 49.792969 2.710938 46.6875 1.554688 43.125 L 4.25 42.25 C 5.222656 45.242188 7.121094 47.851562 9.664062 49.699219 L 16.753906 54.847656 L 15.085938 57.140625 Z M 8 51.992188 "/>
<g clip-path="url(#clip8)" clip-rule="nonzero">
<path style="fill:none;stroke-width:0.79701;stroke-linecap:butt;stroke-linejoin:miter;stroke:rgb(0%,0%,0%);stroke-opacity:1;stroke-miterlimit:10;" d="M -17.512063 -24.102625 L -24.598 -18.954188 C -27.62925 -16.754969 -29.887063 -13.6495 -31.043313 -10.087 M -28.348 -9.212 C -27.375344 -12.204188 -25.476906 -14.813563 -22.933938 -16.661219 L -15.844094 -21.809656 " transform="matrix(1,0,0,-1,32.598,33.038)"/>
</g>
<path style=" stroke:none;fill-rule:nonzero;fill:rgb(100%,100%,100%);fill-opacity:1;" d="M 23.839844 62.832031 C 20.09375 62.832031 16.441406 61.644531 13.414062 59.445312 L 15.078125 57.152344 C 17.625 59 20.691406 59.996094 23.839844 59.996094 L 32.597656 59.996094 L 32.597656 62.832031 Z M 23.839844 62.832031 "/>
<g clip-path="url(#clip9)" clip-rule="nonzero">
<path style="fill:none;stroke-width:0.79701;stroke-linecap:butt;stroke-linejoin:miter;stroke:rgb(0%,0%,0%);stroke-opacity:1;stroke-miterlimit:10;" d="M -0.00034375 -29.794031 L -8.758156 -29.794031 C -12.50425 -29.794031 -16.156594 -28.606531 -19.183938 -26.407313 M -17.519875 -24.114344 C -14.973 -25.962 -11.906594 -26.958094 -8.758156 -26.958094 L -0.00034375 -26.958094 " transform="matrix(1,0,0,-1,32.598,33.038)"/>
</g>
<path style=" stroke:none;fill-rule:nonzero;fill:rgb(100%,100%,100%);fill-opacity:1;" d="M 43.023438 62.289062 C 39.992188 64.492188 36.34375 65.679688 32.597656 65.679688 L 32.597656 62.84375 C 35.746094 62.84375 38.8125 61.847656 41.359375 59.996094 L 48.445312 54.847656 L 50.109375 57.140625 Z M 43.023438 62.289062 "/>
<g clip-path="url(#clip10)" clip-rule="nonzero">
<path style="fill:none;stroke-width:0.79701;stroke-linecap:butt;stroke-linejoin:miter;stroke:rgb(0%,0%,0%);stroke-opacity:1;stroke-miterlimit:10;" d="M 17.511375 -24.102625 L 10.425437 -29.251063 C 7.394187 -31.454188 3.74575 -32.641688 -0.00034375 -32.641688 M -0.00034375 -29.80575 C 3.148094 -29.80575 6.2145 -28.809656 8.761375 -26.958094 L 15.847312 -21.809656 " transform="matrix(1,0,0,-1,32.598,33.038)"/>
</g>
<path style=" stroke:none;fill-rule:nonzero;fill:rgb(100%,100%,100%);fill-opacity:1;" d="M 58.226562 50.574219 C 57.070312 54.136719 54.8125 57.242188 51.785156 59.445312 L 50.117188 57.152344 C 52.664062 55.300781 54.558594 52.691406 55.53125 49.699219 L 58.238281 41.367188 L 60.933594 42.246094 Z M 58.226562 50.574219 "/>
<g clip-path="url(#clip11)" clip-rule="nonzero">
<path style="fill:none;stroke-width:0.79701;stroke-linecap:butt;stroke-linejoin:miter;stroke:rgb(0%,0%,0%);stroke-opacity:1;stroke-miterlimit:10;" d="M 28.335594 -9.208094 L 25.628562 -17.536219 C 24.472312 -21.098719 22.2145 -24.204188 19.187156 -26.407313 M 17.519187 -24.114344 C 20.066062 -22.262781 21.960594 -19.653406 22.93325 -16.661219 L 25.640281 -8.329188 " transform="matrix(1,0,0,-1,32.598,33.038)"/>
</g>
<path style=" stroke:none;fill-rule:nonzero;fill:rgb(100%,100%,100%);fill-opacity:1;" d="M 63.640625 32.164062 C 64.796875 35.722656 64.796875 39.5625 63.640625 43.125 L 60.945312 42.246094 C 61.917969 39.253906 61.917969 36.03125 60.945312 33.039062 L 58.238281 24.707031 L 60.933594 23.832031 Z M 63.640625 32.164062 "/>
<g clip-path="url(#clip12)" clip-rule="nonzero">
<path style="fill:none;stroke-width:0.79701;stroke-linecap:butt;stroke-linejoin:miter;stroke:rgb(0%,0%,0%);stroke-opacity:1;stroke-miterlimit:10;" d="M 28.335594 9.205969 L 31.042625 0.873937 C 32.198875 -2.684656 32.198875 -6.5245 31.042625 -10.087 M 28.347312 -9.208094 C 29.319969 -6.215906 29.319969 -2.99325 28.347312 -0.0010625 L 25.640281 8.330969 " transform="matrix(1,0,0,-1,32.598,33.038)"/>
</g>
</g>
</svg>
