<?xml version="1.0" encoding="UTF-8"?>
<svg xmlns="http://www.w3.org/2000/svg" xmlns:xlink="http://www.w3.org/1999/xlink" width="262.189pt" height="302.688pt" viewBox="0 0 262.189 302.688" version="1.1">
<g id="surface156">
<path style=" stroke:none;fill-rule:nonzero;fill:rgb(100%,100%,100%);fill-opacity:1;" d="M 85.738281 151.34375 L 85.738281 102.246094 C 85.738281 17.207031 230.253906 182.472656 156.605469 224.992188 L 159.441406 229.902344 C 238 184.546875 80.070312 0.199219 80.070312 102.246094 L 80.070312 151.34375 "/>
<path style="fill:none;stroke-width:0.3985;stroke-linecap:butt;stroke-linejoin:miter;stroke:rgb(0%,0%,0%);stroke-opacity:1;stroke-miterlimit:10;" d="M -28.348719 0.00025 L -28.348719 49.097906 C -28.348719 134.136969 116.166906 -31.128656 42.518469 -73.648188 " transform="matrix(1,0,0,-1,114.087,151.344)"/>
<path style="fill:none;stroke-width:0.3985;stroke-linecap:butt;stroke-linejoin:miter;stroke:rgb(0%,0%,0%);stroke-opacity:1;stroke-miterlimit:10;" d="M 45.354406 -78.558344 C 123.913 -33.202875 -34.016688 151.144781 -34.016688 49.097906 L -34.016688 0.00025 " transform="matrix(1,0,0,-1,114.087,151.344)"/>
<path style=" stroke:none;fill-rule:nonzero;fill:rgb(100%,100%,100%);fill-opacity:1;" d="M 128.261719 175.894531 L 85.738281 200.441406 C 12.09375 242.960938 82.960938 35.175781 156.605469 77.695312 L 159.441406 72.785156 C 80.882812 27.433594 0.199219 256.375 88.574219 205.351562 L 131.09375 180.804688 "/>
<path style="fill:none;stroke-width:0.3985;stroke-linecap:butt;stroke-linejoin:miter;stroke:rgb(0%,0%,0%);stroke-opacity:1;stroke-miterlimit:10;" d="M 14.174719 -24.550531 L -28.348719 -49.097406 C -101.99325 -91.616938 -31.126063 116.168219 42.518469 73.648687 " transform="matrix(1,0,0,-1,114.087,151.344)"/>
<path style="fill:none;stroke-width:0.3985;stroke-linecap:butt;stroke-linejoin:miter;stroke:rgb(0%,0%,0%);stroke-opacity:1;stroke-miterlimit:10;" d="M 45.354406 78.558844 C -33.204188 123.910406 -113.887781 -105.031 -25.512781 -54.007563 L 17.00675 -29.460688 " transform="matrix(1,0,0,-1,114.087,151.344)"/>
<path style=" stroke:none;fill-rule:nonzero;fill:rgb(100%,100%,100%);fill-opacity:1;" d="M 128.261719 126.792969 L 170.78125 151.34375 C 244.429688 193.863281 29.046875 236.382812 29.046875 151.34375 L 23.378906 151.34375 C 23.378906 242.054688 261.992188 197.457031 173.613281 146.433594 L 131.09375 121.886719 "/>
<path style="fill:none;stroke-width:0.3985;stroke-linecap:butt;stroke-linejoin:miter;stroke:rgb(0%,0%,0%);stroke-opacity:1;stroke-miterlimit:10;" d="M 14.174719 24.551031 L 56.69425 0.00025 C 130.342688 -42.519281 -85.040125 -85.038813 -85.040125 0.00025 " transform="matrix(1,0,0,-1,114.087,151.344)"/>
<path style="fill:none;stroke-width:0.3985;stroke-linecap:butt;stroke-linejoin:miter;stroke:rgb(0%,0%,0%);stroke-opacity:1;stroke-miterlimit:10;" d="M -90.708094 0.00025 C -90.708094 -90.710688 147.905188 -46.113031 59.526281 4.910406 L 17.00675 29.457281 " transform="matrix(1,0,0,-1,114.087,151.344)"/>
<path style=" stroke:none;fill-rule:nonzero;fill:rgb(100%,100%,100%);fill-opacity:1;" d="M 128.261719 126.792969 L 85.738281 102.246094 C 12.09375 59.726562 82.960938 267.511719 156.605469 224.992188 L 159.441406 229.902344 C 80.882812 275.253906 0.199219 46.3125 88.574219 97.335938 L 131.09375 121.886719 "/>
<path style="fill:none;stroke-width:0.3985;stroke-linecap:butt;stroke-linejoin:miter;stroke:rgb(0%,0%,0%);stroke-opacity:1;stroke-miterlimit:10;" d="M 14.174719 24.551031 L -28.348719 49.097906 C -101.99325 91.617437 -31.126063 -116.167719 42.518469 -73.648188 " transform="matrix(1,0,0,-1,114.087,151.344)"/>
<path style="fill:none;stroke-width:0.3985;stroke-linecap:butt;stroke-linejoin:miter;stroke:rgb(0%,0%,0%);stroke-opacity:1;stroke-miterlimit:10;" d="M 17.00675 29.457281 L -25.512781 54.008062 C -113.887781 105.0315 -33.204188 -123.909906 45.354406 -78.558344 " transform="matrix(1,0,0,-1,114.087,151.344)"/>
<path style=" stroke:none;fill-rule:nonzero;fill:rgb(100%,100%,100%);fill-opacity:1;" d="M 85.738281 151.34375 L 85.738281 200.441406 C 85.738281 285.484375 230.253906 120.21875 156.605469 77.695312 L 159.441406 72.785156 C 238 118.140625 80.070312 302.492188 80.070312 200.441406 L 80.070312 151.34375 "/>
<path style="fill:none;stroke-width:0.3985;stroke-linecap:butt;stroke-linejoin:miter;stroke:rgb(0%,0%,0%);stroke-opacity:1;stroke-miterlimit:10;" d="M -28.348719 0.00025 L -28.348719 -49.097406 C -28.348719 -134.140375 116.166906 31.12525 42.518469 73.648687 " transform="matrix(1,0,0,-1,114.087,151.344)"/>
<path style="fill:none;stroke-width:0.3985;stroke-linecap:butt;stroke-linejoin:miter;stroke:rgb(0%,0%,0%);stroke-opacity:1;stroke-miterlimit:10;" d="M -34.016688 0.00025 L -34.016688 -49.097406 C -34.016688 -151.148188 123.913 33.203375 45.354406 78.558844 " transform="matrix(1,0,0,-1,114.087,151.344)"/>
<path style=" stroke:none;fill-rule:nonzero;fill:rgb(100%,100%,100%);fill-opacity:1;" d="M 128.261719 175.894531 L 170.78125 151.34375 C 244.429688 108.824219 29.046875 66.304688 29.046875 151.34375 L 23.378906 151.34375 C 23.378906 60.632812 261.992188 105.230469 173.613281 156.253906 L 131.09375 180.804688 "/>
<path style="fill:none;stroke-width:0.3985;stroke-linecap:butt;stroke-linejoin:miter;stroke:rgb(0%,0%,0%);stroke-opacity:1;stroke-miterlimit:10;" d="M 14.174719 -24.550531 L 56.69425 0.00025 C 130.342688 42.519781 -85.040125 85.039312 -85.040125 0.00025 " transform="matrix(1,0,0,-1,114.087,151.344)"/>
<path style="fill:none;stroke-width:0.3985;stroke-linecap:butt;stroke-linejoin:miter;stroke:rgb(0%,0%,0%);stroke-opacity:1;stroke-miterlimit:10;" d="M 17.00675 -29.460688 L 59.526281 -4.909906 C 147.905188 46.113531 -90.708094 90.711187 -90.708094 0.00025 " transform="matrix(1,0,0,-1,114.087,151.344)"/>
</g>
</svg>
