<?xml version="1.0" encoding="UTF-8"?>
<svg xmlns="http://www.w3.org/2000/svg" xmlns:xlink="http://www.w3.org/1999/xlink" width="104.258pt" height="104.258pt" viewBox="0 0 104.258 104.258" version="1.1">
<defs>
<clipPath id="clip1">
  <path d="M 16 55 L 102 55 L 102 104.257812 L 16 104.257812 Z M 16 55 "/>
</clipPath>
<clipPath id="clip2">
  <path d="M 55 2 L 104.257812 2 L 104.257812 88 L 55 88 Z M 55 2 "/>
</clipPath>
<clipPath id="clip3">
  <path d="M 2 55 L 88 55 L 88 104.257812 L 2 104.257812 Z M 2 55 "/>
</clipPath>
<clipPath id="clip4">
  <path d="M 55 16 L 104.257812 16 L 104.257812 102 L 55 102 Z M 55 16 "/>
</clipPath>
</defs>
<g id="surface6">
<path style=" stroke:none;fill-rule:nonzero;fill:rgb(100%,100%,100%);fill-opacity:1;" d="M 37.957031 37.957031 L 23.78125 52.128906 C 15.953125 59.957031 15.953125 72.648438 23.78125 80.476562 L 13.761719 90.496094 C 0.398438 77.136719 0.398438 55.46875 13.761719 42.105469 L 27.933594 27.933594 "/>
<path style="fill:none;stroke-width:0.79701;stroke-linecap:butt;stroke-linejoin:miter;stroke:rgb(0%,0%,0%);stroke-opacity:1;stroke-miterlimit:10;" d="M -14.171969 14.171969 L -28.34775 0.00009375 C -36.175875 -7.828031 -36.175875 -20.519438 -28.34775 -28.347563 M -38.367281 -38.367094 C -51.730563 -25.007719 -51.730563 -3.33975 -38.367281 10.023531 L -24.195406 24.195406 " transform="matrix(1,0,0,-1,52.129,52.129)"/>
<path style=" stroke:none;fill-rule:nonzero;fill:rgb(100%,100%,100%);fill-opacity:1;" d="M 37.957031 66.300781 L 52.128906 80.476562 C 59.957031 88.304688 72.648438 88.304688 80.476562 80.476562 L 90.496094 90.496094 C 77.136719 103.859375 55.46875 103.859375 42.105469 90.496094 L 27.933594 76.324219 "/>
<g clip-path="url(#clip1)" clip-rule="nonzero">
<path style="fill:none;stroke-width:0.79701;stroke-linecap:butt;stroke-linejoin:miter;stroke:rgb(0%,0%,0%);stroke-opacity:1;stroke-miterlimit:10;" d="M -14.171969 -14.171781 L -0.00009375 -28.347563 C 7.828031 -36.175688 20.519437 -36.175688 28.347562 -28.347563 M 38.367094 -38.367094 C 25.007719 -51.730375 3.33975 -51.730375 -10.023531 -38.367094 L -24.195406 -24.195219 " transform="matrix(1,0,0,-1,52.129,52.129)"/>
</g>
<path style=" stroke:none;fill-rule:nonzero;fill:rgb(100%,100%,100%);fill-opacity:1;" d="M 66.300781 66.300781 L 80.476562 52.128906 C 88.304688 44.300781 88.304688 31.609375 80.476562 23.78125 L 90.496094 13.761719 C 103.859375 27.121094 103.859375 48.789062 90.496094 62.152344 L 76.324219 76.324219 "/>
<g clip-path="url(#clip2)" clip-rule="nonzero">
<path style="fill:none;stroke-width:0.79701;stroke-linecap:butt;stroke-linejoin:miter;stroke:rgb(0%,0%,0%);stroke-opacity:1;stroke-miterlimit:10;" d="M 14.171781 -14.171781 L 28.347562 0.00009375 C 36.175687 7.828219 36.175687 20.519625 28.347562 28.34775 M 38.367094 38.367281 C 51.730375 25.007906 51.730375 3.339937 38.367094 -10.023344 L 24.195219 -24.195219 " transform="matrix(1,0,0,-1,52.129,52.129)"/>
</g>
<path style=" stroke:none;fill-rule:nonzero;fill:rgb(100%,100%,100%);fill-opacity:1;" d="M 66.300781 37.957031 L 52.128906 23.78125 C 44.300781 15.953125 31.609375 15.953125 23.78125 23.78125 L 13.761719 13.761719 C 27.121094 0.398438 48.789062 0.398438 62.152344 13.761719 L 76.324219 27.933594 "/>
<path style="fill:none;stroke-width:0.79701;stroke-linecap:butt;stroke-linejoin:miter;stroke:rgb(0%,0%,0%);stroke-opacity:1;stroke-miterlimit:10;" d="M 14.171781 14.171969 L -0.00009375 28.34775 C -7.828219 36.175875 -20.519625 36.175875 -28.34775 28.34775 M -38.367281 38.367281 C -25.007906 51.730562 -3.339938 51.730562 10.023344 38.367281 L 24.195219 24.195406 " transform="matrix(1,0,0,-1,52.129,52.129)"/>
<path style=" stroke:none;fill-rule:nonzero;fill:rgb(100%,100%,100%);fill-opacity:1;" d="M 42.105469 13.761719 C 55.46875 0.398438 77.136719 0.398438 90.5 13.761719 L 80.476562 23.78125 C 72.648438 15.953125 59.957031 15.953125 52.128906 23.78125 L 37.957031 37.957031 L 27.933594 27.933594 Z M 42.105469 13.761719 "/>
<path style="fill:none;stroke-width:0.79701;stroke-linecap:butt;stroke-linejoin:miter;stroke:rgb(0%,0%,0%);stroke-opacity:1;stroke-miterlimit:10;" d="M -24.195406 24.195406 L -10.023531 38.367281 C 3.33975 51.730562 25.007719 51.730562 38.371 38.367281 M 28.347562 28.34775 C 20.519437 36.175875 7.828031 36.175875 -0.00009375 28.34775 L -14.171969 14.171969 " transform="matrix(1,0,0,-1,52.129,52.129)"/>
<path style=" stroke:none;fill-rule:nonzero;fill:rgb(100%,100%,100%);fill-opacity:1;" d="M 13.761719 62.152344 C 0.398438 48.789062 0.398438 27.121094 13.761719 13.761719 L 23.78125 23.78125 C 15.953125 31.609375 15.953125 44.300781 23.78125 52.128906 L 37.957031 66.300781 L 27.933594 76.324219 Z M 13.761719 62.152344 "/>
<path style="fill:none;stroke-width:0.79701;stroke-linecap:butt;stroke-linejoin:miter;stroke:rgb(0%,0%,0%);stroke-opacity:1;stroke-miterlimit:10;" d="M -24.195406 -24.195219 L -38.367281 -10.023344 C -51.730563 3.339937 -51.730563 25.007906 -38.367281 38.367281 M -28.34775 28.34775 C -36.175875 20.519625 -36.175875 7.828219 -28.34775 0.00009375 L -14.171969 -14.171781 " transform="matrix(1,0,0,-1,52.129,52.129)"/>
<path style=" stroke:none;fill-rule:nonzero;fill:rgb(100%,100%,100%);fill-opacity:1;" d="M 62.152344 90.496094 C 48.789062 103.859375 27.121094 103.859375 13.761719 90.496094 L 23.78125 80.476562 C 31.609375 88.304688 44.300781 88.304688 52.128906 80.476562 L 66.300781 66.300781 L 76.324219 76.324219 Z M 62.152344 90.496094 "/>
<g clip-path="url(#clip3)" clip-rule="nonzero">
<path style="fill:none;stroke-width:0.79701;stroke-linecap:butt;stroke-linejoin:miter;stroke:rgb(0%,0%,0%);stroke-opacity:1;stroke-miterlimit:10;" d="M 24.195219 -24.195219 L 10.023344 -38.367094 C -3.339938 -51.730375 -25.007906 -51.730375 -38.367281 -38.367094 M -28.34775 -28.347563 C -20.519625 -36.175688 -7.828219 -36.175688 -0.00009375 -28.347563 L 14.171781 -14.171781 " transform="matrix(1,0,0,-1,52.129,52.129)"/>
</g>
<path style=" stroke:none;fill-rule:nonzero;fill:rgb(100%,100%,100%);fill-opacity:1;" d="M 90.496094 42.105469 C 103.859375 55.46875 103.859375 77.136719 90.496094 90.5 L 80.476562 80.476562 C 88.304688 72.648438 88.304688 59.957031 80.476562 52.128906 L 66.300781 37.957031 L 76.324219 27.933594 Z M 90.496094 42.105469 "/>
<g clip-path="url(#clip4)" clip-rule="nonzero">
<path style="fill:none;stroke-width:0.79701;stroke-linecap:butt;stroke-linejoin:miter;stroke:rgb(0%,0%,0%);stroke-opacity:1;stroke-miterlimit:10;" d="M 24.195219 24.195406 L 38.367094 10.023531 C 51.730375 -3.33975 51.730375 -25.007719 38.367094 -38.371 M 28.347562 -28.347563 C 36.175687 -20.519438 36.175687 -7.828031 28.347562 0.00009375 L 14.171781 14.171969 " transform="matrix(1,0,0,-1,52.129,52.129)"/>
</g>
</g>
</svg>
