<?xml version="1.0" encoding="UTF-8"?>
<svg xmlns="http://www.w3.org/2000/svg" xmlns:xlink="http://www.w3.org/1999/xlink" width="256.961pt" height="256.961pt" viewBox="0 0 256.961 256.961" version="1.1">
<g id="surface71">
<path style=" stroke:none;fill-rule:nonzero;fill:rgb(100%,100%,100%);fill-opacity:1;" d="M 148.523438 108.4375 L 128.480469 88.390625 C 68.347656 28.257812 8.214844 128.480469 68.347656 188.613281 L 64.339844 192.621094 C 0.199219 128.480469 60.332031 12.222656 132.488281 84.378906 L 152.535156 104.425781 "/>
<path style="fill:none;stroke-width:0.3985;stroke-linecap:butt;stroke-linejoin:miter;stroke:rgb(0%,0%,0%);stroke-opacity:1;stroke-miterlimit:10;" d="M 20.042437 20.0425 L -0.00053125 40.089375 C -60.133344 100.222187 -120.266156 -0.00046875 -60.133344 -60.133281 " transform="matrix(1,0,0,-1,128.481,128.48)"/>
<path style="fill:none;stroke-width:0.3985;stroke-linecap:butt;stroke-linejoin:miter;stroke:rgb(0%,0%,0%);stroke-opacity:1;stroke-miterlimit:10;" d="M -64.141156 -64.141094 C -128.281781 -0.00046875 -68.148969 116.257344 4.007281 44.101094 L 24.054156 24.054219 " transform="matrix(1,0,0,-1,128.481,128.48)"/>
<path style=" stroke:none;fill-rule:nonzero;fill:rgb(100%,100%,100%);fill-opacity:1;" d="M 108.4375 108.4375 L 88.390625 128.480469 C 28.257812 188.613281 128.480469 248.746094 188.613281 188.613281 L 192.621094 192.621094 C 128.480469 256.761719 12.222656 196.628906 84.382812 124.472656 L 104.429688 104.425781 "/>
<path style="fill:none;stroke-width:0.3985;stroke-linecap:butt;stroke-linejoin:miter;stroke:rgb(0%,0%,0%);stroke-opacity:1;stroke-miterlimit:10;" d="M -20.0435 20.0425 L -40.090375 -0.00046875 C -100.223188 -60.133281 -0.00053125 -120.266094 60.132281 -60.133281 " transform="matrix(1,0,0,-1,128.481,128.48)"/>
<path style="fill:none;stroke-width:0.3985;stroke-linecap:butt;stroke-linejoin:miter;stroke:rgb(0%,0%,0%);stroke-opacity:1;stroke-miterlimit:10;" d="M 64.140094 -64.141094 C -0.00053125 -128.281719 -116.258344 -68.148906 -44.098188 4.007344 L -24.051313 24.054219 " transform="matrix(1,0,0,-1,128.481,128.48)"/>
<path style=" stroke:none;fill-rule:nonzero;fill:rgb(100%,100%,100%);fill-opacity:1;" d="M 108.4375 148.523438 L 128.480469 168.570312 C 188.613281 228.703125 248.746094 128.480469 188.613281 68.347656 L 192.621094 64.339844 C 256.765625 128.480469 196.632812 244.738281 124.472656 172.578125 L 104.429688 152.53125 "/>
<path style="fill:none;stroke-width:0.3985;stroke-linecap:butt;stroke-linejoin:miter;stroke:rgb(0%,0%,0%);stroke-opacity:1;stroke-miterlimit:10;" d="M -20.0435 -20.043438 L -0.00053125 -40.090313 C 60.132281 -100.223125 120.265094 -0.00046875 60.132281 60.132344 " transform="matrix(1,0,0,-1,128.481,128.48)"/>
<path style="fill:none;stroke-width:0.3985;stroke-linecap:butt;stroke-linejoin:miter;stroke:rgb(0%,0%,0%);stroke-opacity:1;stroke-miterlimit:10;" d="M 64.140094 64.140156 C 128.284625 -0.00046875 68.151812 -116.258281 -4.008344 -44.098125 L -24.051313 -24.05125 " transform="matrix(1,0,0,-1,128.481,128.48)"/>
<path style=" stroke:none;fill-rule:nonzero;fill:rgb(100%,100%,100%);fill-opacity:1;" d="M 148.523438 148.523438 L 168.570312 128.480469 C 228.703125 68.347656 128.480469 8.214844 68.347656 68.347656 L 64.339844 64.339844 C 128.480469 0.195312 244.738281 60.328125 172.582031 132.488281 L 152.535156 152.53125 "/>
<path style="fill:none;stroke-width:0.3985;stroke-linecap:butt;stroke-linejoin:miter;stroke:rgb(0%,0%,0%);stroke-opacity:1;stroke-miterlimit:10;" d="M 20.042437 -20.043438 L 40.089312 -0.00046875 C 100.222125 60.132344 -0.00053125 120.265156 -60.133344 60.132344 " transform="matrix(1,0,0,-1,128.481,128.48)"/>
<path style="fill:none;stroke-width:0.3985;stroke-linecap:butt;stroke-linejoin:miter;stroke:rgb(0%,0%,0%);stroke-opacity:1;stroke-miterlimit:10;" d="M -64.141156 64.140156 C -0.00053125 128.284687 116.257281 68.151875 44.101031 -4.008281 L 24.054156 -24.05125 " transform="matrix(1,0,0,-1,128.481,128.48)"/>
<path style=" stroke:none;fill-rule:nonzero;fill:rgb(100%,100%,100%);fill-opacity:1;" d="M 148.523438 108.4375 L 168.570312 128.480469 C 228.703125 188.613281 128.480469 248.746094 68.347656 188.613281 L 64.339844 192.621094 C 128.480469 256.761719 244.738281 196.628906 172.582031 124.472656 L 152.535156 104.425781 "/>
<path style="fill:none;stroke-width:0.3985;stroke-linecap:butt;stroke-linejoin:miter;stroke:rgb(0%,0%,0%);stroke-opacity:1;stroke-miterlimit:10;" d="M 20.042437 20.0425 L 40.089312 -0.00046875 C 100.222125 -60.133281 -0.00053125 -120.266094 -60.133344 -60.133281 " transform="matrix(1,0,0,-1,128.481,128.48)"/>
<path style="fill:none;stroke-width:0.3985;stroke-linecap:butt;stroke-linejoin:miter;stroke:rgb(0%,0%,0%);stroke-opacity:1;stroke-miterlimit:10;" d="M 24.054156 24.054219 L 44.101031 4.007344 C 116.257281 -68.148906 -0.00053125 -128.281719 -64.141156 -64.141094 " transform="matrix(1,0,0,-1,128.481,128.48)"/>
<path style=" stroke:none;fill-rule:nonzero;fill:rgb(100%,100%,100%);fill-opacity:1;" d="M 108.4375 108.4375 L 128.480469 88.390625 C 188.613281 28.257812 248.746094 128.480469 188.613281 188.613281 L 192.621094 192.621094 C 256.765625 128.480469 196.632812 12.222656 124.472656 84.378906 L 104.429688 104.425781 "/>
<path style="fill:none;stroke-width:0.3985;stroke-linecap:butt;stroke-linejoin:miter;stroke:rgb(0%,0%,0%);stroke-opacity:1;stroke-miterlimit:10;" d="M -20.0435 20.0425 L -0.00053125 40.089375 C 60.132281 100.222187 120.265094 -0.00046875 60.132281 -60.133281 " transform="matrix(1,0,0,-1,128.481,128.48)"/>
<path style="fill:none;stroke-width:0.3985;stroke-linecap:butt;stroke-linejoin:miter;stroke:rgb(0%,0%,0%);stroke-opacity:1;stroke-miterlimit:10;" d="M -24.051313 24.054219 L -4.008344 44.101094 C 68.151812 116.257344 128.284625 -0.00046875 64.140094 -64.141094 " transform="matrix(1,0,0,-1,128.481,128.48)"/>
<path style=" stroke:none;fill-rule:nonzero;fill:rgb(100%,100%,100%);fill-opacity:1;" d="M 108.4375 148.523438 L 88.390625 128.480469 C 28.257812 68.347656 128.480469 8.214844 188.613281 68.347656 L 192.621094 64.339844 C 128.480469 0.195312 12.222656 60.328125 84.382812 132.488281 L 104.429688 152.53125 "/>
<path style="fill:none;stroke-width:0.3985;stroke-linecap:butt;stroke-linejoin:miter;stroke:rgb(0%,0%,0%);stroke-opacity:1;stroke-miterlimit:10;" d="M -20.0435 -20.043438 L -40.090375 -0.00046875 C -100.223188 60.132344 -0.00053125 120.265156 60.132281 60.132344 " transform="matrix(1,0,0,-1,128.481,128.48)"/>
<path style="fill:none;stroke-width:0.3985;stroke-linecap:butt;stroke-linejoin:miter;stroke:rgb(0%,0%,0%);stroke-opacity:1;stroke-miterlimit:10;" d="M -24.051313 -24.05125 L -44.098188 -4.008281 C -116.258344 68.151875 -0.00053125 128.284687 64.140094 64.140156 " transform="matrix(1,0,0,-1,128.481,128.48)"/>
<path style=" stroke:none;fill-rule:nonzero;fill:rgb(100%,100%,100%);fill-opacity:1;" d="M 148.523438 148.523438 L 128.480469 168.570312 C 68.347656 228.703125 8.214844 128.480469 68.347656 68.347656 L 64.339844 64.339844 C 0.199219 128.480469 60.332031 244.738281 132.488281 172.578125 L 152.535156 152.53125 "/>
<path style="fill:none;stroke-width:0.3985;stroke-linecap:butt;stroke-linejoin:miter;stroke:rgb(0%,0%,0%);stroke-opacity:1;stroke-miterlimit:10;" d="M 20.042437 -20.043438 L -0.00053125 -40.090313 C -60.133344 -100.223125 -120.266156 -0.00046875 -60.133344 60.132344 " transform="matrix(1,0,0,-1,128.481,128.48)"/>
<path style="fill:none;stroke-width:0.3985;stroke-linecap:butt;stroke-linejoin:miter;stroke:rgb(0%,0%,0%);stroke-opacity:1;stroke-miterlimit:10;" d="M 24.054156 -24.05125 L 4.007281 -44.098125 C -68.148969 -116.258281 -128.281781 -0.00046875 -64.141156 64.140156 " transform="matrix(1,0,0,-1,128.481,128.48)"/>
</g>
</svg>
