<?xml version="1.0" encoding="UTF-8"?>
<svg xmlns="http://www.w3.org/2000/svg" xmlns:xlink="http://www.w3.org/1999/xlink" width="254.251pt" height="253.802pt" viewBox="0 0 254.251 253.802" version="1.1">
<g id="surface161">
<path style=" stroke:none;fill-rule:nonzero;fill:rgb(100%,100%,100%);fill-opacity:1;" d="M 118.589844 99.941406 L 138.175781 93.578125 C 219.054688 67.296875 181.949219 234.058594 101.070312 207.78125 L 99.320312 213.171875 C 185.589844 241.203125 233.480469 56.652344 136.425781 88.1875 L 116.839844 94.550781 "/>
<path style="fill:none;stroke-width:0.3985;stroke-linecap:butt;stroke-linejoin:miter;stroke:rgb(0%,0%,0%);stroke-opacity:1;stroke-miterlimit:10;" d="M -8.760156 26.959594 L 10.825781 33.322875 C 91.704688 59.604125 54.599219 -107.157594 -26.279687 -80.88025 " transform="matrix(1,0,0,-1,127.35,126.901)"/>
<path style="fill:none;stroke-width:0.3985;stroke-linecap:butt;stroke-linejoin:miter;stroke:rgb(0%,0%,0%);stroke-opacity:1;stroke-miterlimit:10;" d="M -28.029687 -86.270875 C 58.239844 -114.302125 106.130469 70.248656 9.075781 38.7135 L -10.510156 32.350219 " transform="matrix(1,0,0,-1,127.35,126.901)"/>
<path style=" stroke:none;fill-rule:nonzero;fill:rgb(100%,100%,100%);fill-opacity:1;" d="M 99.003906 126.902344 L 99.003906 106.304688 C 99.003906 21.265625 246.136719 108.085938 196.148438 176.886719 L 200.734375 180.21875 C 254.054688 106.832031 93.335938 4.257812 93.335938 106.304688 L 93.332031 126.902344 "/>
<path style="fill:none;stroke-width:0.3985;stroke-linecap:butt;stroke-linejoin:miter;stroke:rgb(0%,0%,0%);stroke-opacity:1;stroke-miterlimit:10;" d="M -28.346094 -0.00134375 L -28.346094 20.596313 C -28.346094 105.635375 118.786719 18.815063 68.798438 -49.985719 " transform="matrix(1,0,0,-1,127.35,126.901)"/>
<path style="fill:none;stroke-width:0.3985;stroke-linecap:butt;stroke-linejoin:miter;stroke:rgb(0%,0%,0%);stroke-opacity:1;stroke-miterlimit:10;" d="M 73.384375 -53.31775 C 126.704688 20.068969 -34.014062 122.643188 -34.014062 20.596313 L -34.017969 -0.00134375 " transform="matrix(1,0,0,-1,127.35,126.901)"/>
<path style=" stroke:none;fill-rule:nonzero;fill:rgb(100%,100%,100%);fill-opacity:1;" d="M 118.589844 153.859375 L 99.003906 147.496094 C 18.125 121.214844 146.164062 8.117188 196.148438 76.914062 L 200.734375 73.582031 C 147.417969 0.199219 0.199219 121.351562 97.25 152.886719 L 116.839844 159.253906 "/>
<path style="fill:none;stroke-width:0.3985;stroke-linecap:butt;stroke-linejoin:miter;stroke:rgb(0%,0%,0%);stroke-opacity:1;stroke-miterlimit:10;" d="M -8.760156 -26.958375 L -28.346094 -20.595094 C -109.225 5.686156 18.814063 118.783813 68.798438 49.986938 " transform="matrix(1,0,0,-1,127.35,126.901)"/>
<path style="fill:none;stroke-width:0.3985;stroke-linecap:butt;stroke-linejoin:miter;stroke:rgb(0%,0%,0%);stroke-opacity:1;stroke-miterlimit:10;" d="M 73.384375 53.318969 C 20.067969 126.701781 -127.150781 5.549438 -30.1 -25.985719 L -10.510156 -32.352906 " transform="matrix(1,0,0,-1,127.35,126.901)"/>
<path style=" stroke:none;fill-rule:nonzero;fill:rgb(100%,100%,100%);fill-opacity:1;" d="M 150.28125 143.5625 L 138.175781 160.222656 C 88.191406 229.023438 20.191406 72.300781 101.070312 46.023438 L 99.320312 40.628906 C 13.046875 68.660156 82.78125 246.117188 142.761719 163.554688 L 154.871094 146.894531 "/>
<path style="fill:none;stroke-width:0.3985;stroke-linecap:butt;stroke-linejoin:miter;stroke:rgb(0%,0%,0%);stroke-opacity:1;stroke-miterlimit:10;" d="M 22.93125 -16.6615 L 10.825781 -33.321656 C -39.158594 -102.122437 -107.158594 54.600219 -26.279687 80.877563 " transform="matrix(1,0,0,-1,127.35,126.901)"/>
<path style="fill:none;stroke-width:0.3985;stroke-linecap:butt;stroke-linejoin:miter;stroke:rgb(0%,0%,0%);stroke-opacity:1;stroke-miterlimit:10;" d="M -28.029687 86.272094 C -114.303125 58.240844 -44.56875 -119.216187 15.411719 -36.653687 L 27.521094 -19.993531 " transform="matrix(1,0,0,-1,127.35,126.901)"/>
<path style=" stroke:none;fill-rule:nonzero;fill:rgb(100%,100%,100%);fill-opacity:1;" d="M 150.28125 110.238281 L 162.386719 126.902344 C 212.375 195.699219 42.308594 211.941406 42.308594 126.902344 L 36.640625 126.902344 C 36.640625 217.609375 226.957031 206.128906 166.972656 123.570312 L 154.871094 106.90625 "/>
<path style="fill:none;stroke-width:0.3985;stroke-linecap:butt;stroke-linejoin:miter;stroke:rgb(0%,0%,0%);stroke-opacity:1;stroke-miterlimit:10;" d="M 22.93125 16.662719 L 35.036719 -0.00134375 C 85.025 -68.798219 -85.041406 -85.040406 -85.041406 -0.00134375 " transform="matrix(1,0,0,-1,127.35,126.901)"/>
<path style="fill:none;stroke-width:0.3985;stroke-linecap:butt;stroke-linejoin:miter;stroke:rgb(0%,0%,0%);stroke-opacity:1;stroke-miterlimit:10;" d="M -90.709375 -0.00134375 C -90.709375 -90.708375 99.607031 -79.227906 39.622656 3.330688 L 27.521094 19.99475 " transform="matrix(1,0,0,-1,127.35,126.901)"/>
<path style=" stroke:none;fill-rule:nonzero;fill:rgb(100%,100%,100%);fill-opacity:1;" d="M 150.28125 110.238281 L 138.175781 93.578125 C 88.191406 24.777344 20.191406 181.5 101.070312 207.78125 L 99.320312 213.171875 C 13.046875 185.140625 82.78125 7.6875 142.761719 90.246094 L 154.871094 106.90625 "/>
<path style="fill:none;stroke-width:0.3985;stroke-linecap:butt;stroke-linejoin:miter;stroke:rgb(0%,0%,0%);stroke-opacity:1;stroke-miterlimit:10;" d="M 22.93125 16.662719 L 10.825781 33.322875 C -39.158594 102.123656 -107.158594 -54.599 -26.279687 -80.88025 " transform="matrix(1,0,0,-1,127.35,126.901)"/>
<path style="fill:none;stroke-width:0.3985;stroke-linecap:butt;stroke-linejoin:miter;stroke:rgb(0%,0%,0%);stroke-opacity:1;stroke-miterlimit:10;" d="M 27.521094 19.99475 L 15.411719 36.654906 C -44.56875 119.2135 -114.303125 -58.239625 -28.029687 -86.270875 " transform="matrix(1,0,0,-1,127.35,126.901)"/>
<path style=" stroke:none;fill-rule:nonzero;fill:rgb(100%,100%,100%);fill-opacity:1;" d="M 118.589844 99.941406 L 99.003906 106.304688 C 18.125 132.585938 146.164062 245.6875 196.148438 176.886719 L 200.734375 180.21875 C 147.417969 253.605469 0.199219 132.449219 97.25 100.914062 L 116.839844 94.550781 "/>
<path style="fill:none;stroke-width:0.3985;stroke-linecap:butt;stroke-linejoin:miter;stroke:rgb(0%,0%,0%);stroke-opacity:1;stroke-miterlimit:10;" d="M -8.760156 26.959594 L -28.346094 20.596313 C -109.225 -5.684937 18.814063 -118.7865 68.798438 -49.985719 " transform="matrix(1,0,0,-1,127.35,126.901)"/>
<path style="fill:none;stroke-width:0.3985;stroke-linecap:butt;stroke-linejoin:miter;stroke:rgb(0%,0%,0%);stroke-opacity:1;stroke-miterlimit:10;" d="M -10.510156 32.350219 L -30.1 25.986938 C -127.150781 -5.548219 20.067969 -126.704469 73.384375 -53.31775 " transform="matrix(1,0,0,-1,127.35,126.901)"/>
<path style=" stroke:none;fill-rule:nonzero;fill:rgb(100%,100%,100%);fill-opacity:1;" d="M 99.003906 126.902344 L 99.003906 147.496094 C 99.003906 232.535156 246.136719 145.714844 196.148438 76.914062 L 200.734375 73.582031 C 254.054688 146.96875 93.335938 249.542969 93.335938 147.496094 L 93.332031 126.902344 "/>
<path style="fill:none;stroke-width:0.3985;stroke-linecap:butt;stroke-linejoin:miter;stroke:rgb(0%,0%,0%);stroke-opacity:1;stroke-miterlimit:10;" d="M -28.346094 -0.00134375 L -28.346094 -20.595094 C -28.346094 -105.634156 118.786719 -18.813844 68.798438 49.986938 " transform="matrix(1,0,0,-1,127.35,126.901)"/>
<path style="fill:none;stroke-width:0.3985;stroke-linecap:butt;stroke-linejoin:miter;stroke:rgb(0%,0%,0%);stroke-opacity:1;stroke-miterlimit:10;" d="M -34.017969 -0.00134375 L -34.014062 -20.595094 C -34.014062 -122.641969 126.704688 -20.06775 73.384375 53.318969 " transform="matrix(1,0,0,-1,127.35,126.901)"/>
<path style=" stroke:none;fill-rule:nonzero;fill:rgb(100%,100%,100%);fill-opacity:1;" d="M 118.589844 153.859375 L 138.175781 160.222656 C 219.054688 186.503906 181.949219 19.742188 101.070312 46.023438 L 99.320312 40.628906 C 185.589844 12.597656 233.480469 197.152344 136.425781 165.617188 L 116.839844 159.253906 "/>
<path style="fill:none;stroke-width:0.3985;stroke-linecap:butt;stroke-linejoin:miter;stroke:rgb(0%,0%,0%);stroke-opacity:1;stroke-miterlimit:10;" d="M -8.760156 -26.958375 L 10.825781 -33.321656 C 91.704688 -59.602906 54.599219 107.158813 -26.279687 80.877563 " transform="matrix(1,0,0,-1,127.35,126.901)"/>
<path style="fill:none;stroke-width:0.3985;stroke-linecap:butt;stroke-linejoin:miter;stroke:rgb(0%,0%,0%);stroke-opacity:1;stroke-miterlimit:10;" d="M -10.510156 -32.352906 L 9.075781 -38.716187 C 106.130469 -70.251344 58.239844 114.303344 -28.029687 86.272094 " transform="matrix(1,0,0,-1,127.35,126.901)"/>
<path style=" stroke:none;fill-rule:nonzero;fill:rgb(100%,100%,100%);fill-opacity:1;" d="M 150.28125 143.5625 L 162.386719 126.902344 C 212.375 58.101562 42.308594 41.859375 42.308594 126.902344 L 36.640625 126.902344 C 36.640625 36.191406 226.957031 47.675781 166.972656 130.234375 L 154.871094 146.894531 "/>
<path style="fill:none;stroke-width:0.3985;stroke-linecap:butt;stroke-linejoin:miter;stroke:rgb(0%,0%,0%);stroke-opacity:1;stroke-miterlimit:10;" d="M 22.93125 -16.6615 L 35.036719 -0.00134375 C 85.025 68.799438 -85.041406 85.041625 -85.041406 -0.00134375 " transform="matrix(1,0,0,-1,127.35,126.901)"/>
<path style="fill:none;stroke-width:0.3985;stroke-linecap:butt;stroke-linejoin:miter;stroke:rgb(0%,0%,0%);stroke-opacity:1;stroke-miterlimit:10;" d="M 27.521094 -19.993531 L 39.622656 -3.333375 C 99.607031 79.225219 -90.709375 90.709594 -90.709375 -0.00134375 " transform="matrix(1,0,0,-1,127.35,126.901)"/>
</g>
</svg>
