<?xml version="1.0" encoding="UTF-8"?>
<svg xmlns="http://www.w3.org/2000/svg" xmlns:xlink="http://www.w3.org/1999/xlink" width="86.191pt" height="90.586pt" viewBox="0 0 86.191 90.586" version="1.1">
<defs>
<clipPath id="clip1">
  <path d="M 1 34 L 45 34 L 45 90.585938 L 1 90.585938 Z M 1 34 "/>
</clipPath>
<clipPath id="clip2">
  <path d="M 22 54 L 86.191406 54 L 86.191406 90.585938 L 22 90.585938 Z M 22 54 "/>
</clipPath>
<clipPath id="clip3">
  <path d="M 51 8 L 86.191406 8 L 86.191406 76 L 51 76 Z M 51 8 "/>
</clipPath>
<clipPath id="clip4">
  <path d="M 22 0 L 86.191406 0 L 86.191406 36 L 22 36 Z M 22 0 "/>
</clipPath>
<clipPath id="clip5">
  <path d="M 19 47 L 81 47 L 81 90.585938 L 19 90.585938 Z M 19 47 "/>
</clipPath>
<clipPath id="clip6">
  <path d="M 51 15 L 86.191406 15 L 86.191406 83 L 51 83 Z M 51 15 "/>
</clipPath>
</defs>
<g id="surface11">
<path style=" stroke:none;fill-rule:nonzero;fill:rgb(100%,100%,100%);fill-opacity:1;" d="M 36.851562 23.480469 L 21.007812 28.632812 C 13.789062 30.976562 8.902344 37.703125 8.902344 45.292969 L 0.398438 45.292969 C 0.398438 34.019531 7.65625 24.027344 18.378906 20.542969 L 34.226562 15.394531 "/>
<path style="fill:none;stroke-width:0.79701;stroke-linecap:butt;stroke-linejoin:miter;stroke:rgb(0%,0%,0%);stroke-opacity:1;stroke-miterlimit:10;" d="M -7.088437 21.812531 L -22.932187 16.660187 C -30.150937 14.316437 -35.037656 7.589875 -35.037656 0.00003125 M -43.541562 0.00003125 C -43.541562 11.273469 -36.28375 21.265656 -25.561094 24.750031 L -9.713437 29.898469 " transform="matrix(1,0,0,-1,43.94,45.293)"/>
<path style=" stroke:none;fill-rule:nonzero;fill:rgb(100%,100%,100%);fill-opacity:1;" d="M 21.007812 45.292969 L 21.007812 61.953125 C 21.007812 69.542969 25.894531 76.269531 33.113281 78.617188 L 30.484375 86.703125 C 19.761719 83.21875 12.503906 73.226562 12.503906 61.953125 L 12.503906 45.292969 "/>
<g clip-path="url(#clip1)" clip-rule="nonzero">
<path style="fill:none;stroke-width:0.79701;stroke-linecap:butt;stroke-linejoin:miter;stroke:rgb(0%,0%,0%);stroke-opacity:1;stroke-miterlimit:10;" d="M -22.932187 0.00003125 L -22.932187 -16.660125 C -22.932187 -24.249969 -18.045469 -30.976531 -10.826719 -33.324188 M -13.455625 -41.410125 C -24.178281 -37.92575 -31.436094 -27.933563 -31.436094 -16.660125 L -31.436094 0.00003125 " transform="matrix(1,0,0,-1,43.94,45.293)"/>
</g>
<path style=" stroke:none;fill-rule:nonzero;fill:rgb(100%,100%,100%);fill-opacity:1;" d="M 36.851562 67.105469 L 52.699219 72.253906 C 59.917969 74.597656 67.824219 72.027344 72.285156 65.886719 L 79.164062 70.886719 C 72.539062 80.007812 60.792969 83.824219 50.070312 80.339844 L 34.226562 75.191406 "/>
<g clip-path="url(#clip2)" clip-rule="nonzero">
<path style="fill:none;stroke-width:0.79701;stroke-linecap:butt;stroke-linejoin:miter;stroke:rgb(0%,0%,0%);stroke-opacity:1;stroke-miterlimit:10;" d="M -7.088437 -21.812469 L 8.759219 -26.960906 C 15.977969 -29.304656 23.884219 -26.734344 28.345156 -20.593719 M 35.224063 -25.593719 C 28.599063 -34.714813 16.852969 -38.531219 6.130313 -35.046844 L -9.713437 -29.898406 " transform="matrix(1,0,0,-1,43.94,45.293)"/>
</g>
<path style=" stroke:none;fill-rule:nonzero;fill:rgb(100%,100%,100%);fill-opacity:1;" d="M 62.492188 58.773438 L 72.285156 45.292969 C 76.746094 39.152344 76.746094 30.839844 72.285156 24.699219 L 79.167969 19.703125 C 85.792969 28.820312 85.792969 41.171875 79.167969 50.292969 L 69.375 63.769531 "/>
<g clip-path="url(#clip3)" clip-rule="nonzero">
<path style="fill:none;stroke-width:0.79701;stroke-linecap:butt;stroke-linejoin:miter;stroke:rgb(0%,0%,0%);stroke-opacity:1;stroke-miterlimit:10;" d="M 18.552188 -13.480438 L 28.345156 0.00003125 C 32.806094 6.140656 32.806094 14.453156 28.345156 20.593781 M 35.227969 25.589875 C 41.852969 16.472687 41.852969 4.121125 35.227969 -4.999969 L 25.435 -18.476531 " transform="matrix(1,0,0,-1,43.94,45.293)"/>
</g>
<path style=" stroke:none;fill-rule:nonzero;fill:rgb(100%,100%,100%);fill-opacity:1;" d="M 62.492188 31.8125 L 52.699219 18.332031 C 48.238281 12.195312 40.332031 9.625 33.113281 11.96875 L 30.488281 3.882812 C 41.207031 0.398438 52.953125 4.214844 59.582031 13.335938 L 69.375 26.816406 "/>
<path style="fill:none;stroke-width:0.79701;stroke-linecap:butt;stroke-linejoin:miter;stroke:rgb(0%,0%,0%);stroke-opacity:1;stroke-miterlimit:10;" d="M 18.552188 13.4805 L 8.759219 26.960969 C 4.298281 33.097687 -3.607969 35.668 -10.826719 33.32425 M -13.451719 41.410187 C -2.732969 44.894562 9.013125 41.078156 15.642031 31.957062 L 25.435 18.476594 " transform="matrix(1,0,0,-1,43.94,45.293)"/>
<path style=" stroke:none;fill-rule:nonzero;fill:rgb(100%,100%,100%);fill-opacity:1;" d="M 50.070312 10.246094 C 60.792969 6.761719 72.539062 10.578125 79.167969 19.699219 L 72.285156 24.699219 C 67.824219 18.558594 59.917969 15.988281 52.699219 18.332031 L 36.851562 23.480469 L 34.226562 15.394531 Z M 50.070312 10.246094 "/>
<g clip-path="url(#clip4)" clip-rule="nonzero">
<path style="fill:none;stroke-width:0.79701;stroke-linecap:butt;stroke-linejoin:miter;stroke:rgb(0%,0%,0%);stroke-opacity:1;stroke-miterlimit:10;" d="M -9.713437 29.898469 L 6.130313 35.046906 C 16.852969 38.531281 28.599063 34.714875 35.227969 25.593781 M 28.345156 20.593781 C 23.884219 26.734406 15.977969 29.304719 8.759219 26.960969 L -7.088437 21.812531 " transform="matrix(1,0,0,-1,43.94,45.293)"/>
</g>
<path style=" stroke:none;fill-rule:nonzero;fill:rgb(100%,100%,100%);fill-opacity:1;" d="M 12.503906 28.632812 C 12.503906 17.359375 19.761719 7.367188 30.484375 3.882812 L 33.113281 11.96875 C 25.894531 14.316406 21.007812 21.042969 21.007812 28.632812 L 21.007812 45.292969 L 12.503906 45.292969 Z M 12.503906 28.632812 "/>
<path style="fill:none;stroke-width:0.79701;stroke-linecap:butt;stroke-linejoin:miter;stroke:rgb(0%,0%,0%);stroke-opacity:1;stroke-miterlimit:10;" d="M -31.436094 0.00003125 L -31.436094 16.660187 C -31.436094 27.933625 -24.178281 37.925812 -13.455625 41.410187 M -10.826719 33.32425 C -18.045469 30.976594 -22.932187 24.250031 -22.932187 16.660187 L -22.932187 0.00003125 " transform="matrix(1,0,0,-1,43.94,45.293)"/>
<path style=" stroke:none;fill-rule:nonzero;fill:rgb(100%,100%,100%);fill-opacity:1;" d="M 18.378906 70.042969 C 7.660156 66.558594 0.398438 56.566406 0.398438 45.292969 L 8.902344 45.292969 C 8.902344 52.882812 13.789062 59.609375 21.007812 61.953125 L 36.851562 67.105469 L 34.226562 75.191406 Z M 18.378906 70.042969 "/>
<path style="fill:none;stroke-width:0.79701;stroke-linecap:butt;stroke-linejoin:miter;stroke:rgb(0%,0%,0%);stroke-opacity:1;stroke-miterlimit:10;" d="M -9.713437 -29.898406 L -25.561094 -24.749969 C -36.279844 -21.265594 -43.541562 -11.273406 -43.541562 0.00003125 M -35.037656 0.00003125 C -35.037656 -7.589813 -30.150937 -14.316375 -22.932187 -16.660125 L -7.088437 -21.812469 " transform="matrix(1,0,0,-1,43.94,45.293)"/>
<path style=" stroke:none;fill-rule:nonzero;fill:rgb(100%,100%,100%);fill-opacity:1;" d="M 59.578125 77.25 C 52.953125 86.371094 41.207031 90.1875 30.484375 86.703125 L 33.113281 78.617188 C 40.332031 80.960938 48.238281 78.390625 52.699219 72.253906 L 62.492188 58.773438 L 69.375 63.769531 Z M 59.578125 77.25 "/>
<g clip-path="url(#clip5)" clip-rule="nonzero">
<path style="fill:none;stroke-width:0.79701;stroke-linecap:butt;stroke-linejoin:miter;stroke:rgb(0%,0%,0%);stroke-opacity:1;stroke-miterlimit:10;" d="M 25.435 -18.476531 L 15.638125 -31.957 C 9.013125 -41.078094 -2.732969 -44.8945 -13.455625 -41.410125 M -10.826719 -33.324188 C -3.607969 -35.667938 4.298281 -33.097625 8.759219 -26.960906 L 18.552188 -13.480438 " transform="matrix(1,0,0,-1,43.94,45.293)"/>
</g>
<path style=" stroke:none;fill-rule:nonzero;fill:rgb(100%,100%,100%);fill-opacity:1;" d="M 79.167969 40.292969 C 85.792969 49.414062 85.792969 61.765625 79.167969 70.886719 L 72.285156 65.886719 C 76.746094 59.746094 76.746094 51.433594 72.285156 45.292969 L 62.492188 31.8125 L 69.375 26.816406 Z M 79.167969 40.292969 "/>
<g clip-path="url(#clip6)" clip-rule="nonzero">
<path style="fill:none;stroke-width:0.79701;stroke-linecap:butt;stroke-linejoin:miter;stroke:rgb(0%,0%,0%);stroke-opacity:1;stroke-miterlimit:10;" d="M 25.435 18.476594 L 35.227969 5.000031 C 41.852969 -4.121063 41.852969 -16.472625 35.227969 -25.593719 M 28.345156 -20.593719 C 32.806094 -14.453094 32.806094 -6.140594 28.345156 0.00003125 L 18.552188 13.4805 " transform="matrix(1,0,0,-1,43.94,45.293)"/>
</g>
</g>
</svg>
