<?xml version="1.0" encoding="UTF-8"?>
<svg xmlns="http://www.w3.org/2000/svg" xmlns:xlink="http://www.w3.org/1999/xlink" width="84.167pt" height="84.167pt" viewBox="0 0 84.167 84.167" version="1.1">
<defs>
<clipPath id="clip1">
  <path d="M 3 50 L 32 50 L 32 84.167969 L 3 84.167969 Z M 3 50 "/>
</clipPath>
<clipPath id="clip2">
  <path d="M 22 69 L 64 69 L 64 84.167969 L 22 84.167969 Z M 22 69 "/>
</clipPath>
<clipPath id="clip3">
  <path d="M 50 52 L 84.167969 52 L 84.167969 81 L 50 81 Z M 50 52 "/>
</clipPath>
<clipPath id="clip4">
  <path d="M 69 20 L 84.167969 20 L 84.167969 62 L 69 62 Z M 69 20 "/>
</clipPath>
<clipPath id="clip5">
  <path d="M 69 22 L 84.167969 22 L 84.167969 64 L 69 64 Z M 69 22 "/>
</clipPath>
<clipPath id="clip6">
  <path d="M 50 3 L 84.167969 3 L 84.167969 32 L 50 32 Z M 50 3 "/>
</clipPath>
<clipPath id="clip7">
  <path d="M 20 69 L 62 69 L 62 84.167969 L 20 84.167969 Z M 20 69 "/>
</clipPath>
<clipPath id="clip8">
  <path d="M 52 50 L 81 50 L 81 84.167969 L 52 84.167969 Z M 52 50 "/>
</clipPath>
</defs>
<g id="surface56">
<path style=" stroke:none;fill-rule:nonzero;fill:rgb(100%,100%,100%);fill-opacity:1;" d="M 68.269531 31.234375 L 63.777344 20.386719 C 61.609375 15.148438 60.878906 11.515625 55.640625 9.347656 L 58.355469 2.800781 C 64.640625 5.402344 67.613281 11.128906 70.324219 17.675781 L 74.816406 28.523438 "/>
<path style="fill:none;stroke-width:0.3985;stroke-linecap:butt;stroke-linejoin:miter;stroke:rgb(0%,0%,0%);stroke-opacity:1;stroke-miterlimit:10;" d="M 26.186531 10.848625 L 21.694344 21.696281 C 19.526375 26.934563 18.795906 30.567375 13.557625 32.735344 " transform="matrix(1,0,0,-1,42.083,42.083)"/>
<path style="fill:none;stroke-width:0.3985;stroke-linecap:butt;stroke-linejoin:miter;stroke:rgb(0%,0%,0%);stroke-opacity:1;stroke-miterlimit:10;" d="M 16.272469 39.282219 C 22.557625 36.680656 25.530281 30.954094 28.241219 24.407219 L 32.733406 13.559563 " transform="matrix(1,0,0,-1,42.083,42.083)"/>
<path style=" stroke:none;fill-rule:nonzero;fill:rgb(100%,100%,100%);fill-opacity:1;" d="M 52.929688 15.894531 L 42.082031 11.398438 C 36.847656 9.230469 33.761719 7.179688 28.523438 9.347656 L 25.8125 2.800781 C 32.097656 0.199219 38.25 2.140625 44.792969 4.851562 L 55.640625 9.347656 "/>
<path style="fill:none;stroke-width:0.3985;stroke-linecap:butt;stroke-linejoin:miter;stroke:rgb(0%,0%,0%);stroke-opacity:1;stroke-miterlimit:10;" d="M 10.846688 26.188469 L -0.00096875 30.684563 C -5.235344 32.852531 -8.321281 34.903313 -13.559562 32.735344 " transform="matrix(1,0,0,-1,42.083,42.083)"/>
<path style="fill:none;stroke-width:0.3985;stroke-linecap:butt;stroke-linejoin:miter;stroke:rgb(0%,0%,0%);stroke-opacity:1;stroke-miterlimit:10;" d="M -16.2705 39.282219 C -9.985344 41.883781 -3.833 39.942375 2.709969 37.231438 L 13.557625 32.735344 " transform="matrix(1,0,0,-1,42.083,42.083)"/>
<path style=" stroke:none;fill-rule:nonzero;fill:rgb(100%,100%,100%);fill-opacity:1;" d="M 31.234375 15.894531 L 20.386719 20.386719 C 15.148438 22.554688 11.515625 23.285156 9.347656 28.523438 L 2.800781 25.8125 C 5.402344 19.527344 11.128906 16.550781 17.675781 13.839844 L 28.523438 9.347656 "/>
<path style="fill:none;stroke-width:0.3985;stroke-linecap:butt;stroke-linejoin:miter;stroke:rgb(0%,0%,0%);stroke-opacity:1;stroke-miterlimit:10;" d="M -10.848625 26.188469 L -21.696281 21.696281 C -26.934562 19.528313 -30.567375 18.797844 -32.735344 13.559563 " transform="matrix(1,0,0,-1,42.083,42.083)"/>
<path style="fill:none;stroke-width:0.3985;stroke-linecap:butt;stroke-linejoin:miter;stroke:rgb(0%,0%,0%);stroke-opacity:1;stroke-miterlimit:10;" d="M -39.282219 16.2705 C -36.680656 22.555656 -30.954094 25.532219 -24.407219 28.243156 L -13.559562 32.735344 " transform="matrix(1,0,0,-1,42.083,42.083)"/>
<path style=" stroke:none;fill-rule:nonzero;fill:rgb(100%,100%,100%);fill-opacity:1;" d="M 15.894531 31.234375 L 11.398438 42.082031 C 9.230469 47.320312 7.179688 50.40625 9.347656 55.640625 L 2.800781 58.355469 C 0.199219 52.070312 2.140625 45.917969 4.851562 39.371094 L 9.347656 28.523438 "/>
<path style="fill:none;stroke-width:0.3985;stroke-linecap:butt;stroke-linejoin:miter;stroke:rgb(0%,0%,0%);stroke-opacity:1;stroke-miterlimit:10;" d="M -26.188469 10.848625 L -30.684562 0.00096875 C -32.852531 -5.237312 -34.903312 -8.32325 -32.735344 -13.557625 " transform="matrix(1,0,0,-1,42.083,42.083)"/>
<path style="fill:none;stroke-width:0.3985;stroke-linecap:butt;stroke-linejoin:miter;stroke:rgb(0%,0%,0%);stroke-opacity:1;stroke-miterlimit:10;" d="M -39.282219 -16.272469 C -41.883781 -9.987312 -39.942375 -3.834969 -37.231437 2.711906 L -32.735344 13.559563 " transform="matrix(1,0,0,-1,42.083,42.083)"/>
<path style=" stroke:none;fill-rule:nonzero;fill:rgb(100%,100%,100%);fill-opacity:1;" d="M 15.894531 52.929688 L 20.386719 63.777344 C 22.554688 69.015625 23.285156 72.648438 28.523438 74.816406 L 25.8125 81.363281 C 19.527344 78.761719 16.550781 73.039062 13.839844 66.492188 L 9.347656 55.640625 "/>
<path style="fill:none;stroke-width:0.3985;stroke-linecap:butt;stroke-linejoin:miter;stroke:rgb(0%,0%,0%);stroke-opacity:1;stroke-miterlimit:10;" d="M -26.188469 -10.846687 L -21.696281 -21.694344 C -19.528312 -26.932625 -18.797844 -30.565437 -13.559562 -32.733406 " transform="matrix(1,0,0,-1,42.083,42.083)"/>
<g clip-path="url(#clip1)" clip-rule="nonzero">
<path style="fill:none;stroke-width:0.3985;stroke-linecap:butt;stroke-linejoin:miter;stroke:rgb(0%,0%,0%);stroke-opacity:1;stroke-miterlimit:10;" d="M -16.2705 -39.280281 C -22.555656 -36.678719 -25.532219 -30.956062 -28.243156 -24.409187 L -32.735344 -13.557625 " transform="matrix(1,0,0,-1,42.083,42.083)"/>
</g>
<path style=" stroke:none;fill-rule:nonzero;fill:rgb(100%,100%,100%);fill-opacity:1;" d="M 31.234375 68.269531 L 42.082031 72.765625 C 47.320312 74.933594 50.40625 76.988281 55.640625 74.816406 L 58.355469 81.363281 C 52.070312 83.96875 45.917969 82.023438 39.371094 79.3125 L 28.523438 74.816406 "/>
<path style="fill:none;stroke-width:0.3985;stroke-linecap:butt;stroke-linejoin:miter;stroke:rgb(0%,0%,0%);stroke-opacity:1;stroke-miterlimit:10;" d="M -10.848625 -26.186531 L -0.00096875 -30.682625 C 5.237313 -32.850594 8.32325 -34.905281 13.557625 -32.733406 " transform="matrix(1,0,0,-1,42.083,42.083)"/>
<g clip-path="url(#clip2)" clip-rule="nonzero">
<path style="fill:none;stroke-width:0.3985;stroke-linecap:butt;stroke-linejoin:miter;stroke:rgb(0%,0%,0%);stroke-opacity:1;stroke-miterlimit:10;" d="M 16.272469 -39.280281 C 9.987313 -41.88575 3.834969 -39.940437 -2.711906 -37.2295 L -13.559562 -32.733406 " transform="matrix(1,0,0,-1,42.083,42.083)"/>
</g>
<path style=" stroke:none;fill-rule:nonzero;fill:rgb(100%,100%,100%);fill-opacity:1;" d="M 52.929688 68.269531 L 63.777344 63.777344 C 69.015625 61.609375 72.648438 60.878906 74.816406 55.640625 L 81.363281 58.355469 C 78.761719 64.640625 73.039062 67.613281 66.492188 70.324219 L 55.640625 74.816406 "/>
<path style="fill:none;stroke-width:0.3985;stroke-linecap:butt;stroke-linejoin:miter;stroke:rgb(0%,0%,0%);stroke-opacity:1;stroke-miterlimit:10;" d="M 10.846688 -26.186531 L 21.694344 -21.694344 C 26.932625 -19.526375 30.565438 -18.795906 32.733406 -13.557625 " transform="matrix(1,0,0,-1,42.083,42.083)"/>
<g clip-path="url(#clip3)" clip-rule="nonzero">
<path style="fill:none;stroke-width:0.3985;stroke-linecap:butt;stroke-linejoin:miter;stroke:rgb(0%,0%,0%);stroke-opacity:1;stroke-miterlimit:10;" d="M 39.280281 -16.272469 C 36.678719 -22.557625 30.956063 -25.530281 24.409188 -28.241219 L 13.557625 -32.733406 " transform="matrix(1,0,0,-1,42.083,42.083)"/>
</g>
<path style=" stroke:none;fill-rule:nonzero;fill:rgb(100%,100%,100%);fill-opacity:1;" d="M 68.269531 52.929688 L 72.765625 42.082031 C 74.933594 36.847656 76.988281 33.761719 74.816406 28.523438 L 81.363281 25.8125 C 83.96875 32.097656 82.023438 38.25 79.3125 44.792969 L 74.816406 55.640625 "/>
<path style="fill:none;stroke-width:0.3985;stroke-linecap:butt;stroke-linejoin:miter;stroke:rgb(0%,0%,0%);stroke-opacity:1;stroke-miterlimit:10;" d="M 26.186531 -10.846687 L 30.682625 0.00096875 C 32.850594 5.235344 34.905281 8.321281 32.733406 13.559563 " transform="matrix(1,0,0,-1,42.083,42.083)"/>
<g clip-path="url(#clip4)" clip-rule="nonzero">
<path style="fill:none;stroke-width:0.3985;stroke-linecap:butt;stroke-linejoin:miter;stroke:rgb(0%,0%,0%);stroke-opacity:1;stroke-miterlimit:10;" d="M 39.280281 16.2705 C 41.88575 9.985344 39.940438 3.833 37.2295 -2.709969 L 32.733406 -13.557625 " transform="matrix(1,0,0,-1,42.083,42.083)"/>
</g>
<path style=" stroke:none;fill-rule:nonzero;fill:rgb(100%,100%,100%);fill-opacity:1;" d="M 68.269531 31.234375 L 72.765625 42.082031 C 74.933594 47.320312 76.988281 50.40625 74.816406 55.640625 L 81.363281 58.355469 C 83.96875 52.070312 82.023438 45.917969 79.3125 39.371094 L 74.816406 28.523438 "/>
<path style="fill:none;stroke-width:0.3985;stroke-linecap:butt;stroke-linejoin:miter;stroke:rgb(0%,0%,0%);stroke-opacity:1;stroke-miterlimit:10;" d="M 26.186531 10.848625 L 30.682625 0.00096875 C 32.850594 -5.237312 34.905281 -8.32325 32.733406 -13.557625 " transform="matrix(1,0,0,-1,42.083,42.083)"/>
<g clip-path="url(#clip5)" clip-rule="nonzero">
<path style="fill:none;stroke-width:0.3985;stroke-linecap:butt;stroke-linejoin:miter;stroke:rgb(0%,0%,0%);stroke-opacity:1;stroke-miterlimit:10;" d="M 32.733406 13.559563 L 37.2295 2.711906 C 39.940438 -3.834969 41.88575 -9.987312 39.280281 -16.272469 " transform="matrix(1,0,0,-1,42.083,42.083)"/>
</g>
<path style=" stroke:none;fill-rule:nonzero;fill:rgb(100%,100%,100%);fill-opacity:1;" d="M 52.929688 15.894531 L 63.777344 20.386719 C 69.015625 22.554688 72.648438 23.285156 74.816406 28.523438 L 81.363281 25.8125 C 78.761719 19.527344 73.039062 16.550781 66.492188 13.839844 L 55.640625 9.347656 "/>
<path style="fill:none;stroke-width:0.3985;stroke-linecap:butt;stroke-linejoin:miter;stroke:rgb(0%,0%,0%);stroke-opacity:1;stroke-miterlimit:10;" d="M 10.846688 26.188469 L 21.694344 21.696281 C 26.932625 19.528313 30.565438 18.797844 32.733406 13.559563 " transform="matrix(1,0,0,-1,42.083,42.083)"/>
<g clip-path="url(#clip6)" clip-rule="nonzero">
<path style="fill:none;stroke-width:0.3985;stroke-linecap:butt;stroke-linejoin:miter;stroke:rgb(0%,0%,0%);stroke-opacity:1;stroke-miterlimit:10;" d="M 13.557625 32.735344 L 24.409188 28.243156 C 30.956063 25.532219 36.678719 22.555656 39.280281 16.2705 " transform="matrix(1,0,0,-1,42.083,42.083)"/>
</g>
<path style=" stroke:none;fill-rule:nonzero;fill:rgb(100%,100%,100%);fill-opacity:1;" d="M 31.234375 15.894531 L 42.082031 11.398438 C 47.320312 9.230469 50.40625 7.179688 55.640625 9.347656 L 58.355469 2.800781 C 52.070312 0.199219 45.917969 2.140625 39.371094 4.851562 L 28.523438 9.347656 "/>
<path style="fill:none;stroke-width:0.3985;stroke-linecap:butt;stroke-linejoin:miter;stroke:rgb(0%,0%,0%);stroke-opacity:1;stroke-miterlimit:10;" d="M -10.848625 26.188469 L -0.00096875 30.684563 C 5.237313 32.852531 8.32325 34.903313 13.557625 32.735344 " transform="matrix(1,0,0,-1,42.083,42.083)"/>
<path style="fill:none;stroke-width:0.3985;stroke-linecap:butt;stroke-linejoin:miter;stroke:rgb(0%,0%,0%);stroke-opacity:1;stroke-miterlimit:10;" d="M -13.559562 32.735344 L -2.711906 37.231438 C 3.834969 39.942375 9.987313 41.883781 16.272469 39.282219 " transform="matrix(1,0,0,-1,42.083,42.083)"/>
<path style=" stroke:none;fill-rule:nonzero;fill:rgb(100%,100%,100%);fill-opacity:1;" d="M 15.894531 31.234375 L 20.386719 20.386719 C 22.554688 15.148438 23.285156 11.515625 28.523438 9.347656 L 25.8125 2.800781 C 19.527344 5.402344 16.550781 11.128906 13.839844 17.675781 L 9.347656 28.523438 "/>
<path style="fill:none;stroke-width:0.3985;stroke-linecap:butt;stroke-linejoin:miter;stroke:rgb(0%,0%,0%);stroke-opacity:1;stroke-miterlimit:10;" d="M -26.188469 10.848625 L -21.696281 21.696281 C -19.528312 26.934563 -18.797844 30.567375 -13.559562 32.735344 " transform="matrix(1,0,0,-1,42.083,42.083)"/>
<path style="fill:none;stroke-width:0.3985;stroke-linecap:butt;stroke-linejoin:miter;stroke:rgb(0%,0%,0%);stroke-opacity:1;stroke-miterlimit:10;" d="M -32.735344 13.559563 L -28.243156 24.407219 C -25.532219 30.954094 -22.555656 36.680656 -16.2705 39.282219 " transform="matrix(1,0,0,-1,42.083,42.083)"/>
<path style=" stroke:none;fill-rule:nonzero;fill:rgb(100%,100%,100%);fill-opacity:1;" d="M 15.894531 52.929688 L 11.398438 42.082031 C 9.230469 36.847656 7.179688 33.761719 9.347656 28.523438 L 2.800781 25.8125 C 0.199219 32.097656 2.140625 38.25 4.851562 44.792969 L 9.347656 55.640625 "/>
<path style="fill:none;stroke-width:0.3985;stroke-linecap:butt;stroke-linejoin:miter;stroke:rgb(0%,0%,0%);stroke-opacity:1;stroke-miterlimit:10;" d="M -26.188469 -10.846687 L -30.684562 0.00096875 C -32.852531 5.235344 -34.903312 8.321281 -32.735344 13.559563 " transform="matrix(1,0,0,-1,42.083,42.083)"/>
<path style="fill:none;stroke-width:0.3985;stroke-linecap:butt;stroke-linejoin:miter;stroke:rgb(0%,0%,0%);stroke-opacity:1;stroke-miterlimit:10;" d="M -32.735344 -13.557625 L -37.231437 -2.709969 C -39.942375 3.833 -41.883781 9.985344 -39.282219 16.2705 " transform="matrix(1,0,0,-1,42.083,42.083)"/>
<path style=" stroke:none;fill-rule:nonzero;fill:rgb(100%,100%,100%);fill-opacity:1;" d="M 31.234375 68.269531 L 20.386719 63.777344 C 15.148438 61.609375 11.515625 60.878906 9.347656 55.640625 L 2.800781 58.355469 C 5.402344 64.640625 11.128906 67.613281 17.675781 70.324219 L 28.523438 74.816406 "/>
<path style="fill:none;stroke-width:0.3985;stroke-linecap:butt;stroke-linejoin:miter;stroke:rgb(0%,0%,0%);stroke-opacity:1;stroke-miterlimit:10;" d="M -10.848625 -26.186531 L -21.696281 -21.694344 C -26.934562 -19.526375 -30.567375 -18.795906 -32.735344 -13.557625 " transform="matrix(1,0,0,-1,42.083,42.083)"/>
<path style="fill:none;stroke-width:0.3985;stroke-linecap:butt;stroke-linejoin:miter;stroke:rgb(0%,0%,0%);stroke-opacity:1;stroke-miterlimit:10;" d="M -13.559562 -32.733406 L -24.407219 -28.241219 C -30.954094 -25.530281 -36.680656 -22.557625 -39.282219 -16.272469 " transform="matrix(1,0,0,-1,42.083,42.083)"/>
<path style=" stroke:none;fill-rule:nonzero;fill:rgb(100%,100%,100%);fill-opacity:1;" d="M 52.929688 68.269531 L 42.082031 72.765625 C 36.847656 74.933594 33.761719 76.988281 28.523438 74.816406 L 25.8125 81.363281 C 32.097656 83.96875 38.25 82.023438 44.792969 79.3125 L 55.640625 74.816406 "/>
<path style="fill:none;stroke-width:0.3985;stroke-linecap:butt;stroke-linejoin:miter;stroke:rgb(0%,0%,0%);stroke-opacity:1;stroke-miterlimit:10;" d="M 10.846688 -26.186531 L -0.00096875 -30.682625 C -5.235344 -32.850594 -8.321281 -34.905281 -13.559562 -32.733406 " transform="matrix(1,0,0,-1,42.083,42.083)"/>
<g clip-path="url(#clip7)" clip-rule="nonzero">
<path style="fill:none;stroke-width:0.3985;stroke-linecap:butt;stroke-linejoin:miter;stroke:rgb(0%,0%,0%);stroke-opacity:1;stroke-miterlimit:10;" d="M 13.557625 -32.733406 L 2.709969 -37.2295 C -3.833 -39.940437 -9.985344 -41.88575 -16.2705 -39.280281 " transform="matrix(1,0,0,-1,42.083,42.083)"/>
</g>
<path style=" stroke:none;fill-rule:nonzero;fill:rgb(100%,100%,100%);fill-opacity:1;" d="M 68.269531 52.929688 L 63.777344 63.777344 C 61.609375 69.015625 60.878906 72.648438 55.640625 74.816406 L 58.355469 81.363281 C 64.640625 78.761719 67.613281 73.039062 70.324219 66.492188 L 74.816406 55.640625 "/>
<path style="fill:none;stroke-width:0.3985;stroke-linecap:butt;stroke-linejoin:miter;stroke:rgb(0%,0%,0%);stroke-opacity:1;stroke-miterlimit:10;" d="M 26.186531 -10.846687 L 21.694344 -21.694344 C 19.526375 -26.932625 18.795906 -30.565437 13.557625 -32.733406 " transform="matrix(1,0,0,-1,42.083,42.083)"/>
<g clip-path="url(#clip8)" clip-rule="nonzero">
<path style="fill:none;stroke-width:0.3985;stroke-linecap:butt;stroke-linejoin:miter;stroke:rgb(0%,0%,0%);stroke-opacity:1;stroke-miterlimit:10;" d="M 32.733406 -13.557625 L 28.241219 -24.409187 C 25.530281 -30.956062 22.557625 -36.678719 16.272469 -39.280281 " transform="matrix(1,0,0,-1,42.083,42.083)"/>
</g>
</g>
</svg>
