<?xml version="1.0" encoding="UTF-8"?>
<svg xmlns="http://www.w3.org/2000/svg" xmlns:xlink="http://www.w3.org/1999/xlink" width="72.218pt" height="74.763pt" viewBox="0 0 72.218 74.763" version="1.1">
<defs>
<clipPath id="clip1">
  <path d="M 11 49 L 37 49 L 37 74.761719 L 11 74.761719 Z M 11 49 "/>
</clipPath>
<clipPath id="clip2">
  <path d="M 0 38 L 48 38 L 48 74.761719 L 0 74.761719 Z M 0 38 "/>
</clipPath>
<clipPath id="clip3">
  <path d="M 24 42 L 72.21875 42 L 72.21875 74.761719 L 24 74.761719 Z M 24 42 "/>
</clipPath>
<clipPath id="clip4">
  <path d="M 46 7 L 72.21875 7 L 72.21875 64 L 46 64 Z M 46 7 "/>
</clipPath>
<clipPath id="clip5">
  <path d="M 24 0 L 72.21875 0 L 72.21875 37 L 24 37 Z M 24 0 "/>
</clipPath>
<clipPath id="clip6">
  <path d="M 24 0 L 72.21875 0 L 72.21875 33 L 24 33 Z M 24 0 "/>
</clipPath>
<clipPath id="clip7">
  <path d="M 0 42 L 48 42 L 48 74.761719 L 0 74.761719 Z M 0 42 "/>
</clipPath>
<clipPath id="clip8">
  <path d="M 36 49 L 62 49 L 62 74.761719 L 36 74.761719 Z M 36 49 "/>
</clipPath>
<clipPath id="clip9">
  <path d="M 24 38 L 72.21875 38 L 72.21875 74.761719 L 24 74.761719 Z M 24 38 "/>
</clipPath>
<clipPath id="clip10">
  <path d="M 46 11 L 72.21875 11 L 72.21875 68 L 46 68 Z M 46 11 "/>
</clipPath>
</defs>
<g id="surface16">
<path style=" stroke:none;fill-rule:nonzero;fill:rgb(100%,100%,100%);fill-opacity:1;" d="M 36.109375 12.832031 L 21.9375 12.832031 C 16.089844 12.832031 10.6875 15.953125 7.761719 21.015625 L 4.082031 18.890625 C 7.761719 12.511719 14.570312 8.582031 21.9375 8.582031 L 36.109375 8.582031 "/>
<path style="fill:none;stroke-width:0.79701;stroke-linecap:butt;stroke-linejoin:miter;stroke:rgb(0%,0%,0%);stroke-opacity:1;stroke-miterlimit:10;" d="M 0.000375 24.549969 L -14.1715 24.549969 C -20.019156 24.549969 -25.4215 21.428875 -28.347281 16.366375 M -32.026969 18.491375 C -28.347281 24.870281 -21.538688 28.799969 -14.1715 28.799969 L 0.000375 28.799969 " transform="matrix(1,0,0,-1,36.109,37.382)"/>
<path style=" stroke:none;fill-rule:nonzero;fill:rgb(100%,100%,100%);fill-opacity:1;" d="M 14.847656 25.109375 L 7.761719 37.382812 C 4.839844 42.445312 4.839844 48.683594 7.761719 53.746094 L 4.078125 55.871094 C 0.398438 49.496094 0.398438 41.632812 4.078125 35.257812 L 11.167969 22.980469 "/>
<path style="fill:none;stroke-width:0.79701;stroke-linecap:butt;stroke-linejoin:miter;stroke:rgb(0%,0%,0%);stroke-opacity:1;stroke-miterlimit:10;" d="M -21.261344 12.272625 L -28.347281 -0.0008125 C -31.269156 -5.063312 -31.269156 -11.301594 -28.347281 -16.364094 M -32.030875 -18.489094 C -35.710563 -12.114094 -35.710563 -4.250812 -32.030875 2.124188 L -24.941031 14.401531 " transform="matrix(1,0,0,-1,36.109,37.382)"/>
<g clip-path="url(#clip1)" clip-rule="nonzero">
<path style=" stroke:none;fill-rule:nonzero;fill:rgb(100%,100%,100%);fill-opacity:1;" d="M 14.847656 49.65625 L 21.9375 61.929688 C 24.859375 66.992188 30.261719 70.113281 36.109375 70.113281 L 36.109375 74.367188 C 28.742188 74.367188 21.933594 70.433594 18.253906 64.058594 L 11.167969 51.78125 "/>
</g>
<g clip-path="url(#clip2)" clip-rule="nonzero">
<path style="fill:none;stroke-width:0.79701;stroke-linecap:butt;stroke-linejoin:miter;stroke:rgb(0%,0%,0%);stroke-opacity:1;stroke-miterlimit:10;" d="M -21.261344 -12.27425 L -14.1715 -24.547687 C -11.249625 -29.610187 -5.847281 -32.731281 0.000375 -32.731281 M 0.000375 -36.985187 C -7.366813 -36.985187 -14.175406 -33.051594 -17.855094 -26.676594 L -24.941031 -14.39925 " transform="matrix(1,0,0,-1,36.109,37.382)"/>
</g>
<path style=" stroke:none;fill-rule:nonzero;fill:rgb(100%,100%,100%);fill-opacity:1;" d="M 36.109375 61.929688 L 50.28125 61.929688 C 56.128906 61.929688 61.53125 58.8125 64.453125 53.75 L 68.136719 55.875 C 64.453125 62.253906 57.648438 66.183594 50.28125 66.183594 L 36.109375 66.183594 "/>
<g clip-path="url(#clip3)" clip-rule="nonzero">
<path style="fill:none;stroke-width:0.79701;stroke-linecap:butt;stroke-linejoin:miter;stroke:rgb(0%,0%,0%);stroke-opacity:1;stroke-miterlimit:10;" d="M 0.000375 -24.547687 L 14.17225 -24.547687 C 20.019906 -24.547687 25.42225 -21.4305 28.344125 -16.368 M 32.027719 -18.493 C 28.344125 -24.871906 21.539437 -28.801594 14.17225 -28.801594 L 0.000375 -28.801594 " transform="matrix(1,0,0,-1,36.109,37.382)"/>
</g>
<path style=" stroke:none;fill-rule:nonzero;fill:rgb(100%,100%,100%);fill-opacity:1;" d="M 57.367188 49.65625 L 64.457031 37.382812 C 67.378906 32.320312 67.378906 26.078125 64.457031 21.015625 L 68.136719 18.890625 C 71.820312 25.269531 71.820312 33.128906 68.136719 39.507812 L 61.050781 51.78125 "/>
<g clip-path="url(#clip4)" clip-rule="nonzero">
<path style="fill:none;stroke-width:0.79701;stroke-linecap:butt;stroke-linejoin:miter;stroke:rgb(0%,0%,0%);stroke-opacity:1;stroke-miterlimit:10;" d="M 21.258187 -12.27425 L 28.348031 -0.0008125 C 31.269906 5.061688 31.269906 11.303875 28.348031 16.366375 M 32.027719 18.491375 C 35.711312 12.112469 35.711312 4.253094 32.027719 -2.125812 L 24.941781 -14.39925 " transform="matrix(1,0,0,-1,36.109,37.382)"/>
</g>
<path style=" stroke:none;fill-rule:nonzero;fill:rgb(100%,100%,100%);fill-opacity:1;" d="M 57.367188 25.109375 L 50.28125 12.832031 C 47.359375 7.769531 41.957031 4.652344 36.109375 4.652344 L 36.109375 0.398438 C 43.476562 0.398438 50.28125 4.328125 53.964844 10.707031 L 61.050781 22.980469 "/>
<g clip-path="url(#clip5)" clip-rule="nonzero">
<path style="fill:none;stroke-width:0.79701;stroke-linecap:butt;stroke-linejoin:miter;stroke:rgb(0%,0%,0%);stroke-opacity:1;stroke-miterlimit:10;" d="M 21.258187 12.272625 L 14.17225 24.549969 C 11.250375 29.612469 5.848031 32.729656 0.000375 32.729656 M 0.000375 36.983563 C 7.367562 36.983563 14.17225 33.053875 17.855844 26.674969 L 24.941781 14.401531 " transform="matrix(1,0,0,-1,36.109,37.382)"/>
</g>
<path style=" stroke:none;fill-rule:nonzero;fill:rgb(100%,100%,100%);fill-opacity:1;" d="M 50.28125 8.582031 C 57.648438 8.582031 64.453125 12.511719 68.136719 18.890625 L 64.453125 21.015625 C 61.53125 15.953125 56.128906 12.832031 50.28125 12.832031 L 36.109375 12.832031 L 36.109375 8.582031 Z M 50.28125 8.582031 "/>
<g clip-path="url(#clip6)" clip-rule="nonzero">
<path style="fill:none;stroke-width:0.79701;stroke-linecap:butt;stroke-linejoin:miter;stroke:rgb(0%,0%,0%);stroke-opacity:1;stroke-miterlimit:10;" d="M 0.000375 28.799969 L 14.17225 28.799969 C 21.539437 28.799969 28.344125 24.870281 32.027719 18.491375 M 28.344125 16.366375 C 25.42225 21.428875 20.019906 24.549969 14.17225 24.549969 L 0.000375 24.549969 " transform="matrix(1,0,0,-1,36.109,37.382)"/>
</g>
<path style=" stroke:none;fill-rule:nonzero;fill:rgb(100%,100%,100%);fill-opacity:1;" d="M 18.253906 10.707031 C 21.9375 4.328125 28.742188 0.398438 36.109375 0.398438 L 36.109375 4.652344 C 30.261719 4.652344 24.859375 7.769531 21.933594 12.832031 L 14.847656 25.109375 L 11.167969 22.980469 Z M 18.253906 10.707031 "/>
<path style="fill:none;stroke-width:0.79701;stroke-linecap:butt;stroke-linejoin:miter;stroke:rgb(0%,0%,0%);stroke-opacity:1;stroke-miterlimit:10;" d="M -24.941031 14.401531 L -17.855094 26.674969 C -14.1715 33.053875 -7.366813 36.983563 0.000375 36.983563 M 0.000375 32.729656 C -5.847281 32.729656 -11.249625 29.612469 -14.175406 24.549969 L -21.261344 12.272625 " transform="matrix(1,0,0,-1,36.109,37.382)"/>
<path style=" stroke:none;fill-rule:nonzero;fill:rgb(100%,100%,100%);fill-opacity:1;" d="M 4.078125 39.507812 C 0.398438 33.128906 0.398438 25.269531 4.078125 18.890625 L 7.761719 21.015625 C 4.839844 26.078125 4.839844 32.320312 7.761719 37.382812 L 14.847656 49.65625 L 11.167969 51.78125 Z M 4.078125 39.507812 "/>
<path style="fill:none;stroke-width:0.79701;stroke-linecap:butt;stroke-linejoin:miter;stroke:rgb(0%,0%,0%);stroke-opacity:1;stroke-miterlimit:10;" d="M -24.941031 -14.39925 L -32.030875 -2.125812 C -35.710563 4.253094 -35.710563 12.112469 -32.030875 18.491375 M -28.347281 16.366375 C -31.269156 11.303875 -31.269156 5.061688 -28.347281 -0.0008125 L -21.261344 -12.27425 " transform="matrix(1,0,0,-1,36.109,37.382)"/>
<path style=" stroke:none;fill-rule:nonzero;fill:rgb(100%,100%,100%);fill-opacity:1;" d="M 21.9375 66.183594 C 14.570312 66.183594 7.761719 62.253906 4.082031 55.875 L 7.761719 53.75 C 10.6875 58.8125 16.089844 61.929688 21.9375 61.929688 L 36.109375 61.929688 L 36.109375 66.183594 Z M 21.9375 66.183594 "/>
<g clip-path="url(#clip7)" clip-rule="nonzero">
<path style="fill:none;stroke-width:0.79701;stroke-linecap:butt;stroke-linejoin:miter;stroke:rgb(0%,0%,0%);stroke-opacity:1;stroke-miterlimit:10;" d="M 0.000375 -28.801594 L -14.1715 -28.801594 C -21.538688 -28.801594 -28.347281 -24.871906 -32.026969 -18.493 M -28.347281 -16.368 C -25.4215 -21.4305 -20.019156 -24.547687 -14.1715 -24.547687 L 0.000375 -24.547687 " transform="matrix(1,0,0,-1,36.109,37.382)"/>
</g>
<g clip-path="url(#clip8)" clip-rule="nonzero">
<path style=" stroke:none;fill-rule:nonzero;fill:rgb(100%,100%,100%);fill-opacity:1;" d="M 53.964844 64.058594 C 50.28125 70.433594 43.476562 74.367188 36.109375 74.367188 L 36.109375 70.113281 C 41.957031 70.113281 47.359375 66.992188 50.28125 61.929688 L 57.367188 49.65625 L 61.050781 51.78125 Z M 53.964844 64.058594 "/>
</g>
<g clip-path="url(#clip9)" clip-rule="nonzero">
<path style="fill:none;stroke-width:0.79701;stroke-linecap:butt;stroke-linejoin:miter;stroke:rgb(0%,0%,0%);stroke-opacity:1;stroke-miterlimit:10;" d="M 24.941781 -14.39925 L 17.855844 -26.676594 C 14.17225 -33.051594 7.367562 -36.985187 0.000375 -36.985187 M 0.000375 -32.731281 C 5.848031 -32.731281 11.250375 -29.610187 14.17225 -24.547687 L 21.258187 -12.27425 " transform="matrix(1,0,0,-1,36.109,37.382)"/>
</g>
<path style=" stroke:none;fill-rule:nonzero;fill:rgb(100%,100%,100%);fill-opacity:1;" d="M 68.136719 35.257812 C 71.820312 41.632812 71.820312 49.496094 68.136719 55.871094 L 64.457031 53.746094 C 67.378906 48.683594 67.378906 42.445312 64.457031 37.382812 L 57.367188 25.109375 L 61.050781 22.980469 Z M 68.136719 35.257812 "/>
<g clip-path="url(#clip10)" clip-rule="nonzero">
<path style="fill:none;stroke-width:0.79701;stroke-linecap:butt;stroke-linejoin:miter;stroke:rgb(0%,0%,0%);stroke-opacity:1;stroke-miterlimit:10;" d="M 24.941781 14.401531 L 32.027719 2.124188 C 35.711312 -4.250812 35.711312 -12.114094 32.027719 -18.489094 M 28.348031 -16.364094 C 31.269906 -11.301594 31.269906 -5.063312 28.348031 -0.0008125 L 21.258187 12.272625 " transform="matrix(1,0,0,-1,36.109,37.382)"/>
</g>
</g>
</svg>
