<?xml version="1.0" encoding="UTF-8"?>
<svg xmlns="http://www.w3.org/2000/svg" xmlns:xlink="http://www.w3.org/1999/xlink" width="164.762pt" height="171.34pt" viewBox="0 0 164.762 171.34" version="1.1">
<defs>
<clipPath id="clip1">
  <path d="M 31 70 L 140 70 L 140 171.339844 L 31 171.339844 Z M 31 70 "/>
</clipPath>
<clipPath id="clip2">
  <path d="M 81 0 L 164.761719 0 L 164.761719 130 L 81 130 Z M 81 0 "/>
</clipPath>
<clipPath id="clip3">
  <path d="M 81 33 L 164.761719 33 L 164.761719 167 L 81 167 Z M 81 33 "/>
</clipPath>
</defs>
<g id="surface1">
<path style=" stroke:none;fill-rule:nonzero;fill:rgb(100%,100%,100%);fill-opacity:1;" d="M 71.265625 81.640625 L 71.265625 106.1875 C 71.265625 121.84375 83.957031 134.535156 99.613281 134.535156 C 104.585938 134.535156 109.476562 133.226562 113.785156 130.738281 L 127.957031 155.289062 C 100.84375 170.941406 66.167969 161.652344 50.511719 134.535156 C 45.539062 125.917969 42.917969 116.136719 42.917969 106.1875 L 42.917969 81.640625 "/>
<g clip-path="url(#clip1)" clip-rule="nonzero">
<path style="fill:none;stroke-width:0.79701;stroke-linecap:butt;stroke-linejoin:miter;stroke:rgb(0%,0%,0%);stroke-opacity:1;stroke-miterlimit:10;" d="M -14.172375 -0.000625 L -14.172375 -24.5475 C -14.172375 -40.20375 -1.480969 -52.895156 14.175281 -52.895156 C 19.147937 -52.895156 24.038562 -51.586562 28.347156 -49.098281 M 42.519031 -73.649062 C 15.40575 -89.301406 -19.270031 -80.012344 -34.926281 -52.895156 C -39.898938 -44.277969 -42.520031 -34.496719 -42.520031 -24.5475 L -42.520031 -0.000625 " transform="matrix(1,0,0,-1,85.438,81.64)"/>
</g>
<path style=" stroke:none;fill-rule:nonzero;fill:rgb(100%,100%,100%);fill-opacity:1;" d="M 92.523438 93.914062 L 113.785156 81.640625 C 127.34375 73.8125 131.988281 56.476562 124.160156 42.917969 C 121.671875 38.609375 118.09375 35.027344 113.785156 32.542969 L 127.957031 7.992188 C 155.074219 23.648438 164.363281 58.320312 148.710938 85.4375 C 143.734375 94.054688 136.574219 101.214844 127.957031 106.1875 L 106.699219 118.464844 "/>
<g clip-path="url(#clip2)" clip-rule="nonzero">
<path style="fill:none;stroke-width:0.79701;stroke-linecap:butt;stroke-linejoin:miter;stroke:rgb(0%,0%,0%);stroke-opacity:1;stroke-miterlimit:10;" d="M 7.085437 -12.274062 L 28.347156 -0.000625 C 41.90575 7.8275 46.550281 25.163438 38.722156 38.722031 C 36.233875 43.030625 32.65575 46.612656 28.347156 49.097031 M 42.519031 73.647813 C 69.636219 57.991563 78.925281 23.319688 63.272937 -3.7975 C 58.296375 -12.414687 51.136219 -19.574844 42.519031 -24.5475 L 21.261219 -36.824844 " transform="matrix(1,0,0,-1,85.438,81.64)"/>
</g>
<path style=" stroke:none;fill-rule:nonzero;fill:rgb(100%,100%,100%);fill-opacity:1;" d="M 92.523438 69.367188 L 71.265625 57.089844 C 57.707031 49.261719 40.371094 53.910156 32.542969 67.464844 C 30.054688 71.773438 28.746094 76.664062 28.746094 81.640625 L 0.398438 81.640625 C 0.398438 50.328125 25.78125 24.945312 57.089844 24.945312 C 67.039062 24.945312 76.820312 27.566406 85.4375 32.542969 L 106.699219 44.816406 "/>
<path style="fill:none;stroke-width:0.79701;stroke-linecap:butt;stroke-linejoin:miter;stroke:rgb(0%,0%,0%);stroke-opacity:1;stroke-miterlimit:10;" d="M 7.085437 12.272813 L -14.172375 24.550156 C -27.730969 32.378281 -45.066906 27.729844 -52.895031 14.175156 C -55.383313 9.866563 -56.691906 4.975938 -56.691906 -0.000625 M -85.039563 -0.000625 C -85.039563 31.311875 -59.65675 56.694688 -28.348156 56.694688 C -18.398938 56.694688 -8.617688 54.073594 -0.0005 49.097031 L 21.261219 36.823594 " transform="matrix(1,0,0,-1,85.438,81.64)"/>
<path style=" stroke:none;fill-rule:nonzero;fill:rgb(100%,100%,100%);fill-opacity:1;" d="M 42.917969 57.089844 C 42.917969 25.78125 68.300781 0.398438 99.613281 0.398438 C 109.5625 0.398438 119.34375 3.019531 127.957031 7.992188 L 113.785156 32.542969 C 100.226562 24.714844 82.890625 29.359375 75.0625 42.917969 C 72.574219 47.226562 71.265625 52.117188 71.265625 57.089844 L 71.265625 81.640625 L 42.917969 81.640625 Z M 42.917969 57.089844 "/>
<path style="fill:none;stroke-width:0.79701;stroke-linecap:butt;stroke-linejoin:miter;stroke:rgb(0%,0%,0%);stroke-opacity:1;stroke-miterlimit:10;" d="M -42.520031 -0.000625 L -42.520031 24.550156 C -42.520031 55.85875 -17.137219 81.241563 14.175281 81.241563 C 24.1245 81.241563 33.90575 78.620469 42.519031 73.647813 M 28.347156 49.097031 C 14.788562 56.925156 -2.547375 52.280625 -10.3755 38.722031 C -12.863781 34.413438 -14.172375 29.522813 -14.172375 24.550156 L -14.172375 -0.000625 " transform="matrix(1,0,0,-1,85.438,81.64)"/>
<path style=" stroke:none;fill-rule:nonzero;fill:rgb(100%,100%,100%);fill-opacity:1;" d="M 85.4375 130.738281 C 58.320312 146.394531 23.648438 137.101562 7.992188 109.988281 C 3.019531 101.371094 0.398438 91.589844 0.398438 81.640625 L 28.746094 81.640625 C 28.746094 97.296875 41.433594 109.988281 57.089844 109.988281 C 62.066406 109.988281 66.957031 108.675781 71.265625 106.1875 L 92.523438 93.914062 L 106.699219 118.464844 Z M 85.4375 130.738281 "/>
<path style="fill:none;stroke-width:0.79701;stroke-linecap:butt;stroke-linejoin:miter;stroke:rgb(0%,0%,0%);stroke-opacity:1;stroke-miterlimit:10;" d="M 21.261219 -36.824844 L -0.0005 -49.098281 C -27.117688 -64.754531 -61.789563 -55.461562 -77.445813 -28.348281 C -82.418469 -19.731094 -85.039563 -9.949844 -85.039563 -0.000625 M -56.691906 -0.000625 C -56.691906 -15.656875 -44.004406 -28.348281 -28.348156 -28.348281 C -23.371594 -28.348281 -18.480969 -27.035781 -14.172375 -24.5475 L 7.085437 -12.274062 " transform="matrix(1,0,0,-1,85.438,81.64)"/>
<path style=" stroke:none;fill-rule:nonzero;fill:rgb(100%,100%,100%);fill-opacity:1;" d="M 127.957031 57.089844 C 155.074219 72.746094 164.363281 107.421875 148.710938 134.535156 C 143.734375 143.152344 136.574219 150.3125 127.957031 155.289062 L 113.785156 130.738281 C 127.34375 122.910156 131.988281 105.574219 124.160156 92.015625 C 121.671875 87.707031 118.09375 84.128906 113.785156 81.640625 L 92.523438 69.367188 L 106.699219 44.816406 Z M 127.957031 57.089844 "/>
<g clip-path="url(#clip3)" clip-rule="nonzero">
<path style="fill:none;stroke-width:0.79701;stroke-linecap:butt;stroke-linejoin:miter;stroke:rgb(0%,0%,0%);stroke-opacity:1;stroke-miterlimit:10;" d="M 21.261219 36.823594 L 42.519031 24.550156 C 69.636219 8.893906 78.925281 -25.781875 63.272937 -52.895156 C 58.296375 -61.512344 51.136219 -68.6725 42.519031 -73.649062 M 28.347156 -49.098281 C 41.90575 -41.270156 46.550281 -23.934219 38.722156 -10.375625 C 36.233875 -6.067031 32.65575 -2.488906 28.347156 -0.000625 L 7.085437 12.272813 " transform="matrix(1,0,0,-1,85.438,81.64)"/>
</g>
</g>
</svg>
