<?xml version="1.0" encoding="UTF-8"?>
<svg xmlns="http://www.w3.org/2000/svg" xmlns:xlink="http://www.w3.org/1999/xlink" width="133.366pt" height="136.785pt" viewBox="0 0 133.366 136.785" version="1.1">
<defs>
<clipPath id="clip1">
  <path d="M 23 62 L 83 62 L 83 136.785156 L 23 136.785156 Z M 23 62 "/>
</clipPath>
</defs>
<g id="surface146">
<path style=" stroke:none;fill-rule:nonzero;fill:rgb(100%,100%,100%);fill-opacity:1;" d="M 69.761719 40.757812 L 83.070312 43.792969 C 110.707031 50.101562 126.832031 67.449219 114.53125 92.988281 L 119.640625 95.449219 C 133.167969 67.355469 117.492188 45.835938 84.332031 38.269531 L 71.023438 35.230469 "/>
<path style="fill:none;stroke-width:0.3985;stroke-linecap:butt;stroke-linejoin:miter;stroke:rgb(0%,0%,0%);stroke-opacity:1;stroke-miterlimit:10;" d="M 6.305719 27.634187 L 19.614313 24.599031 C 47.251031 18.290437 63.376031 0.942781 51.07525 -24.596281 " transform="matrix(1,0,0,-1,63.456,68.392)"/>
<path style="fill:none;stroke-width:0.3985;stroke-linecap:butt;stroke-linejoin:miter;stroke:rgb(0%,0%,0%);stroke-opacity:1;stroke-miterlimit:10;" d="M 56.184625 -27.057219 C 69.711969 1.036531 54.036188 22.556062 20.876031 30.122469 L 7.567438 33.161531 " transform="matrix(1,0,0,-1,63.456,68.392)"/>
<path style=" stroke:none;fill-rule:nonzero;fill:rgb(100%,100%,100%);fill-opacity:1;" d="M 45.78125 46.230469 L 56.457031 37.71875 C 78.617188 20.046875 102.234375 18.257812 114.53125 43.796875 L 119.640625 41.335938 C 106.113281 13.246094 79.515625 12.078125 52.921875 33.289062 L 42.25 41.800781 "/>
<path style="fill:none;stroke-width:0.3985;stroke-linecap:butt;stroke-linejoin:miter;stroke:rgb(0%,0%,0%);stroke-opacity:1;stroke-miterlimit:10;" d="M -17.67475 22.161531 L -6.998969 30.67325 C 15.161188 48.345125 38.778375 50.134187 51.07525 24.595125 " transform="matrix(1,0,0,-1,63.456,68.392)"/>
<path style="fill:none;stroke-width:0.3985;stroke-linecap:butt;stroke-linejoin:miter;stroke:rgb(0%,0%,0%);stroke-opacity:1;stroke-miterlimit:10;" d="M 56.184625 27.056062 C 42.657281 55.145906 16.059625 56.313875 -10.534125 35.102937 L -21.206 26.591219 " transform="matrix(1,0,0,-1,63.456,68.392)"/>
<path style=" stroke:none;fill-rule:nonzero;fill:rgb(100%,100%,100%);fill-opacity:1;" d="M 35.109375 68.390625 L 35.109375 54.742188 C 35.109375 26.394531 48.4375 6.816406 76.070312 13.121094 L 77.332031 7.597656 C 46.933594 0.65625 29.441406 20.726562 29.441406 54.742188 L 29.441406 68.390625 "/>
<path style="fill:none;stroke-width:0.3985;stroke-linecap:butt;stroke-linejoin:miter;stroke:rgb(0%,0%,0%);stroke-opacity:1;stroke-miterlimit:10;" d="M -28.346625 0.001375 L -28.346625 13.649812 C -28.346625 41.997469 -15.0185 61.575594 12.614313 55.270906 " transform="matrix(1,0,0,-1,63.456,68.392)"/>
<path style="fill:none;stroke-width:0.3985;stroke-linecap:butt;stroke-linejoin:miter;stroke:rgb(0%,0%,0%);stroke-opacity:1;stroke-miterlimit:10;" d="M 13.876031 60.794344 C -16.522406 67.73575 -34.014594 47.665437 -34.014594 13.649812 L -34.014594 0.001375 " transform="matrix(1,0,0,-1,63.456,68.392)"/>
<path style=" stroke:none;fill-rule:nonzero;fill:rgb(100%,100%,100%);fill-opacity:1;" d="M 45.785156 90.554688 L 35.109375 82.042969 C 12.949219 64.371094 5.949219 41.742188 28.109375 24.070312 L 24.574219 19.636719 C 0.199219 39.078125 4.984375 65.265625 31.578125 86.472656 L 42.25 94.984375 "/>
<path style="fill:none;stroke-width:0.3985;stroke-linecap:butt;stroke-linejoin:miter;stroke:rgb(0%,0%,0%);stroke-opacity:1;stroke-miterlimit:10;" d="M -17.670844 -22.162688 L -28.346625 -13.650969 C -50.506781 4.020906 -57.506781 26.649812 -35.346625 44.321687 " transform="matrix(1,0,0,-1,63.456,68.392)"/>
<path style="fill:none;stroke-width:0.3985;stroke-linecap:butt;stroke-linejoin:miter;stroke:rgb(0%,0%,0%);stroke-opacity:1;stroke-miterlimit:10;" d="M -38.881781 48.755281 C -63.256781 29.313875 -58.471625 3.126375 -31.877875 -18.080656 L -21.206 -26.592375 " transform="matrix(1,0,0,-1,63.456,68.392)"/>
<path style=" stroke:none;fill-rule:nonzero;fill:rgb(100%,100%,100%);fill-opacity:1;" d="M 69.761719 96.027344 L 56.457031 99.066406 C 28.820312 105.371094 6.761719 96.738281 6.761719 68.390625 L 1.09375 68.390625 C 1.09375 99.574219 24.554688 112.160156 57.71875 104.589844 L 71.023438 101.554688 "/>
<path style="fill:none;stroke-width:0.3985;stroke-linecap:butt;stroke-linejoin:miter;stroke:rgb(0%,0%,0%);stroke-opacity:1;stroke-miterlimit:10;" d="M 6.305719 -27.635344 L -6.998969 -30.674406 C -34.635687 -36.979094 -56.694281 -28.346281 -56.694281 0.001375 " transform="matrix(1,0,0,-1,63.456,68.392)"/>
<path style="fill:none;stroke-width:0.3985;stroke-linecap:butt;stroke-linejoin:miter;stroke:rgb(0%,0%,0%);stroke-opacity:1;stroke-miterlimit:10;" d="M -62.36225 0.001375 C -62.36225 -31.182219 -38.901312 -43.768156 -5.73725 -36.197844 L 7.567438 -33.162688 " transform="matrix(1,0,0,-1,63.456,68.392)"/>
<path style=" stroke:none;fill-rule:nonzero;fill:rgb(100%,100%,100%);fill-opacity:1;" d="M 88.996094 80.691406 L 83.070312 92.988281 C 70.773438 118.527344 50.273438 130.386719 28.109375 112.714844 L 24.578125 117.148438 C 48.953125 136.585938 73.421875 126.09375 88.179688 95.449219 L 94.101562 83.148438 "/>
<path style="fill:none;stroke-width:0.3985;stroke-linecap:butt;stroke-linejoin:miter;stroke:rgb(0%,0%,0%);stroke-opacity:1;stroke-miterlimit:10;" d="M 25.540094 -12.299406 L 19.614313 -24.596281 C 7.317438 -50.135344 -13.182562 -61.994719 -35.346625 -44.322844 " transform="matrix(1,0,0,-1,63.456,68.392)"/>
<path style="fill:none;stroke-width:0.3985;stroke-linecap:butt;stroke-linejoin:miter;stroke:rgb(0%,0%,0%);stroke-opacity:1;stroke-miterlimit:10;" d="M -38.877875 -48.756438 C -14.502875 -68.193938 9.965875 -57.70175 24.723688 -27.057219 L 30.645563 -14.756438 " transform="matrix(1,0,0,-1,63.456,68.392)"/>
<path style=" stroke:none;fill-rule:nonzero;fill:rgb(100%,100%,100%);fill-opacity:1;" d="M 88.996094 56.09375 L 94.917969 68.390625 C 107.21875 93.929688 103.703125 117.355469 76.070312 123.664062 L 77.332031 129.191406 C 107.730469 122.253906 114.785156 96.578125 100.027344 65.933594 L 94.101562 53.632812 "/>
<path style="fill:none;stroke-width:0.3985;stroke-linecap:butt;stroke-linejoin:miter;stroke:rgb(0%,0%,0%);stroke-opacity:1;stroke-miterlimit:10;" d="M 25.540094 12.29825 L 31.461969 0.001375 C 43.76275 -25.537688 40.247125 -48.963469 12.614313 -55.272063 " transform="matrix(1,0,0,-1,63.456,68.392)"/>
<path style="fill:none;stroke-width:0.3985;stroke-linecap:butt;stroke-linejoin:miter;stroke:rgb(0%,0%,0%);stroke-opacity:1;stroke-miterlimit:10;" d="M 13.876031 -60.799406 C 44.274469 -53.861906 51.329156 -28.186125 36.571344 2.458406 L 30.645563 14.759187 " transform="matrix(1,0,0,-1,63.456,68.392)"/>
<path style=" stroke:none;fill-rule:nonzero;fill:rgb(100%,100%,100%);fill-opacity:1;" d="M 88.996094 56.09375 L 83.070312 43.792969 C 70.773438 18.257812 50.269531 6.398438 28.109375 24.070312 L 24.574219 19.636719 C 48.953125 0.199219 73.421875 10.6875 88.179688 41.335938 L 94.101562 53.632812 "/>
<path style="fill:none;stroke-width:0.3985;stroke-linecap:butt;stroke-linejoin:miter;stroke:rgb(0%,0%,0%);stroke-opacity:1;stroke-miterlimit:10;" d="M 25.540094 12.29825 L 19.614313 24.599031 C 7.317438 50.134187 -13.186469 61.993562 -35.346625 44.321687 " transform="matrix(1,0,0,-1,63.456,68.392)"/>
<path style="fill:none;stroke-width:0.3985;stroke-linecap:butt;stroke-linejoin:miter;stroke:rgb(0%,0%,0%);stroke-opacity:1;stroke-miterlimit:10;" d="M 30.645563 14.759187 L 24.723688 27.056062 C 9.965875 57.7045 -14.502875 68.192781 -38.881781 48.755281 " transform="matrix(1,0,0,-1,63.456,68.392)"/>
<path style=" stroke:none;fill-rule:nonzero;fill:rgb(100%,100%,100%);fill-opacity:1;" d="M 69.761719 40.757812 L 56.457031 37.71875 C 28.820312 31.410156 6.761719 40.046875 6.761719 68.390625 L 1.09375 68.390625 C 1.09375 37.210938 24.554688 24.625 57.71875 32.191406 L 71.023438 35.230469 "/>
<path style="fill:none;stroke-width:0.3985;stroke-linecap:butt;stroke-linejoin:miter;stroke:rgb(0%,0%,0%);stroke-opacity:1;stroke-miterlimit:10;" d="M 6.305719 27.634187 L -6.998969 30.67325 C -34.635687 36.981844 -56.694281 28.345125 -56.694281 0.001375 " transform="matrix(1,0,0,-1,63.456,68.392)"/>
<path style="fill:none;stroke-width:0.3985;stroke-linecap:butt;stroke-linejoin:miter;stroke:rgb(0%,0%,0%);stroke-opacity:1;stroke-miterlimit:10;" d="M 7.567438 33.161531 L -5.73725 36.200594 C -38.901312 43.767 -62.36225 31.181062 -62.36225 0.001375 " transform="matrix(1,0,0,-1,63.456,68.392)"/>
<path style=" stroke:none;fill-rule:nonzero;fill:rgb(100%,100%,100%);fill-opacity:1;" d="M 45.78125 46.230469 L 35.109375 54.742188 C 12.949219 72.414062 5.949219 95.042969 28.109375 112.714844 L 24.578125 117.148438 C 0.199219 97.707031 4.984375 71.515625 31.578125 50.308594 L 42.25 41.800781 "/>
<path style="fill:none;stroke-width:0.3985;stroke-linecap:butt;stroke-linejoin:miter;stroke:rgb(0%,0%,0%);stroke-opacity:1;stroke-miterlimit:10;" d="M -17.67475 22.161531 L -28.346625 13.649812 C -50.506781 -4.022063 -57.506781 -26.650969 -35.346625 -44.322844 " transform="matrix(1,0,0,-1,63.456,68.392)"/>
<path style="fill:none;stroke-width:0.3985;stroke-linecap:butt;stroke-linejoin:miter;stroke:rgb(0%,0%,0%);stroke-opacity:1;stroke-miterlimit:10;" d="M -21.206 26.591219 L -31.877875 18.083406 C -58.471625 -3.123625 -63.256781 -29.315031 -38.877875 -48.756438 " transform="matrix(1,0,0,-1,63.456,68.392)"/>
<path style=" stroke:none;fill-rule:nonzero;fill:rgb(100%,100%,100%);fill-opacity:1;" d="M 35.109375 68.390625 L 35.109375 82.042969 C 35.109375 110.390625 48.433594 129.96875 76.070312 123.664062 L 77.332031 129.191406 C 46.933594 136.125 29.441406 116.058594 29.441406 82.042969 L 29.441406 68.390625 "/>
<path style="fill:none;stroke-width:0.3985;stroke-linecap:butt;stroke-linejoin:miter;stroke:rgb(0%,0%,0%);stroke-opacity:1;stroke-miterlimit:10;" d="M -28.346625 0.001375 L -28.346625 -13.650969 C -28.346625 -41.998625 -15.022406 -61.57675 12.614313 -55.272063 " transform="matrix(1,0,0,-1,63.456,68.392)"/>
<g clip-path="url(#clip1)" clip-rule="nonzero">
<path style="fill:none;stroke-width:0.3985;stroke-linecap:butt;stroke-linejoin:miter;stroke:rgb(0%,0%,0%);stroke-opacity:1;stroke-miterlimit:10;" d="M -34.014594 0.001375 L -34.014594 -13.650969 C -34.014594 -47.666594 -16.522406 -67.733 13.876031 -60.799406 " transform="matrix(1,0,0,-1,63.456,68.392)"/>
</g>
<path style=" stroke:none;fill-rule:nonzero;fill:rgb(100%,100%,100%);fill-opacity:1;" d="M 45.785156 90.554688 L 56.457031 99.066406 C 78.617188 116.738281 102.234375 118.527344 114.53125 92.988281 L 119.640625 95.449219 C 106.113281 123.539062 79.515625 124.703125 52.921875 103.496094 L 42.25 94.984375 "/>
<path style="fill:none;stroke-width:0.3985;stroke-linecap:butt;stroke-linejoin:miter;stroke:rgb(0%,0%,0%);stroke-opacity:1;stroke-miterlimit:10;" d="M -17.670844 -22.162688 L -6.998969 -30.674406 C 15.161188 -48.346281 38.778375 -50.135344 51.07525 -24.596281 " transform="matrix(1,0,0,-1,63.456,68.392)"/>
<path style="fill:none;stroke-width:0.3985;stroke-linecap:butt;stroke-linejoin:miter;stroke:rgb(0%,0%,0%);stroke-opacity:1;stroke-miterlimit:10;" d="M -21.206 -26.592375 L -10.534125 -35.104094 C 16.059625 -56.311125 42.657281 -55.147063 56.184625 -27.057219 " transform="matrix(1,0,0,-1,63.456,68.392)"/>
<path style=" stroke:none;fill-rule:nonzero;fill:rgb(100%,100%,100%);fill-opacity:1;" d="M 69.761719 96.027344 L 83.070312 92.988281 C 110.707031 86.683594 126.832031 69.332031 114.53125 43.796875 L 119.640625 41.335938 C 133.167969 69.425781 117.496094 90.949219 84.332031 98.515625 L 71.023438 101.554688 "/>
<path style="fill:none;stroke-width:0.3985;stroke-linecap:butt;stroke-linejoin:miter;stroke:rgb(0%,0%,0%);stroke-opacity:1;stroke-miterlimit:10;" d="M 6.305719 -27.635344 L 19.614313 -24.596281 C 47.251031 -18.291594 63.376031 -0.940031 51.07525 24.595125 " transform="matrix(1,0,0,-1,63.456,68.392)"/>
<path style="fill:none;stroke-width:0.3985;stroke-linecap:butt;stroke-linejoin:miter;stroke:rgb(0%,0%,0%);stroke-opacity:1;stroke-miterlimit:10;" d="M 7.567438 -33.162688 L 20.876031 -30.123625 C 54.040094 -22.557219 69.711969 -1.033781 56.184625 27.056062 " transform="matrix(1,0,0,-1,63.456,68.392)"/>
<path style=" stroke:none;fill-rule:nonzero;fill:rgb(100%,100%,100%);fill-opacity:1;" d="M 88.996094 80.691406 L 94.917969 68.390625 C 107.21875 42.855469 103.707031 19.429688 76.070312 13.121094 L 77.332031 7.597656 C 107.730469 14.535156 114.785156 40.207031 100.027344 70.851562 L 94.101562 83.148438 "/>
<path style="fill:none;stroke-width:0.3985;stroke-linecap:butt;stroke-linejoin:miter;stroke:rgb(0%,0%,0%);stroke-opacity:1;stroke-miterlimit:10;" d="M 25.540094 -12.299406 L 31.461969 0.001375 C 43.76275 25.536531 40.251031 48.962312 12.614313 55.270906 " transform="matrix(1,0,0,-1,63.456,68.392)"/>
<path style="fill:none;stroke-width:0.3985;stroke-linecap:butt;stroke-linejoin:miter;stroke:rgb(0%,0%,0%);stroke-opacity:1;stroke-miterlimit:10;" d="M 30.645563 -14.756438 L 36.571344 -2.459563 C 51.329156 28.184969 44.274469 53.856844 13.876031 60.794344 " transform="matrix(1,0,0,-1,63.456,68.392)"/>
</g>
</svg>
