<?xml version="1.0" encoding="UTF-8"?>
<svg xmlns="http://www.w3.org/2000/svg" xmlns:xlink="http://www.w3.org/1999/xlink" width="72.227pt" height="72.227pt" viewBox="0 0 72.227 72.227" version="1.1">
<defs>
<clipPath id="clip1">
  <path d="M 0 34 L 36 34 L 36 72.226562 L 0 72.226562 Z M 0 34 "/>
</clipPath>
<clipPath id="clip2">
  <path d="M 12 49 L 62 49 L 62 72.226562 L 12 72.226562 Z M 12 49 "/>
</clipPath>
<clipPath id="clip3">
  <path d="M 34 36 L 72.226562 36 L 72.226562 72.226562 L 34 72.226562 Z M 34 36 "/>
</clipPath>
<clipPath id="clip4">
  <path d="M 49 10 L 72.226562 10 L 72.226562 60 L 49 60 Z M 49 10 "/>
</clipPath>
<clipPath id="clip5">
  <path d="M 36 0 L 72.226562 0 L 72.226562 38 L 36 38 Z M 36 0 "/>
</clipPath>
<clipPath id="clip6">
  <path d="M 34 0 L 72.226562 0 L 72.226562 36 L 34 36 Z M 34 0 "/>
</clipPath>
<clipPath id="clip7">
  <path d="M 0 36 L 38 36 L 38 72.226562 L 0 72.226562 Z M 0 36 "/>
</clipPath>
<clipPath id="clip8">
  <path d="M 10 49 L 60 49 L 60 72.226562 L 10 72.226562 Z M 10 49 "/>
</clipPath>
<clipPath id="clip9">
  <path d="M 36 34 L 72.226562 34 L 72.226562 72.226562 L 36 72.226562 Z M 36 34 "/>
</clipPath>
<clipPath id="clip10">
  <path d="M 49 12 L 72.226562 12 L 72.226562 62 L 49 62 Z M 49 12 "/>
</clipPath>
</defs>
<g id="surface66">
<path style=" stroke:none;fill-rule:nonzero;fill:rgb(100%,100%,100%);fill-opacity:1;" d="M 46.136719 11.917969 L 36.113281 7.765625 C 32.355469 6.210938 28.132812 6.210938 24.375 7.765625 L 22.203125 2.527344 C 27.351562 0.398438 33.136719 0.398438 38.285156 2.527344 L 48.304688 6.683594 "/>
<path style="fill:none;stroke-width:0.79701;stroke-linecap:butt;stroke-linejoin:miter;stroke:rgb(0%,0%,0%);stroke-opacity:1;stroke-miterlimit:10;" d="M 10.022719 24.195031 L -0.00071875 28.347375 C -3.758531 29.902063 -7.981187 29.902063 -11.739 28.347375 M -13.910875 33.585656 C -8.762437 35.714563 -2.977281 35.714563 2.171156 33.585656 L 12.190688 29.429406 " transform="matrix(1,0,0,-1,36.114,36.113)"/>
<path style=" stroke:none;fill-rule:nonzero;fill:rgb(100%,100%,100%);fill-opacity:1;" d="M 26.09375 11.917969 L 16.070312 16.070312 C 12.3125 17.625 9.324219 20.613281 7.765625 24.371094 L 2.53125 22.203125 C 4.664062 17.054688 8.753906 12.960938 13.902344 10.832031 L 23.921875 6.683594 "/>
<path style="fill:none;stroke-width:0.79701;stroke-linecap:butt;stroke-linejoin:miter;stroke:rgb(0%,0%,0%);stroke-opacity:1;stroke-miterlimit:10;" d="M -10.02025 24.195031 L -20.043687 20.042688 C -23.8015 18.488 -26.789781 15.499719 -28.348375 11.741906 M -33.58275 13.909875 C -31.449937 19.058313 -27.360094 23.152063 -22.211656 25.280969 L -12.192125 29.429406 " transform="matrix(1,0,0,-1,36.114,36.113)"/>
<path style=" stroke:none;fill-rule:nonzero;fill:rgb(100%,100%,100%);fill-opacity:1;" d="M 11.921875 26.09375 L 7.765625 36.113281 C 6.210938 39.871094 6.210938 44.097656 7.765625 47.855469 L 2.53125 50.023438 C 0.398438 44.875 0.398438 39.089844 2.53125 33.941406 L 6.683594 23.921875 "/>
<path style="fill:none;stroke-width:0.79701;stroke-linecap:butt;stroke-linejoin:miter;stroke:rgb(0%,0%,0%);stroke-opacity:1;stroke-miterlimit:10;" d="M -24.192125 10.01925 L -28.348375 -0.00028125 C -29.903062 -3.758094 -29.903062 -7.984656 -28.348375 -11.742469 M -33.58275 -13.910437 C -35.715562 -8.762 -35.715562 -2.976844 -33.58275 2.171594 L -29.430406 12.191125 " transform="matrix(1,0,0,-1,36.114,36.113)"/>
<path style=" stroke:none;fill-rule:nonzero;fill:rgb(100%,100%,100%);fill-opacity:1;" d="M 11.921875 46.132812 L 16.070312 56.15625 C 17.625 59.914062 20.613281 62.902344 24.371094 64.460938 L 22.203125 69.695312 C 17.054688 67.566406 12.964844 63.472656 10.832031 58.324219 L 6.683594 48.304688 "/>
<g clip-path="url(#clip1)" clip-rule="nonzero">
<path style="fill:none;stroke-width:0.79701;stroke-linecap:butt;stroke-linejoin:miter;stroke:rgb(0%,0%,0%);stroke-opacity:1;stroke-miterlimit:10;" d="M -24.192125 -10.019812 L -20.043687 -20.04325 C -18.489 -23.801062 -15.500719 -26.789344 -11.742906 -28.347937 M -13.910875 -33.582312 C -19.059312 -31.453406 -23.149156 -27.359656 -25.281969 -22.211219 L -29.430406 -12.191687 " transform="matrix(1,0,0,-1,36.114,36.113)"/>
</g>
<path style=" stroke:none;fill-rule:nonzero;fill:rgb(100%,100%,100%);fill-opacity:1;" d="M 26.09375 60.304688 L 36.113281 64.460938 C 39.871094 66.015625 44.097656 66.015625 47.855469 64.460938 L 50.023438 69.695312 C 44.878906 71.828125 39.089844 71.828125 33.945312 69.695312 L 23.921875 65.542969 "/>
<g clip-path="url(#clip2)" clip-rule="nonzero">
<path style="fill:none;stroke-width:0.79701;stroke-linecap:butt;stroke-linejoin:miter;stroke:rgb(0%,0%,0%);stroke-opacity:1;stroke-miterlimit:10;" d="M -10.02025 -24.191687 L -0.00071875 -28.347937 C 3.757094 -29.902625 7.983656 -29.902625 11.741469 -28.347937 M 13.909438 -33.582312 C 8.764906 -35.715125 2.975844 -35.715125 -2.168687 -33.582312 L -12.192125 -29.429969 " transform="matrix(1,0,0,-1,36.114,36.113)"/>
</g>
<path style=" stroke:none;fill-rule:nonzero;fill:rgb(100%,100%,100%);fill-opacity:1;" d="M 46.136719 60.304688 L 56.160156 56.15625 C 59.917969 54.601562 62.902344 51.613281 64.460938 47.855469 L 69.699219 50.023438 C 67.566406 55.171875 63.472656 59.261719 58.328125 61.394531 L 48.304688 65.542969 "/>
<g clip-path="url(#clip3)" clip-rule="nonzero">
<path style="fill:none;stroke-width:0.79701;stroke-linecap:butt;stroke-linejoin:miter;stroke:rgb(0%,0%,0%);stroke-opacity:1;stroke-miterlimit:10;" d="M 10.022719 -24.191687 L 20.046156 -20.04325 C 23.803969 -18.488562 26.788344 -15.500281 28.346938 -11.742469 M 33.585219 -13.910437 C 31.452406 -19.058875 27.358656 -23.148719 22.214125 -25.281531 L 12.190688 -29.429969 " transform="matrix(1,0,0,-1,36.114,36.113)"/>
</g>
<path style=" stroke:none;fill-rule:nonzero;fill:rgb(100%,100%,100%);fill-opacity:1;" d="M 60.308594 46.132812 L 64.460938 36.113281 C 66.015625 32.355469 66.015625 28.128906 64.460938 24.371094 L 69.699219 22.203125 C 71.828125 27.351562 71.828125 33.136719 69.699219 38.28125 L 65.542969 48.304688 "/>
<g clip-path="url(#clip4)" clip-rule="nonzero">
<path style="fill:none;stroke-width:0.79701;stroke-linecap:butt;stroke-linejoin:miter;stroke:rgb(0%,0%,0%);stroke-opacity:1;stroke-miterlimit:10;" d="M 24.194594 -10.019812 L 28.346938 -0.00028125 C 29.901625 3.757531 29.901625 7.984094 28.346938 11.741906 M 33.585219 13.909875 C 35.714125 8.761438 35.714125 2.976281 33.585219 -2.16825 L 29.428969 -12.191687 " transform="matrix(1,0,0,-1,36.114,36.113)"/>
</g>
<path style=" stroke:none;fill-rule:nonzero;fill:rgb(100%,100%,100%);fill-opacity:1;" d="M 60.308594 26.09375 L 56.160156 16.070312 C 54.601562 12.3125 51.613281 9.324219 47.855469 7.765625 L 50.023438 2.53125 C 55.171875 4.660156 59.265625 8.753906 61.394531 13.898438 L 65.542969 23.921875 "/>
<g clip-path="url(#clip5)" clip-rule="nonzero">
<path style="fill:none;stroke-width:0.79701;stroke-linecap:butt;stroke-linejoin:miter;stroke:rgb(0%,0%,0%);stroke-opacity:1;stroke-miterlimit:10;" d="M 24.194594 10.01925 L 20.046156 20.042688 C 18.487563 23.8005 15.499281 26.788781 11.741469 28.347375 M 13.909438 33.58175 C 19.057875 31.452844 23.151625 27.359094 25.280531 22.214563 L 29.428969 12.191125 " transform="matrix(1,0,0,-1,36.114,36.113)"/>
</g>
<path style=" stroke:none;fill-rule:nonzero;fill:rgb(100%,100%,100%);fill-opacity:1;" d="M 58.328125 10.832031 C 63.472656 12.964844 67.566406 17.054688 69.699219 22.203125 L 64.460938 24.371094 C 62.90625 20.613281 59.917969 17.625 56.160156 16.070312 L 46.136719 11.917969 L 48.304688 6.683594 Z M 58.328125 10.832031 "/>
<g clip-path="url(#clip6)" clip-rule="nonzero">
<path style="fill:none;stroke-width:0.79701;stroke-linecap:butt;stroke-linejoin:miter;stroke:rgb(0%,0%,0%);stroke-opacity:1;stroke-miterlimit:10;" d="M 12.190688 29.429406 L 22.214125 25.280969 C 27.358656 23.148156 31.452406 19.058313 33.585219 13.909875 M 28.346938 11.741906 C 26.79225 15.499719 23.803969 18.488 20.046156 20.042688 L 10.022719 24.195031 " transform="matrix(1,0,0,-1,36.114,36.113)"/>
</g>
<path style=" stroke:none;fill-rule:nonzero;fill:rgb(100%,100%,100%);fill-opacity:1;" d="M 33.945312 2.527344 C 39.089844 0.398438 44.878906 0.398438 50.023438 2.527344 L 47.855469 7.765625 C 44.097656 6.210938 39.871094 6.210938 36.113281 7.765625 L 26.09375 11.917969 L 23.921875 6.683594 Z M 33.945312 2.527344 "/>
<path style="fill:none;stroke-width:0.79701;stroke-linecap:butt;stroke-linejoin:miter;stroke:rgb(0%,0%,0%);stroke-opacity:1;stroke-miterlimit:10;" d="M -12.192125 29.429406 L -2.168687 33.585656 C 2.975844 35.714563 8.764906 35.714563 13.909438 33.585656 M 11.741469 28.347375 C 7.983656 29.902063 3.757094 29.902063 -0.00071875 28.347375 L -10.02025 24.195031 " transform="matrix(1,0,0,-1,36.114,36.113)"/>
<path style=" stroke:none;fill-rule:nonzero;fill:rgb(100%,100%,100%);fill-opacity:1;" d="M 10.832031 13.898438 C 12.964844 8.753906 17.054688 4.660156 22.203125 2.527344 L 24.371094 7.765625 C 20.613281 9.324219 17.625 12.3125 16.070312 16.070312 L 11.921875 26.09375 L 6.683594 23.921875 Z M 10.832031 13.898438 "/>
<path style="fill:none;stroke-width:0.79701;stroke-linecap:butt;stroke-linejoin:miter;stroke:rgb(0%,0%,0%);stroke-opacity:1;stroke-miterlimit:10;" d="M -29.430406 12.191125 L -25.281969 22.214563 C -23.149156 27.359094 -19.059312 31.452844 -13.910875 33.585656 M -11.742906 28.347375 C -15.500719 26.788781 -18.489 23.8005 -20.043687 20.042688 L -24.192125 10.01925 " transform="matrix(1,0,0,-1,36.114,36.113)"/>
<path style=" stroke:none;fill-rule:nonzero;fill:rgb(100%,100%,100%);fill-opacity:1;" d="M 2.53125 38.28125 C 0.398438 33.136719 0.398438 27.347656 2.53125 22.203125 L 7.765625 24.371094 C 6.210938 28.128906 6.210938 32.355469 7.765625 36.113281 L 11.921875 46.132812 L 6.683594 48.304688 Z M 2.53125 38.28125 "/>
<path style="fill:none;stroke-width:0.79701;stroke-linecap:butt;stroke-linejoin:miter;stroke:rgb(0%,0%,0%);stroke-opacity:1;stroke-miterlimit:10;" d="M -29.430406 -12.191687 L -33.58275 -2.16825 C -35.715562 2.976281 -35.715562 8.765344 -33.58275 13.909875 M -28.348375 11.741906 C -29.903062 7.984094 -29.903062 3.757531 -28.348375 -0.00028125 L -24.192125 -10.019812 " transform="matrix(1,0,0,-1,36.114,36.113)"/>
<path style=" stroke:none;fill-rule:nonzero;fill:rgb(100%,100%,100%);fill-opacity:1;" d="M 13.902344 61.394531 C 8.753906 59.261719 4.660156 55.171875 2.53125 50.023438 L 7.765625 47.855469 C 9.324219 51.613281 12.3125 54.601562 16.070312 56.15625 L 26.09375 60.304688 L 23.921875 65.542969 Z M 13.902344 61.394531 "/>
<g clip-path="url(#clip7)" clip-rule="nonzero">
<path style="fill:none;stroke-width:0.79701;stroke-linecap:butt;stroke-linejoin:miter;stroke:rgb(0%,0%,0%);stroke-opacity:1;stroke-miterlimit:10;" d="M -12.192125 -29.429969 L -22.211656 -25.281531 C -27.360094 -23.148719 -31.453844 -19.058875 -33.58275 -13.910437 M -28.348375 -11.742469 C -26.789781 -15.500281 -23.8015 -18.488562 -20.043687 -20.04325 L -10.02025 -24.191687 " transform="matrix(1,0,0,-1,36.114,36.113)"/>
</g>
<path style=" stroke:none;fill-rule:nonzero;fill:rgb(100%,100%,100%);fill-opacity:1;" d="M 38.28125 69.695312 C 33.136719 71.828125 27.351562 71.828125 22.203125 69.695312 L 24.375 64.460938 C 28.132812 66.015625 32.355469 66.015625 36.113281 64.460938 L 46.136719 60.304688 L 48.304688 65.542969 Z M 38.28125 69.695312 "/>
<g clip-path="url(#clip8)" clip-rule="nonzero">
<path style="fill:none;stroke-width:0.79701;stroke-linecap:butt;stroke-linejoin:miter;stroke:rgb(0%,0%,0%);stroke-opacity:1;stroke-miterlimit:10;" d="M 12.190688 -29.429969 L 2.16725 -33.582312 C -2.977281 -35.715125 -8.762437 -35.715125 -13.910875 -33.582312 M -11.739 -28.347937 C -7.981187 -29.902625 -3.758531 -29.902625 -0.00071875 -28.347937 L 10.022719 -24.191687 " transform="matrix(1,0,0,-1,36.114,36.113)"/>
</g>
<path style=" stroke:none;fill-rule:nonzero;fill:rgb(100%,100%,100%);fill-opacity:1;" d="M 61.394531 58.328125 C 59.265625 63.472656 55.171875 67.566406 50.023438 69.695312 L 47.855469 64.460938 C 51.613281 62.902344 54.601562 59.914062 56.15625 56.15625 L 60.308594 46.132812 L 65.542969 48.304688 Z M 61.394531 58.328125 "/>
<g clip-path="url(#clip9)" clip-rule="nonzero">
<path style="fill:none;stroke-width:0.79701;stroke-linecap:butt;stroke-linejoin:miter;stroke:rgb(0%,0%,0%);stroke-opacity:1;stroke-miterlimit:10;" d="M 29.428969 -12.191687 L 25.280531 -22.215125 C 23.151625 -27.359656 19.057875 -31.453406 13.909438 -33.582312 M 11.741469 -28.347937 C 15.499281 -26.789344 18.487563 -23.801062 20.04225 -20.04325 L 24.194594 -10.019812 " transform="matrix(1,0,0,-1,36.114,36.113)"/>
</g>
<path style=" stroke:none;fill-rule:nonzero;fill:rgb(100%,100%,100%);fill-opacity:1;" d="M 69.699219 33.945312 C 71.828125 39.089844 71.828125 44.875 69.699219 50.023438 L 64.460938 47.855469 C 66.015625 44.097656 66.015625 39.871094 64.460938 36.113281 L 60.308594 26.09375 L 65.542969 23.921875 Z M 69.699219 33.945312 "/>
<g clip-path="url(#clip10)" clip-rule="nonzero">
<path style="fill:none;stroke-width:0.79701;stroke-linecap:butt;stroke-linejoin:miter;stroke:rgb(0%,0%,0%);stroke-opacity:1;stroke-miterlimit:10;" d="M 29.428969 12.191125 L 33.585219 2.167688 C 35.714125 -2.976844 35.714125 -8.762 33.585219 -13.910437 M 28.346938 -11.742469 C 29.901625 -7.984656 29.901625 -3.758094 28.346938 -0.00028125 L 24.194594 10.01925 " transform="matrix(1,0,0,-1,36.114,36.113)"/>
</g>
</g>
</svg>
