<?xml version="1.0" encoding="UTF-8"?>
<svg xmlns="http://www.w3.org/2000/svg" xmlns:xlink="http://www.w3.org/1999/xlink" width="91.057pt" height="95.723pt" viewBox="0 0 91.057 95.723" version="1.1">
<g id="surface26">
<path style=" stroke:none;fill-rule:nonzero;fill:rgb(100%,100%,100%);fill-opacity:1;" d="M 66.171875 31.199219 L 54.0625 14.539062 C 47.398438 5.367188 47.011719 22.789062 36.230469 26.292969 L 34.476562 20.902344 C 47.957031 16.523438 50.652344 0.199219 58.652344 11.207031 L 70.757812 27.867188 "/>
<path style="fill:none;stroke-width:0.3985;stroke-linecap:butt;stroke-linejoin:miter;stroke:rgb(0%,0%,0%);stroke-opacity:1;stroke-miterlimit:10;" d="M 22.934875 16.662781 L 10.8255 33.322938 C 4.161437 42.494813 3.774719 25.072938 -7.006531 21.569031 " transform="matrix(1,0,0,-1,43.237,47.862)"/>
<path style="fill:none;stroke-width:0.3985;stroke-linecap:butt;stroke-linejoin:miter;stroke:rgb(0%,0%,0%);stroke-opacity:1;stroke-miterlimit:10;" d="M -8.760438 26.959656 C 4.720031 31.338563 7.415344 47.662781 15.415344 36.654969 L 27.520812 19.994813 " transform="matrix(1,0,0,-1,43.237,47.862)"/>
<path style=" stroke:none;fill-rule:nonzero;fill:rgb(100%,100%,100%);fill-opacity:1;" d="M 34.476562 20.902344 L 14.890625 27.265625 C 4.105469 30.769531 20.558594 36.523438 20.558594 47.863281 L 14.890625 47.863281 C 14.890625 33.6875 0.199219 26.078125 13.140625 21.875 L 32.726562 15.511719 "/>
<path style="fill:none;stroke-width:0.3985;stroke-linecap:butt;stroke-linejoin:miter;stroke:rgb(0%,0%,0%);stroke-opacity:1;stroke-miterlimit:10;" d="M -8.760438 26.959656 L -28.346375 20.596375 C -39.131531 17.092469 -22.678406 11.338563 -22.678406 -0.00128125 " transform="matrix(1,0,0,-1,43.237,47.862)"/>
<path style="fill:none;stroke-width:0.3985;stroke-linecap:butt;stroke-linejoin:miter;stroke:rgb(0%,0%,0%);stroke-opacity:1;stroke-miterlimit:10;" d="M -28.346375 -0.00128125 C -28.346375 14.1745 -43.037781 21.783875 -30.096375 25.987 L -10.510438 32.350281 " transform="matrix(1,0,0,-1,43.237,47.862)"/>
<path style=" stroke:none;fill-rule:nonzero;fill:rgb(100%,100%,100%);fill-opacity:1;" d="M 14.890625 47.863281 L 14.890625 68.457031 C 14.890625 79.796875 25.445312 65.925781 36.230469 69.429688 L 34.476562 74.820312 C 20.996094 70.441406 9.222656 82.0625 9.222656 68.457031 L 9.222656 47.863281 "/>
<path style="fill:none;stroke-width:0.3985;stroke-linecap:butt;stroke-linejoin:miter;stroke:rgb(0%,0%,0%);stroke-opacity:1;stroke-miterlimit:10;" d="M -28.346375 -0.00128125 L -28.346375 -20.595031 C -28.346375 -31.934875 -17.791688 -18.063781 -7.006531 -21.567687 " transform="matrix(1,0,0,-1,43.237,47.862)"/>
<path style="fill:none;stroke-width:0.3985;stroke-linecap:butt;stroke-linejoin:miter;stroke:rgb(0%,0%,0%);stroke-opacity:1;stroke-miterlimit:10;" d="M -8.760438 -26.958312 C -22.240906 -22.579406 -34.014344 -34.2005 -34.014344 -20.595031 L -34.014344 -0.00128125 " transform="matrix(1,0,0,-1,43.237,47.862)"/>
<path style=" stroke:none;fill-rule:nonzero;fill:rgb(100%,100%,100%);fill-opacity:1;" d="M 34.476562 74.820312 L 54.0625 81.183594 C 64.847656 84.6875 54.917969 70.363281 61.582031 61.191406 L 66.171875 64.523438 C 57.839844 75.992188 65.253906 90.78125 52.3125 86.578125 L 32.726562 80.214844 "/>
<path style="fill:none;stroke-width:0.3985;stroke-linecap:butt;stroke-linejoin:miter;stroke:rgb(0%,0%,0%);stroke-opacity:1;stroke-miterlimit:10;" d="M -8.760438 -26.958312 L 10.8255 -33.321594 C 21.610656 -36.8255 11.680969 -22.501281 18.345031 -13.329406 " transform="matrix(1,0,0,-1,43.237,47.862)"/>
<path style="fill:none;stroke-width:0.3985;stroke-linecap:butt;stroke-linejoin:miter;stroke:rgb(0%,0%,0%);stroke-opacity:1;stroke-miterlimit:10;" d="M 22.934875 -16.661437 C 14.602844 -28.130187 22.016906 -42.91925 9.0755 -38.716125 L -10.510438 -32.352844 " transform="matrix(1,0,0,-1,43.237,47.862)"/>
<path style=" stroke:none;fill-rule:nonzero;fill:rgb(100%,100%,100%);fill-opacity:1;" d="M 66.171875 64.523438 L 78.273438 47.863281 C 84.941406 38.6875 68.25 43.707031 61.582031 34.53125 L 66.171875 31.199219 C 74.5 42.667969 90.859375 40.1875 82.863281 51.195312 L 70.757812 67.855469 "/>
<path style="fill:none;stroke-width:0.3985;stroke-linecap:butt;stroke-linejoin:miter;stroke:rgb(0%,0%,0%);stroke-opacity:1;stroke-miterlimit:10;" d="M 22.934875 -16.661437 L 35.036437 -0.00128125 C 41.704406 9.1745 25.013 4.154969 18.345031 13.33075 " transform="matrix(1,0,0,-1,43.237,47.862)"/>
<path style="fill:none;stroke-width:0.3985;stroke-linecap:butt;stroke-linejoin:miter;stroke:rgb(0%,0%,0%);stroke-opacity:1;stroke-miterlimit:10;" d="M 22.934875 16.662781 C 31.263 5.194031 47.622375 7.6745 39.626281 -3.333312 L 27.520812 -19.993469 " transform="matrix(1,0,0,-1,43.237,47.862)"/>
<path style=" stroke:none;fill-rule:nonzero;fill:rgb(100%,100%,100%);fill-opacity:1;" d="M 66.171875 31.199219 L 78.273438 47.863281 C 84.941406 57.035156 68.25 52.019531 61.582031 61.191406 L 66.171875 64.523438 C 74.5 53.058594 90.859375 55.535156 82.863281 44.53125 L 70.757812 27.867188 "/>
<path style="fill:none;stroke-width:0.3985;stroke-linecap:butt;stroke-linejoin:miter;stroke:rgb(0%,0%,0%);stroke-opacity:1;stroke-miterlimit:10;" d="M 22.934875 16.662781 L 35.036437 -0.00128125 C 41.704406 -9.173156 25.013 -4.157531 18.345031 -13.329406 " transform="matrix(1,0,0,-1,43.237,47.862)"/>
<path style="fill:none;stroke-width:0.3985;stroke-linecap:butt;stroke-linejoin:miter;stroke:rgb(0%,0%,0%);stroke-opacity:1;stroke-miterlimit:10;" d="M 27.520812 19.994813 L 39.626281 3.33075 C 47.622375 -7.673156 31.263 -5.196594 22.934875 -16.661437 " transform="matrix(1,0,0,-1,43.237,47.862)"/>
<path style=" stroke:none;fill-rule:nonzero;fill:rgb(100%,100%,100%);fill-opacity:1;" d="M 34.476562 20.902344 L 54.0625 14.539062 C 64.847656 11.035156 54.917969 25.359375 61.582031 34.53125 L 66.171875 31.199219 C 57.839844 19.734375 65.253906 4.941406 52.3125 9.148438 L 32.726562 15.511719 "/>
<path style="fill:none;stroke-width:0.3985;stroke-linecap:butt;stroke-linejoin:miter;stroke:rgb(0%,0%,0%);stroke-opacity:1;stroke-miterlimit:10;" d="M -8.760438 26.959656 L 10.8255 33.322938 C 21.610656 36.826844 11.680969 22.502625 18.345031 13.33075 " transform="matrix(1,0,0,-1,43.237,47.862)"/>
<path style="fill:none;stroke-width:0.3985;stroke-linecap:butt;stroke-linejoin:miter;stroke:rgb(0%,0%,0%);stroke-opacity:1;stroke-miterlimit:10;" d="M -10.510438 32.350281 L 9.0755 38.713563 C 22.016906 42.920594 14.602844 28.127625 22.934875 16.662781 " transform="matrix(1,0,0,-1,43.237,47.862)"/>
<path style=" stroke:none;fill-rule:nonzero;fill:rgb(100%,100%,100%);fill-opacity:1;" d="M 14.890625 47.863281 L 14.890625 27.265625 C 14.890625 15.929688 25.445312 29.796875 36.230469 26.292969 L 34.476562 20.902344 C 20.996094 25.28125 9.222656 13.660156 9.222656 27.265625 L 9.222656 47.863281 "/>
<path style="fill:none;stroke-width:0.3985;stroke-linecap:butt;stroke-linejoin:miter;stroke:rgb(0%,0%,0%);stroke-opacity:1;stroke-miterlimit:10;" d="M -28.346375 -0.00128125 L -28.346375 20.596375 C -28.346375 31.932313 -17.791688 18.065125 -7.006531 21.569031 " transform="matrix(1,0,0,-1,43.237,47.862)"/>
<path style="fill:none;stroke-width:0.3985;stroke-linecap:butt;stroke-linejoin:miter;stroke:rgb(0%,0%,0%);stroke-opacity:1;stroke-miterlimit:10;" d="M -34.014344 -0.00128125 L -34.014344 20.596375 C -34.014344 34.201844 -22.240906 22.58075 -8.760438 26.959656 " transform="matrix(1,0,0,-1,43.237,47.862)"/>
<path style=" stroke:none;fill-rule:nonzero;fill:rgb(100%,100%,100%);fill-opacity:1;" d="M 34.476562 74.820312 L 14.890625 68.457031 C 4.105469 64.953125 20.558594 59.199219 20.558594 47.863281 L 14.890625 47.863281 C 14.890625 62.035156 0.199219 69.644531 13.140625 73.847656 L 32.726562 80.214844 "/>
<path style="fill:none;stroke-width:0.3985;stroke-linecap:butt;stroke-linejoin:miter;stroke:rgb(0%,0%,0%);stroke-opacity:1;stroke-miterlimit:10;" d="M -8.760438 -26.958312 L -28.346375 -20.595031 C -39.131531 -17.091125 -22.678406 -11.337219 -22.678406 -0.00128125 " transform="matrix(1,0,0,-1,43.237,47.862)"/>
<path style="fill:none;stroke-width:0.3985;stroke-linecap:butt;stroke-linejoin:miter;stroke:rgb(0%,0%,0%);stroke-opacity:1;stroke-miterlimit:10;" d="M -10.510438 -32.352844 L -30.096375 -25.985656 C -43.037781 -21.782531 -28.346375 -14.173156 -28.346375 -0.00128125 " transform="matrix(1,0,0,-1,43.237,47.862)"/>
<path style=" stroke:none;fill-rule:nonzero;fill:rgb(100%,100%,100%);fill-opacity:1;" d="M 66.171875 64.523438 L 54.0625 81.183594 C 47.398438 90.359375 47.011719 72.933594 36.230469 69.429688 L 34.476562 74.820312 C 47.957031 79.203125 50.652344 95.523438 58.652344 84.515625 L 70.757812 67.855469 "/>
<path style="fill:none;stroke-width:0.3985;stroke-linecap:butt;stroke-linejoin:miter;stroke:rgb(0%,0%,0%);stroke-opacity:1;stroke-miterlimit:10;" d="M 22.934875 -16.661437 L 10.8255 -33.321594 C 4.161437 -42.497375 3.774719 -25.071594 -7.006531 -21.567687 " transform="matrix(1,0,0,-1,43.237,47.862)"/>
<path style="fill:none;stroke-width:0.3985;stroke-linecap:butt;stroke-linejoin:miter;stroke:rgb(0%,0%,0%);stroke-opacity:1;stroke-miterlimit:10;" d="M 27.520812 -19.993469 L 15.415344 -36.653625 C 7.415344 -47.661437 4.720031 -31.341125 -8.760438 -26.958312 " transform="matrix(1,0,0,-1,43.237,47.862)"/>
</g>
</svg>
