<?xml version="1.0" encoding="UTF-8"?>
<svg xmlns="http://www.w3.org/2000/svg" xmlns:xlink="http://www.w3.org/1999/xlink" width="131.626pt" height="138.29pt" viewBox="0 0 131.626 138.29" version="1.1">
<g id="surface86">
<path style=" stroke:none;fill-rule:nonzero;fill:rgb(100%,100%,100%);fill-opacity:1;" d="M 85.582031 52.484375 L 73.476562 35.820312 C 56.8125 12.890625 5.953125 40.796875 5.953125 69.144531 L 0.285156 69.144531 C 0.285156 37.964844 58.066406 4.96875 78.0625 32.488281 L 90.167969 49.152344 "/>
<path style="fill:none;stroke-width:0.3985;stroke-linecap:butt;stroke-linejoin:miter;stroke:rgb(0%,0%,0%);stroke-opacity:1;stroke-miterlimit:10;" d="M 22.934031 16.660625 L 10.828562 33.324687 C -5.8355 56.254375 -56.694875 28.348125 -56.694875 0.00046875 " transform="matrix(1,0,0,-1,62.648,69.145)"/>
<path style="fill:none;stroke-width:0.3985;stroke-linecap:butt;stroke-linejoin:miter;stroke:rgb(0%,0%,0%);stroke-opacity:1;stroke-miterlimit:10;" d="M -62.362844 0.00046875 C -62.362844 31.180156 -4.581594 64.17625 15.4145 36.656719 L 27.519969 19.992656 " transform="matrix(1,0,0,-1,62.648,69.145)"/>
<path style=" stroke:none;fill-rule:nonzero;fill:rgb(100%,100%,100%);fill-opacity:1;" d="M 53.886719 42.183594 L 34.300781 48.550781 C 7.34375 57.308594 18.167969 114.304688 45.128906 123.0625 L 43.375 128.457031 C 13.722656 118.820312 0.199219 53.671875 32.550781 43.160156 L 52.136719 36.792969 "/>
<path style="fill:none;stroke-width:0.3985;stroke-linecap:butt;stroke-linejoin:miter;stroke:rgb(0%,0%,0%);stroke-opacity:1;stroke-miterlimit:10;" d="M -8.761281 26.961406 L -28.347219 20.594219 C -55.30425 11.836406 -44.480031 -45.159688 -17.519094 -53.9175 " transform="matrix(1,0,0,-1,62.648,69.145)"/>
<path style="fill:none;stroke-width:0.3985;stroke-linecap:butt;stroke-linejoin:miter;stroke:rgb(0%,0%,0%);stroke-opacity:1;stroke-miterlimit:10;" d="M -19.273 -59.312031 C -48.925344 -49.675313 -62.448781 15.473125 -30.097219 25.984844 L -10.511281 32.352031 " transform="matrix(1,0,0,-1,62.648,69.145)"/>
<path style=" stroke:none;fill-rule:nonzero;fill:rgb(100%,100%,100%);fill-opacity:1;" d="M 34.300781 69.144531 L 34.300781 89.738281 C 34.300781 118.085938 91.851562 125.402344 108.515625 102.46875 L 113.101562 105.800781 C 94.773438 131.027344 28.632812 123.757812 28.632812 89.738281 L 28.632812 69.144531 "/>
<path style="fill:none;stroke-width:0.3985;stroke-linecap:butt;stroke-linejoin:miter;stroke:rgb(0%,0%,0%);stroke-opacity:1;stroke-miterlimit:10;" d="M -28.347219 0.00046875 L -28.347219 -20.593281 C -28.347219 -48.940938 29.203562 -56.257344 45.867625 -33.32375 " transform="matrix(1,0,0,-1,62.648,69.145)"/>
<path style="fill:none;stroke-width:0.3985;stroke-linecap:butt;stroke-linejoin:miter;stroke:rgb(0%,0%,0%);stroke-opacity:1;stroke-miterlimit:10;" d="M 50.453562 -36.655781 C 32.125437 -61.882344 -34.015188 -54.612813 -34.015188 -20.593281 L -34.015188 0.00046875 " transform="matrix(1,0,0,-1,62.648,69.145)"/>
<path style=" stroke:none;fill-rule:nonzero;fill:rgb(100%,100%,100%);fill-opacity:1;" d="M 53.886719 96.105469 L 73.476562 102.46875 C 100.433594 111.226562 125.175781 58.753906 108.515625 35.820312 L 113.101562 32.488281 C 131.429688 57.714844 104.074219 118.371094 71.722656 107.859375 L 52.136719 101.496094 "/>
<path style="fill:none;stroke-width:0.3985;stroke-linecap:butt;stroke-linejoin:miter;stroke:rgb(0%,0%,0%);stroke-opacity:1;stroke-miterlimit:10;" d="M -8.761281 -26.960469 L 10.828562 -33.32375 C 37.785594 -42.081563 62.527781 10.391094 45.867625 33.324687 " transform="matrix(1,0,0,-1,62.648,69.145)"/>
<path style="fill:none;stroke-width:0.3985;stroke-linecap:butt;stroke-linejoin:miter;stroke:rgb(0%,0%,0%);stroke-opacity:1;stroke-miterlimit:10;" d="M 50.453562 36.656719 C 68.781688 11.430156 41.426219 -49.226094 9.074656 -38.714375 L -10.511281 -32.351094 " transform="matrix(1,0,0,-1,62.648,69.145)"/>
<path style=" stroke:none;fill-rule:nonzero;fill:rgb(100%,100%,100%);fill-opacity:1;" d="M 85.582031 85.808594 L 97.6875 69.144531 C 114.347656 46.210938 72.089844 6.464844 45.128906 15.226562 L 43.375 9.835938 C 73.03125 0.199219 122.265625 44.957031 102.273438 72.476562 L 90.167969 89.140625 "/>
<path style="fill:none;stroke-width:0.3985;stroke-linecap:butt;stroke-linejoin:miter;stroke:rgb(0%,0%,0%);stroke-opacity:1;stroke-miterlimit:10;" d="M 22.934031 -16.663594 L 35.0395 0.00046875 C 51.699656 22.934062 9.441844 62.680156 -17.519094 53.918437 " transform="matrix(1,0,0,-1,62.648,69.145)"/>
<path style="fill:none;stroke-width:0.3985;stroke-linecap:butt;stroke-linejoin:miter;stroke:rgb(0%,0%,0%);stroke-opacity:1;stroke-miterlimit:10;" d="M -19.273 59.309062 C 10.38325 68.945781 59.617625 24.187969 39.625437 -3.331563 L 27.519969 -19.995625 " transform="matrix(1,0,0,-1,62.648,69.145)"/>
<path style=" stroke:none;fill-rule:nonzero;fill:rgb(100%,100%,100%);fill-opacity:1;" d="M 85.582031 52.484375 L 97.6875 69.144531 C 114.347656 92.078125 72.089844 131.824219 45.128906 123.0625 L 43.375 128.457031 C 73.03125 138.089844 122.265625 93.332031 102.273438 65.8125 L 90.167969 49.152344 "/>
<path style="fill:none;stroke-width:0.3985;stroke-linecap:butt;stroke-linejoin:miter;stroke:rgb(0%,0%,0%);stroke-opacity:1;stroke-miterlimit:10;" d="M 22.934031 16.660625 L 35.0395 0.00046875 C 51.699656 -22.933125 9.441844 -62.679219 -17.519094 -53.9175 " transform="matrix(1,0,0,-1,62.648,69.145)"/>
<path style="fill:none;stroke-width:0.3985;stroke-linecap:butt;stroke-linejoin:miter;stroke:rgb(0%,0%,0%);stroke-opacity:1;stroke-miterlimit:10;" d="M 27.519969 19.992656 L 39.625437 3.3325 C 59.617625 -24.187031 10.38325 -68.944844 -19.273 -59.312031 " transform="matrix(1,0,0,-1,62.648,69.145)"/>
<path style=" stroke:none;fill-rule:nonzero;fill:rgb(100%,100%,100%);fill-opacity:1;" d="M 53.886719 42.183594 L 73.476562 35.820312 C 100.433594 27.0625 125.175781 79.535156 108.515625 102.46875 L 113.101562 105.800781 C 131.429688 80.574219 104.074219 19.917969 71.722656 30.429688 L 52.136719 36.792969 "/>
<path style="fill:none;stroke-width:0.3985;stroke-linecap:butt;stroke-linejoin:miter;stroke:rgb(0%,0%,0%);stroke-opacity:1;stroke-miterlimit:10;" d="M -8.761281 26.961406 L 10.828562 33.324687 C 37.785594 42.0825 62.527781 -10.390156 45.867625 -33.32375 " transform="matrix(1,0,0,-1,62.648,69.145)"/>
<path style="fill:none;stroke-width:0.3985;stroke-linecap:butt;stroke-linejoin:miter;stroke:rgb(0%,0%,0%);stroke-opacity:1;stroke-miterlimit:10;" d="M -10.511281 32.352031 L 9.074656 38.715312 C 41.426219 49.227031 68.781688 -11.429219 50.453562 -36.655781 " transform="matrix(1,0,0,-1,62.648,69.145)"/>
<path style=" stroke:none;fill-rule:nonzero;fill:rgb(100%,100%,100%);fill-opacity:1;" d="M 34.300781 69.144531 L 34.300781 48.550781 C 34.300781 20.203125 91.851562 12.886719 108.515625 35.820312 L 113.101562 32.488281 C 94.773438 7.261719 28.632812 14.535156 28.632812 48.550781 L 28.632812 69.144531 "/>
<path style="fill:none;stroke-width:0.3985;stroke-linecap:butt;stroke-linejoin:miter;stroke:rgb(0%,0%,0%);stroke-opacity:1;stroke-miterlimit:10;" d="M -28.347219 0.00046875 L -28.347219 20.594219 C -28.347219 48.941875 29.203562 56.258281 45.867625 33.324687 " transform="matrix(1,0,0,-1,62.648,69.145)"/>
<path style="fill:none;stroke-width:0.3985;stroke-linecap:butt;stroke-linejoin:miter;stroke:rgb(0%,0%,0%);stroke-opacity:1;stroke-miterlimit:10;" d="M -34.015188 0.00046875 L -34.015188 20.594219 C -34.015188 54.609844 32.125437 61.883281 50.453562 36.656719 " transform="matrix(1,0,0,-1,62.648,69.145)"/>
<path style=" stroke:none;fill-rule:nonzero;fill:rgb(100%,100%,100%);fill-opacity:1;" d="M 53.886719 96.105469 L 34.300781 89.738281 C 7.34375 80.980469 18.167969 23.984375 45.128906 15.226562 L 43.375 9.835938 C 13.722656 19.46875 0.199219 84.621094 32.550781 95.132812 L 52.136719 101.496094 "/>
<path style="fill:none;stroke-width:0.3985;stroke-linecap:butt;stroke-linejoin:miter;stroke:rgb(0%,0%,0%);stroke-opacity:1;stroke-miterlimit:10;" d="M -8.761281 -26.960469 L -28.347219 -20.593281 C -55.30425 -11.835469 -44.480031 45.160625 -17.519094 53.918437 " transform="matrix(1,0,0,-1,62.648,69.145)"/>
<path style="fill:none;stroke-width:0.3985;stroke-linecap:butt;stroke-linejoin:miter;stroke:rgb(0%,0%,0%);stroke-opacity:1;stroke-miterlimit:10;" d="M -10.511281 -32.351094 L -30.097219 -25.987813 C -62.448781 -15.476094 -48.925344 49.67625 -19.273 59.309062 " transform="matrix(1,0,0,-1,62.648,69.145)"/>
<path style=" stroke:none;fill-rule:nonzero;fill:rgb(100%,100%,100%);fill-opacity:1;" d="M 85.582031 85.808594 L 73.476562 102.46875 C 56.8125 125.402344 5.953125 97.492188 5.953125 69.144531 L 0.285156 69.144531 C 0.285156 100.328125 58.066406 133.320312 78.0625 105.800781 L 90.167969 89.140625 "/>
<path style="fill:none;stroke-width:0.3985;stroke-linecap:butt;stroke-linejoin:miter;stroke:rgb(0%,0%,0%);stroke-opacity:1;stroke-miterlimit:10;" d="M 22.934031 -16.663594 L 10.828562 -33.32375 C -5.8355 -56.257344 -56.694875 -28.347188 -56.694875 0.00046875 " transform="matrix(1,0,0,-1,62.648,69.145)"/>
<path style="fill:none;stroke-width:0.3985;stroke-linecap:butt;stroke-linejoin:miter;stroke:rgb(0%,0%,0%);stroke-opacity:1;stroke-miterlimit:10;" d="M 27.519969 -19.995625 L 15.4145 -36.655781 C -4.581594 -64.175313 -62.362844 -31.183125 -62.362844 0.00046875 " transform="matrix(1,0,0,-1,62.648,69.145)"/>
</g>
</svg>
