<?xml version="1.0" encoding="UTF-8"?>
<svg xmlns="http://www.w3.org/2000/svg" xmlns:xlink="http://www.w3.org/1999/xlink" width="150.054pt" height="157.094pt" viewBox="0 0 150.054 157.094" version="1.1">
<defs>
<clipPath id="clip1">
  <path d="M 30 72 L 150.054688 72 L 150.054688 127 L 30 127 Z M 30 72 "/>
</clipPath>
<clipPath id="clip2">
  <path d="M 30 30 L 150.054688 30 L 150.054688 85 L 30 85 Z M 30 30 "/>
</clipPath>
</defs>
<g id="surface101">
<path style=" stroke:none;fill-rule:nonzero;fill:rgb(100%,100%,100%);fill-opacity:1;" d="M 101.292969 61.886719 L 89.183594 45.222656 C 72.523438 22.289062 15.828125 88.9375 32.492188 111.871094 L 21.023438 120.203125 C 0.199219 91.535156 75.660156 2.492188 100.652344 36.894531 L 112.757812 53.554688 "/>
<path style="fill:none;stroke-width:0.3985;stroke-linecap:butt;stroke-linejoin:miter;stroke:rgb(0%,0%,0%);stroke-opacity:1;stroke-miterlimit:10;" d="M 22.934969 16.660281 L 10.825594 33.324344 C -5.834562 56.257937 -62.529875 -10.3905 -45.865812 -33.324094 " transform="matrix(1,0,0,-1,78.358,78.547)"/>
<path style="fill:none;stroke-width:0.3985;stroke-linecap:butt;stroke-linejoin:miter;stroke:rgb(0%,0%,0%);stroke-opacity:1;stroke-miterlimit:10;" d="M -57.334562 -41.656125 C -78.158781 -12.988156 -2.697844 76.054812 22.294344 41.652469 L 34.399813 24.992312 " transform="matrix(1,0,0,-1,78.358,78.547)"/>
<path style=" stroke:none;fill-rule:nonzero;fill:rgb(100%,100%,100%);fill-opacity:1;" d="M 69.597656 51.585938 L 50.011719 57.953125 C 23.050781 66.710938 68.917969 141.226562 95.878906 132.464844 L 100.257812 145.945312 C 66.558594 156.894531 5.191406 57.613281 45.632812 44.472656 L 65.21875 38.109375 "/>
<path style="fill:none;stroke-width:0.3985;stroke-linecap:butt;stroke-linejoin:miter;stroke:rgb(0%,0%,0%);stroke-opacity:1;stroke-miterlimit:10;" d="M -8.760344 26.961062 L -28.346281 20.593875 C -55.307219 11.836062 -9.440031 -62.679563 17.520906 -53.917844 " transform="matrix(1,0,0,-1,78.358,78.547)"/>
<path style="fill:none;stroke-width:0.3985;stroke-linecap:butt;stroke-linejoin:miter;stroke:rgb(0%,0%,0%);stroke-opacity:1;stroke-miterlimit:10;" d="M 21.899813 -67.398313 C -11.799406 -78.347531 -73.166594 20.933719 -32.725187 34.074344 L -13.13925 40.437625 " transform="matrix(1,0,0,-1,78.358,78.547)"/>
<path style=" stroke:none;fill-rule:nonzero;fill:rgb(100%,100%,100%);fill-opacity:1;" d="M 50.011719 78.546875 L 50.011719 99.140625 C 50.011719 127.488281 135.050781 106.894531 135.050781 78.546875 L 149.226562 78.546875 C 149.226562 113.980469 35.839844 141.660156 35.839844 99.140625 L 35.835938 78.546875 "/>
<path style="fill:none;stroke-width:0.3985;stroke-linecap:butt;stroke-linejoin:miter;stroke:rgb(0%,0%,0%);stroke-opacity:1;stroke-miterlimit:10;" d="M -28.346281 0.000125 L -28.346281 -20.593625 C -28.346281 -48.941281 56.692781 -28.347531 56.692781 0.000125 " transform="matrix(1,0,0,-1,78.358,78.547)"/>
<g clip-path="url(#clip1)" clip-rule="nonzero">
<path style="fill:none;stroke-width:0.3985;stroke-linecap:butt;stroke-linejoin:miter;stroke:rgb(0%,0%,0%);stroke-opacity:1;stroke-miterlimit:10;" d="M 70.868563 0.000125 C 70.868563 -35.433469 -42.518156 -63.113156 -42.518156 -20.593625 L -42.522062 0.000125 " transform="matrix(1,0,0,-1,78.358,78.547)"/>
</g>
<path style=" stroke:none;fill-rule:nonzero;fill:rgb(100%,100%,100%);fill-opacity:1;" d="M 69.597656 105.507812 L 89.183594 111.871094 C 116.144531 120.628906 122.835938 33.386719 95.878906 24.628906 L 100.257812 11.148438 C 133.957031 22.097656 125.246094 138.488281 84.804688 125.351562 L 65.21875 118.984375 "/>
<path style="fill:none;stroke-width:0.3985;stroke-linecap:butt;stroke-linejoin:miter;stroke:rgb(0%,0%,0%);stroke-opacity:1;stroke-miterlimit:10;" d="M -8.760344 -26.960813 L 10.825594 -33.324094 C 37.786531 -42.081906 44.477938 45.160281 17.520906 53.918094 " transform="matrix(1,0,0,-1,78.358,78.547)"/>
<path style="fill:none;stroke-width:0.3985;stroke-linecap:butt;stroke-linejoin:miter;stroke:rgb(0%,0%,0%);stroke-opacity:1;stroke-miterlimit:10;" d="M 21.899813 67.398562 C 55.599031 56.449344 46.888094 -59.941281 6.446688 -46.804563 L -13.13925 -40.437375 " transform="matrix(1,0,0,-1,78.358,78.547)"/>
<path style=" stroke:none;fill-rule:nonzero;fill:rgb(100%,100%,100%);fill-opacity:1;" d="M 101.292969 95.207031 L 113.394531 78.546875 C 130.058594 55.613281 49.152344 22.289062 32.492188 45.222656 L 21.023438 36.894531 C 41.851562 8.226562 149.855469 52.476562 124.863281 86.878906 L 112.757812 103.539062 "/>
<path style="fill:none;stroke-width:0.3985;stroke-linecap:butt;stroke-linejoin:miter;stroke:rgb(0%,0%,0%);stroke-opacity:1;stroke-miterlimit:10;" d="M 22.934969 -16.660031 L 35.036531 0.000125 C 51.700594 22.933719 -29.205656 56.257937 -45.865812 33.324344 " transform="matrix(1,0,0,-1,78.358,78.547)"/>
<path style="fill:none;stroke-width:0.3985;stroke-linecap:butt;stroke-linejoin:miter;stroke:rgb(0%,0%,0%);stroke-opacity:1;stroke-miterlimit:10;" d="M -57.334562 41.652469 C -36.506437 70.320437 71.497469 26.070437 46.505281 -8.331906 L 34.399813 -24.992063 " transform="matrix(1,0,0,-1,78.358,78.547)"/>
<path style=" stroke:none;fill-rule:nonzero;fill:rgb(100%,100%,100%);fill-opacity:1;" d="M 101.292969 61.886719 L 113.394531 78.546875 C 130.058594 101.480469 49.152344 134.804688 32.492188 111.871094 L 21.023438 120.203125 C 41.851562 148.867188 149.855469 104.617188 124.863281 70.214844 L 112.757812 53.554688 "/>
<path style="fill:none;stroke-width:0.3985;stroke-linecap:butt;stroke-linejoin:miter;stroke:rgb(0%,0%,0%);stroke-opacity:1;stroke-miterlimit:10;" d="M 22.934969 16.660281 L 35.036531 0.000125 C 51.700594 -22.933469 -29.205656 -56.257688 -45.865812 -33.324094 " transform="matrix(1,0,0,-1,78.358,78.547)"/>
<path style="fill:none;stroke-width:0.3985;stroke-linecap:butt;stroke-linejoin:miter;stroke:rgb(0%,0%,0%);stroke-opacity:1;stroke-miterlimit:10;" d="M 34.399813 24.992312 L 46.505281 8.332156 C 71.497469 -26.070188 -36.506437 -70.320188 -57.334562 -41.656125 " transform="matrix(1,0,0,-1,78.358,78.547)"/>
<path style=" stroke:none;fill-rule:nonzero;fill:rgb(100%,100%,100%);fill-opacity:1;" d="M 69.597656 51.585938 L 89.183594 45.222656 C 116.144531 36.464844 122.835938 123.707031 95.878906 132.464844 L 100.257812 145.945312 C 133.957031 134.996094 125.246094 18.605469 84.804688 31.746094 L 65.21875 38.109375 "/>
<path style="fill:none;stroke-width:0.3985;stroke-linecap:butt;stroke-linejoin:miter;stroke:rgb(0%,0%,0%);stroke-opacity:1;stroke-miterlimit:10;" d="M -8.760344 26.961062 L 10.825594 33.324344 C 37.786531 42.082156 44.477938 -45.160031 17.520906 -53.917844 " transform="matrix(1,0,0,-1,78.358,78.547)"/>
<path style="fill:none;stroke-width:0.3985;stroke-linecap:butt;stroke-linejoin:miter;stroke:rgb(0%,0%,0%);stroke-opacity:1;stroke-miterlimit:10;" d="M -13.13925 40.437625 L 6.446688 46.800906 C 46.888094 59.941531 55.599031 -56.449094 21.899813 -67.398313 " transform="matrix(1,0,0,-1,78.358,78.547)"/>
<path style=" stroke:none;fill-rule:nonzero;fill:rgb(100%,100%,100%);fill-opacity:1;" d="M 50.011719 78.546875 L 50.011719 57.953125 C 50.011719 29.605469 135.050781 50.199219 135.050781 78.546875 L 149.226562 78.546875 C 149.226562 43.113281 35.839844 15.433594 35.839844 57.953125 L 35.835938 78.546875 "/>
<path style="fill:none;stroke-width:0.3985;stroke-linecap:butt;stroke-linejoin:miter;stroke:rgb(0%,0%,0%);stroke-opacity:1;stroke-miterlimit:10;" d="M -28.346281 0.000125 L -28.346281 20.593875 C -28.346281 48.941531 56.692781 28.347781 56.692781 0.000125 " transform="matrix(1,0,0,-1,78.358,78.547)"/>
<g clip-path="url(#clip2)" clip-rule="nonzero">
<path style="fill:none;stroke-width:0.3985;stroke-linecap:butt;stroke-linejoin:miter;stroke:rgb(0%,0%,0%);stroke-opacity:1;stroke-miterlimit:10;" d="M -42.522062 0.000125 L -42.518156 20.593875 C -42.518156 63.113406 70.868563 35.433719 70.868563 0.000125 " transform="matrix(1,0,0,-1,78.358,78.547)"/>
</g>
<path style=" stroke:none;fill-rule:nonzero;fill:rgb(100%,100%,100%);fill-opacity:1;" d="M 69.597656 105.507812 L 50.011719 99.140625 C 23.050781 90.382812 68.917969 15.867188 95.878906 24.628906 L 100.257812 11.148438 C 66.558594 0.199219 5.191406 99.480469 45.632812 112.621094 L 65.21875 118.984375 "/>
<path style="fill:none;stroke-width:0.3985;stroke-linecap:butt;stroke-linejoin:miter;stroke:rgb(0%,0%,0%);stroke-opacity:1;stroke-miterlimit:10;" d="M -8.760344 -26.960813 L -28.346281 -20.593625 C -55.307219 -11.835813 -9.440031 62.679812 17.520906 53.918094 " transform="matrix(1,0,0,-1,78.358,78.547)"/>
<path style="fill:none;stroke-width:0.3985;stroke-linecap:butt;stroke-linejoin:miter;stroke:rgb(0%,0%,0%);stroke-opacity:1;stroke-miterlimit:10;" d="M -13.13925 -40.437375 L -32.725187 -34.074094 C -73.166594 -20.933469 -11.799406 78.347781 21.899813 67.398562 " transform="matrix(1,0,0,-1,78.358,78.547)"/>
<path style=" stroke:none;fill-rule:nonzero;fill:rgb(100%,100%,100%);fill-opacity:1;" d="M 101.292969 95.207031 L 89.183594 111.871094 C 72.523438 134.804688 15.828125 68.15625 32.492188 45.222656 L 21.023438 36.894531 C 0.199219 65.558594 75.660156 154.601562 100.652344 120.199219 L 112.757812 103.539062 "/>
<path style="fill:none;stroke-width:0.3985;stroke-linecap:butt;stroke-linejoin:miter;stroke:rgb(0%,0%,0%);stroke-opacity:1;stroke-miterlimit:10;" d="M 22.934969 -16.660031 L 10.825594 -33.324094 C -5.834562 -56.257688 -62.529875 10.39075 -45.865812 33.324344 " transform="matrix(1,0,0,-1,78.358,78.547)"/>
<path style="fill:none;stroke-width:0.3985;stroke-linecap:butt;stroke-linejoin:miter;stroke:rgb(0%,0%,0%);stroke-opacity:1;stroke-miterlimit:10;" d="M 34.399813 -24.992063 L 22.294344 -41.652219 C -2.697844 -76.054563 -78.158781 12.988406 -57.334562 41.652469 " transform="matrix(1,0,0,-1,78.358,78.547)"/>
</g>
</svg>
