<?xml version="1.0" encoding="UTF-8"?>
<svg xmlns="http://www.w3.org/2000/svg" xmlns:xlink="http://www.w3.org/1999/xlink" width="151.722pt" height="157.094pt" viewBox="0 0 151.722 157.094" version="1.1">
<g id="surface106">
<path style=" stroke:none;fill-rule:nonzero;fill:rgb(100%,100%,100%);fill-opacity:1;" d="M 96.296875 61.886719 L 84.191406 45.222656 C 67.53125 22.289062 28.886719 123.707031 55.84375 132.464844 L 51.464844 145.945312 C 17.765625 134.996094 70.664062 2.492188 95.65625 36.894531 L 107.765625 53.554688 "/>
<path style="fill:none;stroke-width:0.3985;stroke-linecap:butt;stroke-linejoin:miter;stroke:rgb(0%,0%,0%);stroke-opacity:1;stroke-miterlimit:10;" d="M 22.932875 16.660281 L 10.827406 33.324344 C -5.83275 56.257937 -44.477281 -45.160031 -17.52025 -53.917844 " transform="matrix(1,0,0,-1,73.364,78.547)"/>
<path style="fill:none;stroke-width:0.3985;stroke-linecap:butt;stroke-linejoin:miter;stroke:rgb(0%,0%,0%);stroke-opacity:1;stroke-miterlimit:10;" d="M -21.899156 -67.398313 C -55.598375 -56.449094 -2.699938 76.054812 22.29225 41.652469 L 34.401625 24.992312 " transform="matrix(1,0,0,-1,73.364,78.547)"/>
<path style=" stroke:none;fill-rule:nonzero;fill:rgb(100%,100%,100%);fill-opacity:1;" d="M 64.605469 51.585938 L 45.019531 57.953125 C 18.058594 66.710938 102.570312 134.804688 119.230469 111.871094 L 130.695312 120.203125 C 109.871094 148.867188 0.199219 57.613281 40.636719 44.472656 L 60.222656 38.109375 "/>
<path style="fill:none;stroke-width:0.3985;stroke-linecap:butt;stroke-linejoin:miter;stroke:rgb(0%,0%,0%);stroke-opacity:1;stroke-miterlimit:10;" d="M -8.758531 26.961062 L -28.344469 20.593875 C -55.305406 11.836062 29.206312 -56.257688 45.866469 -33.324094 " transform="matrix(1,0,0,-1,73.364,78.547)"/>
<path style="fill:none;stroke-width:0.3985;stroke-linecap:butt;stroke-linejoin:miter;stroke:rgb(0%,0%,0%);stroke-opacity:1;stroke-miterlimit:10;" d="M 57.331312 -41.656125 C 36.507094 -70.320188 -73.164781 20.933719 -32.727281 34.074344 L -13.141344 40.437625 " transform="matrix(1,0,0,-1,73.364,78.547)"/>
<path style=" stroke:none;fill-rule:nonzero;fill:rgb(100%,100%,100%);fill-opacity:1;" d="M 45.015625 78.546875 L 45.019531 99.140625 C 45.019531 127.488281 135.890625 68.15625 119.230469 45.222656 L 130.695312 36.894531 C 151.523438 65.558594 30.84375 141.660156 30.84375 99.140625 L 30.84375 78.546875 "/>
<path style="fill:none;stroke-width:0.3985;stroke-linecap:butt;stroke-linejoin:miter;stroke:rgb(0%,0%,0%);stroke-opacity:1;stroke-miterlimit:10;" d="M -28.348375 0.000125 L -28.344469 -20.593625 C -28.344469 -48.941281 62.526625 10.39075 45.866469 33.324344 " transform="matrix(1,0,0,-1,73.364,78.547)"/>
<path style="fill:none;stroke-width:0.3985;stroke-linecap:butt;stroke-linejoin:miter;stroke:rgb(0%,0%,0%);stroke-opacity:1;stroke-miterlimit:10;" d="M 57.331312 41.652469 C 78.159437 12.988406 -42.52025 -63.113156 -42.52025 -20.593625 L -42.52025 0.000125 " transform="matrix(1,0,0,-1,73.364,78.547)"/>
<path style=" stroke:none;fill-rule:nonzero;fill:rgb(100%,100%,100%);fill-opacity:1;" d="M 64.605469 105.507812 L 84.191406 111.871094 C 111.152344 120.628906 82.804688 15.867188 55.84375 24.628906 L 51.464844 11.148438 C 85.164062 0.199219 120.25 138.488281 79.8125 125.351562 L 60.222656 118.984375 "/>
<path style="fill:none;stroke-width:0.3985;stroke-linecap:butt;stroke-linejoin:miter;stroke:rgb(0%,0%,0%);stroke-opacity:1;stroke-miterlimit:10;" d="M -8.758531 -26.960813 L 10.827406 -33.324094 C 37.788344 -42.081906 9.440687 62.679812 -17.52025 53.918094 " transform="matrix(1,0,0,-1,73.364,78.547)"/>
<path style="fill:none;stroke-width:0.3985;stroke-linecap:butt;stroke-linejoin:miter;stroke:rgb(0%,0%,0%);stroke-opacity:1;stroke-miterlimit:10;" d="M -21.899156 67.398562 C 11.800062 78.347781 46.886 -59.941281 6.4485 -46.804563 L -13.141344 -40.437375 " transform="matrix(1,0,0,-1,73.364,78.547)"/>
<path style=" stroke:none;fill-rule:nonzero;fill:rgb(100%,100%,100%);fill-opacity:1;" d="M 96.296875 95.207031 L 108.402344 78.546875 C 125.0625 55.613281 16.671875 50.199219 16.671875 78.546875 L 2.496094 78.546875 C 2.496094 43.113281 144.859375 52.476562 119.867188 86.878906 L 107.765625 103.539062 "/>
<path style="fill:none;stroke-width:0.3985;stroke-linecap:butt;stroke-linejoin:miter;stroke:rgb(0%,0%,0%);stroke-opacity:1;stroke-miterlimit:10;" d="M 22.932875 -16.660031 L 35.038344 0.000125 C 51.6985 22.933719 -56.692125 28.347781 -56.692125 0.000125 " transform="matrix(1,0,0,-1,73.364,78.547)"/>
<path style="fill:none;stroke-width:0.3985;stroke-linecap:butt;stroke-linejoin:miter;stroke:rgb(0%,0%,0%);stroke-opacity:1;stroke-miterlimit:10;" d="M -70.867906 0.000125 C -70.867906 35.433719 71.495375 26.070437 46.503187 -8.331906 L 34.401625 -24.992063 " transform="matrix(1,0,0,-1,73.364,78.547)"/>
<path style=" stroke:none;fill-rule:nonzero;fill:rgb(100%,100%,100%);fill-opacity:1;" d="M 96.296875 61.886719 L 108.402344 78.546875 C 125.0625 101.480469 16.671875 106.894531 16.671875 78.546875 L 2.496094 78.546875 C 2.496094 113.980469 144.859375 104.617188 119.867188 70.214844 L 107.765625 53.554688 "/>
<path style="fill:none;stroke-width:0.3985;stroke-linecap:butt;stroke-linejoin:miter;stroke:rgb(0%,0%,0%);stroke-opacity:1;stroke-miterlimit:10;" d="M 22.932875 16.660281 L 35.038344 0.000125 C 51.6985 -22.933469 -56.692125 -28.347531 -56.692125 0.000125 " transform="matrix(1,0,0,-1,73.364,78.547)"/>
<path style="fill:none;stroke-width:0.3985;stroke-linecap:butt;stroke-linejoin:miter;stroke:rgb(0%,0%,0%);stroke-opacity:1;stroke-miterlimit:10;" d="M 34.401625 24.992312 L 46.503187 8.332156 C 71.495375 -26.070188 -70.867906 -35.433469 -70.867906 0.000125 " transform="matrix(1,0,0,-1,73.364,78.547)"/>
<path style=" stroke:none;fill-rule:nonzero;fill:rgb(100%,100%,100%);fill-opacity:1;" d="M 64.605469 51.585938 L 84.191406 45.222656 C 111.152344 36.464844 82.804688 141.226562 55.84375 132.464844 L 51.464844 145.945312 C 85.164062 156.894531 120.25 18.605469 79.8125 31.746094 L 60.222656 38.109375 "/>
<path style="fill:none;stroke-width:0.3985;stroke-linecap:butt;stroke-linejoin:miter;stroke:rgb(0%,0%,0%);stroke-opacity:1;stroke-miterlimit:10;" d="M -8.758531 26.961062 L 10.827406 33.324344 C 37.788344 42.082156 9.440687 -62.679563 -17.52025 -53.917844 " transform="matrix(1,0,0,-1,73.364,78.547)"/>
<path style="fill:none;stroke-width:0.3985;stroke-linecap:butt;stroke-linejoin:miter;stroke:rgb(0%,0%,0%);stroke-opacity:1;stroke-miterlimit:10;" d="M -13.141344 40.437625 L 6.4485 46.800906 C 46.886 59.941531 11.800062 -78.347531 -21.899156 -67.398313 " transform="matrix(1,0,0,-1,73.364,78.547)"/>
<path style=" stroke:none;fill-rule:nonzero;fill:rgb(100%,100%,100%);fill-opacity:1;" d="M 45.015625 78.546875 L 45.019531 57.953125 C 45.019531 29.605469 135.890625 88.9375 119.230469 111.871094 L 130.695312 120.203125 C 151.523438 91.535156 30.84375 15.433594 30.84375 57.953125 L 30.84375 78.546875 "/>
<path style="fill:none;stroke-width:0.3985;stroke-linecap:butt;stroke-linejoin:miter;stroke:rgb(0%,0%,0%);stroke-opacity:1;stroke-miterlimit:10;" d="M -28.348375 0.000125 L -28.344469 20.593875 C -28.344469 48.941531 62.526625 -10.3905 45.866469 -33.324094 " transform="matrix(1,0,0,-1,73.364,78.547)"/>
<path style="fill:none;stroke-width:0.3985;stroke-linecap:butt;stroke-linejoin:miter;stroke:rgb(0%,0%,0%);stroke-opacity:1;stroke-miterlimit:10;" d="M -42.52025 0.000125 L -42.52025 20.593875 C -42.52025 63.113406 78.159437 -12.988156 57.331312 -41.656125 " transform="matrix(1,0,0,-1,73.364,78.547)"/>
<path style=" stroke:none;fill-rule:nonzero;fill:rgb(100%,100%,100%);fill-opacity:1;" d="M 64.605469 105.507812 L 45.019531 99.140625 C 18.058594 90.382812 102.570312 22.289062 119.230469 45.222656 L 130.695312 36.894531 C 109.871094 8.226562 0.199219 99.480469 40.636719 112.621094 L 60.222656 118.984375 "/>
<path style="fill:none;stroke-width:0.3985;stroke-linecap:butt;stroke-linejoin:miter;stroke:rgb(0%,0%,0%);stroke-opacity:1;stroke-miterlimit:10;" d="M -8.758531 -26.960813 L -28.344469 -20.593625 C -55.305406 -11.835813 29.206312 56.257937 45.866469 33.324344 " transform="matrix(1,0,0,-1,73.364,78.547)"/>
<path style="fill:none;stroke-width:0.3985;stroke-linecap:butt;stroke-linejoin:miter;stroke:rgb(0%,0%,0%);stroke-opacity:1;stroke-miterlimit:10;" d="M -13.141344 -40.437375 L -32.727281 -34.074094 C -73.164781 -20.933469 36.507094 70.320437 57.331312 41.652469 " transform="matrix(1,0,0,-1,73.364,78.547)"/>
<path style=" stroke:none;fill-rule:nonzero;fill:rgb(100%,100%,100%);fill-opacity:1;" d="M 96.296875 95.207031 L 84.191406 111.871094 C 67.53125 134.804688 28.886719 33.386719 55.84375 24.628906 L 51.464844 11.148438 C 17.765625 22.097656 70.664062 154.601562 95.65625 120.199219 L 107.765625 103.539062 "/>
<path style="fill:none;stroke-width:0.3985;stroke-linecap:butt;stroke-linejoin:miter;stroke:rgb(0%,0%,0%);stroke-opacity:1;stroke-miterlimit:10;" d="M 22.932875 -16.660031 L 10.827406 -33.324094 C -5.83275 -56.257688 -44.477281 45.160281 -17.52025 53.918094 " transform="matrix(1,0,0,-1,73.364,78.547)"/>
<path style="fill:none;stroke-width:0.3985;stroke-linecap:butt;stroke-linejoin:miter;stroke:rgb(0%,0%,0%);stroke-opacity:1;stroke-miterlimit:10;" d="M 34.401625 -24.992063 L 22.29225 -41.652219 C -2.699938 -76.054563 -55.598375 56.449344 -21.899156 67.398562 " transform="matrix(1,0,0,-1,73.364,78.547)"/>
</g>
</svg>
