<?xml version="1.0" encoding="UTF-8"?>
<svg xmlns="http://www.w3.org/2000/svg" xmlns:xlink="http://www.w3.org/1999/xlink" width="85.73pt" height="87.913pt" viewBox="0 0 85.73 87.913" version="1.1">
<defs>
<clipPath id="clip1">
  <path d="M 0 32 L 35 32 L 35 87.914062 L 0 87.914062 Z M 0 32 "/>
</clipPath>
<clipPath id="clip2">
  <path d="M 8 52 L 64 52 L 64 87.914062 L 8 87.914062 Z M 8 52 "/>
</clipPath>
<clipPath id="clip3">
  <path d="M 37 46 L 85.730469 46 L 85.730469 87.914062 L 37 87.914062 Z M 37 46 "/>
</clipPath>
<clipPath id="clip4">
  <path d="M 54 14 L 85.730469 14 L 85.730469 72 L 54 72 Z M 54 14 "/>
</clipPath>
<clipPath id="clip5">
  <path d="M 38 0 L 85.730469 0 L 85.730469 45 L 38 45 Z M 38 0 "/>
</clipPath>
<clipPath id="clip6">
  <path d="M 37 0 L 85.730469 0 L 85.730469 42 L 37 42 Z M 37 0 "/>
</clipPath>
<clipPath id="clip7">
  <path d="M 5 57 L 63 57 L 63 87.914062 L 5 87.914062 Z M 5 57 "/>
</clipPath>
<clipPath id="clip8">
  <path d="M 38 43 L 85.730469 43 L 85.730469 87.914062 L 38 87.914062 Z M 38 43 "/>
</clipPath>
<clipPath id="clip9">
  <path d="M 54 16 L 85.730469 16 L 85.730469 74 L 54 74 Z M 54 16 "/>
</clipPath>
</defs>
<g id="surface41">
<path style=" stroke:none;fill-rule:nonzero;fill:rgb(100%,100%,100%);fill-opacity:1;" d="M 48.878906 19.058594 L 36.890625 16.320312 C 32.226562 15.257812 27.324219 16.375 23.585938 19.359375 L 16.515625 10.492188 C 22.953125 5.359375 31.386719 3.433594 39.414062 5.265625 L 51.402344 8.003906 "/>
<path style="fill:none;stroke-width:0.79701;stroke-linecap:butt;stroke-linejoin:miter;stroke:rgb(0%,0%,0%);stroke-opacity:1;stroke-miterlimit:10;" d="M 5.680906 24.897406 L -6.307375 27.635688 C -10.971438 28.698188 -15.873781 27.581 -19.612063 24.596625 M -26.682375 33.463813 C -20.244875 38.596625 -11.811281 40.522406 -3.783938 38.690375 L 8.204344 35.952094 " transform="matrix(1,0,0,-1,43.198,43.956)"/>
<path style=" stroke:none;fill-rule:nonzero;fill:rgb(100%,100%,100%);fill-opacity:1;" d="M 27.277344 23.992188 L 17.660156 31.65625 C 13.917969 34.640625 11.738281 39.167969 11.738281 43.953125 L 0.398438 43.953125 C 0.398438 35.71875 4.152344 27.925781 10.589844 22.792969 L 20.207031 15.125 "/>
<path style="fill:none;stroke-width:0.79701;stroke-linecap:butt;stroke-linejoin:miter;stroke:rgb(0%,0%,0%);stroke-opacity:1;stroke-miterlimit:10;" d="M -15.920656 19.963813 L -25.537844 12.29975 C -29.280031 9.315375 -31.459719 4.788031 -31.459719 0.002875 M -42.799563 0.002875 C -42.799563 8.23725 -39.045656 16.030219 -32.608156 21.163031 L -22.990969 28.831 " transform="matrix(1,0,0,-1,43.198,43.956)"/>
<path style=" stroke:none;fill-rule:nonzero;fill:rgb(100%,100%,100%);fill-opacity:1;" d="M 17.660156 43.957031 L 17.660156 56.253906 C 17.660156 61.039062 19.839844 65.570312 23.582031 68.550781 L 16.515625 77.414062 C 10.074219 72.28125 6.320312 64.488281 6.320312 56.253906 L 6.320312 43.957031 "/>
<g clip-path="url(#clip1)" clip-rule="nonzero">
<path style="fill:none;stroke-width:0.79701;stroke-linecap:butt;stroke-linejoin:miter;stroke:rgb(0%,0%,0%);stroke-opacity:1;stroke-miterlimit:10;" d="M -25.537844 -0.00103125 L -25.537844 -12.297906 C -25.537844 -17.083062 -23.358156 -21.614312 -19.615969 -24.594781 M -26.682375 -33.458062 C -33.123781 -28.32525 -36.877688 -20.532281 -36.877688 -12.297906 L -36.877688 -0.00103125 " transform="matrix(1,0,0,-1,43.198,43.956)"/>
</g>
<path style=" stroke:none;fill-rule:nonzero;fill:rgb(100%,100%,100%);fill-opacity:1;" d="M 27.277344 63.921875 L 36.890625 71.589844 C 40.632812 74.574219 45.53125 75.691406 50.195312 74.628906 L 52.71875 85.683594 C 44.691406 87.515625 36.257812 85.589844 29.820312 80.457031 L 20.207031 72.785156 "/>
<g clip-path="url(#clip2)" clip-rule="nonzero">
<path style="fill:none;stroke-width:0.79701;stroke-linecap:butt;stroke-linejoin:miter;stroke:rgb(0%,0%,0%);stroke-opacity:1;stroke-miterlimit:10;" d="M -15.920656 -19.965875 L -6.307375 -27.633844 C -2.565188 -30.618219 2.33325 -31.735406 6.997312 -30.672906 M 9.52075 -41.727594 C 1.493406 -43.559625 -6.940188 -41.633844 -13.377688 -36.501031 L -22.990969 -28.829156 " transform="matrix(1,0,0,-1,43.198,43.956)"/>
</g>
<path style=" stroke:none;fill-rule:nonzero;fill:rgb(100%,100%,100%);fill-opacity:1;" d="M 48.878906 68.851562 L 60.871094 66.117188 C 65.535156 65.050781 69.464844 61.917969 71.542969 57.605469 L 81.757812 62.527344 C 78.183594 69.945312 71.421875 75.339844 63.394531 77.171875 L 51.402344 79.90625 "/>
<g clip-path="url(#clip3)" clip-rule="nonzero">
<path style="fill:none;stroke-width:0.79701;stroke-linecap:butt;stroke-linejoin:miter;stroke:rgb(0%,0%,0%);stroke-opacity:1;stroke-miterlimit:10;" d="M 5.680906 -24.895562 L 17.673094 -22.161187 C 22.337156 -21.094781 26.266844 -17.961969 28.344969 -13.649469 M 38.559812 -18.571344 C 34.985594 -25.989312 28.223875 -31.383844 20.196531 -33.215875 L 8.204344 -35.95025 " transform="matrix(1,0,0,-1,43.198,43.956)"/>
</g>
<path style=" stroke:none;fill-rule:nonzero;fill:rgb(100%,100%,100%);fill-opacity:1;" d="M 66.207031 55.035156 L 71.542969 43.957031 C 73.621094 39.644531 73.621094 34.617188 71.542969 30.308594 L 81.757812 25.386719 C 85.332031 32.808594 85.332031 41.457031 81.757812 48.875 L 76.421875 59.957031 "/>
<g clip-path="url(#clip4)" clip-rule="nonzero">
<path style="fill:none;stroke-width:0.79701;stroke-linecap:butt;stroke-linejoin:miter;stroke:rgb(0%,0%,0%);stroke-opacity:1;stroke-miterlimit:10;" d="M 23.009031 -11.079156 L 28.344969 -0.00103125 C 30.423094 4.311469 30.423094 9.338813 28.344969 13.647406 M 38.559812 18.569281 C 42.134031 11.147406 42.134031 2.498969 38.559812 -4.919 L 33.223875 -16.001031 " transform="matrix(1,0,0,-1,43.198,43.956)"/>
</g>
<path style=" stroke:none;fill-rule:nonzero;fill:rgb(100%,100%,100%);fill-opacity:1;" d="M 66.207031 32.875 L 60.871094 21.792969 C 58.792969 17.484375 54.863281 14.347656 50.199219 13.285156 L 52.722656 2.230469 C 60.75 4.0625 67.511719 9.457031 71.085938 16.875 L 76.421875 27.957031 "/>
<g clip-path="url(#clip5)" clip-rule="nonzero">
<path style="fill:none;stroke-width:0.79701;stroke-linecap:butt;stroke-linejoin:miter;stroke:rgb(0%,0%,0%);stroke-opacity:1;stroke-miterlimit:10;" d="M 23.009031 11.081 L 17.673094 22.163031 C 15.594969 26.471625 11.665281 29.608344 7.001219 30.670844 M 9.524656 41.725531 C 17.552 39.8935 24.313719 34.498969 27.887937 27.081 L 33.223875 15.998969 " transform="matrix(1,0,0,-1,43.198,43.956)"/>
</g>
<path style=" stroke:none;fill-rule:nonzero;fill:rgb(100%,100%,100%);fill-opacity:1;" d="M 63.394531 10.742188 C 71.421875 12.574219 78.183594 17.964844 81.757812 25.386719 L 71.542969 30.304688 C 69.464844 25.992188 65.535156 22.859375 60.871094 21.792969 L 48.878906 19.058594 L 51.402344 8.003906 Z M 63.394531 10.742188 "/>
<g clip-path="url(#clip6)" clip-rule="nonzero">
<path style="fill:none;stroke-width:0.79701;stroke-linecap:butt;stroke-linejoin:miter;stroke:rgb(0%,0%,0%);stroke-opacity:1;stroke-miterlimit:10;" d="M 8.204344 35.952094 L 20.196531 33.213813 C 28.223875 31.381781 34.985594 25.991156 38.559812 18.569281 M 28.344969 13.651313 C 26.266844 17.963813 22.337156 21.096625 17.673094 22.163031 L 5.680906 24.897406 " transform="matrix(1,0,0,-1,43.198,43.956)"/>
</g>
<path style=" stroke:none;fill-rule:nonzero;fill:rgb(100%,100%,100%);fill-opacity:1;" d="M 29.824219 7.457031 C 36.261719 2.324219 44.691406 0.398438 52.722656 2.230469 L 50.199219 13.28125 C 45.53125 12.21875 40.632812 13.335938 36.890625 16.320312 L 27.277344 23.992188 L 20.207031 15.125 Z M 29.824219 7.457031 "/>
<path style="fill:none;stroke-width:0.79701;stroke-linecap:butt;stroke-linejoin:miter;stroke:rgb(0%,0%,0%);stroke-opacity:1;stroke-miterlimit:10;" d="M -22.990969 28.831 L -13.373781 36.498969 C -6.936281 41.631781 1.493406 43.557563 9.524656 41.725531 M 7.001219 30.67475 C 2.33325 31.73725 -2.565188 30.620063 -6.307375 27.635688 L -15.920656 19.963813 " transform="matrix(1,0,0,-1,43.198,43.956)"/>
<path style=" stroke:none;fill-rule:nonzero;fill:rgb(100%,100%,100%);fill-opacity:1;" d="M 6.320312 31.65625 C 6.320312 23.421875 10.074219 15.628906 16.515625 10.496094 L 23.582031 19.359375 C 19.84375 22.34375 17.660156 26.871094 17.660156 31.65625 L 17.660156 43.957031 L 6.320312 43.957031 Z M 6.320312 31.65625 "/>
<path style="fill:none;stroke-width:0.79701;stroke-linecap:butt;stroke-linejoin:miter;stroke:rgb(0%,0%,0%);stroke-opacity:1;stroke-miterlimit:10;" d="M -36.877688 -0.00103125 L -36.877688 12.29975 C -36.877688 20.534125 -33.123781 28.327094 -26.682375 33.459906 M -19.615969 24.596625 C -23.35425 21.61225 -25.537844 17.084906 -25.537844 12.29975 L -25.537844 -0.00103125 " transform="matrix(1,0,0,-1,43.198,43.956)"/>
<path style=" stroke:none;fill-rule:nonzero;fill:rgb(100%,100%,100%);fill-opacity:1;" d="M 10.589844 65.117188 C 4.152344 59.984375 0.398438 52.191406 0.398438 43.957031 L 11.738281 43.957031 C 11.738281 48.742188 13.917969 53.269531 17.660156 56.253906 L 27.277344 63.921875 L 20.207031 72.785156 Z M 10.589844 65.117188 "/>
<path style="fill:none;stroke-width:0.79701;stroke-linecap:butt;stroke-linejoin:miter;stroke:rgb(0%,0%,0%);stroke-opacity:1;stroke-miterlimit:10;" d="M -22.990969 -28.829156 L -32.608156 -21.161187 C -39.045656 -16.028375 -42.799563 -8.235406 -42.799563 -0.00103125 M -31.459719 -0.00103125 C -31.459719 -4.786187 -29.280031 -9.313531 -25.537844 -12.297906 L -15.920656 -19.965875 " transform="matrix(1,0,0,-1,43.198,43.956)"/>
<path style=" stroke:none;fill-rule:nonzero;fill:rgb(100%,100%,100%);fill-opacity:1;" d="M 39.414062 82.644531 C 31.386719 84.476562 22.953125 82.550781 16.515625 77.417969 L 23.582031 68.554688 C 27.324219 71.535156 32.226562 72.65625 36.890625 71.589844 L 48.878906 68.851562 L 51.402344 79.90625 Z M 39.414062 82.644531 "/>
<g clip-path="url(#clip7)" clip-rule="nonzero">
<path style="fill:none;stroke-width:0.79701;stroke-linecap:butt;stroke-linejoin:miter;stroke:rgb(0%,0%,0%);stroke-opacity:1;stroke-miterlimit:10;" d="M 8.204344 -35.95025 L -3.783938 -38.688531 C -11.811281 -40.520562 -20.244875 -38.594781 -26.682375 -33.461969 M -19.615969 -24.598687 C -15.873781 -27.579156 -10.971438 -28.70025 -6.307375 -27.633844 L 5.680906 -24.895562 " transform="matrix(1,0,0,-1,43.198,43.956)"/>
</g>
<path style=" stroke:none;fill-rule:nonzero;fill:rgb(100%,100%,100%);fill-opacity:1;" d="M 71.085938 71.035156 C 67.511719 78.457031 60.75 83.847656 52.722656 85.679688 L 50.199219 74.628906 C 54.867188 73.5625 58.796875 70.429688 60.871094 66.117188 L 66.207031 55.035156 L 76.421875 59.957031 Z M 71.085938 71.035156 "/>
<g clip-path="url(#clip8)" clip-rule="nonzero">
<path style="fill:none;stroke-width:0.79701;stroke-linecap:butt;stroke-linejoin:miter;stroke:rgb(0%,0%,0%);stroke-opacity:1;stroke-miterlimit:10;" d="M 33.223875 -16.001031 L 27.887937 -27.079156 C 24.313719 -34.501031 17.552 -39.891656 9.524656 -41.723687 M 7.001219 -30.672906 C 11.669187 -29.6065 15.598875 -26.473687 17.673094 -22.161187 L 23.009031 -11.079156 " transform="matrix(1,0,0,-1,43.198,43.956)"/>
</g>
<path style=" stroke:none;fill-rule:nonzero;fill:rgb(100%,100%,100%);fill-opacity:1;" d="M 81.757812 39.035156 C 85.332031 46.457031 85.332031 55.105469 81.757812 62.523438 L 71.542969 57.605469 C 73.621094 53.292969 73.621094 48.265625 71.542969 43.957031 L 66.207031 32.875 L 76.421875 27.957031 Z M 81.757812 39.035156 "/>
<g clip-path="url(#clip9)" clip-rule="nonzero">
<path style="fill:none;stroke-width:0.79701;stroke-linecap:butt;stroke-linejoin:miter;stroke:rgb(0%,0%,0%);stroke-opacity:1;stroke-miterlimit:10;" d="M 33.223875 15.998969 L 38.559812 4.920844 C 42.134031 -2.501031 42.134031 -11.149469 38.559812 -18.567437 M 28.344969 -13.649469 C 30.423094 -9.336969 30.423094 -4.309625 28.344969 -0.00103125 L 23.009031 11.081 " transform="matrix(1,0,0,-1,43.198,43.956)"/>
</g>
</g>
</svg>
