<?xml version="1.0" encoding="UTF-8"?>
<svg xmlns="http://www.w3.org/2000/svg" xmlns:xlink="http://www.w3.org/1999/xlink" width="79.968pt" height="82.003pt" viewBox="0 0 79.968 82.003" version="1.1">
<defs>
<clipPath id="clip1">
  <path d="M 0 29 L 33 29 L 33 82.003906 L 0 82.003906 Z M 0 29 "/>
</clipPath>
<clipPath id="clip2">
  <path d="M 7 49 L 61 49 L 61 82.003906 L 7 82.003906 Z M 7 49 "/>
</clipPath>
<clipPath id="clip3">
  <path d="M 34 43 L 79.96875 43 L 79.96875 82.003906 L 34 82.003906 Z M 34 43 "/>
</clipPath>
<clipPath id="clip4">
  <path d="M 52 12 L 79.96875 12 L 79.96875 68 L 52 68 Z M 52 12 "/>
</clipPath>
<clipPath id="clip5">
  <path d="M 36 0 L 79.96875 0 L 79.96875 42 L 36 42 Z M 36 0 "/>
</clipPath>
<clipPath id="clip6">
  <path d="M 34 0 L 79.96875 0 L 79.96875 39 L 34 39 Z M 34 0 "/>
</clipPath>
<clipPath id="clip7">
  <path d="M 4 54 L 60 54 L 60 82.003906 L 4 82.003906 Z M 4 54 "/>
</clipPath>
<clipPath id="clip8">
  <path d="M 36 40 L 79.96875 40 L 79.96875 82.003906 L 36 82.003906 Z M 36 40 "/>
</clipPath>
<clipPath id="clip9">
  <path d="M 52 14 L 79.96875 14 L 79.96875 70 L 52 70 Z M 52 14 "/>
</clipPath>
</defs>
<g id="surface61">
<path style=" stroke:none;fill-rule:nonzero;fill:rgb(100%,100%,100%);fill-opacity:1;" d="M 46.046875 16.105469 L 34.054688 13.367188 C 29.390625 12.300781 24.492188 13.421875 20.75 16.402344 L 15.449219 9.757812 C 21.210938 5.160156 28.761719 3.4375 35.949219 5.074219 L 47.9375 7.816406 "/>
<path style="fill:none;stroke-width:0.79701;stroke-linecap:butt;stroke-linejoin:miter;stroke:rgb(0%,0%,0%);stroke-opacity:1;stroke-miterlimit:10;" d="M 5.683875 24.896531 L -6.308312 27.634813 C -10.972375 28.701219 -15.870812 27.580125 -19.613 24.599656 M -24.913781 31.244188 C -19.152062 35.841844 -11.601281 37.5645 -4.413781 35.927781 L 7.5745 33.185594 " transform="matrix(1,0,0,-1,40.363,41.002)"/>
<path style=" stroke:none;fill-rule:nonzero;fill:rgb(100%,100%,100%);fill-opacity:1;" d="M 24.441406 21.035156 L 14.824219 28.703125 C 11.082031 31.6875 8.902344 36.214844 8.902344 41 L 0.398438 41 C 0.398438 33.628906 3.757812 26.652344 9.523438 22.054688 L 19.140625 14.386719 "/>
<path style="fill:none;stroke-width:0.79701;stroke-linecap:butt;stroke-linejoin:miter;stroke:rgb(0%,0%,0%);stroke-opacity:1;stroke-miterlimit:10;" d="M -15.921594 19.966844 L -25.538781 12.298875 C -29.280969 9.3145 -31.460656 4.787156 -31.460656 0.002 M -39.964562 0.002 C -39.964562 7.373094 -36.605187 14.349656 -30.839562 18.947313 L -21.222375 26.615281 " transform="matrix(1,0,0,-1,40.363,41.002)"/>
<path style=" stroke:none;fill-rule:nonzero;fill:rgb(100%,100%,100%);fill-opacity:1;" d="M 14.824219 41.003906 L 14.824219 53.300781 C 14.824219 58.085938 17.007812 62.613281 20.746094 65.597656 L 15.445312 72.246094 C 9.683594 67.648438 6.320312 60.671875 6.320312 53.300781 L 6.320312 41.003906 "/>
<g clip-path="url(#clip1)" clip-rule="nonzero">
<path style="fill:none;stroke-width:0.79701;stroke-linecap:butt;stroke-linejoin:miter;stroke:rgb(0%,0%,0%);stroke-opacity:1;stroke-miterlimit:10;" d="M -25.538781 -0.00190625 L -25.538781 -12.298781 C -25.538781 -17.083937 -23.355187 -21.611281 -19.616906 -24.595656 M -24.917687 -31.244094 C -30.679406 -26.646437 -34.042687 -19.669875 -34.042687 -12.298781 L -34.042687 -0.00190625 " transform="matrix(1,0,0,-1,40.363,41.002)"/>
</g>
<path style=" stroke:none;fill-rule:nonzero;fill:rgb(100%,100%,100%);fill-opacity:1;" d="M 24.441406 60.96875 L 34.054688 68.636719 C 37.796875 71.621094 42.695312 72.738281 47.363281 71.675781 L 49.253906 79.964844 C 42.066406 81.605469 34.515625 79.882812 28.753906 75.285156 L 19.140625 67.617188 "/>
<g clip-path="url(#clip2)" clip-rule="nonzero">
<path style="fill:none;stroke-width:0.79701;stroke-linecap:butt;stroke-linejoin:miter;stroke:rgb(0%,0%,0%);stroke-opacity:1;stroke-miterlimit:10;" d="M -15.921594 -19.96675 L -6.308312 -27.634719 C -2.566125 -30.619094 2.332313 -31.736281 7.000281 -30.673781 M 8.890906 -38.962844 C 1.703406 -40.603469 -5.847375 -38.880812 -11.609094 -34.283156 L -21.222375 -26.615187 " transform="matrix(1,0,0,-1,40.363,41.002)"/>
</g>
<path style=" stroke:none;fill-rule:nonzero;fill:rgb(100%,100%,100%);fill-opacity:1;" d="M 46.042969 65.898438 L 58.035156 63.164062 C 62.703125 62.097656 66.632812 58.964844 68.707031 54.652344 L 76.367188 58.339844 C 73.171875 64.984375 67.117188 69.8125 59.929688 71.453125 L 47.9375 74.191406 "/>
<g clip-path="url(#clip3)" clip-rule="nonzero">
<path style="fill:none;stroke-width:0.79701;stroke-linecap:butt;stroke-linejoin:miter;stroke:rgb(0%,0%,0%);stroke-opacity:1;stroke-miterlimit:10;" d="M 5.679969 -24.896437 L 17.672156 -22.162062 C 22.340125 -21.095656 26.269813 -17.962844 28.344031 -13.650344 M 36.004188 -17.337844 C 32.808875 -23.982375 26.754188 -28.8105 19.566688 -30.451125 L 7.5745 -33.189406 " transform="matrix(1,0,0,-1,40.363,41.002)"/>
</g>
<path style=" stroke:none;fill-rule:nonzero;fill:rgb(100%,100%,100%);fill-opacity:1;" d="M 63.371094 52.082031 L 68.710938 41.003906 C 70.785156 36.691406 70.785156 31.664062 68.710938 27.351562 L 76.371094 23.664062 C 79.570312 30.304688 79.570312 38.050781 76.371094 44.691406 L 71.03125 55.769531 "/>
<g clip-path="url(#clip4)" clip-rule="nonzero">
<path style="fill:none;stroke-width:0.79701;stroke-linecap:butt;stroke-linejoin:miter;stroke:rgb(0%,0%,0%);stroke-opacity:1;stroke-miterlimit:10;" d="M 23.008094 -11.080031 L 28.347938 -0.00190625 C 30.422156 4.310594 30.422156 9.337938 28.347938 13.650438 M 36.008094 17.337938 C 39.207313 10.697313 39.207313 2.951219 36.008094 -3.689406 L 30.66825 -14.767531 " transform="matrix(1,0,0,-1,40.363,41.002)"/>
</g>
<path style=" stroke:none;fill-rule:nonzero;fill:rgb(100%,100%,100%);fill-opacity:1;" d="M 63.371094 29.921875 L 58.035156 18.839844 C 55.960938 14.527344 52.03125 11.394531 47.363281 10.332031 L 49.257812 2.039062 C 56.445312 3.679688 62.5 8.507812 65.695312 15.152344 L 71.03125 26.234375 "/>
<g clip-path="url(#clip5)" clip-rule="nonzero">
<path style="fill:none;stroke-width:0.79701;stroke-linecap:butt;stroke-linejoin:miter;stroke:rgb(0%,0%,0%);stroke-opacity:1;stroke-miterlimit:10;" d="M 23.008094 11.080125 L 17.672156 22.162156 C 15.597938 26.474656 11.66825 29.607469 7.000281 30.669969 M 8.894813 38.962938 C 16.082313 37.322313 22.137 32.494188 25.332313 25.849656 L 30.66825 14.767625 " transform="matrix(1,0,0,-1,40.363,41.002)"/>
</g>
<path style=" stroke:none;fill-rule:nonzero;fill:rgb(100%,100%,100%);fill-opacity:1;" d="M 59.925781 10.550781 C 67.117188 12.191406 73.167969 17.019531 76.367188 23.660156 L 68.707031 27.351562 C 66.628906 23.039062 62.699219 19.90625 58.035156 18.839844 L 46.046875 16.105469 L 47.9375 7.816406 Z M 59.925781 10.550781 "/>
<g clip-path="url(#clip6)" clip-rule="nonzero">
<path style="fill:none;stroke-width:0.79701;stroke-linecap:butt;stroke-linejoin:miter;stroke:rgb(0%,0%,0%);stroke-opacity:1;stroke-miterlimit:10;" d="M 7.5745 33.185594 L 19.562781 30.451219 C 26.754188 28.810594 32.804969 23.982469 36.004188 17.341844 M 28.344031 13.650438 C 26.265906 17.962938 22.336219 21.09575 17.672156 22.162156 L 5.683875 24.896531 " transform="matrix(1,0,0,-1,40.363,41.002)"/>
</g>
<path style=" stroke:none;fill-rule:nonzero;fill:rgb(100%,100%,100%);fill-opacity:1;" d="M 28.753906 6.71875 C 34.519531 2.121094 42.066406 0.398438 49.253906 2.039062 L 47.363281 10.328125 C 42.699219 9.265625 37.796875 10.382812 34.054688 13.367188 L 24.441406 21.035156 L 19.140625 14.386719 Z M 28.753906 6.71875 "/>
<path style="fill:none;stroke-width:0.79701;stroke-linecap:butt;stroke-linejoin:miter;stroke:rgb(0%,0%,0%);stroke-opacity:1;stroke-miterlimit:10;" d="M -21.222375 26.615281 L -11.609094 34.28325 C -5.843469 38.880906 1.703406 40.603563 8.890906 38.962938 M 7.000281 30.673875 C 2.336219 31.736375 -2.566125 30.619188 -6.308312 27.634813 L -15.921594 19.966844 " transform="matrix(1,0,0,-1,40.363,41.002)"/>
<path style=" stroke:none;fill-rule:nonzero;fill:rgb(100%,100%,100%);fill-opacity:1;" d="M 6.320312 28.703125 C 6.320312 21.332031 9.683594 14.355469 15.445312 9.757812 L 20.75 16.40625 C 17.007812 19.390625 14.824219 23.917969 14.824219 28.703125 L 14.824219 41.003906 L 6.320312 41.003906 Z M 6.320312 28.703125 "/>
<path style="fill:none;stroke-width:0.79701;stroke-linecap:butt;stroke-linejoin:miter;stroke:rgb(0%,0%,0%);stroke-opacity:1;stroke-miterlimit:10;" d="M -34.042687 -0.00190625 L -34.042687 12.298875 C -34.042687 19.669969 -30.679406 26.646531 -24.917687 31.244188 M -19.613 24.59575 C -23.355187 21.611375 -25.538781 17.084031 -25.538781 12.298875 L -25.538781 -0.00190625 " transform="matrix(1,0,0,-1,40.363,41.002)"/>
<path style=" stroke:none;fill-rule:nonzero;fill:rgb(100%,100%,100%);fill-opacity:1;" d="M 9.523438 59.949219 C 3.757812 55.351562 0.398438 48.375 0.398438 41.003906 L 8.902344 41.003906 C 8.902344 45.789062 11.082031 50.316406 14.824219 53.300781 L 24.441406 60.96875 L 19.140625 67.617188 Z M 9.523438 59.949219 "/>
<path style="fill:none;stroke-width:0.79701;stroke-linecap:butt;stroke-linejoin:miter;stroke:rgb(0%,0%,0%);stroke-opacity:1;stroke-miterlimit:10;" d="M -21.222375 -26.615187 L -30.839562 -18.947219 C -36.605187 -14.349562 -39.964562 -7.373 -39.964562 -0.00190625 M -31.460656 -0.00190625 C -31.460656 -4.787062 -29.280969 -9.314406 -25.538781 -12.298781 L -15.921594 -19.96675 " transform="matrix(1,0,0,-1,40.363,41.002)"/>
<path style=" stroke:none;fill-rule:nonzero;fill:rgb(100%,100%,100%);fill-opacity:1;" d="M 35.949219 76.925781 C 28.761719 78.566406 21.210938 76.84375 15.445312 72.246094 L 20.75 65.597656 C 24.492188 68.582031 29.390625 69.703125 34.054688 68.636719 L 46.042969 65.898438 L 47.9375 74.191406 Z M 35.949219 76.925781 "/>
<g clip-path="url(#clip7)" clip-rule="nonzero">
<path style="fill:none;stroke-width:0.79701;stroke-linecap:butt;stroke-linejoin:miter;stroke:rgb(0%,0%,0%);stroke-opacity:1;stroke-miterlimit:10;" d="M 7.5745 -33.189406 L -4.413781 -35.923781 C -11.601281 -37.564406 -19.152062 -35.84175 -24.917687 -31.244094 M -19.613 -24.595656 C -15.870812 -27.580031 -10.972375 -28.701125 -6.308312 -27.634719 L 5.679969 -24.896437 " transform="matrix(1,0,0,-1,40.363,41.002)"/>
</g>
<path style=" stroke:none;fill-rule:nonzero;fill:rgb(100%,100%,100%);fill-opacity:1;" d="M 65.699219 66.851562 C 62.5 73.496094 56.445312 78.324219 49.257812 79.964844 L 47.363281 71.671875 C 52.03125 70.609375 55.960938 67.472656 58.035156 63.164062 L 63.371094 52.082031 L 71.03125 55.769531 Z M 65.699219 66.851562 "/>
<g clip-path="url(#clip8)" clip-rule="nonzero">
<path style="fill:none;stroke-width:0.79701;stroke-linecap:butt;stroke-linejoin:miter;stroke:rgb(0%,0%,0%);stroke-opacity:1;stroke-miterlimit:10;" d="M 30.66825 -14.767531 L 25.336219 -25.849562 C 22.137 -32.494094 16.082313 -37.322219 8.894813 -38.962844 M 7.000281 -30.669875 C 11.66825 -29.607375 15.597938 -26.470656 17.672156 -22.162062 L 23.008094 -11.080031 " transform="matrix(1,0,0,-1,40.363,41.002)"/>
</g>
<path style=" stroke:none;fill-rule:nonzero;fill:rgb(100%,100%,100%);fill-opacity:1;" d="M 76.371094 37.3125 C 79.570312 43.957031 79.570312 51.699219 76.371094 58.339844 L 68.710938 54.652344 C 70.785156 50.339844 70.785156 45.3125 68.710938 41.003906 L 63.371094 29.921875 L 71.03125 26.234375 Z M 76.371094 37.3125 "/>
<g clip-path="url(#clip9)" clip-rule="nonzero">
<path style="fill:none;stroke-width:0.79701;stroke-linecap:butt;stroke-linejoin:miter;stroke:rgb(0%,0%,0%);stroke-opacity:1;stroke-miterlimit:10;" d="M 30.66825 14.767625 L 36.008094 3.6895 C 39.207313 -2.955031 39.207313 -10.697219 36.008094 -17.337844 M 28.347938 -13.650344 C 30.422156 -9.337844 30.422156 -4.3105 28.347938 -0.00190625 L 23.008094 11.080125 " transform="matrix(1,0,0,-1,40.363,41.002)"/>
</g>
</g>
</svg>
