<?xml version="1.0" encoding="UTF-8"?>
<svg xmlns="http://www.w3.org/2000/svg" xmlns:xlink="http://www.w3.org/1999/xlink" width="96.713pt" height="96.776pt" viewBox="0 0 96.713 96.776" version="1.1">
<defs>
<clipPath id="clip1">
  <path d="M 18 62 L 49 62 L 49 96.777344 L 18 96.777344 Z M 18 62 "/>
</clipPath>
<clipPath id="clip2">
  <path d="M 18 56 L 54 56 L 54 96.777344 L 18 96.777344 Z M 18 56 "/>
</clipPath>
<clipPath id="clip3">
  <path d="M 13 59 L 54 59 L 54 96.777344 L 13 96.777344 Z M 13 59 "/>
</clipPath>
<clipPath id="clip4">
  <path d="M 72 18 L 96.714844 18 L 96.714844 72 L 72 72 Z M 72 18 "/>
</clipPath>
<clipPath id="clip5">
  <path d="M 72 25 L 96.714844 25 L 96.714844 79 L 72 79 Z M 72 25 "/>
</clipPath>
<clipPath id="clip6">
  <path d="M 48 62 L 78 62 L 78 96.777344 L 48 96.777344 Z M 48 62 "/>
</clipPath>
<clipPath id="clip7">
  <path d="M 42 56 L 79 56 L 79 96.777344 L 42 96.777344 Z M 42 56 "/>
</clipPath>
<clipPath id="clip8">
  <path d="M 42 59 L 84 59 L 84 96.777344 L 42 96.777344 Z M 42 59 "/>
</clipPath>
</defs>
<g id="surface66">
<path style=" stroke:none;fill-rule:nonzero;fill:rgb(100%,100%,100%);fill-opacity:1;" d="M 72.90625 34.214844 L 64.722656 20.042969 C 59.054688 10.222656 59.695312 5.867188 48.355469 5.867188 L 48.355469 0.199219 C 61.207031 0.199219 62.828125 5.425781 69.632812 17.207031 L 77.816406 31.378906 "/>
<path style="fill:none;stroke-width:0.3985;stroke-linecap:butt;stroke-linejoin:miter;stroke:rgb(0%,0%,0%);stroke-opacity:1;stroke-miterlimit:10;" d="M 24.54925 14.173156 L 16.365656 28.345031 C 10.697688 38.165344 11.338313 42.520812 -0.00153125 42.520812 " transform="matrix(1,0,0,-1,48.357,48.388)"/>
<path style="fill:none;stroke-width:0.3985;stroke-linecap:butt;stroke-linejoin:miter;stroke:rgb(0%,0%,0%);stroke-opacity:1;stroke-miterlimit:10;" d="M -0.00153125 48.188781 C 12.850031 48.188781 14.471125 42.962219 21.275813 31.180969 L 29.459406 17.009094 " transform="matrix(1,0,0,-1,48.357,48.388)"/>
<path style=" stroke:none;fill-rule:nonzero;fill:rgb(100%,100%,100%);fill-opacity:1;" d="M 48.355469 20.042969 L 31.992188 20.042969 C 20.652344 20.042969 17.203125 17.308594 11.535156 27.128906 L 6.625 24.292969 C 13.046875 13.164062 18.386719 14.375 31.992188 14.375 L 48.355469 14.371094 "/>
<path style="fill:none;stroke-width:0.3985;stroke-linecap:butt;stroke-linejoin:miter;stroke:rgb(0%,0%,0%);stroke-opacity:1;stroke-miterlimit:10;" d="M -0.00153125 28.345031 L -16.364812 28.345031 C -27.704656 28.345031 -31.153875 31.079406 -36.821844 21.259094 " transform="matrix(1,0,0,-1,48.357,48.388)"/>
<path style="fill:none;stroke-width:0.3985;stroke-linecap:butt;stroke-linejoin:miter;stroke:rgb(0%,0%,0%);stroke-opacity:1;stroke-miterlimit:10;" d="M -41.732 24.095031 C -35.310125 35.223937 -29.970281 34.013 -16.364812 34.013 L -0.00153125 34.016906 " transform="matrix(1,0,0,-1,48.357,48.388)"/>
<path style=" stroke:none;fill-rule:nonzero;fill:rgb(100%,100%,100%);fill-opacity:1;" d="M 23.808594 34.214844 L 15.625 48.386719 C 9.957031 58.207031 5.863281 59.828125 11.535156 69.648438 L 6.625 72.484375 C 0.199219 61.355469 3.914062 57.335938 10.71875 45.554688 L 18.898438 31.378906 "/>
<path style="fill:none;stroke-width:0.3985;stroke-linecap:butt;stroke-linejoin:miter;stroke:rgb(0%,0%,0%);stroke-opacity:1;stroke-miterlimit:10;" d="M -24.548406 14.173156 L -32.732 0.00128125 C -38.399969 -9.819031 -42.493719 -11.440125 -36.821844 -21.260438 " transform="matrix(1,0,0,-1,48.357,48.388)"/>
<path style="fill:none;stroke-width:0.3985;stroke-linecap:butt;stroke-linejoin:miter;stroke:rgb(0%,0%,0%);stroke-opacity:1;stroke-miterlimit:10;" d="M -41.732 -24.096375 C -48.157781 -12.967469 -44.442937 -8.947938 -37.63825 2.833312 L -29.458562 17.009094 " transform="matrix(1,0,0,-1,48.357,48.388)"/>
<g clip-path="url(#clip1)" clip-rule="nonzero">
<path style=" stroke:none;fill-rule:nonzero;fill:rgb(100%,100%,100%);fill-opacity:1;" d="M 23.808594 62.5625 L 31.992188 76.734375 C 37.660156 86.550781 37.019531 90.90625 48.355469 90.90625 L 48.355469 96.578125 C 35.507812 96.578125 33.886719 91.351562 27.082031 79.566406 L 18.898438 65.394531 "/>
</g>
<g clip-path="url(#clip2)" clip-rule="nonzero">
<path style="fill:none;stroke-width:0.3985;stroke-linecap:butt;stroke-linejoin:miter;stroke:rgb(0%,0%,0%);stroke-opacity:1;stroke-miterlimit:10;" d="M -24.548406 -14.1745 L -16.364812 -28.346375 C -10.696844 -38.162781 -11.337469 -42.51825 -0.00153125 -42.51825 " transform="matrix(1,0,0,-1,48.357,48.388)"/>
</g>
<g clip-path="url(#clip3)" clip-rule="nonzero">
<path style="fill:none;stroke-width:0.3985;stroke-linecap:butt;stroke-linejoin:miter;stroke:rgb(0%,0%,0%);stroke-opacity:1;stroke-miterlimit:10;" d="M -0.00153125 -48.190125 C -12.849187 -48.190125 -14.470281 -42.963563 -21.274969 -31.178406 L -29.458562 -17.006531 " transform="matrix(1,0,0,-1,48.357,48.388)"/>
</g>
<path style=" stroke:none;fill-rule:nonzero;fill:rgb(100%,100%,100%);fill-opacity:1;" d="M 48.355469 76.734375 L 64.722656 76.734375 C 76.0625 76.734375 79.511719 79.46875 85.179688 69.648438 L 90.089844 72.484375 C 83.664062 83.609375 78.328125 82.402344 64.722656 82.402344 L 48.355469 82.402344 "/>
<path style="fill:none;stroke-width:0.3985;stroke-linecap:butt;stroke-linejoin:miter;stroke:rgb(0%,0%,0%);stroke-opacity:1;stroke-miterlimit:10;" d="M -0.00153125 -28.346375 L 16.365656 -28.346375 C 27.7055 -28.346375 31.154719 -31.08075 36.822688 -21.260438 " transform="matrix(1,0,0,-1,48.357,48.388)"/>
<path style="fill:none;stroke-width:0.3985;stroke-linecap:butt;stroke-linejoin:miter;stroke:rgb(0%,0%,0%);stroke-opacity:1;stroke-miterlimit:10;" d="M 41.732844 -24.096375 C 35.307063 -35.221375 29.971125 -34.014344 16.365656 -34.014344 L -0.00153125 -34.014344 " transform="matrix(1,0,0,-1,48.357,48.388)"/>
<path style=" stroke:none;fill-rule:nonzero;fill:rgb(100%,100%,100%);fill-opacity:1;" d="M 72.90625 62.5625 L 81.085938 48.386719 C 86.757812 38.570312 90.851562 36.949219 85.179688 27.128906 L 90.089844 24.292969 C 96.515625 35.421875 92.800781 39.441406 85.996094 51.222656 L 77.816406 65.394531 "/>
<path style="fill:none;stroke-width:0.3985;stroke-linecap:butt;stroke-linejoin:miter;stroke:rgb(0%,0%,0%);stroke-opacity:1;stroke-miterlimit:10;" d="M 24.54925 -14.1745 L 32.728938 0.00128125 C 38.400813 9.817687 42.494563 11.438781 36.822688 21.259094 " transform="matrix(1,0,0,-1,48.357,48.388)"/>
<g clip-path="url(#clip4)" clip-rule="nonzero">
<path style="fill:none;stroke-width:0.3985;stroke-linecap:butt;stroke-linejoin:miter;stroke:rgb(0%,0%,0%);stroke-opacity:1;stroke-miterlimit:10;" d="M 41.732844 24.095031 C 48.158625 12.966125 44.443781 8.946594 37.639094 -2.834656 L 29.459406 -17.006531 " transform="matrix(1,0,0,-1,48.357,48.388)"/>
</g>
<path style=" stroke:none;fill-rule:nonzero;fill:rgb(100%,100%,100%);fill-opacity:1;" d="M 72.90625 34.214844 L 81.085938 48.386719 C 86.757812 58.207031 90.851562 59.828125 85.179688 69.648438 L 90.089844 72.484375 C 96.515625 61.355469 92.800781 57.335938 85.996094 45.554688 L 77.816406 31.378906 "/>
<path style="fill:none;stroke-width:0.3985;stroke-linecap:butt;stroke-linejoin:miter;stroke:rgb(0%,0%,0%);stroke-opacity:1;stroke-miterlimit:10;" d="M 24.54925 14.173156 L 32.728938 0.00128125 C 38.400813 -9.819031 42.494563 -11.440125 36.822688 -21.260438 " transform="matrix(1,0,0,-1,48.357,48.388)"/>
<g clip-path="url(#clip5)" clip-rule="nonzero">
<path style="fill:none;stroke-width:0.3985;stroke-linecap:butt;stroke-linejoin:miter;stroke:rgb(0%,0%,0%);stroke-opacity:1;stroke-miterlimit:10;" d="M 29.459406 17.009094 L 37.639094 2.833312 C 44.443781 -8.947938 48.158625 -12.967469 41.732844 -24.096375 " transform="matrix(1,0,0,-1,48.357,48.388)"/>
</g>
<path style=" stroke:none;fill-rule:nonzero;fill:rgb(100%,100%,100%);fill-opacity:1;" d="M 48.355469 20.042969 L 64.722656 20.042969 C 76.0625 20.042969 79.511719 17.308594 85.179688 27.128906 L 90.089844 24.292969 C 83.664062 13.164062 78.328125 14.375 64.722656 14.375 L 48.355469 14.371094 "/>
<path style="fill:none;stroke-width:0.3985;stroke-linecap:butt;stroke-linejoin:miter;stroke:rgb(0%,0%,0%);stroke-opacity:1;stroke-miterlimit:10;" d="M -0.00153125 28.345031 L 16.365656 28.345031 C 27.7055 28.345031 31.154719 31.079406 36.822688 21.259094 " transform="matrix(1,0,0,-1,48.357,48.388)"/>
<path style="fill:none;stroke-width:0.3985;stroke-linecap:butt;stroke-linejoin:miter;stroke:rgb(0%,0%,0%);stroke-opacity:1;stroke-miterlimit:10;" d="M -0.00153125 34.016906 L 16.365656 34.013 C 29.971125 34.013 35.307063 35.223937 41.732844 24.095031 " transform="matrix(1,0,0,-1,48.357,48.388)"/>
<path style=" stroke:none;fill-rule:nonzero;fill:rgb(100%,100%,100%);fill-opacity:1;" d="M 23.808594 34.214844 L 31.992188 20.042969 C 37.660156 10.222656 37.019531 5.867188 48.355469 5.867188 L 48.355469 0.199219 C 35.507812 0.199219 33.886719 5.425781 27.082031 17.207031 L 18.898438 31.378906 "/>
<path style="fill:none;stroke-width:0.3985;stroke-linecap:butt;stroke-linejoin:miter;stroke:rgb(0%,0%,0%);stroke-opacity:1;stroke-miterlimit:10;" d="M -24.548406 14.173156 L -16.364812 28.345031 C -10.696844 38.165344 -11.337469 42.520812 -0.00153125 42.520812 " transform="matrix(1,0,0,-1,48.357,48.388)"/>
<path style="fill:none;stroke-width:0.3985;stroke-linecap:butt;stroke-linejoin:miter;stroke:rgb(0%,0%,0%);stroke-opacity:1;stroke-miterlimit:10;" d="M -29.458562 17.009094 L -21.274969 31.180969 C -14.470281 42.962219 -12.849187 48.188781 -0.00153125 48.188781 " transform="matrix(1,0,0,-1,48.357,48.388)"/>
<path style=" stroke:none;fill-rule:nonzero;fill:rgb(100%,100%,100%);fill-opacity:1;" d="M 23.808594 62.5625 L 15.625 48.386719 C 9.957031 38.570312 5.863281 36.949219 11.535156 27.128906 L 6.625 24.292969 C 0.199219 35.421875 3.914062 39.441406 10.71875 51.222656 L 18.898438 65.394531 "/>
<path style="fill:none;stroke-width:0.3985;stroke-linecap:butt;stroke-linejoin:miter;stroke:rgb(0%,0%,0%);stroke-opacity:1;stroke-miterlimit:10;" d="M -24.548406 -14.1745 L -32.732 0.00128125 C -38.399969 9.817687 -42.493719 11.438781 -36.821844 21.259094 " transform="matrix(1,0,0,-1,48.357,48.388)"/>
<path style="fill:none;stroke-width:0.3985;stroke-linecap:butt;stroke-linejoin:miter;stroke:rgb(0%,0%,0%);stroke-opacity:1;stroke-miterlimit:10;" d="M -29.458562 -17.006531 L -37.63825 -2.834656 C -44.442937 8.946594 -48.157781 12.966125 -41.732 24.095031 " transform="matrix(1,0,0,-1,48.357,48.388)"/>
<path style=" stroke:none;fill-rule:nonzero;fill:rgb(100%,100%,100%);fill-opacity:1;" d="M 48.355469 76.734375 L 31.992188 76.734375 C 20.652344 76.734375 17.203125 79.46875 11.535156 69.648438 L 6.625 72.484375 C 13.046875 83.609375 18.386719 82.402344 31.992188 82.402344 L 48.355469 82.402344 "/>
<path style="fill:none;stroke-width:0.3985;stroke-linecap:butt;stroke-linejoin:miter;stroke:rgb(0%,0%,0%);stroke-opacity:1;stroke-miterlimit:10;" d="M -0.00153125 -28.346375 L -16.364812 -28.346375 C -27.704656 -28.346375 -31.153875 -31.08075 -36.821844 -21.260438 " transform="matrix(1,0,0,-1,48.357,48.388)"/>
<path style="fill:none;stroke-width:0.3985;stroke-linecap:butt;stroke-linejoin:miter;stroke:rgb(0%,0%,0%);stroke-opacity:1;stroke-miterlimit:10;" d="M -0.00153125 -34.014344 L -16.364812 -34.014344 C -29.970281 -34.014344 -35.310125 -35.221375 -41.732 -24.096375 " transform="matrix(1,0,0,-1,48.357,48.388)"/>
<g clip-path="url(#clip6)" clip-rule="nonzero">
<path style=" stroke:none;fill-rule:nonzero;fill:rgb(100%,100%,100%);fill-opacity:1;" d="M 72.90625 62.5625 L 64.722656 76.734375 C 59.054688 86.550781 59.695312 90.90625 48.355469 90.90625 L 48.355469 96.578125 C 61.207031 96.578125 62.828125 91.351562 69.632812 79.566406 L 77.816406 65.394531 "/>
</g>
<g clip-path="url(#clip7)" clip-rule="nonzero">
<path style="fill:none;stroke-width:0.3985;stroke-linecap:butt;stroke-linejoin:miter;stroke:rgb(0%,0%,0%);stroke-opacity:1;stroke-miterlimit:10;" d="M 24.54925 -14.1745 L 16.365656 -28.346375 C 10.697688 -38.162781 11.338313 -42.51825 -0.00153125 -42.51825 " transform="matrix(1,0,0,-1,48.357,48.388)"/>
</g>
<g clip-path="url(#clip8)" clip-rule="nonzero">
<path style="fill:none;stroke-width:0.3985;stroke-linecap:butt;stroke-linejoin:miter;stroke:rgb(0%,0%,0%);stroke-opacity:1;stroke-miterlimit:10;" d="M 29.459406 -17.006531 L 21.275813 -31.178406 C 14.471125 -42.963563 12.850031 -48.190125 -0.00153125 -48.190125 " transform="matrix(1,0,0,-1,48.357,48.388)"/>
</g>
</g>
</svg>
