<?xml version="1.0" encoding="UTF-8"?>
<svg xmlns="http://www.w3.org/2000/svg" xmlns:xlink="http://www.w3.org/1999/xlink" width="66.646pt" height="66.646pt" viewBox="0 0 66.646 66.646" version="1.1">
<defs>
<clipPath id="clip1">
  <path d="M 52 14 L 66.644531 14 L 66.644531 44 L 52 44 Z M 52 14 "/>
</clipPath>
<clipPath id="clip2">
  <path d="M 54 14 L 66.644531 14 L 66.644531 45 L 54 45 Z M 54 14 "/>
</clipPath>
<clipPath id="clip3">
  <path d="M 47 7 L 66.644531 7 L 66.644531 35 L 47 35 Z M 47 7 "/>
</clipPath>
<clipPath id="clip4">
  <path d="M 48 6 L 66.644531 6 L 66.644531 34 L 48 34 Z M 48 6 "/>
</clipPath>
<clipPath id="clip5">
  <path d="M 40 2 L 66.644531 2 L 66.644531 25 L 40 25 Z M 40 2 "/>
</clipPath>
<clipPath id="clip6">
  <path d="M 41 1 L 66.644531 1 L 66.644531 25 L 41 25 Z M 41 1 "/>
</clipPath>
<clipPath id="clip7">
  <path d="M 5 49 L 35 49 L 35 66.644531 L 5 66.644531 Z M 5 49 "/>
</clipPath>
<clipPath id="clip8">
  <path d="M 4 50 L 35 50 L 35 66.644531 L 4 66.644531 Z M 4 50 "/>
</clipPath>
<clipPath id="clip9">
  <path d="M 13 55 L 44 55 L 44 66.644531 L 13 66.644531 Z M 13 55 "/>
</clipPath>
<clipPath id="clip10">
  <path d="M 12 56 L 44 56 L 44 66.644531 L 12 66.644531 Z M 12 56 "/>
</clipPath>
<clipPath id="clip11">
  <path d="M 22 52 L 52 52 L 52 66.644531 L 22 66.644531 Z M 22 52 "/>
</clipPath>
<clipPath id="clip12">
  <path d="M 22 54 L 53 54 L 53 66.644531 L 22 66.644531 Z M 22 54 "/>
</clipPath>
<clipPath id="clip13">
  <path d="M 32 47 L 60 47 L 60 66.644531 L 32 66.644531 Z M 32 47 "/>
</clipPath>
<clipPath id="clip14">
  <path d="M 32 48 L 61 48 L 61 66.644531 L 32 66.644531 Z M 32 48 "/>
</clipPath>
<clipPath id="clip15">
  <path d="M 41 40 L 65 40 L 65 66.644531 L 41 66.644531 Z M 41 40 "/>
</clipPath>
<clipPath id="clip16">
  <path d="M 42 41 L 66 41 L 66 66.644531 L 42 66.644531 Z M 42 41 "/>
</clipPath>
<clipPath id="clip17">
  <path d="M 49 32 L 66.644531 32 L 66.644531 62 L 49 62 Z M 49 32 "/>
</clipPath>
<clipPath id="clip18">
  <path d="M 50 32 L 66.644531 32 L 66.644531 63 L 50 63 Z M 50 32 "/>
</clipPath>
<clipPath id="clip19">
  <path d="M 55 23 L 66.644531 23 L 66.644531 54 L 55 54 Z M 55 23 "/>
</clipPath>
<clipPath id="clip20">
  <path d="M 56 23 L 66.644531 23 L 66.644531 54 L 56 54 Z M 56 23 "/>
</clipPath>
<clipPath id="clip21">
  <path d="M 49 5 L 66.644531 5 L 66.644531 35 L 49 35 Z M 49 5 "/>
</clipPath>
<clipPath id="clip22">
  <path d="M 50 4 L 66.644531 4 L 66.644531 35 L 50 35 Z M 50 4 "/>
</clipPath>
<clipPath id="clip23">
  <path d="M 2 40 L 25 40 L 25 66.644531 L 2 66.644531 Z M 2 40 "/>
</clipPath>
<clipPath id="clip24">
  <path d="M 1 41 L 25 41 L 25 66.644531 L 1 66.644531 Z M 1 41 "/>
</clipPath>
<clipPath id="clip25">
  <path d="M 7 47 L 35 47 L 35 66.644531 L 7 66.644531 Z M 7 47 "/>
</clipPath>
<clipPath id="clip26">
  <path d="M 6 48 L 34 48 L 34 66.644531 L 6 66.644531 Z M 6 48 "/>
</clipPath>
<clipPath id="clip27">
  <path d="M 14 52 L 44 52 L 44 66.644531 L 14 66.644531 Z M 14 52 "/>
</clipPath>
<clipPath id="clip28">
  <path d="M 14 54 L 45 54 L 45 66.644531 L 14 66.644531 Z M 14 54 "/>
</clipPath>
<clipPath id="clip29">
  <path d="M 23 55 L 54 55 L 54 66.644531 L 23 66.644531 Z M 23 55 "/>
</clipPath>
<clipPath id="clip30">
  <path d="M 23 56 L 54 56 L 54 66.644531 L 23 66.644531 Z M 23 56 "/>
</clipPath>
<clipPath id="clip31">
  <path d="M 32 49 L 62 49 L 62 66.644531 L 32 66.644531 Z M 32 49 "/>
</clipPath>
<clipPath id="clip32">
  <path d="M 32 50 L 63 50 L 63 66.644531 L 32 66.644531 Z M 32 50 "/>
</clipPath>
<clipPath id="clip33">
  <path d="M 40 41 L 66.644531 41 L 66.644531 65 L 40 65 Z M 40 41 "/>
</clipPath>
<clipPath id="clip34">
  <path d="M 41 42 L 66.644531 42 L 66.644531 66 L 41 66 Z M 41 42 "/>
</clipPath>
<clipPath id="clip35">
  <path d="M 47 32 L 66.644531 32 L 66.644531 60 L 47 60 Z M 47 32 "/>
</clipPath>
<clipPath id="clip36">
  <path d="M 48 32 L 66.644531 32 L 66.644531 61 L 48 61 Z M 48 32 "/>
</clipPath>
<clipPath id="clip37">
  <path d="M 52 22 L 66.644531 22 L 66.644531 52 L 52 52 Z M 52 22 "/>
</clipPath>
<clipPath id="clip38">
  <path d="M 54 22 L 66.644531 22 L 66.644531 53 L 54 53 Z M 54 22 "/>
</clipPath>
<clipPath id="clip39">
  <path d="M 55 13 L 66.644531 13 L 66.644531 44 L 55 44 Z M 55 13 "/>
</clipPath>
<clipPath id="clip40">
  <path d="M 56 12 L 66.644531 12 L 66.644531 44 L 56 44 Z M 56 12 "/>
</clipPath>
</defs>
<g id="surface151">
<path style=" stroke:none;fill-rule:nonzero;fill:rgb(100%,100%,100%);fill-opacity:1;" d="M 58.582031 20.453125 L 60.617188 24.457031 C 63.191406 29.507812 65.007812 32.601562 64.121094 38.199219 L 65.519531 38.421875 C 66.445312 32.566406 64.582031 29.117188 61.878906 23.8125 L 59.84375 19.808594 "/>
<g clip-path="url(#clip1)" clip-rule="nonzero">
<path style="fill:none;stroke-width:0.3985;stroke-linecap:butt;stroke-linejoin:miter;stroke:rgb(0%,0%,0%);stroke-opacity:1;stroke-miterlimit:10;" d="M 25.259031 12.869875 L 27.294187 8.865969 C 29.868406 3.815188 31.684812 0.721438 30.798094 -4.876219 " transform="matrix(1,0,0,-1,33.323,33.323)"/>
</g>
<g clip-path="url(#clip2)" clip-rule="nonzero">
<path style="fill:none;stroke-width:0.3985;stroke-linecap:butt;stroke-linejoin:miter;stroke:rgb(0%,0%,0%);stroke-opacity:1;stroke-miterlimit:10;" d="M 32.196531 -5.098875 C 33.122312 0.756594 31.259031 4.205813 28.555906 9.5105 L 26.52075 13.514406 " transform="matrix(1,0,0,-1,33.323,33.323)"/>
</g>
<path style=" stroke:none;fill-rule:nonzero;fill:rgb(100%,100%,100%);fill-opacity:1;" d="M 53.367188 13.277344 L 56.539062 16.453125 C 60.546875 20.464844 63.234375 22.847656 64.121094 28.445312 L 65.519531 28.222656 C 64.59375 22.371094 61.75 19.660156 57.542969 15.453125 L 54.371094 12.277344 "/>
<g clip-path="url(#clip3)" clip-rule="nonzero">
<path style="fill:none;stroke-width:0.3985;stroke-linecap:butt;stroke-linejoin:miter;stroke:rgb(0%,0%,0%);stroke-opacity:1;stroke-miterlimit:10;" d="M 20.044187 20.045656 L 23.216062 16.869875 C 27.223875 12.858156 29.911375 10.475344 30.798094 4.877688 " transform="matrix(1,0,0,-1,33.323,33.323)"/>
</g>
<g clip-path="url(#clip4)" clip-rule="nonzero">
<path style="fill:none;stroke-width:0.3985;stroke-linecap:butt;stroke-linejoin:miter;stroke:rgb(0%,0%,0%);stroke-opacity:1;stroke-miterlimit:10;" d="M 32.196531 5.100344 C 31.27075 10.951906 28.427 13.662844 24.219969 17.869875 L 21.048094 21.045656 " transform="matrix(1,0,0,-1,33.323,33.323)"/>
</g>
<path style=" stroke:none;fill-rule:nonzero;fill:rgb(100%,100%,100%);fill-opacity:1;" d="M 46.191406 8.066406 L 50.191406 10.105469 C 55.242188 12.679688 58.53125 14.117188 61.105469 19.167969 L 62.367188 18.523438 C 59.679688 13.242188 56.136719 11.546875 50.835938 8.84375 L 46.835938 6.804688 "/>
<g clip-path="url(#clip5)" clip-rule="nonzero">
<path style="fill:none;stroke-width:0.3985;stroke-linecap:butt;stroke-linejoin:miter;stroke:rgb(0%,0%,0%);stroke-opacity:1;stroke-miterlimit:10;" d="M 12.868406 25.256594 L 16.868406 23.217531 C 21.919187 20.643313 25.20825 19.205813 27.782469 14.155031 " transform="matrix(1,0,0,-1,33.323,33.323)"/>
</g>
<g clip-path="url(#clip6)" clip-rule="nonzero">
<path style="fill:none;stroke-width:0.3985;stroke-linecap:butt;stroke-linejoin:miter;stroke:rgb(0%,0%,0%);stroke-opacity:1;stroke-miterlimit:10;" d="M 29.044187 14.799563 C 26.356687 20.080813 22.813719 21.776125 17.512937 24.47925 L 13.512937 26.518313 " transform="matrix(1,0,0,-1,33.323,33.323)"/>
</g>
<path style=" stroke:none;fill-rule:nonzero;fill:rgb(100%,100%,100%);fill-opacity:1;" d="M 37.757812 5.324219 L 42.191406 6.03125 C 47.789062 6.917969 51.363281 7.265625 55.371094 11.273438 L 56.375 10.273438 C 52.183594 6.082031 48.292969 5.5625 42.414062 4.628906 L 37.980469 3.925781 "/>
<path style="fill:none;stroke-width:0.3985;stroke-linecap:butt;stroke-linejoin:miter;stroke:rgb(0%,0%,0%);stroke-opacity:1;stroke-miterlimit:10;" d="M 4.434812 27.998781 L 8.868406 27.29175 C 14.466062 26.405031 18.040281 26.057375 22.048094 22.049563 " transform="matrix(1,0,0,-1,33.323,33.323)"/>
<path style="fill:none;stroke-width:0.3985;stroke-linecap:butt;stroke-linejoin:miter;stroke:rgb(0%,0%,0%);stroke-opacity:1;stroke-miterlimit:10;" d="M 23.052 23.049563 C 18.860594 27.240969 14.969969 27.7605 9.091062 28.694094 L 4.657469 29.397219 " transform="matrix(1,0,0,-1,33.323,33.323)"/>
<path style=" stroke:none;fill-rule:nonzero;fill:rgb(100%,100%,100%);fill-opacity:1;" d="M 28.886719 5.324219 L 33.324219 4.625 C 38.921875 3.738281 42.429688 2.964844 47.480469 5.539062 L 48.121094 4.277344 C 42.839844 1.585938 38.980469 2.292969 33.101562 3.226562 L 28.667969 3.925781 "/>
<path style="fill:none;stroke-width:0.3985;stroke-linecap:butt;stroke-linejoin:miter;stroke:rgb(0%,0%,0%);stroke-opacity:1;stroke-miterlimit:10;" d="M -4.436281 27.998781 L 0.00121875 28.698 C 5.598875 29.584719 9.106687 30.358156 14.157469 27.783938 " transform="matrix(1,0,0,-1,33.323,33.323)"/>
<path style="fill:none;stroke-width:0.3985;stroke-linecap:butt;stroke-linejoin:miter;stroke:rgb(0%,0%,0%);stroke-opacity:1;stroke-miterlimit:10;" d="M 14.798094 29.045656 C 9.516844 31.737063 5.657469 31.030031 -0.221438 30.096438 L -4.655031 29.397219 " transform="matrix(1,0,0,-1,33.323,33.323)"/>
<path style=" stroke:none;fill-rule:nonzero;fill:rgb(100%,100%,100%);fill-opacity:1;" d="M 20.453125 8.066406 L 24.457031 6.03125 C 29.507812 3.457031 32.601562 1.640625 38.199219 2.527344 L 38.421875 1.125 C 32.566406 0.199219 29.117188 2.066406 23.8125 4.765625 L 19.808594 6.804688 "/>
<path style="fill:none;stroke-width:0.3985;stroke-linecap:butt;stroke-linejoin:miter;stroke:rgb(0%,0%,0%);stroke-opacity:1;stroke-miterlimit:10;" d="M -12.869875 25.256594 L -8.865969 27.29175 C -3.815188 29.865969 -0.721438 31.682375 4.876219 30.795656 " transform="matrix(1,0,0,-1,33.323,33.323)"/>
<path style="fill:none;stroke-width:0.3985;stroke-linecap:butt;stroke-linejoin:miter;stroke:rgb(0%,0%,0%);stroke-opacity:1;stroke-miterlimit:10;" d="M 5.098875 32.198 C -0.756594 33.123781 -4.205813 31.256594 -9.5105 28.557375 L -13.514406 26.518313 " transform="matrix(1,0,0,-1,33.323,33.323)"/>
<path style=" stroke:none;fill-rule:nonzero;fill:rgb(100%,100%,100%);fill-opacity:1;" d="M 13.277344 13.277344 L 16.453125 10.105469 C 20.464844 6.097656 22.847656 3.414062 28.445312 2.527344 L 28.222656 1.125 C 22.371094 2.050781 19.660156 4.894531 15.453125 9.105469 L 12.277344 12.277344 "/>
<path style="fill:none;stroke-width:0.3985;stroke-linecap:butt;stroke-linejoin:miter;stroke:rgb(0%,0%,0%);stroke-opacity:1;stroke-miterlimit:10;" d="M -20.045656 20.045656 L -16.869875 23.217531 C -12.858156 27.225344 -10.475344 29.908938 -4.877688 30.795656 " transform="matrix(1,0,0,-1,33.323,33.323)"/>
<path style="fill:none;stroke-width:0.3985;stroke-linecap:butt;stroke-linejoin:miter;stroke:rgb(0%,0%,0%);stroke-opacity:1;stroke-miterlimit:10;" d="M -5.100344 32.198 C -10.951906 31.272219 -13.662844 28.428469 -17.869875 24.217531 L -21.045656 21.045656 " transform="matrix(1,0,0,-1,33.323,33.323)"/>
<path style=" stroke:none;fill-rule:nonzero;fill:rgb(100%,100%,100%);fill-opacity:1;" d="M 8.066406 20.453125 L 10.105469 16.453125 C 12.679688 11.402344 14.117188 8.113281 19.167969 5.539062 L 18.523438 4.277344 C 13.242188 6.96875 11.546875 10.507812 8.84375 15.8125 L 6.804688 19.808594 "/>
<path style="fill:none;stroke-width:0.3985;stroke-linecap:butt;stroke-linejoin:miter;stroke:rgb(0%,0%,0%);stroke-opacity:1;stroke-miterlimit:10;" d="M -25.256594 12.869875 L -23.217531 16.869875 C -20.643313 21.920656 -19.205813 25.209719 -14.155031 27.783938 " transform="matrix(1,0,0,-1,33.323,33.323)"/>
<path style="fill:none;stroke-width:0.3985;stroke-linecap:butt;stroke-linejoin:miter;stroke:rgb(0%,0%,0%);stroke-opacity:1;stroke-miterlimit:10;" d="M -14.799563 29.045656 C -20.080813 26.35425 -21.776125 22.815188 -24.47925 17.5105 L -26.518313 13.514406 " transform="matrix(1,0,0,-1,33.323,33.323)"/>
<path style=" stroke:none;fill-rule:nonzero;fill:rgb(100%,100%,100%);fill-opacity:1;" d="M 5.324219 28.886719 L 6.03125 24.457031 C 6.917969 18.855469 7.265625 15.28125 11.273438 11.273438 L 10.273438 10.273438 C 6.082031 14.464844 5.5625 18.355469 4.628906 24.234375 L 3.925781 28.667969 "/>
<path style="fill:none;stroke-width:0.3985;stroke-linecap:butt;stroke-linejoin:miter;stroke:rgb(0%,0%,0%);stroke-opacity:1;stroke-miterlimit:10;" d="M -27.998781 4.436281 L -27.29175 8.865969 C -26.405031 14.467531 -26.057375 18.04175 -22.049563 22.049563 " transform="matrix(1,0,0,-1,33.323,33.323)"/>
<path style="fill:none;stroke-width:0.3985;stroke-linecap:butt;stroke-linejoin:miter;stroke:rgb(0%,0%,0%);stroke-opacity:1;stroke-miterlimit:10;" d="M -23.049563 23.049563 C -27.240969 18.858156 -27.7605 14.967531 -28.694094 9.088625 L -29.397219 4.655031 " transform="matrix(1,0,0,-1,33.323,33.323)"/>
<path style=" stroke:none;fill-rule:nonzero;fill:rgb(100%,100%,100%);fill-opacity:1;" d="M 5.324219 37.757812 L 4.625 33.324219 C 3.738281 27.722656 2.964844 24.21875 5.539062 19.167969 L 4.277344 18.523438 C 1.585938 23.804688 2.292969 27.664062 3.226562 33.542969 L 3.925781 37.980469 "/>
<path style="fill:none;stroke-width:0.3985;stroke-linecap:butt;stroke-linejoin:miter;stroke:rgb(0%,0%,0%);stroke-opacity:1;stroke-miterlimit:10;" d="M -27.998781 -4.434812 L -28.698 -0.00121875 C -29.584719 5.600344 -30.358156 9.10425 -27.783938 14.155031 " transform="matrix(1,0,0,-1,33.323,33.323)"/>
<path style="fill:none;stroke-width:0.3985;stroke-linecap:butt;stroke-linejoin:miter;stroke:rgb(0%,0%,0%);stroke-opacity:1;stroke-miterlimit:10;" d="M -29.045656 14.799563 C -31.737063 9.518313 -31.030031 5.658938 -30.096438 -0.219969 L -29.397219 -4.657469 " transform="matrix(1,0,0,-1,33.323,33.323)"/>
<path style=" stroke:none;fill-rule:nonzero;fill:rgb(100%,100%,100%);fill-opacity:1;" d="M 8.066406 46.191406 L 6.03125 42.191406 C 3.457031 37.140625 1.640625 34.042969 2.527344 28.445312 L 1.125 28.222656 C 0.199219 34.078125 2.066406 37.53125 4.765625 42.835938 L 6.804688 46.835938 "/>
<path style="fill:none;stroke-width:0.3985;stroke-linecap:butt;stroke-linejoin:miter;stroke:rgb(0%,0%,0%);stroke-opacity:1;stroke-miterlimit:10;" d="M -25.256594 -12.868406 L -27.29175 -8.868406 C -29.865969 -3.817625 -31.682375 -0.719969 -30.795656 4.877688 " transform="matrix(1,0,0,-1,33.323,33.323)"/>
<path style="fill:none;stroke-width:0.3985;stroke-linecap:butt;stroke-linejoin:miter;stroke:rgb(0%,0%,0%);stroke-opacity:1;stroke-miterlimit:10;" d="M -32.198 5.100344 C -33.123781 -0.755125 -31.256594 -4.20825 -28.557375 -9.512937 L -26.518313 -13.512937 " transform="matrix(1,0,0,-1,33.323,33.323)"/>
<path style=" stroke:none;fill-rule:nonzero;fill:rgb(100%,100%,100%);fill-opacity:1;" d="M 13.277344 53.367188 L 10.105469 50.191406 C 6.097656 46.183594 3.414062 43.800781 2.527344 38.199219 L 1.125 38.421875 C 2.050781 44.277344 4.894531 46.984375 9.105469 51.191406 L 12.277344 54.371094 "/>
<path style="fill:none;stroke-width:0.3985;stroke-linecap:butt;stroke-linejoin:miter;stroke:rgb(0%,0%,0%);stroke-opacity:1;stroke-miterlimit:10;" d="M -20.045656 -20.044187 L -23.217531 -16.868406 C -27.225344 -12.860594 -29.908938 -10.477781 -30.795656 -4.876219 " transform="matrix(1,0,0,-1,33.323,33.323)"/>
<path style="fill:none;stroke-width:0.3985;stroke-linecap:butt;stroke-linejoin:miter;stroke:rgb(0%,0%,0%);stroke-opacity:1;stroke-miterlimit:10;" d="M -32.198 -5.098875 C -31.272219 -10.954344 -28.428469 -13.661375 -24.217531 -17.868406 L -21.045656 -21.048094 " transform="matrix(1,0,0,-1,33.323,33.323)"/>
<path style=" stroke:none;fill-rule:nonzero;fill:rgb(100%,100%,100%);fill-opacity:1;" d="M 20.453125 58.582031 L 16.453125 56.539062 C 11.402344 53.964844 8.113281 52.53125 5.539062 47.480469 L 4.277344 48.121094 C 6.96875 53.402344 10.507812 55.101562 15.8125 57.800781 L 19.808594 59.84375 "/>
<path style="fill:none;stroke-width:0.3985;stroke-linecap:butt;stroke-linejoin:miter;stroke:rgb(0%,0%,0%);stroke-opacity:1;stroke-miterlimit:10;" d="M -12.869875 -25.259031 L -16.869875 -23.216062 C -21.920656 -20.641844 -25.209719 -19.20825 -27.783938 -14.157469 " transform="matrix(1,0,0,-1,33.323,33.323)"/>
<path style="fill:none;stroke-width:0.3985;stroke-linecap:butt;stroke-linejoin:miter;stroke:rgb(0%,0%,0%);stroke-opacity:1;stroke-miterlimit:10;" d="M -29.045656 -14.798094 C -26.35425 -20.079344 -22.815188 -21.778562 -17.5105 -24.477781 L -13.514406 -26.52075 " transform="matrix(1,0,0,-1,33.323,33.323)"/>
<path style=" stroke:none;fill-rule:nonzero;fill:rgb(100%,100%,100%);fill-opacity:1;" d="M 28.886719 61.320312 L 24.457031 60.617188 C 18.855469 59.730469 15.28125 59.378906 11.273438 55.371094 L 10.273438 56.375 C 14.464844 60.566406 18.355469 61.085938 24.234375 62.015625 L 28.667969 62.71875 "/>
<g clip-path="url(#clip7)" clip-rule="nonzero">
<path style="fill:none;stroke-width:0.3985;stroke-linecap:butt;stroke-linejoin:miter;stroke:rgb(0%,0%,0%);stroke-opacity:1;stroke-miterlimit:10;" d="M -4.436281 -27.997312 L -8.865969 -27.294187 C -14.467531 -26.407469 -18.04175 -26.055906 -22.049563 -22.048094 " transform="matrix(1,0,0,-1,33.323,33.323)"/>
</g>
<g clip-path="url(#clip8)" clip-rule="nonzero">
<path style="fill:none;stroke-width:0.3985;stroke-linecap:butt;stroke-linejoin:miter;stroke:rgb(0%,0%,0%);stroke-opacity:1;stroke-miterlimit:10;" d="M -23.049563 -23.052 C -18.858156 -27.243406 -14.967531 -27.762937 -9.088625 -28.692625 L -4.655031 -29.39575 " transform="matrix(1,0,0,-1,33.323,33.323)"/>
</g>
<path style=" stroke:none;fill-rule:nonzero;fill:rgb(100%,100%,100%);fill-opacity:1;" d="M 37.757812 61.320312 L 33.324219 62.019531 C 27.722656 62.90625 24.21875 63.679688 19.167969 61.105469 L 18.523438 62.367188 C 23.804688 65.058594 27.664062 64.351562 33.542969 63.421875 L 37.980469 62.71875 "/>
<g clip-path="url(#clip9)" clip-rule="nonzero">
<path style="fill:none;stroke-width:0.3985;stroke-linecap:butt;stroke-linejoin:miter;stroke:rgb(0%,0%,0%);stroke-opacity:1;stroke-miterlimit:10;" d="M 4.434812 -27.997312 L 0.00121875 -28.696531 C -5.600344 -29.58325 -9.10425 -30.356687 -14.155031 -27.782469 " transform="matrix(1,0,0,-1,33.323,33.323)"/>
</g>
<g clip-path="url(#clip10)" clip-rule="nonzero">
<path style="fill:none;stroke-width:0.3985;stroke-linecap:butt;stroke-linejoin:miter;stroke:rgb(0%,0%,0%);stroke-opacity:1;stroke-miterlimit:10;" d="M -14.799563 -29.044187 C -9.518313 -31.735594 -5.658938 -31.028562 0.219969 -30.098875 L 4.657469 -29.39575 " transform="matrix(1,0,0,-1,33.323,33.323)"/>
</g>
<path style=" stroke:none;fill-rule:nonzero;fill:rgb(100%,100%,100%);fill-opacity:1;" d="M 46.191406 58.582031 L 42.191406 60.617188 C 37.140625 63.191406 34.042969 65.007812 28.445312 64.121094 L 28.222656 65.519531 C 34.078125 66.445312 37.53125 64.582031 42.835938 61.878906 L 46.835938 59.84375 "/>
<g clip-path="url(#clip11)" clip-rule="nonzero">
<path style="fill:none;stroke-width:0.3985;stroke-linecap:butt;stroke-linejoin:miter;stroke:rgb(0%,0%,0%);stroke-opacity:1;stroke-miterlimit:10;" d="M 12.868406 -25.259031 L 8.868406 -27.294187 C 3.817625 -29.868406 0.719969 -31.684812 -4.877688 -30.798094 " transform="matrix(1,0,0,-1,33.323,33.323)"/>
</g>
<g clip-path="url(#clip12)" clip-rule="nonzero">
<path style="fill:none;stroke-width:0.3985;stroke-linecap:butt;stroke-linejoin:miter;stroke:rgb(0%,0%,0%);stroke-opacity:1;stroke-miterlimit:10;" d="M -5.100344 -32.196531 C 0.755125 -33.122312 4.20825 -31.259031 9.512937 -28.555906 L 13.512937 -26.52075 " transform="matrix(1,0,0,-1,33.323,33.323)"/>
</g>
<path style=" stroke:none;fill-rule:nonzero;fill:rgb(100%,100%,100%);fill-opacity:1;" d="M 53.367188 53.367188 L 50.191406 56.539062 C 46.183594 60.546875 43.800781 63.234375 38.199219 64.121094 L 38.421875 65.519531 C 44.277344 64.59375 46.984375 61.75 51.191406 57.542969 L 54.371094 54.371094 "/>
<g clip-path="url(#clip13)" clip-rule="nonzero">
<path style="fill:none;stroke-width:0.3985;stroke-linecap:butt;stroke-linejoin:miter;stroke:rgb(0%,0%,0%);stroke-opacity:1;stroke-miterlimit:10;" d="M 20.044187 -20.044187 L 16.868406 -23.216062 C 12.860594 -27.223875 10.477781 -29.911375 4.876219 -30.798094 " transform="matrix(1,0,0,-1,33.323,33.323)"/>
</g>
<g clip-path="url(#clip14)" clip-rule="nonzero">
<path style="fill:none;stroke-width:0.3985;stroke-linecap:butt;stroke-linejoin:miter;stroke:rgb(0%,0%,0%);stroke-opacity:1;stroke-miterlimit:10;" d="M 5.098875 -32.196531 C 10.954344 -31.27075 13.661375 -28.427 17.868406 -24.219969 L 21.048094 -21.048094 " transform="matrix(1,0,0,-1,33.323,33.323)"/>
</g>
<path style=" stroke:none;fill-rule:nonzero;fill:rgb(100%,100%,100%);fill-opacity:1;" d="M 58.582031 46.191406 L 56.539062 50.191406 C 53.964844 55.242188 52.53125 58.53125 47.480469 61.105469 L 48.121094 62.367188 C 53.402344 59.679688 55.101562 56.136719 57.800781 50.835938 L 59.84375 46.835938 "/>
<g clip-path="url(#clip15)" clip-rule="nonzero">
<path style="fill:none;stroke-width:0.3985;stroke-linecap:butt;stroke-linejoin:miter;stroke:rgb(0%,0%,0%);stroke-opacity:1;stroke-miterlimit:10;" d="M 25.259031 -12.868406 L 23.216062 -16.868406 C 20.641844 -21.919187 19.20825 -25.20825 14.157469 -27.782469 " transform="matrix(1,0,0,-1,33.323,33.323)"/>
</g>
<g clip-path="url(#clip16)" clip-rule="nonzero">
<path style="fill:none;stroke-width:0.3985;stroke-linecap:butt;stroke-linejoin:miter;stroke:rgb(0%,0%,0%);stroke-opacity:1;stroke-miterlimit:10;" d="M 14.798094 -29.044187 C 20.079344 -26.356687 21.778562 -22.813719 24.477781 -17.512937 L 26.52075 -13.512937 " transform="matrix(1,0,0,-1,33.323,33.323)"/>
</g>
<path style=" stroke:none;fill-rule:nonzero;fill:rgb(100%,100%,100%);fill-opacity:1;" d="M 61.320312 37.757812 L 60.617188 42.191406 C 59.730469 47.789062 59.378906 51.363281 55.371094 55.371094 L 56.375 56.375 C 60.566406 52.183594 61.085938 48.292969 62.015625 42.414062 L 62.71875 37.980469 "/>
<g clip-path="url(#clip17)" clip-rule="nonzero">
<path style="fill:none;stroke-width:0.3985;stroke-linecap:butt;stroke-linejoin:miter;stroke:rgb(0%,0%,0%);stroke-opacity:1;stroke-miterlimit:10;" d="M 27.997312 -4.434812 L 27.294187 -8.868406 C 26.407469 -14.466062 26.055906 -18.040281 22.048094 -22.048094 " transform="matrix(1,0,0,-1,33.323,33.323)"/>
</g>
<g clip-path="url(#clip18)" clip-rule="nonzero">
<path style="fill:none;stroke-width:0.3985;stroke-linecap:butt;stroke-linejoin:miter;stroke:rgb(0%,0%,0%);stroke-opacity:1;stroke-miterlimit:10;" d="M 23.052 -23.052 C 27.243406 -18.860594 27.762937 -14.969969 28.692625 -9.091062 L 29.39575 -4.657469 " transform="matrix(1,0,0,-1,33.323,33.323)"/>
</g>
<path style=" stroke:none;fill-rule:nonzero;fill:rgb(100%,100%,100%);fill-opacity:1;" d="M 61.320312 28.886719 L 62.019531 33.324219 C 62.90625 38.921875 63.679688 42.429688 61.105469 47.480469 L 62.367188 48.121094 C 65.058594 42.839844 64.351562 38.980469 63.421875 33.101562 L 62.71875 28.667969 "/>
<g clip-path="url(#clip19)" clip-rule="nonzero">
<path style="fill:none;stroke-width:0.3985;stroke-linecap:butt;stroke-linejoin:miter;stroke:rgb(0%,0%,0%);stroke-opacity:1;stroke-miterlimit:10;" d="M 27.997312 4.436281 L 28.696531 -0.00121875 C 29.58325 -5.598875 30.356687 -9.106687 27.782469 -14.157469 " transform="matrix(1,0,0,-1,33.323,33.323)"/>
</g>
<g clip-path="url(#clip20)" clip-rule="nonzero">
<path style="fill:none;stroke-width:0.3985;stroke-linecap:butt;stroke-linejoin:miter;stroke:rgb(0%,0%,0%);stroke-opacity:1;stroke-miterlimit:10;" d="M 29.044187 -14.798094 C 31.735594 -9.516844 31.028562 -5.657469 30.098875 0.221438 L 29.39575 4.655031 " transform="matrix(1,0,0,-1,33.323,33.323)"/>
</g>
<path style=" stroke:none;fill-rule:nonzero;fill:rgb(100%,100%,100%);fill-opacity:1;" d="M 61.320312 28.886719 L 60.617188 24.457031 C 59.730469 18.855469 59.378906 15.28125 55.371094 11.273438 L 56.375 10.273438 C 60.566406 14.464844 61.085938 18.355469 62.015625 24.234375 L 62.71875 28.667969 "/>
<g clip-path="url(#clip21)" clip-rule="nonzero">
<path style="fill:none;stroke-width:0.3985;stroke-linecap:butt;stroke-linejoin:miter;stroke:rgb(0%,0%,0%);stroke-opacity:1;stroke-miterlimit:10;" d="M 27.997312 4.436281 L 27.294187 8.865969 C 26.407469 14.467531 26.055906 18.04175 22.048094 22.049563 " transform="matrix(1,0,0,-1,33.323,33.323)"/>
</g>
<g clip-path="url(#clip22)" clip-rule="nonzero">
<path style="fill:none;stroke-width:0.3985;stroke-linecap:butt;stroke-linejoin:miter;stroke:rgb(0%,0%,0%);stroke-opacity:1;stroke-miterlimit:10;" d="M 29.39575 4.655031 L 28.692625 9.088625 C 27.762937 14.967531 27.243406 18.858156 23.052 23.049563 " transform="matrix(1,0,0,-1,33.323,33.323)"/>
</g>
<path style=" stroke:none;fill-rule:nonzero;fill:rgb(100%,100%,100%);fill-opacity:1;" d="M 58.582031 20.453125 L 56.539062 16.453125 C 53.964844 11.402344 52.53125 8.113281 47.480469 5.539062 L 48.121094 4.277344 C 53.402344 6.96875 55.101562 10.507812 57.800781 15.8125 L 59.84375 19.808594 "/>
<path style="fill:none;stroke-width:0.3985;stroke-linecap:butt;stroke-linejoin:miter;stroke:rgb(0%,0%,0%);stroke-opacity:1;stroke-miterlimit:10;" d="M 25.259031 12.869875 L 23.216062 16.869875 C 20.641844 21.920656 19.20825 25.209719 14.157469 27.783938 " transform="matrix(1,0,0,-1,33.323,33.323)"/>
<path style="fill:none;stroke-width:0.3985;stroke-linecap:butt;stroke-linejoin:miter;stroke:rgb(0%,0%,0%);stroke-opacity:1;stroke-miterlimit:10;" d="M 26.52075 13.514406 L 24.477781 17.5105 C 21.778562 22.815188 20.079344 26.35425 14.798094 29.045656 " transform="matrix(1,0,0,-1,33.323,33.323)"/>
<path style=" stroke:none;fill-rule:nonzero;fill:rgb(100%,100%,100%);fill-opacity:1;" d="M 53.367188 13.277344 L 50.191406 10.105469 C 46.183594 6.097656 43.800781 3.414062 38.199219 2.527344 L 38.421875 1.125 C 44.277344 2.050781 46.984375 4.894531 51.191406 9.105469 L 54.371094 12.277344 "/>
<path style="fill:none;stroke-width:0.3985;stroke-linecap:butt;stroke-linejoin:miter;stroke:rgb(0%,0%,0%);stroke-opacity:1;stroke-miterlimit:10;" d="M 20.044187 20.045656 L 16.868406 23.217531 C 12.860594 27.225344 10.477781 29.908938 4.876219 30.795656 " transform="matrix(1,0,0,-1,33.323,33.323)"/>
<path style="fill:none;stroke-width:0.3985;stroke-linecap:butt;stroke-linejoin:miter;stroke:rgb(0%,0%,0%);stroke-opacity:1;stroke-miterlimit:10;" d="M 21.048094 21.045656 L 17.868406 24.217531 C 13.661375 28.428469 10.954344 31.272219 5.098875 32.198 " transform="matrix(1,0,0,-1,33.323,33.323)"/>
<path style=" stroke:none;fill-rule:nonzero;fill:rgb(100%,100%,100%);fill-opacity:1;" d="M 46.191406 8.066406 L 42.191406 6.03125 C 37.140625 3.457031 34.042969 1.640625 28.445312 2.527344 L 28.222656 1.125 C 34.078125 0.199219 37.53125 2.066406 42.835938 4.765625 L 46.835938 6.804688 "/>
<path style="fill:none;stroke-width:0.3985;stroke-linecap:butt;stroke-linejoin:miter;stroke:rgb(0%,0%,0%);stroke-opacity:1;stroke-miterlimit:10;" d="M 12.868406 25.256594 L 8.868406 27.29175 C 3.817625 29.865969 0.719969 31.682375 -4.877688 30.795656 " transform="matrix(1,0,0,-1,33.323,33.323)"/>
<path style="fill:none;stroke-width:0.3985;stroke-linecap:butt;stroke-linejoin:miter;stroke:rgb(0%,0%,0%);stroke-opacity:1;stroke-miterlimit:10;" d="M 13.512937 26.518313 L 9.512937 28.557375 C 4.20825 31.256594 0.755125 33.123781 -5.100344 32.198 " transform="matrix(1,0,0,-1,33.323,33.323)"/>
<path style=" stroke:none;fill-rule:nonzero;fill:rgb(100%,100%,100%);fill-opacity:1;" d="M 37.757812 5.324219 L 33.324219 4.625 C 27.722656 3.738281 24.21875 2.964844 19.167969 5.539062 L 18.523438 4.277344 C 23.804688 1.585938 27.664062 2.292969 33.542969 3.226562 L 37.980469 3.925781 "/>
<path style="fill:none;stroke-width:0.3985;stroke-linecap:butt;stroke-linejoin:miter;stroke:rgb(0%,0%,0%);stroke-opacity:1;stroke-miterlimit:10;" d="M 4.434812 27.998781 L 0.00121875 28.698 C -5.600344 29.584719 -9.10425 30.358156 -14.155031 27.783938 " transform="matrix(1,0,0,-1,33.323,33.323)"/>
<path style="fill:none;stroke-width:0.3985;stroke-linecap:butt;stroke-linejoin:miter;stroke:rgb(0%,0%,0%);stroke-opacity:1;stroke-miterlimit:10;" d="M 4.657469 29.397219 L 0.219969 30.096438 C -5.658938 31.030031 -9.518313 31.737063 -14.799563 29.045656 " transform="matrix(1,0,0,-1,33.323,33.323)"/>
<path style=" stroke:none;fill-rule:nonzero;fill:rgb(100%,100%,100%);fill-opacity:1;" d="M 28.886719 5.324219 L 24.457031 6.03125 C 18.855469 6.917969 15.28125 7.265625 11.273438 11.273438 L 10.273438 10.273438 C 14.464844 6.082031 18.355469 5.5625 24.234375 4.628906 L 28.667969 3.925781 "/>
<path style="fill:none;stroke-width:0.3985;stroke-linecap:butt;stroke-linejoin:miter;stroke:rgb(0%,0%,0%);stroke-opacity:1;stroke-miterlimit:10;" d="M -4.436281 27.998781 L -8.865969 27.29175 C -14.467531 26.405031 -18.04175 26.057375 -22.049563 22.049563 " transform="matrix(1,0,0,-1,33.323,33.323)"/>
<path style="fill:none;stroke-width:0.3985;stroke-linecap:butt;stroke-linejoin:miter;stroke:rgb(0%,0%,0%);stroke-opacity:1;stroke-miterlimit:10;" d="M -4.655031 29.397219 L -9.088625 28.694094 C -14.967531 27.7605 -18.858156 27.240969 -23.049563 23.049563 " transform="matrix(1,0,0,-1,33.323,33.323)"/>
<path style=" stroke:none;fill-rule:nonzero;fill:rgb(100%,100%,100%);fill-opacity:1;" d="M 20.453125 8.066406 L 16.453125 10.105469 C 11.402344 12.679688 8.113281 14.117188 5.539062 19.167969 L 4.277344 18.523438 C 6.96875 13.242188 10.507812 11.546875 15.8125 8.84375 L 19.808594 6.804688 "/>
<path style="fill:none;stroke-width:0.3985;stroke-linecap:butt;stroke-linejoin:miter;stroke:rgb(0%,0%,0%);stroke-opacity:1;stroke-miterlimit:10;" d="M -12.869875 25.256594 L -16.869875 23.217531 C -21.920656 20.643313 -25.209719 19.205813 -27.783938 14.155031 " transform="matrix(1,0,0,-1,33.323,33.323)"/>
<path style="fill:none;stroke-width:0.3985;stroke-linecap:butt;stroke-linejoin:miter;stroke:rgb(0%,0%,0%);stroke-opacity:1;stroke-miterlimit:10;" d="M -13.514406 26.518313 L -17.5105 24.47925 C -22.815188 21.776125 -26.35425 20.080813 -29.045656 14.799563 " transform="matrix(1,0,0,-1,33.323,33.323)"/>
<path style=" stroke:none;fill-rule:nonzero;fill:rgb(100%,100%,100%);fill-opacity:1;" d="M 13.277344 13.277344 L 10.105469 16.453125 C 6.097656 20.464844 3.414062 22.847656 2.527344 28.445312 L 1.125 28.222656 C 2.050781 22.371094 4.894531 19.660156 9.105469 15.453125 L 12.277344 12.277344 "/>
<path style="fill:none;stroke-width:0.3985;stroke-linecap:butt;stroke-linejoin:miter;stroke:rgb(0%,0%,0%);stroke-opacity:1;stroke-miterlimit:10;" d="M -20.045656 20.045656 L -23.217531 16.869875 C -27.225344 12.858156 -29.908938 10.475344 -30.795656 4.877688 " transform="matrix(1,0,0,-1,33.323,33.323)"/>
<path style="fill:none;stroke-width:0.3985;stroke-linecap:butt;stroke-linejoin:miter;stroke:rgb(0%,0%,0%);stroke-opacity:1;stroke-miterlimit:10;" d="M -21.045656 21.045656 L -24.217531 17.869875 C -28.428469 13.662844 -31.272219 10.951906 -32.198 5.100344 " transform="matrix(1,0,0,-1,33.323,33.323)"/>
<path style=" stroke:none;fill-rule:nonzero;fill:rgb(100%,100%,100%);fill-opacity:1;" d="M 8.066406 20.453125 L 6.03125 24.457031 C 3.457031 29.507812 1.640625 32.601562 2.527344 38.199219 L 1.125 38.421875 C 0.199219 32.566406 2.066406 29.117188 4.765625 23.8125 L 6.804688 19.808594 "/>
<path style="fill:none;stroke-width:0.3985;stroke-linecap:butt;stroke-linejoin:miter;stroke:rgb(0%,0%,0%);stroke-opacity:1;stroke-miterlimit:10;" d="M -25.256594 12.869875 L -27.29175 8.865969 C -29.865969 3.815188 -31.682375 0.721438 -30.795656 -4.876219 " transform="matrix(1,0,0,-1,33.323,33.323)"/>
<path style="fill:none;stroke-width:0.3985;stroke-linecap:butt;stroke-linejoin:miter;stroke:rgb(0%,0%,0%);stroke-opacity:1;stroke-miterlimit:10;" d="M -26.518313 13.514406 L -28.557375 9.5105 C -31.256594 4.205813 -33.123781 0.756594 -32.198 -5.098875 " transform="matrix(1,0,0,-1,33.323,33.323)"/>
<path style=" stroke:none;fill-rule:nonzero;fill:rgb(100%,100%,100%);fill-opacity:1;" d="M 5.324219 28.886719 L 4.625 33.324219 C 3.738281 38.921875 2.964844 42.429688 5.539062 47.480469 L 4.277344 48.121094 C 1.585938 42.839844 2.292969 38.980469 3.226562 33.101562 L 3.925781 28.667969 "/>
<path style="fill:none;stroke-width:0.3985;stroke-linecap:butt;stroke-linejoin:miter;stroke:rgb(0%,0%,0%);stroke-opacity:1;stroke-miterlimit:10;" d="M -27.998781 4.436281 L -28.698 -0.00121875 C -29.584719 -5.598875 -30.358156 -9.106687 -27.783938 -14.157469 " transform="matrix(1,0,0,-1,33.323,33.323)"/>
<path style="fill:none;stroke-width:0.3985;stroke-linecap:butt;stroke-linejoin:miter;stroke:rgb(0%,0%,0%);stroke-opacity:1;stroke-miterlimit:10;" d="M -29.397219 4.655031 L -30.096438 0.221438 C -31.030031 -5.657469 -31.737063 -9.516844 -29.045656 -14.798094 " transform="matrix(1,0,0,-1,33.323,33.323)"/>
<path style=" stroke:none;fill-rule:nonzero;fill:rgb(100%,100%,100%);fill-opacity:1;" d="M 5.324219 37.757812 L 6.03125 42.191406 C 6.917969 47.789062 7.265625 51.363281 11.273438 55.371094 L 10.273438 56.375 C 6.082031 52.183594 5.5625 48.292969 4.628906 42.414062 L 3.925781 37.980469 "/>
<path style="fill:none;stroke-width:0.3985;stroke-linecap:butt;stroke-linejoin:miter;stroke:rgb(0%,0%,0%);stroke-opacity:1;stroke-miterlimit:10;" d="M -27.998781 -4.434812 L -27.29175 -8.868406 C -26.405031 -14.466062 -26.057375 -18.040281 -22.049563 -22.048094 " transform="matrix(1,0,0,-1,33.323,33.323)"/>
<path style="fill:none;stroke-width:0.3985;stroke-linecap:butt;stroke-linejoin:miter;stroke:rgb(0%,0%,0%);stroke-opacity:1;stroke-miterlimit:10;" d="M -29.397219 -4.657469 L -28.694094 -9.091062 C -27.7605 -14.969969 -27.240969 -18.860594 -23.049563 -23.052 " transform="matrix(1,0,0,-1,33.323,33.323)"/>
<path style=" stroke:none;fill-rule:nonzero;fill:rgb(100%,100%,100%);fill-opacity:1;" d="M 8.066406 46.191406 L 10.105469 50.191406 C 12.679688 55.242188 14.117188 58.53125 19.167969 61.105469 L 18.523438 62.367188 C 13.242188 59.679688 11.546875 56.136719 8.84375 50.835938 L 6.804688 46.835938 "/>
<g clip-path="url(#clip23)" clip-rule="nonzero">
<path style="fill:none;stroke-width:0.3985;stroke-linecap:butt;stroke-linejoin:miter;stroke:rgb(0%,0%,0%);stroke-opacity:1;stroke-miterlimit:10;" d="M -25.256594 -12.868406 L -23.217531 -16.868406 C -20.643313 -21.919187 -19.205813 -25.20825 -14.155031 -27.782469 " transform="matrix(1,0,0,-1,33.323,33.323)"/>
</g>
<g clip-path="url(#clip24)" clip-rule="nonzero">
<path style="fill:none;stroke-width:0.3985;stroke-linecap:butt;stroke-linejoin:miter;stroke:rgb(0%,0%,0%);stroke-opacity:1;stroke-miterlimit:10;" d="M -26.518313 -13.512937 L -24.47925 -17.512937 C -21.776125 -22.813719 -20.080813 -26.356687 -14.799563 -29.044187 " transform="matrix(1,0,0,-1,33.323,33.323)"/>
</g>
<path style=" stroke:none;fill-rule:nonzero;fill:rgb(100%,100%,100%);fill-opacity:1;" d="M 13.277344 53.367188 L 16.453125 56.539062 C 20.464844 60.546875 22.847656 63.234375 28.445312 64.121094 L 28.222656 65.519531 C 22.371094 64.59375 19.660156 61.75 15.453125 57.542969 L 12.277344 54.371094 "/>
<g clip-path="url(#clip25)" clip-rule="nonzero">
<path style="fill:none;stroke-width:0.3985;stroke-linecap:butt;stroke-linejoin:miter;stroke:rgb(0%,0%,0%);stroke-opacity:1;stroke-miterlimit:10;" d="M -20.045656 -20.044187 L -16.869875 -23.216062 C -12.858156 -27.223875 -10.475344 -29.911375 -4.877688 -30.798094 " transform="matrix(1,0,0,-1,33.323,33.323)"/>
</g>
<g clip-path="url(#clip26)" clip-rule="nonzero">
<path style="fill:none;stroke-width:0.3985;stroke-linecap:butt;stroke-linejoin:miter;stroke:rgb(0%,0%,0%);stroke-opacity:1;stroke-miterlimit:10;" d="M -21.045656 -21.048094 L -17.869875 -24.219969 C -13.662844 -28.427 -10.951906 -31.27075 -5.100344 -32.196531 " transform="matrix(1,0,0,-1,33.323,33.323)"/>
</g>
<path style=" stroke:none;fill-rule:nonzero;fill:rgb(100%,100%,100%);fill-opacity:1;" d="M 20.453125 58.582031 L 24.457031 60.617188 C 29.507812 63.191406 32.601562 65.007812 38.199219 64.121094 L 38.421875 65.519531 C 32.566406 66.445312 29.117188 64.582031 23.8125 61.878906 L 19.808594 59.84375 "/>
<g clip-path="url(#clip27)" clip-rule="nonzero">
<path style="fill:none;stroke-width:0.3985;stroke-linecap:butt;stroke-linejoin:miter;stroke:rgb(0%,0%,0%);stroke-opacity:1;stroke-miterlimit:10;" d="M -12.869875 -25.259031 L -8.865969 -27.294187 C -3.815188 -29.868406 -0.721438 -31.684812 4.876219 -30.798094 " transform="matrix(1,0,0,-1,33.323,33.323)"/>
</g>
<g clip-path="url(#clip28)" clip-rule="nonzero">
<path style="fill:none;stroke-width:0.3985;stroke-linecap:butt;stroke-linejoin:miter;stroke:rgb(0%,0%,0%);stroke-opacity:1;stroke-miterlimit:10;" d="M -13.514406 -26.52075 L -9.5105 -28.555906 C -4.205813 -31.259031 -0.756594 -33.122312 5.098875 -32.196531 " transform="matrix(1,0,0,-1,33.323,33.323)"/>
</g>
<path style=" stroke:none;fill-rule:nonzero;fill:rgb(100%,100%,100%);fill-opacity:1;" d="M 28.886719 61.320312 L 33.324219 62.019531 C 38.921875 62.90625 42.429688 63.679688 47.480469 61.105469 L 48.121094 62.367188 C 42.839844 65.058594 38.980469 64.351562 33.101562 63.421875 L 28.667969 62.71875 "/>
<g clip-path="url(#clip29)" clip-rule="nonzero">
<path style="fill:none;stroke-width:0.3985;stroke-linecap:butt;stroke-linejoin:miter;stroke:rgb(0%,0%,0%);stroke-opacity:1;stroke-miterlimit:10;" d="M -4.436281 -27.997312 L 0.00121875 -28.696531 C 5.598875 -29.58325 9.106687 -30.356687 14.157469 -27.782469 " transform="matrix(1,0,0,-1,33.323,33.323)"/>
</g>
<g clip-path="url(#clip30)" clip-rule="nonzero">
<path style="fill:none;stroke-width:0.3985;stroke-linecap:butt;stroke-linejoin:miter;stroke:rgb(0%,0%,0%);stroke-opacity:1;stroke-miterlimit:10;" d="M -4.655031 -29.39575 L -0.221438 -30.098875 C 5.657469 -31.028562 9.516844 -31.735594 14.798094 -29.044187 " transform="matrix(1,0,0,-1,33.323,33.323)"/>
</g>
<path style=" stroke:none;fill-rule:nonzero;fill:rgb(100%,100%,100%);fill-opacity:1;" d="M 37.757812 61.320312 L 42.191406 60.617188 C 47.789062 59.730469 51.363281 59.378906 55.371094 55.371094 L 56.375 56.375 C 52.183594 60.566406 48.292969 61.085938 42.414062 62.015625 L 37.980469 62.71875 "/>
<g clip-path="url(#clip31)" clip-rule="nonzero">
<path style="fill:none;stroke-width:0.3985;stroke-linecap:butt;stroke-linejoin:miter;stroke:rgb(0%,0%,0%);stroke-opacity:1;stroke-miterlimit:10;" d="M 4.434812 -27.997312 L 8.868406 -27.294187 C 14.466062 -26.407469 18.040281 -26.055906 22.048094 -22.048094 " transform="matrix(1,0,0,-1,33.323,33.323)"/>
</g>
<g clip-path="url(#clip32)" clip-rule="nonzero">
<path style="fill:none;stroke-width:0.3985;stroke-linecap:butt;stroke-linejoin:miter;stroke:rgb(0%,0%,0%);stroke-opacity:1;stroke-miterlimit:10;" d="M 4.657469 -29.39575 L 9.091062 -28.692625 C 14.969969 -27.762937 18.860594 -27.243406 23.052 -23.052 " transform="matrix(1,0,0,-1,33.323,33.323)"/>
</g>
<path style=" stroke:none;fill-rule:nonzero;fill:rgb(100%,100%,100%);fill-opacity:1;" d="M 46.191406 58.582031 L 50.191406 56.539062 C 55.242188 53.964844 58.53125 52.53125 61.105469 47.480469 L 62.367188 48.121094 C 59.679688 53.402344 56.136719 55.101562 50.835938 57.800781 L 46.835938 59.84375 "/>
<g clip-path="url(#clip33)" clip-rule="nonzero">
<path style="fill:none;stroke-width:0.3985;stroke-linecap:butt;stroke-linejoin:miter;stroke:rgb(0%,0%,0%);stroke-opacity:1;stroke-miterlimit:10;" d="M 12.868406 -25.259031 L 16.868406 -23.216062 C 21.919187 -20.641844 25.20825 -19.20825 27.782469 -14.157469 " transform="matrix(1,0,0,-1,33.323,33.323)"/>
</g>
<g clip-path="url(#clip34)" clip-rule="nonzero">
<path style="fill:none;stroke-width:0.3985;stroke-linecap:butt;stroke-linejoin:miter;stroke:rgb(0%,0%,0%);stroke-opacity:1;stroke-miterlimit:10;" d="M 13.512937 -26.52075 L 17.512937 -24.477781 C 22.813719 -21.778562 26.356687 -20.079344 29.044187 -14.798094 " transform="matrix(1,0,0,-1,33.323,33.323)"/>
</g>
<path style=" stroke:none;fill-rule:nonzero;fill:rgb(100%,100%,100%);fill-opacity:1;" d="M 53.367188 53.367188 L 56.539062 50.191406 C 60.546875 46.183594 63.234375 43.800781 64.121094 38.199219 L 65.519531 38.421875 C 64.59375 44.277344 61.75 46.984375 57.542969 51.191406 L 54.371094 54.371094 "/>
<g clip-path="url(#clip35)" clip-rule="nonzero">
<path style="fill:none;stroke-width:0.3985;stroke-linecap:butt;stroke-linejoin:miter;stroke:rgb(0%,0%,0%);stroke-opacity:1;stroke-miterlimit:10;" d="M 20.044187 -20.044187 L 23.216062 -16.868406 C 27.223875 -12.860594 29.911375 -10.477781 30.798094 -4.876219 " transform="matrix(1,0,0,-1,33.323,33.323)"/>
</g>
<g clip-path="url(#clip36)" clip-rule="nonzero">
<path style="fill:none;stroke-width:0.3985;stroke-linecap:butt;stroke-linejoin:miter;stroke:rgb(0%,0%,0%);stroke-opacity:1;stroke-miterlimit:10;" d="M 21.048094 -21.048094 L 24.219969 -17.868406 C 28.427 -13.661375 31.27075 -10.954344 32.196531 -5.098875 " transform="matrix(1,0,0,-1,33.323,33.323)"/>
</g>
<path style=" stroke:none;fill-rule:nonzero;fill:rgb(100%,100%,100%);fill-opacity:1;" d="M 58.582031 46.191406 L 60.617188 42.191406 C 63.191406 37.140625 65.007812 34.042969 64.121094 28.445312 L 65.519531 28.222656 C 66.445312 34.078125 64.582031 37.53125 61.878906 42.835938 L 59.84375 46.835938 "/>
<g clip-path="url(#clip37)" clip-rule="nonzero">
<path style="fill:none;stroke-width:0.3985;stroke-linecap:butt;stroke-linejoin:miter;stroke:rgb(0%,0%,0%);stroke-opacity:1;stroke-miterlimit:10;" d="M 25.259031 -12.868406 L 27.294187 -8.868406 C 29.868406 -3.817625 31.684812 -0.719969 30.798094 4.877688 " transform="matrix(1,0,0,-1,33.323,33.323)"/>
</g>
<g clip-path="url(#clip38)" clip-rule="nonzero">
<path style="fill:none;stroke-width:0.3985;stroke-linecap:butt;stroke-linejoin:miter;stroke:rgb(0%,0%,0%);stroke-opacity:1;stroke-miterlimit:10;" d="M 26.52075 -13.512937 L 28.555906 -9.512937 C 31.259031 -4.20825 33.122312 -0.755125 32.196531 5.100344 " transform="matrix(1,0,0,-1,33.323,33.323)"/>
</g>
<path style=" stroke:none;fill-rule:nonzero;fill:rgb(100%,100%,100%);fill-opacity:1;" d="M 61.320312 37.757812 L 62.019531 33.324219 C 62.90625 27.722656 63.679688 24.21875 61.105469 19.167969 L 62.367188 18.523438 C 65.058594 23.804688 64.351562 27.664062 63.421875 33.542969 L 62.71875 37.980469 "/>
<g clip-path="url(#clip39)" clip-rule="nonzero">
<path style="fill:none;stroke-width:0.3985;stroke-linecap:butt;stroke-linejoin:miter;stroke:rgb(0%,0%,0%);stroke-opacity:1;stroke-miterlimit:10;" d="M 27.997312 -4.434812 L 28.696531 -0.00121875 C 29.58325 5.600344 30.356687 9.10425 27.782469 14.155031 " transform="matrix(1,0,0,-1,33.323,33.323)"/>
</g>
<g clip-path="url(#clip40)" clip-rule="nonzero">
<path style="fill:none;stroke-width:0.3985;stroke-linecap:butt;stroke-linejoin:miter;stroke:rgb(0%,0%,0%);stroke-opacity:1;stroke-miterlimit:10;" d="M 29.39575 -4.657469 L 30.098875 -0.219969 C 31.028562 5.658938 31.735594 9.518313 29.044187 14.799563 " transform="matrix(1,0,0,-1,33.323,33.323)"/>
</g>
</g>
</svg>
