<?xml version="1.0" encoding="UTF-8"?>
<svg xmlns="http://www.w3.org/2000/svg" xmlns:xlink="http://www.w3.org/1999/xlink" width="92.947pt" height="94.605pt" viewBox="0 0 92.947 94.605" version="1.1">
<defs>
<clipPath id="clip1">
  <path d="M 12 59 L 47 59 L 47 94.605469 L 12 94.605469 Z M 12 59 "/>
</clipPath>
<clipPath id="clip2">
  <path d="M 1 48 L 58 48 L 58 94.605469 L 1 94.605469 Z M 1 48 "/>
</clipPath>
<clipPath id="clip3">
  <path d="M 35 52 L 92.945312 52 L 92.945312 94.605469 L 35 94.605469 Z M 35 52 "/>
</clipPath>
<clipPath id="clip4">
  <path d="M 56 12 L 92.945312 12 L 92.945312 78 L 56 78 Z M 56 12 "/>
</clipPath>
<clipPath id="clip5">
  <path d="M 35 0 L 92.945312 0 L 92.945312 43 L 35 43 Z M 35 0 "/>
</clipPath>
<clipPath id="clip6">
  <path d="M 0 52 L 58 52 L 58 94.605469 L 0 94.605469 Z M 0 52 "/>
</clipPath>
<clipPath id="clip7">
  <path d="M 46 59 L 81 59 L 81 94.605469 L 46 94.605469 Z M 46 59 "/>
</clipPath>
<clipPath id="clip8">
  <path d="M 35 48 L 92 48 L 92 94.605469 L 35 94.605469 Z M 35 48 "/>
</clipPath>
<clipPath id="clip9">
  <path d="M 56 16 L 92.945312 16 L 92.945312 83 L 56 83 Z M 56 16 "/>
</clipPath>
</defs>
<g id="surface36">
<path style=" stroke:none;fill-rule:nonzero;fill:rgb(100%,100%,100%);fill-opacity:1;" d="M 46.472656 22.753906 L 32.300781 22.753906 C 26.453125 22.753906 21.050781 25.871094 18.128906 30.933594 L 5.851562 23.847656 C 11.308594 14.402344 21.390625 8.578125 32.300781 8.578125 L 46.472656 8.578125 "/>
<path style="fill:none;stroke-width:0.79701;stroke-linecap:butt;stroke-linejoin:miter;stroke:rgb(0%,0%,0%);stroke-opacity:1;stroke-miterlimit:10;" d="M -0.00034375 24.548094 L -14.172219 24.548094 C -20.019875 24.548094 -25.422219 21.430906 -28.344094 16.368406 M -40.621437 23.454344 C -35.164406 32.899656 -25.082375 38.723875 -14.172219 38.723875 L -0.00034375 38.723875 " transform="matrix(1,0,0,-1,46.473,47.302)"/>
<path style=" stroke:none;fill-rule:nonzero;fill:rgb(100%,100%,100%);fill-opacity:1;" d="M 25.214844 35.027344 L 18.125 47.300781 C 15.203125 52.363281 15.203125 58.605469 18.125 63.667969 L 5.851562 70.753906 C 0.398438 61.304688 0.398438 49.664062 5.851562 40.214844 L 12.9375 27.941406 "/>
<path style="fill:none;stroke-width:0.79701;stroke-linecap:butt;stroke-linejoin:miter;stroke:rgb(0%,0%,0%);stroke-opacity:1;stroke-miterlimit:10;" d="M -21.258156 12.274656 L -28.348 0.00121875 C -31.269875 -5.061281 -31.269875 -11.303469 -28.348 -16.365969 M -40.621437 -23.451906 C -46.074562 -14.002688 -46.074562 -2.362063 -40.621437 7.087156 L -33.5355 19.360594 " transform="matrix(1,0,0,-1,46.473,47.302)"/>
<g clip-path="url(#clip1)" clip-rule="nonzero">
<path style=" stroke:none;fill-rule:nonzero;fill:rgb(100%,100%,100%);fill-opacity:1;" d="M 25.214844 59.578125 L 32.300781 71.851562 C 35.222656 76.914062 40.625 80.035156 46.472656 80.035156 L 46.472656 94.207031 C 35.5625 94.207031 25.480469 88.386719 20.023438 78.9375 L 12.9375 66.664062 "/>
</g>
<g clip-path="url(#clip2)" clip-rule="nonzero">
<path style="fill:none;stroke-width:0.79701;stroke-linecap:butt;stroke-linejoin:miter;stroke:rgb(0%,0%,0%);stroke-opacity:1;stroke-miterlimit:10;" d="M -21.258156 -12.276125 L -14.172219 -24.549563 C -11.250344 -29.612063 -5.848 -32.733156 -0.00034375 -32.733156 M -0.00034375 -46.905031 C -10.9105 -46.905031 -20.992531 -41.084719 -26.449562 -31.6355 L -33.5355 -19.362063 " transform="matrix(1,0,0,-1,46.473,47.302)"/>
</g>
<path style=" stroke:none;fill-rule:nonzero;fill:rgb(100%,100%,100%);fill-opacity:1;" d="M 46.472656 71.851562 L 60.644531 71.851562 C 66.492188 71.851562 71.894531 68.730469 74.820312 63.667969 L 87.09375 70.753906 C 81.640625 80.203125 71.554688 86.023438 60.644531 86.023438 L 46.472656 86.023438 "/>
<g clip-path="url(#clip3)" clip-rule="nonzero">
<path style="fill:none;stroke-width:0.79701;stroke-linecap:butt;stroke-linejoin:miter;stroke:rgb(0%,0%,0%);stroke-opacity:1;stroke-miterlimit:10;" d="M -0.00034375 -24.549563 L 14.171531 -24.549563 C 20.019188 -24.549563 25.421531 -21.428469 28.347313 -16.365969 M 40.62075 -23.451906 C 35.167625 -32.901125 25.081688 -38.721438 14.171531 -38.721438 L -0.00034375 -38.721438 " transform="matrix(1,0,0,-1,46.473,47.302)"/>
</g>
<path style=" stroke:none;fill-rule:nonzero;fill:rgb(100%,100%,100%);fill-opacity:1;" d="M 67.734375 59.578125 L 74.820312 47.300781 C 77.742188 42.238281 77.742188 36 74.820312 30.9375 L 87.09375 23.851562 C 92.546875 33.296875 92.546875 44.941406 87.09375 54.390625 L 80.007812 66.664062 "/>
<g clip-path="url(#clip4)" clip-rule="nonzero">
<path style="fill:none;stroke-width:0.79701;stroke-linecap:butt;stroke-linejoin:miter;stroke:rgb(0%,0%,0%);stroke-opacity:1;stroke-miterlimit:10;" d="M 21.261375 -12.276125 L 28.347313 0.00121875 C 31.269188 5.063719 31.269188 11.302 28.347313 16.3645 M 40.62075 23.450437 C 46.073875 14.005125 46.073875 2.360594 40.62075 -7.088625 L 33.534813 -19.362063 " transform="matrix(1,0,0,-1,46.473,47.302)"/>
</g>
<path style=" stroke:none;fill-rule:nonzero;fill:rgb(100%,100%,100%);fill-opacity:1;" d="M 67.734375 35.027344 L 60.644531 22.753906 C 57.722656 17.691406 52.320312 14.570312 46.472656 14.570312 L 46.472656 0.398438 C 57.382812 0.398438 67.46875 6.21875 72.921875 15.667969 L 80.007812 27.941406 "/>
<path style="fill:none;stroke-width:0.79701;stroke-linecap:butt;stroke-linejoin:miter;stroke:rgb(0%,0%,0%);stroke-opacity:1;stroke-miterlimit:10;" d="M 21.261375 12.274656 L 14.171531 24.548094 C 11.249656 29.610594 5.847313 32.731687 -0.00034375 32.731687 M -0.00034375 46.903562 C 10.909813 46.903562 20.99575 41.08325 26.448875 31.634031 L 33.534813 19.360594 " transform="matrix(1,0,0,-1,46.473,47.302)"/>
<path style=" stroke:none;fill-rule:nonzero;fill:rgb(100%,100%,100%);fill-opacity:1;" d="M 60.644531 8.578125 C 71.554688 8.578125 81.640625 14.402344 87.09375 23.847656 L 74.820312 30.933594 C 71.894531 25.871094 66.492188 22.753906 60.644531 22.753906 L 46.472656 22.753906 L 46.472656 8.578125 Z M 60.644531 8.578125 "/>
<g clip-path="url(#clip5)" clip-rule="nonzero">
<path style="fill:none;stroke-width:0.79701;stroke-linecap:butt;stroke-linejoin:miter;stroke:rgb(0%,0%,0%);stroke-opacity:1;stroke-miterlimit:10;" d="M -0.00034375 38.723875 L 14.171531 38.723875 C 25.081688 38.723875 35.167625 32.899656 40.62075 23.454344 M 28.347313 16.368406 C 25.421531 21.430906 20.019188 24.548094 14.171531 24.548094 L -0.00034375 24.548094 " transform="matrix(1,0,0,-1,46.473,47.302)"/>
</g>
<path style=" stroke:none;fill-rule:nonzero;fill:rgb(100%,100%,100%);fill-opacity:1;" d="M 20.023438 15.667969 C 25.480469 6.21875 35.5625 0.398438 46.472656 0.398438 L 46.472656 14.570312 C 40.625 14.570312 35.222656 17.691406 32.300781 22.753906 L 25.214844 35.027344 L 12.9375 27.941406 Z M 20.023438 15.667969 "/>
<path style="fill:none;stroke-width:0.79701;stroke-linecap:butt;stroke-linejoin:miter;stroke:rgb(0%,0%,0%);stroke-opacity:1;stroke-miterlimit:10;" d="M -33.5355 19.360594 L -26.449562 31.634031 C -20.992531 41.08325 -10.9105 46.903562 -0.00034375 46.903562 M -0.00034375 32.731687 C -5.848 32.731687 -11.250344 29.610594 -14.172219 24.548094 L -21.258156 12.274656 " transform="matrix(1,0,0,-1,46.473,47.302)"/>
<path style=" stroke:none;fill-rule:nonzero;fill:rgb(100%,100%,100%);fill-opacity:1;" d="M 5.851562 54.390625 C 0.398438 44.941406 0.398438 33.296875 5.851562 23.851562 L 18.125 30.9375 C 15.203125 36 15.203125 42.238281 18.125 47.300781 L 25.214844 59.578125 L 12.9375 66.664062 Z M 5.851562 54.390625 "/>
<path style="fill:none;stroke-width:0.79701;stroke-linecap:butt;stroke-linejoin:miter;stroke:rgb(0%,0%,0%);stroke-opacity:1;stroke-miterlimit:10;" d="M -33.5355 -19.362063 L -40.621437 -7.088625 C -46.074562 2.360594 -46.074562 14.005125 -40.621437 23.450437 M -28.348 16.3645 C -31.269875 11.302 -31.269875 5.063719 -28.348 0.00121875 L -21.258156 -12.276125 " transform="matrix(1,0,0,-1,46.473,47.302)"/>
<path style=" stroke:none;fill-rule:nonzero;fill:rgb(100%,100%,100%);fill-opacity:1;" d="M 32.300781 86.023438 C 21.390625 86.023438 11.308594 80.203125 5.851562 70.753906 L 18.128906 63.667969 C 21.050781 68.730469 26.453125 71.851562 32.300781 71.851562 L 46.472656 71.851562 L 46.472656 86.023438 Z M 32.300781 86.023438 "/>
<g clip-path="url(#clip6)" clip-rule="nonzero">
<path style="fill:none;stroke-width:0.79701;stroke-linecap:butt;stroke-linejoin:miter;stroke:rgb(0%,0%,0%);stroke-opacity:1;stroke-miterlimit:10;" d="M -0.00034375 -38.721438 L -14.172219 -38.721438 C -25.082375 -38.721438 -35.164406 -32.901125 -40.621437 -23.451906 M -28.344094 -16.365969 C -25.422219 -21.428469 -20.019875 -24.549563 -14.172219 -24.549563 L -0.00034375 -24.549563 " transform="matrix(1,0,0,-1,46.473,47.302)"/>
</g>
<g clip-path="url(#clip7)" clip-rule="nonzero">
<path style=" stroke:none;fill-rule:nonzero;fill:rgb(100%,100%,100%);fill-opacity:1;" d="M 72.921875 78.9375 C 67.464844 88.386719 57.382812 94.207031 46.472656 94.207031 L 46.472656 80.035156 C 52.320312 80.035156 57.722656 76.914062 60.648438 71.851562 L 67.734375 59.578125 L 80.007812 66.664062 Z M 72.921875 78.9375 "/>
</g>
<g clip-path="url(#clip8)" clip-rule="nonzero">
<path style="fill:none;stroke-width:0.79701;stroke-linecap:butt;stroke-linejoin:miter;stroke:rgb(0%,0%,0%);stroke-opacity:1;stroke-miterlimit:10;" d="M 33.534813 -19.362063 L 26.448875 -31.6355 C 20.991844 -41.084719 10.909813 -46.905031 -0.00034375 -46.905031 M -0.00034375 -32.733156 C 5.847313 -32.733156 11.249656 -29.612063 14.175438 -24.549563 L 21.261375 -12.276125 " transform="matrix(1,0,0,-1,46.473,47.302)"/>
</g>
<path style=" stroke:none;fill-rule:nonzero;fill:rgb(100%,100%,100%);fill-opacity:1;" d="M 87.09375 40.214844 C 92.546875 49.664062 92.546875 61.304688 87.09375 70.753906 L 74.820312 63.667969 C 77.742188 58.605469 77.742188 52.363281 74.820312 47.300781 L 67.734375 35.027344 L 80.007812 27.941406 Z M 87.09375 40.214844 "/>
<g clip-path="url(#clip9)" clip-rule="nonzero">
<path style="fill:none;stroke-width:0.79701;stroke-linecap:butt;stroke-linejoin:miter;stroke:rgb(0%,0%,0%);stroke-opacity:1;stroke-miterlimit:10;" d="M 33.534813 19.360594 L 40.62075 7.087156 C 46.073875 -2.362063 46.073875 -14.002688 40.62075 -23.451906 M 28.347313 -16.365969 C 31.269188 -11.303469 31.269188 -5.061281 28.347313 0.00121875 L 21.261375 12.274656 " transform="matrix(1,0,0,-1,46.473,47.302)"/>
</g>
</g>
</svg>
