<?xml version="1.0" encoding="UTF-8"?>
<svg xmlns="http://www.w3.org/2000/svg" xmlns:xlink="http://www.w3.org/1999/xlink" width="205.402pt" height="211.979pt" viewBox="0 0 205.402 211.979" version="1.1">
<g id="surface36">
<path style=" stroke:none;fill-rule:nonzero;fill:rgb(100%,100%,100%);fill-opacity:1;" d="M 99.414062 81.441406 L 56.890625 56.890625 C 32.34375 42.71875 28.546875 77.640625 28.546875 105.988281 L 0.199219 105.988281 C 0.199219 63.46875 21.96875 3.996094 71.066406 32.339844 L 113.585938 56.890625 "/>
<path style="fill:none;stroke-width:0.3985;stroke-linecap:butt;stroke-linejoin:miter;stroke:rgb(0%,0%,0%);stroke-opacity:1;stroke-miterlimit:10;" d="M 14.175062 24.547594 L -28.348375 49.098375 C -52.89525 63.27025 -56.692125 28.348375 -56.692125 0.00071875 " transform="matrix(1,0,0,-1,85.239,105.989)"/>
<path style="fill:none;stroke-width:0.3985;stroke-linecap:butt;stroke-linejoin:miter;stroke:rgb(0%,0%,0%);stroke-opacity:1;stroke-miterlimit:10;" d="M -85.039781 0.00071875 C -85.039781 42.52025 -63.27025 101.992906 -14.172594 73.649156 L 28.346937 49.098375 " transform="matrix(1,0,0,-1,85.239,105.989)"/>
<path style=" stroke:none;fill-rule:nonzero;fill:rgb(100%,100%,100%);fill-opacity:1;" d="M 56.890625 105.988281 L 56.890625 155.085938 C 56.890625 183.433594 89.035156 169.261719 113.585938 155.085938 L 127.757812 179.636719 C 90.933594 200.894531 28.546875 211.78125 28.546875 155.085938 L 28.546875 105.988281 "/>
<path style="fill:none;stroke-width:0.3985;stroke-linecap:butt;stroke-linejoin:miter;stroke:rgb(0%,0%,0%);stroke-opacity:1;stroke-miterlimit:10;" d="M -28.348375 0.00071875 L -28.348375 -49.096938 C -28.348375 -77.444594 3.796156 -63.272719 28.346937 -49.096938 " transform="matrix(1,0,0,-1,85.239,105.989)"/>
<path style="fill:none;stroke-width:0.3985;stroke-linecap:butt;stroke-linejoin:miter;stroke:rgb(0%,0%,0%);stroke-opacity:1;stroke-miterlimit:10;" d="M 42.518812 -73.647719 C 5.694594 -94.905531 -56.692125 -105.79225 -56.692125 -49.096938 L -56.692125 0.00071875 " transform="matrix(1,0,0,-1,85.239,105.989)"/>
<path style=" stroke:none;fill-rule:nonzero;fill:rgb(100%,100%,100%);fill-opacity:1;" d="M 99.414062 130.539062 L 141.933594 105.988281 C 166.480469 91.816406 138.136719 71.0625 113.585938 56.890625 L 127.757812 32.339844 C 164.582031 53.601562 205.203125 102.191406 156.105469 130.539062 L 113.585938 155.085938 "/>
<path style="fill:none;stroke-width:0.3985;stroke-linecap:butt;stroke-linejoin:miter;stroke:rgb(0%,0%,0%);stroke-opacity:1;stroke-miterlimit:10;" d="M 14.175062 -24.550063 L 56.694594 0.00071875 C 81.241469 14.172594 52.897719 34.9265 28.346937 49.098375 " transform="matrix(1,0,0,-1,85.239,105.989)"/>
<path style="fill:none;stroke-width:0.3985;stroke-linecap:butt;stroke-linejoin:miter;stroke:rgb(0%,0%,0%);stroke-opacity:1;stroke-miterlimit:10;" d="M 42.518812 73.649156 C 79.343031 52.387437 119.964125 3.797594 70.866469 -24.550063 L 28.346937 -49.096938 " transform="matrix(1,0,0,-1,85.239,105.989)"/>
<path style=" stroke:none;fill-rule:nonzero;fill:rgb(100%,100%,100%);fill-opacity:1;" d="M 99.414062 81.441406 L 141.933594 105.988281 C 166.480469 120.164062 138.136719 140.914062 113.585938 155.085938 L 127.757812 179.636719 C 164.582031 158.375 205.203125 109.785156 156.105469 81.441406 L 113.585938 56.890625 "/>
<path style="fill:none;stroke-width:0.3985;stroke-linecap:butt;stroke-linejoin:miter;stroke:rgb(0%,0%,0%);stroke-opacity:1;stroke-miterlimit:10;" d="M 14.175062 24.547594 L 56.694594 0.00071875 C 81.241469 -14.175063 52.897719 -34.925063 28.346937 -49.096938 " transform="matrix(1,0,0,-1,85.239,105.989)"/>
<path style="fill:none;stroke-width:0.3985;stroke-linecap:butt;stroke-linejoin:miter;stroke:rgb(0%,0%,0%);stroke-opacity:1;stroke-miterlimit:10;" d="M 28.346937 49.098375 L 70.866469 24.547594 C 119.964125 -3.796156 79.343031 -52.386 42.518812 -73.647719 " transform="matrix(1,0,0,-1,85.239,105.989)"/>
<path style=" stroke:none;fill-rule:nonzero;fill:rgb(100%,100%,100%);fill-opacity:1;" d="M 56.890625 105.988281 L 56.890625 56.890625 C 56.890625 28.542969 89.035156 42.71875 113.585938 56.890625 L 127.757812 32.339844 C 90.933594 11.082031 28.546875 0.195312 28.546875 56.890625 L 28.546875 105.988281 "/>
<path style="fill:none;stroke-width:0.3985;stroke-linecap:butt;stroke-linejoin:miter;stroke:rgb(0%,0%,0%);stroke-opacity:1;stroke-miterlimit:10;" d="M -28.348375 0.00071875 L -28.348375 49.098375 C -28.348375 77.446031 3.796156 63.27025 28.346937 49.098375 " transform="matrix(1,0,0,-1,85.239,105.989)"/>
<path style="fill:none;stroke-width:0.3985;stroke-linecap:butt;stroke-linejoin:miter;stroke:rgb(0%,0%,0%);stroke-opacity:1;stroke-miterlimit:10;" d="M -56.692125 0.00071875 L -56.692125 49.098375 C -56.692125 105.793687 5.694594 94.906969 42.518812 73.649156 " transform="matrix(1,0,0,-1,85.239,105.989)"/>
<path style=" stroke:none;fill-rule:nonzero;fill:rgb(100%,100%,100%);fill-opacity:1;" d="M 99.414062 130.539062 L 56.890625 155.085938 C 32.34375 169.261719 28.546875 134.335938 28.546875 105.988281 L 0.199219 105.988281 C 0.199219 148.507812 21.96875 207.984375 71.066406 179.636719 L 113.585938 155.085938 "/>
<path style="fill:none;stroke-width:0.3985;stroke-linecap:butt;stroke-linejoin:miter;stroke:rgb(0%,0%,0%);stroke-opacity:1;stroke-miterlimit:10;" d="M 14.175062 -24.550063 L -28.348375 -49.096938 C -52.89525 -63.272719 -56.692125 -28.346938 -56.692125 0.00071875 " transform="matrix(1,0,0,-1,85.239,105.989)"/>
<path style="fill:none;stroke-width:0.3985;stroke-linecap:butt;stroke-linejoin:miter;stroke:rgb(0%,0%,0%);stroke-opacity:1;stroke-miterlimit:10;" d="M 28.346937 -49.096938 L -14.172594 -73.647719 C -63.27025 -101.995375 -85.039781 -42.518813 -85.039781 0.00071875 " transform="matrix(1,0,0,-1,85.239,105.989)"/>
</g>
</svg>
