# Blender 4.0.2
# www.blender.org
o Cylinder
v 0.000000 -0.500000 -0.500000
v 0.000000 0.500000 -0.500000
v 0.097545 -0.500000 -0.490393
v 0.097545 0.500000 -0.490393
v 0.191342 -0.500000 -0.461940
v 0.191342 0.500000 -0.461940
v 0.277785 -0.500000 -0.415735
v 0.277785 0.500000 -0.415735
v 0.353553 -0.500000 -0.353553
v 0.353553 0.500000 -0.353553
v 0.415735 -0.500000 -0.277785
v 0.415735 0.500000 -0.277785
v 0.461940 -0.500000 -0.191342
v 0.461940 0.500000 -0.191342
v 0.490393 -0.500000 -0.097545
v 0.490393 0.500000 -0.097545
v 0.500000 -0.500000 0.000000
v 0.500000 0.500000 0.000000
v 0.490393 -0.500000 0.097545
v 0.490393 0.500000 0.097545
v 0.461940 -0.500000 0.191342
v 0.461940 0.500000 0.191342
v 0.415735 -0.500000 0.277785
v 0.415735 0.500000 0.277785
v 0.353553 -0.500000 0.353553
v 0.353553 0.500000 0.353553
v 0.277785 -0.500000 0.415735
v 0.277785 0.500000 0.415735
v 0.191342 -0.500000 0.461940
v 0.191342 0.500000 0.461940
v 0.097545 -0.500000 0.490393
v 0.097545 0.500000 0.490393
v 0.000000 -0.500000 0.500000
v 0.000000 0.500000 0.500000
v -0.097545 -0.500000 0.490393
v -0.097545 0.500000 0.490393
v -0.191342 -0.500000 0.461940
v -0.191342 0.500000 0.461940
v -0.277785 -0.500000 0.415735
v -0.277785 0.500000 0.415735
v -0.353553 -0.500000 0.353553
v -0.353553 0.500000 0.353553
v -0.415735 -0.500000 0.277785
v -0.415735 0.500000 0.277785
v -0.461940 -0.500000 0.191342
v -0.461940 0.500000 0.191342
v -0.490393 -0.500000 0.097545
v -0.490393 0.500000 0.097545
v -0.500000 -0.500000 0.000000
v -0.500000 0.500000 0.000000
v -0.490393 -0.500000 -0.097545
v -0.490393 0.500000 -0.097545
v -0.461940 -0.500000 -0.191342
v -0.461940 0.500000 -0.191342
v -0.415735 -0.500000 -0.277785
v -0.415735 0.500000 -0.277785
v -0.353553 -0.500000 -0.353553
v -0.353553 0.500000 -0.353553
v -0.277785 -0.500000 -0.415735
v -0.277785 0.500000 -0.415735
v -0.191342 -0.500000 -0.461940
v -0.191342 0.500000 -0.461940
v -0.097545 -0.500000 -0.490393
v -0.097545 0.500000 -0.490393
vn 0.0980 -0.0000 -0.9952
vn 0.2903 -0.0000 -0.9569
vn 0.4714 -0.0000 -0.8819
vn 0.6344 -0.0000 -0.7730
vn 0.7730 -0.0000 -0.6344
vn 0.8819 -0.0000 -0.4714
vn 0.9569 -0.0000 -0.2903
vn 0.9952 -0.0000 -0.0980
vn 0.9952 -0.0000 0.0980
vn 0.9569 -0.0000 0.2903
vn 0.8819 -0.0000 0.4714
vn 0.7730 -0.0000 0.6344
vn 0.6344 -0.0000 0.7730
vn 0.4714 -0.0000 0.8819
vn 0.2903 -0.0000 0.9569
vn 0.0980 -0.0000 0.9952
vn -0.0980 -0.0000 0.9952
vn -0.2903 -0.0000 0.9569
vn -0.4714 -0.0000 0.8819
vn -0.6344 -0.0000 0.7730
vn -0.7730 -0.0000 0.6344
vn -0.8819 -0.0000 0.4714
vn -0.9569 -0.0000 0.2903
vn -0.9952 -0.0000 0.0980
vn -0.9952 -0.0000 -0.0980
vn -0.9569 -0.0000 -0.2903
vn -0.8819 -0.0000 -0.4714
vn -0.7730 -0.0000 -0.6344
vn -0.6344 -0.0000 -0.7730
vn -0.4714 -0.0000 -0.8819
vn -0.0000 1.0000 -0.0000
vn -0.2903 -0.0000 -0.9569
vn -0.0980 -0.0000 -0.9952
vn -0.0000 -1.0000 -0.0000
vt 0.416444 0.004334
vt 0.444542 0.409728
vt 0.416444 0.409728
vt 0.444542 0.004334
vt 0.477581 0.409728
vt 0.477581 0.004334
vt 0.514291 0.409728
vt 0.514291 0.004334
vt 0.553263 0.409728
vt 0.553263 0.004334
vt 0.592999 0.409728
vt 0.592999 0.004334
vt 0.631971 0.409728
vt 0.631971 0.004334
vt 0.668682 0.409728
vt 0.668682 0.004334
vt 0.701721 0.409728
vt 0.416444 0.418397
vt 0.444542 0.823790
vt 0.416444 0.823790
vt 0.444542 0.418397
vt 0.477581 0.823790
vt 0.477581 0.418397
vt 0.514291 0.823790
vt 0.514291 0.418397
vt 0.553263 0.823790
vt 0.553263 0.418397
vt 0.592999 0.823790
vt 0.592999 0.418397
vt 0.631971 0.823790
vt 0.631971 0.418397
vt 0.668682 0.823790
vt 0.668682 0.418397
vt 0.701721 0.823790
vt 0.710389 0.004334
vt 0.738487 0.409728
vt 0.710389 0.409728
vt 0.738487 0.004334
vt 0.771526 0.409728
vt 0.771526 0.004334
vt 0.808236 0.409728
vt 0.808236 0.004334
vt 0.847208 0.409728
vt 0.847208 0.004334
vt 0.886944 0.409728
vt 0.886944 0.004334
vt 0.925916 0.409728
vt 0.925916 0.004334
vt 0.962627 0.409728
vt 0.962627 0.004334
vt 0.995666 0.409728
vt 0.710389 0.418397
vt 0.738487 0.823790
vt 0.710389 0.823790
vt 0.738487 0.418397
vt 0.771526 0.823790
vt 0.771526 0.418397
vt 0.808236 0.823790
vt 0.808236 0.418397
vt 0.847208 0.823790
vt 0.847208 0.418397
vt 0.886944 0.823790
vt 0.886944 0.418397
vt 0.925916 0.823790
vt 0.012086 0.264895
vt 0.147215 0.012086
vt 0.400024 0.147215
vt 0.925916 0.418397
vt 0.962627 0.823790
vt 0.962627 0.418397
vt 0.995666 0.823790
vt 0.004334 0.638033
vt 0.186187 0.416444
vt 0.407776 0.598298
vt 0.701721 0.004334
vt 0.701721 0.418397
vt 0.995666 0.004334
vt 0.407776 0.186187
vt 0.407776 0.225923
vt 0.400024 0.264895
vt 0.384818 0.301606
vt 0.362742 0.334645
vt 0.334645 0.362742
vt 0.301606 0.384818
vt 0.264895 0.400024
vt 0.225923 0.407776
vt 0.186187 0.407776
vt 0.147215 0.400024
vt 0.110504 0.384818
vt 0.077466 0.362742
vt 0.049368 0.334645
vt 0.027292 0.301606
vt 0.004334 0.225923
vt 0.027292 0.110504
vt 0.004334 0.186187
vt 0.012086 0.147215
vt 0.049368 0.077466
vt 0.077466 0.049368
vt 0.110505 0.027292
vt 0.186187 0.004334
vt 0.301606 0.027292
vt 0.225923 0.004334
vt 0.264895 0.012086
vt 0.334645 0.049368
vt 0.362742 0.077466
vt 0.384818 0.110505
vt 0.995666 0.418397
vt 0.407776 0.638033
vt 0.400024 0.677005
vt 0.384818 0.713716
vt 0.362742 0.746755
vt 0.334645 0.774852
vt 0.301606 0.796928
vt 0.264895 0.812134
vt 0.225923 0.819886
vt 0.186187 0.819886
vt 0.147215 0.812134
vt 0.110504 0.796928
vt 0.077466 0.774852
vt 0.049368 0.746755
vt 0.027292 0.713716
vt 0.012086 0.677005
vt 0.004334 0.598297
vt 0.012086 0.559325
vt 0.027292 0.522615
vt 0.049368 0.489576
vt 0.077466 0.461478
vt 0.110505 0.439403
vt 0.147215 0.424197
vt 0.225923 0.416444
vt 0.264895 0.424197
vt 0.301606 0.439403
vt 0.334645 0.461479
vt 0.362742 0.489576
vt 0.384818 0.522615
vt 0.400024 0.559326
s 0
f 2/1/1 3/2/1 1/3/1
f 4/4/2 5/5/2 3/2/2
f 6/6/3 7/7/3 5/5/3
f 8/8/4 9/9/4 7/7/4
f 10/10/5 11/11/5 9/9/5
f 12/12/6 13/13/6 11/11/6
f 14/14/7 15/15/7 13/13/7
f 16/16/8 17/17/8 15/15/8
f 18/18/9 19/19/9 17/20/9
f 20/21/10 21/22/10 19/19/10
f 22/23/11 23/24/11 21/22/11
f 24/25/12 25/26/12 23/24/12
f 26/27/13 27/28/13 25/26/13
f 28/29/14 29/30/14 27/28/14
f 30/31/15 31/32/15 29/30/15
f 32/33/16 33/34/16 31/32/16
f 34/35/17 35/36/17 33/37/17
f 36/38/18 37/39/18 35/36/18
f 38/40/19 39/41/19 37/39/19
f 40/42/20 41/43/20 39/41/20
f 42/44/21 43/45/21 41/43/21
f 44/46/22 45/47/22 43/45/22
f 46/48/23 47/49/23 45/47/23
f 48/50/24 49/51/24 47/49/24
f 50/52/25 51/53/25 49/54/25
f 52/55/26 53/56/26 51/53/26
f 54/57/27 55/58/27 53/56/27
f 56/59/28 57/60/28 55/58/28
f 58/61/29 59/62/29 57/60/29
f 60/63/30 61/64/30 59/62/30
f 38/65/31 22/66/31 6/67/31
f 62/68/32 63/69/32 61/64/32
f 64/70/33 1/71/33 63/69/33
f 31/72/34 47/73/34 63/74/34
f 2/1/1 4/4/1 3/2/1
f 4/4/2 6/6/2 5/5/2
f 6/6/3 8/8/3 7/7/3
f 8/8/4 10/10/4 9/9/4
f 10/10/5 12/12/5 11/11/5
f 12/12/6 14/14/6 13/13/6
f 14/14/7 16/16/7 15/15/7
f 16/16/8 18/75/8 17/17/8
f 18/18/9 20/21/9 19/19/9
f 20/21/10 22/23/10 21/22/10
f 22/23/11 24/25/11 23/24/11
f 24/25/12 26/27/12 25/26/12
f 26/27/13 28/29/13 27/28/13
f 28/29/14 30/31/14 29/30/14
f 30/31/15 32/33/15 31/32/15
f 32/33/16 34/76/16 33/34/16
f 34/35/17 36/38/17 35/36/17
f 36/38/18 38/40/18 37/39/18
f 38/40/19 40/42/19 39/41/19
f 40/42/20 42/44/20 41/43/20
f 42/44/21 44/46/21 43/45/21
f 44/46/22 46/48/22 45/47/22
f 46/48/23 48/50/23 47/49/23
f 48/50/24 50/77/24 49/51/24
f 50/52/25 52/55/25 51/53/25
f 52/55/26 54/57/26 53/56/26
f 54/57/27 56/59/27 55/58/27
f 56/59/28 58/61/28 57/60/28
f 58/61/29 60/63/29 59/62/29
f 60/63/30 62/68/30 61/64/30
f 6/67/31 4/78/31 2/79/31
f 2/79/31 64/80/31 6/67/31
f 64/80/31 62/81/31 6/67/31
f 62/81/31 60/82/31 58/83/31
f 58/83/31 56/84/31 54/85/31
f 54/85/31 52/86/31 50/87/31
f 50/87/31 48/88/31 54/85/31
f 48/88/31 46/89/31 54/85/31
f 46/89/31 44/90/31 42/91/31
f 42/91/31 40/92/31 38/65/31
f 38/65/31 36/93/31 30/94/31
f 36/93/31 34/95/31 30/94/31
f 34/95/31 32/96/31 30/94/31
f 30/94/31 28/97/31 26/98/31
f 26/98/31 24/99/31 22/66/31
f 22/66/31 20/100/31 14/101/31
f 20/100/31 18/102/31 14/101/31
f 18/102/31 16/103/31 14/101/31
f 14/101/31 12/104/31 10/105/31
f 10/105/31 8/106/31 6/67/31
f 62/81/31 58/83/31 6/67/31
f 58/83/31 54/85/31 6/67/31
f 46/89/31 42/91/31 54/85/31
f 42/91/31 38/65/31 54/85/31
f 30/94/31 26/98/31 38/65/31
f 26/98/31 22/66/31 38/65/31
f 14/101/31 10/105/31 22/66/31
f 10/105/31 6/67/31 22/66/31
f 6/67/31 54/85/31 38/65/31
f 62/68/32 64/70/32 63/69/32
f 64/70/33 2/107/33 1/71/33
f 63/74/34 1/108/34 3/109/34
f 3/109/34 5/110/34 7/111/34
f 7/111/34 9/112/34 11/113/34
f 11/113/34 13/114/34 15/115/34
f 15/115/34 17/116/34 19/117/34
f 19/117/34 21/118/34 23/119/34
f 23/119/34 25/120/34 27/121/34
f 27/121/34 29/122/34 31/72/34
f 31/72/34 33/123/34 35/124/34
f 35/124/34 37/125/34 39/126/34
f 39/126/34 41/127/34 43/128/34
f 43/128/34 45/129/34 47/73/34
f 47/73/34 49/130/34 51/131/34
f 51/131/34 53/132/34 55/133/34
f 55/133/34 57/134/34 59/135/34
f 59/135/34 61/136/34 63/74/34
f 63/74/34 3/109/34 15/115/34
f 3/109/34 7/111/34 15/115/34
f 7/111/34 11/113/34 15/115/34
f 15/115/34 19/117/34 31/72/34
f 19/117/34 23/119/34 31/72/34
f 23/119/34 27/121/34 31/72/34
f 31/72/34 35/124/34 47/73/34
f 35/124/34 39/126/34 47/73/34
f 39/126/34 43/128/34 47/73/34
f 47/73/34 51/131/34 63/74/34
f 51/131/34 55/133/34 63/74/34
f 55/133/34 59/135/34 63/74/34
f 63/74/34 15/115/34 31/72/34
