# Blender 4.1.0
# www.blender.org
o Cylinder
v 0.000000 -0.011302 0.035811
v 0.000000 0.763022 0.035811
v -0.006986 -0.011302 0.035123
v -0.006986 0.763022 0.035123
v -0.013704 -0.011302 0.033085
v -0.013704 0.763022 0.033085
v -0.019896 -0.011302 0.029776
v -0.019896 0.763022 0.029776
v -0.025322 -0.011302 0.025322
v -0.025322 0.763022 0.025322
v -0.029776 -0.011302 0.019896
v -0.029776 0.763022 0.019895
v -0.033085 -0.011302 0.013704
v -0.033085 0.763022 0.013704
v -0.035123 -0.011302 0.006986
v -0.035123 0.763022 0.006986
v -0.035811 -0.011302 0.000000
v -0.035811 0.763022 -0.000000
v -0.035123 -0.011302 -0.006986
v -0.035123 0.763022 -0.006986
v -0.033085 -0.011302 -0.013704
v -0.033085 0.763022 -0.013704
v -0.029776 -0.011302 -0.019896
v -0.029776 0.763022 -0.019896
v -0.025322 -0.011302 -0.025322
v -0.025322 0.763022 -0.025322
v -0.019896 -0.011302 -0.029776
v -0.019896 0.763022 -0.029776
v -0.013704 -0.011302 -0.033085
v -0.013704 0.763022 -0.033085
v -0.006986 -0.011302 -0.035123
v -0.006986 0.763022 -0.035123
v 0.000000 -0.011302 -0.035811
v 0.000000 0.763022 -0.035811
v 0.006986 -0.011302 -0.035123
v 0.006986 0.763022 -0.035123
v 0.013704 -0.011302 -0.033085
v 0.013704 0.763022 -0.033085
v 0.019896 -0.011302 -0.029776
v 0.019896 0.763022 -0.029776
v 0.025322 -0.011302 -0.025322
v 0.025322 0.763022 -0.025322
v 0.029776 -0.011302 -0.019896
v 0.029776 0.763022 -0.019896
v 0.033085 -0.011302 -0.013704
v 0.033085 0.763022 -0.013704
v 0.035123 -0.011302 -0.006986
v 0.035123 0.763022 -0.006986
v 0.035811 -0.011302 0.000000
v 0.035811 0.763022 -0.000000
v 0.035123 -0.011302 0.006986
v 0.035123 0.763022 0.006986
v 0.033085 -0.011302 0.013704
v 0.033085 0.763022 0.013704
v 0.029776 -0.011302 0.019896
v 0.029776 0.763022 0.019895
v 0.025322 -0.011302 0.025322
v 0.025322 0.763022 0.025322
v 0.019896 -0.011302 0.029776
v 0.019896 0.763022 0.029776
v 0.013704 -0.011302 0.033085
v 0.013704 0.763022 0.033085
v 0.006986 -0.011302 0.035123
v 0.006986 0.763022 0.035123
v -0.013521 0.781156 0.067976
v 0.000000 0.781156 0.069308
v -0.026523 0.781156 0.064032
v -0.038505 0.781156 0.057627
v -0.049008 0.781156 0.049008
v -0.057628 0.781156 0.038505
v -0.064032 0.781156 0.026523
v -0.067976 0.781156 0.013521
v -0.069308 0.781156 -0.000000
v -0.067976 0.781156 -0.013521
v -0.064032 0.781156 -0.026523
v -0.057628 0.781156 -0.038505
v -0.049008 0.781156 -0.049008
v -0.038505 0.781156 -0.057628
v -0.026523 0.781156 -0.064032
v -0.013521 0.781156 -0.067976
v 0.000000 0.781156 -0.069308
v 0.013521 0.781156 -0.067976
v 0.026523 0.781156 -0.064032
v 0.038505 0.781156 -0.057628
v 0.049008 0.781156 -0.049008
v 0.057628 0.781156 -0.038505
v 0.064032 0.781156 -0.026523
v 0.067976 0.781156 -0.013521
v 0.069308 0.781156 -0.000000
v 0.067976 0.781156 0.013521
v 0.064032 0.781156 0.026523
v 0.057628 0.781156 0.038505
v 0.049008 0.781156 0.049008
v 0.038505 0.781156 0.057627
v 0.026523 0.781156 0.064032
v 0.013521 0.781156 0.067976
v -0.000564 1.000810 0.002834
v 0.000000 1.000810 0.002890
v -0.001106 1.000810 0.002670
v -0.001606 1.000810 0.002403
v -0.002044 1.000810 0.002043
v -0.002403 1.000810 0.001605
v -0.002670 1.000810 0.001106
v -0.002835 1.000810 0.000564
v -0.002890 1.000810 -0.000000
v -0.002835 1.000810 -0.000564
v -0.002670 1.000810 -0.001106
v -0.002403 1.000810 -0.001606
v -0.002044 1.000810 -0.002044
v -0.001606 1.000810 -0.002403
v -0.001106 1.000810 -0.002670
v -0.000564 1.000810 -0.002835
v 0.000000 1.000810 -0.002890
v 0.000564 1.000810 -0.002835
v 0.001106 1.000810 -0.002670
v 0.001606 1.000810 -0.002403
v 0.002044 1.000810 -0.002044
v 0.002403 1.000810 -0.001606
v 0.002670 1.000810 -0.001106
v 0.002835 1.000810 -0.000564
v 0.002890 1.000810 -0.000000
v 0.002835 1.000810 0.000564
v 0.002670 1.000810 0.001106
v 0.002403 1.000810 0.001605
v 0.002044 1.000810 0.002043
v 0.001606 1.000810 0.002403
v 0.001106 1.000810 0.002670
v 0.000564 1.000810 0.002834
vn -0.0980 -0.0000 0.9952
vn -0.2903 -0.0000 0.9569
vn -0.4714 -0.0000 0.8819
vn -0.6344 -0.0000 0.7730
vn -0.7730 -0.0000 0.6344
vn -0.8819 -0.0000 0.4714
vn -0.9569 -0.0000 0.2903
vn -0.9952 -0.0000 0.0980
vn -0.9952 -0.0000 -0.0980
vn -0.9569 -0.0000 -0.2903
vn -0.8819 -0.0000 -0.4714
vn -0.7730 -0.0000 -0.6344
vn -0.6344 -0.0000 -0.7730
vn -0.4714 -0.0000 -0.8819
vn -0.2903 -0.0000 -0.9569
vn -0.0980 -0.0000 -0.9952
vn 0.0980 -0.0000 -0.9952
vn 0.2903 -0.0000 -0.9569
vn 0.4714 -0.0000 -0.8819
vn 0.6344 -0.0000 -0.7730
vn 0.7730 -0.0000 -0.6344
vn 0.8819 -0.0000 -0.4714
vn 0.9569 -0.0000 -0.2903
vn 0.9952 -0.0000 -0.0980
vn 0.9952 -0.0000 0.0980
vn 0.9569 -0.0000 0.2903
vn 0.8819 -0.0000 0.4714
vn 0.7730 -0.0000 0.6344
vn 0.6344 -0.0000 0.7730
vn 0.4714 -0.0000 0.8819
vn 0.4573 -0.8784 -0.1387
vn 0.2903 -0.0000 0.9569
vn 0.0980 -0.0000 0.9952
vn -0.0000 -1.0000 -0.0000
vn 0.8445 0.2882 0.4514
vn -0.0468 -0.8784 0.4755
vn 0.0468 -0.8784 0.4755
vn -0.4573 -0.8784 -0.1387
vn 0.2253 -0.8784 -0.4214
vn 0.3694 -0.8784 0.3031
vn -0.4214 -0.8784 0.2253
vn -0.1387 -0.8784 -0.4573
vn 0.4755 -0.8784 -0.0468
vn -0.1387 -0.8784 0.4573
vn -0.4214 -0.8784 -0.2253
vn 0.3031 -0.8784 -0.3694
vn 0.3031 -0.8784 0.3694
vn -0.4573 -0.8784 0.1387
vn -0.0468 -0.8784 -0.4755
vn 0.4755 -0.8784 0.0468
vn -0.2253 -0.8784 0.4214
vn -0.3694 -0.8784 -0.3031
vn 0.3694 -0.8784 -0.3031
vn 0.2253 -0.8784 0.4214
vn -0.4755 -0.8784 0.0468
vn 0.0468 -0.8784 -0.4755
vn 0.4573 -0.8784 0.1387
vn -0.3031 -0.8784 0.3694
vn -0.3031 -0.8784 -0.3694
vn 0.4214 -0.8784 -0.2253
vn 0.1387 -0.8784 0.4573
vn -0.4755 -0.8784 -0.0468
vn 0.1387 -0.8784 -0.4573
vn 0.4214 -0.8784 0.2253
vn -0.3694 -0.8784 0.3031
vn -0.2253 -0.8784 -0.4214
vn -0.0000 1.0000 -0.0000
vn -0.4513 0.2882 -0.8445
vn -0.0940 0.2882 0.9530
vn 0.7402 0.2882 0.6075
vn -0.2780 0.2882 -0.9164
vn -0.2780 0.2882 0.9163
vn 0.6075 0.2882 0.7402
vn -0.0938 0.2882 -0.9530
vn -0.4514 0.2882 0.8445
vn 0.4513 0.2882 0.8445
vn 0.0939 0.2882 -0.9530
vn -0.6075 0.2882 0.7402
vn 0.2779 0.2882 0.9164
vn 0.2781 0.2882 -0.9163
vn -0.7402 0.2882 0.6075
vn 0.0939 0.2882 0.9530
vn 0.4514 0.2882 -0.8445
vn -0.8445 0.2882 0.4514
vn 0.6075 0.2882 -0.7402
vn -0.9163 0.2882 0.2780
vn 0.7402 0.2882 -0.6075
vn -0.9530 0.2882 0.0938
vn 0.8445 0.2882 -0.4514
vn -0.9530 0.2882 -0.0939
vn 0.9164 0.2882 -0.2779
vn -0.9163 0.2882 -0.2781
vn 0.9530 0.2882 -0.0939
vn -0.8445 0.2882 -0.4514
vn 0.9530 0.2882 0.0940
vn -0.7402 0.2882 -0.6075
vn 0.9164 0.2882 0.2780
vn -0.6075 0.2882 -0.7402
vn -0.0000 1.0000 -0.0009
vn -0.0000 1.0000 0.0002
vn -0.0000 1.0000 0.0006
vn -0.0000 1.0000 0.0001
vn -0.0000 1.0000 -0.0001
vn -0.4514 0.2882 -0.8445
vn -0.0939 0.2882 0.9530
vn 0.7403 0.2882 0.6074
vn -0.2781 0.2882 -0.9163
vn -0.2779 0.2882 0.9164
vn 0.6074 0.2881 0.7403
vn -0.0939 0.2882 -0.9530
vn -0.4513 0.2882 0.8445
vn 0.4514 0.2882 0.8445
vn 0.0938 0.2882 -0.9530
vn -0.6074 0.2882 0.7403
vn 0.2780 0.2882 0.9163
vn 0.2780 0.2882 -0.9164
vn -0.7403 0.2882 0.6073
vn 0.0940 0.2882 0.9530
vn 0.4513 0.2882 -0.8445
vn 0.6074 0.2882 -0.7403
vn -0.9163 0.2882 0.2781
vn 0.7403 0.2882 -0.6073
vn -0.9530 0.2882 0.0939
vn -0.9530 0.2882 -0.0938
vn 0.9164 0.2882 -0.2780
vn -0.9163 0.2882 -0.2780
vn 0.9530 0.2882 -0.0940
vn 0.9530 0.2882 0.0939
vn -0.7403 0.2882 -0.6074
vn 0.9164 0.2882 0.2779
vn -0.6074 0.2881 -0.7403
vt 1.000000 1.000000
vt 0.968750 0.500000
vt 1.000000 0.500000
vt 0.968750 1.000000
vt 0.937500 0.500000
vt 0.937500 1.000000
vt 0.906250 0.500000
vt 0.906250 1.000000
vt 0.875000 0.500000
vt 0.875000 1.000000
vt 0.843750 0.500000
vt 0.843750 1.000000
vt 0.812500 0.500000
vt 0.812500 1.000000
vt 0.781250 0.500000
vt 0.781250 1.000000
vt 0.750000 0.500000
vt 0.750000 1.000000
vt 0.718750 0.500000
vt 0.718750 1.000000
vt 0.687500 0.500000
vt 0.687500 1.000000
vt 0.656250 0.500000
vt 0.656250 1.000000
vt 0.625000 0.500000
vt 0.625000 1.000000
vt 0.593750 0.500000
vt 0.593750 1.000000
vt 0.562500 0.500000
vt 0.562500 1.000000
vt 0.531250 0.500000
vt 0.531250 1.000000
vt 0.500000 0.500000
vt 0.500000 1.000000
vt 0.468750 0.500000
vt 0.468750 1.000000
vt 0.437500 0.500000
vt 0.437500 1.000000
vt 0.406250 0.500000
vt 0.406250 1.000000
vt 0.375000 0.500000
vt 0.375000 1.000000
vt 0.343750 0.500000
vt 0.343750 1.000000
vt 0.312500 0.500000
vt 0.312500 1.000000
vt 0.281250 0.500000
vt 0.281250 1.000000
vt 0.250000 0.500000
vt 0.250000 1.000000
vt 0.218750 0.500000
vt 0.218750 1.000000
vt 0.187500 0.500000
vt 0.187500 1.000000
vt 0.156250 0.500000
vt 0.156250 1.000000
vt 0.125000 0.500000
vt 0.125000 1.000000
vt 0.093750 0.500000
vt 0.093750 1.000000
vt 0.062500 0.500000
vt 0.062500 1.000000
vt 0.031250 0.500000
vt 0.031250 1.000000
vt 0.000000 0.500000
vt 0.550447 0.383337
vt 0.703178 0.485388
vt 0.796822 0.014612
vt 0.000000 1.000000
vt 0.158156 0.028269
vt 0.471731 0.158156
vt 0.341844 0.471731
vt 0.750000 0.490000
vt 0.883337 0.449553
vt 0.796822 0.485388
vt 0.841844 0.471731
vt 0.919706 0.419706
vt 0.949553 0.383337
vt 0.971731 0.341844
vt 0.985388 0.296822
vt 0.990000 0.250000
vt 0.949553 0.116663
vt 0.985388 0.203178
vt 0.971731 0.158156
vt 0.919706 0.080294
vt 0.883337 0.050447
vt 0.841844 0.028269
vt 0.750000 0.010000
vt 0.616663 0.050447
vt 0.703178 0.014612
vt 0.658156 0.028269
vt 0.580294 0.080294
vt 0.550447 0.116663
vt 0.528269 0.158156
vt 0.514612 0.203178
vt 0.510000 0.250000
vt 0.514612 0.296822
vt 0.528269 0.341844
vt 0.580294 0.419706
vt 0.616663 0.449553
vt 0.658156 0.471731
vt 0.296822 0.485388
vt 0.158156 0.471731
vt 0.250000 0.490000
vt 0.203178 0.485388
vt 0.116663 0.449553
vt 0.080294 0.419706
vt 0.050447 0.383337
vt 0.028269 0.341844
vt 0.014612 0.296822
vt 0.010000 0.250000
vt 0.014612 0.203178
vt 0.028269 0.158156
vt 0.050447 0.116663
vt 0.080294 0.080294
vt 0.116663 0.050447
vt 0.203178 0.014612
vt 0.250000 0.010000
vt 0.296822 0.014612
vt 0.341844 0.028269
vt 0.383337 0.050447
vt 0.419706 0.080294
vt 0.449553 0.116663
vt 0.485388 0.203178
vt 0.490000 0.250000
vt 0.485388 0.296822
vt 0.471731 0.341844
vt 0.449553 0.383337
vt 0.419706 0.419706
vt 0.383337 0.449553
s 0
f 2/1/1 3/2/1 1/3/1
f 4/4/2 5/5/2 3/2/2
f 6/6/3 7/7/3 5/5/3
f 8/8/4 9/9/4 7/7/4
f 10/10/5 11/11/5 9/9/5
f 12/12/6 13/13/6 11/11/6
f 14/14/7 15/15/7 13/13/7
f 16/16/8 17/17/8 15/15/8
f 18/18/9 19/19/9 17/17/9
f 20/20/10 21/21/10 19/19/10
f 22/22/11 23/23/11 21/21/11
f 24/24/12 25/25/12 23/23/12
f 26/26/13 27/27/13 25/25/13
f 28/28/14 29/29/14 27/27/14
f 30/30/15 31/31/15 29/29/15
f 32/32/16 33/33/16 31/31/16
f 34/34/17 35/35/17 33/33/17
f 36/36/18 37/37/18 35/35/18
f 38/38/19 39/39/19 37/37/19
f 40/40/20 41/41/20 39/39/20
f 42/42/21 43/43/21 41/41/21
f 44/44/22 45/45/22 43/43/22
f 46/46/23 47/47/23 45/45/23
f 48/48/24 49/49/24 47/47/24
f 50/50/25 51/51/25 49/49/25
f 52/52/26 53/53/26 51/51/26
f 54/54/27 55/55/27 53/53/27
f 56/56/28 57/57/28 55/55/28
f 58/58/29 59/59/29 57/57/29
f 60/60/30 61/61/30 59/59/30
f 48/48/31 87/46/31 88/48/31
f 62/62/32 63/63/32 61/61/32
f 64/64/33 1/65/33 63/63/33
f 55/66/34 63/67/34 31/68/34
f 91/54/35 124/56/35 92/56/35
f 4/4/36 66/1/36 65/4/36
f 64/64/37 66/69/37 2/69/37
f 20/20/38 75/22/38 22/22/38
f 40/40/39 83/38/39 84/40/39
f 56/56/40 93/58/40 58/58/40
f 12/12/41 71/14/41 14/14/41
f 32/32/42 79/30/42 80/32/42
f 48/48/43 89/50/43 50/50/43
f 4/4/44 67/6/44 6/6/44
f 24/24/45 75/22/45 76/24/45
f 40/40/46 85/42/46 42/42/46
f 60/60/47 93/58/47 94/60/47
f 16/16/48 71/14/48 72/16/48
f 32/32/49 81/34/49 34/34/49
f 52/52/50 89/50/50 90/52/50
f 8/8/51 67/6/51 68/8/51
f 24/24/52 77/26/52 26/26/52
f 44/44/53 85/42/53 86/44/53
f 60/60/54 95/62/54 62/62/54
f 16/16/55 73/18/55 18/18/55
f 36/36/56 81/34/56 82/36/56
f 52/52/57 91/54/57 54/54/57
f 8/8/58 69/10/58 10/10/58
f 28/28/59 77/26/59 78/28/59
f 44/44/60 87/46/60 46/46/60
f 64/64/61 95/62/61 96/64/61
f 20/20/62 73/18/62 74/20/62
f 36/36/63 83/38/63 38/38/63
f 56/56/64 91/54/64 92/56/64
f 12/12/65 69/10/65 70/12/65
f 28/28/66 79/30/66 30/30/66
f 115/70/67 107/71/67 99/72/67
f 79/30/68 110/28/68 111/30/68
f 65/4/69 98/1/69 97/4/69
f 92/56/70 125/58/70 93/58/70
f 79/30/71 112/32/71 80/32/71
f 65/4/72 99/6/72 67/6/72
f 93/58/73 126/60/73 94/60/73
f 81/34/74 112/32/74 113/34/74
f 67/6/75 100/8/75 68/8/75
f 95/62/76 126/60/76 127/62/76
f 81/34/77 114/36/77 82/36/77
f 68/8/78 101/10/78 69/10/78
f 96/64/79 127/62/79 128/64/79
f 83/38/80 114/36/80 115/38/80
f 69/10/81 102/12/81 70/12/81
f 96/64/82 98/69/82 66/69/82
f 83/38/83 116/40/83 84/40/83
f 71/14/84 102/12/84 103/14/84
f 84/40/85 117/42/85 85/42/85
f 71/14/86 104/16/86 72/16/86
f 85/42/87 118/44/87 86/44/87
f 73/18/88 104/16/88 105/18/88
f 87/46/89 118/44/89 119/46/89
f 73/18/90 106/20/90 74/20/90
f 88/48/91 119/46/91 120/48/91
f 75/22/92 106/20/92 107/22/92
f 88/48/93 121/50/93 89/50/93
f 75/22/94 108/24/94 76/24/94
f 90/52/95 121/50/95 122/52/95
f 76/24/96 109/26/96 77/26/96
f 90/52/97 123/54/97 91/54/97
f 77/26/98 110/28/98 78/28/98
f 2/1/1 4/4/1 3/2/1
f 4/4/2 6/6/2 5/5/2
f 6/6/3 8/8/3 7/7/3
f 8/8/4 10/10/4 9/9/4
f 10/10/5 12/12/5 11/11/5
f 12/12/6 14/14/6 13/13/6
f 14/14/7 16/16/7 15/15/7
f 16/16/8 18/18/8 17/17/8
f 18/18/9 20/20/9 19/19/9
f 20/20/10 22/22/10 21/21/10
f 22/22/11 24/24/11 23/23/11
f 24/24/12 26/26/12 25/25/12
f 26/26/13 28/28/13 27/27/13
f 28/28/14 30/30/14 29/29/14
f 30/30/15 32/32/15 31/31/15
f 32/32/16 34/34/16 33/33/16
f 34/34/17 36/36/17 35/35/17
f 36/36/18 38/38/18 37/37/18
f 38/38/19 40/40/19 39/39/19
f 40/40/20 42/42/20 41/41/20
f 42/42/21 44/44/21 43/43/21
f 44/44/22 46/46/22 45/45/22
f 46/46/23 48/48/23 47/47/23
f 48/48/24 50/50/24 49/49/24
f 50/50/25 52/52/25 51/51/25
f 52/52/26 54/54/26 53/53/26
f 54/54/27 56/56/27 55/55/27
f 56/56/28 58/58/28 57/57/28
f 58/58/29 60/60/29 59/59/29
f 60/60/30 62/62/30 61/61/30
f 48/48/31 46/46/31 87/46/31
f 62/62/32 64/64/32 63/63/32
f 64/64/33 2/69/33 1/65/33
f 63/67/34 1/73/34 7/74/34
f 1/73/34 3/75/34 7/74/34
f 3/75/34 5/76/34 7/74/34
f 7/74/34 9/77/34 11/78/34
f 11/78/34 13/79/34 7/74/34
f 13/79/34 15/80/34 7/74/34
f 15/80/34 17/81/34 23/82/34
f 17/81/34 19/83/34 23/82/34
f 19/83/34 21/84/34 23/82/34
f 23/82/34 25/85/34 27/86/34
f 27/86/34 29/87/34 23/82/34
f 29/87/34 31/68/34 23/82/34
f 31/68/34 33/88/34 39/89/34
f 33/88/34 35/90/34 39/89/34
f 35/90/34 37/91/34 39/89/34
f 39/89/34 41/92/34 43/93/34
f 43/93/34 45/94/34 39/89/34
f 45/94/34 47/95/34 39/89/34
f 47/95/34 49/96/34 55/66/34
f 49/96/34 51/97/34 55/66/34
f 51/97/34 53/98/34 55/66/34
f 55/66/34 57/99/34 59/100/34
f 59/100/34 61/101/34 55/66/34
f 61/101/34 63/67/34 55/66/34
f 63/67/34 7/74/34 15/80/34
f 15/80/34 23/82/34 63/67/34
f 23/82/34 31/68/34 63/67/34
f 31/68/34 39/89/34 47/95/34
f 47/95/34 55/66/34 31/68/34
f 91/54/35 123/54/35 124/56/35
f 4/4/36 2/1/36 66/1/36
f 64/64/37 96/64/37 66/69/37
f 20/20/38 74/20/38 75/22/38
f 40/40/39 38/38/39 83/38/39
f 56/56/40 92/56/40 93/58/40
f 12/12/41 70/12/41 71/14/41
f 32/32/42 30/30/42 79/30/42
f 48/48/43 88/48/43 89/50/43
f 4/4/44 65/4/44 67/6/44
f 24/24/45 22/22/45 75/22/45
f 40/40/46 84/40/46 85/42/46
f 60/60/47 58/58/47 93/58/47
f 16/16/48 14/14/48 71/14/48
f 32/32/49 80/32/49 81/34/49
f 52/52/50 50/50/50 89/50/50
f 8/8/51 6/6/51 67/6/51
f 24/24/52 76/24/52 77/26/52
f 44/44/53 42/42/53 85/42/53
f 60/60/54 94/60/54 95/62/54
f 16/16/55 72/16/55 73/18/55
f 36/36/56 34/34/56 81/34/56
f 52/52/57 90/52/57 91/54/57
f 8/8/58 68/8/58 69/10/58
f 28/28/59 26/26/59 77/26/59
f 44/44/60 86/44/60 87/46/60
f 64/64/61 62/62/61 95/62/61
f 20/20/62 18/18/62 73/18/62
f 36/36/63 82/36/63 83/38/63
f 56/56/64 54/54/64 91/54/64
f 12/12/65 10/10/65 69/10/65
f 28/28/66 78/28/66 79/30/66
f 99/72/67 97/102/67 127/103/67
f 97/102/67 98/104/67 127/103/67
f 98/104/67 128/105/67 127/103/67
f 127/103/99 126/106/99 125/107/99
f 125/107/67 124/108/67 127/103/67
f 124/108/67 123/109/67 127/103/67
f 123/109/100 122/110/100 121/111/100
f 121/111/67 120/112/67 123/109/67
f 120/112/67 119/113/67 123/109/67
f 119/113/67 118/114/67 117/115/67
f 117/115/67 116/116/67 119/113/67
f 116/116/67 115/70/67 119/113/67
f 115/70/67 114/117/67 113/118/67
f 113/118/67 112/119/67 111/120/67
f 111/120/67 110/121/67 107/71/67
f 110/121/101 109/122/101 107/71/101
f 109/122/67 108/123/67 107/71/67
f 107/71/102 106/124/102 105/125/102
f 105/125/67 104/126/67 103/127/67
f 103/127/67 102/128/67 99/72/67
f 102/128/67 101/129/67 99/72/67
f 101/129/67 100/130/67 99/72/67
f 115/70/67 113/118/67 111/120/67
f 107/71/67 105/125/67 103/127/67
f 99/72/103 127/103/103 123/109/103
f 123/109/67 119/113/67 115/70/67
f 115/70/102 111/120/102 107/71/102
f 107/71/67 103/127/67 99/72/67
f 99/72/67 123/109/67 115/70/67
f 79/30/104 78/28/104 110/28/104
f 65/4/105 66/1/105 98/1/105
f 92/56/106 124/56/106 125/58/106
f 79/30/107 111/30/107 112/32/107
f 65/4/108 97/4/108 99/6/108
f 93/58/109 125/58/109 126/60/109
f 81/34/110 80/32/110 112/32/110
f 67/6/111 99/6/111 100/8/111
f 95/62/112 94/60/112 126/60/112
f 81/34/113 113/34/113 114/36/113
f 68/8/114 100/8/114 101/10/114
f 96/64/115 95/62/115 127/62/115
f 83/38/116 82/36/116 114/36/116
f 69/10/117 101/10/117 102/12/117
f 96/64/118 128/64/118 98/69/118
f 83/38/119 115/38/119 116/40/119
f 71/14/84 70/12/84 102/12/84
f 84/40/120 116/40/120 117/42/120
f 71/14/121 103/14/121 104/16/121
f 85/42/122 117/42/122 118/44/122
f 73/18/123 72/16/123 104/16/123
f 87/46/89 86/44/89 118/44/89
f 73/18/124 105/18/124 106/20/124
f 88/48/125 87/46/125 119/46/125
f 75/22/126 74/20/126 106/20/126
f 88/48/127 120/48/127 121/50/127
f 75/22/94 107/22/94 108/24/94
f 90/52/128 89/50/128 121/50/128
f 76/24/129 108/24/129 109/26/129
f 90/52/130 122/52/130 123/54/130
f 77/26/131 109/26/131 110/28/131
