<?xml version="1.0" encoding="UTF-8"?>
<svg xmlns="http://www.w3.org/2000/svg" xmlns:xlink="http://www.w3.org/1999/xlink" width="60.678pt" height="60.678pt" viewBox="0 0 60.678 60.678" version="1.1">
<g id="surface21">
<path style=" stroke:none;fill-rule:nonzero;fill:rgb(100%,94.898987%,0%);fill-opacity:1;" d="M 57.980469 29.632812 L 51.085938 22.742188 C 50.699219 22.351562 50.699219 22.351562 51.085938 22.742188 L 57.980469 29.632812 C 58.371094 30.023438 58.371094 30.023438 57.980469 29.632812 L 51.085938 22.742188 C 50.699219 22.351562 50.382812 21.589844 50.382812 21.039062 L 50.382812 11.292969 C 50.382812 10.742188 49.9375 10.292969 49.386719 10.292969 L 39.636719 10.296875 C 39.085938 10.296875 38.324219 9.980469 37.9375 9.589844 L 31.042969 2.695312 C 30.65625 2.308594 30.023438 2.308594 29.632812 2.695312 L 22.742188 9.589844 C 22.351562 9.980469 21.589844 10.296875 21.039062 10.296875 L 11.292969 10.292969 C 10.742188 10.292969 10.292969 10.742188 10.292969 11.292969 L 10.296875 21.039062 C 10.296875 21.589844 9.980469 22.351562 9.589844 22.742188 L 2.695312 29.632812 C 2.308594 30.023438 2.308594 30.65625 2.695312 31.042969 L 9.589844 37.9375 C 9.980469 38.324219 10.296875 39.085938 10.296875 39.636719 L 10.292969 49.386719 C 10.292969 49.9375 10.742188 50.382812 11.292969 50.382812 L 21.039062 50.382812 C 21.589844 50.382812 22.351562 50.699219 22.742188 51.085938 L 29.632812 57.980469 C 30.023438 58.371094 30.65625 58.371094 31.042969 57.980469 L 37.9375 51.085938 C 38.324219 50.699219 39.085938 50.382812 39.636719 50.382812 L 49.386719 50.382812 C 49.9375 50.382812 50.382812 49.9375 50.382812 49.386719 L 50.382812 39.636719 C 50.382812 39.085938 50.699219 38.324219 51.085938 37.9375 L 57.980469 31.042969 C 58.371094 30.65625 58.371094 30.023438 57.980469 29.632812 L 51.085938 22.742188 C 50.699219 22.351562 50.699219 22.351562 51.085938 22.742188 L 57.980469 29.632812 C 58.371094 30.023438 58.371094 30.023438 57.980469 29.632812 Z M 57.980469 29.632812 "/>
<path style="fill:none;stroke-width:3.9851;stroke-linecap:butt;stroke-linejoin:miter;stroke:rgb(56.176758%,54.31366%,28.137207%);stroke-opacity:1;stroke-miterlimit:10;" d="M 27.641469 0.706188 L 20.746937 7.596813 C 20.360219 7.987438 20.360219 7.987438 20.746937 7.596813 L 27.641469 0.706188 C 28.032094 0.315563 28.032094 0.315563 27.641469 0.706188 L 20.746937 7.596813 C 20.360219 7.987438 20.043812 8.749156 20.043812 9.299938 L 20.043812 19.046031 C 20.043812 19.596813 19.5985 20.046031 19.047719 20.046031 L 9.297719 20.042125 C 8.746937 20.042125 7.985219 20.358531 7.5985 20.749156 L 0.703969 27.643688 C 0.31725 28.030406 -0.315563 28.030406 -0.706188 27.643688 L -7.596813 20.749156 C -7.987438 20.358531 -8.749156 20.042125 -9.299938 20.042125 L -19.046031 20.046031 C -19.596813 20.046031 -20.046031 19.596813 -20.046031 19.046031 L -20.042125 9.299938 C -20.042125 8.749156 -20.358531 7.987438 -20.749156 7.596813 L -27.643688 0.706188 C -28.030406 0.315563 -28.030406 -0.31725 -27.643688 -0.703969 L -20.749156 -7.5985 C -20.358531 -7.985219 -20.042125 -8.746937 -20.042125 -9.297719 L -20.046031 -19.047719 C -20.046031 -19.5985 -19.596813 -20.043812 -19.046031 -20.043812 L -9.299938 -20.043812 C -8.749156 -20.043812 -7.987438 -20.360219 -7.596813 -20.746937 L -0.706188 -27.641469 C -0.315563 -28.032094 0.31725 -28.032094 0.703969 -27.641469 L 7.5985 -20.746937 C 7.985219 -20.360219 8.746937 -20.043812 9.297719 -20.043812 L 19.047719 -20.043812 C 19.5985 -20.043812 20.043812 -19.5985 20.043812 -19.047719 L 20.043812 -9.297719 C 20.043812 -8.746937 20.360219 -7.985219 20.746937 -7.5985 L 27.641469 -0.703969 C 28.032094 -0.31725 28.032094 0.315563 27.641469 0.706188 L 20.746937 7.596813 C 20.360219 7.987438 20.360219 7.987438 20.746937 7.596813 L 27.641469 0.706188 C 28.032094 0.315563 28.032094 0.315563 27.641469 0.706188 Z M 27.641469 0.706188 " transform="matrix(1,0,0,-1,30.339,30.339)"/>
</g>
</svg>
