<?xml version="1.0" encoding="UTF-8"?>
<svg xmlns="http://www.w3.org/2000/svg" xmlns:xlink="http://www.w3.org/1999/xlink" width="57.87pt" height="59.254pt" viewBox="0 0 57.87 59.254" version="1.1">
<defs>
<clipPath id="clip1">
  <path d="M 0 0 L 57.871094 0 L 57.871094 59.253906 L 0 59.253906 Z M 0 0 "/>
</clipPath>
</defs>
<g id="surface16">
<path style=" stroke:none;fill-rule:nonzero;fill:rgb(100%,94.898987%,0%);fill-opacity:1;" d="M 54.90625 29.40625 L 37.617188 25.460938 C 37.082031 25.335938 37.082031 25.335938 37.617188 25.460938 L 54.90625 29.40625 C 55.441406 29.527344 55.441406 29.527344 54.90625 29.40625 L 37.617188 25.460938 C 37.082031 25.335938 36.839844 24.835938 37.078125 24.339844 L 44.769531 8.363281 C 45.011719 7.867188 44.855469 7.742188 44.425781 8.085938 L 30.5625 19.144531 C 30.128906 19.484375 29.589844 19.363281 29.351562 18.867188 L 21.65625 2.890625 C 21.417969 2.394531 21.222656 2.4375 21.222656 2.988281 L 21.222656 20.722656 C 21.222656 21.273438 20.789062 21.617188 20.253906 21.496094 L 2.964844 17.550781 C 2.425781 17.429688 2.339844 17.605469 2.773438 17.949219 L 16.636719 29.007812 C 17.066406 29.347656 17.066406 29.90625 16.636719 30.25 L 2.773438 41.304688 C 2.339844 41.648438 2.425781 41.824219 2.964844 41.703125 L 20.253906 37.757812 C 20.789062 37.636719 21.222656 37.980469 21.222656 38.53125 L 21.222656 56.265625 C 21.222656 56.816406 21.417969 56.859375 21.65625 56.363281 L 29.351562 40.386719 C 29.589844 39.890625 30.128906 39.769531 30.5625 40.109375 L 44.425781 51.167969 C 44.855469 51.511719 45.011719 51.386719 44.773438 50.890625 L 37.078125 34.914062 C 36.839844 34.417969 37.082031 33.917969 37.617188 33.792969 L 54.90625 29.847656 C 55.441406 29.726562 55.441406 29.527344 54.90625 29.40625 L 37.617188 25.460938 C 37.082031 25.335938 37.082031 25.335938 37.617188 25.460938 L 54.90625 29.40625 C 55.441406 29.527344 55.441406 29.527344 54.90625 29.40625 Z M 54.90625 29.40625 "/>
<g clip-path="url(#clip1)" clip-rule="nonzero">
<path style="fill:none;stroke-width:3.9851;stroke-linecap:butt;stroke-linejoin:miter;stroke:rgb(56.176758%,54.31366%,28.137207%);stroke-opacity:1;stroke-miterlimit:10;" d="M 27.37525 0.22075 L 10.086187 4.166062 C 9.551031 4.291062 9.551031 4.291062 10.086187 4.166062 L 27.37525 0.22075 C 27.910406 0.0996562 27.910406 0.0996562 27.37525 0.22075 L 10.086187 4.166062 C 9.551031 4.291062 9.308844 4.791062 9.547125 5.287156 L 17.238531 21.263719 C 17.480719 21.759812 17.324469 21.884812 16.894781 21.541062 L 3.0315 10.482469 C 2.597906 10.142625 2.058844 10.263719 1.820562 10.759812 L -5.87475 26.736375 C -6.113031 27.232469 -6.308344 27.1895 -6.308344 26.638719 L -6.308344 8.904344 C -6.308344 8.353562 -6.741938 8.009812 -7.277094 8.130906 L -24.566156 12.076219 C -25.105219 12.197312 -25.191156 12.021531 -24.757563 11.677781 L -10.894281 0.619187 C -10.464594 0.279344 -10.464594 -0.27925 -10.894281 -0.623 L -24.757563 -11.677688 C -25.191156 -12.021438 -25.105219 -12.197219 -24.566156 -12.076125 L -7.277094 -8.130813 C -6.741938 -8.009719 -6.308344 -8.353469 -6.308344 -8.90425 L -6.308344 -26.638625 C -6.308344 -27.189406 -6.113031 -27.232375 -5.87475 -26.736281 L 1.820562 -10.759719 C 2.058844 -10.263625 2.597906 -10.142531 3.0315 -10.482375 L 16.894781 -21.540969 C 17.324469 -21.884719 17.480719 -21.759719 17.242437 -21.263625 L 9.547125 -5.287063 C 9.308844 -4.790969 9.551031 -4.290969 10.086187 -4.165969 L 27.37525 -0.220656 C 27.910406 -0.0995625 27.910406 0.0996562 27.37525 0.22075 L 10.086187 4.166062 C 9.551031 4.291062 9.551031 4.291062 10.086187 4.166062 L 27.37525 0.22075 C 27.910406 0.0996562 27.910406 0.0996562 27.37525 0.22075 Z M 27.37525 0.22075 " transform="matrix(1,0,0,-1,27.531,29.627)"/>
</g>
</g>
</svg>
