<?xml version="1.0" encoding="UTF-8"?>
<svg xmlns="http://www.w3.org/2000/svg" xmlns:xlink="http://www.w3.org/1999/xlink" width="60.678pt" height="53.083pt" viewBox="0 0 60.678 53.083" version="1.1">
<defs>
<clipPath id="clip1">
  <path d="M 0 0 L 60.679688 0 L 60.679688 53.082031 L 0 53.082031 Z M 0 0 "/>
</clipPath>
</defs>
<g id="surface6">
<path style=" stroke:none;fill-rule:nonzero;fill:rgb(100%,94.898987%,0%);fill-opacity:1;" d="M 57.824219 26.042969 L 45.375 18.859375 C 44.898438 18.582031 44.898438 18.582031 45.375 18.859375 L 57.824219 26.042969 C 58.300781 26.320312 58.300781 26.320312 57.824219 26.042969 L 45.375 18.859375 C 44.898438 18.582031 44.511719 17.914062 44.511719 17.363281 L 44.511719 2.988281 C 44.511719 2.4375 44.125 2.214844 43.648438 2.492188 L 31.203125 9.679688 C 30.726562 9.953125 29.953125 9.953125 29.476562 9.679688 L 17.027344 2.492188 C 16.550781 2.214844 16.164062 2.4375 16.164062 2.988281 L 16.167969 17.363281 C 16.167969 17.914062 15.78125 18.582031 15.304688 18.859375 L 2.855469 26.042969 C 2.378906 26.320312 2.378906 26.765625 2.855469 27.039062 L 15.304688 34.226562 C 15.78125 34.5 16.167969 35.171875 16.167969 35.71875 L 16.164062 50.09375 C 16.164062 50.644531 16.550781 50.867188 17.027344 50.59375 L 29.476562 43.40625 C 29.953125 43.128906 30.726562 43.128906 31.203125 43.40625 L 43.648438 50.59375 C 44.125 50.867188 44.511719 50.644531 44.511719 50.09375 L 44.511719 35.71875 C 44.511719 35.171875 44.898438 34.5 45.375 34.226562 L 57.824219 27.039062 C 58.300781 26.765625 58.300781 26.320312 57.824219 26.042969 L 45.375 18.859375 C 44.898438 18.582031 44.898438 18.582031 45.375 18.859375 L 57.824219 26.042969 C 58.300781 26.320312 58.300781 26.320312 57.824219 26.042969 Z M 57.824219 26.042969 "/>
<g clip-path="url(#clip1)" clip-rule="nonzero">
<path style="fill:none;stroke-width:3.9851;stroke-linecap:butt;stroke-linejoin:miter;stroke:rgb(56.176758%,54.31366%,28.137207%);stroke-opacity:1;stroke-miterlimit:10;" d="M 27.485219 0.499031 L 15.036 7.682625 C 14.559437 7.959969 14.559437 7.959969 15.036 7.682625 L 27.485219 0.499031 C 27.961781 0.221687 27.961781 0.221687 27.485219 0.499031 L 15.036 7.682625 C 14.559437 7.959969 14.172719 8.627937 14.172719 9.178719 L 14.172719 23.553719 C 14.172719 24.1045 13.786 24.327156 13.309437 24.049812 L 0.864125 16.862312 C 0.387562 16.588875 -0.385875 16.588875 -0.862438 16.862312 L -13.311656 24.049812 C -13.788219 24.327156 -14.174938 24.1045 -14.174938 23.553719 L -14.171031 9.178719 C -14.171031 8.627937 -14.55775 7.959969 -15.034313 7.682625 L -27.483531 0.499031 C -27.960094 0.221687 -27.960094 -0.223625 -27.483531 -0.497063 L -15.034313 -7.684563 C -14.55775 -7.958 -14.171031 -8.629875 -14.171031 -9.17675 L -14.174938 -23.55175 C -14.174938 -24.102531 -13.788219 -24.325188 -13.311656 -24.05175 L -0.862438 -16.86425 C -0.385875 -16.586906 0.387562 -16.586906 0.864125 -16.86425 L 13.309437 -24.05175 C 13.786 -24.325188 14.172719 -24.102531 14.172719 -23.55175 L 14.172719 -9.17675 C 14.172719 -8.629875 14.559437 -7.958 15.036 -7.684563 L 27.485219 -0.497063 C 27.961781 -0.223625 27.961781 0.221687 27.485219 0.499031 L 15.036 7.682625 C 14.559437 7.959969 14.559437 7.959969 15.036 7.682625 L 27.485219 0.499031 C 27.961781 0.221687 27.961781 0.221687 27.485219 0.499031 Z M 27.485219 0.499031 " transform="matrix(1,0,0,-1,30.339,26.542)"/>
</g>
</g>
</svg>
