<?xml version="1.0" encoding="UTF-8"?>
<svg xmlns="http://www.w3.org/2000/svg" xmlns:xlink="http://www.w3.org/1999/xlink" width="55.264pt" height="57.904pt" viewBox="0 0 55.264 57.904" version="1.1">
<defs>
<clipPath id="clip1">
  <path d="M 0 0 L 55.265625 0 L 55.265625 57.902344 L 0 57.902344 Z M 0 0 "/>
</clipPath>
</defs>
<g id="surface1">
<path style=" stroke:none;fill-rule:nonzero;fill:rgb(100%,94.898987%,0%);fill-opacity:1;" d="M 52.324219 28.644531 L 34.632812 22.894531 C 34.109375 22.726562 34.109375 22.726562 34.632812 22.894531 L 52.324219 28.644531 C 52.847656 28.8125 52.847656 28.8125 52.324219 28.644531 L 34.632812 22.894531 C 34.109375 22.726562 33.683594 22.140625 33.683594 21.59375 L 33.683594 2.988281 C 33.683594 2.4375 33.421875 2.351562 33.097656 2.796875 L 22.164062 17.847656 C 21.839844 18.292969 21.15625 18.515625 20.632812 18.347656 L 2.9375 12.597656 C 2.417969 12.429688 2.253906 12.652344 2.578125 13.097656 L 13.511719 28.144531 C 13.835938 28.589844 13.835938 29.3125 13.511719 29.757812 L 2.578125 44.808594 C 2.253906 45.253906 2.417969 45.476562 2.9375 45.304688 L 20.632812 39.558594 C 21.15625 39.386719 21.839844 39.609375 22.164062 40.054688 L 33.097656 55.105469 C 33.421875 55.550781 33.683594 55.464844 33.683594 54.914062 L 33.683594 36.3125 C 33.683594 35.761719 34.109375 35.175781 34.632812 35.007812 L 52.324219 29.261719 C 52.847656 29.089844 52.847656 28.8125 52.324219 28.644531 L 34.632812 22.894531 C 34.109375 22.726562 34.109375 22.726562 34.632812 22.894531 L 52.324219 28.644531 C 52.847656 28.8125 52.847656 28.8125 52.324219 28.644531 Z M 52.324219 28.644531 "/>
<g clip-path="url(#clip1)" clip-rule="nonzero">
<path style="fill:none;stroke-width:3.9851;stroke-linecap:butt;stroke-linejoin:miter;stroke:rgb(56.176758%,54.31366%,28.137207%);stroke-opacity:1;stroke-miterlimit:10;" d="M 27.399219 0.307469 L 9.707813 6.057469 C 9.184375 6.225437 9.184375 6.225437 9.707813 6.057469 L 27.399219 0.307469 C 27.922656 0.1395 27.922656 0.1395 27.399219 0.307469 L 9.707813 6.057469 C 9.184375 6.225437 8.758594 6.811375 8.758594 7.35825 L 8.758594 25.963719 C 8.758594 26.5145 8.496875 26.600437 8.172656 26.155125 L -2.760937 11.104344 C -3.085156 10.659031 -3.76875 10.436375 -4.292187 10.604344 L -21.9875 16.354344 C -22.507031 16.522312 -22.671094 16.299656 -22.346875 15.854344 L -11.413281 0.807469 C -11.089062 0.362156 -11.089062 -0.3605 -11.413281 -0.805813 L -22.346875 -15.856594 C -22.671094 -16.301906 -22.507031 -16.524563 -21.9875 -16.352688 L -4.292187 -10.606594 C -3.76875 -10.434719 -3.085156 -10.657375 -2.760937 -11.102688 L 8.172656 -26.153469 C 8.496875 -26.598781 8.758594 -26.512844 8.758594 -25.962063 L 8.758594 -7.3605 C 8.758594 -6.809719 9.184375 -6.223781 9.707813 -6.055813 L 27.399219 -0.309719 C 27.922656 -0.137844 27.922656 0.1395 27.399219 0.307469 L 9.707813 6.057469 C 9.184375 6.225437 9.184375 6.225437 9.707813 6.057469 L 27.399219 0.307469 C 27.922656 0.1395 27.922656 0.1395 27.399219 0.307469 Z M 27.399219 0.307469 " transform="matrix(1,0,0,-1,24.925,28.952)"/>
</g>
</g>
</svg>
