<?xml version="1.0" encoding="UTF-8"?>
<svg xmlns="http://www.w3.org/2000/svg" xmlns:xlink="http://www.w3.org/1999/xlink" width="60.678pt" height="60.678pt" viewBox="0 0 60.678 60.678" version="1.1">
<g id="surface26">
<path style=" stroke:none;fill-rule:nonzero;fill:rgb(100%,94.898987%,0%);fill-opacity:1;" d="M 57.765625 29.957031 L 45.433594 24.851562 C 44.921875 24.640625 44.921875 24.640625 45.433594 24.851562 L 57.765625 29.957031 C 58.273438 30.167969 58.273438 30.167969 57.765625 29.957031 L 45.433594 24.851562 C 44.921875 24.640625 44.683594 24.054688 44.894531 23.546875 L 50.003906 11.214844 C 50.210938 10.707031 49.972656 10.464844 49.460938 10.675781 L 37.128906 15.785156 C 36.621094 15.996094 36.039062 15.753906 35.828125 15.246094 L 30.71875 2.914062 C 30.507812 2.402344 30.167969 2.402344 29.957031 2.914062 L 24.851562 15.246094 C 24.640625 15.753906 24.054688 15.996094 23.546875 15.785156 L 11.214844 10.675781 C 10.707031 10.464844 10.464844 10.707031 10.675781 11.214844 L 15.785156 23.546875 C 15.996094 24.054688 15.753906 24.640625 15.246094 24.851562 L 2.914062 29.957031 C 2.402344 30.167969 2.402344 30.507812 2.914062 30.71875 L 15.246094 35.828125 C 15.753906 36.039062 15.996094 36.621094 15.785156 37.128906 L 10.675781 49.460938 C 10.464844 49.972656 10.707031 50.210938 11.214844 50.003906 L 23.546875 44.894531 C 24.054688 44.683594 24.640625 44.921875 24.851562 45.433594 L 29.957031 57.765625 C 30.167969 58.273438 30.507812 58.273438 30.71875 57.765625 L 35.828125 45.433594 C 36.039062 44.921875 36.621094 44.683594 37.128906 44.894531 L 49.460938 50.003906 C 49.972656 50.210938 50.210938 49.972656 50.003906 49.460938 L 44.894531 37.128906 C 44.683594 36.621094 44.921875 36.039062 45.433594 35.828125 L 57.765625 30.71875 C 58.273438 30.507812 58.273438 30.167969 57.765625 29.957031 L 45.433594 24.851562 C 44.921875 24.640625 44.921875 24.640625 45.433594 24.851562 L 57.765625 29.957031 C 58.273438 30.167969 58.273438 30.167969 57.765625 29.957031 Z M 57.765625 29.957031 "/>
<path style="fill:none;stroke-width:3.9851;stroke-linecap:butt;stroke-linejoin:miter;stroke:rgb(56.176758%,54.31366%,28.137207%);stroke-opacity:1;stroke-miterlimit:10;" d="M 27.426625 0.381969 L 15.094594 5.487438 C 14.582875 5.698375 14.582875 5.698375 15.094594 5.487438 L 27.426625 0.381969 C 27.934437 0.171031 27.934437 0.171031 27.426625 0.381969 L 15.094594 5.487438 C 14.582875 5.698375 14.344594 6.284313 14.555531 6.792125 L 19.664906 19.124156 C 19.871937 19.631969 19.633656 19.874156 19.121937 19.663219 L 6.789906 14.553844 C 6.282094 14.342906 5.700062 14.585094 5.489125 15.092906 L 0.37975 27.424938 C 0.168812 27.936656 -0.171031 27.936656 -0.381969 27.424938 L -5.487438 15.092906 C -5.698375 14.585094 -6.284313 14.342906 -6.792125 14.553844 L -19.124156 19.663219 C -19.631969 19.874156 -19.874156 19.631969 -19.663219 19.124156 L -14.553844 6.792125 C -14.342906 6.284313 -14.585094 5.698375 -15.092906 5.487438 L -27.424938 0.381969 C -27.936656 0.171031 -27.936656 -0.168812 -27.424938 -0.37975 L -15.092906 -5.489125 C -14.585094 -5.700062 -14.342906 -6.282094 -14.553844 -6.789906 L -19.663219 -19.121937 C -19.874156 -19.633656 -19.631969 -19.871937 -19.124156 -19.664906 L -6.792125 -14.555531 C -6.284313 -14.344594 -5.698375 -14.582875 -5.487438 -15.094594 L -0.381969 -27.426625 C -0.171031 -27.934437 0.168812 -27.934437 0.37975 -27.426625 L 5.489125 -15.094594 C 5.700062 -14.582875 6.282094 -14.344594 6.789906 -14.555531 L 19.121937 -19.664906 C 19.633656 -19.871937 19.871937 -19.633656 19.664906 -19.121937 L 14.555531 -6.789906 C 14.344594 -6.282094 14.582875 -5.700062 15.094594 -5.489125 L 27.426625 -0.37975 C 27.934437 -0.168812 27.934437 0.171031 27.426625 0.381969 L 15.094594 5.487438 C 14.582875 5.698375 14.582875 5.698375 15.094594 5.487438 L 27.426625 0.381969 C 27.934437 0.171031 27.934437 0.171031 27.426625 0.381969 Z M 27.426625 0.381969 " transform="matrix(1,0,0,-1,30.339,30.339)"/>
</g>
</svg>
