<?xml version="1.0" encoding="UTF-8"?>
<svg xmlns="http://www.w3.org/2000/svg" xmlns:xlink="http://www.w3.org/1999/xlink" width="57.87pt" height="59.254pt" viewBox="0 0 57.87 59.254" version="1.1">
<defs>
<clipPath id="clip1">
  <path d="M 0 0 L 57.871094 0 L 57.871094 59.253906 L 0 59.253906 Z M 0 0 "/>
</clipPath>
</defs>
<g id="surface11">
<path style=" stroke:none;fill-rule:nonzero;fill:rgb(100%,94.898987%,0%);fill-opacity:1;" d="M 55.097656 29.007812 L 45.980469 21.738281 C 45.550781 21.394531 45.550781 21.394531 45.980469 21.738281 L 55.097656 29.007812 C 55.527344 29.347656 55.527344 29.347656 55.097656 29.007812 L 45.980469 21.738281 C 45.550781 21.394531 45.203125 20.671875 45.203125 20.121094 L 45.203125 8.460938 C 45.203125 7.910156 44.769531 7.566406 44.230469 7.6875 L 32.867188 10.28125 C 32.332031 10.40625 31.546875 10.226562 31.117188 9.882812 L 22.003906 2.613281 C 21.574219 2.269531 21.03125 2.394531 20.792969 2.890625 L 15.734375 13.394531 C 15.496094 13.890625 14.867188 14.390625 14.332031 14.511719 L 2.964844 17.105469 C 2.425781 17.230469 2.1875 17.730469 2.425781 18.226562 L 7.484375 28.730469 C 7.722656 29.226562 7.722656 30.027344 7.484375 30.523438 L 2.425781 41.027344 C 2.1875 41.523438 2.425781 42.023438 2.964844 42.148438 L 14.332031 44.742188 C 14.867188 44.863281 15.496094 45.363281 15.734375 45.859375 L 20.792969 56.363281 C 21.03125 56.859375 21.574219 56.984375 22.003906 56.640625 L 31.117188 49.371094 C 31.546875 49.027344 32.332031 48.851562 32.867188 48.972656 L 44.234375 51.566406 C 44.769531 51.6875 45.203125 51.34375 45.203125 50.792969 L 45.203125 39.132812 C 45.203125 38.582031 45.550781 37.859375 45.980469 37.515625 L 55.097656 30.246094 C 55.527344 29.90625 55.527344 29.347656 55.097656 29.007812 L 45.980469 21.738281 C 45.550781 21.394531 45.550781 21.394531 45.980469 21.738281 L 55.097656 29.007812 C 55.527344 29.347656 55.527344 29.347656 55.097656 29.007812 Z M 55.097656 29.007812 "/>
<g clip-path="url(#clip1)" clip-rule="nonzero">
<path style="fill:none;stroke-width:3.9851;stroke-linecap:butt;stroke-linejoin:miter;stroke:rgb(56.176758%,54.31366%,28.137207%);stroke-opacity:1;stroke-miterlimit:10;" d="M 27.566656 0.619187 L 18.449469 7.888719 C 18.019781 8.232469 18.019781 8.232469 18.449469 7.888719 L 27.566656 0.619187 C 27.996344 0.279344 27.996344 0.279344 27.566656 0.619187 L 18.449469 7.888719 C 18.019781 8.232469 17.672125 8.955125 17.672125 9.505906 L 17.672125 21.166062 C 17.672125 21.716844 17.238531 22.060594 16.699469 21.9395 L 5.336187 19.34575 C 4.801031 19.22075 4.015875 19.400437 3.586187 19.744187 L -5.527094 27.013719 C -5.956781 27.357469 -6.49975 27.232469 -6.738031 26.736375 L -11.796625 16.232469 C -12.034906 15.736375 -12.663813 15.236375 -13.198969 15.115281 L -24.566156 12.521531 C -25.105219 12.396531 -25.3435 11.896531 -25.105219 11.400437 L -20.046625 0.896531 C -19.808344 0.400437 -19.808344 -0.400344 -20.046625 -0.896438 L -25.105219 -11.400344 C -25.3435 -11.896438 -25.105219 -12.396438 -24.566156 -12.521438 L -13.198969 -15.115188 C -12.663813 -15.236281 -12.034906 -15.736281 -11.796625 -16.232375 L -6.738031 -26.736281 C -6.49975 -27.232375 -5.956781 -27.357375 -5.527094 -27.013625 L 3.586187 -19.744094 C 4.015875 -19.400344 4.801031 -19.224563 5.336187 -19.345656 L 16.703375 -21.939406 C 17.238531 -22.0605 17.672125 -21.71675 17.672125 -21.165969 L 17.672125 -9.505813 C 17.672125 -8.955031 18.019781 -8.232375 18.449469 -7.888625 L 27.566656 -0.619094 C 27.996344 -0.27925 27.996344 0.279344 27.566656 0.619187 L 18.449469 7.888719 C 18.019781 8.232469 18.019781 8.232469 18.449469 7.888719 L 27.566656 0.619187 C 27.996344 0.279344 27.996344 0.279344 27.566656 0.619187 Z M 27.566656 0.619187 " transform="matrix(1,0,0,-1,27.531,29.627)"/>
</g>
</g>
</svg>
