#define block24_width 24
#define block24_height 24
static unsigned char block24_bits[] = {
   0x00, 0x00, 0x00, 0x00, 0x00, 0x00, 0xfc, 0xff, 0x3f, 0xfc, 0xff, 0x3f,
   0xfc, 0xff, 0x3f, 0xfc, 0xff, 0x3f, 0xfc, 0xff, 0x3f, 0xfc, 0xff, 0x3f,
   0xfc, 0xff, 0x3f, 0xfc, 0xff, 0x3f, 0xfc, 0xff, 0x3f, 0xfc, 0xff, 0x3f,
   0xfc, 0xff, 0x3f, 0xfc, 0xff, 0x3f, 0xfc, 0xff, 0x3f, 0xfc, 0xff, 0x3f,
   0xfc, 0xff, 0x3f, 0xfc, 0xff, 0x3f, 0xfc, 0xff, 0x3f, 0xfc, 0xff, 0x3f,
   0xfc, 0xff, 0x3f, 0xfc, 0xff, 0x3f, 0x00, 0x00, 0x00, 0x00, 0x00, 0x00};
