#define circle24_width 24
#define circle24_height 24
static unsigned char circle24_bits[] = {
   0x00, 0x7e, 0x00, 0xc0, 0xff, 0x03, 0xe0, 0xc3, 0x07, 0x70, 0x00, 0x0e,
   0x38, 0x00, 0x1c, 0x1c, 0x00, 0x38, 0x0e, 0x00, 0x70, 0x06, 0x00, 0x60,
   0x06, 0x00, 0x60, 0x03, 0x00, 0xc0, 0x03, 0x00, 0xc0, 0x03, 0x00, 0xc0,
   0x03, 0x00, 0xc0, 0x03, 0x00, 0xc0, 0x07, 0x00, 0xe0, 0x06, 0x00, 0x60,
   0x0e, 0x00, 0x60, 0x0e, 0x00, 0x70, 0x1c, 0x00, 0x38, 0x38, 0x00, 0x1c,
   0x70, 0x00, 0x0e, 0xe0, 0xc3, 0x07, 0xc0, 0xff, 0x03, 0x00, 0x7e, 0x00};
